<svg xmlns="http://www.w3.org/2000/svg" xmlns:xlink="http://www.w3.org/1999/xlink" width="75.656" height="410.041" viewBox="0 0 52 342.895">
  <defs>
    <linearGradient id="linear-gradient" x1="0.5" x2="0.5" y2="1" gradientUnits="objectBoundingBox">
      <stop offset="0" stop-color="#ffaf83"/>
      <stop offset="1" stop-color="#f8600d"/>
    </linearGradient>
  </defs>
  <g id="Layer_1" transform="translate(-156.872 -318.078)">
    <g id="Group_6846" data-name="Group 6846" transform="translate(156.872 318.078)">
      <path id="Path_8574" data-name="Path 8574" d="M205.711,405.75c.007.8.007,1.608.015,2.409a30.02,30.02,0,0,0-1.072,9.107,62.121,62.121,0,0,0-1.381,25.4c1.777,11.252.72,22.4-1.924,33.432a51.644,51.644,0,0,0-1.836,14.109c.734,18.78-1.623,37.324-4.634,55.781-.94,5.743-2.7,11.362-3.459,17.179a5.51,5.51,0,0,1-.734,2.438c-7.535,10.547-6.566,23.216-8.593,35.077-1.77,10.326-3.276,20.777-1.829,31.353a20.207,20.207,0,0,0,9.871,15.4,58.034,58.034,0,0,0,15.754,6.639c1.285.338,2.842.433,2.974,2.181.14,1.836-1.131,2.9-2.585,3.658a10.175,10.175,0,0,1-4.6,1.013c-5.611.1-11.171.132-16.679-1.381a49.814,49.814,0,0,0-13.132-1.682c-5.031-.015-7.109-2.3-6.948-7.315a52.687,52.687,0,0,1,.867-8.74c1.895-9.3-.808-18.148-2.255-27.152a109.027,109.027,0,0,1,3.481-50.669,51.641,51.641,0,0,0,1.733-24.6c-1.8-10.348-.566-21.027-3-31.331-1.6-6.75-3.753-13.374-5.1-20.168a38.3,38.3,0,0,1,2.453-22.3c6.257-15.034,5.251-29.694-.632-44.47a126.388,126.388,0,0,1-4.774-14.564c-2.1-7.954.257-15.467,3.026-22.834,2.306-6.147,4.737-12.258,7.2-18.346a12.679,12.679,0,0,0,.022-9.261c-2.056-6.052-5.626-11.641-5.119-18.493.477-6.529,2.387-11.92,8.85-14.784a12.994,12.994,0,0,0,2.644-1.924c3.511-2.813,7.308-3.753,11.575-1.843,3.782,1.689,7.572,3.356,11.347,5.053a7.35,7.35,0,0,0,6.294.176,1.231,1.231,0,0,1,.073,1.645c-5.229,8.857-1.667,18.706-3.129,27.99-.455,2.886-1.983,5.457-1.917,8.483.029,1.381-1.41,2.218-2.82,2.5a11.427,11.427,0,0,1-2.556.169c-8.005-.316-8.622,3.9-5.523,10.569,2.475,5.325,7.168,9.232,10.414,14.109,1.212,1.821,2.446,3.621,3.672,5.435C203.757,398.464,204.125,402.342,205.711,405.75Z" transform="translate(-156.872 -318.078)" fill="url(#linear-gradient)"/>
    </g>
  </g>
</svg>
