<svg xmlns="http://www.w3.org/2000/svg" xmlns:xlink="http://www.w3.org/1999/xlink" width="75.656" height="410.041" viewBox="0 0 75.656 410.041">
  <defs>
    <linearGradient id="linear-gradient" x1="0.5" x2="0.5" y2="1" gradientUnits="objectBoundingBox">
      <stop offset="0" stop-color="#ffaf83"/>
      <stop offset="1" stop-color="#f8600d"/>
    </linearGradient>
  </defs>
  <g id="Layer_1" transform="translate(-268.109 -318.663)">
    <g id="Group_6847" data-name="Group 6847" transform="translate(268.109 318.663)">
      <path id="Path_8575" data-name="Path 8575" d="M332.215,325.7c.114.264.237.422.2.492-5.47,10.543-1.706,21.94-2.937,32.888-.5,4.441-2.955,8.187-3.324,12.575-.105,1.257-1.337,1.891-2.524,2.154-1.266.281-2.577.378-3.852.642-3.016.624-7.413-.528-8.354,3.28-1.126,4.52-2.058,9.655,2.278,13.516,3.28,2.919,6.551,5.848,9.937,8.635,11.669,9.576,17.693,21.272,13.744,36.643a81.725,81.725,0,0,0-1,35.57c2.489,13.595-1.134,26.7-4.617,39.712A33.606,33.606,0,0,0,330.4,522.2c1.134,22.687-2.506,44.935-6.446,67.113-1.345,7.562-4.617,14.729-5.5,22.476a8.172,8.172,0,0,1-2.225,4.661c-6.71,6.419-7.193,15.125-8.635,23.373-2.172,12.364-4.414,24.728-5.857,37.223a62.963,62.963,0,0,0,1.029,19.636c1.46,7.237,6.551,12.074,13.146,15.512a97.269,97.269,0,0,0,24.279,8.442c1.592.352,3.368.387,3.553,2.515.158,1.864-1.2,2.972-2.577,3.772a11.974,11.974,0,0,1-5.848,1.662c-9.049.149-18.062.616-26.952-2.207-5.892-1.873-12.2-1.134-18.335-1.328-8.442-.264-11.185-3.561-10.016-11.968.624-4.485,1.337-8.961,1.794-13.472a31.226,31.226,0,0,0-.589-11.757c-4.107-14.729-6.261-29.7-5.382-45.058.624-10.939,4.019-21.192,7.387-31.446a59.11,59.11,0,0,0,1.838-30.215c-1.284-6.709-1.337-13.683-1.6-20.551-.431-11.15-4.195-21.465-7.888-31.736-4.493-12.522-3.1-24.516,2.4-36.124,7.061-14.914,7.483-29.713.818-44.812-2.823-6.4-5.179-13.006-8.011-19.4-4.1-9.26-3.386-18.22,1.345-26.917,4.608-8.459,8.635-17.2,12.962-25.8,2.26-4.494,2.427-8.459.123-12.8-1.7-3.218-3.13-6.578-4.7-9.875-5.646-11.836-1.891-23.153,9.682-29.116.906-.466,1.855-.879,2.726-1.4,8.3-4.96,16.418-5.452,25.026-.22C322.129,324.921,326.772,327.832,332.215,325.7Z" transform="translate(-268.109 -318.663)" fill="url(#linear-gradient)"/>
    </g>
  </g>
</svg>
