<svg xmlns="http://www.w3.org/2000/svg" xmlns:xlink="http://www.w3.org/1999/xlink" width="75.656" height="410.041" viewBox="0 0 66.416 333.358">
  <defs>
    <linearGradient id="linear-gradient" x1="0.5" x2="0.5" y2="1" gradientUnits="objectBoundingBox">
      <stop offset="0" stop-color="#ffaf83"/>
      <stop offset="1" stop-color="#f8600d"/>
    </linearGradient>
  </defs>
  <g id="Layer_1" transform="translate(-406.11 -318.016)">
    <g id="Group_6848" data-name="Group 6848" transform="translate(406.11 318.016)">
      <path id="Path_8576" data-name="Path 8576" d="M465.49,458.664c.014.328.021.656.036.984-1.54,3.272-1.269,6.951-2.346,10.33a149.59,149.59,0,0,1-7.165,17.709c-2.317,4.705-1.7,9.981-1.64,15.071.121,11.3-1.169,22.485-2.773,33.635-.442,3.058-1.818,5.86-2.745,8.783-3.472,10.9-7.486,21.573-11.578,32.26-3.565,9.3-4.049,19.648-5.618,29.579-1.027,6.488-1.39,12.982.078,19.441a15.011,15.011,0,0,0,7.464,9.924c5.639,3.286,11.457,6.1,17.894,7.5,1.369.3,3.415.207,3.586,2.253.171,2.11-1.832,2.652-3.265,3.272a24.065,24.065,0,0,1-15.378,1.248c-8.17-2.046-16.4-2.281-24.681-2.545-4.278-.135-7.514-2.916-6.623-6.958,2.524-11.407-.649-22.022-3.251-32.851-2.9-12.055-3.016-24.1.913-36.124a192.755,192.755,0,0,0,4.819-19.605c1.9-8.869-.656-17.367-2.353-25.972-2.517-12.768-6.16-25.273-8.719-38.041-1.7-8.462-.143-16.219,2.624-23.99,3.579-10.038,6.038-20.169,4.235-30.962a91.939,91.939,0,0,0-6.8-22.35c-5.582-12.512-3.272-23.7,4.206-34.448,2.624-3.771,5.4-7.421,7-11.87a12.7,12.7,0,0,0-.606-10.273c-1.412-2.987-2.723-6.024-3.992-9.083-3.693-8.89-1.782-15.741,5.882-21.395,1.141-.841,2.153-1.861,3.287-2.716,4.235-3.187,8.869-4.441,14.016-2.6,5.112,1.832,10.508,2.795,15.428,5.24,2.153,1.069,4.52.82,6.915-.178a3.134,3.134,0,0,1-.014,1.084c-1.968,4.292-1.461,8.455-.913,13.139a48.206,48.206,0,0,1-1.561,20.154c-1.4,4.5-3.543,6.245-7.749,7.172-6.623,1.461-8.248,5.789-4.342,11.492,3.073,4.491,6.666,8.626,9.9,13.011,3.379,4.57,7.151,8.847,9.967,13.838,2.132,3.778,3.493,7.828,1.925,11.891-3.258,8.462-1.141,16.575.848,24.745a90.284,90.284,0,0,1,2.224,12.918C464.919,455.149,465.2,456.9,465.49,458.664Z" transform="translate(-399.11 -318.016)" fill="url(#linear-gradient)"/>
    </g>
  </g>
</svg>
