<svg xmlns="http://www.w3.org/2000/svg" xmlns:xlink="http://www.w3.org/1999/xlink" width="75.656" height="410.041" viewBox="0 0 61.805 275.713">
  <defs>
    <linearGradient id="linear-gradient" x1="0.5" x2="0.5" y2="1" gradientUnits="objectBoundingBox">
      <stop offset="0" stop-color="#ffaf83"/>
      <stop offset="1" stop-color="#f8600d"/>
    </linearGradient>
  </defs>
  <g id="Layer_1" transform="translate(-542.322 -318.323)">
    <g id="Group_6849" data-name="Group 6849" transform="translate(542.322 318.323)">
      <path id="Path_8577" data-name="Path 8577" d="M585.921,593.995c-3.1.26-6-.862-9-1.3-5.438-.791-10.93-.242-16.386-.655-3.413-.26-5.816-1.825-5.249-4.93,1.872-10.239-2.758-19.226-4.795-28.709-2.285-10.628-1.854-20.82,2.622-31.053,4.582-10.469,4.73-21.44,1.169-32.488a216.2,216.2,0,0,0-8.078-22c-4.57-10.245-5.745-20.979-.024-31.189,6.625-11.821,5.81-23.861,2.386-36.19q-2-7.219-4.169-14.39c-2.823-9.324-.384-17.389,5.8-24.546,2.941-3.4,6.312-6.43,6.891-11.349a9.716,9.716,0,0,0-.839-5.669c-1.323-2.728-2.586-5.491-3.856-8.243-3.726-8.066,1.146-16.273,7.357-19.887,5.19-3.023,10.658-4.293,16.811-1.6,3.6,1.571,7.381,3.248,11.361,3.8,4.246.585,4.316.431,2.315,4.452a3.4,3.4,0,0,0-.313,2.793c1.653,4.83,1.453,9.79,1.1,14.774-.248,3.472-1.766,6.6-2.622,9.9-.537,2.073-2.852,2.876-4.718,3.726-4.086,1.866-5.273,4.8-3.2,8.881,1.417,2.787,3.153,5.415,4.771,8.107,3.431,5.716,6.643,11.591,10.4,17.082a11.73,11.73,0,0,1,1.571,11.083c-.98,2.811-.384,5.119.6,7.611,2.427,6.2,4.889,12.424,5.846,19.055a36.352,36.352,0,0,1-4.364,24.15,11.942,11.942,0,0,1-2.521,3.218c-3.088,2.551-3.749,5.8-3.254,9.53a88.994,88.994,0,0,1-.065,26.146c-.968,5.934-2.273,11.8-5.344,17.006-1.96,3.318-.667,6.962-1.807,10.316-.7,2.049-1.069,4.352-2.551,5.869-4.511,4.606-5.4,10.457-6.33,16.4-.974,6.2-2.3,12.341-3.283,18.541a27.972,27.972,0,0,0,.313,11.685,13.024,13.024,0,0,0,6.064,8.343c3.885,2.244,7.676,4.73,12.164,5.781,1.323.307,3.407.4,3.336,2.238-.059,1.724-1.96,2.309-3.443,2.787A17.3,17.3,0,0,1,585.921,593.995Z" transform="translate(-542.322 -318.323)" fill="url(#linear-gradient)"/>
    </g>
  </g>
</svg>
