<svg xmlns="http://www.w3.org/2000/svg" xmlns:xlink="http://www.w3.org/1999/xlink" width="75.656" height="410.041" viewBox="0 0 58.731 231.444">
  <defs>
    <linearGradient id="linear-gradient" x1="0.5" x2="0.5" y2="1" gradientUnits="objectBoundingBox">
      <stop offset="0" stop-color="#ffaf83"/>
      <stop offset="1" stop-color="#f8600d"/>
    </linearGradient>
  </defs>
  <g id="Layer_1" transform="translate(-698.914 -317.185)">
    <g id="Group_6850" data-name="Group 6850" transform="translate(698.914 317.185)">
      <path id="Path_8578" data-name="Path 8578" d="M751.714,384.406a10.55,10.55,0,0,1-.816,6.024,7.564,7.564,0,0,0,.341,6.825,70.976,70.976,0,0,1,5.677,15.415c1.751,8.041.4,15.311-4.673,21.849a9.014,9.014,0,0,1-3.971,2.8c-3.027,1.207-3.65,2.458-3.264,5.707.95,7.923,1.914,15.85.9,23.847-.6,4.748-2.74,8.907-5.148,12.932a6.143,6.143,0,0,0-.92,4.421c.608,3.768-.114,7.314-3.116,9.886-3.457,2.957-3.946,7.013-4.7,11.043-1.078,5.806-2.216,11.6-3.284,17.408a24.752,24.752,0,0,0-.025,8.58c.841,5.114,4.446,7.794,8.674,9.94a10.481,10.481,0,0,0,4.476,2c1.024.307,2.052.593,3.066.925,1.706.549,1.958,1.533.628,2.755a8.191,8.191,0,0,1-5.015,1.756,22.966,22.966,0,0,1-7.339-.435c-5.015-1.133-10.163-.628-15.252-.851-4.975-.218-5.989-.89-5.682-5.756a33.3,33.3,0,0,0-2.557-14.629c-2.072-5.232-2.7-10.811-3.521-16.33.272-4.174.163-8.4,1.513-12.443,1.335-3.778,3.585-7.146,4.6-11.1,2.27-8.857-.089-16.973-3.076-25.212a119.176,119.176,0,0,0-7.136-16.078c-4.174-7.745-4.357-16.038.168-24.01a48.989,48.989,0,0,1,2.769-4.935c3.343-4.565,3.323-9.55,2.443-14.826-1.365-8.2-3.7-16.157-5.648-24.208-1.835-7.571.341-14.085,5.415-19.767.925-1.039,2.067-1.879,3.1-2.824a9.369,9.369,0,0,0,2.181-11.241c-1.088-2.295-2.23-4.575-3.18-6.924-2.216-5.5-.7-10.252,3.388-14.51,5.5-5.737,11.607-6.449,18.654-3.714,2.745,1.063,5.6,1.864,8.432,2.671a5.534,5.534,0,0,0,4.94-.593,8.92,8.92,0,0,1-2.552,5.771c-.7.732-1.147,1.414-.682,2.374,1.924,4.006,1.152,8.16.836,12.329-.213,2.814-1.583,5.257-2.191,7.942-.4,1.726-2.443,2.809-4.075,3.754-2.68,1.558-3.8,4-2.364,6.746a43.987,43.987,0,0,0,7,10.024c.9,2.675,3.022,4.53,4.575,6.77l1.009,1.469,2.552,2.967c.45.653.9,1.306,1.345,1.958A3.018,3.018,0,0,0,751.714,384.406Z" transform="translate(-698.914 -317.185)" fill="url(#linear-gradient)"/>
    </g>
  </g>
</svg>
