<?xml version="1.0" encoding="utf-8"?><!-- Svg Vector Icons : http://www.onlinewebfonts.com/icon -->
<!DOCTYPE svg PUBLIC "-//W3C//DTD SVG 1.1//EN" "http://www.w3.org/Graphics/SVG/1.1/DTD/svg11.dtd">
<svg version="1.1" xmlns="http://www.w3.org/2000/svg" xmlns:xlink="http://www.w3.org/1999/xlink"
    x="0px" y="0px" viewBox="0 0 1000 1000" enable-background="new 0 0 1000 1000"
    xml:space="preserve">
<metadata> Svg Vector Icons : http://www.onlinewebfonts.com/icon </metadata>
    <g><path d="M438.8,530.6H316.3V408.1H193.8v122.5h-60.8c-34.1,0-61.7,27.6-61.7,60.7v245.6H10v122.5h980V836.9h-61.3V591.3c0-33.5-27.6-60.7-61.7-60.7h-60.8V346.9H683.8v183.8H561.3v-245H438.8V530.6z M193.8,836.9V653.1h612.5v183.8H193.8z M255,346.9c33.8,0,61.3-27.4,61.3-61.3S255,163.1,255,163.1s-61.3,88.7-61.3,122.5S221.1,346.9,255,346.9L255,346.9z M500,224.4c33.8,0,61.3-27.4,61.3-61.3S500,40.6,500,40.6s-61.2,88.7-61.2,122.5S466.2,224.4,500,224.4z M745,285.6c33.8,0,61.3-27.4,61.3-61.3S745,101.9,745,101.9s-61.3,88.7-61.3,122.5S711.2,285.6,745,285.6z"/></g>
</svg>