<svg xmlns="http://www.w3.org/2000/svg" width="21.404" height="14.404" viewBox="10.444 13.649 21.404 14.404"><g data-name="Home"><path d="M13.81 17.418c.483 0 .874.392.874.875v4.98a.875.875 0 1 1-1.75 0v-4.98c0-.483.392-.875.875-.875Z" fill="#5e4d44" fill-rule="evenodd" data-name="Path 8616"/><path d="M15.425 15.533a.875.875 0 0 1 .875.875v8.75a.875.875 0 0 1-.875.875.875.875 0 0 1-.875-.875v-8.75a.875.875 0 0 1 .875-.875z" fill="#f06400" fill-rule="evenodd" data-name="Rectangle 1579"/><path d="M17.04 13.649c.483 0 .875.391.875.875v12.52a.875.875 0 0 1-1.75 0v-12.52c0-.484.392-.875.875-.875Z" fill="#5e4d44" fill-rule="evenodd" data-name="Path 8615"/><path d="M21.886 19.908v1.75h-4.038v-1.75h4.038Z" fill="#5e4d44" fill-rule="evenodd" data-name="Path 8613"/><path d="M13.002 19.908v1.75h-2.558v-1.75h2.558z" fill="#5e4d44" fill-rule="evenodd" data-name="Rectangle 1588"/><path d="M24.579 19.908v1.75h-3.231v-1.75h3.23z" fill="#5e4d44" fill-rule="evenodd" data-name="Rectangle 1586"/><path d="M31.848 20.043v1.75h-2.423v-1.75h2.423z" fill="#5e4d44" fill-rule="evenodd" data-name="Rectangle 1587"/><path d="M28.617 17.552a.875.875 0 0 1 .875.876v4.98a.875.875 0 0 1-.875.875.875.875 0 0 1-.875-.875v-4.98a.875.875 0 0 1 .875-.876z" fill="#5e4d44" fill-rule="evenodd" data-name="Rectangle 1578"/><path d="M27.002 15.668c.483 0 .875.392.875.875v8.75a.875.875 0 0 1-1.75 0v-8.75c0-.483.392-.875.875-.875Z" fill="#f06400" fill-rule="evenodd" data-name="Path 8612"/><path d="M25.387 13.783c.483 0 .875.392.875.875v12.52a.875.875 0 0 1-1.75 0v-12.52c0-.483.391-.875.875-.875Z" fill="#5e4d44" fill-rule="evenodd" data-name="Path 8614"/></g></svg>