<svg xmlns="http://www.w3.org/2000/svg" width="51" height="51" viewBox="0.261 0.289 51 51"><g data-name="Bg"><path d="M12 0h27a12 12 0 0 1 12 12v27a12 12 0 0 1-12 12H12A12 12 0 0 1 0 39V12A12 12 0 0 1 12 0z" fill-rule="evenodd" fill="url(&quot;#a&quot;)" transform="translate(.26 .289)" data-name="Rectangle 5892"/><g data-name="coffee"><g data-name="Group"><g data-name="Group"><path d="M21.234 37.565c-2.55-.835-3.911-3.355-5.022-5.521-1.578-3.608-2.706-11.599-2.341-15.518 4.267-.523 8.543.067 12.862.152 1.84.042 3.687.025 5.517-.127 1.145-.093 3.755-1.054 4.796-.556 1.266.607-.815 12.905-1.205 14.119-.998 3.135-2.837 7.358-6.558 7.847-2.498.329-5.03.32-7.485-.236-.19-.05-.381-.101-.564-.16Z" fill="#f5d4a2" fill-rule="evenodd" data-name="Vector"/><path d="M35.684 30.62c-1.032 3.068-2.87 6.878-6.392 7.341-2.498.329-5.03.32-7.485-.236-.2-.05-.39-.101-.573-.16-2.55-.835-3.911-3.355-5.022-5.521-1.578-3.608-2.706-11.599-2.341-15.518l.442-.05c-.06 4.189.989 10.957 2.394 14.194 1.119 2.166 2.472 4.687 5.022 5.521.182.067.373.118.572.16 2.455.556 4.988.565 7.485.236 3.01-.396 4.788-3.237 5.898-5.968Z" fill="#cc9c62" fill-rule="evenodd" data-name="Vector"/><path d="M33.178 35.593c-.989 1.23-2.255 2.157-3.877 2.368-2.498.329-5.03.32-7.485-.236a9.21 9.21 0 0 1-.573-.16c-1.214-.396-2.212-1.214-3.01-2.166-.607-.725-1.266-2.453-2.03-2.9-.26-.152-1.075-.067-1.413-.143-.468-.11-.91-.27-1.344-.464a8.198 8.198 0 0 1-2.264-1.576c-2.637-2.563-3.738-7.022-.763-9.778.893-.826 2.263-1.222 3.408-.767a25.218 25.218 0 0 1 .087-3.237 51.5 51.5 0 0 0 .841 7.823c.798 4.324 2.004 10.502 7 12.112.19.06.39.118.598.16 2.585.582 5.248.582 7.885.245 1.127-.143 2.098-.616 2.94-1.281ZM14.356 24.559c-.06-.438-.043-2.967-.641-3.077-1.874-.345-3.149 1.416-3.314 3.043-.19 1.863.99 4.29 2.646 5.268.39.236.876.439 1.344.43.78-.008.737-.135.78-.809.01-.118.01-.228.01-.346-.018-1.45-.625-3.102-.825-4.51Z" fill="#cc9c62" fill-rule="evenodd" data-name="Vector"/><path d="M35.277 18.549h-.009c-2.316 1.155-5.482 1.264-8.014 1.39-2.299.119-12.629.793-13.297-2.596-1.162-5.967 19.186-4.846 22.152-2.613.608.456.894.944.946 1.425.104.952-.729 1.863-1.778 2.394Z" fill="#f5d4a2" fill-rule="evenodd" data-name="Vector"/><path d="M34.435 18.077h-.008c-2.117.944-5.005 1.036-7.32 1.138-2.1.092-11.536.649-12.144-2.125-1.066-4.88 17.52-3.953 20.236-2.132.555.37.815.775.858 1.163.087.784-.676 1.526-1.622 1.956Z" fill="#cc9c62" fill-rule="evenodd" data-name="Vector"/><path d="M35 17.765c-.174.118-.374.22-.573.312h-.009c-2.116.944-5.004 1.037-7.32 1.138-1.778.076-8.873.489-11.328-1.096 3.47-2.613 16.471-1.83 19.23-.354Z" fill="#45301c" fill-rule="evenodd" data-name="Vector"/><path d="M35.008 17.765c-.174.118-.373.22-.573.312h-.008a10.03 10.03 0 0 1-.885.337c-1.735-1.02-5.707-1.804-9.94-1.98 4.667-.153 9.784.471 11.406 1.331Z" fill="#362512" fill-rule="evenodd" data-name="Vector"/><path d="M27.401 20.319c-.269.008-2.333.194-2.16-.346 0-.008.01-.008.018-.008.2.101.581-.034.807-.059l.702-.05c.494-.034.989-.06 1.483-.093a30.2 30.2 0 0 0 2.871-.32c.729-.127 1.475-.27 2.177-.49.217-.067 1.206-.26 1.327-.362-1.865 1.585-4.866 1.635-7.225 1.728ZM23.1 20.117c-.625.118-1.284.084-1.918.042-.633-.042-1.3-.101-1.908-.287-.078-.025-.07-.143.018-.143.633.025 1.257.135 1.89.177.625.042 1.275.017 1.9.093.06.008.087.1.017.118Z" fill="#fdffeb" fill-rule="evenodd" data-name="Vector"/><path d="M28.928 16.576c-.573.076-1.171-.016-1.744-.042-.58-.025-1.162-.05-1.743-.059-1.101-.017-2.203 0-3.304.101-.634.06-1.258.144-1.865.262.008.033-.009.067-.035.092-.026.026-.06.034-.095.051-.078.034-.156-.017-.182-.084-.01 0-.027.008-.044.008.07.017.122.076.122.152 0 .084-.078.16-.165.16a.162.162 0 0 1-.165-.16c0-.05.026-.101.07-.127-1.31.287-2.568.708-3.808 1.273-.096.05-.182-.084-.087-.143 1.787-1.062 3.964-1.526 6.028-1.72 1.171-.11 2.35-.126 3.53-.1.616.008 1.223.033 1.83.067.547.033 1.136.008 1.674.143.078.017.052.118-.017.126Z" fill="#87602d" fill-rule="evenodd" data-name="Vector"/><path d="M30.567 16.795c-.312 0-.616-.067-.92-.126-.06-.008-.043-.101.01-.093.303.034.615.068.91.16.026.009.026.06 0 .06Z" fill="#543b22" fill-rule="evenodd" data-name="Vector"/><path d="M31.304 17.866c-1.084.017-2.185-.202-3.26-.253a38.148 38.148 0 0 0-6.29.21c-1.023.119-1.985.262-2.887.76-.044.025-.087-.034-.052-.068.693-.615 1.69-.733 2.584-.851a34.088 34.088 0 0 1 3.21-.278 38.9 38.9 0 0 1 3.434.016c1.058.051 2.238.06 3.27.363.06.017.052.11-.009.101ZM28.2 19.206c-.13.009-.13-.194 0-.194a.367.367 0 0 0-.348-.21l-.312-.051c-.2-.025-.408-.05-.607-.067a12.07 12.07 0 0 0-.954-.06c-.685-.016-1.37.051-2.056.068-.034 0-.043-.05-.008-.059 1.11-.261 2.359-.21 3.486-.084.278.025.885-.009 1.032.286.087.186-.043.354-.234.371ZM32.336 18.026c-.017.084-.112.127-.199.11h-.095c-.026 0-.044 0-.061-.009-.044 0-.078-.008-.104-.05-.026-.042-.009-.093.017-.135.035-.127.217-.135.33-.11.095.026.138.11.112.194Z" fill="#87602d" fill-rule="evenodd" data-name="Vector"/><path d="M30.428 16.804a.295.295 0 0 1-.017.093c-.009.033-.026.042-.052.067l-.009.009a.126.126 0 0 1-.086.033c-.035 0-.053-.017-.061-.042-.009-.017-.009-.025-.009-.042 0-.008-.009-.025-.009-.025s-.008-.009-.008-.017c0-.009-.009-.017-.009-.017v-.008a.178.178 0 0 1-.052-.203c.035-.092.147-.092.226-.059.052.026.078.085.078.135v.009c0 .016.008.033.008.067Z" fill="#543b22" fill-rule="evenodd" data-name="Vector"/><path d="M30.359 17.343h-.009c-.07.026-.13.026-.182-.025l-.009-.008a.163.163 0 0 1-.026-.194.166.166 0 0 1 .165-.076c.07.008.13.067.139.135a.177.177 0 0 1-.078.168Z" fill="#422d16" fill-rule="evenodd" data-name="Vector"/><path d="M31.972 17.386c-.017.008-.034.025-.052.033l-.008.009c-.044.034-.078.034-.122 0l-.009-.009a.182.182 0 0 1-.052-.033.163.163 0 0 1-.026-.194.165.165 0 0 1 .14-.076c.138-.009.216.177.13.27ZM33.447 17.756c.008.043-.044.085-.087.085s-.095-.042-.087-.085c.009-.016.009-.025.009-.042.009-.1.156-.1.165 0v.042Z" fill="#543b22" fill-rule="evenodd" data-name="Vector"/><path d="M21.243 16.972c-.06.076-.19.076-.243-.016-.008-.026-.017-.043-.017-.068v.009-.009c0-.11.113-.177.208-.135a.135.135 0 0 1 .052.22ZM21.954 18.59a.24.24 0 0 1-.164.051.162.162 0 0 1-.165-.16c0-.084.078-.16.165-.16.06 0 .121 0 .164.05a.173.173 0 0 1 0 .22ZM22.865 18.195c-.026.067-.113.118-.19.092-.018 0-.027-.008-.044-.008-.017 0-.026-.008-.043-.017.026.009.026.009.008 0a.148.148 0 0 1-.104-.118c-.008-.05.018-.118.07-.143.008-.009.026-.009.043-.017a.08.08 0 0 1 .043-.008c-.026 0-.026 0 0 0h.026c.044 0 .087.016.122.033.07.034.095.127.07.186ZM23.186 18.633c-.009.034-.052.05-.104.05s-.095-.016-.104-.05c0-.017.009-.042.043-.076l.018-.017c.017-.025.06-.025.086 0l.018.017c.034.034.043.06.043.076ZM23.698 18.28c-.096 0-.096-.144 0-.144.095 0 .095.135 0 .143Z" fill="#87602d" fill-rule="evenodd" data-name="Vector"/><path d="M34.08 14.663c-1.05-.202-2.073-.472-3.131-.632-1.041-.16-2.117-.169-3.157-.363-.052-.008-.035-.067.008-.076 1.024-.11 2.117.06 3.131.203 1.059.143 2.177.312 3.2.649.14.042.088.236-.051.219Z" fill="#fdffeb" fill-rule="evenodd" data-name="Vector"/><path d="M13.16 20.327c-1.206.144-2.299.692-2.95 1.72a4.233 4.233 0 0 0-.624 1.83c-.06.59-.026 1.188-.095 1.77-.01.1-.148.16-.209.058-.693-1.23-.277-3 .512-4.096.746-1.037 2.064-1.846 3.409-1.619.225.042.139.329-.044.337Z" fill="#f5d4a2" fill-rule="evenodd" data-name="Vector"/><path d="M17.566 19.99c-1.475-.312-3.461-1.441-3.53-3.093 0-.05.078-.05.095-.009.295.734.685 1.357 1.362 1.812.676.464 1.43.59 2.229.75.355.068.208.608-.156.54Z" fill="#cc9c62" fill-rule="evenodd" data-name="Vector"/></g><g data-name="Group"><g data-name="Group"><path d="M41.262 35.98c.633 1.425-1.318 2.47-2.428 2.714-1.171.253-2.446.397-3.557-.059-1.118-.455-1.977-1.66-1.648-2.79.33-1.112 1.631-1.686 2.82-1.761 1.37-.085 4.197.522 4.813 1.896Z" fill="#6e4115" fill-rule="evenodd" data-name="Vector"/><path d="M34.114 35.348c.217-1.054 2.655-1.146 3.461-1.172.841-.025 1.726.076 2.429.531.789.506 1.518 1.863.494 2.462-.989.573-2.238.421-3.322.27-.867-.118-3.33-.852-3.062-2.09Z" fill="#915821" fill-rule="evenodd" data-name="Vector"/><path d="M41.097 36.587a.541.541 0 0 1 .034.244c-.008.144-.2.194-.286.093-.303-.362-.468-.531-.997-.472a1.43 1.43 0 0 1-.625-.067c-.364-.11-.572-.177-.963-.144a.964.964 0 0 1-.511-.076c-.573-.219-1.163-.008-1.744-.252a3.963 3.963 0 0 0-.468-.17 8.157 8.157 0 0 0-1.015-.016c-.156.009-.399.093-.546.009-.243-.135-.14-.312.017-.422.009-.05.043-.093.113-.101l.165-.017c.078 0 .121.034.147.084.295-.042.599-.084.885-.076.295 0 .399.203.685.245.312.05.633-.135.971-.093.339.042.634.152.954.245.226.059.373.05.599.017.06-.009.173-.026.234-.017.208.025.174.126.304.219.017.017.026.017.043.025.122.017.234.042.347.06.104 0 .208-.01.304.008.138.025.216.075.338.126a.654.654 0 0 0 .121.034c.14.008.27.05.39.118l.122.05c.139.05.278.101.399.186.078.05.06.143-.017.16Z" fill="#6e4115" fill-rule="evenodd" data-name="Vector"/><path d="M39.89 37.59c-.06.025-.13.034-.19.05-.052.017-.121.026-.173.051-.052.025-.087-.042-.052-.076.026-.033.034-.059.069-.084.026-.017.06-.034.087-.05a.405.405 0 0 1 .225-.051c.078 0 .113.135.035.16ZM41.192 36.705c-.035.034-.087.034-.121.025-.018-.008-.026-.008-.044-.016a.11.11 0 0 1-.07-.102c-.016-.008-.051-.025-.12-.042-.079-.025-.148-.092-.217-.135-.321-.185-.634-.168-.98-.193-.59-.043-1.085-.363-1.666-.464-.572-.093-1.145-.084-1.708-.16-.599-.084-1.189-.32-1.804-.245-.079.009-.113-.1-.044-.126.66-.236 1.284.084 1.943.169.703.092 1.414.033 2.099.21.408.101.763.312 1.197.346.338.025.668.008.98.16.182.084.824.295.555.573Z" fill="#593511" fill-rule="evenodd" data-name="Vector"/><path d="M40.203 37.953c-.676.59-1.934.775-2.793.573-.06-.009-.052-.11.01-.11.441-.025.875-.042 1.309-.135.494-.11.893-.354 1.353-.514.121-.042.225.101.121.186ZM40.689 37.54c.043.084-.017.176-.104.193h-.017c-.13.034-.217-.16-.113-.236l.009-.008c.078-.05.182-.034.225.05Z" fill="#915821" fill-rule="evenodd" data-name="Vector"/><path d="M38.642 38.888c-.477.236-1.162.186-1.691.144a4.64 4.64 0 0 1-1.622-.413c-.859-.413-1.744-1.29-1.778-2.276-.009-.042.06-.034.07 0 .337 1.053.98 1.812 2.08 2.183.486.16.998.227 1.51.244.468.009.963-.1 1.414-.017.06.009.086.093.017.135Z" fill="#593511" fill-rule="evenodd" data-name="Vector"/></g><g data-name="Group"><path d="M37.038 39.799c-.053 1.593-2.342 1.736-3.479 1.492-1.205-.262-2.445-.675-3.278-1.568-.824-.894-1.084-2.386-.269-3.288.807-.893 2.272-.876 3.409-.438 1.31.506 3.66 2.276 3.617 3.802Z" fill="#6e4115" fill-rule="evenodd" data-name="Vector"/><path d="M30.671 36.174c.685-.885 2.993.067 3.747.388.79.337 1.561.809 2.012 1.525.503.81.573 2.377-.65 2.495-1.171.118-2.264-.556-3.2-1.154-.747-.48-2.707-2.217-1.909-3.254Z" fill="#915821" fill-rule="evenodd" data-name="Vector"/><path d="M36.63 40.321a.724.724 0 0 1-.078.245c-.078.118-.278.092-.312-.043-.13-.463-.2-.69-.72-.86a1.387 1.387 0 0 1-.547-.328c-.286-.253-.45-.405-.832-.54-.209-.067-.295-.134-.443-.286-.433-.447-1.084-.506-1.509-.978a3.494 3.494 0 0 0-.356-.354 7.897 7.897 0 0 0-.936-.447c-.156-.059-.417-.084-.512-.227-.156-.228.009-.354.208-.388.035-.042.078-.067.148-.042l.156.059c.07.025.095.076.095.135.295.084.59.177.859.303.269.135.269.363.52.523.269.177.65.152.946.329.303.177.52.404.78.632.182.151.321.202.547.27.06.016.173.05.225.084.182.11.104.185.182.328.009.009.018.026.026.034.096.068.2.135.295.202.096.043.191.076.278.135.112.085.164.16.251.262.026.025.06.05.096.076.13.075.234.168.312.278.035.033.07.067.095.1.122.102.226.203.295.338a.107.107 0 0 1-.07.16Z" fill="#6e4115" fill-rule="evenodd" data-name="Vector"/><path d="M35.034 40.717c-.07-.008-.13-.025-.2-.033-.06-.009-.13-.026-.182-.026a.047.047 0 0 1-.017-.092c.043-.009.06-.034.104-.042a.453.453 0 0 1 .338.034c.07.041.044.176-.043.16ZM36.647 40.456a.15.15 0 0 1-.121-.034l-.035-.033c-.035-.026-.035-.076-.017-.118l-.096-.093c-.06-.06-.095-.152-.138-.22-.217-.303-.512-.42-.824-.598-.53-.286-.842-.8-1.336-1.138-.477-.328-1.015-.564-1.51-.876-.52-.329-.962-.81-1.57-.995-.069-.025-.06-.143.018-.135.72.05 1.154.615 1.726.978.607.38 1.301.632 1.856 1.087.339.278.564.616.954.835.295.168.616.295.833.565.13.16.633.623.26.775Z" fill="#593511" fill-rule="evenodd" data-name="Vector"/><path d="M35.164 41.206c-.893.262-2.142-.11-2.853-.657-.044-.034.008-.127.06-.101.417.16.833.337 1.275.43.503.1.98.05 1.483.092.13.009.165.186.035.236ZM35.797 41.012c0 .093-.087.152-.182.135h-.017c-.14-.034-.14-.244 0-.27h.017c.087-.016.182.043.182.135Z" fill="#915821" fill-rule="evenodd" data-name="Vector"/><path d="M33.308 41.4c-.555.009-1.171-.329-1.64-.59a4.75 4.75 0 0 1-1.318-1.079c-.616-.742-1.05-1.939-.633-2.866.017-.042.078-.008.07.026-.165 1.12.095 2.098.945 2.916.373.354.815.64 1.284.868.425.211.936.32 1.318.59a.074.074 0 0 1-.026.135ZM31.287 38.298c-.815-.295-1.076-1.568-.555-2.2.043-.042.121.009.104.06-.147.387-.26.75-.139 1.163.122.396.46.573.642.918.009.026-.009.068-.052.06Z" fill="#593511" fill-rule="evenodd" data-name="Vector"/></g></g><path d="M30.49 37.708h-.018c-.113.017-.113-.168 0-.16h.017c.113.017.113.16 0 .16Z" fill="#593511" fill-rule="evenodd" data-name="Vector"/></g></g></g><defs><linearGradient x1="1" y1="1" x2="0" y2="0" id="a"><stop stop-color="#f8600d" offset="0"/><stop stop-color="#eebaa4" offset="1"/></linearGradient></defs></svg>