<svg xmlns="http://www.w3.org/2000/svg" width="51" height="52" viewBox="0.261 -0.349 51 52">
    <g>
        <path
            d="M12 0h27a12 12 0 0 1 12 12v28a12 12 0 0 1-12 12H12A12 12 0 0 1 0 40V12A12 12 0 0 1 12 0z"
            fill-rule="evenodd" fill="url(&quot;#a&quot;)" transform="translate(.26 -.349)" />
        <g>
            <g>
                <g>
                    <g>
                        <path
                            d="M44.625 32.18c0 3.658-8.392 6.625-18.754 6.625-10.362 0-18.757-2.967-18.757-6.625 0-3.659 8.393-6.625 18.757-6.625s18.754 2.966 18.754 6.625Z"
                            fill="#e2cab3" fill-rule="evenodd" />
                        <path
                            d="M44.625 31.45c0 3.658-8.392 6.624-18.754 6.624-10.362 0-18.757-2.966-18.757-6.625s8.393-6.625 18.757-6.625 18.754 2.966 18.754 6.625Z"
                            fill="#fff" fill-rule="evenodd" />
                        <path
                            d="M44.625 31.344c0 3.544-8.392 6.417-18.754 6.417-10.362 0-18.757-2.873-18.757-6.417 0-3.544 8.393-6.415 18.757-6.415s18.754 2.873 18.754 6.415Z"
                            fill="#e7d8c8" fill-rule="evenodd" />
                        <path
                            d="M43.794 31.344c0 2.53-7.183 4.578-16.042 4.578-8.86 0-16.044-2.048-16.044-4.578 0-2.53 7.183-4.578 16.044-4.578s16.042 2.05 16.042 4.578Z"
                            fill="#e2cab3" fill-rule="evenodd" />
                        <path
                            d="M41.817 33.08a12.41 12.41 0 0 1-2.188.763 15.64 15.64 0 0 1-2.733.41c-.935.075-1.838.11-2.633.702-.681.508-1.372 1.013-2.168 1.29a4.748 4.748 0 0 1-2.46.145c-.952-.159-1.922-.325-2.865-.05a12.95 12.95 0 0 1-2.742.502c-1.686.114-3.663.05-5.145-.94-.587-.394-1.145-.716-1.84-.788-.5-.052-1.002-.084-1.5-.176-.522-.097-1.933-.456-1.498-1.37.209-.436.75-.738 1.153-.908.267-.133.563-.203.863-.202.4-1.138 1.499-1.266 2.49-1.158.566.065 1.125.187 1.69.256.808.08 1.62.085 2.429.013a27.976 27.976 0 0 0 5.855-1.081 35.487 35.487 0 0 0 2.852-.967c.802-.305 1.655-.597 2.515-.529.496.04.966.214 1.458.28.446.061.896.08 1.345.054.808-.044 1.618-.212 2.428-.149 1.314.105 2.977.767 3.318 2.331.14.693-.027 1.265-.624 1.572Z"
                            fill="#eebe30" fill-rule="evenodd" />
                        <path
                            d="M37.117 30.148c0 2.465-5.354 4.756-11.8 4.756-6.447 0-11.844-2.461-11.844-4.926 0-2.464 5.397-4.005 11.843-4.005 6.447 0 11.8 1.71 11.8 4.175Z"
                            fill="#e3ac8a" fill-rule="evenodd" />
                        <path
                            d="M36.988 29.673c0 2.465-5.225 4.462-11.672 4.462-6.446 0-11.673-1.997-11.673-4.462 0-2.464 5.227-4.463 11.673-4.463 6.447 0 11.672 1.999 11.672 4.463Z"
                            fill="#da840d" fill-rule="evenodd" />
                        <path
                            d="M33.807 29.25c0 1.83-3.877 3.31-8.66 3.31-4.784 0-8.664-1.48-8.664-3.31s3.882-3.31 8.664-3.31c4.781 0 8.66 1.492 8.66 3.31Z"
                            fill="#f0a508" fill-rule="evenodd" />
                        <path
                            d="M19.319 30.47c0 .191-.221.357-.494.357s-.492-.16-.492-.356c0-.197.22-.357.492-.357.271 0 .494.16.494.357ZM18.333 28.97a.265.265 0 0 1-.053.145.275.275 0 0 1-.284.103.277.277 0 0 1-.137-.076.267.267 0 0 1-.054-.292.28.28 0 0 1 .253-.163.287.287 0 0 1 .198.085.274.274 0 0 1 .077.198ZM21.752 30.904a.455.455 0 0 1-.064.265.484.484 0 0 1-.733.104.461.461 0 0 1-.117-.509.466.466 0 0 1 .174-.213.482.482 0 0 1 .266-.08.468.468 0 0 1 .329.12.449.449 0 0 1 .145.312ZM20.722 29.185c0 .118-.135.216-.299.216-.164 0-.3-.098-.3-.216s.134-.216.3-.216c.166 0 .299.096.299.216ZM23.74 30.208a.292.292 0 0 1-.034.173.31.31 0 0 1-.471.083.296.296 0 0 1-.083-.328.299.299 0 0 1 .112-.139.31.31 0 0 1 .173-.053.293.293 0 0 1 .206.072.28.28 0 0 1 .096.192ZM23.855 31.797c0 .122-.145.22-.324.22-.18 0-.324-.098-.324-.22 0-.123.146-.222.324-.222.177 0 .324.1.324.222ZM22.562 29.43a.224.224 0 0 1-.048.121.232.232 0 0 1-.242.08.233.233 0 0 1-.114-.067.225.225 0 0 1 .051-.345.236.236 0 0 1 .129-.034c.063.004.12.032.163.078a.233.233 0 0 1 .061.166ZM25.923 29.893c0 .122-.14.221-.314.221s-.314-.1-.314-.221c0-.122.14-.22.314-.22s.314.098.314.22ZM25.923 31.035c0 .072-.14.132-.314.132s-.314-.06-.314-.132c0-.073.14-.132.314-.132s.314.06.314.132ZM28.049 30.293c0 .097-.127.178-.285.178-.158 0-.283-.08-.283-.178 0-.097.127-.18.283-.18.156 0 .285.08.285.18ZM27.71 31.568a.288.288 0 0 1-.136.313.306.306 0 0 1-.347-.022.293.293 0 0 1-.095-.326.295.295 0 0 1 .11-.142.305.305 0 0 1 .174-.054c.07-.006.14.014.195.057.054.043.09.106.098.174ZM30.075 31.197a.305.305 0 0 1-.082.151.316.316 0 0 1-.327.077.314.314 0 0 1-.143-.097.304.304 0 0 1 .077-.454.32.32 0 0 1 .168-.047.35.35 0 0 1 .231.124c.057.07.085.158.076.246ZM29.905 29.53c0 .077-.1.138-.223.138s-.22-.061-.22-.138c0-.076.1-.135.22-.135.121 0 .223.067.223.135ZM31.779 29.936c0 .296-.135.535-.299.535-.164 0-.3-.239-.3-.535 0-.295.134-.536.3-.536.166 0 .299.24.299.536ZM32.53 29.393a.141.141 0 0 1-.043.1.148.148 0 0 1-.207 0 .141.141 0 0 1 0-.201.148.148 0 0 1 .207 0 .143.143 0 0 1 .043.1ZM27.608 28.937c0 .136-.184.248-.408.248-.225 0-.408-.112-.408-.248 0-.135.181-.25.408-.25.226 0 .408.113.408.25ZM19.955 27.651c0 .084-.143.153-.318.153-.176 0-.319-.069-.319-.153 0-.084.143-.152.319-.152.175 0 .318.068.318.152ZM21.828 27.344c0 .086-.162.155-.36.155-.2 0-.364-.069-.364-.155 0-.085.162-.152.363-.152.201 0 .361.068.361.152ZM24.186 27.72c0 .12-.218.22-.49.22-.27 0-.49-.1-.49-.22s.221-.221.49-.221c.27 0 .49.099.49.22ZM25.924 27.344c0 .031-.009.061-.026.087a.162.162 0 0 1-.244.025.153.153 0 0 1-.034-.17.155.155 0 0 1 .059-.07.16.16 0 0 1 .088-.024c.042 0 .082.016.11.044a.15.15 0 0 1 .047.108ZM25.61 28.552c0 .074-.15.135-.335.135-.185 0-.331-.061-.331-.135 0-.075.148-.136.331-.136.184 0 .334.061.334.136ZM28.219 27.277a.22.22 0 0 1-.041.124.228.228 0 0 1-.237.09.23.23 0 0 1-.116-.064.221.221 0 0 1-.043-.245.232.232 0 0 1 .422.01c.01.027.015.056.015.085ZM29.462 28.178c0 .038-.115.069-.26.069-.144 0-.257-.03-.257-.069 0-.038.115-.069.258-.069.142 0 .26.03.26.069ZM30.272 27.728a.097.097 0 0 1-.045.106.103.103 0 0 1-.117-.006.1.1 0 0 1-.033-.11.1.1 0 0 1 .038-.049.103.103 0 0 1 .06-.018.091.091 0 0 1 .064.02c.018.013.03.034.033.057Z"
                            fill="#da840d" fill-rule="evenodd" />
                        <path
                            d="M29.462 28.178a.213.213 0 0 1-.048.113.22.22 0 0 1-.228.072.221.221 0 0 1-.107-.064.214.214 0 0 1 .043-.324.224.224 0 0 1 .12-.036.237.237 0 0 1 .16.075.226.226 0 0 1 .06.164ZM30.715 27.796c0 .078-.121.143-.271.143-.15 0-.27-.065-.27-.143 0-.078.121-.145.27-.145.148 0 .27.065.27.145Z"
                            fill="#da840d" fill-rule="evenodd" />
                        <path
                            d="M37.117 28.317c0 2.463-5.354 4.756-11.8 4.756-6.447 0-11.844-2.463-11.844-4.926 0-2.462 5.397-4.005 11.843-4.005 6.447 0 11.8 1.71 11.8 4.175Z"
                            fill="#e3ac8a" fill-rule="evenodd" />
                        <path
                            d="M36.988 27.84c0 2.465-5.225 4.462-11.672 4.462-6.446 0-11.673-1.997-11.673-4.462 0-2.464 5.227-4.461 11.673-4.461 6.447 0 11.672 1.997 11.672 4.461Z"
                            fill="#da840d" fill-rule="evenodd" />
                        <path
                            d="M33.806 27.419c0 1.827-3.877 3.31-8.66 3.31-4.782 0-8.66-1.483-8.66-3.31 0-1.828 3.878-3.31 8.66-3.31 4.783 0 8.66 1.482 8.66 3.31Z"
                            fill="#f0a508" fill-rule="evenodd" />
                        <path
                            d="M19.319 28.64c0 .19-.221.356-.494.356s-.492-.16-.492-.356c0-.197.22-.357.492-.357.271 0 .494.158.494.357ZM18.333 27.136a.265.265 0 0 1-.05.148.274.274 0 0 1-.284.108.277.277 0 0 1-.138-.076.267.267 0 0 1-.057-.292.27.27 0 0 1 .102-.12.28.28 0 0 1 .152-.044.284.284 0 0 1 .195.083c.052.052.08.121.08.193ZM21.752 29.072a.455.455 0 0 1-.064.265.484.484 0 0 1-.733.104.461.461 0 0 1-.117-.508.466.466 0 0 1 .174-.213.482.482 0 0 1 .266-.08c.122-.004.24.039.328.12a.446.446 0 0 1 .146.312ZM20.722 27.354c0 .118-.135.215-.299.215-.164 0-.3-.097-.3-.215 0-.119.134-.218.3-.218.166 0 .299.105.299.218ZM23.74 28.386a.292.292 0 0 1-.034.174.31.31 0 0 1-.471.083.296.296 0 0 1-.083-.328.299.299 0 0 1 .112-.14.31.31 0 0 1 .173-.052.293.293 0 0 1 .206.07.28.28 0 0 1 .096.193ZM23.855 29.963c0 .122-.145.221-.324.221-.18 0-.324-.099-.324-.22 0-.123.146-.22.324-.22.177 0 .324.097.324.22ZM22.562 27.596a.224.224 0 0 1-.047.122.232.232 0 0 1-.242.082.233.233 0 0 1-.114-.067.225.225 0 0 1 .05-.346.236.236 0 0 1 .129-.034c.062.004.12.032.162.077a.232.232 0 0 1 .062.166ZM25.923 28.061c0 .122-.14.222-.314.222s-.314-.1-.314-.222.14-.221.314-.221.314.1.314.221ZM25.923 29.204c0 .073-.14.132-.314.132s-.314-.06-.314-.132c0-.072.14-.131.314-.131s.314.059.314.131ZM28.049 28.46c0 .1-.127.18-.285.18-.158 0-.283-.08-.283-.18 0-.099.127-.177.283-.177.156 0 .285.08.285.177ZM27.71 29.734a.288.288 0 0 1-.134.314.306.306 0 0 1-.348-.02.293.293 0 0 1-.096-.326.295.295 0 0 1 .11-.143.305.305 0 0 1 .174-.054c.07-.007.14.013.195.056a.26.26 0 0 1 .098.173ZM30.075 29.364a.303.303 0 0 1-.082.15.314.314 0 0 1-.324.076.312.312 0 0 1-.142-.096.302.302 0 0 1 .075-.45.318.318 0 0 1 .166-.048.35.35 0 0 1 .23.123.334.334 0 0 1 .077.245ZM29.905 27.705c0 .074-.1.135-.223.135s-.22-.06-.22-.135c0-.075.1-.136.22-.136.121 0 .223.054.223.136ZM31.779 28.103c0 .296-.135.536-.299.536-.164 0-.3-.24-.3-.536 0-.295.134-.534.3-.534.166 0 .299.244.299.534ZM32.53 27.561a.143.143 0 0 1-.043.1.149.149 0 0 1-.184.018.14.14 0 0 1-.022-.22.147.147 0 0 1 .159-.03c.027.01.05.03.066.053a.14.14 0 0 1 .024.08ZM27.608 27.104c0 .137-.184.25-.408.25-.225 0-.408-.113-.408-.25s.181-.248.408-.248c.226 0 .408.11.408.248ZM19.955 25.818c0 .086-.143.155-.318.155-.176 0-.319-.069-.319-.155s.143-.152.319-.152c.175 0 .318.068.318.152ZM21.828 25.513c0 .084-.162.152-.36.152-.2 0-.364-.068-.364-.152 0-.084.162-.153.363-.153.201 0 .361.069.361.153ZM24.186 25.887c0 .122-.218.221-.49.221-.27 0-.49-.1-.49-.221 0-.122.221-.221.49-.221.27 0 .49.099.49.22ZM25.924 25.513a.157.157 0 0 1-.097.144.162.162 0 0 1-.173-.033.153.153 0 0 1-.034-.17.155.155 0 0 1 .059-.069.16.16 0 0 1 .088-.025c.042 0 .082.016.11.045a.15.15 0 0 1 .047.108ZM25.61 26.72c0 .075-.15.136-.335.136-.185 0-.331-.061-.331-.136 0-.074.148-.137.331-.137.184 0 .334.061.334.137ZM28.219 25.446a.22.22 0 0 1-.038.125.233.233 0 0 1-.354.032.221.221 0 0 1-.045-.245.225.225 0 0 1 .087-.1.232.232 0 0 1 .13-.033c.058 0 .115.025.156.066a.217.217 0 0 1 .064.155ZM29.462 26.347c0 .036-.115.066-.26.066-.144 0-.257-.03-.257-.066 0-.037.115-.07.258-.07.142 0 .26.031.26.07ZM30.272 25.906a.097.097 0 0 1-.046.106.103.103 0 0 1-.117-.008.099.099 0 0 1-.031-.111.1.1 0 0 1 .037-.048.103.103 0 0 1 .06-.017.091.091 0 0 1 .065.02c.018.014.03.035.032.058Z"
                            fill="#da840d" fill-rule="evenodd" />
                        <path
                            d="M29.462 26.347a.213.213 0 0 1-.048.113.22.22 0 0 1-.228.072.221.221 0 0 1-.107-.064.214.214 0 0 1 .043-.324.224.224 0 0 1 .12-.036.237.237 0 0 1 .16.075.226.226 0 0 1 .06.164ZM30.715 25.963c0 .08-.121.145-.271.145-.15 0-.27-.065-.27-.145 0-.08.121-.145.27-.145.148 0 .27.065.27.145Z"
                            fill="#da840d" fill-rule="evenodd" />
                        <path
                            d="M37.302 25.044c0 2.462-5.355 4.755-11.802 4.755-6.447 0-11.842-2.462-11.842-4.927 0-2.464 5.395-3.996 11.842-3.996 6.447 0 11.802 1.703 11.802 4.168Z"
                            fill="#e3ac8a" fill-rule="evenodd" />
                        <path
                            d="M37.171 24.57c0 2.465-5.227 4.462-11.673 4.462-6.447 0-11.67-2-11.67-4.461 0-2.461 5.225-4.466 11.672-4.466 6.446 0 11.671 1.997 11.671 4.466Z"
                            fill="#da840d" fill-rule="evenodd" />
                        <path
                            d="M33.992 24.145c0 1.828-3.878 3.31-8.66 3.31s-8.654-1.482-8.654-3.31c0-1.827 3.872-3.311 8.654-3.311s8.66 1.482 8.66 3.311Z"
                            fill="#f0a508" fill-rule="evenodd" />
                        <path
                            d="M19.502 25.366c0 .191-.219.357-.492.357s-.492-.16-.492-.357c0-.196.22-.356.502-.356.281 0 .482.158.482.356ZM18.518 23.863a.265.265 0 0 1-.051.146.274.274 0 0 1-.283.105.277.277 0 0 1-.138-.075.267.267 0 0 1-.057-.29.27.27 0 0 1 .1-.12.28.28 0 0 1 .15-.046.286.286 0 0 1 .2.083.274.274 0 0 1 .08.197ZM21.947 25.8a.453.453 0 0 1-.065.263.482.482 0 0 1-.73.102.46.46 0 0 1-.115-.507.464.464 0 0 1 .173-.212.48.48 0 0 1 .265-.08c.121-.003.24.04.328.121.088.082.14.194.144.312ZM20.907 24.078c0 .12-.134.218-.3.218-.166 0-.299-.098-.299-.218s.135-.215.299-.215c.164 0 .3.097.3.215ZM23.925 25.103a.292.292 0 0 1-.034.174.31.31 0 0 1-.471.083.296.296 0 0 1-.082-.329.299.299 0 0 1 .111-.139.31.31 0 0 1 .173-.052.293.293 0 0 1 .207.07.28.28 0 0 1 .096.193ZM24.04 26.69c0 .122-.145.221-.324.221-.18 0-.324-.099-.324-.22 0-.123.144-.213.324-.213.18 0 .324.092.324.212ZM22.748 24.323c0 .06-.025.118-.068.16a.235.235 0 0 1-.329 0 .224.224 0 0 1 0-.32.235.235 0 0 1 .329 0c.043.042.068.1.068.16ZM26.109 24.788c0 .122-.14.222-.314.222s-.315-.1-.315-.222.14-.217.315-.217c.173 0 .314.095.314.217ZM26.109 25.93c0 .073-.14.132-.314.132s-.315-.059-.315-.131c0-.073.14-.132.315-.132.173 0 .314.06.314.132ZM28.234 25.187c0 .1-.127.18-.285.18-.158 0-.285-.08-.285-.18 0-.1.129-.177.285-.177.156 0 .285.08.285.177ZM27.895 26.46a.29.29 0 0 1-.134.318.308.308 0 0 1-.35-.019.295.295 0 0 1-.097-.329.296.296 0 0 1 .11-.143.307.307 0 0 1 .176-.055c.07-.008.14.012.195.055a.26.26 0 0 1 .1.174ZM30.26 26.097a.306.306 0 0 1-.086.146.317.317 0 0 1-.324.068.314.314 0 0 1-.14-.098.304.304 0 0 1 .075-.449.32.32 0 0 1 .165-.049.353.353 0 0 1 .238.127.337.337 0 0 1 .072.255ZM30.09 24.431c0 .075-.099.136-.222.136s-.22-.061-.22-.136c0-.074.097-.135.22-.135s.223.061.223.135ZM31.964 24.83c0 .296-.134.536-.3.536-.166 0-.299-.24-.299-.536 0-.296.135-.534.299-.534.164 0 .3.238.3.534ZM32.714 24.288a.144.144 0 0 1-.09.129.148.148 0 0 1-.157-.031.14.14 0 0 1-.03-.154.142.142 0 0 1 .052-.063.147.147 0 0 1 .183.019.141.141 0 0 1 .042.1ZM27.791 23.83c0 .138-.181.249-.406.249-.224 0-.408-.111-.408-.248 0-.138.182-.248.408-.248.227 0 .406.11.406.248ZM20.14 22.547c0 .084-.142.152-.318.152-.175 0-.32-.068-.32-.152 0-.084.143-.155.32-.155.178 0 .318.069.318.155ZM22.014 22.24c0 .086-.162.152-.363.152-.201 0-.361-.066-.361-.152s.162-.153.36-.153c.2 0 .364.069.364.153ZM24.372 22.614c0 .122-.219.22-.49.22-.272 0-.49-.098-.49-.22 0-.123.22-.222.49-.222s.49.1.49.222ZM26.109 22.24a.153.153 0 0 1-.052.097.16.16 0 0 1-.21 0 .153.153 0 0 1-.052-.098.153.153 0 0 1 .051-.098.16.16 0 0 1 .211 0c.03.026.048.06.052.098ZM25.794 23.445c0 .077-.148.138-.333.138-.186 0-.334-.061-.334-.138 0-.076.15-.135.334-.135.183 0 .333.06.333.135ZM28.404 22.173a.22.22 0 0 1-.037.124.233.233 0 0 1-.352.036.222.222 0 0 1-.05-.243.224.224 0 0 1 .084-.1.232.232 0 0 1 .127-.039.23.23 0 0 1 .162.064.22.22 0 0 1 .066.158ZM29.647 23.073c0 .037-.117.067-.26.067-.142 0-.257-.03-.257-.067 0-.036.115-.068.258-.068.142 0 .26.04.26.068ZM30.457 22.623a.1.1 0 0 1-.036.052.103.103 0 0 1-.122 0 .1.1 0 0 1-.037-.052.1.1 0 0 1 .037-.052.103.103 0 0 1 .122 0 .1.1 0 0 1 .036.052Z"
                            fill="#da840d" fill-rule="evenodd" />
                        <path
                            d="M29.647 23.073a.213.213 0 0 1-.048.113.22.22 0 0 1-.228.072.221.221 0 0 1-.107-.063.214.214 0 0 1-.038-.232.224.224 0 0 1 .2-.129.237.237 0 0 1 .162.075.226.226 0 0 1 .06.164ZM30.9 22.69c0 .08-.12.145-.27.145-.151 0-.272-.065-.272-.145 0-.08.12-.143.271-.143.15 0 .272.063.272.143Z"
                            fill="#da840d" fill-rule="evenodd" />
                        <path
                            d="M37.302 22.94c0 2.464-5.355 4.755-11.802 4.755-6.447 0-11.842-2.46-11.842-4.925s5.395-4.006 11.842-4.006c6.447 0 11.802 1.711 11.802 4.176Z"
                            fill="#e3ac8a" fill-rule="evenodd" />
                        <path
                            d="M37.171 22.472c0 2.463-5.227 4.462-11.673 4.462-6.447 0-11.67-2.007-11.67-4.462 0-2.455 5.225-4.463 11.672-4.463 6.446 0 11.671 1.984 11.671 4.463Z"
                            fill="#da840d" fill-rule="evenodd" />
                        <path
                            d="M33.992 22.041c0 1.828-3.878 3.31-8.66 3.31s-8.654-1.482-8.654-3.31c0-1.827 3.872-3.311 8.654-3.311s8.66 1.482 8.66 3.311Z"
                            fill="#f0a508" fill-rule="evenodd" />
                        <path
                            d="M19.502 23.262c0 .191-.219.357-.492.357s-.492-.16-.492-.357c0-.196.22-.356.492-.356.271 0 .492.16.492.356ZM18.518 21.76a.265.265 0 0 1-.051.145.275.275 0 0 1-.283.105.277.277 0 0 1-.138-.075.267.267 0 0 1-.057-.29.27.27 0 0 1 .1-.12.28.28 0 0 1 .15-.046.286.286 0 0 1 .2.083.274.274 0 0 1 .08.197ZM21.942 23.695c0 .239-.212.433-.472.433-.261 0-.473-.194-.473-.433 0-.24.212-.433.473-.433.26 0 .472.194.472.433ZM20.907 21.977c0 .118-.134.215-.3.215-.166 0-.299-.1-.299-.215 0-.115.135-.218.299-.218.164 0 .3.097.3.218ZM23.925 23a.292.292 0 0 1-.034.173.31.31 0 0 1-.471.083.296.296 0 0 1-.082-.328.299.299 0 0 1 .111-.14.31.31 0 0 1 .173-.052.293.293 0 0 1 .207.071.28.28 0 0 1 .096.192ZM24.04 24.586c0 .122-.145.22-.324.22-.18 0-.324-.098-.324-.22s.144-.22.324-.22c.18 0 .324.1.324.22ZM22.748 22.22a.224.224 0 0 1-.047.121.232.232 0 0 1-.24.083.233.233 0 0 1-.115-.066.225.225 0 0 1-.043-.245.236.236 0 0 1 .212-.137c.065.003.125.03.168.076a.233.233 0 0 1 .065.168ZM26.109 22.684c0 .122-.14.221-.314.221s-.315-.099-.315-.22c0-.123.14-.213.315-.213.173 0 .314.09.314.212ZM26.109 23.827c0 .072-.14.131-.314.131s-.315-.059-.315-.131c0-.073.14-.132.315-.132.173 0 .314.06.314.132ZM28.234 23.083c0 .1-.127.18-.285.18-.158 0-.285-.08-.285-.18 0-.1.129-.177.285-.177.156 0 .285.08.285.177ZM27.895 24.357a.29.29 0 0 1-.134.317.308.308 0 0 1-.35-.018.295.295 0 0 1-.097-.33.296.296 0 0 1 .11-.143.307.307 0 0 1 .176-.055c.07-.007.14.013.195.056a.26.26 0 0 1 .1.173ZM30.26 23.999a.306.306 0 0 1-.086.146.317.317 0 0 1-.324.068.314.314 0 0 1-.14-.098.303.303 0 0 1 .075-.449.32.32 0 0 1 .165-.049.351.351 0 0 1 .238.126.335.335 0 0 1 .072.256ZM30.09 22.328c0 .076-.099.137-.222.137s-.22-.061-.22-.137c0-.077.097-.136.22-.136s.223.061.223.136ZM31.964 22.726c0 .296-.134.536-.3.536-.166 0-.299-.24-.299-.536 0-.295.135-.534.299-.534.164 0 .3.24.3.534ZM32.714 22.185a.144.144 0 0 1-.174.136.145.145 0 0 1-.073-.04.14.14 0 0 1-.03-.153.142.142 0 0 1 .052-.063.147.147 0 0 1 .214.065c.007.017.011.036.01.054ZM27.791 21.727c0 .137-.181.25-.406.25-.224 0-.408-.113-.408-.25 0-.138.182-.248.408-.248.227 0 .406.11.406.248ZM20.14 20.443c0 .084-.142.153-.318.153-.175 0-.32-.07-.32-.153 0-.084.143-.153.32-.153.178 0 .318.07.318.153ZM22.014 20.136c0 .086-.162.154-.363.154-.201 0-.361-.068-.361-.154s.162-.153.36-.153c.2 0 .364.069.364.153ZM24.372 20.51c0 .122-.219.221-.49.221-.272 0-.49-.1-.49-.221 0-.122.22-.22.49-.22s.49.098.49.22ZM26.109 20.136a.157.157 0 0 1-.097.144.162.162 0 0 1-.173-.033.153.153 0 0 1-.034-.17.155.155 0 0 1 .059-.069.16.16 0 0 1 .089-.025c.041 0 .08.016.11.045a.15.15 0 0 1 .046.108ZM25.794 21.343c0 .074-.148.135-.333.135-.186 0-.334-.06-.334-.135 0-.074.15-.137.334-.137.183 0 .333.06.333.137ZM28.404 20.069a.22.22 0 0 1-.037.124.233.233 0 0 1-.352.036.222.222 0 0 1-.05-.243.224.224 0 0 1 .084-.1.232.232 0 0 1 .338.098.217.217 0 0 1 .017.085ZM29.647 20.97c0 .036-.117.066-.26.066-.142 0-.257-.03-.257-.067 0-.036.115-.068.258-.068.142 0 .26.03.26.068ZM30.458 20.519a.097.097 0 0 1-.045.106.103.103 0 0 1-.117-.005.097.097 0 0 1 .003-.158.103.103 0 0 1 .059-.02.093.093 0 0 1 .065.02.09.09 0 0 1 .035.057Z"
                            fill="#da840d" fill-rule="evenodd" />
                        <path
                            d="M29.647 20.97a.213.213 0 0 1-.048.112.22.22 0 0 1-.228.073.221.221 0 0 1-.107-.064.214.214 0 0 1-.038-.232.224.224 0 0 1 .2-.129.237.237 0 0 1 .162.075.226.226 0 0 1 .06.164ZM30.9 20.586c0 .08-.12.145-.27.145-.151 0-.272-.065-.272-.145 0-.08.12-.143.271-.143.15 0 .272.065.272.143Z"
                            fill="#da840d" fill-rule="evenodd" />
                        <path
                            d="M36.988 21.456c0 2.468-5.13 4.757-11.305 4.757s-11.347-2.462-11.347-4.927c.004-.342.104-.676.289-.967.8-2.15 5.445-3.8 11.058-3.8 6 0 10.895 1.885 11.168 4.254.09.217.137.449.137.683Z"
                            fill="#c66720" fill-rule="evenodd" />
                        <path
                            d="M37.54 20.346c0 2.464-5.355 4.757-11.802 4.757-6.447 0-11.841-2.463-11.841-4.92 0-2.456 5.394-4.005 11.841-4.005 6.447 0 11.802 1.703 11.802 4.168Z"
                            fill="#e3ac8a" fill-rule="evenodd" />
                        <path
                            d="M37.437 19.87c0 2.465-5.075 4.327-11.515 4.327-6.441 0-11.672-1.997-11.672-4.462 0-2.464 5.225-4.461 11.672-4.461 6.446 0 11.515 2.132 11.515 4.597Z"
                            fill="#da840d" fill-rule="evenodd" />
                        <path
                            d="M34.23 19.447c0 1.828-3.877 3.31-8.66 3.31s-8.66-1.482-8.66-3.31 3.877-3.31 8.66-3.31 8.66 1.482 8.66 3.31Z"
                            fill="#f0a508" fill-rule="evenodd" />
                        <path
                            d="M19.74 20.668c0 .19-.22.358-.492.358-.271 0-.492-.16-.492-.358 0-.199.221-.357.492-.357.272 0 .492.16.492.357ZM18.756 19.166a.265.265 0 0 1-.053.146.275.275 0 0 1-.283.103.277.277 0 0 1-.138-.076.267.267 0 0 1-.054-.292.28.28 0 0 1 .253-.163.287.287 0 0 1 .198.085.274.274 0 0 1 .077.197ZM22.18 21.103a.453.453 0 0 1-.066.263.482.482 0 0 1-.73.1.46.46 0 0 1-.115-.507.464.464 0 0 1 .174-.211.48.48 0 0 1 .265-.08.468.468 0 0 1 .328.122.449.449 0 0 1 .144.313ZM21.146 19.382c0 .12-.135.216-.301.216-.166 0-.299-.096-.299-.216s.135-.215.299-.215c.164 0 .3.097.3.215ZM24.163 20.404a.292.292 0 0 1-.034.174.31.31 0 0 1-.471.083.296.296 0 0 1-.082-.328.299.299 0 0 1 .112-.14.31.31 0 0 1 .172-.052.291.291 0 0 1 .207.07c.057.05.091.12.096.193ZM24.278 21.994c0 .122-.144.22-.324.22-.18 0-.324-.098-.324-.22s.145-.222.324-.222c.18 0 .324.1.324.222ZM22.986 19.626a.224.224 0 0 1-.047.122.232.232 0 0 1-.24.082.233.233 0 0 1-.115-.066.225.225 0 0 1-.043-.245.236.236 0 0 1 .212-.137.245.245 0 0 1 .169.075.234.234 0 0 1 .064.17ZM26.347 20.092c0 .122-.14.219-.314.219s-.315-.097-.315-.22c0-.121.141-.22.315-.22.173 0 .314.099.314.22ZM26.347 21.234c0 .073-.14.132-.314.132s-.315-.059-.315-.132c0-.072.141-.131.315-.131.173 0 .314.059.314.131ZM28.472 20.49c0 .1-.128.178-.285.178-.156 0-.284-.079-.284-.178 0-.099.128-.179.284-.179.157 0 .285.08.285.18ZM28.133 21.765a.29.29 0 0 1-.133.316.308.308 0 0 1-.35-.018.295.295 0 0 1-.098-.329.296.296 0 0 1 .11-.144.307.307 0 0 1 .176-.054c.07-.007.14.013.195.056.055.042.091.105.1.173ZM30.498 21.395a.303.303 0 0 1-.081.15.314.314 0 0 1-.324.076.312.312 0 0 1-.143-.097.302.302 0 0 1 .075-.45.318.318 0 0 1 .167-.048.35.35 0 0 1 .23.124.334.334 0 0 1 .076.245ZM30.326 19.735c0 .075-.097.136-.22.136s-.22-.061-.22-.136c0-.074.097-.137.22-.137s.22.06.22.137ZM32.202 20.134c0 .296-.134.534-.3.534-.166 0-.299-.238-.299-.534 0-.296.135-.536.299-.536.164 0 .3.24.3.536ZM32.952 19.592a.14.14 0 0 1-.026.077.144.144 0 0 1-.15.057.145.145 0 0 1-.072-.04.14.14 0 0 1-.03-.153.142.142 0 0 1 .054-.062.147.147 0 0 1 .135-.012.147.147 0 0 1 .078.078.14.14 0 0 1 .01.055ZM28.03 19.134c0 .137-.182.248-.407.248-.224 0-.406-.11-.406-.248 0-.137.182-.25.408-.25.227 0 .404.113.404.25ZM20.386 17.849c0 .084-.142.152-.318.152-.176 0-.32-.068-.32-.152 0-.084.142-.153.32-.153.178 0 .318.069.318.153ZM22.252 17.544c0 .083-.162.152-.363.152-.2 0-.36-.069-.36-.152 0-.084.161-.153.36-.153.2 0 .363.069.363.153ZM24.61 17.917c0 .122-.219.222-.49.222s-.49-.1-.49-.222.219-.213.49-.213.49.091.49.213ZM26.347 17.543a.157.157 0 0 1-.188.154.16.16 0 0 1-.081-.042.153.153 0 0 1-.035-.169.155.155 0 0 1 .058-.07.16.16 0 0 1 .148-.014.156.156 0 0 1 .086.082.15.15 0 0 1 .012.06ZM26.033 18.749c0 .076-.149.135-.334.135-.186 0-.334-.059-.334-.135 0-.076.15-.136.334-.136.183 0 .334.061.334.136ZM28.642 17.474a.22.22 0 0 1-.036.125.233.233 0 0 1-.352.038.222.222 0 0 1-.051-.243.224.224 0 0 1 .084-.101.232.232 0 0 1 .337.097.217.217 0 0 1 .018.084ZM29.885 18.375c0 .038-.117.068-.26.068-.142 0-.257-.03-.257-.068 0-.038.115-.067.258-.067.142 0 .26.03.26.067ZM30.695 17.925a.097.097 0 0 1-.044.106.103.103 0 0 1-.117-.005.1.1 0 0 1-.033-.11.1.1 0 0 1 .036-.049.103.103 0 0 1 .059-.018.093.093 0 0 1 .065.018.09.09 0 0 1 .034.058Z"
                            fill="#da840d" fill-rule="evenodd" />
                        <path
                            d="M29.885 18.375a.211.211 0 0 1-.056.166.22.22 0 0 1-.163.07.225.225 0 0 1-.163-.07.215.215 0 0 1-.057-.166.211.211 0 0 1 .057-.165.22.22 0 0 1 .163-.07.225.225 0 0 1 .163.07.214.214 0 0 1 .056.165ZM31.137 17.994c0 .08-.12.145-.27.145-.15 0-.271-.065-.271-.145 0-.08.121-.145.271-.145.15 0 .27.064.27.145Z"
                            fill="#da840d" fill-rule="evenodd" />
                        <path
                            d="M37.49 17.97c0 1.502-1.991 2.94-5.007 3.833a24.328 24.328 0 0 1-6.796.922c-2.395 0-4.362-.617-6.349-.763-3.314-.252-5.492-2.614-5.492-4.163 0-2.464 5.396-4.005 11.841-4.005 6.445 0 11.803 1.71 11.803 4.175Z"
                            fill="#e3ac8a" fill-rule="evenodd" />
                        <path
                            d="M37.341 17.643c0 2.464-5.227 4.461-11.673 4.461-6.447 0-11.672-1.997-11.672-4.461 0-2.465 5.22-4.462 11.672-4.462 6.452 0 11.673 1.997 11.673 4.462Z"
                            fill="#da840d" fill-rule="evenodd" />
                        <path
                            d="M34.16 17.221c0 1.827-3.878 3.31-8.66 3.31s-8.66-1.483-8.66-3.31 3.876-3.311 8.66-3.311c4.784 0 8.66 1.482 8.66 3.311Z"
                            fill="#f0a508" fill-rule="evenodd" />
                        <path
                            d="M19.67 18.442c0 .19-.22.357-.492.357-.271 0-.492-.16-.492-.357 0-.197.22-.357.492-.357.271 0 .492.158.492.357ZM18.686 16.94a.265.265 0 0 1-.052.147.275.275 0 0 1-.284.105.277.277 0 0 1-.137-.077.267.267 0 0 1-.055-.291.28.28 0 0 1 .253-.164.286.286 0 0 1 .197.085.274.274 0 0 1 .078.196ZM22.11 18.875a.453.453 0 0 1-.065.264.482.482 0 0 1-.73.102.46.46 0 0 1-.116-.507.464.464 0 0 1 .173-.212.48.48 0 0 1 .265-.08c.122-.004.24.04.328.121.089.081.14.193.145.312ZM21.075 17.156c0 .119-.134.216-.3.216-.166 0-.299-.097-.299-.216 0-.118.135-.215.3-.215.167 0 .3.095.3.215ZM24.095 18.178a.29.29 0 0 1-.035.173.309.309 0 0 1-.468.08.295.295 0 0 1-.08-.326.297.297 0 0 1 .11-.138.307.307 0 0 1 .172-.052.291.291 0 0 1 .206.071c.056.05.09.119.095.192ZM24.208 19.765c0 .122-.145.222-.324.222-.18 0-.324-.1-.324-.222s.144-.22.324-.22c.18 0 .324.1.324.22ZM22.924 17.398a.224.224 0 0 1-.047.122.232.232 0 0 1-.24.084.233.233 0 0 1-.115-.066.225.225 0 0 1-.043-.245.236.236 0 0 1 .213-.137.245.245 0 0 1 .167.074.234.234 0 0 1 .065.168ZM26.277 17.864c0 .122-.14.221-.315.221-.173 0-.306-.1-.306-.221 0-.122.14-.222.314-.222s.307.1.307.222ZM26.277 19.006c0 .073-.14.132-.315.132-.173 0-.306-.06-.306-.132 0-.072.14-.131.314-.131s.307.059.307.131ZM28.402 18.263c0 .099-.129.179-.285.179-.156 0-.285-.08-.285-.18 0-.099.13-.177.285-.177.156 0 .285.08.285.178ZM28.063 19.537a.295.295 0 0 1-.108.16.307.307 0 0 1-.37 0 .295.295 0 0 1-.108-.16.295.295 0 0 1 .108-.16.307.307 0 0 1 .37 0c.053.04.09.096.108.16ZM30.428 19.169a.298.298 0 0 1-.065.252.311.311 0 0 1-.241.112.318.318 0 0 1-.242-.112.303.303 0 0 1-.065-.252.3.3 0 0 1 .061-.26.313.313 0 0 1 .246-.116.32.32 0 0 1 .245.116.304.304 0 0 1 .061.26ZM30.256 17.513c0 .074-.097.135-.22.135s-.22-.06-.22-.135c0-.075.097-.136.22-.136s.22.056.22.136ZM32.132 17.906c0 .296-.135.536-.3.536-.167 0-.3-.24-.3-.536 0-.296.133-.534.3-.534.165 0 .3.238.3.534ZM32.877 17.364c0 .028-.009.055-.025.078a.148.148 0 0 1-.222.02.14.14 0 0 1-.03-.154.142.142 0 0 1 .053-.063.147.147 0 0 1 .182.019.141.141 0 0 1 .042.1ZM27.96 16.906c0 .138-.182.25-.409.25-.226 0-.406-.112-.406-.25 0-.137.182-.248.406-.248.225 0 .408.11.408.248ZM20.308 15.623c0 .084-.142.152-.32.152-.177 0-.318-.068-.318-.152 0-.084.142-.155.318-.155.176 0 .32.069.32.155ZM22.182 15.315c0 .086-.162.153-.363.153-.201 0-.363-.067-.363-.153s.164-.152.363-.152c.199 0 .363.06.363.152ZM24.54 15.69c0 .122-.219.22-.49.22-.272 0-.49-.098-.49-.22 0-.123.218-.222.49-.222.271 0 .49.1.49.222ZM26.277 15.315a.157.157 0 0 1-.188.154.16.16 0 0 1-.082-.042.153.153 0 0 1-.035-.168.155.155 0 0 1 .058-.07.16.16 0 0 1 .149-.015.156.156 0 0 1 .086.082.15.15 0 0 1 .012.06ZM25.962 16.523c0 .074-.15.135-.333.135-.184 0-.334-.061-.334-.135 0-.075.15-.138.334-.138.183 0 .333.061.333.138ZM28.57 15.249a.218.218 0 0 1-.035.124.231.231 0 0 1-.349.04.22.22 0 0 1-.052-.242.222.222 0 0 1 .083-.1.23.23 0 0 1 .285.024c.043.04.067.096.068.154ZM29.815 16.149c0 .036-.117.067-.26.067-.142 0-.26-.03-.26-.067 0-.036.118-.069.26-.069.143 0 .26.03.26.069ZM30.625 15.699a.097.097 0 0 1-.044.106.103.103 0 0 1-.117-.005.097.097 0 0 1 .003-.158.103.103 0 0 1 .059-.02.093.093 0 0 1 .065.02.09.09 0 0 1 .034.057Z"
                            fill="#da840d" fill-rule="evenodd" />
                        <path
                            d="M29.815 16.15a.213.213 0 0 1-.048.112.22.22 0 0 1-.228.072.221.221 0 0 1-.107-.063.214.214 0 0 1-.038-.232.224.224 0 0 1 .2-.129.237.237 0 0 1 .162.075.226.226 0 0 1 .06.164ZM31.066 15.765c0 .08-.12.145-.27.145-.148 0-.27-.064-.27-.145 0-.08.12-.143.27-.143.151 0 .27.063.27.143Z"
                            fill="#da840d" fill-rule="evenodd" />
                        <path
                            d="M27.258 28.386c-.132.523-.252 1.116-.626 1.526a.617.617 0 0 1-.83.08c-.412-.837-.314-2.754.857-2.836a.745.745 0 0 1 .49.124.716.716 0 0 1 .29.406c-.055.235-.116.468-.18.7ZM37.388 18.854c-.226.608-1.052.696-1.622.625-1.44-.177-2.486-1.25-3.782-1.772a3.454 3.454 0 0 0-2.174-.145c-.506.12-1.068.397-.994 1.008.053.438.27.847.293 1.291.04.807-.34 1.484-.619 2.217-.297.787-.37 1.644-.462 2.48-.051.037-.102.076-.157.11-.808.517-1.286-.538-1.286-1.183-.021-1.196.77-2.396.14-3.529a.759.759 0 0 0-.038-.066 1.338 1.338 0 0 0-.055-.088 1.358 1.358 0 0 0-.484-.412c-.576-.279-1.206-.414-1.757-.721a1.869 1.869 0 0 1-.687-.572 3.866 3.866 0 0 0-.486-.73c-.345-.327-1.024-.342-1.463-.243-.53.126-.963.408-1.408.698-.38.28-.798.506-1.243.67-.37.112-.775.112-1.152.215a3.002 3.002 0 0 0-1.214.622c-.26.234-.294.553-.39.866-.103.345-.47 1.028-.952.666-.39-.304-.416-1.006-.196-1.416.367-.685 1.205-1.17 1.888-1.51.841-.422 1.76-.746 2.504-1.351.339-.258.607-.594.78-.979.117-.338.202-.685.256-1.037.096-.428.244-.935.666-1.126.38-.528 1.374-.52 1.942-.507.555.016 1.108.071 1.655.166.826.13 1.655.13 2.309.702.334.307.64.662 1.03.88.394.204.831.317 1.277.33.831.041 1.684-.138 2.51-.041.742.086 1.448.315 1.934.898.325.425.684.824 1.074 1.193.326.284.701.508 1.108.662.406.17 1.482.52 1.255 1.129Z"
                            fill="#eebe30" fill-rule="evenodd" />
                        <path
                            d="M28.203 18.52c.145.599.153 1.222.023 1.824-.064.37-.097.957-.411 1.217-.276.229-.38-.342-.39-.475-.03-.3.07-.6.036-.903a1.352 1.352 0 0 0-.261-.648c-.195-.298-.761-.998-.566-1.404a.052.052 0 0 1-.02-.036c-.037-.351.432-.544.728-.468.207.07.393.188.543.343.15.156.259.345.318.55ZM34.129 17.429c-.276.303-.81-.098-1.006-.288-.353-.332-.636-.546-1.143-.594a5.601 5.601 0 0 1-1.09-.125.982.982 0 0 1-.39-.214.074.074 0 0 1-.049 0 .085.085 0 0 1-.037-.036.485.485 0 0 0-.101-.098.084.084 0 0 1-.04-.032.08.08 0 0 1-.013-.05c.152-.86 1.595-.677 2.196-.507a2.426 2.426 0 0 1 1.423 1.06c.115.176.46.67.25.884ZM16.556 18.95a.048.048 0 0 1 .02.042.047.047 0 0 1-.007.022c-.146.182-.3.355-.465.521-.113.109-.271.317-.472.3-.201-.018-.11-.352-.063-.447a.918.918 0 0 1 .282-.314.945.945 0 0 1 .407-.158.026.026 0 0 1 .016.015.024.024 0 0 1 .002.01c.085-.01.172-.01.257 0a.05.05 0 0 1 .023.01ZM41.102 31.012c-.277 1.03-1.711.98-2.48 1.145a4.554 4.554 0 0 0-1.901.864c-.276.221-.68.574-1.031.338a.044.044 0 0 1-.014-.048c.182-.769 1.103-1.143 1.689-1.433.175-.084.351-.166.52-.257.23-.126.59-.263.659-.561v-.038a.044.044 0 0 1-.034-.015.042.042 0 0 1-.01-.035 1.275 1.275 0 0 1 .565-.841 1.338 1.338 0 0 1 1.01-.19c.452.078 1.195.432 1.027 1.071Z"
                            fill="#fff" fill-rule="evenodd" />
                        <path
                            d="M27.399 16.506a.828.828 0 0 1-.338.265 1.147 1.147 0 0 1-.449.038c-.382-.011-.816-.06-1.028-.414a.978.978 0 0 1-.053-.998c.088-.162.322-.51.554-.543a.298.298 0 0 1 .032-.067c.039-.076.197-.154.263-.103.066.052.088-.029.143-.05a.152.152 0 0 1 .124.021.84.84 0 0 1 .092.073c.086.067.182.019.244 0 .063-.02.088.11.154.11.117.014.291.214.36.308.362.49.288.894-.098 1.36Z"
                            fill="#48264c" fill-rule="evenodd" />
                        <path
                            d="M27.399 16.512a.828.828 0 0 1-.338.265 1.147 1.147 0 0 1-.449.038c-.382-.012-.816-.06-1.028-.414a1.244 1.244 0 0 1-.082-.16 1.397 1.397 0 0 0 1.466-.47 1.34 1.34 0 0 0 .294-.871c.09.071.168.154.234.246.363.49.29.894-.097 1.366Z"
                            fill="#300d33" fill-rule="evenodd" />
                        <path
                            d="M27.4 35.61a.963.963 0 0 1-.44.215 1.306 1.306 0 0 1-.506-.065c-.42-.101-.888-.258-1.036-.698a1.195 1.195 0 0 1-.014-.763v-.012c.012-.034.025-.07.041-.105a1.112 1.112 0 0 1 .256-.328c.104-.105.22-.198.347-.276.107-.12.206-.248.295-.382.152-.177.359.13.554 0a.125.125 0 0 1 .129 0c.121.094.16.197.336.117a.082.082 0 0 1 .095.027c.007.01.012.02.014.032.025.118.053.234.074.353.131.11.232.25.295.408.279.627.1 1.057-.44 1.476Z"
                            fill="#48264c" fill-rule="evenodd" />
                        <path
                            d="M27.397 35.61a.963.963 0 0 1-.441.215 1.306 1.306 0 0 1-.506-.065c-.42-.101-.888-.257-1.036-.698a1.385 1.385 0 0 1-.05-.19 1.596 1.596 0 0 0 1.74-.17c.28-.228.472-.545.54-.895.08.1.146.21.196.326.28.628.1 1.057-.443 1.476Z"
                            fill="#300d33" fill-rule="evenodd" />
                        <path
                            d="M23.936 16.323a.97.97 0 0 1-.427.236 1.355 1.355 0 0 1-.492-.042c-.423-.074-.9-.214-1.071-.647a1.097 1.097 0 0 1 .128-1.12c.112-.143.243-.272.39-.38v-.031a.34.34 0 0 1 .174-.325c.12-.05.237.105.328 0 .055-.063.139-.145.235-.108a.21.21 0 0 1 .109.093c.049.073.174-.055.22-.055.205-.036.285.143.305.315.064.011.064.131.13.148.13.037.286.29.346.407.31.612.154 1.049-.375 1.509Z"
                            fill="#48264c" fill-rule="evenodd" />
                        <path
                            d="M23.936 16.322a.97.97 0 0 1-.427.237c-.168.02-.338.008-.502-.034-.423-.075-.9-.214-1.071-.647a1.377 1.377 0 0 1-.06-.19 1.579 1.579 0 0 0 1.727-.265c.27-.243.443-.57.492-.926.085.096.158.203.216.317.31.612.154 1.049-.375 1.508Z"
                            fill="#300d33" fill-rule="evenodd" />
                        <path
                            d="M31.357 18.178a1.1 1.1 0 0 1-.521.26 1.511 1.511 0 0 1-.586-.082c-.492-.132-1.044-.328-1.212-.872a1.393 1.393 0 0 1 .234-1.364c.162-.19.574-.597.886-.572a.484.484 0 0 1 .061-.08c.074-.092.283-.183.375-.061.064.091.117-.012.195-.025a.2.2 0 0 1 .156.069c.035.039.067.08.096.124.091.108.203.078.32.066.086-.011.082.163.166.191.148.054.314.376.374.523.33.776.112 1.297-.544 1.823Z"
                            fill="#48264c" fill-rule="evenodd" />
                        <path
                            d="M31.351 18.171a1.1 1.1 0 0 1-.52.26 1.51 1.51 0 0 1-.586-.083c-.492-.131-1.045-.328-1.212-.871a1.693 1.693 0 0 1-.057-.239c.263.148.561.227.865.23a1.902 1.902 0 0 0 1.195-.435c.334-.276.56-.659.635-1.08.094.124.172.259.23.402.33.776.112 1.297-.55 1.816Z"
                            fill="#300d33" fill-rule="evenodd" />
                        <path
                            d="M30.982 34.602a1.345 1.345 0 0 1-.622.303 1.844 1.844 0 0 1-.718-.09c-.592-.144-1.257-.364-1.466-.99a1.557 1.557 0 0 1 .265-1.575c.193-.213.683-.69 1.058-.664a.686.686 0 0 1 .072-.095c.09-.105.338-.214.451-.072.084.103.146-.016.24-.031a.247.247 0 0 1 .195.076c.043.045.082.093.117.143.12.124.252.088.39.073.094-.012.094.19.196.223.178.06.379.43.455.599.394.887.14 1.494-.633 2.1Z"
                            fill="#48264c" fill-rule="evenodd" />
                        <path
                            d="M30.986 34.602a1.345 1.345 0 0 1-.622.304 1.844 1.844 0 0 1-.719-.09c-.59-.145-1.256-.364-1.465-.99a1.685 1.685 0 0 1-.07-.277c.32.17.678.258 1.042.258a2.264 2.264 0 0 0 1.415-.502c.398-.323.669-.77.767-1.266.114.141.209.297.28.463.395.887.141 1.494-.628 2.1Z"
                            fill="#300d33" fill-rule="evenodd" />
                        <path
                            d="M22.789 31.129s.521-.191.824.482c.302.674.412 1.336.714 1.65a.709.709 0 0 1 .248.573s-.853-.456-1.072-.699c-.324-.329-.602-.699-.825-1.1-.246-.485-.42-.939-.42-.939l.531.033Z"
                            fill="#5f825c" fill-rule="evenodd" />
                        <path
                            d="M22.672 31.516s-.482-.11-1.001-.301a5.303 5.303 0 0 1-1.214-.674c-.272-.177-.832-.954-.832-.954a.74.74 0 0 1 .617.174c.351.258 1.04.29 1.756.505.717.216.586.744.586.744l.088.506Z"
                            fill="#5f825c" fill-rule="evenodd" />
                        <path
                            d="M22.483 31.268s.962.672.935 1.585c-.028.914-.028 1.37-.586 1.88-.558.509-1.62.537-2.17.778-.55.24-1.209.457-1.367.59-.158.134-.493.27-.987 0-.494-.268-.78-.24-.687-.993.14-.97.38-1.923.714-2.846.273-.698.515-1.236 1.288-1.45a3.575 3.575 0 0 1 2.23.16c.485.243.63.296.63.296Z"
                            fill="#ed6366" fill-rule="evenodd" />
                        <path
                            d="M17.736 34.381c.436.16.9.243 1.366.242 1.913 0 3.462-1.314 3.462-2.933 0-.134-.01-.267-.03-.399.206.162.899.763.875 1.541-.027.912-.027 1.37-.585 1.88-.558.509-1.62.537-2.17.777-.55.24-1.209.458-1.367.592-.158.133-.494.269-.987 0-.494-.27-.781-.242-.687-.994.029-.198.07-.44.123-.706Z"
                            fill="#c73a54" fill-rule="evenodd" />
                        <path
                            d="M23.037 32.786a.027.027 0 0 1 .021-.013c.002-.02.023-.015.023 0v.013c.01.04.01.082 0 .122-.01.16-.04.38-.171.363-.182-.023.103-.433.127-.485ZM22.637 32.246a.32.32 0 0 1 .119-.16h.021a.024.024 0 0 1 .031.011.022.022 0 0 1 .002.012.247.247 0 0 1-.017.082.326.326 0 0 1-.132.258.02.02 0 0 1-.025-.006.312.312 0 0 1 0-.197ZM22.262 31.624a.023.023 0 0 1 .027-.006.023.023 0 0 1 .01.01.022.022 0 0 1 .004.014.532.532 0 0 1-.035.124c-.03.131-.082.331-.195.244-.112-.08.134-.323.189-.386ZM22.178 32.472l.035-.023c.018-.008.033.011.033.026a.472.472 0 0 1-.12.267.634.634 0 0 1-.104.123.018.018 0 0 1-.022-.004c-.095-.126.053-.3.178-.39ZM22.213 33.546a.546.546 0 0 1 .119-.18v-.013h.023a.024.024 0 0 1 .032.011.022.022 0 0 1 .002.012.392.392 0 0 1-.055.175c-.023.105-.066.206-.139.163-.052-.03-.002-.124.018-.168ZM22.802 33.76c.016-.014.041.001.041.016v.014a.026.026 0 0 1 0 .036.29.29 0 0 1-.04.126.731.731 0 0 1-.043.145c-.036.068-.118.139-.196.09-.119-.079.174-.382.238-.428ZM22.04 34.152a.022.022 0 0 1 .02.002.021.021 0 0 1 .009.017.245.245 0 0 1-.086.19c-.045.088-.11.178-.176.088-.082-.11.14-.263.232-.297ZM21.44 33.345a.968.968 0 0 1 .195-.175.026.026 0 0 1 .039.008c.002.005.003.01.002.015a.232.232 0 0 1-.021.082v.028a.4.4 0 0 1-.098.216c-.04.046-.137.068-.176 0-.039-.069.024-.141.059-.174ZM21.409 32.533a.375.375 0 0 1 .144-.1.028.028 0 0 1 .025.005.027.027 0 0 1 .01.022.271.271 0 0 1-.062.153.264.264 0 0 1-.062.082c-.04.03-.118.036-.133-.023-.016-.053.043-.107.078-.139ZM21.667 31.247a.028.028 0 0 1 .02.002.027.027 0 0 1 .013.013.297.297 0 0 1-.11.313.03.03 0 0 1-.044-.013.148.148 0 0 1-.012-.042.215.215 0 0 1 .01-.162.223.223 0 0 1 .123-.11ZM21.015 32.056c.033-.06.107-.18.195-.191a.032.032 0 0 1 .029.017.362.362 0 0 1-.103.338c-.036.076-.084.124-.143.076-.074-.057-.012-.181.022-.24ZM20.972 31.2a.347.347 0 0 1 .037-.037.032.032 0 0 1 .043.006.03.03 0 0 1 .006.015.286.286 0 0 1-.086.242v.015a.077.077 0 0 1-.063.042.08.08 0 0 1-.07-.03c-.084-.084.035-.206.133-.252ZM20.308 31.9c.039-.08.1-.146.178-.191a.028.028 0 0 1 .04.01c.003.006.004.011.003.016a.307.307 0 0 1-.026.103v.033a.542.542 0 0 1-.027.124.161.161 0 0 1-.076.091.03.03 0 0 1-.028.016.032.032 0 0 1-.027-.016c-.076-.04-.053-.139-.037-.187ZM20.322 31.083a.072.072 0 0 1 .06.025c.02-.006.02.004.02.017v.013a.13.13 0 0 1-.016.078.537.537 0 0 1-.123.143.711.711 0 0 1-.072.079.02.02 0 0 1-.022 0c-.115-.094.022-.353.153-.355ZM19.43 31.463a.274.274 0 0 1 .213-.153.03.03 0 0 1 .023.009.029.029 0 0 1 .008.023c0 .03-.008.058-.022.084a.471.471 0 0 1-.107.21c-.033.04-.125.113-.164.04-.035-.065.016-.158.049-.213ZM19.629 32.237a.477.477 0 0 1 .125-.175.026.026 0 0 1 .039.011.327.327 0 0 1-.078.31c-.01.02-.008.03-.031.06-.024.03-.086.06-.11 0-.027-.069.032-.156.055-.206ZM20.369 32.773a.418.418 0 0 1 .166-.25.028.028 0 0 1 .028.008.026.026 0 0 1 .007.013.241.241 0 0 1-.014.105.23.23 0 0 1-.15.19h-.02a.032.032 0 0 1-.026-.008.03.03 0 0 1-.01-.025ZM20.939 32.998a.03.03 0 0 1 .039.006.028.028 0 0 1 .005.013v.014c0 .106-.076.278-.195.288a.024.024 0 0 1-.018-.005.023.023 0 0 1-.01-.016.375.375 0 0 1 .179-.3ZM20.27 33.345a.39.39 0 0 1 .081-.061c.016 0 .043 0 .043.017a.315.315 0 0 1-.09.204.211.211 0 0 1-.093.08.022.022 0 0 1-.016 0 .021.021 0 0 1-.012-.011v-.021a.035.035 0 0 1 0-.015.187.187 0 0 1 .086-.193ZM19.756 32.81c.008-.001.016.001.022.006a.03.03 0 0 1 .011.02.142.142 0 0 1 0 .05.187.187 0 0 1-.05.154.257.257 0 0 1-.116.107c-.012 0-.025 0-.031-.013-.043-.1.023-.327.164-.325ZM18.876 32.69a.226.226 0 0 1 .046-.203.385.385 0 0 1 .11-.114.032.032 0 0 1 .045.013.278.278 0 0 1-.022.189.288.288 0 0 1-.138.133.032.032 0 0 1-.035-.008.03.03 0 0 1-.006-.01ZM18.961 33.425a.21.21 0 0 1 .118-.19.03.03 0 0 1 .036.011.028.028 0 0 1 .005.013.237.237 0 0 1-.075.208.11.11 0 0 1-.03.029.032.032 0 0 1-.036-.004.03.03 0 0 1-.008-.01.017.017 0 0 1 0-.013.16.16 0 0 1-.01-.044ZM20.75 33.702a.026.026 0 0 1 .019.007.025.025 0 0 1 .008.018.265.265 0 0 1-.158.242.034.034 0 0 1-.02 0h-.027a.022.022 0 0 1-.024-.012.02.02 0 0 1-.002-.009.334.334 0 0 1 .203-.246ZM20.956 34.234a.264.264 0 0 1 .047-.097.329.329 0 0 1 .148-.134.026.026 0 0 1 .026.003.025.025 0 0 1 .01.024.331.331 0 0 1-.143.223l-.014.013a.018.018 0 0 1-.02 0h-.013a.032.032 0 0 1-.03-.005.03.03 0 0 1-.01-.027ZM20.84 34.906a.383.383 0 0 1 .106-.132.438.438 0 0 1 .063-.055.032.032 0 0 1 .02 0 .026.026 0 0 1 .038.008c.002.005.003.01.002.015a.234.234 0 0 1-.06.12.243.243 0 0 1-.117.07h-.016a.024.024 0 0 1-.028 0 .022.022 0 0 1-.008-.026ZM20.208 34.578a.188.188 0 0 1 .079-.142.255.255 0 0 1 .109-.064c.017 0 .04 0 .04.022a.254.254 0 0 1-.058.149.264.264 0 0 1-.136.086.032.032 0 0 1-.024-.006.03.03 0 0 1-.011-.02.015.015 0 0 1-.006-.014.015.015 0 0 1 .007-.011ZM19.758 33.796h.015a.044.044 0 0 1 .039.003.042.042 0 0 1 .02.033c-.012.097-.096.223-.195.229-.016 0-.037-.012-.035-.029-.001-.05.013-.1.041-.141a.258.258 0 0 1 .115-.095ZM19.442 34.68c.04-.056.096-.1.162-.123a.032.032 0 0 1 .03.004.03.03 0 0 1 .012.028.46.46 0 0 1-.233.268.032.032 0 0 1-.03-.012.03.03 0 0 1-.006-.016.176.176 0 0 1 .065-.148ZM18.926 34.07a.23.23 0 0 1 .113-.19c.016 0 .045 0 .051.013a.262.262 0 0 1-.123.26.036.036 0 0 1-.053-.011.034.034 0 0 1-.003-.02.43.43 0 0 1 .015-.052ZM18.434 33.477a.109.109 0 0 1 .04-.057l.011-.014c.014-.017.05-.011.05.014a.214.214 0 0 1-.038.116.174.174 0 0 1-.068.13.026.026 0 0 1-.035-.007.024.024 0 0 1-.005-.012.262.262 0 0 1 .045-.17ZM18.92 31.829l.026-.032c.013-.014.045 0 .045.013a.245.245 0 0 1-.08.206v.011a.024.024 0 0 1-.023.006.024.024 0 0 1-.016-.017.114.114 0 0 1 0-.036.14.14 0 0 1 .048-.151ZM18.833 34.677a.03.03 0 0 1 .041.011c.003.005.004.01.003.016a.337.337 0 0 1-.134.251l-.016.017a.023.023 0 0 1-.02.012.024.024 0 0 1-.02-.012c-.038-.1.062-.236.146-.295ZM18.22 34.572a.116.116 0 0 1 .037-.065.165.165 0 0 1 .038-.044.032.032 0 0 1 .04.01.187.187 0 0 1 0 .13.224.224 0 0 1-.066.112.026.026 0 0 1-.04-.012.154.154 0 0 1-.01-.131ZM18.3 35.222a.03.03 0 0 1 .042.007c.003.004.004.01.005.014a.314.314 0 0 1-.088.254v.015a.026.026 0 0 1-.047 0 .293.293 0 0 1 .088-.29ZM19.02 35.503a.032.032 0 0 1 .035.013.019.019 0 0 1 0 .02v.014a.234.234 0 0 1-.1.191.03.03 0 0 1-.044-.011v-.012a.024.024 0 0 1-.02-.007.023.023 0 0 1-.006-.02.243.243 0 0 1 .135-.188ZM19.949 35.043a.03.03 0 0 1 .039.006.028.028 0 0 1 .006.013.292.292 0 0 1-.045.165.302.302 0 0 1-.129.113.042.042 0 0 1-.03 0l-.023.016a.024.024 0 0 1-.028-.011.023.023 0 0 1-.003-.01.377.377 0 0 1 .213-.292ZM21.534 34.911a.108.108 0 0 1 .015-.025.095.095 0 0 1 0-.042.209.209 0 0 1 .102-.093c.015 0 .037 0 .043.011a.147.147 0 0 1 0 .082.126.126 0 0 1-.05.078.131.131 0 0 1-.09.023.031.031 0 0 1-.017-.013.03.03 0 0 1-.003-.021Z"
                            fill="#e7d8c8" fill-rule="evenodd" />
                    </g>
                </g>
            </g>
        </g>
    </g>
    <defs>
        <linearGradient x1="1" y1="1" x2="0" y2="0" id="a">
            <stop stop-color="#f8600d" offset="0" />
            <stop stop-color="#ffba9d" offset="1" />
        </linearGradient>
    </defs>
</svg>