<svg xmlns="http://www.w3.org/2000/svg" width="20.762" height="22.65" viewBox="0 0 20.762 22.65">
  <g id="calendar_1_" data-name="calendar (1)" transform="translate(-20)">
    <g id="Group_2605" data-name="Group 2605" transform="translate(20)">
      <g id="Group_2604" data-name="Group 2604" transform="translate(0)">
        <path id="Path_354" data-name="Path 354" d="M38.5.755H37.365V.377a.377.377,0,1,0-.755,0V.755h-.755V.377a.377.377,0,0,0-.755,0V.755h-.755V.377a.377.377,0,0,0-.755,0V.755h-.755V.377a.377.377,0,1,0-.755,0V.755H26.795V.377a.377.377,0,0,0-.755,0V.755h-.755V.377a.377.377,0,1,0-.755,0V.755h-.755V.377a.377.377,0,0,0-.755,0V.755h-.755V.377a.377.377,0,1,0-.755,0V.755H20.377A.378.378,0,0,0,20,1.132V18.875a.378.378,0,0,0,.377.377H31.344a.378.378,0,0,0,.378-.377c0-.009,0-.018,0-.027l0-.044c-.008-.1-.016-.2-.016-.307a4.886,4.886,0,0,1,.131-1.109,4.822,4.822,0,0,1,.374-1.046c.016-.033.031-.067.048-.1.05-.1.1-.189.161-.281.018-.029.035-.059.054-.088q.092-.144.193-.28l.043-.057q.113-.148.235-.287l.011-.012a4.974,4.974,0,0,1,1.975-1.344l.066-.025c.1-.036.205-.068.31-.1l.143-.038c.088-.022.177-.042.267-.059s.154-.025.231-.035.136-.021.2-.027c.151-.014.3-.023.46-.023.1,0,.2.008.3.015l.047,0h.009a4.931,4.931,0,0,1,1.392.311.378.378,0,0,0,.515-.351V1.132A.378.378,0,0,0,38.5.755Zm-6.774,14.9c-.013.022-.027.042-.039.063-.054.1-.1.194-.151.293-.027.054-.054.108-.079.164-.041.091-.08.184-.116.277l-.012.028V14.722H32.4A5.7,5.7,0,0,0,31.723,15.652Zm1.867-1.936c-.13.082-.255.17-.377.262v-.011H31.325V11.7H33.59Zm0-2.769H31.325V8.682H33.59Zm0-3.02H31.325V5.662H33.59Zm3.02.755v2.265H34.345V8.682Zm-2.265-.755V5.662H36.61V7.927Zm2.266,4.907c-.177,0-.351.01-.524.026-.075.007-.146.018-.219.028-.092.012-.185.025-.276.042s-.191.038-.285.061c-.058.014-.116.029-.173.045-.113.031-.226.065-.34.1l-.043.016c-.137.048-.273.1-.405.156V11.7H36.61Zm1.509.208a5.61,5.61,0,0,0-.755-.157v-7.6a.378.378,0,0,0-.377-.377h-15.1a.378.378,0,0,0-.377.377v12.08a.378.378,0,0,0,.377.377H31a5.662,5.662,0,0,0-.056.755H20.755V4.152H38.12Zm-9.815.924V11.7H30.57v2.265Zm2.265.755v2.265H28.3V14.722ZM28.3,10.947V8.682H30.57v2.265Zm0-3.02V5.662H30.57V7.927Zm-3.02,6.04V11.7H27.55v2.265Zm2.265.755v2.265H25.285V14.722Zm-2.265-3.775V8.682H27.55v2.265Zm0-3.02V5.662H27.55V7.927Zm-3.02,6.04V11.7H24.53v2.265Zm2.265.755v2.265H22.265V14.722Zm-2.265-3.775V8.682H24.53v2.265Zm0-3.02V5.662H24.53V7.927ZM38.12,3.4H20.755V1.51h.755v.377a.377.377,0,1,0,.755,0V1.51h.755v.377a.377.377,0,0,0,.755,0V1.51h.755v.377a.377.377,0,1,0,.755,0V1.51h.755v.377a.377.377,0,0,0,.755,0V1.51H32.08v.377a.377.377,0,1,0,.755,0V1.51h.755v.377a.377.377,0,0,0,.755,0V1.51H35.1v.377a.377.377,0,0,0,.755,0V1.51h.755v.377a.377.377,0,1,0,.755,0V1.51h.755Z" transform="translate(-20)" fill="#f8600d"/>
      </g>
    </g>
    <g id="Group_2607" data-name="Group 2607" transform="translate(32.457 14.345)">
      <g id="Group_2606" data-name="Group 2606">
        <path id="Path_355" data-name="Path 355" d="M288.152,304a4.152,4.152,0,1,0,4.152,4.152A4.152,4.152,0,0,0,288.152,304Zm0,7.55a3.4,3.4,0,1,1,3.4-3.4A3.4,3.4,0,0,1,288.152,311.55Z" transform="translate(-284 -304)" fill="#f8600d"/>
      </g>
    </g>
    <g id="Group_2609" data-name="Group 2609" transform="translate(35.104 16.237)">
      <g id="Group_2608" data-name="Group 2608">
        <path id="Path_356" data-name="Path 356" d="M343.748,344.2a.377.377,0,0,0-.525,0l-1.621,1.621-.866-.866a.377.377,0,0,0-.534.534l1.132,1.133a.378.378,0,0,0,.534,0l1.887-1.887A.377.377,0,0,0,343.748,344.2Z" transform="translate(-340.098 -344.098)" fill="#f8600d"/>
      </g>
    </g>
  </g>
</svg>
