<svg xmlns="http://www.w3.org/2000/svg" width="18" height="18" viewBox="0 0 18 18">
  <g id="Calories-Icon" transform="translate(-40 -512)">
    <g id="calories" transform="translate(40 512)">
      <rect id="calories-2" data-name="calories" width="18" height="18" fill="none"/>
      <g id="Group">
        <g id="Group-2" data-name="Group">
          <path id="Vector" d="M7.063,18A7.08,7.08,0,0,1,0,10.92,11.876,11.876,0,0,1,3.406,2.952,16.977,16.977,0,0,1,6.791.075a.581.581,0,0,1,.856.488v4.85L10.128,3.1a.527.527,0,0,1,.754.036,14.016,14.016,0,0,1,2.231,3.346C16.112,12.917,11.979,18,7.063,18Z" transform="translate(1.936 0)" fill="#fe4e33"/>
        </g>
        <path id="Vector-2" data-name="Vector" d="M0,18V0A.591.591,0,0,1,.571.562v4.85L3.053,3.1a.527.527,0,0,1,.754.036A14.016,14.016,0,0,1,6.038,6.479C9.034,12.911,4.91,17.991,0,18Z" transform="translate(9.011 0.001)" fill="#fe1600"/>
        <g id="Group-3" data-name="Group">
          <path id="Vector-3" data-name="Vector" d="M2.684,6.642A2.69,2.69,0,0,1,0,3.951C0,1.553,2.328.134,2.427.075a.526.526,0,0,1,.56.012c.1.064,2.382,1.6,2.382,3.864A2.69,2.69,0,0,1,2.684,6.642Z" transform="translate(6.315 11.358)" fill="#fec356"/>
        </g>
        <path id="Vector-4" data-name="Vector" d="M0,6.641V0A.526.526,0,0,1,.29.087c.1.064,2.382,1.6,2.382,3.864A2.69,2.69,0,0,1,0,6.641Z" transform="translate(9.011 11.359)" fill="#feb020"/>
      </g>
    </g>
  </g>
</svg>
