<svg xmlns="http://www.w3.org/2000/svg" width="17" height="17" viewBox="64 121.95 17 17">
    <g>
        <path d="M64 130.4a8.5 8.5 0 1 1 0 .1z" fill="#f8600d" fill-rule="evenodd" />
        <path
            d="M72.5 135.953a5.568 5.568 0 0 1-3.925-1.597 5.373 5.373 0 0 1-1.626-3.856c0-1.457.578-2.826 1.626-3.856a5.568 5.568 0 0 1 3.925-1.597c1.483 0 2.876.568 3.925 1.597a5.373 5.373 0 0 1 1.626 3.856 5.373 5.373 0 0 1-1.626 3.856 5.568 5.568 0 0 1-3.925 1.597Zm0-10.38c-1.34 0-2.599.512-3.546 1.444a4.846 4.846 0 0 0-1.469 3.483c0 1.317.521 2.553 1.47 3.483a5.028 5.028 0 0 0 3.545 1.444c1.34 0 2.599-.513 3.546-1.444a4.852 4.852 0 0 0 1.469-3.483 4.846 4.846 0 0 0-1.47-3.483 5.022 5.022 0 0 0-3.545-1.444Z"
            fill="#fff" fill-rule="evenodd" />
        <path
            d="M74.664 128.55h-.716a.71.71 0 0 0-.716-.704h-1.43a.71.71 0 0 0-.716.703h-.716a.71.71 0 0 0-.716.704v2.812c0 .388.321.703.716.703h4.294a.71.71 0 0 0 .716-.703v-2.812a.71.71 0 0 0-.716-.704Zm-2.136 3.137c-.603 0-1.094-.48-1.094-1.075 0-.593.49-1.075 1.094-1.075.604 0 1.095.481 1.095 1.075 0 .595-.49 1.075-1.095 1.075Z"
            fill="#fff" fill-rule="evenodd" />
    </g>
</svg>