<svg xmlns="http://www.w3.org/2000/svg" width="92.394" height="127.545" viewBox="141.303 139.589 92.394 127.545"><g data-name="Certificate"><g data-name="Group 7135"><g data-name="Group 7133"><g data-name="Group 7131"><path d="m226.952 259.395-14.204-6.236-6.74 13.975-24.285-65.745 20.948-7.739 24.281 65.745Z" stroke-linejoin="round" stroke-linecap="round" stroke="#f8600d" fill="transparent" data-name="Path 9076"/></g><g data-name="Group 7132"><path d="m148.048 259.395 14.204-6.236 6.74 13.975 24.285-65.745-20.947-7.739-24.282 65.745Z" stroke-linejoin="round" stroke-linecap="round" stroke="#f8600d" fill="transparent" data-name="Path 9077"/></g></g><g data-name="Group 7134"><path d="M192.62 141.448c4.244-3.54 10.712-1.808 12.618 3.38a7.992 7.992 0 0 0 8.866 5.119c5.447-.944 10.182 3.792 9.236 9.236a7.99 7.99 0 0 0 5.119 8.865c5.188 1.906 6.92 8.375 3.38 12.62a7.992 7.992 0 0 0 0 10.238c3.54 4.244 1.808 10.713-3.38 12.619a7.992 7.992 0 0 0-5.119 8.865c.943 5.447-3.793 10.183-9.236 9.236a7.99 7.99 0 0 0-8.866 5.12c-1.906 5.187-8.374 6.92-12.619 3.38a7.992 7.992 0 0 0-10.238 0c-4.244 3.54-10.713 1.807-12.619-3.38a7.992 7.992 0 0 0-8.866-5.12c-5.446.944-10.182-3.792-9.236-9.236a7.99 7.99 0 0 0-5.119-8.865c-5.188-1.906-6.92-8.375-3.38-12.62a7.992 7.992 0 0 0 0-10.238c-3.54-4.244-1.808-10.713 3.38-12.619a7.992 7.992 0 0 0 5.12-8.865c-.944-5.447 3.792-10.183 9.235-9.236a7.99 7.99 0 0 0 8.866-5.12c1.906-5.187 8.375-6.92 12.62-3.38a7.992 7.992 0 0 0 10.237 0Z" fill="#f8600d" fill-rule="evenodd" data-name="Path 9078"/><path d="m174.275 185.739 10.468 8.992 15.983-17.887" stroke-linejoin="round" stroke-linecap="round" stroke-width="2" stroke="#fff" fill="transparent" data-name="Path 693"/></g></g></g></svg>