<svg xmlns="http://www.w3.org/2000/svg" width="49.416" height="86.654" viewBox="0 0 49.416 86.654">
  <g id="Client" transform="translate(-47.89 -139.164)">
    <g id="Group_2530" data-name="Group 2530" transform="translate(47.89 139.164)">
      <rect id="Rectangle_145" data-name="Rectangle 145" width="2.693" height="23.81" transform="translate(41.065 59.881)" fill="#001533"/>
      <g id="Group_2528" data-name="Group 2528" transform="translate(14.783 3.754)">
        <path id="Path_1271" data-name="Path 1271" d="M71.942,144.88a4.269,4.269,0,0,0-.709,2.5c.026.946-.506,1.576-.013,2.154a2.076,2.076,0,0,1-.256,2.411c-.631.972-.86,1.557-.033,1.741s.7.145.683.361-.328.578.2.9c0,0-.309.447.066.729s.532.407.374.775-.407,1.53.631,1.806,3-.44,3.291-.177.092,1.222,1.274,2.26,1.228,1.544,1.228,1.544,5.425-2.076,7.291-5.524c0,0-2.253-1.071-2.108-1.767,0,0-1.1.466-1.077-.118,0,0-.67-.617-.591-1.044,0,0-.46-.966-.131-1.491a.9.9,0,0,1-.02-.795,2.1,2.1,0,0,0,.342-1.294c-.026-.585-3.015-2.207-3.153-2.43s-.723-.624-.585-.966.026-.539-.184-.657S71.942,144.88,71.942,144.88Z" transform="translate(-70.396 -144.88)" fill="#fdb171"/>
      </g>
      <path id="Path_1272" data-name="Path 1272" d="M84.688,153.126c-.828-2.016.25-4.558.755-6.542a6,6,0,0,0-4.388-7.022c-6.693-1.53-9.452,1.708-8.552,3.751,0,0,5.044,1.018,5.872,5.866l.966.053s-.434-2.312.867-2.378c1.228-.066.69,1.406.88,2.01s1.163,1.55-.164,1.721c0,0-.177,1.044,2.062,2.01A7.5,7.5,0,0,0,84.688,153.126Z" transform="translate(-56.28 -139.164)" fill="#37120b"/>
      <rect id="Rectangle_146" data-name="Rectangle 146" width="27.896" height="4.539" transform="translate(19.843 55.342)" fill="#001533"/>
      <rect id="Rectangle_147" data-name="Rectangle 147" width="31.18" height="5.071" transform="translate(18.201 53.89)" fill="#00265f"/>
      <path id="Path_1273" data-name="Path 1273" d="M65.778,211.68c-3.514,1.53-4.512,2.752-4.053,6.266s1.557,14.963,1.281,17.715a35.5,35.5,0,0,1-.736,4.585l5.347,1.681s-.309-8.21,1.452-10.352c1.215-1.471,1.681-7.251.23-10.115a5.853,5.853,0,0,1,3.619-1.491c2.621-.335,1.806-5.491,1.806-5.491Z" transform="translate(-52.602 -164.049)" fill="#f09f5b"/>
      <path id="Path_1274" data-name="Path 1274" d="M80.325,203.053c-4.125.92-12.375,5.038-12.375,5.038s4.736.762,6.181,8.4c0,0,7.258-.92,9.4-1.222a55.864,55.864,0,0,0,5.806-1.373V201.22Z" transform="translate(-54.774 -160.46)" fill="#37120b"/>
      <path id="Path_1275" data-name="Path 1275" d="M56,182.989c0,2.24-1.373,4.059-3.067,4.059s-3.067-1.819-3.067-4.059,1.373-4.059,3.067-4.059S56,180.743,56,182.989Z" transform="translate(-48.569 -152.811)" fill="#c7c7c7"/>
      <path id="Path_1276" data-name="Path 1276" d="M56.755,182.989c0,2.24-1.373,4.059-3.067,4.059s-3.067-1.819-3.067-4.059,1.373-4.059,3.067-4.059S56.755,180.743,56.755,182.989Z" transform="translate(-48.827 -152.811)" fill="#8f8f8f"/>
      <path id="Path_1277" data-name="Path 1277" d="M75.34,189.143a18.119,18.119,0,0,0,11.8,1.964l4.04-.841s-2.351-8.867-1.714-12.519c.164-.913.493-3.672.493-3.672s-4.329-2.9-4.782-6.365c-.512-3.921.164-5.636,1.432-6.864a7.453,7.453,0,0,0-3.429-.7c-2.207,0-4.493,2.45-5.872.571l-4.46,3.212a6.03,6.03,0,0,0-2.246,1.445c-1.353,1.222-3.921,1.471-4.657,3.921-1.379,4.585-1.1,7.718-1.964,9.307a50.849,50.849,0,0,0-2.207,6.457s-.493-4.861-3.061-7.554l-3.429.243s.8,3.961,1.53,6.818c.7,2.726,1.78,11.757,5.577,9.8s4.979-5.353,7.475-9.518c2.509-4.2,2.148-5.386,2.148-5.386S75.432,187.422,75.34,189.143Z" transform="translate(-50.426 -146.366)" fill="#fdb171"/>
      <path id="Path_1278" data-name="Path 1278" d="M60.773,181.238c-1.754-1.064-1.681-1.55-3.067-1.143s-3.672,1.471-2.568,4.453c.657,1.773,2.746.749,2.746.749Z" transform="translate(-50.277 -153.161)" fill="#fdb171"/>
      <path id="Path_1279" data-name="Path 1279" d="M64.585,185.969c0,2.24-1.373,4.059-3.067,4.059s-3.067-1.813-3.067-4.059,1.373-4.059,3.067-4.059S64.585,183.729,64.585,185.969Z" transform="translate(-51.514 -153.833)" fill="#c7c7c7"/>
      <path id="Path_1280" data-name="Path 1280" d="M96.982,212.986v.466l11.659.532s.532-10.187-7.146-14.483-5.668,7.941-5.668,7.941Z" transform="translate(-64.259 -159.556)" fill="#37120b"/>
      <path id="Path_1281" data-name="Path 1281" d="M65.325,185.969c0,2.24-1.373,4.059-3.067,4.059s-3.067-1.813-3.067-4.059,1.373-4.059,3.067-4.059S65.325,183.729,65.325,185.969Z" transform="translate(-51.768 -153.833)" fill="#8f8f8f"/>
      <g id="Group_2529" data-name="Group 2529" transform="translate(18.083 13.869)">
        <path id="Path_1282" data-name="Path 1282" d="M96.866,174.113c-7.534-1.59-7.527-13.826-7.527-13.833h0l-1.76.6c-.532.223-.053.131-.532.223h0s-2.233,4.979-4.026,5.879c-2.122,1.064-4.664-2.7-4.664-2.7a3.268,3.268,0,0,1-.841,1.13,8.919,8.919,0,0,1-1.885,1.136h0c-1.222,9.458,3.291,12.953,3.291,12.953s3.422,7.961,3.337,9.675a18.119,18.119,0,0,0,11.8,1.964l4.04-.841s-2.351-8.867-1.714-12.519C96.537,176.872,96.866,174.113,96.866,174.113Z" transform="translate(-75.421 -160.28)" fill="#90b8eb"/>
        <path id="Path_1283" data-name="Path 1283" d="M80.75,189.56l.013.079A.741.741,0,0,0,80.75,189.56Z" transform="translate(-77.249 -170.328)" fill="#00265f"/>
      </g>
      <path id="Path_1284" data-name="Path 1284" d="M96.61,160.25s5.327-.742,7.448,3.1,3.514,3.186,5.064,5.143,2.207,4.164,3.107,5.964,2.122,3.586,1.714,5.1-4.729,13.8-7.843,15.646a3.183,3.183,0,0,1-4.026-.67l-.112-.617s3.317-14.03,5.439-15.39c0,0-3.146-2.148-3.264-4.434C104.137,174.083,98.981,173.17,96.61,160.25Z" transform="translate(-64.609 -146.381)" fill="#fdb171"/>
      <path id="Path_1285" data-name="Path 1285" d="M108.045,211.411a6.578,6.578,0,0,0-6.3,0c-2.227,1.071-2.168,10.082-.723,16.191s1.051,9.774,1.307,12.828h5.123c.263-3.054-.131-6.726,1.314-12.828S110.272,212.475,108.045,211.411Z" transform="translate(-65.771 -163.681)" fill="#f09f5b"/>
      <path id="Path_1286" data-name="Path 1286" d="M104.083,253.655c-.92-2.417-1.452-4.565,2.378-4.565,3.218,0,2.68,2.266,1.649,4.565Z" transform="translate(-66.946 -176.887)" fill="#00265f"/>
      <path id="Path_1287" data-name="Path 1287" d="M103.226,253.473s-.788-.282-.716,1.767-.466,4.053.407,5.176,3.619,5.452,7,4.486,2.115-3.547,1.438-4.657c-.966-1.59-2.292-2.292-2.214-3.895s.558-2.91-1.281-2.89S103.226,253.473,103.226,253.473Z" transform="translate(-66.6 -178.387)" fill="#00265f"/>
      <path id="Path_1288" data-name="Path 1288" d="M57.158,253.46a6.083,6.083,0,0,0,4.059,1.484c1.117-.25,2.673-1.491,2.962-.663s.788,3.573.355,4.782a.911.911,0,0,1,.079.92c-.21.631-1.734.755-3.691.69s-7.9.263-9.524-.269-3.087-1.215-3.291-1.99-.624-2.884.828-2.621a7.48,7.48,0,0,0,3.954-.131,18.615,18.615,0,0,0,3.061-1.7C56.613,253.342,56.875,253.178,57.158,253.46Z" transform="translate(-47.89 -178.341)" fill="#00265f"/>
      <path id="Path_1289" data-name="Path 1289" d="M61.5,251.82c-.368-1.708-.532-4.69.414-4.69s1.938,1.314,1.32,4.959-1.32,1.688-1.32,1.688Z" transform="translate(-52.46 -176.215)" fill="#00265f"/>
      <rect id="Rectangle_148" data-name="Rectangle 148" width="2.693" height="23.81" transform="translate(22.917 59.881)" fill="#001533"/>
      <path id="Path_1290" data-name="Path 1290" d="M78.711,160.468a3.057,3.057,0,0,0,1.038-1.721,3.769,3.769,0,0,0-.44-2.187s.21,2.5-1.511,2.818a5.245,5.245,0,0,0-2.64,1.143,1.885,1.885,0,0,1-2.036-.02c-.158.4-.361,1.5.644,1.773,1.038.276,3-.44,3.291-.177C77.371,161.775,78.219,161.007,78.711,160.468Z" transform="translate(-56.504 -145.134)" fill="#37120b"/>
      <path id="Path_1291" data-name="Path 1291" d="M76.32,162.834a9.409,9.409,0,0,0,3.455-1.629,5.447,5.447,0,0,0,1.819-2.975s-.519,3.685-3.153,5.038a1.362,1.362,0,0,0-.236-.611C78.021,162.493,77.18,162.716,76.32,162.834Z" transform="translate(-57.646 -145.707)" fill="#f09f5b"/>
    </g>
  </g>
</svg>
