<svg xmlns="http://www.w3.org/2000/svg" width="58.325" height="87.984" viewBox="0 0 58.325 87.984">
  <g id="Clients" transform="translate(-60 -81.5)">
    <g id="Group_7086" data-name="Group 7086" transform="translate(60 81.5)">
      <path id="Path_8796" data-name="Path 8796" d="M80.225,420.661a3.963,3.963,0,0,0,1.7,2.521c3.6,2.842,8.548,3.048,13.131,3.14q8.525.138,17.05.3c1.948.023,3.919.069,5.867-.046,2.475-.137,5.042-.55,6.967-2.085s2.888-4.515,1.513-6.554c-1.123-1.65-3.323-2.154-5.317-2.406-9.6-1.192-19.3.6-28.967.71C89.391,416.238,79.675,415.918,80.225,420.661Z" transform="translate(-75.572 -338.665)" fill="#9cacbf"/>
      <g id="Group_7085" data-name="Group 7085">
        <path id="Path_8797" data-name="Path 8797" d="M109.468,258.5s-1.008.779-1.4.779-1.352.16-1.215.6S108,260.2,108,260.2l3.758-.046a4.843,4.843,0,0,0-.39-1.077C111.164,258.683,109.468,258.5,109.468,258.5Z" transform="translate(-96.107 -217.937)" fill="#ffede5"/>
        <path id="Path_8798" data-name="Path 8798" d="M133.777,165.538a15.643,15.643,0,0,1-5.11-.55,6.521,6.521,0,0,1-.642-.321s.252-2.246.344-3.185a2.788,2.788,0,0,0,.16-.825,51.083,51.083,0,0,0-.985-6.417c-.138-.573-.275-1.146-.435-1.742a11.97,11.97,0,0,1-1.879,6.554,12.228,12.228,0,0,0-1.26,3.048,20.578,20.578,0,0,1-1.031,2.888c-1.054,2.452-2.635,5.34-2.635,5.34l-1.9-.573s.825-3.575,1.788-6.531a16,16,0,0,1,.779-1.879,7.792,7.792,0,0,0,.756-3.117,25.11,25.11,0,0,1,1.719-7.654c.527-6.027,3.369-6.027,4.927-6.3a5.787,5.787,0,0,1,1.1-.435,12.593,12.593,0,0,1,1.306-.344.39.39,0,0,1,.16-.023c.206-.046.344-.069.344-.069h0Z" transform="translate(-105.017 -129.214)" fill="#ffede5"/>
        <path id="Path_8799" data-name="Path 8799" d="M248.792,258.5s1.008.779,1.4.779,1.352.16,1.215.6-1.146.321-1.146.321l-3.758-.046a4.842,4.842,0,0,1,.39-1.077C247.119,258.683,248.792,258.5,248.792,258.5Z" transform="translate(-203.76 -217.937)" fill="#ffede5"/>
        <path id="Path_8800" data-name="Path 8800" d="M204.777,169.854l-1.9.573s-1.581-2.888-2.635-5.34a25.5,25.5,0,0,1-1.031-2.888,13.155,13.155,0,0,0-1.26-3.048,12.164,12.164,0,0,1-1.879-6.554c-.16.573-.3,1.146-.413,1.673a49.447,49.447,0,0,0-1.008,6.463,6.707,6.707,0,0,0,.344,1.444h0c.183,1.054.435,2.5.435,2.5s-.321.16-.871.367a15.785,15.785,0,0,1-5.156.55l2.5-22.092h.069a16.346,16.346,0,0,1,1.81.435,8.067,8.067,0,0,1,1.031.413c1.558.275,4.4.275,4.927,6.3a25.111,25.111,0,0,1,1.719,7.654,7.7,7.7,0,0,0,.756,3.117,18.662,18.662,0,0,1,.779,1.879C203.952,166.279,204.777,169.854,204.777,169.854Z" transform="translate(-159.745 -129.291)" fill="#ffede5"/>
        <path id="Path_8801" data-name="Path 8801" d="M169.875,162.026a1.957,1.957,0,0,0-.092-.71c-.069-.229-.183-.458-.229-.688a2.863,2.863,0,0,1,.413-1.49c.137-.367-.092-.8-.023-1.192.046-.435.138-.871.206-1.306.115-.825.206-1.65.367-2.475-.023-.023.367-1.742.344-1.765-1.994-2.085-2.315-7.838-2.292-8.617v-.069s-.871-.229-1.81-.367h-.069a7.988,7.988,0,0,0-1.008-.069c-1.169.046-1.879.092-1.879.092l-.023,1.513.023-1.513s-.71-.046-1.879-.092a5.794,5.794,0,0,0-1.077.069c-.115.023-.229.023-.344.046-.046,0-.115.023-.16.023a12.615,12.615,0,0,0-1.306.275v.046c.023.688-.275,6.623-2.338,8.64-.023,0,.458,1.925.458,1.948.16.8.252,1.6.344,2.406a14.171,14.171,0,0,1,.16,1.421,4.018,4.018,0,0,1,0,1.283,2.679,2.679,0,0,0-.3,1.169,3.313,3.313,0,0,0,.206.5,3.379,3.379,0,0,1,.206,2.017c0,.092-.138,1.444-.16,1.444a6.51,6.51,0,0,0,.642.321,9.611,9.611,0,0,0,5.2,1.008,52.726,52.726,0,0,0,5.958-1.031c.55-.206.871-.367.871-.367-.092-.435-.16-.871-.229-1.306a6.572,6.572,0,0,1-.115-.94A.277.277,0,0,1,169.875,162.026Z" transform="translate(-134.537 -129.117)"/>
        <path id="Path_8802" data-name="Path 8802" d="M204.363,298.749s.688,6.646.985,7.586c.848,2.04,2.8,6.829,2.888,17.784a1.037,1.037,0,0,1-1.948.688c-.367-.871-4.01-8.021-4.308-10.175-.229-1.513-.642-3.071-.688-4.308a8.866,8.866,0,0,0-.8-3.415,58.69,58.69,0,0,1-2.59-6.165A8.067,8.067,0,0,1,204.363,298.749Z" transform="translate(-166.298 -248.882)" fill="#ffede5"/>
        <g id="Group_7013" data-name="Group 7013" transform="translate(39.087 73.403)">
          <path id="Path_8803" data-name="Path 8803" d="M233.981,401.8c.046.252.94,5.11,1.4,6.463.481,1.352-2.956.894-2.956.894a22.654,22.654,0,0,0-.55-4.492c-.092-.435-.573-1.971-.573-1.971s1.031-.115,1.467-.206A2.705,2.705,0,0,0,233.981,401.8Z" transform="translate(-231.13 -401.8)" fill="#354687"/>
          <path id="Path_8804" data-name="Path 8804" d="M236.77,425.522a2.2,2.2,0,0,1-1.352-2.2c-.138-1.123-.046-2.59-.871-2.452-1.1.183-1.558.435-1.765,1.558-.275,1.421-.665,0-.665,0s-.115-.344-.275-.206a11.169,11.169,0,0,0-.825,3.14c-.115,1.146-.894,1.765.321,2.452,1.237.665,5.683.413,6.142-.321C237.916,426.759,237.205,425.8,236.77,425.522Z" transform="translate(-230.642 -416.493)" fill="#5764a1"/>
          <path id="Path_8805" data-name="Path 8805" d="M231.233,446.267c-.825-.458-.733-.894-.55-1.467a7.4,7.4,0,0,0,6.783.321,1.04,1.04,0,0,1-.092.825C236.939,446.679,232.47,446.931,231.233,446.267Z" transform="translate(-230.559 -434.946)" fill="#fff"/>
          <g id="Group_7000" data-name="Group 7000" transform="translate(2.643 8.572)">
            <g id="Group_6999" data-name="Group 6999">
              <path id="Path_8806" data-name="Path 8806" d="M244.8,439.411a2.947,2.947,0,0,0-2.658.252c-.115.069,0,.252.115.183a2.643,2.643,0,0,1,2.475-.229.109.109,0,0,0,.069-.206Z" transform="translate(-242.093 -439.206)" fill="#090909"/>
            </g>
          </g>
          <g id="Group_7002" data-name="Group 7002" transform="translate(2.684 8.25)">
            <g id="Group_7001" data-name="Group 7001">
              <path id="Path_8807" data-name="Path 8807" d="M244.683,437.915a.387.387,0,0,0-.321-.092c-.275-.023-.573-.023-.871-.023a1.741,1.741,0,0,0-1.192.481c-.092.092.046.252.16.16a1.658,1.658,0,0,1,1.123-.412c.16,0,.825-.069.94.046.115.092.275-.069.16-.16Z" transform="translate(-242.269 -437.8)" fill="#090909"/>
            </g>
          </g>
          <g id="Group_7004" data-name="Group 7004" transform="translate(2.575 7.864)">
            <g id="Group_7003" data-name="Group 7003">
              <path id="Path_8808" data-name="Path 8808" d="M244.132,436.181a3.194,3.194,0,0,0-2.292.39c-.115.069,0,.252.115.183a2.882,2.882,0,0,1,2.131-.367c.137.023.183-.183.046-.206Z" transform="translate(-241.793 -436.115)" fill="#090909"/>
            </g>
          </g>
          <g id="Group_7006" data-name="Group 7006" transform="translate(2.345 7.426)">
            <g id="Group_7005" data-name="Group 7005">
              <path id="Path_8809" data-name="Path 8809" d="M243.04,434.249a3,3,0,0,0-2.2.481c-.115.069,0,.275.115.183a2.758,2.758,0,0,1,2.017-.481c.137.046.206-.16.069-.183Z" transform="translate(-240.793 -434.204)" fill="#090909"/>
            </g>
          </g>
          <g id="Group_7008" data-name="Group 7008" transform="translate(1.553 7.196)">
            <g id="Group_7007" data-name="Group 7007">
              <path id="Path_8810" data-name="Path 8810" d="M239.664,433.565c.069-.046.16-.069.229-.115a.669.669,0,0,0-.046.206,3.226,3.226,0,0,1,.94,0c.206.046,1.054.252.458.367-.481.092-1.123-.458-1.558-.6a2.137,2.137,0,0,0-2.154.275c-.344.367-.229.8.252.894.894.183,1.49-.481,2.085-1.008.115-.092-.046-.229-.16-.16a3.882,3.882,0,0,1-1.283.917,1.223,1.223,0,0,1-.5.046c-.275-.413-.275-.665.046-.756a1.41,1.41,0,0,1,.756-.16c.917-.023,1.581.665,2.452.733.275.023.825-.023.6-.413-.3-.481-1.467-.435-1.9-.39a.11.11,0,0,0-.046.206.212.212,0,0,0,.344-.206c-.046-.3-.527-.252-.619,0a.243.243,0,0,0,.39.275c.206-.206-.046-.367-.229-.367-.183.046-.183.252-.046.252Z" transform="translate(-237.334 -433.198)" fill="#090909"/>
            </g>
          </g>
          <g id="Group_7010" data-name="Group 7010" transform="translate(3.948 7.437)">
            <g id="Group_7009" data-name="Group 7009">
              <path id="Path_8811" data-name="Path 8811" d="M247.79,434.353a2.211,2.211,0,0,0,1.031,1.879c.115.069.229-.115.115-.183a2.039,2.039,0,0,1-.917-1.7c0-.138-.206-.138-.229,0Z" transform="translate(-247.787 -434.25)" fill="#090909"/>
            </g>
          </g>
          <g id="Group_7012" data-name="Group 7012" transform="translate(2.547 7.481)">
            <g id="Group_7011" data-name="Group 7011">
              <path id="Path_8812" data-name="Path 8812" d="M242.94,434.526a2.782,2.782,0,0,1-1.215,1.948.108.108,0,0,0,.115.183,3.027,3.027,0,0,0,1.329-2.063c.023-.16-.206-.206-.229-.069Z" transform="translate(-241.673 -434.445)" fill="#090909"/>
            </g>
          </g>
          <path id="Path_8813" data-name="Path 8813" d="M233.656,435.848a.373.373,0,0,1,.069.344.34.34,0,0,1-.275.183,1.085,1.085,0,0,1-.39.023c-.046,0-.069,0-.092-.023a.163.163,0,0,1-.069-.137,1.08,1.08,0,0,1,.092-.39c.069-.229.046-.688.183-.848C233.335,435.275,233.5,435.573,233.656,435.848Z" transform="translate(-232.363 -427.392)" fill="#fff"/>
        </g>
        <path id="Path_8814" data-name="Path 8814" d="M137.454,298.749s-.687,6.646-.985,7.586c-.848,2.04-2.8,6.829-2.888,17.784a1.037,1.037,0,0,0,1.948.688c.367-.871,4.01-8.021,4.308-10.175.229-1.513.642-3.071.688-4.308a8.866,8.866,0,0,1,.8-3.415,58.687,58.687,0,0,0,2.59-6.165A8.067,8.067,0,0,0,137.454,298.749Z" transform="translate(-116.714 -248.882)" fill="#ffede5"/>
        <g id="Group_7028" data-name="Group 7028" transform="translate(12.743 73.403)">
          <path id="Path_8815" data-name="Path 8815" d="M128.743,401.8c-.046.252-.94,5.11-1.4,6.463-.481,1.352,2.956.894,2.956.894a22.654,22.654,0,0,1,.55-4.492c.092-.435.573-1.971.573-1.971s-1.031-.115-1.467-.206A2.705,2.705,0,0,1,128.743,401.8Z" transform="translate(-124.619 -401.8)" fill="#354687"/>
          <path id="Path_8816" data-name="Path 8816" d="M116.453,425.522a2.2,2.2,0,0,0,1.352-2.2c.138-1.123.046-2.59.871-2.452,1.1.183,1.558.435,1.765,1.558.275,1.421.665,0,.665,0s.115-.344.275-.206a11.169,11.169,0,0,1,.825,3.14c.115,1.146.894,1.765-.321,2.452-1.238.665-5.683.413-6.142-.321C115.307,426.759,116.017,425.8,116.453,425.522Z" transform="translate(-115.606 -416.493)" fill="#5764a1"/>
          <path id="Path_8817" data-name="Path 8817" d="M121.987,446.267c.825-.458.733-.894.55-1.467a7.4,7.4,0,0,1-6.783.321,1.04,1.04,0,0,0,.092.825C116.28,446.679,120.749,446.931,121.987,446.267Z" transform="translate(-115.686 -434.946)" fill="#fff"/>
          <g id="Group_7015" data-name="Group 7015" transform="translate(1.544 8.572)">
            <g id="Group_7014" data-name="Group 7014">
              <path id="Path_8818" data-name="Path 8818" d="M122.471,439.617a2.7,2.7,0,0,1,2.475.229c.115.069.229-.115.115-.183a2.947,2.947,0,0,0-2.658-.252c-.115.046-.046.252.069.206Z" transform="translate(-122.343 -439.206)" fill="#090909"/>
            </g>
          </g>
          <g id="Group_7017" data-name="Group 7017" transform="translate(1.838 8.213)">
            <g id="Group_7016" data-name="Group 7016">
              <path id="Path_8819" data-name="Path 8819" d="M123.8,437.949c.115-.138.8-.069.94-.046a1.659,1.659,0,0,1,1.123.412c.092.092.252-.046.16-.16a1.741,1.741,0,0,0-1.192-.481c-.275-.023-.963-.115-1.169.115-.115.092.046.252.138.16Z" transform="translate(-123.627 -437.637)" fill="#090909"/>
            </g>
          </g>
          <g id="Group_7019" data-name="Group 7019" transform="translate(1.978 7.864)">
            <g id="Group_7018" data-name="Group 7018">
              <path id="Path_8820" data-name="Path 8820" d="M124.367,436.387a2.882,2.882,0,0,1,2.131.367c.115.069.229-.115.115-.183a3.214,3.214,0,0,0-2.292-.39c-.137.023-.092.229.046.206Z" transform="translate(-124.238 -436.115)" fill="#090909"/>
            </g>
          </g>
          <g id="Group_7021" data-name="Group 7021" transform="translate(2.307 7.446)">
            <g id="Group_7020" data-name="Group 7020">
              <path id="Path_8821" data-name="Path 8821" d="M125.817,434.523a2.634,2.634,0,0,1,2.017.481c.115.069.229-.115.115-.183a2.858,2.858,0,0,0-2.2-.481c-.138,0-.069.206.069.183Z" transform="translate(-125.673 -434.292)" fill="#090909"/>
            </g>
          </g>
          <g id="Group_7023" data-name="Group 7023" transform="translate(0.959 7.25)">
            <g id="Group_7022" data-name="Group 7022">
              <path id="Path_8822" data-name="Path 8822" d="M121.924,433.543c-.206,0-.435.16-.229.367.183.183.458-.046.39-.275-.092-.252-.55-.275-.619,0a.212.212,0,0,0,.344.206.114.114,0,0,0-.046-.206c-.481-.069-1.581-.092-1.9.39-.275.39.321.435.6.412.871-.092,1.513-.756,2.452-.733a1.481,1.481,0,0,1,.619.115c.39.092.458.367.16.825a1.88,1.88,0,0,1-.5-.046,3.162,3.162,0,0,1-1.283-.917c-.115-.092-.252.069-.16.16.6.5,1.192,1.192,2.085,1.008a.49.49,0,0,0,.275-.894,2.153,2.153,0,0,0-2.063-.321c-.5.138-.963.573-1.49.6a.217.217,0,0,1-.3-.046c-.183-.069-.16-.115.046-.138a1.521,1.521,0,0,1,.458-.137,3.242,3.242,0,0,1,1.054-.023.669.669,0,0,1-.046-.206c.069.046.16.069.229.115.069-.046.069-.252-.069-.252Z" transform="translate(-119.791 -433.437)" fill="#090909"/>
            </g>
          </g>
          <g id="Group_7025" data-name="Group 7025" transform="translate(1.83 7.437)">
            <g id="Group_7024" data-name="Group 7024">
              <path id="Path_8823" data-name="Path 8823" d="M124.557,434.353a2.039,2.039,0,0,1-.917,1.7c-.115.069,0,.252.115.183a2.241,2.241,0,0,0,1.031-1.879c-.023-.137-.229-.137-.229,0Z" transform="translate(-123.593 -434.25)" fill="#090909"/>
            </g>
          </g>
          <g id="Group_7027" data-name="Group 7027" transform="translate(2.953 7.475)">
            <g id="Group_7026" data-name="Group 7026">
              <path id="Path_8824" data-name="Path 8824" d="M128.494,434.55a2.978,2.978,0,0,0,1.329,2.063c.115.069.229-.115.115-.183a2.692,2.692,0,0,1-1.215-1.948.122.122,0,0,0-.229.069Z" transform="translate(-128.492 -434.417)" fill="#090909"/>
            </g>
          </g>
          <path id="Path_8825" data-name="Path 8825" d="M140.107,435.848a.372.372,0,0,0-.069.344.34.34,0,0,0,.275.183,1.085,1.085,0,0,0,.39.023c.046,0,.069,0,.092-.023a.163.163,0,0,0,.069-.137,1.079,1.079,0,0,0-.092-.39c-.069-.229-.046-.688-.183-.848C140.428,435.275,140.267,435.573,140.107,435.848Z" transform="translate(-134.425 -427.392)" fill="#fff"/>
        </g>
        <path id="Path_8826" data-name="Path 8826" d="M162.929,235.5s-6.44,2.108-12.6.046c-.825,1.948-2.521,9.442-3.025,17.531,2.246,1.788,3.094,1.375,6.76,1.6.688-1.948,2.177-7.379,2.292-7.792a2.493,2.493,0,0,0,.825.023s1.856,6.738,2.452,7.7c.733-.023,5.5-1.123,6.508-1.925A128.929,128.929,0,0,0,162.929,235.5Z" transform="translate(-127.294 -200.208)" fill="#5764a1"/>
        <g id="Group_7030" data-name="Group 7030" transform="translate(35.129 35.671)">
          <g id="Group_7029" data-name="Group 7029">
            <path id="Path_8827" data-name="Path 8827" d="M213.29,237.231a60.268,60.268,0,0,1,1.856,8.3c.5,2.727.963,5.477,1.49,8.2,0,.023.046.023.046,0-.39-2.8-.94-5.546-1.444-8.319-.252-1.329-.5-2.681-.756-4.01a22.27,22.27,0,0,0-1.054-4.217c-.046-.069-.16-.023-.137.046Z" transform="translate(-213.287 -237.152)" fill="#fff"/>
          </g>
        </g>
        <g id="Group_7032" data-name="Group 7032" transform="translate(20.528 35.985)">
          <g id="Group_7031" data-name="Group 7031">
            <path id="Path_8828" data-name="Path 8828" d="M152.539,238.566c-.435,1.4-.665,2.91-.963,4.331-.3,1.4-.6,2.773-.871,4.171a38.675,38.675,0,0,0-1.123,8.41.046.046,0,1,0,.092,0c.115-1.467.206-2.91.413-4.354.206-1.421.481-2.819.779-4.217.573-2.773,1.169-5.523,1.765-8.3.023-.092-.069-.115-.092-.046Z" transform="translate(-149.578 -238.526)" fill="#fff"/>
          </g>
        </g>
        <g id="Group_7034" data-name="Group 7034" transform="translate(27.577 14.652)">
          <g id="Group_7033" data-name="Group 7033">
            <path id="Path_8829" data-name="Path 8829" d="M185.208,145.472c-.756,1.719-3.323,1.765-4.744,1.054-.092-.046-.183.092-.092.138,1.49.756,4.171.71,4.973-1.1.046-.092-.092-.183-.137-.092Z" transform="translate(-180.334 -145.434)" fill="#fff"/>
          </g>
        </g>
        <g id="Group_7036" data-name="Group 7036" transform="translate(26.46 14.858)">
          <g id="Group_7035" data-name="Group 7035">
            <path id="Path_8830" data-name="Path 8830" d="M176.248,146.991a1.665,1.665,0,0,1-.642-.619c-.046-.092-.183,0-.138.092a1.975,1.975,0,0,0,.688.688c.092.023.183-.115.092-.16Z" transform="translate(-175.46 -146.334)" fill="#fff"/>
          </g>
        </g>
        <g id="Group_7038" data-name="Group 7038" transform="translate(26.263 9.373)">
          <g id="Group_7037" data-name="Group 7037">
            <path id="Path_8831" data-name="Path 8831" d="M180.856,127.327a3.024,3.024,0,0,1-2.04,1.65c-2.8.413-3.8-1.077-4.217-1.719a2.166,2.166,0,0,1,.206-.069c.5-.16.733-1.008.779-1.6.023-.344.046-.848.046-1.375a8.722,8.722,0,0,0-.16-1.81l3.85,1.352c.023.183.046.39.069.573,0,.092.023.183.023.275,0,.183.023.367.023.527a7.275,7.275,0,0,0,.137,1.306,1.29,1.29,0,0,0,.39.6,1.383,1.383,0,0,0,.6.252A.784.784,0,0,0,180.856,127.327Z" transform="translate(-174.6 -122.4)" fill="#ffede5"/>
          </g>
        </g>
        <path id="Path_8832" data-name="Path 8832" d="M117.636,265.975H60.688a.689.689,0,0,1-.688-.687h0a.689.689,0,0,1,.688-.687h56.949a.689.689,0,0,1,.688.688h0A.675.675,0,0,1,117.636,265.975Z" transform="translate(-60 -222.639)" fill="#efc837"/>
        <g id="Group_7049" data-name="Group 7049" transform="translate(11.772 41.988)">
          <path id="Path_8833" data-name="Path 8833" d="M112.577,267.35a.071.071,0,0,0-.046.023c-.023.046-.069.069-.092.115a.48.48,0,0,1-.252.183h-.115a.5.5,0,0,1-.183-.023.6.6,0,0,1-.413-.367,1.735,1.735,0,0,1-.023-.344,4.057,4.057,0,0,1-.023-.527,2.989,2.989,0,0,1,.046-1.008c.115-.435.6.046.71.206a2.33,2.33,0,0,1,.344.94,3.5,3.5,0,0,1,.069.688C112.6,267.258,112.6,267.327,112.577,267.35Z" transform="translate(-111.401 -265.108)" fill="#ffede5"/>
          <path id="Path_8834" data-name="Path 8834" d="M117.648,265.529s.435-.092.5.023a2.122,2.122,0,0,1,.344.962,1.63,1.63,0,0,1-.16.733c-.046.092-.115.183-.206.16-.046,0-.069-.023-.115,0-.023,0-.023.023-.046.046a.586.586,0,0,1-.435.229,1.343,1.343,0,0,1-.527-.023.326.326,0,0,0-.138-.046c-.069,0-.023-.023-.069.023a.778.778,0,0,1-.137.137.455.455,0,0,1-.252.023.96.96,0,0,1-.344-.092c-.069-.023-.206-.16-.275-.16a.824.824,0,0,1-.046-.252.814.814,0,0,1-.046-.229c0-.023.046-.779.046-.779l.092-.481c.046-.092.115-.16.16-.252a.541.541,0,0,1,.206-.183.218.218,0,0,1,.252.092c.046.069.023.137.069.206a.809.809,0,0,1,.39-.344.291.291,0,0,1,.138-.023.234.234,0,0,1,.183.115.387.387,0,0,1,.069.229c.023.069,0,.137.023.206" transform="translate(-114.708 -265.166)" fill="#ffede5"/>
          <g id="Group_7040" data-name="Group 7040" transform="translate(0.991 0.084)">
            <g id="Group_7039" data-name="Group 7039">
              <path id="Path_8835" data-name="Path 8835" d="M115.88,267.377a3.248,3.248,0,0,1-.023-1.329,1.176,1.176,0,0,1,.16-.55.458.458,0,0,1,.39-.275.641.641,0,0,1,.16.6c-.023.069.092.092.115.023.069-.344-.115-1.008-.55-.665a1.2,1.2,0,0,0-.39.894,3.143,3.143,0,0,0,.046,1.306c0,.115.115.069.092,0Z" transform="translate(-115.695 -265.081)" fill="#ffede5"/>
            </g>
          </g>
          <g id="Group_7042" data-name="Group 7042" transform="translate(1.82 0.775)">
            <g id="Group_7041" data-name="Group 7041">
              <path id="Path_8836" data-name="Path 8836" d="M119.333,268.169a2.7,2.7,0,0,0,.252,1.467c.023.069.138.046.115-.023a2.829,2.829,0,0,1-.229-1.444c-.023-.092-.138-.092-.138,0Z" transform="translate(-119.313 -268.1)" fill="#ffede5"/>
            </g>
          </g>
          <g id="Group_7044" data-name="Group 7044" transform="translate(1.883)">
            <g id="Group_7043" data-name="Group 7043">
              <path id="Path_8837" data-name="Path 8837" d="M121.034,266.844c-.183.069-.344-.206-.39-.321a1.74,1.74,0,0,1-.092-.252,2.521,2.521,0,0,1-.092-.71c0-.229,0-.6-.206-.756-.321-.275-.619.16-.665.413-.023.069.092.092.115.023.069-.3.481-.527.6-.115a1.884,1.884,0,0,1,.046.619,2.406,2.406,0,0,0,.183.8c.092.229.3.5.573.39.046-.023,0-.115-.069-.092Z" transform="translate(-119.587 -264.716)" fill="#ffede5"/>
            </g>
          </g>
          <g id="Group_7046" data-name="Group 7046" transform="translate(2.688 0.292)">
            <g id="Group_7045" data-name="Group 7045">
              <path id="Path_8838" data-name="Path 8838" d="M124.131,266.544c-.092-.252-.252-.55-.573-.55-.3-.023-.458.16-.458.481a.058.058,0,0,0,.115,0c0-.16.046-.321.206-.344a.2.2,0,0,1,.16,0c.229.023.344.275.435.481.046.023.16,0,.115-.069Z" transform="translate(-123.1 -265.992)" fill="#ffede5"/>
            </g>
          </g>
          <g id="Group_7048" data-name="Group 7048" transform="translate(0 0.133)">
            <g id="Group_7047" data-name="Group 7047">
              <path id="Path_8839" data-name="Path 8839" d="M112.477,266.282c-.115-.39-.3-.848-.71-.963-.481-.16-.39.527-.39.8a.058.058,0,0,0,.115,0,2.773,2.773,0,0,1,.023-.435v-.115c.069-.046.137-.115.206-.16a.546.546,0,0,1,.252.138,1.418,1.418,0,0,1,.39.756c.023.069.137.046.115-.023Z" transform="translate(-111.37 -265.295)" fill="#ffede5"/>
            </g>
          </g>
        </g>
        <g id="Group_7050" data-name="Group 7050" transform="translate(48.561 34.696)">
          <path id="Path_8840" data-name="Path 8840" d="M272.862,248.713h0a.968.968,0,0,0,.963-.963V233.862a.968.968,0,0,0-.963-.963h0a.968.968,0,0,0-.962.963V247.75A.968.968,0,0,0,272.862,248.713Z" transform="translate(-271.9 -232.9)"/>
          <path id="Path_8841" data-name="Path 8841" d="M281.562,252.373h0a.968.968,0,0,0,.963-.963V240.663a.968.968,0,0,0-.963-.962h0a.968.968,0,0,0-.962.962v10.748A.968.968,0,0,0,281.562,252.373Z" transform="translate(-278.606 -238.142)"/>
          <path id="Path_8842" data-name="Path 8842" d="M290.363,257.735h0a.968.968,0,0,0,.962-.962v-6.21a.968.968,0,0,0-.962-.963h0a.968.968,0,0,0-.963.963v6.21A.94.94,0,0,0,290.363,257.735Z" transform="translate(-285.39 -245.773)"/>
          <path id="Path_8843" data-name="Path 8843" d="M272.412,247.75V233.863a.959.959,0,0,1,.756-.94.635.635,0,0,0-.206-.023.968.968,0,0,0-.962.963V247.75a.968.968,0,0,0,.962.962.635.635,0,0,0,.206-.023A.978.978,0,0,1,272.412,247.75Z" transform="translate(-271.977 -232.9)" fill="#a6a09f" opacity="0.45"/>
          <path id="Path_8844" data-name="Path 8844" d="M281.112,251.411V240.663a.959.959,0,0,1,.756-.94.635.635,0,0,0-.206-.023.968.968,0,0,0-.963.963v10.748a.968.968,0,0,0,.963.963.635.635,0,0,0,.206-.023A.959.959,0,0,1,281.112,251.411Z" transform="translate(-278.683 -238.142)" fill="#a6a09f" opacity="0.45"/>
          <path id="Path_8845" data-name="Path 8845" d="M289.813,256.773v-6.21a.959.959,0,0,1,.756-.94.635.635,0,0,0-.206-.023.968.968,0,0,0-.963.962v6.211a.968.968,0,0,0,.963.962.635.635,0,0,0,.206-.023A.959.959,0,0,1,289.813,256.773Z" transform="translate(-285.39 -245.773)" fill="#a6a09f" opacity="0.45"/>
        </g>
        <g id="Group_7051" data-name="Group 7051" transform="translate(3.827 34.696)">
          <path id="Path_8846" data-name="Path 8846" d="M95.063,248.713h0a.968.968,0,0,1-.963-.963V233.862a.968.968,0,0,1,.963-.963h0a.968.968,0,0,1,.963.963V247.75A.968.968,0,0,1,95.063,248.713Z" transform="translate(-90.112 -232.9)"/>
          <path id="Path_8847" data-name="Path 8847" d="M86.363,252.373h0a.968.968,0,0,1-.963-.963V240.663a.968.968,0,0,1,.963-.962h0a.968.968,0,0,1,.963.962v10.748A.968.968,0,0,1,86.363,252.373Z" transform="translate(-83.406 -238.142)"/>
          <path id="Path_8848" data-name="Path 8848" d="M77.663,257.735h0a.968.968,0,0,1-.963-.962v-6.21a.968.968,0,0,1,.963-.963h0a.968.968,0,0,1,.963.963v6.21A.968.968,0,0,1,77.663,257.735Z" transform="translate(-76.7 -245.773)"/>
          <path id="Path_8849" data-name="Path 8849" d="M98.156,247.75V233.863a.959.959,0,0,0-.756-.94.634.634,0,0,1,.206-.023.968.968,0,0,1,.963.963V247.75a.968.968,0,0,1-.963.962.635.635,0,0,1-.206-.023A.978.978,0,0,0,98.156,247.75Z" transform="translate(-92.656 -232.9)" fill="#a6a09f" opacity="0.45"/>
          <path id="Path_8850" data-name="Path 8850" d="M89.356,251.411V240.663a.959.959,0,0,0-.756-.94.634.634,0,0,1,.206-.023.968.968,0,0,1,.963.963v10.748a.968.968,0,0,1-.963.963.634.634,0,0,1-.206-.023A.959.959,0,0,0,89.356,251.411Z" transform="translate(-85.873 -238.142)" fill="#a6a09f" opacity="0.45"/>
          <path id="Path_8851" data-name="Path 8851" d="M80.656,256.773v-6.21a.959.959,0,0,0-.756-.94.635.635,0,0,1,.206-.023.968.968,0,0,1,.963.962v6.211a.968.968,0,0,1-.963.962.634.634,0,0,1-.206-.023A.959.959,0,0,0,80.656,256.773Z" transform="translate(-79.167 -245.773)" fill="#a6a09f" opacity="0.45"/>
        </g>
        <g id="Group_7062" data-name="Group 7062" transform="translate(42.832 42.008)">
          <path id="Path_8852" data-name="Path 8852" d="M258.223,267.35a.071.071,0,0,1,.046.023c.023.046.069.069.092.115a.48.48,0,0,0,.252.183h.115a.5.5,0,0,0,.183-.023.6.6,0,0,0,.413-.367,1.737,1.737,0,0,0,.023-.344,4.057,4.057,0,0,0,.023-.527,2.989,2.989,0,0,0-.046-1.008c-.115-.435-.6.046-.71.206a2.33,2.33,0,0,0-.344.94,3.5,3.5,0,0,0-.069.688C258.223,267.258,258.2,267.327,258.223,267.35Z" transform="translate(-255.61 -265.128)" fill="#ffede5"/>
          <path id="Path_8853" data-name="Path 8853" d="M247.748,265.529s-.435-.092-.5.023a2.122,2.122,0,0,0-.344.962,1.63,1.63,0,0,0,.16.733c.046.092.115.183.206.16.046,0,.069-.023.115,0,.023,0,.023.023.046.046a.586.586,0,0,0,.435.229,1.343,1.343,0,0,0,.527-.023.326.326,0,0,1,.138-.046c.069,0,.023-.023.069.023a.779.779,0,0,0,.138.137.455.455,0,0,0,.252.023.96.96,0,0,0,.344-.092c.069-.023.206-.16.275-.16a.823.823,0,0,0,.046-.252.814.814,0,0,0,.046-.229c0-.023-.046-.779-.046-.779l-.092-.481c-.046-.092-.115-.16-.16-.252a.541.541,0,0,0-.206-.183.193.193,0,0,0-.252.092c-.046.069-.023.137-.069.206a.809.809,0,0,0-.39-.344.291.291,0,0,0-.138-.023.234.234,0,0,0-.183.115.387.387,0,0,0-.069.229c-.023.069,0,.137-.023.206" transform="translate(-246.9 -265.186)" fill="#ffede5"/>
          <g id="Group_7053" data-name="Group 7053" transform="translate(1.819 0.118)">
            <g id="Group_7052" data-name="Group 7052">
              <path id="Path_8854" data-name="Path 8854" d="M255.746,267.606a3.142,3.142,0,0,0,.046-1.306,1.2,1.2,0,0,0-.39-.894c-.435-.321-.619.321-.55.665a.059.059,0,0,0,.115-.023c-.069-.321.069-.779.435-.481a1.08,1.08,0,0,1,.275.688,3.248,3.248,0,0,1-.023,1.329c-.023.046.069.092.092.023Z" transform="translate(-254.839 -265.319)" fill="#ffede5"/>
            </g>
          </g>
          <g id="Group_7055" data-name="Group 7055" transform="translate(1.601 0.755)">
            <g id="Group_7054" data-name="Group 7054">
              <path id="Path_8855" data-name="Path 8855" d="M254.119,268.169a2.829,2.829,0,0,1-.229,1.444c-.023.069.092.092.115.023a3.2,3.2,0,0,0,.252-1.467c-.023-.092-.137-.092-.137,0Z" transform="translate(-253.887 -268.1)" fill="#ffede5"/>
            </g>
          </g>
          <g id="Group_7057" data-name="Group 7057" transform="translate(0.384)">
            <g id="Group_7056" data-name="Group 7056">
              <path id="Path_8856" data-name="Path 8856" d="M248.6,267.026c.275.115.481-.16.573-.39a2.407,2.407,0,0,0,.183-.8,2.816,2.816,0,0,1,.046-.619c.115-.39.527-.183.6.115.023.069.137.046.115-.023-.069-.275-.344-.687-.665-.413-.3.252-.16,2.315-.779,2.04-.069-.046-.138.046-.069.092Z" transform="translate(-248.576 -264.804)" fill="#ffede5"/>
            </g>
          </g>
          <g id="Group_7059" data-name="Group 7059" transform="translate(0.065 0.228)">
            <g id="Group_7058" data-name="Group 7058">
              <path id="Path_8857" data-name="Path 8857" d="M247.3,266.419a.662.662,0,0,1,.435-.481h.16c.183.046.206.183.206.344a.058.058,0,0,0,.115,0,.428.428,0,0,0-.458-.481c-.3.023-.458.3-.573.55-.023.115.069.137.115.069Z" transform="translate(-247.184 -265.8)" fill="#ffede5"/>
            </g>
          </g>
          <g id="Group_7061" data-name="Group 7061" transform="translate(2.681 0.113)">
            <g id="Group_7060" data-name="Group 7060">
              <path id="Path_8858" data-name="Path 8858" d="M258.715,266.3a1.5,1.5,0,0,1,.39-.756.372.372,0,0,1,.206-.115c.16-.046.252.092.252.229a2.921,2.921,0,0,0,.023.458.058.058,0,0,0,.115,0c0-.275.092-.963-.39-.8a1.34,1.34,0,0,0-.71.963.059.059,0,0,0,.115.023Z" transform="translate(-258.6 -265.296)" fill="#ffede5"/>
            </g>
          </g>
        </g>
        <path id="Path_8859" data-name="Path 8859" d="M170.337,100.154s-.871-.871-1.215.069a1.4,1.4,0,0,0,1.077,1.833s.985,2.91,2.933,3.048c1.031.046,2.223,0,3.369-2.819.573-.183,1.788-1.215,1.031-2.131a.515.515,0,0,0-.458-.206.582.582,0,0,0-.413.275,9.256,9.256,0,0,1,.115-1.765,1.518,1.518,0,0,0-1.558-1.765l-3.988.137a1.067,1.067,0,0,0-1.031,1.146Z" transform="translate(-144.051 -93.211)" fill="#ffede5"/>
        <path id="Path_8860" data-name="Path 8860" d="M172.867,97.367l-.092.344h0c-.115.3-.275.6-.39.871a3.929,3.929,0,0,0-.275,1.627.5.5,0,0,1-.069.115,1.215,1.215,0,0,1-.275-.229c-.115-.092-.275-.092-.367-.138L172.867,97v.046A1.5,1.5,0,0,1,172.867,97.367Z" transform="translate(-145.871 -93.448)" fill="#242723"/>
        <path id="Path_8861" data-name="Path 8861" d="M178.023,85.625a1.719,1.719,0,0,1,.367,1.146,2.939,2.939,0,0,1-.206,1.467.022.022,0,0,1-.023.023h-.023a.594.594,0,0,0-.39.069.468.468,0,0,0-.183.344v-1.26a3.827,3.827,0,0,0-.138-.871,1.606,1.606,0,0,0-.6-.756c-.069-.046-.115-.046-.16-.115a3.793,3.793,0,0,1,.069.733,2.3,2.3,0,0,0,0,.688,3.355,3.355,0,0,0-1.375-1.283,3.978,3.978,0,0,1,.458.94c-.55-.321-1.077-.665-1.6-1.008a7.284,7.284,0,0,1,.321,1.215c-.39-.206-.756-.435-1.146-.642a2.683,2.683,0,0,1-1.352-1.26v.321a1.909,1.909,0,0,1-.092.344c-.115.3-.275.6-.39.871a3.635,3.635,0,0,0-.16,1.65c0,.046-.092.092-.092.138a.174.174,0,0,1-.092-.046,1.215,1.215,0,0,1-.275-.229c-.115-.092-.275-.092-.367-.137-.023,0-.023-.023-.046-.023a1.175,1.175,0,0,1-.138-.5,5.84,5.84,0,0,1-.092-1.26,8.336,8.336,0,0,1,.138-1.7,2.792,2.792,0,0,1,.779-1.421.64.64,0,0,1,.619-.16,1.136,1.136,0,0,1,.8-.71c1.238-.413,2.773-.138,3.965-.688a2.542,2.542,0,0,1-.6.917,1.425,1.425,0,0,1,1.192.275,4.168,4.168,0,0,1,.94.963,5.069,5.069,0,0,1,.344,2.36A3.2,3.2,0,0,1,178.023,85.625Z" transform="translate(-145.023 -81.5)" fill="#242723"/>
        <g id="Group_7068" data-name="Group 7068" transform="translate(26.72 5.838)">
          <path id="Path_8862" data-name="Path 8862" d="M194.188,112.211c-.023.229.069.367.206.39.115,0,.229-.137.252-.344.023-.229-.069-.344-.206-.367C194.326,111.867,194.211,111.982,194.188,112.211Z" transform="translate(-190.154 -110.762)" fill="#242723"/>
          <g id="Group_7064" data-name="Group 7064" transform="translate(0.285)">
            <g id="Group_7063" data-name="Group 7063">
              <path id="Path_8863" data-name="Path 8863" d="M178.06,107.532a.831.831,0,0,1,1.215-.183c.115.069.252-.046.137-.138a1.063,1.063,0,0,0-1.558.229c-.069.092.137.183.206.092Z" transform="translate(-177.84 -106.976)" fill="#242723"/>
            </g>
          </g>
          <g id="Group_7066" data-name="Group 7066" transform="translate(3.514 0.006)">
            <g id="Group_7065" data-name="Group 7065">
              <path id="Path_8864" data-name="Path 8864" d="M193.525,107.484a1.067,1.067,0,0,0-1.558-.252c-.115.069.046.229.138.16a.883.883,0,0,1,.94-.115,3.263,3.263,0,0,1,.275.252c.046.092.275.069.206-.046Z" transform="translate(-191.926 -107.004)" fill="#242723"/>
            </g>
          </g>
          <path id="Path_8865" data-name="Path 8865" d="M181.588,112.167c.023.229.115.367.252.367s.229-.16.206-.39-.115-.344-.252-.344C181.657,111.823,181.565,111.938,181.588,112.167Z" transform="translate(-180.441 -110.695)" fill="#242723"/>
          <path id="Path_8866" data-name="Path 8866" d="M185.911,124.563c-.344,0-.871-.481-.71-.848a.316.316,0,0,1,.069-.092.291.291,0,0,1,.137-.023c.183,0,.367.023.527.023.481,0,.779-.046.779.16A.918.918,0,0,1,185.911,124.563Z" transform="translate(-183.205 -119.79)" fill="#fff"/>
          <g id="Group_7067" data-name="Group 7067" transform="translate(2.765 1.518)">
            <path id="Path_8869" data-name="Path 8869" d="M188.716,113.6a2.454,2.454,0,0,0,.206.619,1.707,1.707,0,0,0,.16.275,1.017,1.017,0,0,0,.183.252l.092.115-.115.046c-.092.046-.206.069-.3.115l-.137.069a.229.229,0,0,0-.115.092c-.023-.069.023-.115.069-.16s.069-.092.115-.115a1.911,1.911,0,0,1,.275-.183l-.023.16a2.426,2.426,0,0,1-.229-.275,1.4,1.4,0,0,1-.16-.321.92.92,0,0,1-.069-.344A.6.6,0,0,1,188.716,113.6Z" transform="translate(-188.661 -113.6)" fill="#242723"/>
          </g>
        </g>
        <g id="Group_7070" data-name="Group 7070" transform="translate(28.004 11.454)">
          <g id="Group_7069" data-name="Group 7069">
            <path id="Path_8870" data-name="Path 8870" d="M182.2,131.553a2.212,2.212,0,0,0,2.819.023.044.044,0,0,0-.023-.069c-.94.344-1.879.665-2.773-.023-.023-.023-.023.046-.023.069Z" transform="translate(-182.2 -131.48)" fill="#d86859"/>
          </g>
        </g>
        <g id="Group_7072" data-name="Group 7072" transform="translate(16.581 30.073)">
          <g id="Group_7071" data-name="Group 7071">
            <path id="Path_8871" data-name="Path 8871" d="M132.364,212.811a1.527,1.527,0,0,0,.435.642c.046.023.069-.023.046-.069a1.913,1.913,0,0,0-.183-.275,2.5,2.5,0,0,1-.183-.344c-.046-.069-.16-.046-.115.046Z" transform="translate(-132.354 -212.726)" fill="#d86859"/>
          </g>
        </g>
        <g id="Group_7074" data-name="Group 7074" transform="translate(18.402 21.369)">
          <g id="Group_7073" data-name="Group 7073">
            <path id="Path_8872" data-name="Path 8872" d="M140.3,174.782a1.806,1.806,0,0,0,.367,1.008c.023.046.069,0,.069-.046-.046-.16-.115-.3-.16-.458l-.137-.481c-.046-.046-.138-.092-.138-.023Z" transform="translate(-140.3 -174.747)" fill="#d86859"/>
          </g>
        </g>
        <g id="Group_7076" data-name="Group 7076" transform="translate(38.806 21.22)">
          <g id="Group_7075" data-name="Group 7075">
            <path id="Path_8873" data-name="Path 8873" d="M230.289,174.118a2.722,2.722,0,0,1-.94,1.1c-.046.023.023.138.069.115a1.81,1.81,0,0,0,1.008-1.123c.023-.069-.092-.16-.137-.092Z" transform="translate(-229.334 -174.094)" fill="#d86859"/>
          </g>
        </g>
        <g id="Group_7078" data-name="Group 7078" transform="translate(39.182 31.819)">
          <g id="Group_7077" data-name="Group 7077">
            <path id="Path_8874" data-name="Path 8874" d="M230.98,220.45a1.224,1.224,0,0,0,.573.39c.046.023.023-.069.023-.092a2.7,2.7,0,0,0-.5-.39c-.069-.046-.115.046-.092.092Z" transform="translate(-230.974 -220.345)" fill="#d86859"/>
          </g>
        </g>
        <g id="Group_7080" data-name="Group 7080" transform="translate(14.85 40.809)">
          <g id="Group_7079" data-name="Group 7079">
            <path id="Path_8875" data-name="Path 8875" d="M125.258,259.785a.651.651,0,0,1-.435-.206c-.023-.023-.023.023-.023.023a.426.426,0,0,0,.5.3c.046-.023,0-.115-.046-.115Z" transform="translate(-124.8 -259.572)" fill="#d86859"/>
          </g>
        </g>
        <g id="Group_7082" data-name="Group 7082" transform="translate(43.038 40.765)">
          <g id="Group_7081" data-name="Group 7081">
            <path id="Path_8876" data-name="Path 8876" d="M247.915,259.613a.152.152,0,0,0-.115.092c0,.046.046.115.092.069.137-.115.3-.229.458-.344.023,0,.023-.069,0-.046a.824.824,0,0,0-.527.3.084.084,0,0,1,.069.023.08.08,0,0,1,.023-.046c.023,0,.023-.046,0-.046Z" transform="translate(-247.8 -259.38)" fill="#d86859"/>
          </g>
        </g>
        <path id="Path_8877" data-name="Path 8877" d="M167.216,218.022a2.2,2.2,0,0,1,1.031.229c.3.183.413.619.137.8a1.1,1.1,0,0,1-.39.115,5.285,5.285,0,0,1-2.865-.481,4.493,4.493,0,0,1-1.26-.894c-.206-.206-1.512-1.375-.115-.733a12.965,12.965,0,0,0,1.65.642A9.666,9.666,0,0,0,167.216,218.022Z" transform="translate(-139.486 -185.847)" fill="#1c1b1b"/>
        <path id="Path_8878" data-name="Path 8878" d="M202.478,210.4a2.561,2.561,0,0,1-.573.252,1.716,1.716,0,0,1-.481.046c-.137,0-.3.023-.344.137a.218.218,0,0,0,.092.229.375.375,0,0,0,.275.046,2.42,2.42,0,0,0,.435-.115,6.115,6.115,0,0,0,1.7-1.031,1.006,1.006,0,0,0,.321-.367c-.206,0-.5.252-.688.367C202.959,210.127,202.707,210.265,202.478,210.4Z" transform="translate(-168.744 -180.243)" fill="#1c1b1b"/>
        <g id="Group_7084" data-name="Group 7084" transform="translate(27.885 45.658)">
          <g id="Group_7083" data-name="Group 7083">
            <path id="Path_8879" data-name="Path 8879" d="M181.685,280.818a2.338,2.338,0,0,0,2.246.94.049.049,0,0,0,.023-.092c-.367-.115-.756-.115-1.123-.229a2.164,2.164,0,0,1-1.031-.688c-.069-.046-.138.023-.115.069Z" transform="translate(-181.68 -280.734)" fill="#fff"/>
          </g>
        </g>
      </g>
    </g>
  </g>
</svg>
