<svg xmlns="http://www.w3.org/2000/svg" width="53.046" height="95.615" viewBox="0 0 53.046 95.615">
  <g id="Coach" transform="translate(-224.998 -110.28)">
    <g id="Group_2531" data-name="Group 2531" transform="translate(253.564 159.027)">
      <path id="Path_1292" data-name="Path 1292" d="M284.019,197.64a71.16,71.16,0,0,1,.96,7.767c.2,3.638-4.486,3.169-4.486,3.169l-4.3-5.229,3.376-4.2Z" transform="translate(-276.19 -197.64)" fill="#fdb171"/>
    </g>
    <g id="Group_2532" data-name="Group 2532" transform="translate(244.056 157.058)">
      <path id="Path_1293" data-name="Path 1293" d="M260.412,194.11a78.078,78.078,0,0,0-1.255,9.285c-.229,4.185,8.141,1.356,8.141,1.356l.692-.993.3-9.034Z" transform="translate(-259.152 -194.11)" fill="#fdb171"/>
    </g>
    <g id="Group_2533" data-name="Group 2533" transform="translate(241.756 125.1)">
      <path id="Path_1294" data-name="Path 1294" d="M257.714,140.763c2.868.564,5.675-1.032,5.731-2.628s.05-1.267.05-1.267l2.963.056v33.759l-5.016,1.59-2.857-3.476s1.763-8.108-.179-10.172-2.645-6.283-3.376-8.638Z" transform="translate(-255.03 -136.84)" fill="#fdb171"/>
    </g>
    <g id="Group_2534" data-name="Group 2534" transform="translate(241.756 125.1)">
      <path id="Path_1295" data-name="Path 1295" d="M257.714,140.763c2.868.564,5.675-1.032,5.731-2.628s.05-1.267.05-1.267l2.963.056v33.759l-5.016,1.59-2.857-3.476s1.763-8.108-.179-10.172-2.645-6.283-3.376-8.638Z" transform="translate(-255.03 -136.84)" fill="#fdb171"/>
    </g>
    <g id="Group_2535" data-name="Group 2535" transform="translate(253.19 125.095)">
      <path id="Path_1296" data-name="Path 1296" d="M286.942,149.982c-.731,2.349-1.428,6.573-3.37,8.638s-.179,10.172-.179,10.172l-1.077,2.355-6.8-.474V136.914l2.957-.056s0-.329.056,1.267,2.154,2.182,4.57,2.628Z" transform="translate(-275.52 -136.83)" fill="#fdb171"/>
    </g>
    <g id="Group_2536" data-name="Group 2536" transform="translate(250.182 125.101)">
      <path id="Path_1297" data-name="Path 1297" d="M274.968,139.095c.2-.24.67-.692,1.172-1.211-.045-1.306-.045-1.016-.045-1.016l-2.957.056-2.963-.056s0-.29-.045,1.016c.5.519.977.971,1.177,1.211.458.547,1.216.335,1.462.324s.363-.028.363-.028.123.011.368.028S274.51,139.642,274.968,139.095Z" transform="translate(-270.13 -136.841)" fill="#f09f5b"/>
    </g>
    <g id="Group_2537" data-name="Group 2537" transform="translate(247.311 111.558)">
      <path id="Path_1298" data-name="Path 1298" d="M275.936,120.243h-.1c.045-.352.089-.692.128-1.027.218-1.7.7-6.646-5.106-6.646s-5.318,4.955-5.1,6.646c.039.335.084.675.128,1.027h-.1c-.887-.664-.96,1.083-.591,1.668a3.563,3.563,0,0,1,.5,1.088c.139.4.363.452.547.407.022.234.045.441.056.608.084.915,2.238,2.751,2.734,3.32.458.536,1.216.329,1.462.318s.363-.022.363-.022.123.006.368.022,1,.218,1.468-.318c.485-.569,2.645-2.405,2.729-3.32.011-.167.039-.374.061-.608.184.045.413-.017.547-.407a3.7,3.7,0,0,1,.5-1.088C276.9,121.32,276.818,119.579,275.936,120.243Z" transform="translate(-264.986 -112.57)" fill="#fdb171"/>
    </g>
    <g id="Group_2538" data-name="Group 2538" transform="translate(247.786 110.28)">
      <path id="Path_1299" data-name="Path 1299" d="M275.38,110.28s.234.664-4.721.664l-.006.006c-.1,0-.212,0-.335.011-4.737.212-4.481,4.81-4.481,4.81l.011-.006a15.645,15.645,0,0,0,.419,3.465l.1-.558a6.422,6.422,0,0,1,.268-1.244c.011-.028.022-.067.039-.106a4.791,4.791,0,0,1,.234-.575c1.289-2.617,4.336-1.769,4.336-1.769s3.052-.854,4.341,1.769a5.19,5.19,0,0,1,.229.564.8.8,0,0,0,.045.123,6.867,6.867,0,0,1,.268,1.233l.095.558c.139-.725.285-1.445.363-2.171v-.011A11.336,11.336,0,0,0,275.38,110.28Z" transform="translate(-265.836 -110.28)" fill="#37120b"/>
    </g>
    <g id="Group_2539" data-name="Group 2539" transform="translate(243.207 163.904)">
      <path id="Path_1300" data-name="Path 1300" d="M258.718,206.38c-.474,3.794-.759,11.456-.257,14.19a8.7,8.7,0,0,1-.474,5.5c-.6,1.791-.413,4.933.307,8.537s1.189,5.212-.591,6.9c0,0,.318,4.849,1.283,3.945a7.38,7.38,0,0,1,2.522-1.841,1.853,1.853,0,0,0,.82-2.623,6.97,6.97,0,0,1-.458-4.157c.279-1.535,2.394-5.256,2.366-7.6s-.742-1.836,0-4.47a84.318,84.318,0,0,0,3.248-17.566Z" transform="translate(-257.63 -206.38)" fill="#fdb171"/>
    </g>
    <g id="Group_2540" data-name="Group 2540" transform="translate(253.307 163.904)">
      <path id="Path_1301" data-name="Path 1301" d="M284.5,206.38c.469,3.794.764,11.456.257,14.19a8.742,8.742,0,0,0,.469,5.5c.6,1.791.407,4.933-.312,8.537s-.156,4.687.335,7.1c.424,2.1-.056,4.659-1.021,3.75a7.38,7.38,0,0,0-2.522-1.841,1.852,1.852,0,0,1-.815-2.623,7.014,7.014,0,0,0,.458-4.157c-.279-1.535-2.394-5.256-2.366-7.6s.742-1.836,0-4.47a84.585,84.585,0,0,1-3.253-17.566Z" transform="translate(-275.73 -206.38)" fill="#fdb171"/>
    </g>
    <g id="Group_2541" data-name="Group 2541" transform="translate(237.571 127.151)">
      <path id="Path_1302" data-name="Path 1302" d="M247.53,147.727s1.663-5.893,6.484-5.893c3.354,0,4.313.547,6.043-1.038s0,4.018,0,4.018l-8.03,5.848Z" transform="translate(-247.53 -140.514)" fill="#fdb171"/>
    </g>
    <g id="Group_2542" data-name="Group 2542" transform="translate(255.512 127.151)">
      <path id="Path_1303" data-name="Path 1303" d="M292.978,147.727s-1.668-5.893-6.49-5.893c-3.354,0-4.313.547-6.038-1.038s0,4.018,0,4.018l8.024,5.848Z" transform="translate(-279.682 -140.514)" fill="#fdb171"/>
    </g>
    <g id="Group_2543" data-name="Group 2543" transform="translate(242.465 128.209)">
      <path id="Path_1304" data-name="Path 1304" d="M267.025,145.038a4.576,4.576,0,0,1-4.269-2.589l-.022-.039a.388.388,0,0,0-.05.033c-.932.352-1.9.167-3.571.184l-.106.045c.8,5.686-2.706,11.869-2.706,11.869v.033a11.533,11.533,0,0,0,2.678,6.512c1.942,2.065.179,10.172.179,10.172l2.857,3.476,5.016-1.59V145.038Z" transform="translate(-256.3 -142.41)" fill="#00265f"/>
    </g>
    <g id="Group_2544" data-name="Group 2544" transform="translate(253.184 128.209)">
      <path id="Path_1305" data-name="Path 1305" d="M275.516,145.038a4.576,4.576,0,0,0,4.269-2.589l.022-.039.05.033c.937.352,1.9.167,3.571.184l.1.045c-.8,5.686,2.712,11.869,2.712,11.869v.033a9.471,9.471,0,0,1-2.678,6.512c-1.947,2.065-.179,10.172-.179,10.172l-2.857,3.476-5.016-1.59V145.038Z" transform="translate(-275.51 -142.41)" fill="#00265f"/>
    </g>
    <g id="Group_2545" data-name="Group 2545" transform="translate(242.861 157.058)">
      <path id="Path_1306" data-name="Path 1306" d="M259.465,194.11a204.847,204.847,0,0,0-2.455,21.517l8.844.569,1.484-11.964v-9.508Z" transform="translate(-257.01 -194.11)" fill="#c90e00"/>
    </g>
    <g id="Group_2546" data-name="Group 2546" transform="translate(253.184 157.058)">
      <path id="Path_1307" data-name="Path 1307" d="M283.389,194.11a204.065,204.065,0,0,1,2.45,21.517l-8.844.569-1.484-11.964v-9.508Z" transform="translate(-275.51 -194.11)" fill="#c90e00"/>
    </g>
    <g id="Group_2547" data-name="Group 2547" transform="translate(258.719 195.209)">
      <path id="Path_1308" data-name="Path 1308" d="M285.92,265.85c-.681-1.786-1.077-3.376,1.758-3.37,2.383,0,1.981,1.674,1.222,3.37Z" transform="translate(-285.428 -262.48)" fill="#c90e00"/>
    </g>
    <g id="Group_2548" data-name="Group 2548" transform="translate(258.236 197.325)">
      <path id="Path_1309" data-name="Path 1309" d="M285.159,266.283s-.586-.206-.525,1.306-.346,3,.3,3.828,2.678,4.034,5.173,3.326,1.562-2.628,1.066-3.448c-.714-1.177-1.7-1.7-1.635-2.879s.418-2.154-.949-2.137S285.159,266.283,285.159,266.283Z" transform="translate(-284.563 -266.273)" fill="#c90e00"/>
    </g>
    <g id="Group_2549" data-name="Group 2549" transform="translate(243.597 195.209)">
      <path id="Path_1310" data-name="Path 1310" d="M261.895,265.85c.681-1.786,1.083-3.376-1.758-3.37-2.383,0-1.981,1.674-1.216,3.37Z" transform="translate(-258.328 -262.48)" fill="#c90e00"/>
    </g>
    <g id="Group_2550" data-name="Group 2550" transform="translate(240.936 197.325)">
      <path id="Path_1311" data-name="Path 1311" d="M260.167,266.283s.586-.206.525,1.306.346,3-.3,3.828-2.684,4.034-5.173,3.326-1.568-2.628-1.066-3.448c.714-1.177,1.691-1.7,1.635-2.879s-.413-2.154.949-2.137S260.167,266.283,260.167,266.283Z" transform="translate(-253.56 -266.273)" fill="#c90e00"/>
    </g>
    <g id="Group_2551" data-name="Group 2551" transform="translate(263.92 129.007)">
      <path id="Path_1312" data-name="Path 1312" d="M294.75,143.84c4.514.921,4.838,5.552,5.435,7.511,0,0,2.991,4.375,2.717,7.053a42.238,42.238,0,0,1,2.757,3.56c.932,1.613,2.148,6.445.949,7.1-1.886,1.032-5.675-1.78-8.42-8.822-.586-1.5-2.74-2.595-3.432-5.413V143.84Z" transform="translate(-294.75 -143.84)" fill="#fdb171"/>
    </g>
    <g id="Group_2552" data-name="Group 2552" transform="translate(230.101 129.007)">
      <path id="Path_1313" data-name="Path 1313" d="M246.5,143.84c-4.509.921-4.832,5.552-5.435,7.511,0,0-2.991,4.375-2.717,7.053a42.238,42.238,0,0,0-2.757,3.56c-.932,1.613-2.148,6.445-.949,7.1,1.886,1.032,5.675-1.78,8.42-8.822.586-1.5,2.74-2.595,3.432-5.413V143.84Z" transform="translate(-234.143 -143.84)" fill="#fdb171"/>
    </g>
    <g id="Group_2553" data-name="Group 2553" transform="translate(270.643 146.634)">
      <path id="Path_1314" data-name="Path 1314" d="M310.979,175.927a3.652,3.652,0,0,0-.363-.5,5.355,5.355,0,0,0-.061.887,7.408,7.408,0,0,1-.413,1.791c-.028-.006-.061-.022-.089-.028-.921-.212-3.3-.251-3.253,1.428v.921c1.819,2.221,3.817,3.32,5.128,2.6C313.127,182.372,311.911,177.539,310.979,175.927Z" transform="translate(-306.799 -175.43)" fill="#f09f5b"/>
    </g>
    <g id="Group_2554" data-name="Group 2554" transform="translate(272.072 150.317)">
      <path id="Path_1315" data-name="Path 1315" d="M312.612,182.13c-.9-.206-3.253-.246-3.208,1.406.011.346,0,2.84,0,3.27s-.357.926.926,1.423,2.143.714,3.354,0,1.713-.932,1.641-2.818A3.648,3.648,0,0,0,312.612,182.13Z" transform="translate(-309.358 -182.03)" fill="#fdb171"/>
    </g>
    <g id="Group_2555" data-name="Group 2555" transform="translate(275.326 146.827)">
      <path id="Path_1316" data-name="Path 1316" d="M315.19,179.913c0-.552.5-1.5.5-2.288s.073-1.9,1-1.847.569,1.434.569,2.065.352,3.555.352,3.555Z" transform="translate(-315.19 -175.776)" fill="#fdb171"/>
    </g>
    <g id="Group_2560" data-name="Group 2560" transform="translate(224.998 144.195)">
      <g id="Group_2556" data-name="Group 2556" transform="translate(0.322 0)">
        <path id="Path_1317" data-name="Path 1317" d="M227.269,172.388a.754.754,0,0,1-.513.926h0a.754.754,0,0,1-.926-.513l-.223-.787a.746.746,0,0,1,.508-.926h0a.754.754,0,0,1,.926.513Z" transform="translate(-225.575 -171.059)" fill="#ab0c00"/>
      </g>
      <g id="Group_2557" data-name="Group 2557" transform="translate(0.277 0.583)">
        <path id="Path_1318" data-name="Path 1318" d="M231.77,176.566a1.648,1.648,0,0,1-1.127,2.037l-2.109.6a1.643,1.643,0,0,1-2.037-1.127l-.937-3.27a1.646,1.646,0,0,1,1.133-2.037l2.109-.6a1.648,1.648,0,0,1,2.037,1.127Z" transform="translate(-225.495 -172.105)" fill="#c90e00"/>
      </g>
      <g id="Group_2558" data-name="Group 2558" transform="translate(0.586 2.845)">
        <path id="Path_1319" data-name="Path 1319" d="M233.789,185.2a1.611,1.611,0,0,1-1.155,1.953l-1.758.5a1.6,1.6,0,0,1-2.009-1.043l-2.762-7.634a1.608,1.608,0,0,1,1.155-1.953l2.812-.8a1.594,1.594,0,0,1,2.009,1.043Z" transform="translate(-226.048 -176.158)" fill="#00265f"/>
      </g>
      <g id="Group_2559" data-name="Group 2559" transform="translate(0 2.064)">
        <path id="Path_1320" data-name="Path 1320" d="M231.734,175.719a1.328,1.328,0,0,1-.91,1.641l-4.135,1.183a1.328,1.328,0,0,1-1.641-.91h0a1.328,1.328,0,0,1,.91-1.641l4.135-1.183a1.328,1.328,0,0,1,1.641.91Z" transform="translate(-224.998 -174.758)" fill="#ab0c00"/>
      </g>
    </g>
    <g id="Group_2561" data-name="Group 2561" transform="translate(225.641 151.055)">
      <path id="Path_1321" data-name="Path 1321" d="M228.957,183.847a.743.743,0,0,1-.452.954l-1.362.485a.74.74,0,0,1-.949-.452h0a.743.743,0,0,1,.452-.954l1.362-.485a.744.744,0,0,1,.949.452Z" transform="translate(-226.151 -183.352)" fill="#f09f5b"/>
    </g>
    <g id="Group_2562" data-name="Group 2562" transform="translate(230.482 149.789)">
      <path id="Path_1322" data-name="Path 1322" d="M237.21,181.355a.781.781,0,0,1-.006,1.1l-1.06.977a.775.775,0,0,1-1.094-.089h0a.781.781,0,0,1,0-1.1l1.06-.977a.792.792,0,0,1,1.1.089Z" transform="translate(-234.825 -181.084)" fill="#f09f5b"/>
    </g>
    <g id="Group_2563" data-name="Group 2563" transform="translate(226.133 152.285)">
      <path id="Path_1323" data-name="Path 1323" d="M230.184,186.111a.839.839,0,0,1-.508,1.071l-1.523.547a.839.839,0,0,1-1.071-.508h0a.839.839,0,0,1,.508-1.071l1.523-.541a.83.83,0,0,1,1.071.5Z" transform="translate(-227.032 -185.557)" fill="#f09f5b"/>
    </g>
    <g id="Group_2564" data-name="Group 2564" transform="translate(226.64 153.867)">
      <path id="Path_1324" data-name="Path 1324" d="M230.747,188.887a.746.746,0,0,1-.452.954l-1.356.485a.75.75,0,0,1-.954-.452h0a.746.746,0,0,1,.452-.954l1.356-.485a.746.746,0,0,1,.954.452Z" transform="translate(-227.941 -188.392)" fill="#f09f5b"/>
    </g>
    <g id="Group_2565" data-name="Group 2565" transform="translate(227.111 155.347)">
      <path id="Path_1325" data-name="Path 1325" d="M231.165,191.466a.627.627,0,0,1-.379.809l-1.155.413a.634.634,0,0,1-.809-.385h0a.634.634,0,0,1,.385-.809l1.155-.413a.63.63,0,0,1,.8.385Z" transform="translate(-228.784 -191.044)" fill="#f09f5b"/>
    </g>
    <g id="Group_2566" data-name="Group 2566" transform="translate(247.143 126.54)">
      <path id="Path_1326" data-name="Path 1326" d="M270.731,156.266c-.056-.067-5.519-6.674-6.021-12.271a4.046,4.046,0,0,1,2.985-4.576l.061.3a3.7,3.7,0,0,0-2.745,4.252c.5,5.5,5.9,12.036,5.96,12.1Z" transform="translate(-264.684 -139.42)" fill="#8f8f8f"/>
    </g>
    <g id="Group_2567" data-name="Group 2567" transform="translate(253.19 126.245)">
      <path id="Path_1327" data-name="Path 1327" d="M275.754,156.032l-.234-.2c.056-.067,5.457-6.6,5.96-12.1a4.291,4.291,0,0,0-2.985-4.553l.084-.29a4.592,4.592,0,0,1,3.2,4.866C281.267,149.358,275.8,155.965,275.754,156.032Z" transform="translate(-275.52 -138.89)" fill="#8f8f8f"/>
    </g>
    <g id="Group_2576" data-name="Group 2576" transform="translate(250.497 139.447)">
      <g id="Group_2568" data-name="Group 2568" transform="translate(2.363 0.469)">
        <rect id="Rectangle_149" data-name="Rectangle 149" width="0.815" height="1.01" fill="#c7c7c7"/>
      </g>
      <g id="Group_2569" data-name="Group 2569" transform="translate(1.889 0)">
        <path id="Path_1328" data-name="Path 1328" d="M275.821,162.924a.38.38,0,0,1-.379.379h-.982a.38.38,0,0,1-.379-.379h0a.379.379,0,0,1,.379-.374h.982a.368.368,0,0,1,.379.374Z" transform="translate(-274.08 -162.55)" fill="#8f8f8f"/>
      </g>
      <g id="Group_2570" data-name="Group 2570" transform="translate(0.405 1.122)">
        <path id="Path_1329" data-name="Path 1329" d="M272.408,165.168l-.485.407-.5-.608.48-.407Z" transform="translate(-271.42 -164.56)" fill="#c7c7c7"/>
      </g>
      <g id="Group_2571" data-name="Group 2571" transform="translate(0 0.735)">
        <path id="Path_1330" data-name="Path 1330" d="M271.808,163.969a.288.288,0,0,1-.039.413l-.591.491a.292.292,0,0,1-.413-.033h0a.292.292,0,0,1,.033-.413l.586-.491a.31.31,0,0,1,.424.033Z" transform="translate(-270.694 -163.868)" fill="#c90e00"/>
      </g>
      <g id="Group_2572" data-name="Group 2572" transform="translate(4.222 1.122)">
        <path id="Path_1331" data-name="Path 1331" d="M278.26,165.168l.485.407.5-.608-.48-.407Z" transform="translate(-278.26 -164.56)" fill="#c7c7c7"/>
      </g>
      <g id="Group_2573" data-name="Group 2573" transform="translate(4.435 0.735)">
        <path id="Path_1332" data-name="Path 1332" d="M278.708,163.969a.3.3,0,0,0,.039.413l.586.491a.292.292,0,0,0,.413-.033h0a.292.292,0,0,0-.033-.413l-.591-.491a.3.3,0,0,0-.413.033Z" transform="translate(-278.643 -163.868)" fill="#90b8eb"/>
      </g>
      <g id="Group_2574" data-name="Group 2574" transform="translate(0.098 1.133)">
        <circle id="Ellipse_52" data-name="Ellipse 52" cx="2.712" cy="2.712" r="2.712" fill="#8f8f8f"/>
      </g>
      <g id="Group_2575" data-name="Group 2575" transform="translate(0.416 1.451)">
        <circle id="Ellipse_53" data-name="Ellipse 53" cx="2.394" cy="2.394" r="2.394" fill="#c7c7c7"/>
      </g>
    </g>
  </g>
</svg>
