<svg xmlns="http://www.w3.org/2000/svg" width="277.555" height="302.996" viewBox="0 0 277.555 302.996">
  <g id="Group" transform="translate(-49 -102.005)">
    <g id="Group-2" data-name="Group">
      <g id="Group-3" data-name="Group">
        <path id="Vector" d="M38.794,139.516c9.041-30.739-.222-96.99,60.985-128.451s83.56,7.518,81.674,74.574c-1.886,67.083,99.562,32.626,87.831,106.617S198.093,292.77,125.1,292.77c-200.815,0-103.888-93.605-86.305-153.253Z" transform="translate(56.327 102.005)" fill="#f06400"/>
      </g>
      <g id="Group-4" data-name="Group">
        <path id="Vector-2" data-name="Vector" d="M68.634,14.339c0,7.919-15.364,14.339-34.317,14.339S0,22.258,0,14.339,15.364,0,34.317,0,68.634,6.42,68.634,14.339Z" transform="matrix(0.339, -0.941, 0.941, 0.339, 49, 270.469)" fill="#f06400"/>
      </g>
      <g id="Group-5" data-name="Group">
        <path id="Vector-3" data-name="Vector" d="M45.933,31.234c0,17.25-10.282,31.234-22.967,31.234S0,48.484,0,31.234,10.282,0,22.967,0,45.933,13.984,45.933,31.234Z" transform="matrix(0.753, -0.658, 0.658, 0.753, 242.387, 180.443)" fill="#f06400"/>
      </g>
    </g>
    <g id="man_2_" transform="translate(43.758 -1)">
      <g id="head_1_">
        <g id="Group-6" data-name="Group">
          <path id="Vector-4" data-name="Vector" d="M22.63,0l2.33,12.873a4.988,4.988,0,0,0,3.078,3.745L33.2,18.643A27.72,27.72,0,0,1,16.862,29.075C5.963,31.35,0,21.473,0,21.473l4.6-3.44a3.779,3.779,0,0,0,1.5-3.274L5.269,2.8Z" transform="translate(136.222 144.614)" fill="#ffede5"/>
        </g>
        <g id="Group-7" data-name="Group">
          <path id="Vector-5" data-name="Vector" d="M0,2.774,17.333,0C13.672,19.476.61,11.763.61,11.763Z" transform="translate(141.519 144.614)" fill="#df845c"/>
        </g>
        <g id="Group-8" data-name="Group">
          <path id="Vector-6" data-name="Vector" d="M7.768,2.219c0,1.225-1.739,2.219-3.884,2.219S0,3.444,0,2.219,1.739,0,3.884,0,7.768.993,7.768,2.219Z" transform="matrix(0.23, -0.973, 0.973, 0.23, 157.395, 143.288)" fill="#ffede5"/>
        </g>
        <g id="Group-9" data-name="Group">
          <path id="Vector-7" data-name="Vector" d="M4.438,3.884c0,2.145-.993,3.884-2.219,3.884S0,6.029,0,3.884.993,0,2.219,0,4.438,1.739,4.438,3.884Z" transform="matrix(0.866, -0.5, 0.5, 0.866, 133.915, 140.58)" fill="#df845c"/>
        </g>
        <g id="Group-10" data-name="Group">
          <path id="Vector-8" data-name="Vector" d="M.289,2.425A.25.25,0,0,1,.15,2.4a.256.256,0,0,1-.111-.361L1.01.15A.256.256,0,0,1,1.37.039.256.256,0,0,1,1.481.4L.511,2.286a.22.22,0,0,1-.222.139Z" transform="translate(159.451 138.749)" fill="#472938"/>
        </g>
        <g id="Group-11" data-name="Group">
          <path id="Vector-9" data-name="Vector" d="M2.167,2.307a.3.3,0,0,1-.194-.083L.087.475A.3.3,0,0,1,.059.087.3.3,0,0,1,.448.059L2.333,1.807a.3.3,0,0,1,.028.388.24.24,0,0,1-.194.111Z" transform="translate(136.689 141.475)" fill="#472938"/>
        </g>
        <g id="Group-12" data-name="Group">
          <path id="Vector-10" data-name="Vector" d="M23.221,1.191c2.746,2.858,2.579,18.532,1.941,21.5-.666,2.969-4.992,7.546-5.8,8.24s-4.326,1.054-5.214.916-6.129-2.386-7.821-4.8C4.612,24.606.063,7.683.063,7.683-1.323.664,20.447-1.666,23.221,1.191Z" transform="translate(134.688 124.058)" fill="#ffede5"/>
        </g>
        <g id="Group-13" data-name="Group">
          <path id="Vector-11" data-name="Vector" d="M3.569,8.841A7.674,7.674,0,0,1,1.489,8.4c-.222-.111-.25-.111-.166-4.994V2.738A15.942,15.942,0,0,0,.047.435.273.273,0,0,1,.13.047.273.273,0,0,1,.518.13,11.55,11.55,0,0,1,1.9,2.71v.666c-.028,1-.055,3.856-.028,4.522a6.517,6.517,0,0,0,1.747.333A2.794,2.794,0,0,0,4.9,7.454a.275.275,0,0,1,.388.388,3.309,3.309,0,0,1-1.636.943c-.028.055-.055.055-.083.055Z" transform="translate(145.438 134.94)" fill="#472938"/>
        </g>
        <g id="Group-14" data-name="Group">
          <path id="Vector-12" data-name="Vector" d="M0,1.054,7.71,0S7.127,3.551,4.382,4.161,0,1.054,0,1.054Z" transform="translate(145.568 145.668)" fill="#fff"/>
        </g>
        <g id="Group-15" data-name="Group">
          <path id="Vector-13" data-name="Vector" d="M1,2.336a.846.846,0,0,1-.943-.749L.006.949A.846.846,0,0,1,.755.006.846.846,0,0,1,1.7.755l.055.638A.827.827,0,0,1,1,2.336Z" transform="translate(152.218 134.51)" fill="#472938"/>
        </g>
        <g id="Group-16" data-name="Group">
          <path id="Vector-14" data-name="Vector" d="M1.123,2.344a.854.854,0,0,1-1-.694L.014,1.012a.855.855,0,0,1,.693-1,.854.854,0,0,1,1,.694l.111.638a.855.855,0,0,1-.693,1Z" transform="translate(141.311 136.444)" fill="#472938"/>
        </g>
        <g id="Group-17" data-name="Group">
          <path id="Vector-15" data-name="Vector" d="M.059.918C.281.391,1.7.086,3.887,0A2.305,2.305,0,0,1,6.438,1.667C4.3.419.309,1.834.309,1.834A.827.827,0,0,1,.059.918Z" transform="translate(150.029 131.1)" fill="#472938"/>
        </g>
        <g id="Group-18" data-name="Group">
          <path id="Vector-16" data-name="Vector" d="M5.963,1.25S1.748.861,0,2.609A2.3,2.3,0,0,1,2.053.362c2.135-.444,3.578-.5,3.91-.055a.794.794,0,0,1,0,.943Z" transform="translate(138.44 132.767)" fill="#472938"/>
        </g>
        <g id="Group-19" data-name="Group">
          <path id="Vector-17" data-name="Vector" d="M4.271,24.117S.887,16.127.86,14.545a9.689,9.689,0,0,1,.388-2.858L0,10.106C3.106,9.662,5.935-1.518,16.612.174S27.761,10.467,27.761,10.467a10.681,10.681,0,0,1,1.664,1.221c.194.305,0,9.128,0,9.128l-.832.86-3.467-9.46s-3.467-2.83-8.459,2.219A15.38,15.38,0,0,1,5.047,18.79l.8,6.991Z" transform="translate(131.59 115.365)" fill="#3b2645"/>
        </g>
      </g>
      <g id="R_arm_1_">
        <g id="Group-20" data-name="Group">
          <path id="Vector-18" data-name="Vector" d="M45.577,35.579c-2.94,5.715-12.064,18.033-15.364,19.115S23.39,54.5,19.591,49.922,7.028,25.175,6.251,24.648,1.759,22.234.982,21.374.095,12.857.095,12.857s-.333-2.275.25-3.135S5.614,7.7,5.614,7.7a39.583,39.583,0,0,1,.638-5.16C6.751.123,9.663-.21,9.857.1S9.69,3.369,9.524,5.477s1.165,3.69,1.525,5.188.055,7.629.61,9.377c.527,1.72,15.78,15.73,15.78,15.73.693-11.208,6.933-20.585,6.933-20.585C34.1,2.065,40.391.261,40.391.261c7.044.666,8.126,29.6,5.186,35.317Z" transform="translate(82.242 170.431)" fill="#ffede5"/>
        </g>
        <g id="Group-21" data-name="Group">
          <path id="Vector-19" data-name="Vector" d="M6.573,16.767A80.451,80.451,0,0,1,0,26.782C6.906,16.3,2.441.149,2.441.149A13.082,13.082,0,0,1,7.987.481C8.348,7.473,7.821,14.3,6.573,16.767Z" transform="translate(121.218 189.271)" fill="#df845c"/>
        </g>
        <g id="Group-22" data-name="Group">
          <path id="Vector-20" data-name="Vector" d="M.111,0l2.5,3.107L0,1.193Z" transform="translate(109.653 205.011)" fill="#df845c"/>
        </g>
        <g id="Group-23" data-name="Group">
          <path id="Vector-21" data-name="Vector" d="M6.517.166c.416.111,1.525,4.8,1.331,6.575S6.6,11.957,6.018,12.207,0,11.957,0,11.957s4.548.111,5.463-.583c.887-.666.5-10.459.25-10.737S.721,0,.721,0s5.38.055,5.8.166Z" transform="translate(83.806 180.014)" fill="#df845c"/>
        </g>
      </g>
      <g id="legs_1_">
        <g id="Group-24" data-name="Group">
          <g id="Group-25" data-name="Group">
            <path id="Vector-22" data-name="Vector" d="M15.2,75.878c-.055-.388-.083-.777-.139-1.137-.361-2.774-9.485-37.4-9.707-44.833C5.158,22.472.61,5.438,0,3.5L25.071,0s-1.414,18.116-.8,22.028A290.874,290.874,0,0,1,26.208,51.3c.111,8.3-.527,17.256-.721,23.36-3.578,1.72-7.987,1.5-10.289,1.221Z" transform="translate(157.41 301.89)" fill="#ffede5"/>
          </g>
          <g id="Group-26" data-name="Group">
            <path id="Vector-23" data-name="Vector" d="M.055,8.073A35.4,35.4,0,0,0,0,1.221C2.274,1.5,6.684,1.72,10.261,0a40.054,40.054,0,0,0,.111,6.1S8.847,4.439,5.519,5.16A3.532,3.532,0,0,0,2.468,8.85S.416,9.017.055,8.073Z" transform="translate(172.663 376.547)" fill="#fff"/>
          </g>
          <g id="Group-27" data-name="Group">
            <path id="Vector-24" data-name="Vector" d="M.026,1.443C.054,1.082.137.583.193,0A8.267,8.267,0,0,0,2.578,2.025c1.664.943,2.468,4.356,5.8,5.16,2.607.638,9.124.139,11.9-.111a8.736,8.736,0,0,1-.083,1.554,1.353,1.353,0,0,1-1.165,1.11c-2.191.25-7.793.749-11.481-.111C3.1,8.6,4.131,4.439.581,2.58A.992.992,0,0,1,.026,1.443Z" transform="translate(171.056 395.468)" fill="#3b2645"/>
          </g>
          <g id="Group-28" data-name="Group">
            <path id="Vector-25" data-name="Vector" d="M20.079,17.95c-2.773.25-9.291.749-11.9.111-3.328-.8-4.1-4.217-5.8-5.16A8.727,8.727,0,0,1,0,10.875C.333,7.99.943,3.135,1.276,1.359,1.359.943,1.414.472,1.47,0,1.858.943,3.91.8,3.91.8S7.238,9.627,8.1,9.849s7.516,1.193,8.1-.888a36.266,36.266,0,0,0,2.635,5.271,7.314,7.314,0,0,1,1.248,3.718Z" transform="translate(171.249 384.592)" fill="#ab8da8"/>
          </g>
          <g id="Group-29" data-name="Group">
            <path id="Vector-26" data-name="Vector" d="M.006,3.871A3.532,3.532,0,0,1,3.056.181c3.328-.721,4.853.943,4.853.943s2.3,6.076,4.41,10.9c-.582,2.081-7.238,1.11-8.1.888C3.361,12.721.006,3.871.006,3.871Z" transform="translate(175.098 381.526)" fill="#3b2645"/>
          </g>
          <g id="Group-30" data-name="Group">
            <path id="Vector-27" data-name="Vector" d="M9.651,1.193c0,.659-2.16,1.193-4.826,1.193S0,1.852,0,1.193,2.16,0,4.826,0,9.651.534,9.651,1.193Z" transform="matrix(0.988, -0.154, 0.154, 0.988, 168.703, 323.173)" fill="#e0855c"/>
          </g>
        </g>
        <g id="Group-31" data-name="Group">
          <g id="Group-32" data-name="Group">
            <path id="Vector-28" data-name="Vector" d="M0,77.856c.028-6.131.361-15.037.749-23.332.693-14.732,3.91-27.688,3.91-29.269,0-6.27.721-25.718,1.109-25.246L28.981,5.64c-.666,1.914-7.016,18.005-7.488,25.44S10.871,75.553,10.4,78.3c-.055.361-.111.721-.166,1.137-2.3.166-6.711.25-10.233-1.581Z" transform="translate(111.844 299.163)" fill="#ffede5"/>
          </g>
          <g id="Group-33" data-name="Group">
            <path id="Vector-29" data-name="Vector" d="M7.793,9.128a3.526,3.526,0,0,0-2.912-3.8C1.581,4.494,0,6.1,0,6.1A37.547,37.547,0,0,0,.333,0C3.855,1.831,8.264,1.748,10.566,1.554a35.445,35.445,0,0,0-.277,6.853c-.471.943-2.5.721-2.5.721Z" transform="translate(111.512 376.991)" fill="#fff"/>
          </g>
          <g id="Group-34" data-name="Group">
            <path id="Vector-30" data-name="Vector" d="M19.832,2.58c-3.633,1.748-2.718,5.937-7.183,6.8C8.933,10.1,3.358,9.433,1.167,9.1A1.3,1.3,0,0,1,.058,7.935,7.044,7.044,0,0,1,.03,6.381c2.773.333,9.263,1.054,11.9.527C15.283,6.214,16.2,2.83,17.89,1.942A8.583,8.583,0,0,0,20.359,0c.055.583.083,1.082.111,1.47a1.1,1.1,0,0,1-.638,1.11Z" transform="translate(102.524 396.3)" fill="#3b2645"/>
          </g>
          <g id="Group-35" data-name="Group">
            <path id="Vector-31" data-name="Vector" d="M1.359,13.65A36.468,36.468,0,0,0,4.188,8.462c.527,2.108,7.183,1.359,8.07,1.165S16.751.721,16.751.721,18.775.943,19.219,0c.028.472.083.943.139,1.359.277,1.8.721,6.658.971,9.544a8.582,8.582,0,0,1-2.468,1.942c-1.719.888-2.607,4.245-5.963,4.966-2.607.555-9.124-.166-11.9-.527A6.961,6.961,0,0,1,1.359,13.65Z" transform="translate(102.554 385.397)" fill="#ab8da8"/>
          </g>
          <g id="Group-36" data-name="Group">
            <path id="Vector-32" data-name="Vector" d="M8.07,12.945C7.183,13.14.527,13.889,0,11.78,2.274,7.008,4.77,1.016,4.77,1.016S6.351-.593,9.651.239a3.525,3.525,0,0,1,2.912,3.8S8.958,12.751,8.07,12.945Z" transform="translate(106.714 382.078)" fill="#3b2645"/>
          </g>
          <g id="Group-37" data-name="Group">
            <path id="Vector-33" data-name="Vector" d="M2.386,4.826c0,2.665-.534,4.826-1.193,4.826S0,7.491,0,4.826.534,0,1.193,0,2.386,2.161,2.386,4.826Z" transform="matrix(0.187, -0.982, 0.982, 0.187, 117.872, 326.156)" fill="#e0855c"/>
          </g>
        </g>
      </g>
      <g id="short_2_">
        <g id="Group-38" data-name="Group">
          <path id="Vector-34" data-name="Vector" d="M63.259,10.011S67.918,39.53,66.31,62.89c0,0-9.013,6.742-30.063,2.719L33,47.048,27.678,65.719S5.852,67.023,0,58.562c0,0,3.134-35.012,9.762-49.161s51.334-10.986,53.5.61Z" transform="translate(116.171 239)" fill="#3b2645"/>
        </g>
        <g id="Group-39" data-name="Group">
          <path id="Vector-35" data-name="Vector" d="M2.662,22.5,0,0S2.413,9.544,2.69,9.766,5.574,12.29,5.574,12.29Z" transform="translate(143.599 273.758)" fill="#3b2645"/>
        </g>
        <g id="Group-40" data-name="Group">
          <path id="Vector-36" data-name="Vector" d="M8.272,4.117C3.585,4.117.2,3.756.118,3.756A.122.122,0,0,1,.007,3.59a.122.122,0,0,1,.166-.111c.194.028,18.8,2,29.647-3.468a.184.184,0,0,1,.194.055.184.184,0,0,1-.055.194C23.608,3.451,14.706,4.117,8.272,4.117Z" transform="translate(152.827 298.273)" fill="#fff"/>
        </g>
        <g id="Group-41" data-name="Group">
          <path id="Vector-37" data-name="Vector" d="M28.346,7.632h0C8.156,5.94.141.308.058.252A.137.137,0,0,1,.03.058.137.137,0,0,1,.224.03C.308.086,8.267,5.662,28.373,7.354a.149.149,0,0,1,.139.139c-.055.083-.111.139-.166.139Z" transform="translate(116.362 294.203)" fill="#fff"/>
        </g>
      </g>
      <g id="body_1_">
        <g id="Group-42" data-name="Group">
          <path id="Vector-38" data-name="Vector" d="M60.014,5.826C58.85,14.149,62.982,35.04,62.982,35.04S58.1,50.992,56.8,56.957s0,30.185,0,30.185S43.68,94.1,37.273,94.382,3.3,86.559,3.3,86.559,9.069,57.65,8.847,55.792s-3.688-9.738-3.688-11.6S1.026,27.577,1.026,27.577C2.829,18.893,0,8.85,0,8.85l15.614-6.1s3.8,7.1,13.589,6.464S43.264,0,43.264,0Z" transform="translate(122.632 161.87)" fill="#ab8da8"/>
        </g>
        <g id="Group-43" data-name="Group">
          <path id="Vector-39" data-name="Vector" d="M3.189,30.24a.27.27,0,0,1-.277-.222C.471,20.031,0,.472,0,.277A.262.262,0,0,1,.277,0,.262.262,0,0,1,.555.277c0,.194.471,19.7,2.912,29.63a.285.285,0,0,1-.194.333H3.189Z" transform="translate(179.263 166.337)" fill="#472938"/>
        </g>
        <g id="Group-44" data-name="Group">
          <path id="Vector-40" data-name="Vector" d="M.292,23.476A.514.514,0,0,1,.1,23.421a.27.27,0,0,1-.028-.388C4.952,17.511.459.5.4.338A.285.285,0,0,1,.6.005.285.285,0,0,1,.93.2c.194.721,4.6,17.45-.471,23.193a.2.2,0,0,1-.166.083Z" transform="translate(124.281 169.522)" fill="#472938"/>
        </g>
        <g id="Group-45" data-name="Group">
          <path id="Vector-41" data-name="Vector" d="M14.821,8.889C5.114,8.889.095.566.039.455A.281.281,0,0,1,.15.067.281.281,0,0,1,.538.178c.055.083,5.3,8.795,15.42,8.1A19.807,19.807,0,0,0,30.074.7c.5-.61.638-.749.86-.694a.3.3,0,0,1,.222.222.246.246,0,0,1-.194.333h-.055c-.083.083-.25.305-.416.5a20.38,20.38,0,0,1-14.5,7.768,8.188,8.188,0,0,1-1.165.055Z" transform="translate(135.517 165.216)" fill="#472938"/>
        </g>
      </g>
      <g id="L_arm_1_">
        <g id="Group-46" data-name="Group">
          <path id="Vector-42" data-name="Vector" d="M14.635,0s10.095-.555,12.23,15.37c0,0,10.372,19.7,11.565,26s-.943,15.176-3.55,19.725-11.287,19.254-12.868,21.5-1.331,2.83-5.463,3.135a34.16,34.16,0,0,0-3.661.832c-.61.277-4.3,2.247-5.047,1.97-.749-.25-1.47-1.248-1.331-1.443.166-.222,4.021-2.3,4.021-2.3S4.318,85.84,3.736,85.812,2.294,84.48,2.294,84.48.269,83.565.02,82.843s1.969-2.164,1.969-2.164a3.675,3.675,0,0,1-1.8-1.026c-.471-.694,7.765-5.1,8.764-5.049s7.765.916,7.765.916S25.7,46.611,25.784,44.808s-7.127-9.322-8.237-15.592C17.6,29.216,12.971,7.41,14.635,0Z" transform="translate(168.012 167.694)" fill="#ffede5"/>
        </g>
        <g id="Group-47" data-name="Group">
          <path id="Vector-43" data-name="Vector" d="M.271,3.406a.267.267,0,0,1-.25-.166A.275.275,0,0,1,.16,2.879L6.428.021A.275.275,0,0,1,6.788.16a.275.275,0,0,1-.139.361L.382,3.378c-.028.028-.055.028-.111.028Z" transform="translate(169.646 248.852)" fill="#472938"/>
        </g>
        <g id="Group-48" data-name="Group">
          <path id="Vector-44" data-name="Vector" d="M.289,3.84A.291.291,0,0,1,.039,3.7.281.281,0,0,1,.15,3.313L6.279.039A.281.281,0,0,1,6.667.15a.281.281,0,0,1-.111.388L.427,3.812a1.2,1.2,0,0,0-.139.028Z" transform="translate(169.767 244.839)" fill="#472938"/>
        </g>
      </g>
    </g>
  </g>
</svg>
