<svg xmlns="http://www.w3.org/2000/svg" width="19.538" height="36.491" viewBox="0 0 19.538 36.491">
  <g id="Group_6997" data-name="Group 6997" transform="translate(-1.585)">
    <path id="Path_8724" data-name="Path 8724" d="M539.937,298.69s-.295,2.847-.422,3.249c-.363.874-1.2,2.925-1.237,7.618a.444.444,0,0,0,.834.294,30.8,30.8,0,0,0,1.846-4.359c.1-.648.275-1.315.295-1.846a3.8,3.8,0,0,1,.344-1.463,25.119,25.119,0,0,0,1.109-2.641A3.456,3.456,0,0,0,539.937,298.69Z" transform="translate(-530.032 -277.295)" fill="#f8600d"/>
    <g id="Group_6925" data-name="Group 6925" transform="translate(6.48 31.477)">
      <path id="Path_8725" data-name="Path 8725" d="M532.617,401.8c-.02.108-.4,2.189-.6,2.768s1.266.383,1.266.383a9.7,9.7,0,0,1,.236-1.924c.039-.187.245-.844.245-.844s-.442-.049-.628-.088A1.159,1.159,0,0,1,532.617,401.8Z" transform="translate(-530.851 -401.8)" fill="#f8600d"/>
      <path id="Path_8726" data-name="Path 8726" d="M520.669,422.857a.943.943,0,0,0,.579-.942c.059-.481.02-1.109.373-1.05.471.079.668.187.756.668.118.609.285,0,.285,0s.049-.147.118-.088a4.785,4.785,0,0,1,.353,1.345c.049.491.383.756-.137,1.05a3.848,3.848,0,0,1-2.631-.137C520.178,423.388,520.482,422.975,520.669,422.857Z" transform="translate(-520.306 -418.99)" fill="#f8600d"/>
      <path id="Path_8727" data-name="Path 8727" d="M523.1,445.428c.353-.2.314-.383.236-.628a3.172,3.172,0,0,1-2.906.137.446.446,0,0,0,.039.353A3.844,3.844,0,0,0,523.1,445.428Z" transform="translate(-520.399 -440.579)" fill="#f8600d"/>
      <g id="Group_6912" data-name="Group 6912" transform="translate(0.661 3.672)">
        <g id="Group_6911" data-name="Group 6911">
          <path id="Path_8728" data-name="Path 8728" d="M527.1,439.382a1.158,1.158,0,0,1,1.06.1c.049.029.1-.049.049-.079a1.262,1.262,0,0,0-1.139-.108c-.049.02-.02.108.029.088Z" transform="translate(-527.043 -439.206)" fill="#f8600d"/>
        </g>
      </g>
      <g id="Group_6914" data-name="Group 6914" transform="translate(0.787 3.518)">
        <g id="Group_6913" data-name="Group 6913">
          <path id="Path_8729" data-name="Path 8729" d="M528.4,437.77c.049-.059.344-.029.4-.02a.71.71,0,0,1,.481.177c.039.039.108-.02.069-.069a.746.746,0,0,0-.51-.206c-.118-.01-.412-.049-.5.049-.049.039.02.108.059.069Z" transform="translate(-528.327 -437.637)" fill="#f8600d"/>
        </g>
      </g>
      <g id="Group_6916" data-name="Group 6916" transform="translate(0.847 3.369)">
        <g id="Group_6915" data-name="Group 6915">
          <path id="Path_8730" data-name="Path 8730" d="M528.993,436.232a1.234,1.234,0,0,1,.913.157c.049.029.1-.049.049-.079a1.377,1.377,0,0,0-.982-.167c-.059.01-.039.1.02.088Z" transform="translate(-528.938 -436.115)" fill="#f8600d"/>
        </g>
      </g>
      <g id="Group_6918" data-name="Group 6918" transform="translate(0.988 3.19)">
        <g id="Group_6917" data-name="Group 6917">
          <path id="Path_8731" data-name="Path 8731" d="M530.435,434.391a1.128,1.128,0,0,1,.864.206c.049.029.1-.049.049-.078a1.224,1.224,0,0,0-.942-.206c-.059,0-.029.088.029.079Z" transform="translate(-530.373 -434.292)" fill="#f8600d"/>
        </g>
      </g>
      <g id="Group_6920" data-name="Group 6920" transform="translate(0.411 3.106)">
        <g id="Group_6919" data-name="Group 6919">
          <path id="Path_8732" data-name="Path 8732" d="M525.4,433.483c-.088,0-.187.069-.1.157s.2-.02.167-.118-.236-.118-.265,0a.091.091,0,0,0,.147.088.049.049,0,0,0-.02-.088c-.206-.029-.677-.039-.815.167-.118.167.137.187.255.177.373-.039.648-.324,1.05-.314a.634.634,0,0,1,.265.049c.167.039.2.157.069.353a.8.8,0,0,1-.216-.02,1.354,1.354,0,0,1-.55-.393c-.049-.039-.108.029-.069.069.255.216.511.51.893.432a.21.21,0,0,0,.118-.383.922.922,0,0,0-.883-.137c-.216.059-.412.245-.638.255a.093.093,0,0,1-.128-.02c-.078-.029-.069-.049.02-.059a.651.651,0,0,1,.2-.059,1.389,1.389,0,0,1,.452-.01.286.286,0,0,1-.02-.088c.029.02.069.029.1.049.029-.02.029-.108-.029-.108Z" transform="translate(-524.491 -433.437)" fill="#f8600d"/>
        </g>
      </g>
      <g id="Group_6922" data-name="Group 6922" transform="translate(0.784 3.186)">
        <g id="Group_6921" data-name="Group 6921">
          <path id="Path_8733" data-name="Path 8733" d="M528.706,434.294a.874.874,0,0,1-.393.726c-.049.029,0,.108.049.079a.96.96,0,0,0,.442-.8c-.01-.059-.1-.059-.1,0Z" transform="translate(-528.293 -434.25)" fill="#f8600d"/>
        </g>
      </g>
      <g id="Group_6924" data-name="Group 6924" transform="translate(1.263 3.202)">
        <g id="Group_6923" data-name="Group 6923">
          <path id="Path_8734" data-name="Path 8734" d="M533.174,434.474a1.276,1.276,0,0,0,.569.884c.049.029.1-.049.049-.079a1.153,1.153,0,0,1-.52-.834c-.029-.049-.118-.029-.1.029Z" transform="translate(-533.171 -434.417)" fill="#f8600d"/>
        </g>
      </g>
      <path id="Path_8735" data-name="Path 8735" d="M544.757,435.363a.159.159,0,0,0-.029.147.145.145,0,0,0,.118.079.464.464,0,0,0,.167.01c.02,0,.029,0,.039-.01a.07.07,0,0,0,.029-.059.462.462,0,0,0-.039-.167c-.029-.1-.02-.294-.079-.363C544.894,435.118,544.826,435.245,544.757,435.363Z" transform="translate(-542.323 -431.741)" fill="#f8600d"/>
    </g>
    <path id="Path_8736" data-name="Path 8736" d="M605.368,298.69s.294,2.847.422,3.249c.363.874,1.2,2.925,1.237,7.618a.444.444,0,0,1-.834.294,30.775,30.775,0,0,1-1.846-4.359c-.1-.648-.275-1.315-.294-1.846a3.8,3.8,0,0,0-.344-1.463,25.142,25.142,0,0,1-1.109-2.641A3.456,3.456,0,0,1,605.368,298.69Z" transform="translate(-588.042 -277.295)" fill="#f8600d"/>
    <g id="Group_6940" data-name="Group 6940" transform="translate(17.764 31.477)">
      <path id="Path_8737" data-name="Path 8737" d="M637.148,401.8c.02.108.4,2.189.6,2.768s-1.266.383-1.266.383a9.707,9.707,0,0,0-.236-1.924c-.039-.187-.245-.844-.245-.844s.442-.049.628-.088A1.159,1.159,0,0,0,637.148,401.8Z" transform="translate(-635.927 -401.8)" fill="#f8600d"/>
      <path id="Path_8738" data-name="Path 8738" d="M637.981,422.857a.944.944,0,0,1-.579-.942c-.059-.481-.02-1.109-.373-1.05-.471.079-.668.187-.756.668-.118.609-.285,0-.285,0s-.049-.147-.118-.088a4.785,4.785,0,0,0-.353,1.345c-.049.491-.383.756.137,1.05a3.848,3.848,0,0,0,2.631-.137C638.472,423.388,638.167,422.975,637.981,422.857Z" transform="translate(-635.356 -418.99)" fill="#f8600d"/>
      <path id="Path_8739" data-name="Path 8739" d="M635.547,445.428c-.353-.2-.314-.383-.236-.628a3.171,3.171,0,0,0,2.906.137.446.446,0,0,1-.039.353A3.844,3.844,0,0,1,635.547,445.428Z" transform="translate(-635.259 -440.579)" fill="#f8600d"/>
      <g id="Group_6927" data-name="Group 6927" transform="translate(1.132 3.672)">
        <g id="Group_6926" data-name="Group 6926">
          <path id="Path_8740" data-name="Path 8740" d="M647.952,439.293a1.262,1.262,0,0,0-1.139.108c-.049.029,0,.108.049.079a1.132,1.132,0,0,1,1.06-.1.047.047,0,1,0,.029-.088Z" transform="translate(-646.793 -439.206)" fill="#f8600d"/>
        </g>
      </g>
      <g id="Group_6929" data-name="Group 6929" transform="translate(1.15 3.534)">
        <g id="Group_6928" data-name="Group 6928">
          <path id="Path_8741" data-name="Path 8741" d="M648,437.849a.166.166,0,0,0-.137-.039c-.118-.01-.245-.01-.373-.01a.746.746,0,0,0-.51.206c-.039.039.02.108.069.069a.71.71,0,0,1,.481-.177c.069,0,.353-.029.4.02s.118-.029.069-.069Z" transform="translate(-646.969 -437.8)" fill="#f8600d"/>
        </g>
      </g>
      <g id="Group_6931" data-name="Group 6931" transform="translate(1.103 3.369)">
        <g id="Group_6930" data-name="Group 6930">
          <path id="Path_8742" data-name="Path 8742" d="M647.495,436.143a1.368,1.368,0,0,0-.982.167c-.049.029,0,.108.049.079a1.234,1.234,0,0,1,.913-.157c.059.01.079-.079.02-.088Z" transform="translate(-646.493 -436.115)" fill="#f8600d"/>
        </g>
      </g>
      <g id="Group_6933" data-name="Group 6933" transform="translate(1.005 3.181)">
        <g id="Group_6932" data-name="Group 6932">
          <path id="Path_8743" data-name="Path 8743" d="M646.456,434.223a1.286,1.286,0,0,0-.942.206c-.049.029,0,.118.049.079a1.181,1.181,0,0,1,.864-.206c.059.02.088-.069.029-.078Z" transform="translate(-645.493 -434.204)" fill="#f8600d"/>
        </g>
      </g>
      <g id="Group_6935" data-name="Group 6935" transform="translate(0.665 3.082)">
        <g id="Group_6934" data-name="Group 6934">
          <path id="Path_8744" data-name="Path 8744" d="M643.032,433.356c.029-.02.069-.029.1-.049a.288.288,0,0,0-.02.088,1.385,1.385,0,0,1,.4,0c.088.02.452.108.2.157-.206.039-.481-.2-.668-.255a.916.916,0,0,0-.923.118c-.147.157-.1.344.108.383.383.079.638-.206.893-.432.049-.039-.02-.1-.069-.069a1.662,1.662,0,0,1-.55.393.525.525,0,0,1-.216.02c-.118-.177-.118-.285.02-.324a.6.6,0,0,1,.324-.069c.393-.01.677.285,1.05.314.118.01.353-.01.255-.177-.128-.206-.628-.186-.815-.167a.047.047,0,0,0-.02.088.091.091,0,0,0,.147-.088c-.02-.128-.226-.108-.265,0a.1.1,0,0,0,.167.118c.088-.088-.02-.157-.1-.157-.079.02-.079.108-.02.108Z" transform="translate(-642.034 -433.198)" fill="#f8600d"/>
        </g>
      </g>
      <g id="Group_6937" data-name="Group 6937" transform="translate(1.691 3.186)">
        <g id="Group_6936" data-name="Group 6936">
          <path id="Path_8745" data-name="Path 8745" d="M652.488,434.294a.947.947,0,0,0,.442.8c.049.029.1-.049.049-.079a.874.874,0,0,1-.393-.726c0-.059-.088-.059-.1,0Z" transform="translate(-652.487 -434.25)" fill="#f8600d"/>
        </g>
      </g>
      <g id="Group_6939" data-name="Group 6939" transform="translate(1.091 3.205)">
        <g id="Group_6938" data-name="Group 6938">
          <path id="Path_8746" data-name="Path 8746" d="M646.916,434.48a1.192,1.192,0,0,1-.52.834.046.046,0,0,0,.049.078,1.3,1.3,0,0,0,.569-.883c0-.069-.088-.088-.1-.029Z" transform="translate(-646.374 -434.445)" fill="#f8600d"/>
        </g>
      </g>
      <path id="Path_8747" data-name="Path 8747" d="M637.924,435.363a.16.16,0,0,1,.029.147.146.146,0,0,1-.118.079.464.464,0,0,1-.167.01c-.02,0-.029,0-.039-.01a.07.07,0,0,1-.029-.059.463.463,0,0,1,.039-.167c.029-.1.02-.294.079-.363C637.786,435.118,637.855,435.245,637.924,435.363Z" transform="translate(-637.37 -431.741)" fill="#f8600d"/>
    </g>
    <path id="Path_8748" data-name="Path 8748" d="M553.171,235.5a9.638,9.638,0,0,0,5.4.02,31.217,31.217,0,0,1,1.3,7.51,3.2,3.2,0,0,1-2.9.687c-.295-.834-.933-3.161-.982-3.338a1.068,1.068,0,0,1-.353.01,33.523,33.523,0,0,1-1.05,3.3,9.855,9.855,0,0,1-2.788-.825A55.225,55.225,0,0,1,553.171,235.5Z" transform="translate(-542.225 -220.349)" fill="#f8600d"/>
    <g id="Group_6942" data-name="Group 6942" transform="translate(15.552 14.198)">
      <g id="Group_6941" data-name="Group 6941">
        <path id="Path_8749" data-name="Path 8749" d="M612.745,226.178a4.538,4.538,0,0,1,.687-.353c.02-.01.01-.049-.01-.039a3.925,3.925,0,0,0-.7.363c-.02.01,0,.049.02.029Z" transform="translate(-612.717 -225.784)" fill="#f8600d"/>
      </g>
    </g>
    <g id="Group_6944" data-name="Group 6944" transform="translate(15.787 13.884)">
      <g id="Group_6943" data-name="Group 6943">
        <path id="Path_8750" data-name="Path 8750" d="M615.146,222.725a1.608,1.608,0,0,1,.373-.1c.029,0,.029-.049,0-.039a1.564,1.564,0,0,0-.383.1c-.029.01-.02.049.01.039Z" transform="translate(-615.119 -222.587)" fill="#f8600d"/>
      </g>
    </g>
    <g id="Group_6946" data-name="Group 6946" transform="translate(16.09 14.487)">
      <g id="Group_6945" data-name="Group 6945">
        <path id="Path_8751" data-name="Path 8751" d="M618.239,229.1c.01-.079.088-.137.137-.2a1.049,1.049,0,0,1,.157-.137.021.021,0,1,0-.029-.029c-.069.059-.128.118-.187.177a.432.432,0,0,0-.118.177c0,.029.039.039.039.01Z" transform="translate(-618.2 -228.734)" fill="#f8600d"/>
      </g>
    </g>
    <path id="Path_8752" data-name="Path 8752" d="M489.1,159.3a5.441,5.441,0,0,0-1.924,1.7s-1.365-.844-3.426-1.895a1.55,1.55,0,0,1-.746.51c.01,0,.432.442.432.442s2.13,2.366,3.9,2.778c1.473.344,3.024-2.032,3.024-2.032Z" transform="translate(-480.183 -151.449)" fill="#f8600d"/>
    <path id="Path_8753" data-name="Path 8753" d="M538.1,144.889a4.814,4.814,0,0,0,.776,1.2,4.25,4.25,0,0,0,.864.668s.226-.255.393-.147a8.974,8.974,0,0,1,.334,2.945,1.8,1.8,0,0,0-.059.815c.029.118-.255.206-.2.432.039.128.137.216.186.353a1.359,1.359,0,0,1,.069.452,3.2,3.2,0,0,1-.069.687.36.36,0,0,0,0,.177c.049.118.2.137.3.177a5.333,5.333,0,0,0,2.189.216,14.471,14.471,0,0,1,1.708-.206c.363,0,.736.079,1.1.1.236.01.942.039,1.041-.236a2.232,2.232,0,0,0-.039-.618,1.215,1.215,0,0,1,.01-.422,3.2,3.2,0,0,0-.157-1.473c-.157-.177.02-.344.1-.569a1.568,1.568,0,0,0-.128-.923,3.8,3.8,0,0,1,.471-1.777c.294-.628.648-.118.648-.118a1.874,1.874,0,0,1,.52-.579,4.311,4.311,0,0,0,.883-1.021,6.719,6.719,0,0,0-5.988-2.17,9.743,9.743,0,0,0-2.906.5A5.736,5.736,0,0,0,538.1,144.889Z" transform="translate(-529.873 -136.787)" fill="#f8600d"/>
    <path id="Path_8754" data-name="Path 8754" d="M604.335,217.045a2.2,2.2,0,0,0-.8.147c-.059.029-.128.1-.1.167a.151.151,0,0,0,.157.049.942.942,0,0,1,.54.108.1.1,0,0,1,.049.039.108.108,0,0,1-.039.1,1.929,1.929,0,0,1-1.149.6,2.481,2.481,0,0,0,1.384-.147c-.02.069-.1.1-.167.128a1.834,1.834,0,0,0-.6.383.816.816,0,0,0,.481-.049,2.845,2.845,0,0,1,.471-.137c.039.108-.039.216-.108.3l-.265.324c.324-.167.638-.334.962-.5.01-.01.029-.01.039-.029a.124.124,0,0,0,.01-.059c-.029-.52-.069-1.041-.108-1.551a.249.249,0,0,0-.02-.118,3.771,3.771,0,0,1-.344.177A1.817,1.817,0,0,1,604.335,217.045Z" transform="translate(-588.402 -203.484)" fill="#f8600d" opacity="0.3"/>
    <path id="Path_8755" data-name="Path 8755" d="M605.314,167.835a3.856,3.856,0,0,0,1.59,1.541,6.962,6.962,0,0,0-1.963,2.248s-.52-.255-.648-.216-.128.294-.491.324c-.491.039-1.286.108-1.325.295s.893.069.893.069-1.4.56-1.374.776,1.09-.2,1.09-.2-.648.393-.53.54c.157.206,1.09-.324,1.09-.324s-.5.726-.412.844.717-.638,1.149-.766c.236-.069.854-.1.991-.295a1.1,1.1,0,0,0,.167-.4s2.847-.923,3.073-2.729c.147-1.207-2.062-3.043-2.062-3.043a3.813,3.813,0,0,1-.609.7A4.308,4.308,0,0,0,605.314,167.835Z" transform="translate(-587.496 -158.122)" fill="#f8600d"/>
    <g id="Group_6948" data-name="Group 6948" transform="translate(17.937 13.909)">
      <g id="Group_6947" data-name="Group 6947">
        <path id="Path_8756" data-name="Path 8756" d="M637.143,223.077a.257.257,0,0,0-.1-.226c-.02-.02-.039.02-.02.039a.206.206,0,0,1,.079.187.02.02,0,1,0,.039,0Z" transform="translate(-637.017 -222.846)" fill="#f8600d"/>
      </g>
    </g>
    <g id="Group_6950" data-name="Group 6950" transform="translate(19.38 11.156)">
      <g id="Group_6949" data-name="Group 6949">
        <path id="Path_8757" data-name="Path 8757" d="M651.746,194.928a1.327,1.327,0,0,1,.952,0c.029.01.039-.029.01-.039a1.38,1.38,0,0,0-.972,0c-.029.01-.02.049.01.039Z" transform="translate(-651.719 -194.8)" fill="#f8600d"/>
      </g>
    </g>
    <g id="Group_6952" data-name="Group 6952" transform="translate(6.829 9.573)">
      <g id="Group_6951" data-name="Group 6951" transform="translate(0 0)">
        <path id="Path_8758" data-name="Path 8758" d="M523.953,179.648a1.305,1.305,0,0,1,.079-.942c.01-.02-.03-.049-.039-.02a1.411,1.411,0,0,0-.079.982.022.022,0,0,0,.039-.02Z" transform="translate(-523.861 -178.673)" fill="#f8600d"/>
      </g>
    </g>
    <g id="Group_6954" data-name="Group 6954" transform="translate(15.547 14.09)">
      <g id="Group_6953" data-name="Group 6953">
        <path id="Path_8759" data-name="Path 8759" d="M612.7,225.179a4.128,4.128,0,0,1,.785-.442c.03-.01.01-.059-.02-.049a4.844,4.844,0,0,0-.785.461c-.01.01.01.039.02.029Z" transform="translate(-612.673 -224.687)" fill="#f8600d"/>
      </g>
    </g>
    <g id="Group_6956" data-name="Group 6956" transform="translate(16.124 14.459)">
      <g id="Group_6955" data-name="Group 6955">
        <path id="Path_8760" data-name="Path 8760" d="M618.572,228.785a2.076,2.076,0,0,1,.363-.294c.029-.02,0-.059-.02-.039a2.772,2.772,0,0,0-.353.324c-.029.01-.01.029.01.01Z" transform="translate(-618.547 -228.446)" fill="#f8600d"/>
      </g>
    </g>
    <g id="Group_6958" data-name="Group 6958" transform="translate(15.806 13.805)">
      <g id="Group_6957" data-name="Group 6957">
        <path id="Path_8761" data-name="Path 8761" d="M615.333,221.975a1.479,1.479,0,0,1,.344-.137c.03-.01.02-.059-.01-.049a1.585,1.585,0,0,0-.344.167c-.02,0,0,.029.01.02Z" transform="translate(-615.314 -221.787)" fill="#f8600d"/>
      </g>
    </g>
    <path id="Path_8762" data-name="Path 8762" d="M564.116,221.984a1.524,1.524,0,0,1,.677.147c.2.118.275.4.088.53a.556.556,0,0,1-.255.079,3.525,3.525,0,0,1-1.885-.314,2.934,2.934,0,0,1-.825-.589c-.128-.128-.982-.9-.078-.481a8.812,8.812,0,0,0,1.08.422A7.28,7.28,0,0,0,564.116,221.984Z" transform="translate(-550.913 -207.48)" fill="#f8600d" opacity="0.3"/>
    <path id="Path_8763" data-name="Path 8763" d="M590.594,202.884a2.613,2.613,0,0,1-.658.285,2.739,2.739,0,0,1-.569.069c-.147,0-.334.029-.393.167a.238.238,0,0,0,.1.275.475.475,0,0,0,.3.059,1.874,1.874,0,0,0,.51-.137,7.6,7.6,0,0,0,1.973-1.188,1.245,1.245,0,0,0,.373-.412c-.236.01-.579.3-.8.422C591.164,202.579,590.879,202.736,590.594,202.884Z" transform="translate(-575.741 -190.137)" fill="#f8600d" opacity="0.3"/>
    <g id="Group_6960" data-name="Group 6960" transform="translate(11.975 6.31)">
      <g id="Group_6959" data-name="Group 6959">
        <path id="Path_8764" data-name="Path 8764" d="M576.29,145.49c.334.776,1.482.8,2.13.471.039-.02,0-.079-.039-.059-.609.314-1.708.294-2.032-.452-.01-.039-.069,0-.059.039Z" transform="translate(-576.289 -145.434)" fill="#f8600d"/>
      </g>
    </g>
    <g id="Group_6962" data-name="Group 6962" transform="translate(14.252 6.393)">
      <g id="Group_6961" data-name="Group 6961">
        <path id="Path_8765" data-name="Path 8765" d="M599.529,146.624a.71.71,0,0,0,.294-.295c.02-.039-.039-.069-.059-.039a.65.65,0,0,1-.275.265c-.029.029,0,.088.039.069Z" transform="translate(-599.478 -146.278)" fill="#f8600d"/>
      </g>
    </g>
    <path id="Path_8766" data-name="Path 8766" d="M630.835,172.8a.308.308,0,0,1,.147-.167.045.045,0,0,1,.049,0c.01.01.01.02.02.029a.247.247,0,0,1-.088.245.812.812,0,0,0-.167.206.044.044,0,0,0,0,.049c.029-.079.118-.118.2-.157.059-.029.147-.059.2-.02a.116.116,0,0,1-.039.108.261.261,0,0,1-.1.059c-.069.029-.147.069-.216.1s-.137.088-.147,0a.641.641,0,0,1,.059-.226A.9.9,0,0,1,630.835,172.8Z" transform="translate(-613.371 -163.646)" fill="#f8600d" opacity="0.3"/>
    <path id="Path_8767" data-name="Path 8767" d="M552.732,175.07a.458.458,0,0,0-.344-.177c-.029,0-.069.01-.078.039a.167.167,0,0,0-.01.069.25.25,0,0,0,.108.118c.108.069.236.1.353.167.02.01.049.039.029.059a.036.036,0,0,1-.029.01.335.335,0,0,1-.1.01h-.079c-.029.01-.049.029-.049.049,0,.039.029.059.069.069a.468.468,0,0,0,.2-.039c.1-.029.324.147.137-.118C552.86,175.247,552.8,175.148,552.732,175.07Z" transform="translate(-542.68 -165.691)" fill="#f8600d" opacity="0.3"/>
    <g id="Group_6963" data-name="Group 6963" transform="translate(1.585 6.186)">
      <path id="Path_8768" data-name="Path 8768" d="M472.534,145.439c-.029-.167.039-.285-.01-.383a1.481,1.481,0,0,0-1.119-.884,1.12,1.12,0,0,0-.668.177.35.35,0,0,0-.029.422c-.059-.049-.147.029-.177.108a.724.724,0,0,0-.079.4.869.869,0,0,0,.353.658,1.546,1.546,0,0,0,.766.206c.2-.02.344.226.53.216C472.534,146.362,472.593,145.861,472.534,145.439Z" transform="translate(-470.448 -144.169)" fill="#f8600d"/>
    </g>
    <g id="Group_6969" data-name="Group 6969" transform="translate(11.249)">
      <g id="Group_6964" data-name="Group 6964" transform="translate(0.767 4.049)">
        <path id="Path_8771" data-name="Path 8771" d="M576.7,124.511a1.3,1.3,0,0,0,.874.707,1.615,1.615,0,0,0,1.806-.736.929.929,0,0,0-.088-.029c-.216-.069-.314-.432-.334-.687a5.888,5.888,0,0,1,.049-1.365l-1.649.579c-.02.118-.029.245-.039.373a1.813,1.813,0,0,0-.01.226c0,.069-.01.137-.01.206a1.112,1.112,0,0,1-.059.353.553.553,0,0,1-.167.255.592.592,0,0,1-.255.108C576.808,124.5,576.7,124.52,576.7,124.511Z" transform="translate(-576.7 -122.4)" fill="#f8600d"/>
      </g>
      <g id="Group_6965" data-name="Group 6965" transform="translate(0.232 1.339)">
        <path id="Path_8772" data-name="Path 8772" d="M572.066,96.3a.912.912,0,0,1-.226.638c-.1.128-.187-.039-.344-.079-.245-.069-.245-.393-.2-1.109a1.649,1.649,0,0,1,.01-.8.608.608,0,0,1,.55-.147" transform="translate(-571.257 -94.795)" fill="#f8600d"/>
      </g>
      <g id="Group_6966" data-name="Group 6966" transform="translate(0.287 0.593)">
        <path id="Path_8773" data-name="Path 8773" d="M572.523,87.825a3.221,3.221,0,0,0-.648,2.641c.137.648.363,1.247.687,1.286a3.319,3.319,0,0,0,1.826-.471c.658-.51.687-1.718.7-2.484.01-.7-.157-1.62-1.041-1.6A2.409,2.409,0,0,0,572.523,87.825Z" transform="translate(-571.818 -87.197)" fill="#f8600d"/>
      </g>
      <g id="Group_6967" data-name="Group 6967">
        <path id="Path_8774" data-name="Path 8774" d="M572.054,83.175a4.377,4.377,0,0,1-2.15-.069c-.982-.353-1.139-1.109-.933-1.266a.146.146,0,0,1,.088-.039c.069-.02.147.029.206.059-.03-.088-.147-.452.069-.618.295-.226.707.079.776.118a2.229,2.229,0,0,0,.707.285s-.137-.736.51-.216c.206.167.569.3.776.461a.708.708,0,0,1,.265.746" transform="translate(-568.892 -81.158)" fill="#f8600d"/>
      </g>
      <g id="Group_6968" data-name="Group 6968" transform="translate(2.497 1.277)">
        <path id="Path_8775" data-name="Path 8775" d="M594.633,94.591a.813.813,0,0,0-.245.481,1.565,1.565,0,0,0,0,.825c.02.079-.01.422.049.412.02,0,.059-.265.128-.4a.382.382,0,0,1,.579-.079.536.536,0,0,1-.088.668,1.106,1.106,0,0,0-.187.3,1.857,1.857,0,0,0-.059.766c.059.108.216-.353.3-.432.618-.609,1.394-2.3.6-2.827a1.167,1.167,0,0,0-.648-.128" transform="translate(-594.332 -94.166)" fill="#f8600d"/>
      </g>
    </g>
    <g id="Group_6975" data-name="Group 6975" transform="translate(11.514 2.537)">
      <path id="Path_8776" data-name="Path 8776" d="M573.385,112.957c-.01.1-.049.157-.108.157s-.1-.069-.088-.167.049-.147.108-.147S573.385,112.859,573.385,112.957Z" transform="translate(-573.03 -112.231)" fill="#f8600d"/>
      <g id="Group_6971" data-name="Group 6971" transform="translate(1.152 0)">
        <g id="Group_6970" data-name="Group 6970">
          <path id="Path_8777" data-name="Path 8777" d="M584.011,107.21a.457.457,0,0,0-.668-.108c-.049.029.02.1.059.069a.378.378,0,0,1,.4-.049,1.383,1.383,0,0,1,.118.108c.03.049.118.039.088-.02Z" transform="translate(-583.327 -107.004)" fill="#f8600d"/>
        </g>
      </g>
      <g id="Group_6973" data-name="Group 6973">
        <g id="Group_6972" data-name="Group 6972">
          <path id="Path_8778" data-name="Path 8778" d="M572.132,107.09a.367.367,0,0,0-.53.059c-.039.039.039.1.078.059a.277.277,0,0,1,.4-.059c.03.029.088-.02.049-.059Z" transform="translate(-571.591 -107.002)" fill="#f8600d"/>
        </g>
      </g>
      <path id="Path_8779" data-name="Path 8779" d="M584.983,112.857c-.01.1-.049.157-.108.157s-.1-.069-.088-.167.049-.147.108-.147S584.992,112.759,584.983,112.857Z" transform="translate(-583.49 -112.141)" fill="#f8600d"/>
      <path id="Path_8780" data-name="Path 8780" d="M578.068,124.064c.147-.02.344-.236.265-.393-.01-.01-.02-.029-.03-.039a.062.062,0,0,0-.059,0c-.079.01-.147.029-.226.039-.206.02-.334.02-.324.108A.391.391,0,0,0,578.068,124.064Z" transform="translate(-577.095 -121.993)" fill="#f8600d"/>
      <g id="Group_6974" data-name="Group 6974" transform="translate(0.531 0.677)">
        <path id="Path_8783" data-name="Path 8783" d="M577.275,113.9a.258.258,0,0,1,.02.147.4.4,0,0,1-.029.147.9.9,0,0,1-.069.137,1.032,1.032,0,0,1-.1.118l-.01-.069a.813.813,0,0,1,.118.079c.02.02.039.029.049.049a.146.146,0,0,1,.029.069.1.1,0,0,0-.049-.039l-.059-.029c-.039-.02-.088-.029-.128-.049l-.049-.02.039-.049a.435.435,0,0,0,.078-.108.732.732,0,0,0,.069-.118A1.206,1.206,0,0,0,577.275,113.9Z" transform="translate(-577 -113.9)" fill="#f8600d"/>
      </g>
    </g>
    <g id="Group_6977" data-name="Group 6977" transform="translate(12.633 4.871)">
      <g id="Group_6976" data-name="Group 6976">
        <path id="Path_8784" data-name="Path 8784" d="M583.012,131.086a1.6,1.6,0,0,0,.3-.108.981.981,0,0,0,.294-.177s.01-.029,0-.02c-.108.039-.216.1-.324.147-.088.039-.2.069-.285.118-.02,0-.01.039.01.039Z" transform="translate(-582.991 -130.78)" fill="#f8600d"/>
      </g>
    </g>
    <g id="Group_6979" data-name="Group 6979" transform="translate(16.198 16.613)">
      <g id="Group_6978" data-name="Group 6978">
        <path id="Path_8785" data-name="Path 8785" d="M619.381,250.4a1.487,1.487,0,0,0,.815,1.777c.02.01.039-.01.02-.029a3.428,3.428,0,0,1-.658-.648,1.3,1.3,0,0,1-.157-1.09c.01-.02-.02-.029-.02-.01Z" transform="translate(-619.302 -250.391)" fill="#f8600d"/>
      </g>
    </g>
    <g id="Group_6981" data-name="Group 6981" transform="translate(10.294 16.494)">
      <g id="Group_6980" data-name="Group 6980">
        <path id="Path_8786" data-name="Path 8786" d="M559.783,249.208a1.514,1.514,0,0,1-.01.933c-.128.324-.393.471-.609.736-.01.01,0,.029.02.02a1.631,1.631,0,0,0,.677-.756,1.207,1.207,0,0,0-.02-.942c-.029-.039-.069-.02-.059.01Z" transform="translate(-559.161 -249.176)" fill="#f8600d"/>
      </g>
    </g>
    <g id="Group_6983" data-name="Group 6983" transform="translate(12.932 19.812)">
      <g id="Group_6982" data-name="Group 6982">
        <path id="Path_8787" data-name="Path 8787" d="M586.041,283.006a.829.829,0,0,0,.893.167c.02-.01.01-.029,0-.029a3.507,3.507,0,0,1-.452.01.817.817,0,0,1-.412-.177c-.02-.01-.049.01-.029.029Z" transform="translate(-586.034 -282.973)" fill="#f8600d"/>
      </g>
    </g>
    <g id="Group_6996" data-name="Group 6996" transform="translate(1.763 6.178)">
      <g id="Group_6995" data-name="Group 6995">
        <path id="Path_8795" data-name="Path 8795" d="M472.84,144.09a.649.649,0,0,0-.491.177c-.079.079-.157.236-.01.294.02.01.029-.02.01-.029-.186-.1.088-.295.167-.334a.871.871,0,0,1,.314-.079c.02-.01.02-.029.01-.029Z" transform="translate(-472.256 -144.089)" fill="#f8600d"/>
      </g>
    </g>
  </g>
</svg>
