<svg xmlns="http://www.w3.org/2000/svg" width="51" height="51" viewBox="0.261 0.35 51 51"><g data-name="Bg"><path d="M12 0h27a12 12 0 0 1 12 12v27a12 12 0 0 1-12 12H12A12 12 0 0 1 0 39V12A12 12 0 0 1 12 0z" fill-rule="evenodd" fill="url(&quot;#a&quot;)" transform="translate(.26 .35)" data-name="Rectangle 5898"/><g data-name="oatmeal"><g data-name="Group"><path d="M42.224 15.865c-.06.391.03.723-.03 1.115-.179 1.236-.687 2.773-1.225 3.889-1.374 2.833-3.585 4.37-6.453 5.456-7.677 2.924-21.001 3.798-23.212-6.542v.151l-.418-1.658c-.12-.603-.478-1.115-.448-1.718.09-2.864 2.927-4.04 4.033-4.492 3.405-1.296 7.08-1.718 10.695-1.718 10.635 0 15.057 1.266 16.311 3.286.389.633.687 1.386.747 2.23Z" fill="#688ead" fill-rule="evenodd" data-name="Vector"/><path d="M13.664 16.045c.478-.12.986-.12 1.434-.24.657-.182 1.165-.664 1.703-1.056.926-.633 2.001-1.055 3.107-1.176 1.165-.15 2.39 0 3.555-.18 1.195-.181 2.36-.694 3.585-.634 1.165.06 2.24.603 3.406.694 1.314.12 2.718-.362 3.973.15.597.242 1.105.694 1.733.875.418.12.866.12 1.284.15.956.121 1.822.603 2.689 1.056.657.361 1.344.753 1.643 1.447.358.874-.09 1.899-.747 2.592-1.165 1.266-2.868 1.839-4.54 2.261-3.675.904-7.5 1.085-11.293 1.176-2.928.09-5.886.12-8.784-.452-1.075-.211-2.18-.543-2.957-1.297-1.344-1.386-2.42-4.642.209-5.366Z" fill="#f4d09f" fill-rule="evenodd" data-name="Vector"/><path d="M34.875 14.448c.269-.211.836-.09 1.105.09.15.09.24.241.389.332.298.21.687.21 1.045.271.359.06.777.241.867.603 0 .06.03.12 0 .18-.06.121-.21.182-.329.182-.478.03-.956-.03-1.374-.211.12.03.179.12.179.24 0 .122-.06.212-.15.272-.238.211-.597.241-.925.241-.33-.03-.658-.09-.986-.03-.448.06-.837.362-1.285.272-.06-.03-.12-.03-.18-.09-.119-.091-.089-.302.03-.423.12-.12.27-.18.419-.241.358-.15.717-.332 1.016-.543.179-.12.388-.271.448-.482.09-.271-.09-.513-.27-.663ZM28.96 16.618c.508-.06 1.045.03 1.583.15.508.122 1.046.212 1.554.333-.03.331-.628.391-.568.693.329-.03.687 0 1.016.09.09.03.209.09.239.211 0 .06-.03.12-.06.181-.15.241-.478.302-.747.332-.747.09-1.464.18-2.21.271-.15.03-.33.03-.479 0-.209-.06-.388-.21-.627-.21-.18 0-.359.12-.538.15-.209.03-.448-.12-.358-.302.03-.06.06-.09.09-.12a3.14 3.14 0 0 1 1.015-.603c.269-.09.538-.181.657-.422.21-.422-.298-.633-.567-.754ZM33.023 19.512c.448-.24.806-.663.896-1.175.836 0 1.762 0 2.42-.543.15-.12.269-.271.418-.362.18-.12.418-.15.657-.18.628-.091 1.225-.182 1.852-.302.06 0 .15-.03.21 0 .119.06.149.241.119.362-.12.452-.568.753-1.016.874-.448.12-.926.15-1.374.301-.418.151-.777.452-1.135.694a7.608 7.608 0 0 1-1.643.814c-1.225.422-2.54.452-3.854.482-.687.03-1.344.03-2.002-.09.658-.513 1.584-.272 2.33-.332.688-.09 1.494-.181 2.122-.543Z" fill="#f2c194" fill-rule="evenodd" data-name="Vector"/><g data-name="Group"><path d="M19.4 15.864c.269-.693 1.494-.512 2.031-.331.15.06.27.12.389.21.12.121.18.242.18.393 0 .18-.18.331-.36.392-.179.06-.388.06-.567.03-.359-.03-1.912.06-1.673-.694Z" fill="#bf9777" fill-rule="evenodd" data-name="Vector"/><path d="M21.312 15.02a1.32 1.32 0 0 1-1.315 1.327 1.32 1.32 0 0 1-1.314-1.327 1.32 1.32 0 0 1 1.314-1.326 1.32 1.32 0 0 1 1.315 1.326Z" fill="#600c4e" fill-rule="evenodd" data-name="Vector"/><path d="m20.685 13.724.03.03h.06c.089-.03.178-.06.238-.09 0 .06-.03.12-.03.18h.299c-.03.061-.09.121-.12.182h.21c.03 0 .06 0 .06.03 0 0 0 .03-.03.03-.09.09-.18.18-.27.241-.03.03-.089.06-.149.09-.06 0-.09-.03-.15-.03-.148-.06-.387-.21-.447-.361s.09-.332.179-.453c.09.09.09.12.12.151Z" fill="#600c4e" fill-rule="evenodd" data-name="Vector"/><path d="M20.266 14.267v.06c-.03.06-.09.03-.15.03-.208-.06-.417.06-.537.241-.03.06-.06.12-.12.12-.03.031-.06 0-.089-.03-.03-.03-.09-.06-.09-.12v-.12c.03-.181.15-.302.3-.392.238-.09.716-.151.686.21Z" fill="#fff" fill-rule="evenodd" data-name="Vector"/></g><g data-name="Group"><path d="M16.084 18.548c.269-.694 1.494-.513 2.031-.332.15.06.27.12.389.21.12.122.179.242.179.393 0 .18-.18.331-.359.392-.179.06-.388.06-.567.03-.389-.03-1.912.06-1.673-.693Z" fill="#bf9777" fill-rule="evenodd" data-name="Vector"/><path d="M16.974 16.416c.707.17 1.143.885.974 1.598a1.314 1.314 0 0 1-1.583.982 1.327 1.327 0 0 1-.974-1.597 1.314 1.314 0 0 1 1.583-.983Z" fill="#600c4e" fill-rule="evenodd" data-name="Vector"/><path d="m17.339 16.407.03.03h.06c.089-.03.178-.06.238-.09 0 .06-.03.12-.03.18h.299c-.03.061-.09.121-.12.182h.21c.03 0 .06 0 .06.03 0 0 0 .03-.03.03-.09.09-.18.18-.27.241-.03.03-.089.06-.149.09-.06 0-.09-.03-.15-.03-.148-.06-.387-.21-.447-.361s.09-.332.179-.453c.09.09.12.121.12.151Z" fill="#600c4e" fill-rule="evenodd" data-name="Vector"/><path d="M16.95 16.95v.06c-.03.06-.09.03-.15.03-.208-.06-.418.06-.537.241-.03.06-.06.12-.12.12-.03.031-.06 0-.09-.03-.029-.03-.089-.06-.089-.12v-.12c.03-.181.15-.302.299-.392.21-.09.717-.151.687.21Z" fill="#fff" fill-rule="evenodd" data-name="Vector"/></g><g data-name="Group"><path d="M28.004 19.15c.269-.693 1.493-.512 2.031-.331.15.06.269.12.389.21.119.121.179.242.179.393 0 .18-.18.331-.359.392-.179.06-.388.06-.567.03-.389-.03-1.912.06-1.673-.694Z" fill="#bf9777" fill-rule="evenodd" data-name="Vector"/><path d="M29.854 17.898a1.329 1.329 0 0 1-.845 1.67 1.312 1.312 0 0 1-1.656-.851 1.329 1.329 0 0 1 .845-1.671 1.312 1.312 0 0 1 1.656.852Z" fill="#600c4e" fill-rule="evenodd" data-name="Vector"/><path d="m29.288 17.01.03.03h.06c.09-.03.18-.06.239-.09 0 .06-.03.12-.03.18h.299c-.03.06-.09.121-.12.181h.21c.03 0 .06 0 .06.03 0 0 0 .03-.03.03-.09.091-.18.182-.27.242-.03.03-.09.06-.149.09-.06 0-.09-.03-.15-.03-.149-.06-.388-.21-.447-.362-.06-.15.09-.331.179-.452.06.06.09.12.12.151Z" fill="#600c4e" fill-rule="evenodd" data-name="Vector"/><path d="M28.87 17.553v.06c-.03.06-.09.03-.15.03-.208-.06-.418.06-.537.241-.03.06-.06.121-.12.121-.03.03-.06 0-.09-.03-.029-.03-.089-.06-.089-.12v-.121c.03-.181.15-.302.299-.392.21-.12.717-.15.687.21Z" fill="#fff" fill-rule="evenodd" data-name="Vector"/></g><g data-name="Group"><path d="M30.991 16.377c.27-.693 1.494-.512 2.032-.331.15.06.269.12.388.21.12.121.18.242.18.392 0 .181-.18.332-.36.392-.178.06-.388.06-.567.03-.388-.03-1.942.06-1.673-.693Z" fill="#bf9777" fill-rule="evenodd" data-name="Vector"/><path d="M32.903 15.533a1.32 1.32 0 0 1-1.314 1.326 1.32 1.32 0 0 1-1.315-1.326 1.32 1.32 0 0 1 1.315-1.326 1.32 1.32 0 0 1 1.314 1.326Z" fill="#600c4e" fill-rule="evenodd" data-name="Vector"/><path d="m32.246 14.237.03.03h.06c.09-.03.179-.06.239-.09 0 .06-.03.12-.03.18h.298c-.03.06-.09.12-.119.181h.21c.029 0 .059 0 .059.03 0 0 0 .03-.03.03-.09.09-.18.181-.269.242-.03.03-.09.06-.15.09-.059 0-.089-.03-.149-.03-.149-.06-.388-.211-.448-.362-.06-.15.09-.331.18-.452.09.09.119.12.119.15Z" fill="#600c4e" fill-rule="evenodd" data-name="Vector"/><path d="M31.828 14.78v.06c-.03.06-.09.03-.15.03-.209-.06-.418.06-.537.24-.03.061-.06.122-.12.122-.03.03-.06 0-.09-.03s-.09-.06-.09-.121v-.12c.03-.182.15-.302.3-.393.239-.12.746-.15.687.211Z" fill="#fff" fill-rule="evenodd" data-name="Vector"/></g><g data-name="Group"><path d="M25.345 13.754c.269-.693 1.494-.512 2.031-.331.15.06.27.12.389.21.12.121.179.242.179.393 0 .18-.18.331-.358.391-.18.06-.389.06-.568.03-.388-.03-1.912.06-1.673-.693Z" fill="#bf9777" fill-rule="evenodd" data-name="Vector"/><path d="M26.24 11.628c.706.167 1.145.88.98 1.594a1.314 1.314 0 0 1-1.579.99 1.327 1.327 0 0 1-.98-1.594 1.314 1.314 0 0 1 1.579-.99Z" fill="#600c4e" fill-rule="evenodd" data-name="Vector"/><path d="m26.63 11.614.03.03h.06c.089-.03.178-.06.238-.09 0 .06-.03.12-.03.18h.3c-.03.06-.09.121-.12.181h.209c.03 0 .06 0 .06.03 0 0 0 .03-.03.03-.09.091-.18.182-.27.242-.03.03-.089.06-.149.09-.06 0-.09-.03-.149-.03-.15-.06-.388-.21-.448-.362-.06-.15.09-.331.18-.452.059.09.089.12.119.15Z" fill="#600c4e" fill-rule="evenodd" data-name="Vector"/><path d="M26.211 12.156v.06c-.03.061-.09.03-.149.03-.21-.06-.418.061-.538.242-.03.06-.06.12-.12.12-.03.03-.059 0-.089-.03s-.09-.06-.09-.12v-.12c.03-.182.15-.302.3-.393.208-.09.716-.15.686.211Z" fill="#fff" fill-rule="evenodd" data-name="Vector"/></g><g data-name="Group"><path d="M36.548 19.814c.269-.694 1.494-.513 2.031-.332.15.06.27.12.389.21.12.122.179.242.179.393 0 .18-.18.331-.359.392-.179.06-.388.06-.567.03-.388-.03-1.912.06-1.673-.693Z" fill="#bf9777" fill-rule="evenodd" data-name="Vector"/><path d="M37.432 17.662c.71.154 1.162.86 1.009 1.576a1.315 1.315 0 0 1-1.562 1.017 1.326 1.326 0 0 1-1.008-1.575 1.315 1.315 0 0 1 1.561-1.018Z" fill="#600c4e" fill-rule="evenodd" data-name="Vector"/><path d="m37.803 17.673.03.03h.06c.089-.03.178-.06.238-.09 0 .06-.03.12-.03.18h.3c-.03.061-.09.121-.12.182h.209c.03 0 .06 0 .06.03 0 0 0 .03-.03.03-.09.09-.18.18-.27.241-.03.03-.089.06-.149.09-.06 0-.09-.03-.149-.03-.15-.06-.388-.21-.448-.361s.09-.332.18-.453c.089.06.119.121.119.151Z" fill="#600c4e" fill-rule="evenodd" data-name="Vector"/><path d="M37.414 18.216v.06c-.03.06-.09.03-.149.03-.21-.06-.418.06-.538.241-.03.06-.06.12-.12.12-.03.031-.059 0-.089-.03s-.09-.06-.09-.12v-.12c.03-.181.15-.302.3-.392.208-.12.716-.151.686.21Z" fill="#fff" fill-rule="evenodd" data-name="Vector"/></g><g data-name="Group"><path d="M42.045 19.21c-.389 3.045-.299 6.03-1.703 8.864-.896 1.838-2.24 3.376-3.884 4.552.06.844 0 1.748-.508 2.743-.747 1.175-3.017 2.411-5.467 2.502-3.465.12-13.533.512-13.921-5.215a10.573 10.573 0 0 1-1.584-1.327c-2.24-2.2-3.495-5.758-3.973-8.863-.239-1.447-.657-3.557-.568-5.908 2.032 1.718 3.585 2.984 6.125 3.828 3.674 1.236 8.783 1.236 12.726.905 2.898-.272 5.856-.09 8.515-1.447 1.045-.543 1.912-1.116 2.748-1.9.627-.602 1.344-1.175 1.673-2.14.06 1.085 0 2.352-.18 3.407Z" fill="#8fbbef" fill-rule="evenodd" data-name="Vector"/></g><path d="M36.518 32.626c.06.844 0 1.748-.508 2.743-.747 1.175-3.017 2.411-5.467 2.502-.836.03-2.031.09-3.376.06-.179-.573.15-1.236.24-1.748.089-.543.208-1.477-.03-1.96-.24-.452-1.196-.573-1.315-.904-.269-.754 2.748-.965 3.286-1.206 3.645-1.598 5.736-5.486 6.662-9.255.21-.783.359-1.688.568-2.532.448-.15.836-.301 1.255-.512a12.215 12.215 0 0 0 2.658-1.81c.628-.572 1.016-1.054 1.733-2.2.06 1.116 0 2.352-.12 3.407-.388 3.044-.298 6.029-1.702 8.863a12.699 12.699 0 0 1-3.884 4.552Z" fill="#80abd6" fill-rule="evenodd" data-name="Vector"/><g data-name="Group"><path d="M11.035 19.422c.269-.03.568-.03.836 0 .478.18.747.633.986 1.055.3.542.658 1.025 1.285 1.145.538.09 1.105-.06 1.643-.03.299.03.598.09.866.211.3.15.568.362.807.573.926.784 1.822 1.718 3.077 1.718.687 0 1.374-.241 2.032-.422.597-.15 1.165-.271 1.762-.09.389.09.717.301 1.046.482.358.18.717.332 1.075.452.717.211 1.464.272 2.181.06.747-.21 1.374-.693 2.091-.994a2.912 2.912 0 0 1 1.524-.241c.597.09 1.195.301 1.792.452.478.15.986.15 1.404-.12.359-.212.628-.574.897-.905.328-.392.657-.754 1.105-.995.418-.241.896-.301 1.374-.271.359.03.747.12 1.076 0 .418-.181.687-.754.806-1.206.06-.241.09-.482.24-.693a.713.713 0 0 1 .686-.302c.27 0 .24.362 0 .392-.06 0-.09.03-.119.06-.18.181-.448-.09-.269-.271.12-.09.24-.15.389-.18v.39c-.24-.03-.359.061-.419.272-.09.272-.12.513-.209.754-.12.301-.269.573-.478.814-.269.331-.657.452-1.075.452-.419 0-.807-.09-1.225-.03-.478.09-.896.362-1.225.723-.627.664-1.076 1.538-2.061 1.658-.628.06-1.255-.21-1.853-.361-.478-.12-.985-.242-1.493-.151-.628.12-1.195.422-1.763.754-.687.391-1.434.633-2.21.602-.777-.03-1.494-.27-2.182-.602-.358-.181-.687-.422-1.045-.543-.299-.12-.598-.15-.896-.12-.628.06-1.195.3-1.793.452-.687.18-1.374.24-2.031.03-.568-.181-1.076-.513-1.524-.875-.239-.18-.478-.391-.717-.602-.239-.211-.508-.453-.777-.603-1.015-.603-2.3.21-3.286-.513-.508-.392-.747-.934-1.075-1.447-.12-.18-.27-.362-.448-.452-.24-.12-.538-.12-.807-.09s-.269-.392 0-.392Z" fill="#e5e5b7" fill-rule="evenodd" data-name="Vector"/></g><g data-name="Group"><path d="M11.453 21.502c.27-.09.568-.09.837 0 .508.21.806.754 1.045 1.206.21.422.419.964.926 1.115.658.181 1.225-.271 1.883-.21.627.06 1.075.481 1.434.964.149.24.298.482.507.693.21.241.478.392.777.482.628.151 1.165-.27 1.703-.482a2.467 2.467 0 0 1 1.673-.15c.478.15.926.452 1.374.723.508.301 1.106.603 1.703.633.598.03 1.165-.211 1.733-.422.597-.211 1.165-.392 1.792-.302.568.06 1.106.302 1.613.573.419.211.867.422 1.345.362.657-.09 1.225-.543 1.792-.874.27-.181.598-.332.926-.392.359-.09.717-.06 1.076 0 .358.06.717.09 1.046 0 .298-.09.537-.302.597-.633.358-.513.508-1.085 1.016-1.477.209-.151.448-.242.687-.302.269-.03.538-.06.777-.12.328-.121.717-.392 1.015-.603.18-.151.329-.272.478-.422.06-.06.09-.09.12-.151-.03.06 0 0 0 0v.03c.03.09-.06-.03 0 .06l.03.03c-.21-.12 0-.452.209-.331.18.09.209.271.12.422-.06.15-.21.271-.33.392-.179.18-.358.331-.567.452-.329.241-.717.482-1.135.573-.24.03-.508.06-.747.12s-.478.272-.657.483c-.359.482-.508 1.085-.956 1.477-.299.241-.628.392-.986.422-.359.03-.687-.06-1.046-.09-.388-.03-.747 0-1.075.12-.299.12-.598.332-.896.512-.568.332-1.195.694-1.853.664-.508 0-.956-.272-1.404-.483-.508-.271-1.075-.482-1.673-.482-.597 0-1.195.271-1.762.482-.598.211-1.225.332-1.853.181-.597-.15-1.165-.482-1.673-.784-.418-.24-.866-.542-1.374-.572-.657-.03-1.225.271-1.792.542-.24.12-.508.211-.807.211-.328 0-.657-.12-.956-.301-.508-.332-.747-.874-1.135-1.327a1.437 1.437 0 0 0-.687-.512c-.329-.12-.628-.03-.956.06-.299.09-.628.151-.956.12-.269-.06-.538-.15-.777-.33-.388-.332-.597-.905-.866-1.357-.12-.211-.27-.453-.478-.603-.24-.151-.508-.151-.777-.06-.239.09-.358-.302-.06-.332Z" fill="#e5e5b7" fill-rule="evenodd" data-name="Vector"/></g><path d="M19.43 24.667c-.12.814-.12 1.598-.18 2.412-.06.663.09 1.628-.298 2.23-1.106 1.659-3.675-.452-4.362-1.446-1.105-1.598-3.465-6.361-.777-7.175.628-.874 2.6.452 3.316.784.687.301 1.345.633 1.942 1.055.867.633.508 1.176.359 2.14Z" fill="#fff" fill-rule="evenodd" data-name="Vector"/><path d="M24.508 14.387c.18.121.359.242.478.453.09.12.12.271.18.422.149.301.418.542.746.663.33.12.658.15 1.016.15.12 0 .27 0 .389.06.12.061.239.182.209.302 0 .06-.06.12-.09.181-.15.151-.329.302-.538.392a5.625 5.625 0 0 1-1.703.543c-.298.03-.627.03-.896.18-.209.121-.388.272-.567.423-.717.572-1.733.753-2.6.422-.149-.06-.328-.181-.328-.332 0-.12.09-.21.18-.301.388-.332.925-.422 1.373-.603.359-.151.688-.392.956-.694.24-.301.448-.693.3-1.025-.12-.301-.479-.452-.778-.602a.465.465 0 0 1-.239-.181c-.09-.151-.03-.332.12-.453.448-.361 1.284-.24 1.792 0Z" fill="#f2dca5" fill-rule="evenodd" data-name="Vector"/><g data-name="Group"><path d="M24.27 29.912c-.06.513.179 1.086-.18 1.327-.329 3.225-1.255 10.008-1.852 10.641-1.583 1.658-7.558 1.568-9.38.06-.688-.572-1.704-7.928-2.032-10.973-.389-.422-.448-1.115-.448-1.688v-.09c-.12-.03.478-.09.657-.09h1.075c.717 0 1.434.03 2.181.03 2.032 0 4.063 0 6.095-.09 1.015-.031 2.031-.121 3.047-.121.896.03.986 0 .836.994Z" fill="#efe0cb" fill-rule="evenodd" data-name="Vector"/><path d="M24.419 29.25c-.24 1.898-1.912 2.742-7.17 2.742-4.69 0-6.812-1.507-6.901-2.894-.09-1.386 3.167-2.441 6.841-2.502 4.063-.03 7.499.965 7.23 2.653Z" fill="#ef6a60" fill-rule="evenodd" data-name="Vector"/><path d="M12.857 41.97c-.09-.06-.179-.24-.269-.482.449-.03 1.016.362 1.405.483 1.314.392 2.778.361 4.152.361 1.016 0 2.57-.24 2.868-1.447.269-1.055.538-2.26.627-3.376.09-1.025.18-2.11.12-3.135-1.912-.392-3.884-.543-5.826-.935-.537-.12-1.344-.301-1.762-.572l-.03-.12c.747.451 2.031.512 2.928.512.985 0 1.941-.03 2.868-.181.956-.151 1.941-.272 2.897-.483.27-.06.717-.24 1.166-.391-.389 3.436-1.225 9.104-1.763 9.676-1.554 1.688-7.558 1.598-9.38.09Z" fill="#e8d2bf" fill-rule="evenodd" data-name="Vector"/><path d="M25.434 32.716c-.09.543-.507.573-.926.301a1.929 1.929 0 0 1-.836-1.115c-.12-.422-.448-.844-.956-.814l-.09-.15c-.537.12-.03-1.146.15-1.327.328-.332.836-.422 1.284-.302.867.242.478 1.508.837 2.11.239.423.627.724.537 1.297Z" fill="#ef6a60" fill-rule="evenodd" data-name="Vector"/><path d="M14.59 35.218c-.239 1.025-.568 1.93-.568 3.015 0 .572.538 2.502-.358 2.592-.747.06-.926-1.326-.986-1.839-.09-.784-.12-1.537-.239-2.321-.12-.784-.329-1.598-.448-2.412-.03-.06-.06-.301-.09-.572-.03-.151-.06-.332-.06-.483 0-.15.03-.241.06-.331.03-.09.06-.121.12-.121.239-.12.567-.03.866.06 1.046.362 1.912 1.236 1.703 2.412ZM22.208 36.062c1.105 1.718.807 3.92-.687 4.884-1.494.964-3.525.15-4.96-1.327-1.553-1.597-1.373-4.19.12-5.155 1.464-.964 4.392-.15 5.527 1.598Z" fill="#fff" fill-rule="evenodd" data-name="Vector"/><path d="M21.52 40.946c-.208.12-.417.24-.626.301.06-.12.119-.24.149-.392.269-1.055.538-2.26.627-3.376.06-.633.09-1.296.12-1.96.15.151.299.332.418.543 1.105 1.718.777 3.92-.687 4.884Z" fill="#ddd" fill-rule="evenodd" data-name="Vector"/><g data-name="Group"><path d="M18.354 34.977c.03-.06.09-.06.15-.06.06.03.12.09.09.15 0 .03-.03.06-.06.09l-.27.302-.03.181c-.03.09-.089.15-.178.12-.09-.03-.12-.09-.09-.18l.03-.181-.12-.392c0-.03-.03-.06 0-.09 0-.06.09-.12.15-.09.06 0 .09.06.12.12l.059.241.15-.211ZM19.22 35.128c.21.09.36.301.24.603-.12.301-.359.331-.568.271-.21-.09-.358-.301-.239-.603.09-.271.329-.332.568-.271Zm-.089.21c-.12-.03-.18.03-.239.152-.06.12-.03.24.06.27.12.031.179-.03.239-.15s.06-.21-.06-.271ZM19.967 36.213c-.03-.03-.06-.06-.03-.12.03-.061.09-.061.12-.03l.15.09c.06.03.089.12.03.18l-.12.211c-.03.06-.09.09-.15.06s-.06-.09-.03-.12v-.03c-.06.03-.179 0-.268-.03-.15-.09-.3-.302-.12-.603.18-.271.448-.271.598-.15.239.15.239.3.179.36-.03.061-.09.091-.18.031-.089-.06-.03-.15-.119-.21-.09-.061-.18-.031-.269.12-.09.12-.09.21.03.301.06.06.12.03.18 0ZM21.103 36.514c.06-.06.15-.09.209-.03.06.06.06.12 0 .211l-.269.302c-.18.21-.358.15-.538 0-.179-.151-.239-.362-.09-.543l.27-.301c.06-.06.149-.09.209-.03s.06.12 0 .21l-.27.302c-.059.06-.059.15 0 .21.06.061.15.061.21-.03l.269-.3ZM21.461 36.906c.09-.06.15-.06.24.03l.208.242c.12.15.12.301 0 .392-.09.06-.179.06-.269 0 .06.06.06.15 0 .21l-.06.06-.089.091c-.06.03-.12.03-.15-.03-.06-.06-.06-.12 0-.18l.09-.091c.06-.06.03-.09 0-.15l-.06-.091-.179.09c-.06.06-.15.06-.209 0-.06-.06-.06-.15.03-.21l.448-.363Zm.09.453c.06.06.09.06.15.03.059-.03.029-.09 0-.151l-.09-.12-.12.12.06.12ZM22.029 37.75c-.03-.06-.03-.12.03-.15s.12-.03.15.06l.298.512c.06.06.03.12-.03.151-.06.03-.12.03-.15-.03l-.089-.15-.418.27c-.09.06-.15.03-.21-.03a.16.16 0 0 1 .06-.21l.419-.272-.06-.15Z" fill="#ef6a60" fill-rule="evenodd" data-name="Vector"/></g><path d="M20.535 39.529c-.03.331-.03.723-.478.904-.269.09-.687.03-.926-.06-.717-.272-1.464-.754-1.673-1.538-.09-.361 0-.814.269-1.085.12-.12.418-.271.627-.241.24-.15.478-.392.777-.513.418-.18.926.151 1.105.513.329.573.329 1.356.3 2.02Z" fill="#ed4b48" fill-rule="evenodd" data-name="Vector"/><g data-name="Group"><path d="M17.816 38.202c0 .09.03.181.03.302 0 .03.03.06.03.09v.03c0 .03 0 .03-.03.03.03-.06.06-.03.06 0-.03.06-.09-.03-.09-.06a1.78 1.78 0 0 1-.06-.392c0-.03.06-.03.06 0Z" fill="#eace49" fill-rule="evenodd" data-name="Vector"/></g><g data-name="Group"><path d="M18.145 38.021c.06.03.12.121.15.181 0 0 .03.03.03.06s-.03.06-.06.03 0-.06.03-.03h-.03v.03-.03c0-.03-.03-.03-.03-.06-.03-.03-.06-.09-.09-.12-.03 0 0-.06 0-.06Z" fill="#eace49" fill-rule="evenodd" data-name="Vector"/></g><g data-name="Group"><path d="M18.743 37.84c.03.06.09.091.149.121.03.03 0 .09-.03.06s-.09-.06-.15-.12c-.03-.03.03-.06.03-.06Z" fill="#eace49" fill-rule="evenodd" data-name="Vector"/></g><g data-name="Group"><path d="M19.131 37.6c.09.03.15.09.239.12.06.03.03.06 0 .06-.09-.06-.15-.09-.239-.15-.03 0 0-.06 0-.03Z" fill="#eace49" fill-rule="evenodd" data-name="Vector"/></g><g data-name="Group"><path d="M19.639 37.208c.03 0 .03.06 0 .06s-.03-.06 0-.06Z" fill="#eace49" fill-rule="evenodd" data-name="Vector"/></g><g data-name="Group"><path d="m19.699 37.178.09.09c0 .03.03.06.059.06.03.03 0 .09-.03.06-.06-.03-.12-.09-.18-.12-.03 0 0-.06.06-.09Z" fill="#eace49" fill-rule="evenodd" data-name="Vector"/></g><g data-name="Group"><path d="M17.816 39.047c0 .06.03.15.09.21.03.03 0 .06-.03.03-.06-.06-.09-.15-.12-.24 0-.03.03-.06.06 0Z" fill="#eace49" fill-rule="evenodd" data-name="Vector"/></g><g data-name="Group"><path d="M18.265 38.866c.03.06.09.12.12.15.029.03 0 .06-.03.03-.06-.03-.09-.09-.12-.15 0-.03.03-.06.03-.03Z" fill="#eace49" fill-rule="evenodd" data-name="Vector"/></g><g data-name="Group"><path d="M18.862 38.564c.03.03.09.09.15.12.06 0 .03.061 0 .061-.06-.03-.12-.09-.18-.15-.03-.03 0-.06.03-.03Z" fill="#eace49" fill-rule="evenodd" data-name="Vector"/></g><g data-name="Group"><path d="M19.37 38.323c.06.06.09.12.12.15s0 .061-.03.03c-.06-.03-.09-.09-.12-.15-.03-.03.03-.06.03-.03Z" fill="#eace49" fill-rule="evenodd" data-name="Vector"/></g><g data-name="Group"><path d="M19.848 38.142c.03.06.06.09.09.12 0 .03-.03.061-.06.03-.03-.06-.06-.09-.09-.12s.03-.06.06-.03Z" fill="#eace49" fill-rule="evenodd" data-name="Vector"/></g><g data-name="Group"><path d="M20.206 37.931c.03.09.06.15.06.211 0 .03-.06.03-.06 0 0-.06-.03-.12-.06-.18-.03-.03.03-.03.06-.03Z" fill="#eace49" fill-rule="evenodd" data-name="Vector"/></g><g data-name="Group"><path d="M18.414 39.59c.06.06.12.12.21.15.029.03 0 .06-.03.06a.908.908 0 0 1-.21-.15c-.03-.03 0-.06.03-.06Z" fill="#eace49" fill-rule="evenodd" data-name="Vector"/></g><g data-name="Group"><path d="M18.892 39.408c.06.03.09.06.15.09s.03.06 0 .06c-.06 0-.09-.06-.15-.09-.03-.03 0-.06 0-.06Z" fill="#eace49" fill-rule="evenodd" data-name="Vector"/></g><g data-name="Group"><path d="M19.46 39.167c.03.06.09.09.12.15.03.03 0 .061-.03.03-.03-.06-.09-.12-.12-.18-.03-.03.03-.06.03 0Z" fill="#eace49" fill-rule="evenodd" data-name="Vector"/></g><g data-name="Group"><path d="M19.938 38.896c.03 0 .03.06 0 .06s-.03-.06 0-.06Z" fill="#eace49" fill-rule="evenodd" data-name="Vector"/></g><g data-name="Group"><path d="M19.968 38.896c.06.06.09.15.09.21 0 .031-.06.031-.06 0l-.09-.18c-.03-.03.03-.06.06-.03Z" fill="#eace49" fill-rule="evenodd" data-name="Vector"/></g><g data-name="Group"><path d="M20.386 38.715v.21c0 .061-.06.03-.06 0 .03-.06.03-.12 0-.18s.03-.06.06-.03Z" fill="#eace49" fill-rule="evenodd" data-name="Vector"/></g><g data-name="Group"><path d="M19.101 40.132c.06.03.12.06.21.06.03 0 .03.06 0 .06-.09 0-.18-.06-.24-.09-.03-.03 0-.09.03-.03Z" fill="#eace49" fill-rule="evenodd" data-name="Vector"/></g><g data-name="Group"><path d="M19.49 39.86c.06.03.119.09.179.09s.03.061 0 .061a.48.48 0 0 1-.21-.12c-.03-.03 0-.06.03-.03Z" fill="#eace49" fill-rule="evenodd" data-name="Vector"/></g><g data-name="Group"><path d="M19.938 39.68c.03.03.03.06.06.12 0 .03-.03.06-.06.03s-.03-.09-.06-.12.03-.06.06-.03Z" fill="#eace49" fill-rule="evenodd" data-name="Vector"/></g><g data-name="Group"><path d="M20.416 39.408v.181c0 .06-.06.03-.06 0 .03-.06 0-.09 0-.15 0-.03.03-.03.06-.03Z" fill="#eace49" fill-rule="evenodd" data-name="Vector"/></g><g data-name="Group"><path d="M19.788 40.252c.06 0 .15.03.21.03.03 0 .03.06 0 .06-.09 0-.18-.03-.24-.06-.03 0-.03-.06.03-.03Z" fill="#eace49" fill-rule="evenodd" data-name="Vector"/></g><g data-name="Group"><path d="m20.027 40.102.03.03.03.03c.03 0 .03.06 0 .06-.06 0-.09-.03-.12-.06s0-.06.06-.06Z" fill="#eace49" fill-rule="evenodd" data-name="Vector"/></g><g data-name="Group"><path d="M20.296 39.89c.03 0 .03.06 0 .06s-.03-.06 0-.06Z" fill="#eace49" fill-rule="evenodd" data-name="Vector"/></g><g data-name="Group"><path d="M20.326 39.92v.181c0 .06-.06.03-.06 0v-.15c0-.06.03-.06.06-.03Z" fill="#eace49" fill-rule="evenodd" data-name="Vector"/></g><path d="M19.25 36.544c-.119.09-.119.272-.179.392s-.179.241-.269.332c-.149.18-.358.301-.567.392l.06-.03c-.12.12-.449.15-.598.15H17.1c.268-.24.717-.512 1.105-.452-.15-.18-.359-.332-.538-.452.09-.12.359-.241.478-.271.06.15.12.361.24.482.119-.362.477-.543.866-.543Z" fill="#53b748" fill-rule="evenodd" data-name="Vector"/><g data-name="Group"><path d="M11.901 29.4c.03.723 1.106.964 1.643 1.115.897.211 1.823.392 2.749.452 1.225.09 2.42 0 3.615-.12.896-.09 1.912-.181 2.659-.694.388-.27.836-.753.717-1.266-.12-.482-.568-.753-.986-.964a6.846 6.846 0 0 0-1.703-.483c-.687-.12-1.404-.18-2.091-.18-.628-.03-1.255 0-1.882.03-.538 0-1.076.03-1.614.09-.537.06-1.105.15-1.613.362-.538.21-1.105.573-1.314 1.115-.03.12-.21.09-.21-.03v-.09c0-.151.21-.151.21 0v.09c-.06 0-.15-.03-.21-.03.24-.573.777-.965 1.315-1.206.956-.422 2.061-.482 3.107-.512 1.285-.06 2.54-.121 3.824.06.986.12 2.24.301 2.987 1.085.27.271.419.663.329 1.055-.12.452-.448.814-.807 1.055-.806.513-1.852.633-2.778.724-1.314.12-2.629.21-3.943.09-.927-.09-1.883-.24-2.779-.512-.597-.181-1.493-.483-1.523-1.236 0-.15.209-.15.298 0Z" fill="#fff" fill-rule="evenodd" data-name="Vector"/></g><path d="M18.892 28.164c-.836.03-1.703.12-2.54.21-.537.061-2.06.121-2.18.875-.09.633.747 1.055-.21 1.296-.567.151-1.194.03-1.762-.18-.448-.151-1.105-.362-1.135-.935-.03-.271.09-.513.239-.693.239-.483.866-.784 1.344-.965 1.554-.543 3.316-.663 4.96-.663.597 0 1.523-.09 2.001.301.597.483-.299.784-.717.754Z" fill="#fff" fill-rule="evenodd" data-name="Vector"/></g></g></g></g><defs><linearGradient x1="1" y1="1" x2="0" y2="0" id="a"><stop stop-color="#f8600d" offset="0"/><stop stop-color="#eec4a4" offset="1"/></linearGradient></defs></svg>