<svg xmlns="http://www.w3.org/2000/svg" width="51" height="52" viewBox="0.261 -0.287 51 52"><g data-name="Bg"><path d="M12 0h27a12 12 0 0 1 12 12v28a12 12 0 0 1-12 12H12A12 12 0 0 1 0 40V12A12 12 0 0 1 12 0z" fill-rule="evenodd" fill="url(&quot;#a&quot;)" transform="translate(.26 -.287)" data-name="Rectangle 5897"/><g data-name="salad"><g data-name="Group"><g data-name="Group"><path d="M25.749 15.578c10.84-.03 16.716 2.157 16.625 5.183-.091 3.027-5.996 4.674-16.868 4.674-10.508 0-16.715-2.187-16.867-4.674.394-4.524 8.025-5.153 17.11-5.183Z" fill="#f7d3b0" fill-rule="evenodd" data-name="Vector"/><path d="M25.749 16.118c10.356-.06 15.989 1.917 15.898 4.614-.09 2.696-5.754 4.164-16.14 4.164-10.054 0-15.99-1.947-16.141-4.164.363-4.015 7.661-4.584 16.383-4.614Z" fill="#e2bfa3" fill-rule="evenodd" data-name="Vector"/><path d="m13.908 17.046.273.63a16.478 16.478 0 0 0 4.784 6.232c.364.27.697.539 1.06.779-6.722-.57-10.538-2.188-10.659-3.955.182-1.888 1.878-3.026 4.542-3.686Z" fill="#cead97" fill-rule="evenodd" data-name="Vector"/></g><path d="m17.3 25.406-6.48-2.487c-.848-.18-1.484-.989-1.484-1.828 0-.18.03-.36-.061-.54-.06-.12-.182-.179-.272-.269-.424-.3-.848-.659-1.06-1.108-.212-.45-.182-1.079.212-1.409-.576-.479-.576-1.468 0-1.947.575-.48 1.574-.3 1.907.36.091.15.122.329.273.419.151.12.363.09.545.12.363.06.666.27.939.51.272.209.545.448.817.658.152.15.333.27.424.45.182.33.121.779.424.988.121.09.303.12.455.18.514.18.908.63.969 1.169 0 .15 0 .27.09.39.091.089.243.119.364.179.515.18.908.6 1.03 1.108.03.18.06.36.15.54.092.18.243.3.364.42.515.539.697 1.407.394 2.097Z" fill="#6fb56b" fill-rule="evenodd" data-name="Vector"/><path d="M15.392 18.604c-.363-.45-.696-.898-.908-1.408-.212-.51-.273-1.138-.061-1.648.06-.12.151-.27.151-.39.03-.179-.03-.329-.06-.509-.121-.599.121-1.228.575-1.617.454-.39 1.12-.51 1.696-.3.363-.3.909-.36 1.332-.15.424.21.697.69.667 1.139.454-.12.908.18 1.15.569.243.39.273.869.303 1.318.666-.03 1.333.27 1.757.78.393.509.545 1.258.333 1.887.636.51 1.241 1.108 1.393 1.917.151.78-.364 1.738-1.181 1.768.454.03.666.63.454 1.049-.182.39-.636.629-1.03.809-.848.36-1.726.599-2.634.719-.545.06-1.09.09-1.605-.09-1.12-.42-1.635-1.618-2.03-2.637-.393-.899-1.513-2.457-.302-3.206Z" fill="#81cc7a" fill-rule="evenodd" data-name="Vector"/><path d="M31.2 16.177c.302-.449.908-.659 1.423-.509.06-.659.605-1.228 1.241-1.318.636-.09 1.333.3 1.605.899.424-.33 1.09.06 1.212.569.12.51-.152 1.049-.485 1.468.424.12.636.66.575 1.079-.06.42-.333.809-.605 1.198.575.42.666 1.288.333 1.888-.333.599-1.06.958-1.756.988-.727.03-1.333-.27-2-.569-2.27 2.757-5.268-3.685-1.513-4.164-.273-.48-.333-1.08-.03-1.529Z" fill="#6fb56b" fill-rule="evenodd" data-name="Vector"/><path d="M34.349 18.844c.303-.51.666-.959 1.12-1.318.333-.27.727-.45 1.12-.63 1.06-.509 2.363-1.048 3.362-.45l.545.36c.424.21.939.15 1.423.15.485 0 1 .06 1.393.33.424.27.697.719.667 1.198-.03.24-.152.48-.152.75 0 .209.09.419.121.658.091.54-.272 1.169-.848 1.259-.181.03-.393 0-.605.03-.879.12-1.242 1.228-2.03 1.558-.241.09-.484.12-.726.18-.242.09-.485.21-.727.33-1.514.688-3.482.329-4.633-.87-1.03-1.108-.727-2.397-.03-3.535Z" fill="#81cc7a" fill-rule="evenodd" data-name="Vector"/><path d="M31.472 22.889c.09.03.151.06.242.03s.121-.15.152-.24c.181-.54.848-.869 1.423-.69.121.03.242.09.363.09.182-.03.303-.179.455-.269a1.01 1.01 0 0 1 1.241.06c.09.09.182.18.273.24.12.06.272.03.393.09.455.12.545.779 1 .899.302-.48 1.03-.57 1.514-.24.484.33.666.929.636 1.498-.091 1.258-1.333 2.307-2.574 2.217-.576-.03-1.12-.3-1.696-.3-.545 0-1.06.24-1.575.42-1.241.48-2.483.33-2.846-1.079-.243-.809-.576-3.086.999-2.726Z" fill="#6fb56b" fill-rule="evenodd" data-name="Vector"/><g data-name="Group"><path d="M39.254 18.874s-.999 2.966-4.542 1.438c-3.543-1.528-2.18-4.135-2.18-4.135l6.722 2.697Z" fill="#e24c24" fill-rule="evenodd" data-name="Vector"/><path d="M36.417 16.258c1.836.76 3.08 1.957 2.776 2.675-.303.718-2.038.683-3.874-.076-1.836-.76-3.079-1.958-2.775-2.675.303-.718 2.037-.683 3.873.076Z" fill="#ff5a27" fill-rule="evenodd" data-name="Vector"/><path d="M36.347 16.424c1.682.696 2.831 1.767 2.566 2.393-.264.626-1.842.57-3.524-.126s-2.83-1.768-2.566-2.394c.264-.626 1.842-.569 3.524.127Z" fill="#ff8b78" fill-rule="evenodd" data-name="Vector"/><path d="M36.044 16.896c.424.15.818.42 1.181.69.122.09.243.18.303.33.06.149.06.329-.06.419-.121.12-.333.06-.515 0-.666-.21-1.332-.45-1.999-.66-.272-.06-.575-.18-.636-.449 0-.03-.03-.09 0-.12.03-.06.091-.06.122-.12.03-.06.03-.12.06-.18.03-.15.212-.18.363-.18.455 0 .818.15 1.181.27Z" fill="#ff5a27" fill-rule="evenodd" data-name="Vector"/><g data-name="Group"><path d="M33.32 16.447c0-.06.06-.09.12-.06.091.03.152.03.243.06h-.03c.03 0 .09.03.12.03.06.03.091.06.091.12 0 .03 0 .06-.03.06 0 .03-.03.03-.06.03-.122-.03-.243-.09-.364-.12-.06 0-.06-.09-.09-.12Z" fill="#ffb164" fill-rule="evenodd" data-name="Vector"/></g><g data-name="Group"><path d="M33.925 16.147c.121.06.03.24-.091.18s-.03-.24.09-.18Z" fill="#ffb164" fill-rule="evenodd" data-name="Vector"/></g><g data-name="Group"><path d="M33.773 16.267v-.09c0-.03.03-.06.06-.06h.092c.09.03.151.06.212.09.03.03.06.03.06.06v.09c0 .03-.03.06-.06.06h-.091c-.091-.03-.152-.06-.212-.09l-.06-.06Z" fill="#ffb164" fill-rule="evenodd" data-name="Vector"/></g><g data-name="Group"><path d="M34.652 16.147c0-.03.03-.03.06-.03h.03l.03.03c.03 0 .03.03.03.03v.03-.03.03-.03c.031 0 .031.03.031.03v-.03l.03.03-.03-.03s.03.03.03.06v.09c0 .03-.03.03-.03.03h-.06c0-.03-.03-.03-.03-.03-.061-.03-.061-.06-.091-.09s-.03-.03-.03-.06v-.06s.03-.03.03.03Z" fill="#ffb164" fill-rule="evenodd" data-name="Vector"/></g><g data-name="Group"><path d="m35.348 16.237.03-.03c0-.03.03-.03.06-.03h.031l.03.03c.03 0 .03.03.03.03v.03c0 .06-.03.09-.03.12s-.03.06-.03.06l-.03.03c0 .03-.03.03-.06.03h-.031l-.03-.03c-.03 0-.03-.03-.03-.03v-.03c0-.06.03-.09.03-.12s0-.03.03-.06Z" fill="#ffb164" fill-rule="evenodd" data-name="Vector"/></g><g data-name="Group"><path d="M36.438 16.926h-.03l-.03-.03v-.09l.03-.03c0-.03.03-.03.03-.03.03-.03.091-.03.121-.06h.091l.03.03v.09l-.03.03c0 .03-.03.03-.03.03-.03.03-.09.03-.121.06h-.06Z" fill="#ffb164" fill-rule="evenodd" data-name="Vector"/></g><g data-name="Group"><path d="M37.226 17.376c-.03 0-.03-.03-.03-.06s0-.06.03-.06c0-.03.03-.03.06-.03.09 0 .151.03.212.03.03 0 .03 0 .06.03.03 0 .03.03.03.06s0 .06-.03.06c0 .03-.03.03-.06.03-.09 0-.151-.03-.212-.03-.03 0-.03-.03-.06-.03Z" fill="#ffb164" fill-rule="evenodd" data-name="Vector"/></g><g data-name="Group"><path d="M37.77 17.795c0-.06.061-.09.122-.06.06.03.151.06.212.09h-.03.06c.03 0 .03 0 .06.03.03 0 .03.03.03.06s0 .06-.03.06c0 .03-.03.03-.06.03a.589.589 0 0 1-.303-.09c-.06-.03-.09-.09-.06-.12Z" fill="#ffb164" fill-rule="evenodd" data-name="Vector"/></g><g data-name="Group"><path d="M37.983 18.335s.03-.03.06-.03c0 0 .03 0 .06.03.092.06.152.12.243.18.06.03.06.12.03.15 0 0-.03.03-.06.03 0 0-.03 0-.06-.03-.092-.06-.152-.12-.243-.18-.06-.03-.06-.09-.03-.15Z" fill="#ffb164" fill-rule="evenodd" data-name="Vector"/></g><g data-name="Group"><path d="M37.468 18.544c.03-.03.03-.06.06-.06h.091l.03.03c.03 0 .03.03.03.03l.092.18v.09c-.03.03-.03.06-.06.06h-.092l-.03-.03c-.03 0-.03-.03-.03-.03l-.091-.18c-.03-.03 0-.06 0-.09Z" fill="#ffb164" fill-rule="evenodd" data-name="Vector"/></g><g data-name="Group"><path d="M36.771 18.544v-.03s.03-.03.06-.03h.031c0 .03.03.03.03.03s.03.03.03.06v.09c0 .03-.03.06-.03.09s-.03.06-.06.06h-.091l-.03-.03c-.03 0-.03-.03-.03-.03v-.09.03-.06.03-.03c-.03 0 0-.03.09-.09Z" fill="#ffb164" fill-rule="evenodd" data-name="Vector"/></g><g data-name="Group"><path d="M35.711 18.335c0-.03.03-.03.061-.03h.03l.03.03c.03 0 .03.03.03.06s-.03.06-.03.09c0 0-.03.03-.03.06l-.03.03h-.121c-.03 0-.06-.03-.06-.06v-.06s.03-.03.03-.06v.03-.06c0-.03 0-.06.09-.03Z" fill="#ffb164" fill-rule="evenodd" data-name="Vector"/></g><g data-name="Group"><path d="M34.924 18.005h.09c.031 0 .061.03.061.06v.09c0 .03-.03.03-.03.06s0 .03-.03.06l-.03.03c-.03 0-.03.03-.061.03h-.09c-.031-.03-.061-.03-.061-.06v-.09l.03-.03c0-.03.03-.03.03-.03 0-.03.03-.03.03-.03h-.03c.03 0 .03-.03.06-.06 0 .03-.03.03-.03.03s.03 0 .03-.03v.03-.03c0-.03.031-.06.031-.03Z" fill="#ffb164" fill-rule="evenodd" data-name="Vector"/></g><g data-name="Group"><path d="M34.349 17.346c.03.03.06.03.06.06v.09c-.03.03-.03.06-.06.06-.091.03-.182.06-.273.06h-.09s-.03-.03-.03-.06c0 0 0-.03.03-.06 0 0 .03-.03.06-.03.06 0 .09-.03.151-.03h-.03c.03 0 .06-.03.091-.03.03 0 .06 0 .09-.06Z" fill="#ffb164" fill-rule="evenodd" data-name="Vector"/></g><g data-name="Group"><path d="M33.38 17.106h-.03l-.03-.03v-.09l.03-.03c0-.03.03-.03.03-.03.03 0 .06-.03.09-.03h.091l.03.03v.09l-.03.03c0 .03-.03.03-.03.03-.03 0-.06.03-.09.03h-.061Z" fill="#ffb164" fill-rule="evenodd" data-name="Vector"/></g><path d="M32.865 17.615c.424 0 .484.57.545.84.03.15.121.299.212.419.03.06.06.15.03.21-.06.09-.151.06-.242.03-.242-.09-.363-.3-.515-.51-.12-.15-.484-.959-.03-.989Z" fill="#fff" fill-rule="evenodd" data-name="Vector"/></g><path d="M21.903 20.702c-.303-.63-.333-1.409.09-1.978.364-.48.97-.749 1.545-.989-.757-.689-.939-1.857-.424-2.726.515-.869 1.666-1.348 2.695-1.139-.242-.749.394-1.588 1.242-1.767.817-.18 1.726.24 2.18.898.575-.33 1.423-.21 1.847.27.424.51.394 1.288-.09 1.738.817.689.908 1.977.181 2.756.454.36.697.9.606 1.438-.06.54-.424 1.02-.939 1.289.121.36.212.749.03 1.078-.212.39-.726.54-1.18.54-.455 0-.94-.09-1.394 0 .182.42-.181.899-.636 1.078-.454.18-.969.12-1.453.09-.545-.06-1.09-.12-1.666-.15-.303-.03-.636-.06-.878-.24-.303-.209-.394-.688-.666-.958-.394-.39-.818-.69-1.09-1.228Z" fill="#89e269" fill-rule="evenodd" data-name="Vector"/><g data-name="Group"><path d="m32.138 20.671 7.147-.06s.333.66.333.93c-.03 1.557-1.968 2.396-4.603 2.067-2.362-.3-2.907-1.828-2.907-1.828l.06-1.079Z" fill="#59b24f" fill-rule="evenodd" data-name="Vector"/><path d="M35.85 18.991c1.97.101 3.525 1 3.472 2.009-.053 1.008-1.693 1.743-3.664 1.642-1.971-.101-3.526-1-3.473-2.009.053-1.008 1.693-1.743 3.664-1.642Z" fill="#84d17d" fill-rule="evenodd" data-name="Vector"/><path d="M39.103 20.941c.03.78-1.423 1.468-3.27 1.408-1.817-.06-3.422-.898-3.453-1.677-.03-.78 1.575-1.558 3.392-1.499 1.847.09 3.3.99 3.331 1.768Z" fill="#b0eda9" fill-rule="evenodd" data-name="Vector"/><path d="M33.713 20.522c-.06-.06-.121-.12-.152-.18 0-.12.152-.18.273-.18.272-.03.515.03.757.12a.797.797 0 0 1-.182-.3c0-.03-.03-.06 0-.06.03-.06.091-.06.152-.03.272.12.545.27.817.45-.06-.12-.12-.24-.151-.36 0-.12.03-.27.151-.33.152-.09.333 0 .455.12.12.12.181.3.212.45.211-.18.514-.27.817-.24.06 0 .152.03.182.09.06.09-.03.18-.121.24.333-.09.726 0 .999.24.03.03.06.06.06.12 0 .03-.03.06-.03.06a.789.789 0 0 1-.484.269c-.182.03-.394.03-.576.03.182.06.364.15.546.27.03 0 .03.03.06.06 0 .03 0 .03-.03.06-.121.21-.394.27-.636.18-.242-.06-.424-.21-.636-.36.09.12.182.27.151.42-.03.149-.151.269-.302.239-.061-.03-.122-.06-.152-.12a1.352 1.352 0 0 1-.333-.51c0 .24-.212.45-.485.48-.06 0-.12 0-.181-.06a.183.183 0 0 1-.03-.21c.03-.06.09-.12.15-.18-.18.12-.393.21-.574.09a.165.165 0 0 1-.091-.15c0-.03.06-.06.09-.09.091-.06.303-.12.334-.209-.424-.12-.757-.18-1.06-.42Z" fill="#c1ffb8" fill-rule="evenodd" data-name="Vector"/></g><g data-name="Group"><path d="m20.298 26.304 7.57-5.992s1.151.24 1.454.45c1.787 1.258.666 3.535-2.513 5.482-2.817 1.738-5.209.989-5.209.989l-1.181-.899-.121-.03Z" fill="#59b24f" fill-rule="evenodd" data-name="Vector"/><path d="M28.732 20.936c.662 1.13-.748 3.164-3.15 4.542-2.402 1.377-4.886 1.576-5.548.445-.663-1.13.747-3.164 3.15-4.541 2.401-1.377 4.886-1.577 5.548-.446Z" fill="#84d17d" fill-rule="evenodd" data-name="Vector"/><path d="M28.08 20.731c.909.6.182 2.367-1.847 3.836-2.029 1.468-4.694 2.157-5.632 1.557-.909-.599-.121-2.516 1.877-3.984 1.999-1.468 4.694-2.008 5.602-1.409Z" fill="#b0eda9" fill-rule="evenodd" data-name="Vector"/><path d="M21.842 24.926c-.12.03-.272.03-.363-.03-.152-.09-.06-.27.06-.39.243-.24.576-.419.94-.569a1.6 1.6 0 0 1-.546-.09c-.03 0-.09-.03-.09-.06-.061-.06.06-.12.15-.15.425-.15.91-.269 1.363-.329-.212-.03-.393-.06-.545-.15-.151-.09-.242-.24-.212-.39.06-.179.333-.299.606-.299.272 0 .515.09.757.18.03-.33.242-.66.575-.869.091-.06.182-.09.303-.09.152.03.182.18.152.3.242-.36.787-.6 1.332-.63.06 0 .151 0 .212.03.03.03.03.06.06.09.061.21-.03.45-.211.63-.152.18-.364.36-.576.509.273-.12.576-.18.909-.24h.12c.031 0 .031.03.061.06.091.27-.12.54-.454.69-.333.15-.727.18-1.09.239.242 0 .484.06.636.21.151.12.121.36-.06.45-.092.03-.213.06-.304.06-.333 0-.635-.03-.938-.12.272.209.303.539.03.778a.386.386 0 0 1-.273.12c-.12 0-.242-.06-.272-.15-.06-.09-.03-.18-.03-.27-.06.24-.182.51-.515.57-.091.03-.212 0-.273-.06a.09.09 0 0 1 0-.12c.03-.12.182-.36.121-.45-.605.21-1.03.45-1.635.54Z" fill="#c1ffb8" fill-rule="evenodd" data-name="Vector"/></g><g data-name="Group"><path d="m22.024 13.78 3.21 6.922s-.515.689-.757.809c-1.545.749-3.24-.75-4.088-3.476-.757-2.427.514-3.715.514-3.715l1.09-.48Z" fill="#59b24f" fill-rule="evenodd" data-name="Vector"/><path d="M25.35 16.715c.75 2.001.52 3.931-.515 4.311-1.035.38-2.482-.935-3.233-2.936-.75-2.001-.519-3.932.516-4.311 1.035-.38 2.482.934 3.232 2.936Z" fill="#84d17d" fill-rule="evenodd" data-name="Vector"/><path d="M24.84 20.732c-.757.389-2.09-.69-2.846-2.487-.758-1.798-.636-3.805.12-4.195.758-.39 2.211.78 2.968 2.577.757 1.798.515 3.715-.242 4.105Z" fill="#b0eda9" fill-rule="evenodd" data-name="Vector"/><path d="M22.841 15.249c.03-.09.03-.18.122-.24.12-.06.242.06.302.18.121.24.212.509.243.809.06-.12.12-.24.212-.33l.06-.06c.06 0 .091.06.091.15.03.33 0 .66-.09 1.019.06-.12.15-.24.272-.3.12-.06.272-.09.393 0 .152.09.152.33.091.51-.06.18-.212.299-.333.419.273.12.515.36.606.659.03.06.03.15 0 .21-.06.09-.212.06-.303 0 .242.27.333.719.212 1.078 0 .06-.03.09-.09.12h-.092c-.212-.03-.363-.18-.484-.33a1.978 1.978 0 0 1-.273-.569c.03.21 0 .45-.03.66 0 .03 0 .06-.03.09h-.061c-.242-.03-.424-.27-.484-.54-.03-.27.03-.54.09-.809a.65.65 0 0 1-.333.36c-.151.06-.333-.03-.363-.18 0-.06 0-.15.03-.21.091-.21.182-.42.333-.57-.242.12-.545 0-.666-.239-.03-.06-.06-.15-.03-.21.03-.09.12-.12.212-.12.09 0 .151.03.242.06-.182-.12-.394-.3-.363-.539 0-.06.06-.15.12-.15.031 0 .092 0 .122.03.09.06.272.24.363.24-.09-.42-.181-.779-.09-1.198Z" fill="#c1ffb8" fill-rule="evenodd" data-name="Vector"/></g><g data-name="Group"><path d="M24.265 21.001s.726 3.056-3.12 3.596c-3.815.539-4.027-2.397-4.027-2.397L24.265 21Z" fill="#e24c24" fill-rule="evenodd" data-name="Vector"/><path d="M24.251 21.079c.122.768-1.373 1.638-3.34 1.944-1.965.305-3.658-.07-3.78-.839-.122-.768 1.373-1.638 3.34-1.944 1.966-.305 3.658.07 3.78.839Z" fill="#ff5a27" fill-rule="evenodd" data-name="Vector"/><path d="M23.952 21.125c.106.67-1.267 1.44-3.068 1.72-1.801.28-3.347-.037-3.454-.707-.106-.67 1.268-1.44 3.069-1.72 1.8-.28 3.347.037 3.453.707Z" fill="#ff8b78" fill-rule="evenodd" data-name="Vector"/><path d="M20.54 21.031c.454-.09.909-.09 1.363-.03a.7.7 0 0 1 .424.12c.151.09.242.24.181.39-.03.15-.242.24-.424.27-.696.15-1.362.329-2.059.479-.272.06-.575.12-.787-.06a.226.226 0 0 1-.06-.12c0-.06.03-.12.03-.18s-.06-.12-.06-.18c-.031-.15.09-.27.211-.36.363-.239.757-.299 1.181-.329Z" fill="#ff5a27" fill-rule="evenodd" data-name="Vector"/><g data-name="Group"><path d="M17.966 21.99c0-.06.03-.12.09-.12.092-.03.152-.03.243-.06h-.03c.06 0 .09-.03.12-.03.031 0 .092 0 .122.06v.09c-.03.03-.03.06-.06.06l-.364.09c-.06 0-.09-.03-.121-.09Z" fill="#ffb164" fill-rule="evenodd" data-name="Vector"/></g><g data-name="Group"><path d="M18.3 21.42c.12 0 .15.18.03.21-.152.03-.182-.18-.03-.21Z" fill="#ffb164" fill-rule="evenodd" data-name="Vector"/></g><g data-name="Group"><path d="M18.269 21.6s-.03-.03-.03-.06c0 0 .03-.03.03-.06 0 0 .03-.03.06-.03.091-.03.152-.03.243-.03 0 0 .03 0 .06.03 0 0 .03.03.03.06 0 0-.03.03-.03.06 0 0-.03.03-.06.03-.091.03-.152.03-.243.03-.03 0-.06 0-.06-.03Z" fill="#ffb164" fill-rule="evenodd" data-name="Vector"/></g><g data-name="Group"><path d="M18.905 20.971c.03-.03.03-.06.06-.06h.06l.031.03c.03 0 .03.03.03.03v-.03l.03.03-.03-.03.03.03h-.03c0 .03.03.03.03.03h-.03.03c.031 0 .031 0 .061.03s.03.03.03.06v.06l-.03.03c0 .03-.03.03-.03.03h-.03c-.03-.03-.091-.03-.121-.06-.03 0-.06 0-.06-.03s-.031-.03-.031-.06c-.03-.03-.03-.06 0-.09Z" fill="#ffb164" fill-rule="evenodd" data-name="Vector"/></g><g data-name="Group"><path d="M19.54 20.791v-.03c.031-.03.031-.06.061-.06h.06l.031.03c.03 0 .03.03.03.03 0 .06.03.09.03.12v.09c-.03.03-.03.06-.06.06h-.06l-.03-.03c-.031 0-.031-.03-.031-.03 0-.06-.03-.09-.03-.12v-.06Z" fill="#ffb164" fill-rule="evenodd" data-name="Vector"/></g><g data-name="Group"><path d="M20.873 20.791h-.121c-.03 0-.03-.03-.03-.03v-.06c.03 0 .03-.03.03-.03.03-.06.06-.09.09-.12 0 0 0-.03.031-.03h.121c.03 0 .03.03.03.03v.06c-.03 0-.03.03-.03.03-.03.06-.06.09-.09.12Z" fill="#ffb164" fill-rule="evenodd" data-name="Vector"/></g><g data-name="Group"><path d="M21.751 20.762c-.03-.03-.06-.03-.06-.06v-.09c.03-.03.03-.06.06-.06l.182-.09h.09c.031.03.061.03.061.06v.09c-.03.03-.03.06-.06.06l-.182.09h-.09Z" fill="#ffb164" fill-rule="evenodd" data-name="Vector"/></g><g data-name="Group"><path d="M22.417 20.821c0-.06.03-.12.091-.12.091 0 .182 0 .243-.03h-.03c.03-.03.03-.03.06-.03h.09c.031.03.061.03.061.06v.09c-.03.03-.03.06-.06.06-.091.03-.182.06-.303.06-.06.03-.121 0-.152-.09Z" fill="#ffb164" fill-rule="evenodd" data-name="Vector"/></g><g data-name="Group"><path d="M22.932 21.21c0-.029 0-.029.03-.059 0-.03.03-.03.061-.03.091.03.212.03.303.03.06 0 .09.06.09.12 0 .03 0 .03-.03.06 0 .03-.03.03-.06.03a1.04 1.04 0 0 0-.303-.03c-.06 0-.09-.06-.09-.12Z" fill="#ffb164" fill-rule="evenodd" data-name="Vector"/></g><g data-name="Group"><path d="M22.6 21.66s.03-.03.03-.06c0 0 .03-.03.06-.03h.03c0 .03.03.03.03.03l.182.09s.03.03.03.06c0 0-.03.03-.03.06 0 0-.03.03-.06.03h-.03c0-.03-.03-.03-.03-.03l-.182-.09c-.03 0-.03-.03-.03-.06Z" fill="#ffb164" fill-rule="evenodd" data-name="Vector"/></g><g data-name="Group"><path d="M21.933 22.14v-.03c0-.03 0-.03.03-.06 0-.03.03-.03.03-.03h.03c.031 0 .031 0 .061.03.03 0 .061.03.061.06.03.03.03.06.03.09 0 0-.03.03-.03.06 0 0-.03.03-.06.03h-.03c0-.03-.031-.03-.031-.03-.03 0-.03-.03-.03-.03v-.06.03s0-.03-.03-.06c0 .03 0 .03.03.03l-.03-.03c-.031 0-.031-.03-.031 0Z" fill="#ffb164" fill-rule="evenodd" data-name="Vector"/></g><g data-name="Group"><path d="M20.873 22.38c.03-.03.03-.06.06-.06h.061c.03.03.06.03.06.06s.031.06.031.09v.15s-.03.03-.06.03c0 0-.03-.03-.061-.03-.03 0-.03-.03-.03-.03v-.12.03c0-.03-.03-.03-.03-.06s0-.06-.03-.06Z" fill="#ffb164" fill-rule="evenodd" data-name="Vector"/></g><g data-name="Group"><path d="M20.116 22.44s.03-.03.06-.03c0 0 .03.03.061.03 0 0 .03.03.03.06v.12c-.03 0-.03.03-.03.03 0 .03 0 .03-.03.06 0 0 0 .03-.03.03h-.03s-.031-.03-.061-.03c0 0-.03-.03-.03-.06v-.03c.03 0 .03-.03.03-.03.03 0 .03-.03.03-.03v.03-.06.06-.06.03-.12Z" fill="#ffb164" fill-rule="evenodd" data-name="Vector"/></g><g data-name="Group"><path d="M19.39 22.26s.03.03.06.03c0 0 .03.03.03.06 0 0-.03.03-.03.06a.704.704 0 0 1-.212.21c-.03.03-.03.03-.06.03h-.031c-.03 0-.03 0-.06-.03-.03 0-.03-.03-.03-.06s0-.06.03-.06c.03-.03.09-.06.12-.09l-.03.03c.03-.03.03-.06.06-.09.031-.03.061-.03.152-.09Z" fill="#ffb164" fill-rule="evenodd" data-name="Vector"/></g><g data-name="Group"><path d="M18.36 22.53h-.121c-.03 0-.03-.03-.03-.03v-.06c.03 0 .03-.03.03-.03.03 0 .03-.03.06-.06 0 0 0-.03.03-.03h.121c.03 0 .03.03.03.03v.06c-.03 0-.03.03-.03.03-.03 0-.03.03-.06.06l-.03.03Z" fill="#ffb164" fill-rule="evenodd" data-name="Vector"/></g><path d="M18.148 23.278c.363-.21.726.27.908.45.091.12.242.18.394.24.06.03.151.09.151.15 0 .09-.09.15-.181.15-.243.03-.485-.09-.697-.18-.182-.09-.908-.57-.575-.81Z" fill="#fff" fill-rule="evenodd" data-name="Vector"/></g><g data-name="Group"><path d="M30.412 15.129s2.332 2.097-.515 4.674c-2.846 2.576-4.693.3-4.693.3l5.208-4.974Z" fill="#e24c24" fill-rule="evenodd" data-name="Vector"/><path d="M30.448 15.19c.54.565-.195 2.12-1.641 3.473-1.447 1.353-3.057 1.991-3.597 1.426-.54-.565.195-2.12 1.641-3.473 1.446-1.352 3.057-1.99 3.597-1.426Z" fill="#ff5a27" fill-rule="evenodd" data-name="Vector"/><path d="M30.228 15.396c.47.493-.221 1.897-1.546 3.137-1.325 1.239-2.78 1.843-3.252 1.35-.47-.493.221-1.897 1.546-3.136s2.78-1.844 3.252-1.35Z" fill="#ff8b78" fill-rule="evenodd" data-name="Vector"/><path d="M27.323 17.196c.333-.33.727-.57 1.12-.78a.728.728 0 0 1 .425-.149c.151 0 .333.09.363.24.03.18-.09.36-.212.48-.484.539-.939 1.048-1.423 1.557-.182.21-.394.42-.666.39-.061 0-.091-.03-.122-.06-.03-.03-.03-.09-.06-.15-.06-.06-.121-.09-.152-.12-.12-.12-.09-.3-.03-.42.182-.389.454-.658.757-.988Z" fill="#ff5a27" fill-rule="evenodd" data-name="Vector"/><g data-name="Group"><path d="M25.779 19.473c-.03-.06-.03-.12 0-.15.06-.06.09-.12.151-.18l-.03.03c0-.03.03-.06.06-.09.061-.03.091-.06.152-.03.03 0 .06.03.06.06.03 0 0 .03 0 .06-.06.12-.15.21-.242.3-.03.03-.12.03-.151 0Z" fill="#ffb164" fill-rule="evenodd" data-name="Vector"/></g><g data-name="Group"><path d="M25.718 18.844c.121-.09.243.06.152.15s-.243-.06-.152-.15Z" fill="#ffb164" fill-rule="evenodd" data-name="Vector"/></g><g data-name="Group"><path d="M25.81 19.024c-.031 0-.031 0-.061-.03-.03 0-.03-.03-.03-.06 0 0 0-.03.03-.06.06-.06.12-.09.181-.15 0-.03.03-.03.06-.03.031 0 .031 0 .061.03.03 0 .03.03.03.06 0 0 0 .03-.03.06-.06.06-.12.09-.181.15-.03 0-.06.03-.06.03Z" fill="#ffb164" fill-rule="evenodd" data-name="Vector"/></g><g data-name="Group"><path d="M26.082 18.125c-.03 0 0-.03 0-.06l.03-.03c0-.03.03-.03.03-.03h.06-.03.03-.03.03-.03.03-.03.091l.03.03.031.03v.06l-.03.03c0 .03-.03.03-.03.03-.03.03-.091.03-.122.03h-.06c-.03 0-.03-.03-.06-.03-.031 0-.061-.03.06-.06Z" fill="#ffb164" fill-rule="evenodd" data-name="Vector"/></g><g data-name="Group"><path d="M26.385 17.615v-.03c-.03 0 0-.03 0-.06l.03-.03c0-.03.03-.03.03-.03h.06c.031 0 .061.03.092.06 0 0 .03 0 .03.03v.03c.03 0 0 .03 0 .06l-.03.03c0 .03-.03.03-.03.03h-.061c-.03 0-.06-.03-.091-.06 0 0 0-.03-.03-.03Z" fill="#ffb164" fill-rule="evenodd" data-name="Vector"/></g><g data-name="Group"><path d="m27.505 16.866-.03.03c-.03.03-.03.03-.06.03h-.061l-.03-.03c-.031 0-.031-.03-.031-.03v-.24l.03-.03c.03-.03.03-.03.06-.03h.061l.03.03c.031 0 .031.03.031.03v.24Z" fill="#ffb164" fill-rule="evenodd" data-name="Vector"/></g><g data-name="Group"><path d="M28.202 16.357c0 .03-.03 0-.061 0-.03 0-.06-.03-.06-.06-.03 0 0-.03 0-.06l.09-.18c0-.03.03-.06.06-.06 0-.03.031 0 .061 0s.061.03.061.06c.03 0 0 .03 0 .06l-.09.18c0 .03-.031.03-.061.06Z" fill="#ffb164" fill-rule="evenodd" data-name="Vector"/></g><g data-name="Group"><path d="M28.837 16.057c-.03-.03-.03-.12 0-.15.061-.03.091-.09.152-.15l-.03.03c0-.03.03-.03.03-.06s.03-.06.06-.06c0-.03.03 0 .061 0 .03 0 .06.03.06.06.03 0 0 .03 0 .06a.81.81 0 0 1-.211.24c-.061.03-.091.03-.122.03Z" fill="#ffb164" fill-rule="evenodd" data-name="Vector"/></g><g data-name="Group"><path d="M29.443 16.058v-.06c.03-.03.03-.06.06-.06.061-.06.152-.09.243-.15.03-.03.09 0 .121.03v.06c-.03.03-.03.06-.06.06-.061.06-.152.09-.243.15-.03.03-.12 0-.12-.03Z" fill="#ffb164" fill-rule="evenodd" data-name="Vector"/></g><g data-name="Group"><path d="M29.413 16.627c-.03 0-.03-.03-.03-.06s0-.03.03-.06c0-.03.03-.03.03-.03h.242c.03 0 .03 0 .06.03.031 0 .031.03.031.06s0 .03-.03.06c0 .03-.03.03-.03.03h-.243c-.03 0-.06-.03-.06-.03Z" fill="#ffb164" fill-rule="evenodd" data-name="Vector"/></g><g data-name="Group"><path d="m29.08 17.316-.03-.03v-.06l.03-.03c0-.03.03-.03.03-.03h.06c.03 0 .061.03.091.03l.06.06c.031 0 .031.03.031.06s0 .03-.03.06c0 .03-.03.03-.03.03h-.06l-.031-.03.03.03s-.03-.03-.06-.03h.03-.03c-.03 0-.061-.03-.091-.06Z" fill="#ffb164" fill-rule="evenodd" data-name="Vector"/></g><g data-name="Group"><path d="M28.413 18.125c-.03 0 0-.03 0-.06l.03-.03c0-.03.031-.03.031-.03 0-.03.03 0 .06 0 .03.03.061.03.091.06l.061.06c.03.03.03.03.03.06v.03c0 .03 0 .03-.03.06 0 .03-.03.03-.06.03h-.03l-.031-.03-.06-.06.03.03c-.03 0-.03-.03-.06-.03-.031-.03-.062-.03-.062-.09Z" fill="#ffb164" fill-rule="evenodd" data-name="Vector"/></g><g data-name="Group"><path d="M27.868 18.604c0-.03 0-.03.03-.06 0-.03.031-.03.061-.03s.03 0 .06.03c0 .03.031.03.031.06.03.03.03.03.03.06v.15l-.03.03c0 .03-.03.03-.06.03s-.03 0-.061-.03c-.03 0-.03-.03-.03-.03v-.06.03s0-.03-.03-.06l.03.03-.03-.03c.03 0 .03.03 0 0 .03.03 0 0 0 0 0-.03-.03-.03 0-.12Z" fill="#ffb164" fill-rule="evenodd" data-name="Vector"/></g><g data-name="Group"><path d="M27.081 18.994c0-.03.03-.03.06-.03.031 0 .061 0 .092.06.03 0 .03.03.03.06 0 .09-.03.18-.06.27l-.031.03-.03.03h-.06c-.031-.03-.061-.03-.061-.06v-.06c0-.06.03-.09.03-.15v.03-.12c0-.03 0-.06.03-.06Z" fill="#ffb164" fill-rule="evenodd" data-name="Vector"/></g><g data-name="Group"><path d="m26.415 19.743-.03.03c-.03.03-.03.03-.061.03h-.06l-.03-.03c-.031 0-.031-.03-.031-.03v-.18l.03-.03c.03-.03.03-.03.06-.03h.061l.03.03c.03 0 .03.03.03.03v.18Z" fill="#ffb164" fill-rule="evenodd" data-name="Vector"/></g><path d="M26.687 20.432c.152-.39.727-.18 1-.15.181.03.333 0 .484-.03.091-.03.182-.03.212.03.03.09-.03.18-.09.24-.213.15-.455.21-.697.24-.182.03-1.09.06-.909-.33Z" fill="#fff" fill-rule="evenodd" data-name="Vector"/></g><g data-name="Group"><path d="M35.378 20.762s1.424 2.816-2.21 4.164c-3.634 1.349-4.482-1.468-4.482-1.468l6.692-2.696Z" fill="#e24c24" fill-rule="evenodd" data-name="Vector"/><path d="M35.402 20.84c.287.724-.982 1.893-2.835 2.613-1.853.719-3.587.715-3.874-.01-.287-.723.982-1.893 2.835-2.612 1.852-.72 3.587-.715 3.874.009Z" fill="#ff5a27" fill-rule="evenodd" data-name="Vector"/><path d="M35.12 20.95c.25.63-.922 1.677-2.62 2.335-1.696.659-3.275.681-3.525.05-.25-.632.922-1.678 2.619-2.337 1.697-.658 3.276-.68 3.526-.049Z" fill="#ff8b78" fill-rule="evenodd" data-name="Vector"/><path d="M31.744 21.6c.424-.21.879-.27 1.333-.329a.787.787 0 0 1 .454.03c.152.03.242.18.242.33 0 .18-.212.27-.363.36l-1.908.898c-.272.12-.545.21-.787.09-.03-.03-.091-.06-.091-.09-.03-.06 0-.12 0-.18-.03-.06-.06-.09-.09-.15-.061-.15.06-.3.15-.39.303-.299.667-.449 1.06-.568Z" fill="#ff5a27" fill-rule="evenodd" data-name="Vector"/><g data-name="Group"><path d="M29.443 23.069c-.03-.03 0-.09.06-.12.061-.03.152-.09.213-.12h-.03c.03-.03.06-.03.09-.06.06-.03.121-.03.152.03.03.03.03.06.03.09s0 .06-.03.06c-.091.06-.212.12-.334.18-.03.03-.09 0-.151-.06Z" fill="#ffb164" fill-rule="evenodd" data-name="Vector"/></g><g data-name="Group"><path d="M29.655 22.47c.121-.06.182.12.06.18-.12.06-.181-.15-.06-.18Z" fill="#ffb164" fill-rule="evenodd" data-name="Vector"/></g><g data-name="Group"><path d="M29.625 22.649c-.03 0-.06-.03-.06-.06v-.09c0-.03.03-.06.06-.06.06-.03.151-.03.212-.06h.09c.03 0 .061.03.061.06v.09c0 .03-.03.06-.06.06-.061.03-.152.03-.212.06h-.091Z" fill="#ffb164" fill-rule="evenodd" data-name="Vector"/></g><g data-name="Group"><path d="M30.26 21.9c0-.03 0-.03.031-.06 0-.03.03-.03.03-.03h.06l.031.03-.03-.03.03.03h-.03c0 .03.03.03.03.03h-.03.03-.03.03s.03 0 .06.03c0 0 .031 0 .031.03v.06c-.03 0-.03.03-.03.03 0 .03-.03.03-.03.03h-.03c-.031 0-.092 0-.122-.03-.03 0-.03-.03-.06-.03s-.061 0-.061-.03c-.03 0-.03-.03.09-.06Z" fill="#ffb164" fill-rule="evenodd" data-name="Vector"/></g><g data-name="Group"><path d="M30.715 21.57v-.03c0-.03 0-.03.03-.06 0-.03.03-.03.03-.03h.061l.03.03c.03.03.03.06.06.09.031.03.031.03.031.06v.03c0 .03 0 .03-.03.06 0 .03-.03.03-.03.03h-.061l-.03-.03c-.03-.03-.03-.06-.06-.09 0-.03 0-.03-.031-.06Z" fill="#ffb164" fill-rule="evenodd" data-name="Vector"/></g><g data-name="Group"><path d="M32.047 21.27h-.12l-.031-.03c-.03 0-.03-.03-.03-.03v-.059c.03-.03.03-.09.06-.12l.03-.03h.121l.03.03c.031 0 .031.03.031.03v.06c-.03.03-.03.09-.06.12l-.03.03Z" fill="#ffb164" fill-rule="evenodd" data-name="Vector"/></g><g data-name="Group"><path d="M32.865 21.061c-.03 0-.03 0-.06-.03-.031-.03-.031-.06-.031-.09s0-.03.03-.06.091-.09.152-.12c.03-.03.06-.03.09-.03s.03 0 .061.03c.03.03.03.06.03.09s0 .03-.03.06-.09.09-.151.12c0 .03-.03.03-.091.03Z" fill="#ffb164" fill-rule="evenodd" data-name="Vector"/></g><g data-name="Group"><path d="M33.561 21.031c-.03-.03 0-.09.061-.12.06-.03.151-.06.212-.09h-.03c.03 0 .03-.03.06-.03.03-.03.06-.03.091-.03.03 0 .03 0 .06.03s.03.06.03.09 0 .06-.03.06c-.09.03-.211.09-.302.12-.06 0-.121-.03-.152-.03Z" fill="#ffb164" fill-rule="evenodd" data-name="Vector"/></g><g data-name="Group"><path d="M34.137 21.241s.03-.03.03-.06c0 0 .03-.03.06-.03.091-.03.213-.03.303-.06.061 0 .122.03.122.09 0 0-.03.03-.03.06 0 0-.031.03-.061.03-.091.03-.212.03-.303.06-.06.03-.121-.03-.121-.09Z" fill="#ffb164" fill-rule="evenodd" data-name="Vector"/></g><g data-name="Group"><path d="M33.895 21.75v-.09c0-.03.03-.06.06-.06h.06c.092.03.152.03.213.06.03 0 .06.03.06.06v.09c0 .03-.03.06-.06.06h-.06c-.092-.03-.152-.03-.213-.06-.03 0-.03-.03-.06-.06Z" fill="#ffb164" fill-rule="evenodd" data-name="Vector"/></g><g data-name="Group"><path d="M33.38 22.32v-.03s.03-.03.03-.06.03-.03.03-.03h.03s.03 0 .061.03l.06.06s.031.03.031.06v.09c0 .03-.03.06-.06.06H33.5l-.03-.03c-.03 0-.03-.03-.03-.03v-.03.03l-.061-.06c.03 0 .03 0 .03.03l-.03-.03v-.06Z" fill="#ffb164" fill-rule="evenodd" data-name="Vector"/></g><g data-name="Group"><path d="M32.471 22.799c0-.03 0-.03.03-.06 0-.03.03-.03.03-.03h.031c.03 0 .03 0 .06.03.031.03.031.06.061.09 0 0 .03.03.03.06v.09c0 .03-.03.06-.06.06h-.09l-.031-.03c-.03 0-.03-.03-.03-.03s-.03-.03-.03-.06v.03c0-.03-.031-.03-.031-.06-.03-.03-.03-.06.03-.09Z" fill="#ffb164" fill-rule="evenodd" data-name="Vector"/></g><g data-name="Group"><path d="M31.654 23.099c0-.03.03-.06.06-.06h.091c.03.03.06.03.06.06.031.03.031.03.031.06v.09c0 .03-.03.03-.03.06l-.03.03h-.122c-.03 0-.06-.03-.06-.06v-.06c.03 0 .03-.03.03-.03v.03-.06c.03.03.03.03 0 .06v-.06.03-.03c0-.03 0-.06-.03-.06Z" fill="#ffb164" fill-rule="evenodd" data-name="Vector"/></g><g data-name="Group"><path d="M30.775 23.069h.091c.03 0 .06.03.06.06v.09c-.03.09-.09.18-.15.239 0 0 0 .03-.03.03h-.031s-.03-.03-.06-.03c0 0-.031-.03-.031-.06 0 0 0-.03.03-.06s.06-.06.091-.12v.03c.03-.03.06-.06.06-.09s.031-.06-.03-.09Z" fill="#ffb164" fill-rule="evenodd" data-name="Vector"/></g><g data-name="Group"><path d="M29.958 23.518h-.121l-.03-.03c-.03 0-.03-.03-.03-.03v-.06c0-.03.03-.06.03-.09l.03-.03h.12l.031.03c.03 0 .03.03.03.03v.06c0 .03-.03.06-.03.09l-.03.03Z" fill="#ffb164" fill-rule="evenodd" data-name="Vector"/></g><path d="M29.897 24.297c.303-.3.757.09 1 .24.151.09.302.12.454.15.09.03.151.06.181.12.03.09-.06.15-.15.179-.243.06-.485.03-.728-.03-.181-.06-1.03-.36-.757-.66Z" fill="#fff" fill-rule="evenodd" data-name="Vector"/></g><g data-name="Group"><path d="M15.392 24.956s-2.756 1.558-4.36-1.888c-1.606-3.475 1.18-4.524 1.18-4.524l3.18 6.412Z" fill="#e24c24" fill-rule="evenodd" data-name="Vector"/><path d="M15.067 21.143c.851 1.78.966 3.492.256 3.825-.71.333-1.977-.84-2.83-2.62-.851-1.78-.966-3.492-.255-3.825.71-.333 1.977.84 2.829 2.62Z" fill="#ff5a27" fill-rule="evenodd" data-name="Vector"/><path d="M14.902 21.22c.78 1.63.91 3.187.29 3.477-.619.29-1.754-.796-2.534-2.426-.78-1.63-.91-3.187-.29-3.477.62-.29 1.754.796 2.534 2.426Z" fill="#ff8b78" fill-rule="evenodd" data-name="Vector"/><path d="M14.362 21.36c.212.39.334.84.424 1.289.03.15.06.3 0 .45-.06.15-.181.27-.333.27-.181 0-.303-.18-.393-.33-.364-.6-.697-1.199-1.06-1.798-.121-.24-.273-.51-.152-.75l.091-.09h.182c.06 0 .09-.059.151-.089.121-.06.273.03.394.12.303.27.484.63.696.929Z" fill="#ff5a27" fill-rule="evenodd" data-name="Vector"/><g data-name="Group"><path d="M12.636 19.263c.03 0 .091 0 .121.06s.091.15.122.21v-.03c.03.03.03.06.06.09.03.06.03.12 0 .15 0 .03-.03.03-.06.03s-.061 0-.061-.03c-.09-.12-.151-.21-.212-.33-.03-.06 0-.12.03-.15Z" fill="#ffb164" fill-rule="evenodd" data-name="Vector"/></g><g data-name="Group"><path d="M13.272 19.413c.06.12-.12.21-.181.09s.12-.21.181-.09Z" fill="#ffb164" fill-rule="evenodd" data-name="Vector"/></g><g data-name="Group"><path d="M13.09 19.413c.03-.03.03-.06.061-.06h.091c.03.03.06.03.06.06.03.06.061.15.091.21v.09c-.03.03-.03.06-.06.06h-.091c-.03-.03-.06-.03-.06-.06-.03-.06-.061-.15-.091-.21v-.09Z" fill="#ffb164" fill-rule="evenodd" data-name="Vector"/></g><g data-name="Group"><path d="M13.908 19.952c.03 0 .03 0 .06.03.031 0 .031.03.031.03v.06l-.03.03.03-.03c-.03 0-.03.03-.03.03v-.03.03-.03.03-.03.03s-.03.03-.03.06c0 0 0 .03-.03.03h-.091l-.031-.03c-.03 0-.03-.03-.03-.03-.03-.03 0-.09 0-.12s.03-.03.03-.06.03-.06.03-.06c.03-.03.06-.03.091.06Z" fill="#ffb164" fill-rule="evenodd" data-name="Vector"/></g><g data-name="Group"><path d="M14.272 20.432h.03c.03 0 .03 0 .06.03.03 0 .03.03.03.03v.06l-.03.03c-.03.03-.06.03-.09.06s-.03.03-.061.03h-.03c-.03 0-.03 0-.06-.03-.031 0-.031-.03-.031-.03v-.06l.03-.03c.03-.03.06-.03.091-.06 0-.03.03-.03.06-.03Z" fill="#ffb164" fill-rule="evenodd" data-name="Vector"/></g><g data-name="Group"><path d="M14.635 21.69v-.12l.03-.03c0-.03.03-.03.03-.03h.061c.03.03.09.03.121.06l.03.03v.12l-.03.03c0 .03-.03.03-.03.03h-.06c-.031-.03-.092-.03-.122-.06l-.03-.03Z" fill="#ffb164" fill-rule="evenodd" data-name="Vector"/></g><g data-name="Group"><path d="M14.908 22.529c0-.03 0-.03.03-.06 0-.03.03-.03.06-.03s.03 0 .06.03c.031.06.092.09.122.15.03 0 .03.03.03.06s0 .03-.03.06c0 .03-.03.03-.06.03s-.03 0-.061-.03c-.03-.06-.09-.09-.121-.15 0 0-.03-.03-.03-.06Z" fill="#ffb164" fill-rule="evenodd" data-name="Vector"/></g><g data-name="Group"><path d="M15.029 23.188c.03 0 .09 0 .12.06 0 .09.061.15.092.21v-.03c0 .03.03.03.03.06.03 0 .03.03.03.06s0 .03-.03.06c0 .03-.03.03-.06.03-.031 0-.061 0-.061-.03-.06-.09-.121-.18-.152-.27-.03-.06-.03-.12.03-.15Z" fill="#ffb164" fill-rule="evenodd" data-name="Vector"/></g><g data-name="Group"><path d="M14.817 23.757s.03.03.06.03c0 0 .03.03.03.06 0 .12.03.21.061.3 0 .06-.03.12-.09.12 0 0-.031-.03-.061-.03 0 0-.03-.03-.03-.06 0-.12-.03-.21-.061-.3 0-.06.03-.09.09-.12Z" fill="#ffb164" fill-rule="evenodd" data-name="Vector"/></g><g data-name="Group"><path d="M14.272 23.578h.09c.03.03.061.03.061.06v.06c-.03.09-.03.15-.06.21-.03.03-.03.06-.061.06h-.091c-.03-.03-.06-.03-.06-.06v-.06c.03-.09.03-.15.06-.21.03-.03.03-.06.06-.06Z" fill="#ffb164" fill-rule="evenodd" data-name="Vector"/></g><g data-name="Group"><path d="M13.666 23.068h.03s.03.03.06.03l.031.03c.03 0 .03.03.03.03s-.03.03-.03.06l-.06.06c0 .03-.03.06-.061.06h-.09c-.031-.03-.061-.03-.061-.06v-.06l.03-.03c0-.03.03-.03.03-.03h.03-.03l.06-.06-.03.03.03-.03.031-.03Z" fill="#ffb164" fill-rule="evenodd" data-name="Vector"/></g><g data-name="Group"><path d="M13.12 22.23c.031 0 .031 0 .061.03.03 0 .03.03.03.03v.03c0 .03 0 .03-.03.06s-.06.03-.09.06c0 0-.03.03-.061.03h-.09c-.031-.03-.061-.03-.061-.06v-.09l.03-.03c0-.03.03-.03.03-.03s.03-.03.091-.06c-.03.03-.03.03-.06.03.03 0 .03 0 .06-.03s.06-.03.09.03Z" fill="#ffb164" fill-rule="evenodd" data-name="Vector"/></g><g data-name="Group"><path d="M12.788 21.48c.03.03.06.03.06.06v.09c-.03.03-.03.06-.06.06-.03.03-.03.03-.06.03h-.091c-.03-.03-.03-.03-.061-.03l-.03-.03v-.12c.03-.03.03-.06.06-.06h.09-.03.061-.06.06-.03.03c.03-.03.06-.03.06 0Z" fill="#ffb164" fill-rule="evenodd" data-name="Vector"/></g><g data-name="Group"><path d="M12.727 20.612v.09c-.03.03-.03.06-.06.06h-.091a.66.66 0 0 1-.242-.15s-.03 0-.03-.03v-.03s.03-.03.03-.06c0 0 .03-.03.06-.03h.091c.03.03.06.06.121.09h-.03c.03 0 .06.03.09.03.03.03.061.03.061.03Z" fill="#ffb164" fill-rule="evenodd" data-name="Vector"/></g><g data-name="Group"><path d="M12.243 19.773v-.12l.03-.03c0-.03.03-.03.03-.03h.06c.031 0 .061.03.092.03l.03.03v.12l-.03.03c0 .03-.03.03-.03.03h-.061c-.03 0-.06-.03-.091-.03-.03 0-.03 0-.03-.03Z" fill="#ffb164" fill-rule="evenodd" data-name="Vector"/></g><path d="M11.455 19.833c.303.27-.06.749-.181.988-.091.12-.091.3-.122.45 0 .06-.03.15-.09.18s-.152-.06-.182-.15c-.09-.21-.06-.48-.03-.72.03-.18.272-1.018.605-.748Z" fill="#fff" fill-rule="evenodd" data-name="Vector"/></g><path d="M14.18 21.63c.394-.24 1-.15 1.273.21.333-.48 1.09-.57 1.574-.27.515.3.788.9.788 1.468.817-.27 1.696.33 2.18 1.05.09.119.151.239.273.329.151.09.333.12.514.12 1.454.18 2.726 1.378 2.998 2.816.091.45.06.929-.181 1.288-.212.3-.545.48-.848.63-.364.18-.727.389-1.151.419-1.181.09-1.968-1.199-3.028-1.678-.878-.39-1.908-.24-2.786-.63-.697-.299-1.363-.898-1.969-1.347-.514-.39-.847-.78-1.03-1.379-.241-.749-.12-2.187 1.06-1.827-.181-.42-.06-.96.334-1.199Z" fill="#89e269" fill-rule="evenodd" data-name="Vector"/><g data-name="Group"><path d="M40.557 28.462c-2.907 6.202-6.905 7.31-6.905 7.31l-8.206.15-8.207-.15s-4.027-1.138-6.934-7.34c-1.938-4.135-1.666-7.55-1.666-7.55h.727c.182 2.217 6.117 4.134 16.14 4.134 10.357 0 16.02-1.468 16.14-4.134h.728s.09 3.415-1.817 7.58Z" fill="#edceb9" fill-rule="evenodd" data-name="Vector"/><path d="M31.381 38.619c-2.665.779-8.267 1.168-11.689 0-2.513-.84-2.453-1.498-2.453-1.498v-1.349l8.267-1.108 8.267 1.018v1.439s.122.749-2.392 1.498Z" fill="#edceb9" fill-rule="evenodd" data-name="Vector"/><path d="M19.692 38.589c-2.513-.84-2.453-1.499-2.453-1.499.091.03.152.09.212.12.697.48 1.575.72 2.423.93 2.725.658 5.572 1.048 8.358.419.363-.09.757-.21.908-.54.243-.539-.06-1.228-.03-1.797.03-.54.454-.75.878-1.02h.03l3.786.48v1.438s.09.75-2.453 1.498c-2.665.78-8.267 1.169-11.659-.03Z" fill="#eabfac" fill-rule="evenodd" data-name="Vector"/><path d="M16.634 27.173c.272.48.333 1.079.454 1.618a8.299 8.299 0 0 0 1.03 2.307c.181.3.363.6.363.96-.03.329-.242.658-.545.808-.303.15-.667.18-1 .12-.969-.18-1.635-1.019-2.18-1.828-.757-1.138-1.423-2.307-1.908-3.565-.181-.48-.333-.989-.151-1.438.545-1.468 3.422.12 3.937 1.018ZM20.934 36.79c.242 0 .545.06.666.27.121.24-.06.54-.303.63-.242.12-.515.09-.787.03-.697-.12-1.363-.3-1.969-.6-.12-.06-.272-.15-.363-.3-.06-.149-.06-.359.09-.449.092-.06.152-.06.243-.06.787-.03 1.635.39 2.423.48Z" fill="#fff" fill-rule="evenodd" data-name="Vector"/><path d="M40.496 28.462c-2.907 6.202-6.904 7.31-6.904 7.31s-2.968 1.019-6.148 1.019c-3.18 0-7.177-.899-7.177-.899s3.967.27 7.36-.869c2.725-.899 4.965-2.157 7.358-6.621a13.417 13.417 0 0 0 1.362-4.195c3.392-.719 5.209-1.827 5.27-3.325h.726s.091 3.415-1.847 7.58Z" fill="#eabfac" fill-rule="evenodd" data-name="Vector"/><path d="M42.374 20.881c-.09 3.027-5.996 4.674-16.867 4.674-10.508 0-16.716-2.187-16.867-4.644 0-.09.03-.18.03-.27h.727c0 .09-.03.15-.03.24.15 2.218 6.086 4.165 16.14 4.165 10.387 0 16.05-1.468 16.14-4.165v-.24h.727v.24Z" fill="#ffdfca" fill-rule="evenodd" data-name="Vector"/></g><g data-name="Group"><path d="m11.637 17.825 7.692.9s.303.778.272 1.048c-.151 1.708-2.301 2.337-5.117 1.648-2.514-.63-2.968-2.367-2.968-2.367l.151-1.169Z" fill="#59b24f" fill-rule="evenodd" data-name="Vector"/><path d="M15.911 16.547c2.118.407 3.664 1.607 3.453 2.68-.211 1.071-2.1 1.61-4.217 1.202-2.118-.408-3.663-1.608-3.452-2.68.21-1.072 2.098-1.61 4.216-1.202Z" fill="#84d17d" fill-rule="evenodd" data-name="Vector"/><path d="M19.117 19.054c-.06.839-1.666 1.408-3.634 1.108-1.968-.3-3.604-1.438-3.573-2.277.06-.839 1.816-1.468 3.785-1.168 1.938.3 3.452 1.498 3.422 2.337Z" fill="#b0eda9" fill-rule="evenodd" data-name="Vector"/><path d="M13.333 17.885c-.06-.06-.121-.12-.121-.21 0-.15.181-.18.303-.18.272.03.575.09.817.21-.09-.12-.151-.24-.182-.359 0-.03-.03-.06 0-.09.03-.06.122-.03.182 0 .303.15.576.36.818.6a.654.654 0 0 1-.121-.39c0-.15.06-.27.181-.33.152-.06.364.03.485.18s.151.33.182.51c.242-.18.575-.24.878-.15.06.03.151.06.181.12.061.12-.06.21-.151.27.363-.06.787.089 1.06.389.03.03.06.09.06.12s-.03.06-.03.06c-.151.15-.333.21-.545.24-.212.029-.424-.03-.636-.06.212.089.394.209.576.359l.06.06c0 .03 0 .03-.03.06-.152.21-.454.24-.697.12-.242-.09-.454-.3-.636-.48.091.15.152.3.122.48-.03.15-.212.269-.364.21a.8.8 0 0 1-.182-.15 1.606 1.606 0 0 1-.302-.6.504.504 0 0 1-.545.45c-.061 0-.152-.03-.182-.09a.18.18 0 0 1 0-.24c.03-.06.09-.12.182-.18-.212.09-.455.18-.636.03-.06-.06-.091-.12-.06-.18l.09-.09c.09-.06.363-.09.394-.18-.485-.09-.818-.239-1.151-.509Z" fill="#c1ffb8" fill-rule="evenodd" data-name="Vector"/></g><g data-name="Group"><path d="M23.78 22.859c-.212.24-.393.809-.787.719-.394-.09-.333-.69-.212-.959.151-.39.485-.66.818-.899.242-.18.514-.36.787-.51.394-.209.818-.419 1.242-.389.605.03 1.12.48 1.21 1.049 0 .06 0 .12-.03.15-.06.09-.211.03-.302-.03-.455-.24-1.06-.24-1.545-.03-.454.18-.848.51-1.18.899Z" fill="#0a0b0c" fill-rule="evenodd" data-name="Vector"/><path d="M27.445 21.9c.181.57 0 1.198-.394 1.678-.364.48-.909.779-1.454 1.048-.515.24-1.06.48-1.635.42s-1.15-.39-1.423-.899c-.303-.54-.333-1.408.181-1.858.485-.419.97-.838 1.515-1.138.575-.3 1.21-.48 1.847-.39.636.09 1.211.51 1.363 1.139Zm-1.272-.45a.943.943 0 0 0-.394-.18c-.363-.09-.757-.03-1.12.12-.636.27-2.12.99-1.545 1.918.121.24.424.36.697.39.272.03.545-.06.817-.15.303-.12.606-.24.909-.42.303-.18.605-.42.757-.719.181-.3.151-.719-.121-.958Z" fill="#36383f" fill-rule="evenodd" data-name="Vector"/></g><g data-name="Group"><path d="M16.3 16.807c-.211.24-.393.809-.787.719-.393-.09-.333-.69-.212-.959.152-.39.485-.659.818-.899.242-.18.515-.36.787-.509.394-.21.818-.42 1.242-.39.605.03 1.12.48 1.211 1.05 0 .059 0 .119-.03.149-.06.09-.212.03-.303-.03-.454-.24-1.06-.24-1.544-.03-.455.18-.848.51-1.181.899Z" fill="#0a0b0c" fill-rule="evenodd" data-name="Vector"/><path d="M19.965 15.818c.181.57 0 1.198-.394 1.678-.363.48-.908.779-1.453 1.048-.515.24-1.06.48-1.636.42-.575-.06-1.15-.39-1.423-.899-.303-.54-.333-1.408.182-1.858.484-.419.969-.838 1.514-1.138.575-.3 1.211-.48 1.847-.39.636.09 1.211.51 1.363 1.139Zm-1.272-.45a.943.943 0 0 0-.394-.18c-.363-.09-.757-.03-1.12.12-.636.27-2.12.99-1.545 1.918.121.24.424.36.697.39.272.03.545-.06.817-.15.303-.12.606-.24.909-.42.303-.18.606-.39.757-.689.182-.33.151-.749-.121-.988Z" fill="#36383f" fill-rule="evenodd" data-name="Vector"/></g><g data-name="Group"><path d="M37.68 17.136c-.303-.09-.909 0-1-.39-.09-.39.485-.599.788-.629.424-.03.818.15 1.18.33.273.15.546.3.819.48.363.239.726.538.908.928.242.51.06 1.198-.424 1.528-.03.03-.09.06-.151.06-.122-.03-.122-.18-.122-.3 0-.51-.272-1.018-.666-1.378a2.624 2.624 0 0 0-1.332-.63Z" fill="#0a0b0c" fill-rule="evenodd" data-name="Vector"/><path d="M40.254 19.982c-.424.39-1.12.48-1.696.36-.606-.15-1.12-.48-1.605-.84-.454-.359-.908-.748-1.12-1.287a1.774 1.774 0 0 1 .181-1.648c.333-.51 1.151-.9 1.757-.66.575.24 1.18.48 1.695.84.515.359.97.868 1.151 1.468.182.629.06 1.318-.363 1.767Zm-.242-1.378c.03-.12.03-.27 0-.42-.091-.389-.303-.688-.606-.958-.515-.48-1.817-1.438-2.423-.54-.151.24-.12.54-.03.81s.273.479.485.659c.242.24.514.45.787.629.272.18.606.36.969.36.363.03.727-.18.818-.54Z" fill="#36383f" fill-rule="evenodd" data-name="Vector"/></g><g data-name="Group"><path d="M38.437 16.537s.03 1.228-.666 2.067c-.333.39-1.817 2.637-5.481 3.536-3.665.898-4.936-2.218-4.936-2.218l11.083-3.385Z" fill="#ffecd7" fill-rule="evenodd" data-name="Vector"/><path d="M34.56 17.735s.546 2.817-2.876 3.476c-1.726.33-2.695-1.798-2.665-1.798l5.542-1.678Z" fill="#ffdc31" fill-rule="evenodd" data-name="Vector"/><path d="M36.983 17.466c.152-.12.485-.24.576 0v.18c-.06.569-.454 1.018-.818 1.438-.333.389-.696.749-1.12 1.048-.091.06-.182.12-.273.12-.12.03-.242-.03-.272-.12-.06-.12.06-.27.151-.36.515-.509 1.242-.928 1.454-1.647.06-.24.12-.48.302-.66Z" fill="#fff" fill-rule="evenodd" data-name="Vector"/></g></g></g></g><defs><linearGradient x1="1" y1="1" x2="0" y2="0" id="a"><stop stop-color="#f8600d" offset="0"/><stop stop-color="#ffc19d" offset="1"/></linearGradient></defs></svg>