<svg id="path100" xmlns="http://www.w3.org/2000/svg" width="109.952" height="110.03" viewBox="0 0 109.952 110.03">
  <path id="path100-2" data-name="path100" d="M20.2,241.767A79.774,79.774,0,0,1,9.749,240.2a54.972,54.972,0,1,1,26.263-.016A64.958,64.958,0,0,1,20.2,241.767Zm-.529-35.794c.719-.336,6.031-5.486,16.572-16.068,16.583-16.646,16.335-16.357,16.025-18.666a5.191,5.191,0,0,0-4.689-4.183c-1.877,0-2.562.6-16.332,14.361L17.688,194.967l-6.02-5.992a85.887,85.887,0,0,0-6.909-6.437c-1.9-.951-5.84,1.48-5.84,1.48s-1.024,3.056-.691,4.383c.258,1.029,17.475,17.573,17.475,17.573s2.626.626,3.969,0Z" transform="translate(32.132 -131.794)" fill="#f06400"/>
</svg>
