<svg xmlns="http://www.w3.org/2000/svg" width="53.949" height="87.209" viewBox="0 0 53.949 87.209">
  <g id="Exersice" transform="translate(-454.3 -81.158)">
    <g id="Group_6998" data-name="Group 6998" transform="translate(454.3 81.158)">
      <path id="Path_8723" data-name="Path 8723" d="M491.408,414.324c3.63-.386,7.191-1.27,10.821-1.474a41.286,41.286,0,0,1,6.692.25,13.078,13.078,0,0,1,6.465,2.019c1.837,1.361,2.972,3.947,2.019,6.011-1.2,2.563-4.6,3.017-7.441,3.085l-17.331.476a81.04,81.04,0,0,1-9.391-.091,75.67,75.67,0,0,1-13.066-2.586c-2.337-.612-4.4-2.586-3.267-5.217.839-1.951,2.541-1.883,4.4-2.042C478,414.256,484.738,415.028,491.408,414.324Z" transform="translate(-463.8 -337.573)" fill="#9cacbf"/>
      <g id="Group_6997" data-name="Group 6997" transform="translate(0 0)">
        <path id="Path_8724" data-name="Path 8724" d="M542.115,298.748s-.681,6.579-.975,7.509c-.839,2.019-2.768,6.76-2.858,17.6a1.026,1.026,0,0,0,1.928.681c.363-.862,3.97-7.94,4.265-10.072.227-1.5.635-3.04.681-4.265a8.776,8.776,0,0,1,.794-3.38,58.092,58.092,0,0,0,2.563-6.1A7.986,7.986,0,0,0,542.115,298.748Z" transform="translate(-519.226 -249.309)" fill="#ffede5"/>
        <g id="Group_6925" data-name="Group 6925" transform="translate(14.973 72.737)">
          <path id="Path_8725" data-name="Path 8725" d="M533.428,401.8c-.045.25-.93,5.059-1.384,6.4-.476,1.338,2.926.885,2.926.885a22.427,22.427,0,0,1,.544-4.446c.091-.431.567-1.951.567-1.951s-1.021-.113-1.452-.2A2.678,2.678,0,0,1,533.428,401.8Z" transform="translate(-529.346 -401.8)"/>
          <path id="Path_8726" data-name="Path 8726" d="M521.144,425.475a2.18,2.18,0,0,0,1.338-2.178c.136-1.112.045-2.563.862-2.427,1.089.181,1.543.431,1.747,1.543.272,1.406.658,0,.658,0s.113-.34.272-.2a11.054,11.054,0,0,1,.817,3.108c.113,1.134.885,1.747-.318,2.427-1.225.658-5.626.408-6.08-.318C520.01,426.7,520.713,425.747,521.144,425.475Z" transform="translate(-520.306 -416.537)" fill="#fff"/>
          <path id="Path_8727" data-name="Path 8727" d="M526.623,446.252c.817-.454.726-.885.544-1.452a7.329,7.329,0,0,1-6.715.318,1.03,1.03,0,0,0,.091.817C520.975,446.66,525.4,446.91,526.623,446.252Z" transform="translate(-520.386 -435.046)" fill="#c1423f"/>
          <g id="Group_6912" data-name="Group 6912" transform="translate(1.528 8.485)">
            <g id="Group_6911" data-name="Group 6911">
              <path id="Path_8728" data-name="Path 8728" d="M527.169,439.613a2.675,2.675,0,0,1,2.45.227c.113.068.227-.113.113-.181a2.917,2.917,0,0,0-2.631-.25c-.113.045-.045.25.068.2Z" transform="translate(-527.043 -439.206)" fill="#090909"/>
            </g>
          </g>
          <g id="Group_6914" data-name="Group 6914" transform="translate(1.819 8.129)">
            <g id="Group_6913" data-name="Group 6913">
              <path id="Path_8729" data-name="Path 8729" d="M528.5,437.946c.113-.136.794-.068.93-.045a1.642,1.642,0,0,1,1.112.408c.091.091.25-.045.159-.159a1.723,1.723,0,0,0-1.18-.476c-.272-.023-.953-.113-1.157.113-.113.091.045.25.136.159Z" transform="translate(-528.327 -437.637)" fill="#090909"/>
            </g>
          </g>
          <g id="Group_6916" data-name="Group 6916" transform="translate(1.958 7.784)">
            <g id="Group_6915" data-name="Group 6915">
              <path id="Path_8730" data-name="Path 8730" d="M529.065,436.384a2.852,2.852,0,0,1,2.11.363c.113.068.227-.113.113-.181a3.181,3.181,0,0,0-2.268-.386c-.136.023-.091.227.045.2Z" transform="translate(-528.938 -436.115)" fill="#090909"/>
            </g>
          </g>
          <g id="Group_6918" data-name="Group 6918" transform="translate(2.284 7.371)">
            <g id="Group_6917" data-name="Group 6917">
              <path id="Path_8731" data-name="Path 8731" d="M530.515,434.521a2.608,2.608,0,0,1,2,.476c.113.068.227-.113.113-.181a2.829,2.829,0,0,0-2.178-.476c-.136,0-.068.2.068.181Z" transform="translate(-530.373 -434.292)" fill="#090909"/>
            </g>
          </g>
          <g id="Group_6920" data-name="Group 6920" transform="translate(0.949 7.177)">
            <g id="Group_6919" data-name="Group 6919">
              <path id="Path_8732" data-name="Path 8732" d="M526.6,433.542c-.2,0-.431.159-.227.363.181.181.454-.045.386-.272-.091-.25-.544-.272-.612,0a.21.21,0,0,0,.34.2.113.113,0,0,0-.045-.2c-.476-.068-1.565-.091-1.883.386-.272.386.318.431.59.408.862-.091,1.5-.749,2.427-.726a1.466,1.466,0,0,1,.612.113c.386.091.454.363.159.817a1.862,1.862,0,0,1-.5-.045,3.13,3.13,0,0,1-1.27-.907c-.113-.091-.25.068-.159.159.59.5,1.18,1.18,2.064,1a.485.485,0,0,0,.272-.885,2.131,2.131,0,0,0-2.042-.318c-.5.136-.953.567-1.475.59a.215.215,0,0,1-.295-.045c-.182-.068-.159-.113.045-.136a1.506,1.506,0,0,1,.454-.136,3.21,3.21,0,0,1,1.044-.023.662.662,0,0,1-.045-.2c.068.045.159.068.227.113.068-.045.068-.25-.068-.25Z" transform="translate(-524.491 -433.437)" fill="#090909"/>
            </g>
          </g>
          <g id="Group_6922" data-name="Group 6922" transform="translate(1.812 7.361)">
            <g id="Group_6921" data-name="Group 6921">
              <path id="Path_8733" data-name="Path 8733" d="M529.247,434.352a2.019,2.019,0,0,1-.907,1.679c-.113.068,0,.25.113.181a2.218,2.218,0,0,0,1.021-1.86c-.023-.136-.227-.136-.227,0Z" transform="translate(-528.293 -434.25)" fill="#090909"/>
            </g>
          </g>
          <g id="Group_6924" data-name="Group 6924" transform="translate(2.918 7.399)">
            <g id="Group_6923" data-name="Group 6923">
              <path id="Path_8734" data-name="Path 8734" d="M533.178,434.549a2.948,2.948,0,0,0,1.316,2.042c.113.068.227-.113.113-.181a2.665,2.665,0,0,1-1.2-1.928c-.068-.113-.272-.068-.227.068Z" transform="translate(-533.171 -434.417)" fill="#090909"/>
            </g>
          </g>
          <path id="Path_8735" data-name="Path 8735" d="M544.806,435.839a.369.369,0,0,0-.068.34.336.336,0,0,0,.272.181,1.073,1.073,0,0,0,.386.023c.045,0,.068,0,.091-.023a.162.162,0,0,0,.068-.136,1.068,1.068,0,0,0-.091-.386c-.068-.227-.045-.681-.181-.839C545.123,435.272,544.965,435.567,544.806,435.839Z" transform="translate(-539.181 -427.469)" fill="#c1423f"/>
        </g>
        <path id="Path_8736" data-name="Path 8736" d="M609,298.748s.681,6.579.975,7.509c.839,2.019,2.768,6.76,2.858,17.6a1.026,1.026,0,0,1-1.928.681c-.363-.862-3.97-7.94-4.265-10.072-.227-1.5-.635-3.04-.681-4.265a8.777,8.777,0,0,0-.794-3.38,58.094,58.094,0,0,1-2.563-6.1A7.986,7.986,0,0,1,609,298.748Z" transform="translate(-568.959 -249.309)" fill="#ffede5"/>
        <g id="Group_6940" data-name="Group 6940" transform="translate(41.05 72.737)">
          <path id="Path_8737" data-name="Path 8737" d="M638.654,401.8c.045.25.93,5.059,1.384,6.4.476,1.338-2.926.885-2.926.885a22.427,22.427,0,0,0-.544-4.446c-.091-.431-.567-1.951-.567-1.951s1.021-.113,1.452-.2A2.678,2.678,0,0,0,638.654,401.8Z" transform="translate(-635.832 -401.8)"/>
          <path id="Path_8738" data-name="Path 8738" d="M641.408,425.475a2.18,2.18,0,0,1-1.338-2.178c-.136-1.112-.045-2.563-.862-2.427-1.089.181-1.543.431-1.747,1.543-.272,1.406-.658,0-.658,0s-.113-.34-.272-.2a11.054,11.054,0,0,0-.817,3.108c-.113,1.134-.885,1.747.318,2.427,1.225.658,5.626.408,6.079-.318C642.542,426.7,641.839,425.747,641.408,425.475Z" transform="translate(-635.342 -416.537)" fill="#fff"/>
          <path id="Path_8739" data-name="Path 8739" d="M635.926,446.252c-.817-.454-.726-.885-.544-1.452a7.328,7.328,0,0,0,6.715.318,1.03,1.03,0,0,1-.091.817C641.574,446.66,637.151,446.91,635.926,446.252Z" transform="translate(-635.259 -435.046)" fill="#c1423f"/>
          <g id="Group_6927" data-name="Group 6927" transform="translate(2.617 8.485)">
            <g id="Group_6926" data-name="Group 6926">
              <path id="Path_8740" data-name="Path 8740" d="M649.471,439.409a2.917,2.917,0,0,0-2.631.25c-.113.068,0,.25.113.181a2.616,2.616,0,0,1,2.45-.227.108.108,0,1,0,.068-.2Z" transform="translate(-646.793 -439.206)" fill="#090909"/>
            </g>
          </g>
          <g id="Group_6929" data-name="Group 6929" transform="translate(2.657 8.166)">
            <g id="Group_6928" data-name="Group 6928">
              <path id="Path_8741" data-name="Path 8741" d="M649.358,437.913a.383.383,0,0,0-.318-.091c-.272-.023-.567-.023-.862-.023a1.724,1.724,0,0,0-1.18.476c-.091.091.045.25.159.159a1.642,1.642,0,0,1,1.112-.408c.159,0,.817-.068.93.045.113.091.272-.068.159-.159Z" transform="translate(-646.969 -437.8)" fill="#090909"/>
            </g>
          </g>
          <g id="Group_6931" data-name="Group 6931" transform="translate(2.548 7.784)">
            <g id="Group_6930" data-name="Group 6930">
              <path id="Path_8742" data-name="Path 8742" d="M648.808,436.18a3.161,3.161,0,0,0-2.268.386c-.113.068,0,.25.113.181a2.852,2.852,0,0,1,2.11-.363c.136.023.181-.181.045-.2Z" transform="translate(-646.493 -436.115)" fill="#090909"/>
            </g>
          </g>
          <g id="Group_6933" data-name="Group 6933" transform="translate(2.322 7.351)">
            <g id="Group_6932" data-name="Group 6932">
              <path id="Path_8743" data-name="Path 8743" d="M647.718,434.249a2.973,2.973,0,0,0-2.178.476c-.113.068,0,.272.113.181a2.73,2.73,0,0,1,2-.476c.136.045.2-.159.068-.181Z" transform="translate(-645.493 -434.204)" fill="#090909"/>
            </g>
          </g>
          <g id="Group_6935" data-name="Group 6935" transform="translate(1.537 7.123)">
            <g id="Group_6934" data-name="Group 6934">
              <path id="Path_8744" data-name="Path 8744" d="M644.34,433.562c.068-.045.159-.068.227-.113a.663.663,0,0,0-.045.2,3.2,3.2,0,0,1,.93,0c.2.045,1.044.25.454.363-.476.091-1.112-.454-1.543-.59a2.115,2.115,0,0,0-2.132.272c-.34.363-.227.794.25.885.885.181,1.475-.476,2.064-1,.113-.091-.045-.227-.159-.159a3.843,3.843,0,0,1-1.27.907,1.211,1.211,0,0,1-.5.045c-.272-.408-.272-.658.045-.749a1.4,1.4,0,0,1,.749-.159c.907-.023,1.565.658,2.427.726.272.023.817-.023.59-.408-.295-.476-1.452-.431-1.883-.386a.109.109,0,0,0-.045.2.21.21,0,0,0,.34-.2c-.045-.295-.522-.25-.612,0a.24.24,0,0,0,.386.272c.2-.2-.045-.363-.227-.363-.181.045-.181.25-.045.25Z" transform="translate(-642.034 -433.198)" fill="#090909"/>
            </g>
          </g>
          <g id="Group_6937" data-name="Group 6937" transform="translate(3.908 7.361)">
            <g id="Group_6936" data-name="Group 6936">
              <path id="Path_8745" data-name="Path 8745" d="M652.49,434.352a2.189,2.189,0,0,0,1.021,1.86c.113.068.227-.113.113-.181a2.019,2.019,0,0,1-.907-1.679c0-.136-.2-.136-.227,0Z" transform="translate(-652.487 -434.25)" fill="#090909"/>
            </g>
          </g>
          <g id="Group_6939" data-name="Group 6939" transform="translate(2.521 7.405)">
            <g id="Group_6938" data-name="Group 6938">
              <path id="Path_8746" data-name="Path 8746" d="M647.627,434.525a2.754,2.754,0,0,1-1.2,1.928.107.107,0,0,0,.113.181,3,3,0,0,0,1.316-2.042c0-.159-.2-.2-.227-.068Z" transform="translate(-646.374 -434.445)" fill="#090909"/>
            </g>
          </g>
          <path id="Path_8747" data-name="Path 8747" d="M638.349,435.839a.369.369,0,0,1,.068.34.336.336,0,0,1-.272.181,1.073,1.073,0,0,1-.386.023c-.045,0-.068,0-.091-.023a.162.162,0,0,1-.068-.136,1.069,1.069,0,0,1,.091-.386c.068-.227.045-.681.181-.839C638.031,435.272,638.19,435.567,638.349,435.839Z" transform="translate(-637.069 -427.469)" fill="#c1423f"/>
        </g>
        <path id="Path_8748" data-name="Path 8748" d="M554.973,235.5s6.374,2.087,12.477.045c.817,1.928,2.5,9.346,2.994,17.354-2.223,1.769-3.493,1.906-6.692,1.588-.681-1.928-2.155-7.3-2.268-7.713a2.468,2.468,0,0,1-.817.023s-1.837,6.669-2.427,7.622c-.726-.023-5.444-1.112-6.442-1.905A127.614,127.614,0,0,1,554.973,235.5Z" transform="translate(-529.679 -200.488)"/>
        <g id="Group_6942" data-name="Group 6942" transform="translate(35.936 32.808)">
          <g id="Group_6941" data-name="Group 6941">
            <path id="Path_8749" data-name="Path 8749" d="M612.781,226.7a10.492,10.492,0,0,1,1.588-.817c.045-.023.023-.113-.023-.091a9.071,9.071,0,0,0-1.611.839c-.045.023,0,.113.045.068Z" transform="translate(-612.717 -225.784)" fill="#c16c67"/>
          </g>
        </g>
        <g id="Group_6944" data-name="Group 6944" transform="translate(36.481 32.083)">
          <g id="Group_6943" data-name="Group 6943">
            <path id="Path_8750" data-name="Path 8750" d="M615.183,222.907a3.713,3.713,0,0,1,.862-.227c.068,0,.068-.113,0-.091a3.614,3.614,0,0,0-.885.227c-.068.023-.045.113.023.091Z" transform="translate(-615.119 -222.587)" fill="#c16c67"/>
          </g>
        </g>
        <g id="Group_6946" data-name="Group 6946" transform="translate(37.18 33.477)">
          <g id="Group_6945" data-name="Group 6945">
            <path id="Path_8751" data-name="Path 8751" d="M618.291,229.588c.023-.181.2-.318.318-.454a2.429,2.429,0,0,1,.363-.318.048.048,0,0,0-.068-.068c-.159.136-.295.272-.431.408a1,1,0,0,0-.272.408c0,.068.091.091.091.023Z" transform="translate(-618.2 -228.734)" fill="#c16c67"/>
          </g>
        </g>
        <path id="Path_8752" data-name="Path 8752" d="M497.087,159.554s-3.493,1.906-4.446,3.924c0,0-3.153-1.951-7.917-4.378A3.583,3.583,0,0,1,483,160.28c.023,0,1,1.021,1,1.021s4.923,5.467,9.006,6.42c3.4.794,6.987-4.7,6.987-4.7Z" transform="translate(-476.49 -141.419)" fill="#ffede5"/>
        <path id="Path_8753" data-name="Path 8753" d="M538.1,147.573a11.13,11.13,0,0,0,1.792,2.768,9.818,9.818,0,0,0,2,1.543s.522-.59.907-.34c.408.25,1.021,5.671.771,6.805a4.15,4.15,0,0,0-.136,1.883c.068.272-.59.476-.454,1,.091.295.318.5.431.817a3.142,3.142,0,0,1,.159,1.043,7.393,7.393,0,0,1-.159,1.588.83.83,0,0,0,0,.408c.113.272.454.318.7.408a12.324,12.324,0,0,0,5.059.5,33.451,33.451,0,0,1,3.947-.476c.839,0,1.7.181,2.541.227.544.023,2.178.091,2.4-.544a5.162,5.162,0,0,0-.091-1.429,2.807,2.807,0,0,1,.023-.975,7.384,7.384,0,0,0-.363-3.4c-.363-.408.045-.794.227-1.316a3.623,3.623,0,0,0-.295-2.132c-.272-.454.408-2.654,1.089-4.106s1.5-.272,1.5-.272a4.33,4.33,0,0,1,1.2-1.338,9.963,9.963,0,0,0,2.042-2.359c.068-.227-3.493-2.949-5.1-3.766-1.452-.726-5.785-1.361-8.734-1.248a22.513,22.513,0,0,0-6.715,1.157C540.482,144.761,538.1,147.573,538.1,147.573Z" transform="translate(-519.09 -128.849)" fill="#5764a1"/>
        <path id="Path_8754" data-name="Path 8754" d="M606.085,217.367a5.075,5.075,0,0,0-1.837.34c-.136.068-.295.227-.227.386a.348.348,0,0,0,.363.113,2.176,2.176,0,0,1,1.248.25.227.227,0,0,1,.113.091.25.25,0,0,1-.091.227A4.458,4.458,0,0,1,603,220.157a5.733,5.733,0,0,0,3.2-.34c-.045.159-.227.227-.386.295a4.243,4.243,0,0,0-1.384.885,1.886,1.886,0,0,0,1.112-.113,6.577,6.577,0,0,1,1.089-.318c.091.25-.091.5-.25.7l-.612.749c.749-.386,1.474-.771,2.223-1.157.023-.023.068-.023.091-.068a.288.288,0,0,0,.023-.136c-.068-1.2-.159-2.4-.25-3.584a.576.576,0,0,0-.045-.272,8.7,8.7,0,0,1-.794.408A4.2,4.2,0,0,1,606.085,217.367Z" transform="translate(-569.268 -186.03)" fill="#b68d23" opacity="0.3"/>
        <path id="Path_8755" data-name="Path 8755" d="M609.664,169.585s1.588,2.813,3.675,3.561c0,0-1.815,1-4.537,5.195,0,0-1.2-.59-1.5-.5s-.295.681-1.134.749c-1.134.091-2.972.25-3.062.681s2.064.159,2.064.159-3.244,1.293-3.176,1.792c.091.5,2.518-.454,2.518-.454s-1.5.907-1.225,1.248c.363.476,2.518-.749,2.518-.749s-1.157,1.679-.953,1.951,1.656-1.475,2.654-1.769c.544-.159,1.974-.227,2.291-.681a2.542,2.542,0,0,0,.386-.93s6.579-2.132,7.1-6.306c.34-2.79-4.764-7.032-4.764-7.032a8.816,8.816,0,0,1-1.406,1.611A9.947,9.947,0,0,0,609.664,169.585Z" transform="translate(-568.491 -147.141)" fill="#ffede5"/>
        <g id="Group_6948" data-name="Group 6948" transform="translate(41.449 32.141)">
          <g id="Group_6947" data-name="Group 6947">
            <path id="Path_8756" data-name="Path 8756" d="M637.308,223.38a.594.594,0,0,0-.227-.522c-.045-.045-.091.045-.045.091a.475.475,0,0,1,.182.431.046.046,0,1,0,.091,0Z" transform="translate(-637.017 -222.845)" fill="#c9542c"/>
          </g>
        </g>
        <g id="Group_6950" data-name="Group 6950" transform="translate(44.784 25.779)">
          <g id="Group_6949" data-name="Group 6949">
            <path id="Path_8757" data-name="Path 8757" d="M651.783,195.095a3.067,3.067,0,0,1,2.2,0c.068.023.091-.068.023-.091a3.19,3.19,0,0,0-2.246,0c-.068.023-.045.113.023.091Z" transform="translate(-651.719 -194.8)" fill="#c9542c"/>
          </g>
        </g>
        <g id="Group_6952" data-name="Group 6952" transform="translate(15.78 22.121)">
          <g id="Group_6951" data-name="Group 6951" transform="translate(0 0)">
            <path id="Path_8758" data-name="Path 8758" d="M524.074,180.925a3.016,3.016,0,0,1,.182-2.178c.023-.045-.068-.113-.091-.045a3.262,3.262,0,0,0-.181,2.268.051.051,0,0,0,.091-.045Z" transform="translate(-523.861 -178.673)" fill="#c9542c"/>
          </g>
        </g>
        <g id="Group_6954" data-name="Group 6954" transform="translate(35.926 32.559)">
          <g id="Group_6953" data-name="Group 6953">
            <path id="Path_8759" data-name="Path 8759" d="M612.724,225.824a9.538,9.538,0,0,1,1.815-1.021c.068-.023.023-.136-.045-.113a11.186,11.186,0,0,0-1.815,1.066c-.023.023.023.091.045.068Z" transform="translate(-612.673 -224.687)" fill="#c9542c"/>
          </g>
        </g>
        <g id="Group_6956" data-name="Group 6956" transform="translate(37.259 33.412)">
          <g id="Group_6955" data-name="Group 6955">
            <path id="Path_8760" data-name="Path 8760" d="M618.6,229.229a4.794,4.794,0,0,1,.839-.681c.068-.045,0-.136-.045-.091a6.4,6.4,0,0,0-.817.749c-.068.023-.023.068.023.023Z" transform="translate(-618.547 -228.445)" fill="#c9542c"/>
          </g>
        </g>
        <g id="Group_6958" data-name="Group 6958" transform="translate(36.526 31.901)">
          <g id="Group_6957" data-name="Group 6957">
            <path id="Path_8761" data-name="Path 8761" d="M615.357,222.221a3.417,3.417,0,0,1,.794-.318c.068-.023.045-.136-.023-.113a3.665,3.665,0,0,0-.794.386c-.045,0,0,.068.023.045Z" transform="translate(-615.314 -221.787)" fill="#c9542c"/>
          </g>
        </g>
        <path id="Path_8762" data-name="Path 8762" d="M567.638,222.971a3.523,3.523,0,0,1,1.565.34c.454.272.635.93.2,1.225a1.287,1.287,0,0,1-.59.181,8.146,8.146,0,0,1-4.355-.726,6.78,6.78,0,0,1-1.906-1.361c-.295-.295-2.268-2.087-.181-1.112a20.373,20.373,0,0,0,2.5.975A16.826,16.826,0,0,0,567.638,222.971Z" transform="translate(-537.127 -189.456)" fill="#21379e" opacity="0.3"/>
        <path id="Path_8763" data-name="Path 8763" d="M592.735,204.042a6.043,6.043,0,0,1-1.52.658,6.326,6.326,0,0,1-1.316.159c-.34,0-.771.068-.907.386a.55.55,0,0,0,.227.635,1.1,1.1,0,0,0,.7.136,4.333,4.333,0,0,0,1.18-.318,17.56,17.56,0,0,0,4.56-2.745,2.874,2.874,0,0,0,.862-.953c-.544.023-1.338.7-1.837.975C594.051,203.338,593.393,203.7,592.735,204.042Z" transform="translate(-558.413 -174.587)" fill="#4756a1" opacity="0.3"/>
        <g id="Group_6960" data-name="Group 6960" transform="translate(27.673 14.581)">
          <g id="Group_6959" data-name="Group 6959">
            <path id="Path_8764" data-name="Path 8764" d="M576.291,145.563c.771,1.792,3.425,1.837,4.923,1.089.091-.045,0-.181-.091-.136-1.406.726-3.947.681-4.7-1.044-.023-.091-.159,0-.136.091Z" transform="translate(-576.289 -145.434)" fill="#d1a529"/>
          </g>
        </g>
        <g id="Group_6962" data-name="Group 6962" transform="translate(32.933 14.772)">
          <g id="Group_6961" data-name="Group 6961">
            <path id="Path_8765" data-name="Path 8765" d="M599.6,147.077a1.64,1.64,0,0,0,.681-.681c.045-.091-.091-.159-.136-.091a1.5,1.5,0,0,1-.635.612c-.068.068,0,.2.091.159Z" transform="translate(-599.478 -146.278)" fill="#d1a529"/>
          </g>
        </g>
        <path id="Path_8766" data-name="Path 8766" d="M631.03,173.028a.712.712,0,0,1,.34-.386.1.1,0,0,1,.113,0c.023.023.023.045.045.068a.571.571,0,0,1-.2.567,1.875,1.875,0,0,0-.386.476.1.1,0,0,0,0,.113c.068-.181.272-.272.454-.363.136-.068.34-.136.454-.045a.27.27,0,0,1-.091.25.6.6,0,0,1-.227.136c-.159.068-.34.159-.5.227-.136.068-.318.2-.34,0a1.484,1.484,0,0,1,.136-.522A2.082,2.082,0,0,1,631.03,173.028Z" transform="translate(-590.674 -151.876)" fill="#4756a1" opacity="0.3"/>
        <path id="Path_8767" data-name="Path 8767" d="M553.3,175.3a1.058,1.058,0,0,0-.794-.408c-.068,0-.159.023-.181.091a.386.386,0,0,0-.023.159.577.577,0,0,0,.25.272c.25.159.544.227.817.386.045.023.113.091.068.136a.083.083,0,0,1-.068.023.772.772,0,0,1-.227.023h-.181c-.068.023-.113.068-.113.113,0,.091.068.136.159.159a1.081,1.081,0,0,0,.454-.091c.227-.068.749.34.318-.272C553.593,175.711,553.457,175.484,553.3,175.3Z" transform="translate(-530.069 -153.629)" fill="#4756a1" opacity="0.3"/>
        <ellipse id="Ellipse_362" data-name="Ellipse 362" cx="3.108" cy="3.584" rx="3.108" ry="3.584" transform="translate(0 12.713)" fill="#a6a09f"/>
        <ellipse id="Ellipse_363" data-name="Ellipse 363" cx="3.108" cy="3.584" rx="3.108" ry="3.584" transform="translate(0.522 12.713)"/>
        <ellipse id="Ellipse_364" data-name="Ellipse 364" cx="1.202" cy="1.384" rx="1.202" ry="1.384" transform="translate(2.427 14.913)" fill="none" stroke="#135e7f" stroke-miterlimit="10" stroke-width="1"/>
        <g id="Group_6963" data-name="Group 6963" transform="translate(3.663 14.294)">
          <path id="Path_8768" data-name="Path 8768" d="M475.269,147.1c-.068-.386.091-.658-.023-.885a3.422,3.422,0,0,0-2.586-2.042,2.589,2.589,0,0,0-1.543.408.808.808,0,0,0-.068.975c-.136-.113-.34.068-.408.25a1.675,1.675,0,0,0-.181.93,2.007,2.007,0,0,0,.817,1.52,3.573,3.573,0,0,0,1.769.476c.454-.045.794.522,1.225.5C475.269,149.235,475.405,148.078,475.269,147.1Z" transform="translate(-470.448 -144.169)" fill="#ffede5"/>
        </g>
        <path id="Path_8769" data-name="Path 8769" d="M473.254,151.325h-4.741a.61.61,0,0,1-.612-.612h0a.61.61,0,0,1,.612-.612h4.741a.61.61,0,0,1,.612.612h0A.6.6,0,0,1,473.254,151.325Z" transform="translate(-464.815 -134.461)" fill="#f0f8fe"/>
        <ellipse id="Ellipse_365" data-name="Ellipse 365" cx="3.108" cy="3.584" rx="3.108" ry="3.584" transform="translate(7.713 12.713)" fill="#a6a09f"/>
        <ellipse id="Ellipse_366" data-name="Ellipse 366" cx="3.108" cy="3.584" rx="3.108" ry="3.584" transform="translate(8.235 12.713)"/>
        <ellipse id="Ellipse_367" data-name="Ellipse 367" cx="1.202" cy="1.384" rx="1.202" ry="1.384" transform="translate(10.14 14.913)" fill="none" stroke="#135e7f" stroke-miterlimit="10" stroke-width="1"/>
        <path id="Path_8770" data-name="Path 8770" d="M503.492,151.325h-1.18a.61.61,0,0,1-.612-.612h0a.61.61,0,0,1,.612-.612h1.18a.61.61,0,0,1,.612.612h0A.61.61,0,0,1,503.492,151.325Z" transform="translate(-490.947 -134.461)" fill="#f0f8fe"/>
        <g id="Group_6969" data-name="Group 6969" transform="translate(25.995)">
          <g id="Group_6964" data-name="Group 6964" transform="translate(1.771 9.356)">
            <path id="Path_8771" data-name="Path 8771" d="M576.7,127.277a2.993,2.993,0,0,0,2.019,1.633c2.768.408,3.766-1.066,4.174-1.7a2.139,2.139,0,0,0-.2-.068c-.5-.159-.726-1-.771-1.588a13.6,13.6,0,0,1,.113-3.153l-3.811,1.338c-.045.272-.068.567-.091.862a4.189,4.189,0,0,0-.023.522c0,.159-.023.318-.023.476a2.57,2.57,0,0,1-.136.817,1.277,1.277,0,0,1-.386.59,1.369,1.369,0,0,1-.59.25C576.95,127.255,576.7,127.3,576.7,127.277Z" transform="translate(-576.7 -122.4)" fill="#ffede5"/>
          </g>
          <g id="Group_6965" data-name="Group 6965" transform="translate(0.536 3.094)">
            <path id="Path_8772" data-name="Path 8772" d="M573.127,98.267a2.107,2.107,0,0,1-.522,1.475c-.227.295-.431-.091-.794-.181-.567-.159-.567-.907-.454-2.563a3.811,3.811,0,0,1,.023-1.837,1.4,1.4,0,0,1,1.27-.34" transform="translate(-571.257 -94.795)" fill="#242723"/>
          </g>
          <g id="Group_6966" data-name="Group 6966" transform="translate(0.664 1.37)">
            <path id="Path_8773" data-name="Path 8773" d="M573.447,88.649c-1.089.953-1.974,3.834-1.5,6.1.318,1.5.839,2.881,1.588,2.972a7.669,7.669,0,0,0,4.219-1.089c1.52-1.18,1.588-3.97,1.611-5.739.023-1.611-.363-3.743-2.4-3.7A5.567,5.567,0,0,0,573.447,88.649Z" transform="translate(-571.818 -87.197)" fill="#ffede5"/>
          </g>
          <g id="Group_6967" data-name="Group 6967">
            <path id="Path_8774" data-name="Path 8774" d="M576.2,85.818c-.5.431-3.856.25-4.968-.159-2.268-.817-2.631-2.563-2.155-2.926a.338.338,0,0,1,.2-.091c.159-.045.34.068.476.136-.068-.2-.34-1.043.159-1.429.681-.522,1.633.181,1.792.272a5.152,5.152,0,0,0,1.633.658s-.318-1.7,1.18-.5c.476.386,1.316.7,1.792,1.066a1.635,1.635,0,0,1,.612,1.724" transform="translate(-568.892 -81.158)" fill="#242723"/>
          </g>
          <g id="Group_6968" data-name="Group 6968" transform="translate(5.771 2.951)">
            <path id="Path_8775" data-name="Path 8775" d="M595.028,95.149a1.88,1.88,0,0,0-.567,1.112,3.62,3.62,0,0,0,0,1.906c.045.181-.023.975.113.953.045,0,.136-.612.295-.93a.882.882,0,0,1,1.338-.181,1.238,1.238,0,0,1-.2,1.543,2.558,2.558,0,0,0-.431.7,4.293,4.293,0,0,0-.136,1.769c.136.25.5-.817.7-1,1.429-1.406,3.221-5.308,1.384-6.533a2.7,2.7,0,0,0-1.5-.295" transform="translate(-594.332 -94.166)" fill="#242723"/>
          </g>
        </g>
        <g id="Group_6975" data-name="Group 6975" transform="translate(26.607 5.862)">
          <path id="Path_8776" data-name="Path 8776" d="M573.644,113.163c-.023.227-.113.363-.25.363-.113,0-.227-.159-.2-.386s.113-.34.25-.34C573.553,112.823,573.644,112.936,573.644,113.163Z" transform="translate(-572.825 -111.485)" fill="#242723"/>
          <g id="Group_6971" data-name="Group 6971" transform="translate(2.662 0.001)">
            <g id="Group_6970" data-name="Group 6970">
              <path id="Path_8777" data-name="Path 8777" d="M584.908,107.479a1.056,1.056,0,0,0-1.543-.25c-.113.068.045.227.136.159a.874.874,0,0,1,.93-.113,3.227,3.227,0,0,1,.272.25c.068.113.272.091.2-.045Z" transform="translate(-583.327 -107.004)" fill="#242723"/>
            </g>
          </g>
          <g id="Group_6973" data-name="Group 6973">
            <g id="Group_6972" data-name="Group 6972">
              <path id="Path_8778" data-name="Path 8778" d="M572.841,107.205a.849.849,0,0,0-1.225.136c-.091.091.091.227.181.136a.64.64,0,0,1,.93-.136c.068.068.2-.045.113-.136Z" transform="translate(-571.591 -107.002)" fill="#242723"/>
            </g>
          </g>
          <path id="Path_8779" data-name="Path 8779" d="M585.242,113.063c-.023.227-.113.363-.25.363s-.227-.159-.2-.386.113-.34.25-.34C585.174,112.723,585.265,112.836,585.242,113.063Z" transform="translate(-581.792 -111.407)" fill="#242723"/>
          <path id="Path_8780" data-name="Path 8780" d="M578.558,124.64c.34-.045.794-.544.612-.907-.023-.023-.045-.068-.068-.091a.144.144,0,0,0-.136,0c-.182.023-.34.068-.522.091-.476.045-.771.045-.749.25A.9.9,0,0,0,578.558,124.64Z" transform="translate(-576.31 -119.854)" fill="#fff"/>
          <g id="Group_6974" data-name="Group 6974" transform="translate(1.227 1.565)">
            <path id="Path_8783" data-name="Path 8783" d="M577.635,113.9a.6.6,0,0,1,.045.34.911.911,0,0,1-.068.34,2.078,2.078,0,0,1-.159.318,2.4,2.4,0,0,1-.227.272l-.023-.159a1.892,1.892,0,0,1,.272.181c.045.045.091.068.113.113a.339.339,0,0,1,.068.159.226.226,0,0,0-.113-.091l-.136-.068c-.091-.045-.2-.068-.295-.113l-.113-.045.091-.113a1.007,1.007,0,0,0,.181-.25,1.69,1.69,0,0,0,.159-.272A2.777,2.777,0,0,0,577.635,113.9Z" transform="translate(-577 -113.9)" fill="#242723"/>
          </g>
        </g>
        <g id="Group_6977" data-name="Group 6977" transform="translate(29.193 11.256)">
          <g id="Group_6976" data-name="Group 6976">
            <path id="Path_8784" data-name="Path 8784" d="M583.038,131.487a3.7,3.7,0,0,0,.7-.25,2.265,2.265,0,0,0,.681-.408s.023-.068,0-.045c-.25.091-.5.227-.749.34-.2.091-.454.159-.658.272-.045,0-.023.091.023.091Z" transform="translate(-582.991 -130.78)" fill="#d86859"/>
          </g>
        </g>
        <g id="Group_6979" data-name="Group 6979" transform="translate(37.43 38.39)">
          <g id="Group_6978" data-name="Group 6978">
            <path id="Path_8785" data-name="Path 8785" d="M619.483,250.416a3.437,3.437,0,0,0,1.883,4.106c.045.023.091-.023.045-.068a7.918,7.918,0,0,1-1.52-1.5,3,3,0,0,1-.363-2.518c.023-.045-.045-.068-.045-.023Z" transform="translate(-619.302 -250.391)" fill="#afafaf"/>
          </g>
        </g>
        <g id="Group_6981" data-name="Group 6981" transform="translate(23.787 38.114)">
          <g id="Group_6980" data-name="Group 6980">
            <path id="Path_8786" data-name="Path 8786" d="M560.6,249.249a3.5,3.5,0,0,1-.023,2.155c-.295.749-.907,1.089-1.406,1.7-.023.023,0,.068.045.045a3.767,3.767,0,0,0,1.565-1.747,2.791,2.791,0,0,0-.045-2.178c-.068-.091-.159-.045-.136.023Z" transform="translate(-559.161 -249.176)" fill="#afafaf"/>
          </g>
        </g>
        <g id="Group_6983" data-name="Group 6983" transform="translate(29.883 45.781)">
          <g id="Group_6982" data-name="Group 6982">
            <path id="Path_8787" data-name="Path 8787" d="M586.049,283.048a1.915,1.915,0,0,0,2.064.386c.045-.023.023-.068,0-.068a8.1,8.1,0,0,1-1.044.023,1.886,1.886,0,0,1-.953-.408c-.045-.023-.113.023-.068.068Z" transform="translate(-586.034 -282.973)" fill="#afafaf"/>
          </g>
        </g>
        <g id="Group_6994" data-name="Group 6994" transform="translate(3.6 14.849)">
          <path id="Path_8788" data-name="Path 8788" d="M471.465,149.228a.07.07,0,0,0-.045.023c-.023.045-.068.068-.091.113a.476.476,0,0,1-.25.181h-.113a.5.5,0,0,1-.181-.023.6.6,0,0,1-.408-.363,1.718,1.718,0,0,1-.023-.34,4.012,4.012,0,0,1-.023-.522,2.959,2.959,0,0,1,.045-1c.113-.431.59.045.7.2a2.306,2.306,0,0,1,.34.93,3.461,3.461,0,0,1,.068.681C471.465,149.138,471.465,149.206,471.465,149.228Z" transform="translate(-470.279 -147.009)" fill="#ffede5"/>
          <path id="Path_8789" data-name="Path 8789" d="M476.428,147.427s.431-.091.5.023a2.1,2.1,0,0,1,.34.953,1.613,1.613,0,0,1-.159.726c-.045.091-.113.181-.2.159-.045,0-.068-.023-.113,0-.023,0-.023.023-.045.045a.58.58,0,0,1-.431.227,1.33,1.33,0,0,1-.522-.023.323.323,0,0,0-.136-.045c-.068,0-.023-.023-.068.023a.771.771,0,0,1-.136.136.45.45,0,0,1-.25.023.951.951,0,0,1-.34-.091c-.068-.023-.2-.159-.272-.159a.816.816,0,0,1-.045-.25.806.806,0,0,1-.045-.227c0-.023.045-.771.045-.771l.091-.476c.045-.091.113-.159.159-.25a.536.536,0,0,1,.2-.181.215.215,0,0,1,.25.091c.045.068.023.136.068.2a.8.8,0,0,1,.386-.34.288.288,0,0,1,.136-.023.231.231,0,0,1,.181.113.383.383,0,0,1,.068.227c.023.068,0,.136.023.2" transform="translate(-473.518 -147.068)" fill="#ffede5"/>
          <g id="Group_6985" data-name="Group 6985" transform="translate(0.981 0.083)">
            <g id="Group_6984" data-name="Group 6984">
              <path id="Path_8790" data-name="Path 8790" d="M474.678,149.254a3.214,3.214,0,0,1-.023-1.316,1.164,1.164,0,0,1,.159-.544.453.453,0,0,1,.386-.272.634.634,0,0,1,.159.59c-.023.068.091.091.113.023.068-.34-.113-1-.544-.658a1.184,1.184,0,0,0-.386.885,3.111,3.111,0,0,0,.045,1.293c0,.091.113.068.091,0Z" transform="translate(-474.495 -146.981)" fill="#934735"/>
            </g>
          </g>
          <g id="Group_6987" data-name="Group 6987" transform="translate(1.802 0.762)">
            <g id="Group_6986" data-name="Group 6986">
              <path id="Path_8791" data-name="Path 8791" d="M478.133,150.026a2.673,2.673,0,0,0,.25,1.452c.023.068.136.045.113-.023a2.8,2.8,0,0,1-.227-1.429c-.023-.068-.136-.068-.136,0Z" transform="translate(-478.113 -149.975)" fill="#934735"/>
            </g>
          </g>
          <g id="Group_6989" data-name="Group 6989" transform="translate(1.864)">
            <g id="Group_6988" data-name="Group 6988">
              <path id="Path_8792" data-name="Path 8792" d="M479.819,148.722c-.181.068-.34-.2-.386-.318a1.727,1.727,0,0,1-.091-.25,2.5,2.5,0,0,1-.091-.7c0-.227,0-.59-.2-.749-.318-.272-.612.159-.658.408-.023.068.091.091.113.023.068-.295.476-.522.59-.113a1.865,1.865,0,0,1,.045.613,2.382,2.382,0,0,0,.181.794c.091.227.295.5.567.386.045-.023,0-.113-.068-.091Z" transform="translate(-478.387 -146.616)" fill="#934735"/>
            </g>
          </g>
          <g id="Group_6991" data-name="Group 6991" transform="translate(2.684 0.289)">
            <g id="Group_6990" data-name="Group 6990">
              <path id="Path_8793" data-name="Path 8793" d="M483.021,148.438c-.091-.25-.25-.544-.567-.544-.295-.023-.454.159-.454.476a.057.057,0,0,0,.113,0c0-.159.045-.318.2-.34a.194.194,0,0,1,.159,0c.227.023.34.272.431.476.023.023.136,0,.113-.068Z" transform="translate(-482 -147.892)" fill="#934735"/>
            </g>
          </g>
          <g id="Group_6993" data-name="Group 6993" transform="translate(0 0.109)">
            <g id="Group_6992" data-name="Group 6992">
              <path id="Path_8794" data-name="Path 8794" d="M471.265,148.072c-.113-.386-.295-.839-.7-.953-.476-.159-.386.522-.386.794a.057.057,0,0,0,.113,0,2.743,2.743,0,0,1,.023-.431v-.113c.068-.045.136-.113.2-.159a.54.54,0,0,1,.25.136,1.4,1.4,0,0,1,.386.749.058.058,0,1,0,.113-.023Z" transform="translate(-470.17 -147.095)" fill="#934735"/>
            </g>
          </g>
        </g>
        <g id="Group_6996" data-name="Group 6996" transform="translate(4.073 14.276)">
          <g id="Group_6995" data-name="Group 6995">
            <path id="Path_8795" data-name="Path 8795" d="M473.6,144.092a1.5,1.5,0,0,0-1.134.408c-.181.181-.363.544-.023.681.045.023.068-.045.023-.068-.431-.227.2-.681.386-.771a2.013,2.013,0,0,1,.726-.181c.045-.023.045-.068.023-.068Z" transform="translate(-472.256 -144.089)" fill="#934735"/>
          </g>
        </g>
      </g>
    </g>
  </g>
</svg>
