<svg xmlns="http://www.w3.org/2000/svg" width="11.93" height="22.066" viewBox="82 256 11.93 22.066">
    <g>
        <path
            d="M93.48 256.005 90.62 256c-3.216 0-5.293 2.132-5.293 5.43v2.504H82.45a.45.45 0 0 0-.45.45v3.628c0 .249.201.45.45.45h2.877v9.154c0 .25.201.45.45.45h3.754a.45.45 0 0 0 .45-.45v-9.154h3.364a.45.45 0 0 0 .45-.45l.001-3.627a.45.45 0 0 0-.45-.45H89.98v-2.123c0-1.02.243-1.538 1.572-1.538h1.927a.45.45 0 0 0 .45-.45v-3.37a.45.45 0 0 0-.45-.45Z"
            fill="#3581b8" fill-rule="evenodd" />
    </g>
</svg>