<svg xmlns="http://www.w3.org/2000/svg" width="18" height="18" viewBox="0 0 18 18">
  <g id="Fat-Icon" transform="translate(-136 -512)">
    <g id="trans-fat" transform="translate(136 512)">
      <rect id="trans-fat-2" data-name="trans-fat" width="18" height="18" fill="none"/>
      <g id="Group">
        <g id="Group-2" data-name="Group">
          <path id="Vector" d="M4.933,0A10,10,0,0,1,9.865,8.371q0,.107,0,.214C9.734,14.05.131,14.05,0,8.585q0-.107,0-.214A10,10,0,0,1,4.933,0Z" transform="translate(0.267 3.132)" fill="#ffca5e"/>
          <path id="Vector-2" data-name="Vector" d="M4.932,12.684C2.5,12.684.067,11.318,0,8.585q0-.107,0-.214A10,10,0,0,1,4.932,0,13.825,13.825,0,0,0,2.465,8.372q0,.107,0,.214c.032,2.732,1.249,4.1,2.465,4.1Z" transform="translate(0.27 3.132)" fill="#e8a328"/>
          <path id="Vector-3" data-name="Vector" d="M6.133,0a12.432,12.432,0,0,1,6.133,10.408q0,.133,0,.266c-.16,6.794-12.1,6.794-12.259,0q0-.133,0-.266A12.432,12.432,0,0,1,6.133,0Z" transform="translate(5.467 1.115)" fill="#ffca5e"/>
          <path id="Vector-4" data-name="Vector" d="M6.133,15.77c-3.025,0-6.049-1.7-6.13-5.1q0-.133,0-.266A12.432,12.432,0,0,1,6.133,0,15.876,15.876,0,0,0,2.681,10.408q0,.134,0,.266c.045,3.4,1.748,5.1,3.45,5.1Z" transform="translate(5.467 1.115)" fill="#e8a328"/>
          <path id="Vector-5" data-name="Vector" d="M1.551.776A.776.776,0,1,1,.776,0,.776.776,0,0,1,1.551.776Z" transform="translate(15.037 9.008)" fill="#ffce76"/>
          <path id="Vector-6" data-name="Vector" d="M2.663,1.331A1.331,1.331,0,1,1,1.331,0,1.331,1.331,0,0,1,2.663,1.331Z" transform="translate(13.741 10.905)" fill="#ffce76"/>
        </g>
        <path id="Vector-7" data-name="Vector" d="M18,10.676c0,.091,0,.182,0,.272a5,5,0,0,1-2.068,4.03A7.286,7.286,0,0,1,11.6,16.3a7.286,7.286,0,0,1-4.328-1.326l-.07-.053a6.471,6.471,0,0,1-2,.313,5.793,5.793,0,0,1-3.848-1.352.267.267,0,1,1,.358-.4,4.883,4.883,0,0,0,2.549,1.141,6.155,6.155,0,0,0,2.457-.121A4.989,4.989,0,0,1,5.2,10.948c0-.09,0-.182,0-.272A11.763,11.763,0,0,1,6.91,4.617q.121-.2.251-.4A11.339,11.339,0,0,0,5.2,2.6,10.827,10.827,0,0,0,1.841,6.031,8.857,8.857,0,0,0,.535,10.656c0,.075,0,.143,0,.207a3.645,3.645,0,0,0,.5,1.811.267.267,0,1,1-.459.275A4.172,4.172,0,0,1,0,10.876c0-.068,0-.14,0-.22a9.513,9.513,0,0,1,1.383-4.9,11.4,11.4,0,0,1,3.674-3.7.267.267,0,0,1,.286,0,11.938,11.938,0,0,1,2.126,1.71A14.363,14.363,0,0,1,11.457.042a.267.267,0,0,1,.286,0A14.375,14.375,0,0,1,15.4,3.325a.267.267,0,1,1-.421.329A13.8,13.8,0,0,0,11.6.585,13.534,13.534,0,0,0,7.368,4.893a11.075,11.075,0,0,0-1.633,5.783c0,.086,0,.174,0,.26.078,3.321,3.094,4.834,5.862,4.834s5.784-1.513,5.862-4.834c0-.086,0-.173,0-.26a11.254,11.254,0,0,0-1.837-6.109.267.267,0,1,1,.449-.29A11.787,11.787,0,0,1,18,10.676Z" transform="translate(0 0.848)" fill="#232e1f"/>
      </g>
    </g>
  </g>
</svg>
