<svg xmlns="http://www.w3.org/2000/svg" width="11.201" height="14.916" viewBox="43.2 543.042 11.201 14.916"><g data-name="FIRE"><path d="M45.459 549.705c-.353-3.167 1.497-5.395 4.966-6.663-2.124 2.757 1.811 5.743 2.029 8.605.508-.868.797-2.026.854-3.575 2.602 4.082.445 10.752-5.28 9.793a4.83 4.83 0 0 1-1.494-.501c-2.087-1.115-3.334-3.544-3.334-5.864 0-1.478.632-2.798 1.45-3.847.11 1.027.343 1.793.809 2.052Z" fill="#f53f1f" fill-rule="evenodd" data-name="Path 8624"/><path d="M47.311 554.28c-.59-1.523-.508-3.984 1.144-4.847.012 2.829 2.798 3.19 2.282 6.208.476-.539.716-1.4.759-2.082.755 1.729.162 3.112-.914 3.816-3.274 2.141-6.093-2.2-4.219-4.58.057.532.708 1.353.948 1.485Z" fill="#fad15c" fill-rule="evenodd" data-name="Path 8625"/></g></svg>