<svg id="undraw_forgot_password_re_hxwm_3_" data-name="undraw_forgot_password_re_hxwm (3)" xmlns="http://www.w3.org/2000/svg" width="308" height="193.163" viewBox="0 0 308 193.163">
  <path id="Path_94" data-name="Path 94" d="M439.433,429.233c10.555-17.522,30.689-30.977,52-29.68a90.241,90.241,0,0,0-25.881,58.895c-.35,8.447.193,17.876-5.75,24.2-3.7,3.935-9.35,5.841-14.907,6.241s-11.114-.548-16.6-1.491l-1.33.385C426.464,467.633,428.877,446.756,439.433,429.233Z" transform="translate(-328.953 -318.066)" fill="#f0f0f0"/>
  <path id="Path_95" data-name="Path 95" d="M491.446,399.117c-15.761,7.16-29.2,19.119-37.451,33.7a33,33,0,0,0-3.965,10.035,18.573,18.573,0,0,0,1.081,10.267c1.171,3.072,2.745,6.087,3.1,9.374a11.6,11.6,0,0,1-3.4,9.276c-2.975,3.146-6.971,5.1-10.949,6.874-4.417,1.975-9.038,3.959-12.166,7.645-.379.446-1.091-.135-.713-.581,5.443-6.412,14.759-7.617,21.22-12.782,3.015-2.41,5.278-5.692,5.135-9.537-.125-3.363-1.746-6.473-2.96-9.574a19.843,19.843,0,0,1-1.453-10,30.381,30.381,0,0,1,3.541-10.142,77.371,77.371,0,0,1,15.006-19.461,85.706,85.706,0,0,1,23.668-15.937c.544-.247.846.595.3.841Z" transform="translate(-328.932 -317.208)" fill="#fff"/>
  <path id="Path_96" data-name="Path 96" d="M507.3,460.85a11.5,11.5,0,0,1-3.808-15c.276-.509,1.127-.129.851.381a10.648,10.648,0,0,0,3.572,13.943C508.4,460.513,507.784,461.183,507.3,460.85Z" transform="translate(-379.816 -350.113)" fill="#fff"/>
  <path id="Path_97" data-name="Path 97" d="M498.353,553.827a24.691,24.691,0,0,0,15.4-8.284c.381-.445,1.093.136.713.58a25.689,25.689,0,0,1-16.043,8.589c-.6.081-.667-.805-.069-.886Z" transform="translate(-376.984 -419.397)" fill="#fff"/>
  <path id="Path_98" data-name="Path 98" d="M573.294,432.442a7.391,7.391,0,0,0,6.384,2.148c.6-.088.664.8.069.886a8.285,8.285,0,0,1-7.068-2.362.441.441,0,0,1-.049-.626A.493.493,0,0,1,573.294,432.442Z" transform="translate(-427.42 -340.892)" fill="#fff"/>
  <path id="Path_99" data-name="Path 99" d="M532.127,555.563c-.373.065-.745.13-1.121.2A98.5,98.5,0,0,0,516.3,559.6c-.372.122-.747.251-1.115.383a100.41,100.41,0,0,0-31.19,17.912,93.414,93.414,0,0,0-10.1,9.99c-4.273,4.926-8.49,10.589-14.074,13.8a16.857,16.857,0,0,1-1.8.92l-32.164-12.59c-.058-.063-.119-.12-.177-.183l-1.309-.447c.146-.194.3-.393.448-.588.084-.113.175-.223.26-.337.058-.075.117-.149.165-.219.019-.025.039-.05.055-.068.048-.07.1-.131.146-.194q1.3-1.67,2.633-3.328c0-.007,0-.007.013-.011a137.237,137.237,0,0,1,22.995-22.963c.259-.2.522-.4.8-.6a92.4,92.4,0,0,1,12.422-7.93q3.59-1.894,7.369-3.439a70.83,70.83,0,0,1,20.468-4.926c14.063-1.232,28.386,1.793,39.172,10.13C531.585,555.132,531.854,555.343,532.127,555.563Z" transform="translate(-327.237 -418.8)" fill="#f0f0f0"/>
  <path id="Path_100" data-name="Path 100" d="M532.82,576.349a88.7,88.7,0,0,0-51.4,5.632,36.563,36.563,0,0,0-9.568,5.76,19.449,19.449,0,0,0-5.687,8.812c-1.025,3.118-1.691,6.42-3.5,9.249a12.77,12.77,0,0,1-8.637,5.472c-4.383.822-8.817.108-13.128-.732-4.786-.933-9.742-1.974-14.591-.808a.445.445,0,1,1-.2-.868c8.436-2.027,16.644,2.3,25.1,1.851,3.945-.211,7.846-1.546,10.185-4.7,2.046-2.756,2.736-6.16,3.745-9.326a20.632,20.632,0,0,1,5.221-8.812,33.6,33.6,0,0,1,9.3-6.086,85.218,85.218,0,0,1,24.4-7.013,90.626,90.626,0,0,1,29.065.723c.593.112.3.956-.293.844Z" transform="translate(-328.171 -439.23)" fill="#fff"/>
  <path id="Path_101" data-name="Path 101" d="M612.1,559.769a11.679,11.679,0,0,1,6.527-14.137c.545-.25.982.537.436.788a10.813,10.813,0,0,0-6.043,13.162C613.2,560.128,612.278,560.312,612.1,559.769Z" transform="translate(-453.818 -419.536)" fill="#fff"/>
  <path id="Path_102" data-name="Path 102" d="M549.945,642.418a25.61,25.61,0,0,0,17.58,2.136.445.445,0,1,1,.2.868,26.637,26.637,0,0,1-18.289-2.258C548.9,642.888,549.416,642.143,549.945,642.418Z" transform="translate(-411.656 -486.74)" fill="#fff"/>
  <path id="Path_103" data-name="Path 103" d="M694.458,575.279a6.736,6.736,0,0,0,3.727,5.342c.535.27.021,1.015-.51.747a7.55,7.55,0,0,1-4.137-5.9.459.459,0,0,1,.361-.528A.474.474,0,0,1,694.458,575.279Z" transform="translate(-509.246 -439.915)" fill="#fff"/>
  <path id="Path_104" data-name="Path 104" d="M268,528.614c-4.5-20.554-10.135-27.407-10.135-27.407l-2.151-1.574-2.587-1.9.012-.244-.614-.2-.144-.106-.236-.171-.038.039-.08.078-11.706-3.755-14.851-4.76-6.877-8.435a12.162,12.162,0,0,0-9.515-4.38l-21.962.153a12.289,12.289,0,0,0-8,2.995L164.683,491.59l-22.493,10.138-.038-.036-.236.159-3.475,1.568.143.7-2.151,1.465s-5.631,6.376-10.135,25.5c-1.146,4.866-1.71,15.305-1.914,28.169a4.768,4.768,0,0,0,1.5,3.518,5.362,5.362,0,0,0,3.705,1.464H264.72a5.363,5.363,0,0,0,3.7-1.463,4.769,4.769,0,0,0,1.5-3.515C269.722,545.266,269.158,533.891,268,528.614Z" transform="translate(-124.383 -371.079)" fill="#3b2645"/>
  <path id="Path_105" data-name="Path 105" d="M578.741,191.732c-9.734,0-17.624,7.446-17.624,16.632S569.008,225,578.741,225H710.084c9.733,0,17.624-7.446,17.624-16.632s-7.891-16.632-17.624-16.632Z" transform="translate(-419.708 -173.807)" fill="#e5e5e5"/>
  <path id="Path_106" data-name="Path 106" d="M586.19,202.747c-7.764,0-14.057,5.939-14.057,13.266s6.294,13.266,14.057,13.266H717.532c7.764,0,14.057-5.939,14.057-13.266s-6.294-13.266-14.057-13.266Z" transform="translate(-427.157 -181.456)" fill="#fff"/>
  <path id="ab6171fa-7d69-4734-b81c-8dff60f9761b" d="M28.773,0C44.664,0,57.546,12.157,57.546,27.153S44.664,54.306,28.773,54.306,0,42.149,0,27.153,12.882,0,28.773,0Z" transform="translate(48.393 42.634)" fill="#ffede5"/>
  <path id="Path_107" data-name="Path 107" d="M339.2,444.226q-.184-.383-.368-.769c.047,0,.094.008.141.009Z" transform="translate(-269.399 -348.615)" fill="#2f2e41"/>
  <path id="Path_108" data-name="Path 108" d="M247.823,247.389a8.25,8.25,0,0,1,5.017-2.047c1.861.057,3.747,1.642,3.362,3.361,7.054-11.787,22.056-17.1,35.583-12.591,4.624,1.54,9.159,4.62,10.221,9.137.273,1.16.331,2.431,1.1,3.373a4.245,4.245,0,0,0,4.343,1.038l.046-.013a1.412,1.412,0,0,1,1.472.38,1.226,1.226,0,0,1,.171,1.431l-1.308,2.3a11.093,11.093,0,0,0,5-.1,1.4,1.4,0,0,1,1.467.517,1.223,1.223,0,0,1-.024,1.477,24.144,24.144,0,0,1-18.878,9.157c-5.228-.03-10.51-1.73-15.6-.6a13.42,13.42,0,0,0-9.1,6.919,12.138,12.138,0,0,0-.01,11.03c-1.563-1.613-4.585-1.231-6.183.35a7.691,7.691,0,0,0-1.852,6.124c.246,3.335,1.631,6.478,3.091,9.537-12.24-.364-23.816-8.466-27.713-19.425C234.107,267.748,238.208,254.628,247.823,247.389Z" transform="translate(-200.23 -203.52)" fill="#3b2645"/>
  <path id="Path_109" data-name="Path 109" d="M87.464,495.253l8.07,41.436,4.842.4Z" transform="translate(-59.144 -343.924)" opacity="0.2"/>
  <path id="Path_110" data-name="Path 110" d="M335.04,485.026l-8.07,44.531-4.842.428Z" transform="translate(-217.827 -336.822)" opacity="0.2"/>
  <path id="Path_111" data-name="Path 111" d="M258.757,162.993a2.924,2.924,0,0,1-3.839-1.589,2.694,2.694,0,0,1,1.527-3.75,2.914,2.914,0,0,1,3.857,1.629A2.645,2.645,0,0,1,258.757,162.993Zm-2.964-8.4-1.23.485a1.363,1.363,0,0,1-1.686-.583l-.061-.112c-1.324-2.253-1.475-4.991-.448-8.134.952-2.819,1.347-4.8.552-6.6-.919-2.077-2.882-2.728-5.384-1.785a4.65,4.65,0,0,0-2.043,1.091,1.809,1.809,0,0,1-1.27.487,1.743,1.743,0,0,1-1.213-.5,1.567,1.567,0,0,1-.012-2.23,13.5,13.5,0,0,1,4.548-2.947c5.377-2.119,8.084,1.009,9.322,3.809,1.212,2.738.53,5.279-.565,8.569-.918,2.734-.864,4.76.178,6.774a1.183,1.183,0,0,1,.035.977,1.284,1.284,0,0,1-.723.7Z" transform="translate(-204.281 -133.069)" fill="#34495e"/>
  <path id="Path_112" data-name="Path 112" d="M649.259,269.422H623.128a.595.595,0,1,1,0-1.188H649.26a.595.595,0,1,1,0,1.188Z" transform="translate(-461.214 -226.933)" fill="#f06400"/>
  <path id="Path_113" data-name="Path 113" d="M751.64,270.07H725.508a.595.595,0,1,1,0-1.188H751.64a.595.595,0,1,1,0,1.188Z" transform="translate(-530.445 -227.383)" fill="#f06400"/>
  <path id="Path_114" data-name="Path 114" d="M854.022,270.718H827.891a.595.595,0,1,1,0-1.188h26.132a.6.6,0,1,1,0,1.188Z" transform="translate(-599.677 -227.833)" fill="#f06400"/>
  <path id="Path_115" data-name="Path 115" d="M956.4,271.366H930.268a.595.595,0,1,1,0-1.188H956.4a.6.6,0,1,1,0,1.188Z" transform="translate(-668.906 -228.283)" fill="#f06400"/>
  <ellipse id="Ellipse_22" data-name="Ellipse 22" cx="4.857" cy="4.583" rx="4.857" ry="4.583" transform="translate(170.065 27.855)" fill="#f06400"/>
  <ellipse id="Ellipse_23" data-name="Ellipse 23" cx="4.857" cy="4.583" rx="4.857" ry="4.583" transform="translate(203.415 27.855)" fill="#f06400"/>
  <ellipse id="Ellipse_24" data-name="Ellipse 24" cx="4.857" cy="4.583" rx="4.857" ry="4.583" transform="translate(236.765 27.855)" fill="#f06400"/>
  <ellipse id="Ellipse_25" data-name="Ellipse 25" cx="4.857" cy="4.583" rx="4.857" ry="4.583" transform="translate(270.116 27.855)" fill="#f06400"/>
</svg>
