<svg xmlns="http://www.w3.org/2000/svg" width="22.338" height="22.338" viewBox="0 0 22.338 22.338">
  <g id="goal" transform="translate(0 0)">
    <g id="Group_2602" data-name="Group 2602" transform="translate(0 0)">
      <path id="Path_342" data-name="Path 342" d="M19.263,5.873l2.883-2.88a.654.654,0,0,0-.462-1.118H20.375V.655A.654.654,0,0,0,19.25.2L16.458,3.083a.655.655,0,0,0-.184.455V5.054a9.8,9.8,0,1,0,1.011,1.011H18.8A.654.654,0,0,0,19.263,5.873ZM15.872,18.542a8.534,8.534,0,1,1-.48-12.52l-.929.929a7.188,7.188,0,1,0,.925.926l.929-.929A8.55,8.55,0,0,1,15.872,18.542ZM9.856,10.52a1.959,1.959,0,1,0,1.772,1.116l.958-.958a3.267,3.267,0,1,1-.925-.926l-.957.957A1.958,1.958,0,0,0,9.856,10.52Zm.654,1.963a.654.654,0,1,1-.654-.654A.652.652,0,0,1,10.51,12.483ZM12.6,8.814a4.575,4.575,0,1,0,.925.926l.933-.933a5.879,5.879,0,1,1-.925-.926Zm4.983-4.058V3.8l1.483-1.532v.259a.654.654,0,0,0,.654.654H20.1L18.53,4.756Z" transform="translate(0 0)" fill="#f8600d"/>
    </g>
  </g>
</svg>
