<svg xmlns="http://www.w3.org/2000/svg" xmlns:xlink="http://www.w3.org/1999/xlink" width="40" height="40" viewBox="0 0 40 40">
  <defs>
    <linearGradient id="linear-gradient" x1="1" y1="1" x2="0" gradientUnits="objectBoundingBox">
      <stop offset="0" stop-color="#f8600d"/>
      <stop offset="1" stop-color="#ffc9aa"/>
    </linearGradient>
    <linearGradient id="linear-gradient-2" x1="1" y1="1" x2="0" gradientUnits="objectBoundingBox">
      <stop offset="0" stop-color="#92a3fd"/>
      <stop offset="1" stop-color="#9dceff"/>
    </linearGradient>
  </defs>
  <g id="Ellipse" transform="translate(-30 -172)">
    <circle id="Ellipse_152" data-name="Ellipse 152" cx="20" cy="20" r="20" transform="translate(30 172)" fill="#f8600d" opacity="0.2"/>
    <g id="Vector">
      <g id="lowebody-workout_1" data-name="lowebody-workout 1" transform="translate(39.467 179.342)">
        <rect id="lowebody-workout_1-2" data-name="lowebody-workout 1" width="20.533" height="25.315" fill="none"/>
        <g id="Group">
          <g id="Layer_2" data-name="Layer 2">
            <g id="Character">
              <g id="Character-2" data-name="Character">
                <g id="Group-2" data-name="Group" opacity="0.3">
                  <path id="Vector-2" data-name="Vector" d="M.538.27H.525L.046.131A.066.066,0,0,1,.008.1.068.068,0,0,1,0,.049.067.067,0,0,1,.033.009.065.065,0,0,1,.082,0L.558.14A.066.066,0,0,1,.594.169.068.068,0,0,1,.6.215a.067.067,0,0,1-.024.04A.065.065,0,0,1,.535.27Z" transform="translate(4.61 15.215)" opacity="0.3"/>
                  <path id="Vector-3" data-name="Vector" d="M.061.26A.066.066,0,0,1,.024.245.068.068,0,0,1,0,.21.068.068,0,0,1,.009.157.067.067,0,0,1,.027.137.065.065,0,0,1,.051.125L.53,0A.065.065,0,0,1,.578.01.067.067,0,0,1,.608.05.068.068,0,0,1,.6.1.066.066,0,0,1,.562.131L.083.255A.064.064,0,0,1,.061.26Z" transform="translate(4.596 15.602)" opacity="0.3"/>
                  <path id="Vector-4" data-name="Vector" d="M.061.489A.067.067,0,0,1,.019.468a.068.068,0,0,1,0-.094L.373.022A.066.066,0,0,1,.395.006a.064.064,0,0,1,.052,0A.066.066,0,0,1,.469.02.067.067,0,0,1,.483.043.068.068,0,0,1,.481.1.067.067,0,0,1,.465.118L.112.472A.067.067,0,0,1,.088.486a.066.066,0,0,1-.028,0Z" transform="translate(4.841 15.825)" opacity="0.3"/>
                  <path id="Vector-5" data-name="Vector" d="M.06.618H.048A.065.065,0,0,1,.025.606.067.067,0,0,1,.008.585.068.068,0,0,1,0,.533L.134.047A.067.067,0,0,1,.166.008.064.064,0,0,1,.215,0,.066.066,0,0,1,.254.034a.068.068,0,0,1,.007.05L.126.569A.067.067,0,0,1,.1.605.065.065,0,0,1,.06.618Z" transform="translate(5.271 15.964)" opacity="0.3"/>
                </g>
                <path id="Vector-6" data-name="Vector" d="M7.343,3.835A8.617,8.617,0,0,1,3.957,5.787a.946.946,0,0,1-1.164-.316A40.526,40.526,0,0,1,.15,2.331L0,0A1.46,1.46,0,0,1,1.425.753c.292.459,2.2,3.381,2.2,3.381l2.609-.385,1.192-.7a1.324,1.324,0,0,1-.08.787Z" transform="translate(10.899 5.996)" fill="#ffede5"/>
                <g id="Dumbbell">
                  <path id="Vector-7" data-name="Vector" d="M.047.814A1.185,1.185,0,0,1,1.435.038,1.088,1.088,0,0,1,1.7.154,2.353,2.353,0,0,1,2.748,2a1.125,1.125,0,0,1-.047.34h0a1.185,1.185,0,0,1-1.388.778A1.122,1.122,0,0,1,1.045,3,2.369,2.369,0,0,1,0,1.154,1.145,1.145,0,0,1,.047.814Z" transform="translate(17.786 6.753)" fill="#455a64"/>
                  <path id="Vector-8" data-name="Vector" d="M1.045,2.61A2.369,2.369,0,0,1,0,.762C0,.081.468-.194,1.045.145A2.364,2.364,0,0,1,2.088,1.993C2.088,2.674,1.622,2.95,1.045,2.61Z" transform="translate(17.787 7.14)" fill="#37474f"/>
                  <path id="Vector-9" data-name="Vector" d="M.4.056A.9.9,0,0,1,.687.363.92.92,0,0,1,.8.767c0,.261-.18.368-.4.237A.9.9,0,0,1,.118.7.921.921,0,0,1,0,.293C0,.031.18-.075.4.056Z" transform="translate(18.429 7.984)" fill="#455a64"/>
                  <path id="Vector-10" data-name="Vector" d="M0,.1A.1.1,0,0,1,.008.05.1.1,0,0,1,.036.012L.046.006A.1.1,0,0,1,.138.019a.31.31,0,0,1,.1.105.317.317,0,0,1,.04.138A.1.1,0,0,1,.268.309.1.1,0,0,1,.241.348L.231.353A.1.1,0,0,1,.138.341a.309.309,0,0,1-.1-.1A.316.316,0,0,1,0,.1Z" transform="translate(18.694 8.336)" fill="#37474f"/>
                  <path id="Vector-11" data-name="Vector" d="M0,1.4a.1.1,0,0,1,.011-.053.1.1,0,0,1,.037-.039L2.244.012l.01-.006a.1.1,0,0,1,.092.013.31.31,0,0,1,.1.105.317.317,0,0,1,.04.138.1.1,0,0,1-.008.047.1.1,0,0,1-.027.038l-.01.006L.243,1.647A.09.09,0,0,1,.2,1.661a.113.113,0,0,1-.06-.019.309.309,0,0,1-.1-.105A.316.316,0,0,1,0,1.4Z" transform="translate(16.486 8.336)" fill="#fafafa"/>
                  <path id="Vector-12" data-name="Vector" d="M.046.818A1.186,1.186,0,0,1,1.434.038,1.141,1.141,0,0,1,1.7.154,2.369,2.369,0,0,1,2.748,2a1.157,1.157,0,0,1-.047.34,1.186,1.186,0,0,1-1.388.778A1.136,1.136,0,0,1,1.045,3,2.368,2.368,0,0,1,0,1.157,1.135,1.135,0,0,1,.046.818Z" transform="translate(14.286 8.812)" fill="#455a64"/>
                  <path id="Vector-13" data-name="Vector" d="M1.045,2.61A2.368,2.368,0,0,1,0,.762C0,.082.468-.194,1.045.145A2.369,2.369,0,0,1,2.091,1.994C2.091,2.675,1.623,2.95,1.045,2.61Z" transform="translate(14.285 9.203)" fill="#37474f"/>
                  <path id="Vector-14" data-name="Vector" d="M.4.056A.9.9,0,0,1,.686.363.921.921,0,0,1,.8.767c0,.261-.18.368-.4.237A.9.9,0,0,1,.118.7.92.92,0,0,1,0,.293C0,.031.18-.075.4.056Z" transform="translate(14.928 10.045)" fill="#455a64"/>
                  <path id="Vector-15" data-name="Vector" d="M0,.1A.1.1,0,0,1,.008.05.1.1,0,0,1,.036.012L.046.006A.1.1,0,0,1,.137.018a.31.31,0,0,1,.1.105A.317.317,0,0,1,.275.262.1.1,0,0,1,.267.309.1.1,0,0,1,.24.347L.23.353A.1.1,0,0,1,.137.34.309.309,0,0,1,.04.235.316.316,0,0,1,0,.1Z" transform="translate(15.193 10.399)" fill="#37474f"/>
                  <path id="Vector-16" data-name="Vector" d="M0,.292A.1.1,0,0,1,.011.239.1.1,0,0,1,.048.2L.369.012.379.006A.1.1,0,0,1,.47.018a.31.31,0,0,1,.1.105A.317.317,0,0,1,.608.262.1.1,0,0,1,.6.309.1.1,0,0,1,.572.347L.562.353.243.541A.092.092,0,0,1,.2.555.113.113,0,0,1,.137.536a.306.306,0,0,1-.1-.1A.314.314,0,0,1,0,.292Z" transform="translate(14.86 10.403)" fill="#fafafa"/>
                  <path id="Vector-17" data-name="Vector" d="M0,.1A.1.1,0,0,1,.008.051.1.1,0,0,1,.035.012L.045.006A.1.1,0,0,1,.137.018a.312.312,0,0,1,.1.106A.32.32,0,0,1,.275.263.1.1,0,0,1,.268.31.1.1,0,0,1,.24.348L.23.354A.1.1,0,0,1,.137.342.309.309,0,0,1,.04.236.316.316,0,0,1,0,.1Z" transform="translate(14.86 10.598)" fill="#e0e0e0"/>
                </g>
                <path id="Vector-18" data-name="Vector" d="M.634,1.351c.092-.138-.122-.4-.226-.325l-.254.149a.385.385,0,0,1-.108-.127A.393.393,0,0,1,0,.888.358.358,0,0,1,.032.745.352.352,0,0,1,.119.628,1.14,1.14,0,0,0,.263.51C.309.455.328.379.375.324A.4.4,0,0,1,.63.214.285.285,0,0,0,.769.169.487.487,0,0,0,.821.11C.963-.056,1.2,0,1.379.068c.4.161.508.192.582.616.087.961-.4.958-.9,1.351,0,0-.573-.465-.426-.684Z" transform="translate(16.501 8.393)" fill="#ffede5"/>
                <path id="Vector-19" data-name="Vector" d="M2.141,2.93A2.308,2.308,0,0,1,.324,1.912a4.315,4.315,0,0,0-.067-.717L0,.144,4.722,0a17.119,17.119,0,0,1-.208,2.328,3.622,3.622,0,0,1-2.372.6Z" transform="translate(7.167 10.032)" fill="#ffede5"/>
                <path id="Vector-20" data-name="Vector" d="M5.032,4.038C5.038,4.09,5,4.594,5,4.594c-.6.519-2.54.781-4.574.091L0,2.987S1.462,2.332.474.133L1.536.048,3.421,0H4.04A7.071,7.071,0,0,1,5.315,1.723a1.9,1.9,0,0,1-.283,2.315Z" transform="translate(6.86 5.994)" fill="#455a64"/>
                <path id="Vector-21" data-name="Vector" d="M2.872.682a1.6,1.6,0,0,1-1.81.751A1.291,1.291,0,0,1,.007,0,1.352,1.352,0,0,0,1.131,1.163a1.881,1.881,0,0,0,1.74-.48Z" transform="translate(8.088 8.884)" fill="#37474f"/>
                <path id="Vector-22" data-name="Vector" d="M1.975,4.786A1.438,1.438,0,0,1,.645,4.775,1.4,1.4,0,0,1,.022,3.307a13.028,13.028,0,0,1,.51-1.4A12.206,12.206,0,0,1,.653.625,1,1,0,0,1,.882.268.975.975,0,0,1,1.235.041a.582.582,0,0,1,.521.047l.15.09Z" transform="translate(0.003 18.201)" fill="#263238"/>
                <path id="Vector-23" data-name="Vector" d="M2.308,2.16,1.914,3.367s.249.861.109,1.09c-.207.34-.572.4-1.187.207A1.242,1.242,0,0,1,0,3.292c.05-.719.7-1.26.626-1.952A1.619,1.619,0,0,1,.822.329.717.717,0,0,1,1.707.048a2.962,2.962,0,0,1,.811.462.92.92,0,0,1,.195.17.638.638,0,0,1,.1.2,1.1,1.1,0,0,1,.04.459.706.706,0,0,1-.193.34Z" transform="translate(0.265 18.345)" fill="url(#linear-gradient)"/>
                <path id="Vector-24" data-name="Vector" d="M1.588,2.191.174,1.334s-.317-.192-.1-.71C.386-.106.706-.022.836.038S2.169.883,2.194.892Z" transform="translate(2.078 19.041)" fill="#ffede5"/>
                <path id="Vector-25" data-name="Vector" d="M.963.453A1.717,1.717,0,0,0,.142.266.127.127,0,0,1,.08.256.13.13,0,0,1,.029.218.134.134,0,0,1,0,.16.135.135,0,0,1,.005.1h0A.132.132,0,0,1,.049.033.127.127,0,0,1,.119.006a1.392,1.392,0,0,1,.96.237C1.16.411.963.453.963.453Z" transform="translate(1.215 21.258)" fill="url(#linear-gradient-2)"/>
                <path id="Vector-26" data-name="Vector" d="M.947.494A1.714,1.714,0,0,0,.136.264.128.128,0,0,1,.074.251.13.13,0,0,1,.025.21.135.135,0,0,1,.008.086h0A.132.132,0,0,1,.054.025.128.128,0,0,1,.125,0a1.4,1.4,0,0,1,.947.288C1.145.462.947.494.947.494Z" transform="translate(1.376 20.666)" fill="url(#linear-gradient-2)"/>
                <path id="Vector-27" data-name="Vector" d="M.963.453A1.717,1.717,0,0,0,.142.266.127.127,0,0,1,.08.256.13.13,0,0,1,.029.218.134.134,0,0,1,0,.16.135.135,0,0,1,.005.1h0A.132.132,0,0,1,.049.033.127.127,0,0,1,.119.006a1.392,1.392,0,0,1,.96.237C1.16.411.963.453.963.453Z" transform="translate(1.215 21.258)" opacity="0.3"/>
                <path id="Vector-28" data-name="Vector" d="M.947.494A1.714,1.714,0,0,0,.136.264.128.128,0,0,1,.074.251.13.13,0,0,1,.025.21.135.135,0,0,1,.008.086h0A.132.132,0,0,1,.054.025.128.128,0,0,1,.125,0a1.4,1.4,0,0,1,.947.288C1.145.462.947.494.947.494Z" transform="translate(1.376 20.666)" opacity="0.3"/>
                <path id="Vector-29" data-name="Vector" d="M0,1.813V0L1.775.345A9.463,9.463,0,0,0,1.8,2.382L.233,3.015Z" transform="translate(14.362 20.103)" fill="#ffede5"/>
                <path id="Vector-30" data-name="Vector" d="M5.121.978a.545.545,0,0,1-.022.391,1.893,1.893,0,0,1-1.43.4,3.252,3.252,0,0,1-1.636-.583A1.861,1.861,0,0,0,1.027.918,1.452,1.452,0,0,1,.035.509.905.905,0,0,1,.048,0Z" transform="translate(13.937 23.543)" fill="#263238"/>
                <path id="Vector-31" data-name="Vector" d="M1.919.171,1.981.157a.24.24,0,0,1,.1-.005.206.206,0,0,1,.1.067,1.938,1.938,0,0,1,.2.323,2.359,2.359,0,0,0,.894.713c.259.142.511.255.778.374a6.1,6.1,0,0,1,.846.348.589.589,0,0,1,0,.961,2.733,2.733,0,0,1-1.948.138C2.5,2.944,1.986,2.444,1.385,2.4A2.34,2.34,0,0,1,.032,1.961c-.091-.132.031-.549.131-.909C.271.659.311-.034.439,0c0,0-.035.1.015.15s.225.158.277.2a1.043,1.043,0,0,1,.205.31.229.229,0,0,0,.108.12c.065.025.113-.017.166-.043A.326.326,0,0,1,1.44.724,1.442,1.442,0,0,0,1.4.493.144.144,0,0,1,1.393.418.126.126,0,0,1,1.442.362,1.219,1.219,0,0,1,1.919.171Z" transform="translate(13.949 21.83)" fill="url(#linear-gradient)"/>
                <path id="Vector-32" data-name="Vector" d="M1.008.2A1.081,1.081,0,0,0,.239.482.14.14,0,0,1,.073.5h0A.145.145,0,0,1,.023.453.149.149,0,0,1,.011.316.147.147,0,0,1,.052.26,1.03,1.03,0,0,1,.726.005.354.354,0,0,1,1.008.2Z" transform="translate(15.862 22.676)" fill="url(#linear-gradient-2)"/>
                <path id="Vector-33" data-name="Vector" d="M.637.232A1.094,1.094,0,0,0,.226.495.133.133,0,0,1,.07.514h0A.141.141,0,0,1,.022.467.145.145,0,0,1,.011.336.143.143,0,0,1,.05.281,1.261,1.261,0,0,1,.787,0,.4.4,0,0,1,.974.047a.411.411,0,0,1,.145.129A1.076,1.076,0,0,0,.637.232Z" transform="translate(16.29 23.006)" fill="url(#linear-gradient-2)"/>
                <path id="Vector-34" data-name="Vector" d="M.626.222A1.045,1.045,0,0,0,.227.5.134.134,0,0,1,.07.516h0A.14.14,0,0,1,.022.469.144.144,0,0,1,.011.338.142.142,0,0,1,.051.284,1.209,1.209,0,0,1,.756,0,.45.45,0,0,1,.947.041.459.459,0,0,1,1.1.159,1.026,1.026,0,0,0,.626.222Z" transform="translate(16.902 23.302)" fill="url(#linear-gradient-2)"/>
                <path id="Vector-35" data-name="Vector" d="M1.008.2A1.081,1.081,0,0,0,.239.482.14.14,0,0,1,.073.5h0A.145.145,0,0,1,.023.453.149.149,0,0,1,.011.316.147.147,0,0,1,.052.26,1.03,1.03,0,0,1,.726.005.354.354,0,0,1,1.008.2Z" transform="translate(15.862 22.676)" opacity="0.3"/>
                <path id="Vector-36" data-name="Vector" d="M.637.232A1.094,1.094,0,0,0,.226.495.133.133,0,0,1,.07.514h0A.141.141,0,0,1,.022.467.145.145,0,0,1,.011.336.143.143,0,0,1,.05.281,1.261,1.261,0,0,1,.787,0,.4.4,0,0,1,.974.047a.411.411,0,0,1,.145.129A1.076,1.076,0,0,0,.637.232Z" transform="translate(16.29 23.006)" opacity="0.3"/>
                <path id="Vector-37" data-name="Vector" d="M.626.222A1.045,1.045,0,0,0,.227.5.134.134,0,0,1,.07.516h0A.14.14,0,0,1,.022.469.144.144,0,0,1,.011.338.142.142,0,0,1,.051.284,1.209,1.209,0,0,1,.756,0,.45.45,0,0,1,.947.041.459.459,0,0,1,1.1.159,1.026,1.026,0,0,0,.626.222Z" transform="translate(16.902 23.302)" opacity="0.3"/>
                <path id="Vector-38" data-name="Vector" d="M13.539,4.268c-.052,1.128-.582,4.51-.582,4.51a2.2,2.2,0,0,1-1.751.01,21.614,21.614,0,0,1-.4-3.691l-3.892.126S6.667,9.778,6.448,11.2a1.334,1.334,0,0,1-1.839.914A22.638,22.638,0,0,1,.077,9.064a.926.926,0,0,1,.04-.81c.211-.557.461-.6.461-.6L3.488,8.75s-.3-2.59-.52-3.574A3.69,3.69,0,0,1,3.2,2.322a8.273,8.273,0,0,1,.977-1.5L4.332,0A4.641,4.641,0,0,0,8.521.417l-.046.774s2.84.606,4.029.879c1.15.264,1.087.94,1.034,2.2Z" transform="translate(3.16 11.944)" fill="url(#linear-gradient)"/>
                <path id="Vector-39" data-name="Vector" d="M0,1.3C.283.113.9,0,.9,0A1.975,1.975,0,0,0,.318,1.289Z" transform="translate(13.653 15.751)" opacity="0.15"/>
                <path id="Vector-40" data-name="Vector" d="M.289.11A7.965,7.965,0,0,0,.582,1.773,5.362,5.362,0,0,1,0,0Z" transform="translate(6.358 20.583)" opacity="0.15"/>
                <path id="Vector-41" data-name="Vector" d="M2.313,1.591A3.494,3.494,0,0,1,0,.82L.157,0A4.643,4.643,0,0,0,4.345.417L4.3,1.19s-.321.488-1.986.4Z" transform="translate(7.335 11.945)" opacity="0.15"/>
                <path id="Vector-42" data-name="Vector" d="M1.018,2.214A3.153,3.153,0,0,0,.732,1,3.1,3.1,0,0,0,0,0,2.541,2.541,0,0,1,1.194,1.768,2.277,2.277,0,0,0,2.207.5a2.878,2.878,0,0,1-.642,1.489l1.614.152Z" transform="translate(9.064 14.954)" opacity="0.15"/>
                <path id="Vector-43" data-name="Vector" d="M2.6,0A2.572,2.572,0,0,1,4.439.778,2.681,2.681,0,0,1,5.2,2.653h0a2.681,2.681,0,0,1-.759,1.875A2.572,2.572,0,0,1,2.6,5.306h0a2.554,2.554,0,0,1-1-.2A2.6,2.6,0,0,1,.763,4.53,2.658,2.658,0,0,1,.2,3.669,2.7,2.7,0,0,1,0,2.653H0A2.7,2.7,0,0,1,.2,1.636,2.658,2.658,0,0,1,.763.775,2.6,2.6,0,0,1,1.608.2a2.554,2.554,0,0,1,1-.2Z" transform="translate(6.959 0)" fill="#263238"/>
                <path id="Vector-44" data-name="Vector" d="M2.186,0a1.356,1.356,0,0,1,.281.016A.127.127,0,0,1,2.55.057a.123.123,0,0,1,.021.065A.952.952,0,0,1,2.532.56c-.037.1-.151.149-.223.22A1.146,1.146,0,0,0,2.116,1.9c.111.383.333.724.476,1.094a1.42,1.42,0,0,1,.017,1.188c-.079.143-.223.255-.205.424a2.4,2.4,0,0,0,.274.594,1.466,1.466,0,0,1,.083.7,1.49,1.49,0,0,1-.307.806,1.188,1.188,0,0,1-.512.356,1.165,1.165,0,0,1-.618.045.568.568,0,0,1-.24-.1,1.068,1.068,0,0,1-.238-.409c-.214-.469-.665-.811-.8-1.309a1.912,1.912,0,0,1,.4-1.533,2.4,2.4,0,0,0,.371-.663,3.087,3.087,0,0,0-.01-1.03,2.924,2.924,0,0,1,.112-1A1.517,1.517,0,0,1,1.274.387,1.443,1.443,0,0,1,2.186,0Z" transform="translate(4.662 1.611)" fill="#263238"/>
                <path id="Vector-45" data-name="Vector" d="M3.684,0c.284.174.634.908.594,2.445-.035,1.3-.45,1.622-.658,1.715a2.145,2.145,0,0,1-1-.035v.782s.536.64.5,1-.778.44-1.281.085A4.176,4.176,0,0,1,.917,4.954l.017-1.8S.7,3.385.313,3.037A.749.749,0,0,1,.139,2.012a.555.555,0,0,1,.889.184,3.032,3.032,0,0,0,1.449-.435,2.345,2.345,0,0,0,.809-.733A2.4,2.4,0,0,0,3.684,0Z" transform="translate(7.504 1.214)" fill="#ffede5"/>
                <path id="Vector-46" data-name="Vector" d="M.321.163A.166.166,0,0,1,.295.254.161.161,0,0,1,.224.314.158.158,0,0,1,.132.325.159.159,0,0,1,.049.282.165.165,0,0,1,0,.2.167.167,0,0,1,.011.105.163.163,0,0,1,.067.031.158.158,0,0,1,.155,0,.165.165,0,0,1,.27.047.171.171,0,0,1,.321.163Z" transform="translate(10.037 3.163)" fill="#263238"/>
                <g id="Group-3" data-name="Group" opacity="0.5" style="mix-blend-mode: multiply;isolation: isolate">
                  <path id="Vector-47" data-name="Vector" d="M.009,0,.381.122a.2.2,0,0,1-.034.07A.193.193,0,0,1,.288.243a.189.189,0,0,1-.15.015.205.205,0,0,1-.116-.1A.212.212,0,0,1,.009,0Z" transform="translate(10.386 4.43)" fill="#f28f8f" opacity="0.5" style="mix-blend-mode: multiply;isolation: isolate"/>
                </g>
                <path id="Vector-48" data-name="Vector" d="M.323.322,0,.091A.191.191,0,0,1,.053.035a.186.186,0,0,1,.217,0A.214.214,0,0,1,.352.168.218.218,0,0,1,.323.322Z" transform="translate(11.353 2.506)" fill="#263238"/>
                <path id="Vector-49" data-name="Vector" d="M.321.162A.166.166,0,0,1,.3.253.161.161,0,0,1,.224.314.158.158,0,0,1,.132.325.159.159,0,0,1,.05.282.165.165,0,0,1,0,.2.167.167,0,0,1,.01.106.163.163,0,0,1,.067.031.158.158,0,0,1,.155,0,.165.165,0,0,1,.27.047.171.171,0,0,1,.321.162Z" transform="translate(11.279 3.05)" fill="#263238"/>
                <g id="Group-4" data-name="Group" opacity="0.5" style="mix-blend-mode: multiply;isolation: isolate">
                  <path id="Vector-50" data-name="Vector" d="M.531.828.022.986,0,0Z" transform="translate(10.843 3.115)" fill="#f28f8f" opacity="0.5" style="mix-blend-mode: multiply;isolation: isolate"/>
                </g>
                <g id="Group-5" data-name="Group" opacity="0.5" style="mix-blend-mode: multiply;isolation: isolate">
                  <path id="Vector-51" data-name="Vector" d="M1.382.912A4.409,4.409,0,0,1,.294.435.884.884,0,0,1,0,0C.13.341.973.592,1.384.648Z" transform="translate(8.743 4.69)" fill="#f28f8f" opacity="0.5" style="mix-blend-mode: multiply;isolation: isolate"/>
                </g>
                <path id="Vector-52" data-name="Vector" d="M3.242,2.857l-1.4,2.971s.342,1.027.6,1.8A11.686,11.686,0,0,0,3,9.028c.115.151.369.192.525.329.23.2.409.435.511.537.17.172.36.239.3.35s-.276.128-.467.048a2.727,2.727,0,0,1-.4-.223c.192.643.9,1.126.881,1.415s-.629.5-1.1.348a2.239,2.239,0,0,1-.971-.967A7.311,7.311,0,0,1,1.8,9.671C1.654,9.3.3,6.716.129,6.267A1.331,1.331,0,0,1,.212,4.978c.241-.526,1.206-2.888,1.609-3.8C2.269.163,2.6.059,3.406,0a2.41,2.41,0,0,1-.164,2.857Z" transform="translate(3.928 6.128)" fill="#ffede5"/>
                <path id="Vector-53" data-name="Vector" d="M0,.649A1.691,1.691,0,0,1,1.209,0l.23.523a1.282,1.282,0,0,0-1.193.643Z" transform="translate(5.482 14.634)" fill="#37474f"/>
                <path id="Vector-54" data-name="Vector" d="M.036.549A.189.189,0,0,1,0,.412.187.187,0,0,1,.072.29L.425.035A.173.173,0,0,1,.489,0,.172.172,0,0,1,.624.029.176.176,0,0,1,.674.08L.848.341a.2.2,0,0,1,.03.141A.2.2,0,0,1,.806.605L.473.86A.174.174,0,0,1,.41.891.172.172,0,0,1,.274.869.177.177,0,0,1,.224.82L.036.549Z" transform="translate(5.597 14.686)" fill="#263238"/>
                <path id="Vector-55" data-name="Vector" d="M0,.413a.186.186,0,0,1,.07-.12L.425.035a.173.173,0,0,1,.2-.005.177.177,0,0,1,.05.05L.848.341A.2.2,0,0,1,.877.482.2.2,0,0,1,.8.6L.472.86A.175.175,0,0,1,.409.89.173.173,0,0,1,.274.869.178.178,0,0,1,.223.82L.034.549A.188.188,0,0,1,0,.413Z" transform="translate(5.538 14.68)" fill="#455a64"/>
                <path id="Vector-56" data-name="Vector" d="M.745.395A.129.129,0,0,1,.7.48L.365.734a.1.1,0,0,1-.039.02.1.1,0,0,1-.044,0A.107.107,0,0,1,.242.741.109.109,0,0,1,.21.711L.021.439A.113.113,0,0,1,0,.361.115.115,0,0,1,.015.313.113.113,0,0,1,.047.276L.4.021A.106.106,0,0,1,.439,0,.1.1,0,0,1,.483,0a.107.107,0,0,1,.04.016A.109.109,0,0,1,.554.049L.728.31a.129.129,0,0,1,.02.085Z" transform="translate(5.607 14.745)" fill="url(#linear-gradient-2)"/>
              </g>
            </g>
          </g>
        </g>
      </g>
    </g>
  </g>
</svg>
