<svg xmlns="http://www.w3.org/2000/svg" width="40" height="40" viewBox="0 0 40 40">
  <g id="Ellipse" transform="translate(-30 -102)">
    <circle id="Ellipse_151" data-name="Ellipse 151" cx="20" cy="20" r="20" transform="translate(30 102)" fill="#f8600d" opacity="0.2"/>
    <g id="Vector">
      <g id="Layer_2" data-name="Layer 2">
        <g id="OBJECTS">
          <path id="Vector-2" data-name="Vector" d="M20.334,2.03c0,1.122-5.1,2.351-10.505,2.351S0,2.432,0,1.31,5.138,0,10.544,0s9.79.908,9.79,2.03Z" transform="translate(40.65 125.868)" fill="#e2cab3" fill-rule="evenodd"/>
          <path id="Vector-3" data-name="Vector" d="M5.877,1.013c.015.6-1.287,1.119-2.91,1.16S.015,1.763,0,1.162,1.287.044,2.91,0,5.862.413,5.877,1.013Z" transform="translate(55.943 128.029)" fill="#e2cab3" fill-rule="evenodd"/>
          <path id="Vector-4" data-name="Vector" d="M2.692.042c1.022.16,1.222.527,1.965,1.3.041.075.932.859.967.929.1.217.315.481.155.726-.1.153.1.259.026.4a.461.461,0,0,0-.068.129.692.692,0,0,1,.077.357,1.647,1.647,0,0,1-.5.821A7.64,7.64,0,0,1,3.9,5.515,5.166,5.166,0,0,1,1.9,6.062C.5,5.887-.551,4.824.314,2.794.164.3,1.409-.16,2.692.042Z" transform="translate(37.878 121.985)" fill="#5f825c" fill-rule="evenodd"/>
          <path id="Vector-5" data-name="Vector" d="M.4,0c.146.018.218.41.157.881S.326,1.713.179,1.7-.038,1.285.021.815.241-.018.4,0Z" transform="translate(38.26 124.029)" fill="#5f825c" fill-rule="evenodd" opacity="0.4" style="mix-blend-mode: multiply;isolation: isolate"/>
          <path id="Vector-6" data-name="Vector" d="M.808.442c.084.223.166.464.442.506.127.019.365.049.4.2v.03a.033.033,0,0,0-.019.015.779.779,0,0,1-.82.212,1.172,1.172,0,0,1-.606-.4A.82.82,0,0,1,.1.84.042.042,0,0,0,.09.826C-.037.566-.066.165.248.029.524-.1.724.219.808.442Z" transform="translate(38.546 126.202)" fill="#8db54f" fill-rule="evenodd"/>
          <path id="Vector-7" data-name="Vector" d="M.666.246a3.66,3.66,0,0,1,.439.435,2.886,2.886,0,0,0,.369.364.993.993,0,0,1,.193.171.493.493,0,0,1,.122.185c.057.187-.073.369-.015.557a1.039,1.039,0,0,1,.023.651.646.646,0,0,1-.1.189.3.3,0,0,1-.036.083A.181.181,0,0,1,1.4,2.9c-.369-.326-.068-.923-.3-1.309A8.838,8.838,0,0,0,.219.62C.1.473-.142.164.114.028.282-.064.5.089.666.246Z" transform="translate(41.516 123.188)" fill="#5f825c" fill-rule="evenodd" opacity="0.4" style="mix-blend-mode: multiply;isolation: isolate"/>
          <path id="Vector-8" data-name="Vector" d="M1.428.618C1.29.6,1.2.54.757.431S.084.3.015.256.139,0,.139,0,.473.127.748.228s.778.235.778.235.079.044.047.115-.145.04-.145.04Z" transform="translate(36.998 124.287)" fill="#300d33" fill-rule="evenodd"/>
          <path id="Vector-9" data-name="Vector" d="M21.416,1.178a.064.064,0,0,1,.053.025.062.062,0,0,1,.01.057,6.714,6.714,0,0,1-.414,1.034c-.157.354-.289.717-.414,1.083-.2.579-.412,1.152-.6,1.733a7.778,7.778,0,0,1-1.494,2.67C17.158,9,15.255,9.543,10.33,9.642c-4.609.092-7.41-.387-9.078-2.576C1.059,6.808-.21,2.871.03,2.228A2.769,2.769,0,0,1,1.014.908,4.789,4.789,0,0,1,3.029.225,15.539,15.539,0,0,1,5.621,0a45.918,45.918,0,0,1,5.395.431c1.8.205,3.621.29,5.417.487.889.1,1.79.191,2.67.361a5.338,5.338,0,0,0,1.233.228,6.215,6.215,0,0,0,1.08-.33Z" transform="translate(40.443 119.773)" fill="#da840d" fill-rule="evenodd"/>
          <path id="Vector-10" data-name="Vector" d="M21.386.239a1.158,1.158,0,0,1-.218.628c-.146.252-.28.516-.438.76a4.125,4.125,0,0,1-1.343,1.3A13.172,13.172,0,0,1,14.867,4.5a33.006,33.006,0,0,1-5.248.513A7.839,7.839,0,0,1,8.29,4.974c-.394-.053-.785-.14-1.18-.19a8.624,8.624,0,0,1-1.1-.161,7.935,7.935,0,0,1-1.072-.357c-.78-.323-1.508-.748-2.279-1.112a2.954,2.954,0,0,0-1.338-.44c-.327.008-.651.068-.976.068a.061.061,0,0,1-.091,0H.233a.036.036,0,1,1,0-.072C.207,2.6.18,2.482.155,2.369a1.208,1.208,0,0,1-.12-.828v-.01a.427.427,0,0,1,.04-.17c.1-.205.4-.285.6-.342A5.175,5.175,0,0,1,1.888.831a44.033,44.033,0,0,1,5.554.175c1.808.148,3.624.36,5.439.4A25.331,25.331,0,0,0,18.366.85a5.946,5.946,0,0,0,2.269-.6c.193-.133.72-.486.751-.012Z" transform="translate(40.478 120.969)" fill="#c66720" fill-rule="evenodd"/>
          <path id="Vector-11" data-name="Vector" d="M19.049,0c-.156.445-.939,2.73-1.646,3.35-1.4,1.22-3.4,1.8-8.323,1.893C4.472,5.334,1.67,4.856,0,2.667c-.062-.081,1.985,2.645,8.822,1.688C14.652,3.534,15.628,2.788,19.049,0Z" transform="translate(41.699 124.14)" fill="#c66720" fill-rule="evenodd" opacity="0.4"/>
          <path id="Vector-12" data-name="Vector" d="M24.124,5.331c-.1.335-.182.695-.3,1.019a13.3,13.3,0,0,1-2.041,2.435,4.032,4.032,0,0,1-2.04,1.086c-.419.056-.78.353-1.195.445a11.282,11.282,0,0,0-1.073.35,5.739,5.739,0,0,1-1.214.253c-.359.029-.668.291-1.026.261a2.273,2.273,0,0,0-1.276.149c-.327.165-2.8-.041-3.576.029a4.357,4.357,0,0,1-1.148.026,5.906,5.906,0,0,1-1.07-.375c-.805-.3-1.6-.6-2.432-.821-.414-.111-.838-.22-1.243-.367-.352-.127-.673-.324-1.019-.454-.706-.26-1.9.235-2.087-.821C1.34,8.3.829,8.183.629,8.076a1.218,1.218,0,0,1-.537-.449,1.044,1.044,0,0,1-.021-.806A2.1,2.1,0,0,0,.18,5.688a2.475,2.475,0,0,1-.1-.936A2.212,2.212,0,0,1,.429,3.91a3.441,3.441,0,0,1,1.657-1.2c.772-.326,1.392-.933,2.171-1.231a3.99,3.99,0,0,1,2-.145,3.425,3.425,0,0,0,1.163.034,3.56,3.56,0,0,0,.925-.349c.348-.181.681-.38,1.028-.559A.05.05,0,0,1,9.379.432.051.051,0,0,1,9.4.414a2.328,2.328,0,0,1,1-.41,2.977,2.977,0,0,1,1.152.171,4.157,4.157,0,0,0,1.374.274A7.683,7.683,0,0,1,14.235.389a5.021,5.021,0,0,1,1.217.387,6.19,6.19,0,0,0,1.355.371,5.392,5.392,0,0,1,2.21.614A13.669,13.669,0,0,0,21.29,2.834a3.952,3.952,0,0,1,.95.576,3.134,3.134,0,0,0,.819.628c.37.137,1.12.2,1.2.684a1.523,1.523,0,0,1-.134.61Z" transform="translate(38.736 114)" fill="#f0a508" fill-rule="evenodd"/>
          <g id="Group" opacity="0.5">
            <path id="Vector-13" data-name="Vector" d="M2.182.235A1.158,1.158,0,0,1,2.884,0c.449-.007.559.025.986.61a8.7,8.7,0,0,0,1.67,1.6,14.308,14.308,0,0,1,2,1.89C8.3,4.975,9.4,7.219,9.18,7.481s-.779.386-1.747.684a14.917,14.917,0,0,1-4.261.51C1.6,8.633.45,8.4.134,7.92s0-1.706.243-2.454A17.387,17.387,0,0,1,1.683,3.333a3.4,3.4,0,0,0,.258-1.981c-.012-.927.126-.968.24-1.117Z" transform="translate(48.052 116.075)" fill="#e2cab3" fill-rule="evenodd" opacity="0.5"/>
            <path id="Vector-14" data-name="Vector" d="M0,5.969A8.286,8.286,0,0,1,1.638,3.63c.62-.866.988-1.245,1.809-1.368s.372-.119,1.305-.249A4.764,4.764,0,0,0,7.1,1.193,7.4,7.4,0,0,1,8.393.2c.336-.119.854-.384.486-.01S9,.71,8.312,1.726A8.294,8.294,0,0,0,7.047,4.052c-.246.784-.5,3.229-1.062,3.422a5.5,5.5,0,0,1-3.149-.231A30.279,30.279,0,0,1,0,5.969Z" transform="translate(41.51 116.234)" fill="#e2cab3" fill-rule="evenodd" opacity="0.5"/>
            <path id="Vector-15" data-name="Vector" d="M6.738,7.9a16.087,16.087,0,0,1-.849-2.024,7.092,7.092,0,0,0-.6-1.306A3.8,3.8,0,0,0,3.9,2.909c-.682-.391-2.08-.919-2.679-1.231A6.362,6.362,0,0,1,0,.766,3.644,3.644,0,0,1,1.709.022,10.729,10.729,0,0,1,4.333.159a14.8,14.8,0,0,1,3.848,1.26,17.052,17.052,0,0,1,2.762,2.076c.257.233.019.428-.191,1.212A4.144,4.144,0,0,1,9.217,6.593,6.1,6.1,0,0,1,7.4,7.52Z" transform="translate(50.947 115.308)" fill="#e2cab3" fill-rule="evenodd" opacity="0.5"/>
            <path id="Vector-16" data-name="Vector" d="M.336,2.687a16.1,16.1,0,0,1,2.447-1.57C4.082.46,5.226-.157,6.4.117S9.016-.158,9.919.047a9.67,9.67,0,0,1,1.736.6,8.957,8.957,0,0,0-1.776.871A8.909,8.909,0,0,1,6.886,2.3a5.167,5.167,0,0,0-2.569.83A14.735,14.735,0,0,0,2.014,6c-.471.677-1.162.023-1.162.023A4.665,4.665,0,0,1,.079,4.788a4.039,4.039,0,0,1,.257-2.1Z" transform="translate(39.293 115.43)" fill="#e2cab3" fill-rule="evenodd" opacity="0.5"/>
            <path id="Vector-17" data-name="Vector" d="M0,1.114S1.214-.02,2.039,0a4.958,4.958,0,0,1,1.88.41c.568.175.794.245.648.471s-.837,1.231-.837,1.231a13.919,13.919,0,0,0-2.265-.9A9.744,9.744,0,0,0,0,1.114Z" transform="translate(47.363 114.099)" fill="#e2cab3" fill-rule="evenodd" opacity="0.5"/>
          </g>
          <path id="Vector-18" data-name="Vector" d="M17.458,2.439a2.725,2.725,0,0,0,.256.1,1.182,1.182,0,0,1-.327.626c-.192.227-.377.46-.572.684a9.443,9.443,0,0,1-1.736,1.615,6.254,6.254,0,0,1-1.982.867c-.782.205-1.569.347-2.367.559a5.429,5.429,0,0,1-2.435.245,23.354,23.354,0,0,1-2.4-.747A5.051,5.051,0,0,0,4.7,6.112c-.3-.015-.594,0-.892,0A2.4,2.4,0,0,1,2.2,5.7a5.959,5.959,0,0,1-.691-.821,5.972,5.972,0,0,0-.829-.714A1.743,1.743,0,0,1,.009,2.88a1.691,1.691,0,0,1,.084-.724.635.635,0,0,1,0-.072,5.013,5.013,0,0,1,.86-.572,2.368,2.368,0,0,1,1.305-.235c.407.027.8.109,1.217.123a3.623,3.623,0,0,0,1.152-.175A12.29,12.29,0,0,0,6.607.282,1.744,1.744,0,0,1,7.939.051,8.118,8.118,0,0,0,9.122.39a9.7,9.7,0,0,0,1.261,0,4.3,4.3,0,0,1,1.427.183,18.509,18.509,0,0,0,2.416.726,6.1,6.1,0,0,1,1.1.226,11.509,11.509,0,0,1,1.16.512c.322.152.651.265.978.4Z" transform="translate(41.845 114.029)" fill="#e2cab3" fill-rule="evenodd" opacity="0.4"/>
          <path id="Vector-19" data-name="Vector" d="M2.7.119A6.1,6.1,0,0,1,1.471.771a3.066,3.066,0,0,1-.463.067A1.964,1.964,0,0,1,.042.762a.043.043,0,0,0,0-.029C-.235.2.942.164,1.243.186A4.92,4.92,0,0,0,2.553.033h.019C2.631.025,2.695.014,2.758,0A.53.53,0,0,1,2.7.119Z" transform="translate(45.525 117.408)" fill="#c66720" fill-rule="evenodd"/>
          <path id="Vector-20" data-name="Vector" d="M1.343,1.169a2.684,2.684,0,0,1-.3.585A2.635,2.635,0,0,1,.4,2.5a.283.283,0,0,1-.385-.2.608.608,0,0,1,.119-.457,5.512,5.512,0,0,1,.519-.616A5.867,5.867,0,0,0,1.357,0a3.2,3.2,0,0,1,.03.859c-.015.105-.029.208-.044.31Z" transform="translate(48.608 117.652)" fill="#c66720" fill-rule="evenodd"/>
          <path id="Vector-21" data-name="Vector" d="M2.719,1.821c-.345.443-.954.248-1.291-.074C1.179,1.516.987,1.248.765,1a6.759,6.759,0,0,1-.682-.8A.22.22,0,0,1,.005.085.06.06,0,0,1,.011.026.061.061,0,0,1,.034.006.061.061,0,0,1,.065,0a1.086,1.086,0,0,1,.49.15,3.976,3.976,0,0,0,.6.207A10.058,10.058,0,0,1,2.145.7c.436.182.956.629.575,1.123Z" transform="translate(52.267 116.992)" fill="#c66720" fill-rule="evenodd"/>
          <path id="Vector-22" data-name="Vector" d="M1.157.426A6.934,6.934,0,0,0,0,.887H0A1.592,1.592,0,0,1,.762.046.435.435,0,0,1,.823.034c.253-.059.634-.066.751.185.08.168-.347.2-.417.208Z" transform="translate(51.445 115.048)" fill="#c66720" fill-rule="evenodd"/>
          <path id="Vector-23" data-name="Vector" d="M.038.323A.05.05,0,0,1,.008.3.049.049,0,0,1,0,.267C.153-.273,1.267.145,1.672.321A.4.4,0,0,1,1.4.4L1.325.378A4.823,4.823,0,0,0,.785.326Q.7.322.624.326A2.04,2.04,0,0,0,.209.353.662.662,0,0,1,.038.323Z" transform="translate(47.136 115.397)" fill="#c66720" fill-rule="evenodd"/>
          <path id="Vector-24" data-name="Vector" d="M.149.022A1.492,1.492,0,0,0,.086.3C.079.34.077.41.036.433l-.011,0-.011,0A.025.025,0,0,1,0,.426.024.024,0,0,1,0,.415.617.617,0,0,1,.036.237.926.926,0,0,1,.1.014C.117-.012.16,0,.149.022Z" transform="translate(39.494 121.626)" fill="#c66720" fill-rule="evenodd"/>
          <path id="Vector-25" data-name="Vector" d="M.151.031C.123.111.106.194.087.275.079.312.073.38.021.38A.022.022,0,0,1,.009.374.022.022,0,0,1,0,.362C-.01.328.022.265.033.226A.816.816,0,0,1,.109.011C.123-.014.16.008.151.031Z" transform="translate(39.749 121.841)" fill="#c66720" fill-rule="evenodd"/>
          <path id="Vector-26" data-name="Vector" d="M.106.017a4.026,4.026,0,0,1-.04.425A.033.033,0,1,1,0,.443,4.025,4.025,0,0,1,.055.024C.058,0,.105-.01.106.017Z" transform="translate(41.052 122.761)" fill="#c66720" fill-rule="evenodd"/>
          <path id="Vector-27" data-name="Vector" d="M.109.02A2.28,2.28,0,0,0,.072.356.036.036,0,0,1,0,.356.822.822,0,0,1,.064.016C.074-.009.115,0,.109.02Z" transform="translate(41.385 122.84)" fill="#c66720" fill-rule="evenodd"/>
          <path id="Vector-28" data-name="Vector" d="M.093.011C.082.068.079.126.071.183A.552.552,0,0,1,.053.32a.027.027,0,0,1-.01.014.028.028,0,0,1-.032,0A.027.027,0,0,1,0,.32.508.508,0,0,1,.017.17.725.725,0,0,1,.061.01C.068-.005.1,0,.093.011Z" transform="translate(46.97 124.713)" fill="#c66720" fill-rule="evenodd"/>
          <path id="Vector-29" data-name="Vector" d="M.061.012A.018.018,0,0,1,.068,0,.018.018,0,0,1,.09,0,.018.018,0,0,1,.1.014C.088.09.076.166.076.243A.554.554,0,0,1,.057.408.029.029,0,0,1,.046.422a.029.029,0,0,1-.033,0A.029.029,0,0,1,0,.408.526.526,0,0,1,.017.224,1.113,1.113,0,0,1,.061.012Z" transform="translate(47.362 124.759)" fill="#c66720" fill-rule="evenodd"/>
          <path id="Vector-30" data-name="Vector" d="M.093.029a.628.628,0,0,0-.032.2.5.5,0,0,1,.01.127.025.025,0,0,1,0,.008L.058.373l-.009,0H.039C-.009.364,0,.266,0,.228A.48.48,0,0,1,.056.009c.011-.021.037,0,.037.021Z" transform="translate(48.889 124.976)" fill="#c66720" fill-rule="evenodd"/>
          <path id="Vector-31" data-name="Vector" d="M.067.011A2.439,2.439,0,0,0,.06.369C.061.41,0,.406,0,.369A1.161,1.161,0,0,1,.038.011.015.015,0,0,1,.043,0,.015.015,0,0,1,.061,0,.015.015,0,0,1,.067.011Z" transform="translate(49.304 124.981)" fill="#c66720" fill-rule="evenodd"/>
          <path id="Vector-32" data-name="Vector" d="M.061.018A.759.759,0,0,1,.074.2c0,.036,0,.111-.047.111L.02.31l-.008,0c-.028-.034,0-.086,0-.126Q.016.1.025.018A.018.018,0,0,1,.03.005a.018.018,0,0,1,.025,0A.018.018,0,0,1,.061.018Z" transform="translate(49.735 125.016)" fill="#c66720" fill-rule="evenodd"/>
          <path id="Vector-33" data-name="Vector" d="M.089.255A.019.019,0,0,1,.1.263a.019.019,0,0,1,0,.019A.019.019,0,0,1,.087.288C0,.339,0,.038,0,.015a.018.018,0,0,1,.035,0C.052.068.055.125.069.179a.443.443,0,0,0,.021.06V.255Z" transform="translate(57.272 123.923)" fill="#c66720" fill-rule="evenodd"/>
          <path id="Vector-34" data-name="Vector" d="M.081.289A1.946,1.946,0,0,1,0,.029.022.022,0,0,1,0,.012.022.022,0,0,1,.016,0,.023.023,0,0,1,.033,0,.022.022,0,0,1,.044.015a1.9,1.9,0,0,1,.1.245C.16.3.1.33.081.289Z" transform="translate(57.71 123.795)" fill="#c66720" fill-rule="evenodd"/>
          <path id="Vector-35" data-name="Vector" d="M.084.291A.408.408,0,0,1,0,.018.023.023,0,0,1,.009,0,.024.024,0,0,1,.038,0,.023.023,0,0,1,.046.018a.575.575,0,0,0,.1.228C.169.286.11.335.084.291Z" transform="translate(58.184 123.567)" fill="#c66720" fill-rule="evenodd"/>
          <path id="Vector-36" data-name="Vector" d="M.169.372C.1.308-.081.089.041,0A.017.017,0,0,1,.05,0l.01,0A.017.017,0,0,1,.066.008a.016.016,0,0,1,0,.009A.44.44,0,0,0,.115.19.444.444,0,0,0,.227.33C.262.364.2.41.169.372Z" transform="translate(58.687 123.417)" fill="#c66720" fill-rule="evenodd"/>
          <path id="Vector-37" data-name="Vector" d="M.225.387C.165.254.044.157,0,.02-.006,0,.026-.007.036.01A3.4,3.4,0,0,1,.277.362.029.029,0,1,1,.225.387Z" transform="translate(59.303 123.072)" fill="#c66720" fill-rule="evenodd"/>
          <path id="Vector-38" data-name="Vector" d="M.315.214A.024.024,0,0,1,.309.233L.3.239l-.01,0C.258.241.239.218.2.19S.131.136.1.106A.948.948,0,0,1,.02.034C.01.025.007,0,0,0S0,0,.01,0,.024,0,.053.018.111.056.138.077L.247.156C.27.173.3.188.315.214Z" transform="translate(59.815 122.798)" fill="#c66720" fill-rule="evenodd"/>
          <path id="Vector-39" data-name="Vector" d="M.274.248A.023.023,0,0,1,.266.26C.223.289.161.238.128.208A.52.52,0,0,1,0,.036C-.009.01.027-.014.042.01A.632.632,0,0,0,.166.156.277.277,0,0,0,.237.2.047.047,0,0,1,.259.213.047.047,0,0,1,.273.234a.023.023,0,0,1,0,.014Z" transform="translate(60.325 122.436)" fill="#c66720" fill-rule="evenodd"/>
          <path id="Vector-40" data-name="Vector" d="M.289.224a.019.019,0,0,1,0,.025C.242.3.144.243.1.21A.287.287,0,0,1,0,.022C0,0,.035-.01.035.011A.307.307,0,0,0,.152.165.221.221,0,0,0,.238.2.071.071,0,0,1,.289.224Z" transform="translate(61.869 120.687)" fill="#c66720" fill-rule="evenodd"/>
          <path id="Vector-41" data-name="Vector" d="M.3.316A.643.643,0,0,1,0,.026C-.01.009.026-.012.038.009a.729.729,0,0,0,.285.26C.351.281.326.327.3.316Z" transform="translate(62.14 120.294)" fill="#c66720" fill-rule="evenodd"/>
          <path id="Vector-42" data-name="Vector" d="M.333.257a.031.031,0,0,1,0,.021A.032.032,0,0,1,.316.293.032.032,0,0,1,.295.3.757.757,0,0,1,0,.034C-.01.016.013-.01.031,0,.078.042.122.085.169.127A1.5,1.5,0,0,0,.321.239.031.031,0,0,1,.333.257Z" transform="translate(62.331 119.84)" fill="#c66720" fill-rule="evenodd"/>
          <path id="Vector-43" data-name="Vector" d="M.276.038a1.46,1.46,0,0,0-.249.52C.023.575,0,.574,0,.558A1.319,1.319,0,0,1,.236.01c.017-.026.057,0,.04.027Z" transform="translate(39.02 121.268)" fill="#c66720" fill-rule="evenodd"/>
          <path id="Vector-44" data-name="Vector" d="M.2,0H.208L.216,0A.018.018,0,0,1,.224.019C.217.079.152.137.119.187a.448.448,0,0,0-.086.17C.032.373,0,.378,0,.357A.283.283,0,0,1,.054.19,1.443,1.443,0,0,1,.135.068C.156.041.169.015.2,0Z" transform="translate(38.842 121.142)" fill="#c66720" fill-rule="evenodd"/>
          <path id="Vector-45" data-name="Vector" d="M.16.014a.014.014,0,0,1,0-.01A.015.015,0,0,1,.185,0a.014.014,0,0,1,0,.01.584.584,0,0,1-.083.2A.9.9,0,0,0,.03.413c0,.023-.03.018-.03,0a.828.828,0,0,1,.066-.2A.942.942,0,0,1,.16.014Z" transform="translate(39.28 121.574)" fill="#c66720" fill-rule="evenodd"/>
          <path id="Vector-46" data-name="Vector" d="M.2.022C.168.063.13.1.1.138A.692.692,0,0,0,.039.275a.021.021,0,0,1-.011.01.021.021,0,0,1-.015,0A.021.021,0,0,1,0,.275.02.02,0,0,1,0,.261C.028.167.076.031.18,0,.192,0,.2.014.2.022Z" transform="translate(40.008 122.067)" fill="#c66720" fill-rule="evenodd"/>
          <path id="Vector-47" data-name="Vector" d="M.155,0A.017.017,0,0,1,.163,0a.016.016,0,0,1,0,.017C.153.075.1.116.077.17A.474.474,0,0,0,.035.327.017.017,0,1,1,0,.327.385.385,0,0,1,.038.138C.063.087.092.02.146,0H.155Z" transform="translate(40.272 122.476)" fill="#c66720" fill-rule="evenodd"/>
          <path id="Vector-48" data-name="Vector" d="M.166.012l0-.006L.174,0,.18,0H.187L.193,0l0,0A.016.016,0,0,1,.2.021.828.828,0,0,1,.115.252,1.562,1.562,0,0,0,.036.475.018.018,0,0,1,.028.487.019.019,0,0,1,0,.481.018.018,0,0,1,0,.467,1.221,1.221,0,0,1,.067.237a.828.828,0,0,1,.1-.226Z" transform="translate(40.474 122.609)" fill="#c66720" fill-rule="evenodd"/>
          <path id="Vector-49" data-name="Vector" d="M.061.006.066,0H.072L.079,0a.012.012,0,0,1,0,.006C.09.12.038.233.038.346A.018.018,0,1,1,0,.346.685.685,0,0,1,.061.006Z" transform="translate(40.782 122.835)" fill="#c66720" fill-rule="evenodd"/>
          <path id="Vector-50" data-name="Vector" d="M.079.01a.813.813,0,0,1-.023.2A1.449,1.449,0,0,0,.037.4C.036.421,0,.422,0,.4a.868.868,0,0,1,.054-.4c0-.008.021-.01.021,0Z" transform="translate(47.767 124.87)" fill="#c66720" fill-rule="evenodd"/>
          <path id="Vector-51" data-name="Vector" d="M.054.189A.512.512,0,0,0,.073.424C.08.438.052.458.043.438A.45.45,0,0,1,.069.007.011.011,0,0,1,.073,0L.079,0,.086,0a.011.011,0,0,1,0,.005C.084.07.054.126.054.189Z" transform="translate(48.132 124.95)" fill="#c66720" fill-rule="evenodd"/>
          <path id="Vector-52" data-name="Vector" d="M.057.2A1.294,1.294,0,0,0,.083.408C.089.425.046.431.046.408A.9.9,0,0,1,.009.2a.5.5,0,0,1,0-.187A.018.018,0,0,1,.015,0L.025,0,.034,0A.018.018,0,0,1,.041.009.6.6,0,0,1,.057.2Z" transform="translate(48.46 124.99)" fill="#c66720" fill-rule="evenodd"/>
          <path id="Vector-53" data-name="Vector" d="M.158.2a.016.016,0,0,1,0,.012.017.017,0,0,1-.01.007C.093.23.04.167.018.125a.11.11,0,0,1,0-.119C.024-.006.045,0,.045.017.027.1.145.13.158.2Z" transform="translate(60.901 122.05)" fill="#c66720" fill-rule="evenodd"/>
          <path id="Vector-54" data-name="Vector" d="M.27.286a.018.018,0,0,1,0,.021C.216.345.125.275.09.233A.47.47,0,0,1,0,.025.021.021,0,0,1,0,.009L.009,0,.017,0H.025L.033,0,.039.009a.021.021,0,0,1,0,.008A.416.416,0,0,0,.132.2.187.187,0,0,0,.219.253C.243.262.256.264.27.286Z" transform="translate(61.175 121.56)" fill="#c66720" fill-rule="evenodd"/>
          <path id="Vector-55" data-name="Vector" d="M.275.265a.019.019,0,0,1,0,.009.019.019,0,0,1,0,.007l-.007,0H.254c-.059,0-.1-.066-.138-.1A.765.765,0,0,1,0,.031C-.01.008.025-.011.041.008.081.053.127.1.17.138s.1.074.1.127Z" transform="translate(61.51 121.245)" fill="#c66720" fill-rule="evenodd"/>
          <path id="Vector-56" data-name="Vector" d="M2.6.684c0,.376-.581.684-1.3.684S0,1.063,0,.684.581,0,1.3,0,2.6.308,2.6.684Z" transform="translate(48.984 115.938)" fill="#da840d" fill-rule="evenodd" opacity="0.4"/>
          <path id="Vector-57" data-name="Vector" d="M8.34,2.784c-.01,1.4-.465,1.736-1.37,2.886-.1.071-.974,1.42-1.062,1.479-.273.183-.59.52-.956.354-.229-.1-.322.187-.532.116a.7.7,0,0,0-.186-.064.973.973,0,0,1-.471.176,2.281,2.281,0,0,1-1.217-.5A10.222,10.222,0,0,1,1.156,5.512,6.914,6.914,0,0,1,0,2.967C-.047,1.063,1.181-.555,4.115.182c3.351-.707,4.236.856,4.225,2.6Z" transform="translate(54.595 122.158)" fill="#c73a54" fill-rule="evenodd"/>
          <path id="Vector-58" data-name="Vector" d="M2.347.333c0,.2-.517.375-1.164.391S.006.588,0,.392.517.013,1.164,0,2.341.133,2.347.333Z" transform="translate(57.475 122.464)" fill="#ed6366" fill-rule="evenodd" style="mix-blend-mode: multiply;isolation: isolate"/>
          <path id="Vector-59" data-name="Vector" d="M1.316,1.079c-.285.159-.6.323-.6.693,0,.167.008.5-.193.577a.224.224,0,0,1-.04.012.054.054,0,0,0-.023-.023A1.04,1.04,0,0,1,.007,1.291,1.568,1.568,0,0,1,.428.4,1.02,1.02,0,0,1,.632.22L.649.208c.327-.227.856-.341,1.115.047.227.341-.186.676-.447.825Z" transform="translate(55.098 123.189)" fill="#ed6366" fill-rule="evenodd"/>
          <path id="Vector-60" data-name="Vector" d="M3.489.9a5.117,5.117,0,0,1-.507.674,4.064,4.064,0,0,0-.414.564,1.306,1.306,0,0,1-.193.294.665.665,0,0,1-.225.2c-.242.114-.517-.021-.76.094a1.448,1.448,0,0,1-.878.164.9.9,0,0,1-.276-.1.5.5,0,0,1-.12-.03.245.245,0,0,1-.07-.066.242.242,0,0,1-.006-.271c.372-.561,1.239-.28,1.717-.666A11.342,11.342,0,0,0,2.891.378c.174-.191.539-.57.782-.26.159.205,0,.525-.184.781Z" transform="translate(57.863 126.484)" fill="#ed6366" fill-rule="evenodd" style="mix-blend-mode: multiply;isolation: isolate"/>
          <path id="Vector-61" data-name="Vector" d="M2.753.008A.048.048,0,0,1,2.78.031a.047.047,0,0,1,0,.035,4.826,4.826,0,0,0-.046.626,2.965,2.965,0,0,1-.152.547,2.314,2.314,0,0,1-.6.821A3.033,3.033,0,0,1,.06,2.972a.065.065,0,0,1-.044-.023A.064.064,0,0,1,0,2.9a.972.972,0,0,1,.064-.353,1.837,1.837,0,0,1,.209-.613A3.419,3.419,0,0,1,1.3.809c.279-.189.573-.362.863-.535C2.29.2,2.59-.047,2.753.008Z" transform="translate(58.706 119.734)" fill="#8db54f" fill-rule="evenodd"/>
          <path id="Vector-62" data-name="Vector" d="M0,1.984c0-.2.059-.317.116-.933S.163.128.2.027.577.141.577.141.471.613.392,1,.234,2.083.234,2.083.192,2.2.088,2.168,0,1.984,0,1.984Z" transform="translate(58.586 120.697)" fill="#300d33" fill-rule="evenodd"/>
        </g>
      </g>
    </g>
  </g>
</svg>
