<svg xmlns="http://www.w3.org/2000/svg" width="215.49" height="149.368" viewBox="0 0 215.49 149.368">
  <g id="icon" transform="translate(-142.255 -110.34)">
    <path id="Path_1335" data-name="Path 1335" d="M306.16,249.55a83.355,83.355,0,0,1-75.2.943c-25.618-5.166-31.557-20.984-15.3-72.417,9.493-30.026,4.479-49.209,28.663-52.081,2.816-.327,18.1-.7,20.52-.037,8.395,2.3,11.366,12.817,12.3,22.286,1.266,9.809-14.814,16.456-24.569,15.946-3.632-.971-5.869,1.142-5.624,3.981.606,7.093,3.024,15.529,5.5,22.73,3.907,11.386,8.676-5.833,27.6-3.609,3.885.462,4.392.834,7.471,2.975,6.536,4.533,9.373.392,15.7-.971,19.153-4.1,37.6-1.3,53.784,12.109a2.069,2.069,0,0,1,.281,2.893c-3.736,4.518-30.4-11.831-48.324-1.079a105.721,105.721,0,0,1-11.6,6.431c-23.166,10.2-19.6-28.055-37.511,1.478-3.65,6-4.133,15.589-18.2,20.063-17.1,5.452-25.616-2.517-23.229-6.893,2.185-4.016,10.674-.6,15.758-18.1,3.182-10.893,4.2-19.625,1.548-30.748-1.7-7.04-1.891-1.443-4.075.68a3,3,0,0,1-4.021.326c-2.894-2.588,3.181-20.171,4.537-23.827,3.464-9.352,5.213-4.139,9.962-1.977,1.63.734,3.2.326,4.473.87.979.427,2.011,1.951,2.382,2.069.625.2,1.25-6.3,2.835-8,3.451-3.684,2.362,11.207,4.437,10.857,2.393-.4-1.22-15.161-.869-16.653.727-3.074,4.6-4.531,6.258-1.451,1.22,2.244-.453,11.2,1.7,15.183,1.281,2.262-.216-10.692.154-15.528.426-5.506-1.82-7.4-6.882-7.864-30.248-2.766-29.251,17.152-34.721,40.571-1.6,6.842,1.422,6.633,12.2,7.4a.636.636,0,0,1,.39,1.1c-4.139,3.918-27.477,2.149-9.654,4.653,4.909.7,8.916.249,7.29,1.723-4.465,4.227-27.213,2.522-8.938,5.089,5.172.74,8.791.23,7.3,1.723-3.085,2.915-32.293,3.647-2.147,5.8a.635.635,0,0,1,.4,1.1c-3.867,3.656-28.264,3.184-9.038,5.887,5.192.725,8.809.275,7.29,1.723-2.947,2.78-32.727,4.928-1.512,7.021,1.962.14-1.151,3.959-7.96,4.163-12.869.39-4.347,28.526,23.889,19.918,11.681-3.554,16.571-11.53,20.087-15.038,7.193-7.177,10.656-3.123,14.752-.817,10.444,5.825,19.845-3.044,31.361-2.539,7.834.344,13.539,5.95,16.537,12.852,1,2.295,7.9,30.812.742,26.875a52.8,52.8,0,0,1-11.519-8.943C309.477,246.488,306.776,249.55,306.16,249.55Z" fill="#f16706" fill-rule="evenodd"/>
    <path id="Path_1336" data-name="Path 1336" d="M315.787,166.548c0,4.121,4.46,3.093,14.345,3.093a3.1,3.1,0,0,0,3.088-3.093c0-2.5-8.6-2.059-10.487-2.449a.512.512,0,0,1,0-1c5.243-1.079,10.487.281,10.487-4.39,0-5.646-10.886-2.783-10.886-4.789,0-1.983,10.886,1.042,10.886-5.052,0-5.281-10.886-2.716-10.886-4.626,0-1.816,10.886.354,10.886-4.317,0-5.433-4.447-3.619-10.487-4.862a.512.512,0,0,1,0-1c5.316-1.1,10.487.254,10.487-4.3,0-4.662-5.253-3.3-10.487-4.381a.512.512,0,0,1,0-1c1.974-.408,10.487-.244,10.487-2.449a3.1,3.1,0,0,0-3.088-3.093c-9.918,0-14.345-1.016-14.345,3.093Zm-20.594-11.211c0,19.508-1.018,22.766,3.161,22.766,11.735,0,12.707.462,13.874-1.642,1.363-2.452-10.5-1.97-10.5-3.183,0-1.88,10.885.546,10.885-4.463,0-5.206-4.682-3.519-10.478-4.716a.51.51,0,0,1,0-1c5.325-1.1,10.478.318,10.478-4.444,0-5.515-10.885-2.771-10.885-4.735,0-1.906,10.885.637,10.885-4.571,0-5.025-4.872-3.447-10.478-4.608a.51.51,0,0,1,0-1c5.7-1.179,10.478.454,10.478-4.662s-10.885-2.631-10.885-4.517c0-1.995,10.885.949,10.885-4.9,0-5.615-10.885-2.806-10.885-4.78,0-1.957,10.885.867,10.885-4.852,0-5.684-10.885-2.853-10.885-4.826,0-1.378,12.806-.305,10.215-3.61-1.277-1.619-1.813-1.215-13.593-1.215-4.214,0-3.161,3.37-3.161,22.766,0,5.493.181,4.39-24.677,4.39v13.406C295.447,150.947,295.193,149.9,295.193,155.337Zm41.2,3.809c0,3.512,3.417,2.64,14.789,2.64a2.653,2.653,0,0,0,2.644-2.64c0-5.564-10.894-2.825-10.894-4.843,0-2.066,10.894.885,10.894-5.016,0-4.789-5.117-3.365-10.487-4.526a.532.532,0,0,1,0-1.034c6.023-1.3,10.487.49,10.487-4.916,0-6.238-10.894-2.455-10.894-4.626,0-2,10.894.708,10.894-4.843a2.653,2.653,0,0,0-2.644-2.64c-11.44,0-14.789-.851-14.789,2.64Z" fill="#f16706" fill-rule="evenodd"/>
    <path id="Path_1337" data-name="Path 1337" d="M180.281,166.548c0,4.124-4.441,3.093-14.344,3.093a3.093,3.093,0,0,1-3.08-3.093c0-2.5,8.594-2.059,10.478-2.449a.509.509,0,0,0,0-1c-5.234-1.079-10.478.281-10.478-4.39,0-5.645,10.886-2.787,10.886-4.789,0-2.026-10.886,1.1-10.886-5.052,0-5.282,10.886-2.714,10.886-4.626,0-1.822-10.886.362-10.886-4.317,0-5.433,4.438-3.619,10.478-4.862a.509.509,0,0,0,0-1c-5.316-1.1-10.478.254-10.478-4.3,0-4.662,5.253-3.3,10.478-4.381a.509.509,0,0,0,0-1c-1.974-.408-10.478-.244-10.478-2.449a3.093,3.093,0,0,1,3.08-3.093c9.942,0,14.344-1.018,14.344,3.093Zm20.6-11.211c0,19.538,1.014,22.766-3.17,22.766-11.723,0-12.7.463-13.865-1.642-1.363-2.452,10.5-1.97,10.5-3.183,0-1.88-10.894.546-10.894-4.463,0-5.206,4.691-3.519,10.487-4.716a.51.51,0,0,0,0-1c-5.325-1.1-10.487.318-10.487-4.444,0-5.515,10.894-2.769,10.894-4.735,0-1.906-10.894.637-10.894-4.571,0-5.025,4.881-3.447,10.487-4.608a.51.51,0,0,0,0-1c-5.7-1.179-10.487.454-10.487-4.662s10.894-2.632,10.894-4.517c0-1.993-10.894.939-10.894-4.9,0-5.615,10.894-2.8,10.894-4.78,0-1.957-10.894.867-10.894-4.852,0-5.684,10.894-2.849,10.894-4.826,0-1.378-12.806-.305-10.215-3.61,1.278-1.62,1.824-1.215,13.584-1.215,4.226,0,3.17,3.358,3.17,22.766,0,5.5-.547,4.39,27.077,4.39l-2.4,13.406C200.578,150.947,200.884,149.9,200.884,155.337Zm-41.2,3.809c0,3.506-3.417,2.64-14.789,2.64a2.647,2.647,0,0,1-2.644-2.64c0-5.562,10.885-2.826,10.885-4.843,0-1.994-10.885.862-10.885-5.016,0-4.789,5.108-3.365,10.487-4.526a.535.535,0,0,0,0-1.034c-6.031-1.3-10.487.49-10.487-4.916,0-6.241,10.885-2.45,10.885-4.626,0-1.991-10.885.711-10.885-4.843a2.647,2.647,0,0,1,2.644-2.64c11.818,0,14.789-.718,14.789,2.64Z" fill="#f16706" fill-rule="evenodd"/>
  </g>
</svg>
