<svg xmlns="http://www.w3.org/2000/svg" width="315" height="203" viewBox="30 102 315 203"><g data-name="Vector"><g data-name="Bg"><path d="M22 0h271a22 22 0 0 1 22 22v106a22 22 0 0 1-22 22H22a22 22 0 0 1-22-22V22A22 22 0 0 1 22 0z" fill-rule="evenodd" fill="url(&quot;#a&quot;)" transform="translate(30 102)" data-name="Rectangle 5742"/></g><g data-name="Illustrations"><g data-name="Rectangle 5743" clip-path="url(&quot;#b&quot;)"><g data-name="Group 10068"><g data-name="Group 10066"><path d="M51 206.4a68 67.5 0 1 1 0 .1z" fill="#fff" fill-rule="evenodd" data-name="Ellipse 68"/><g data-name="Layer 2"><g data-name="Layer 1"><path d="M117.023 299.162c-2.885.005-5.761-.3-8.58-.908a34.054 34.054 0 0 1-13.592-6.115 33.966 33.966 0 0 1-9.666-11.327 60.118 60.118 0 0 1-4.117-12.973l-.202-.85c-2.89-12.282-6.53-25.27-13.247-37.003-1.083-1.889-2.268-3.777-3.409-5.593a73.463 73.463 0 0 1-6.977-13.074c-2.89-7.856-2.355-15.67 1.589-20.815a7.085 7.085 0 0 1 4.608-3.1 4.212 4.212 0 0 1 3.207.952 3.115 3.115 0 0 1 1.17 2.263h-.939a2.202 2.202 0 0 0-.838-1.571 3.34 3.34 0 0 0-2.484-.75 6.5 6.5 0 0 0-3.973 2.74c-3.741 4.914-4.333 12.367-1.444 19.92a72.138 72.138 0 0 0 6.933 12.974c1.142 1.83 2.326 3.719 3.424 5.621 6.732 11.82 10.415 24.88 13.304 37.234l.203.85a58.808 58.808 0 0 0 4.044 12.757 32.97 32.97 0 0 0 9.396 11.005 33.056 33.056 0 0 0 13.212 5.932 44.505 44.505 0 0 0 28.558-3.863 29.57 29.57 0 0 0 9.39-6.616 34.906 34.906 0 0 0 6.168-11.042c2.412-6.313 4.334-12.973 6.067-19.388 2.673-9.571 5.432-19.474 10.112-28.44 1.445-2.623 2.89-5.204 4.42-7.697a80.974 80.974 0 0 0 7.223-14.17c1.661-4.7 1.734-8.649.231-11.532a7.486 7.486 0 0 0-5.128-3.748 4.98 4.98 0 0 0-4.334 1.024l-.62-.707a5.898 5.898 0 0 1 5.127-1.268 8.488 8.488 0 0 1 5.779 4.324c1.632 3.172 1.56 7.294-.188 12.253a79.794 79.794 0 0 1-7.338 14.328c-1.445 2.494-3.034 5.06-4.334 7.654-4.623 8.88-7.367 18.74-10.025 28.253-1.806 6.458-3.67 13.132-6.11 19.475a35.684 35.684 0 0 1-6.328 11.344 30.624 30.624 0 0 1-9.693 6.833 47.927 47.927 0 0 1-20.6 4.814Z" fill="#ab8da8" fill-rule="evenodd" data-name="Vector"/><path d="M127.626 131.317c-.157.149-.338.27-.535.36-1.632.894-3.857.72-5.662.894l-4.088.331c-1.055.101-2.976.606-3.857 0-.636-.432-.752-1.398-.968-2.075-.42-1.067.043-2.364-.42-3.359-.346-.735-1.068-.764-1.56-1.542-.49-.779.044-1.543 0-2.422-.043-.88-.65-1.586-.808-2.465a2.215 2.215 0 0 1 0-1.11 2.737 2.737 0 0 1 1.555-1.714 2.75 2.75 0 0 1 2.316.085c.694.39 1.228 1.081 2.008 1.197a4.458 4.458 0 0 0 1.618-.245 2.605 2.605 0 0 1 1.762.216c.578.288.925.807 1.445 1.067.838.46 1.892 0 2.889 0a3.184 3.184 0 0 1 2.528 1.24c.274.36.433.749.766 1.124.332.374.78.648 1.14.994a4.322 4.322 0 0 1 1.113 3.489 8.103 8.103 0 0 1-1.242 3.935Z" fill="#3b2645" fill-rule="evenodd" data-name="Vector"/><path d="M113.758 130.682c.095 1.498.095 3 0 4.498-1.632-.173-3.756-3.056-2.499-4.498a1.545 1.545 0 0 1 1.95-.466c.218.11.406.27.55.466ZM134.054 154.827a68.518 68.518 0 0 1-1.531 7.207c-.101.447-.188.88-.246 1.298-.057.418-.115.735-.187 1.268v.317c0 .346-.101.707-.145 1.096l-1.82 16.937c-11.31 3.1-23.113 0-23.113 0v-.634c-.188-1.917-.765-8.015-1.343-14.89v-.145a2.877 2.877 0 0 0 0-.317 439.29 439.29 0 0 1-.665-8.85c-.346-5.06-.563-9.73-.52-12.628 0-1.066 2.5-.951 4.204-1.182a44.367 44.367 0 0 1 3.655-.346 52.953 52.953 0 0 1 2.513-.086h.636s.144-1.658.144-1.672l.39-4.065c.19.049.383.082.578.1.358.068.72.106 1.084.116h1.343l.621-.072h.361c.405-.072.795-.159 1.156-.26.361-.1.477-.144.708-.216a11.711 11.711 0 0 0 2.975-1.441l.13-.087.246-.187.173-.13v.375a47.51 47.51 0 0 0-.303 3.359c0 .836-.087 1.657-.116 2.364-.028.706-.26 1.73.246 2.09.18.1.375.174.578.216.793.125 1.595.178 2.398.159h.737a15.925 15.925 0 0 1 1.849 0 3.227 3.227 0 0 1 2.31.965c.375.541.613 1.164.694 1.817l.174 1.182a27.33 27.33 0 0 1 .086 6.342Z" fill="#ffede5" fill-rule="evenodd" data-name="Vector"/><path d="M125.344 135.857a7.099 7.099 0 0 1-3.576 4.913 7.133 7.133 0 0 1-6.074.363l.275-2.984a11.58 11.58 0 0 0 9.375-2.292Z" fill="rgba(224,133,92,0.10196078431372549 )" fill-rule="evenodd" data-name="Vector"/><path d="M125.257 126.156c1.098 1.312.722 4.065.36 7.078-.707 5.997-4.188 7.28-7.496 6.92-3.308-.361-5.259-2.38-5.042-8.866.058-2.133.13-4.065.968-4.93 2.542-2.652 9.635-2.133 11.21-.202Z" fill="#ffede5" fill-rule="evenodd" data-name="Vector"/><path d="M125.127 132.355s1.011-2.681 2.614-1.254c1.604 1.427-.606 5.477-3.062 5.174.029 0-.303-2.998.448-3.92Z" fill="#ffede5" fill-rule="evenodd" data-name="Vector"/><path d="M127.086 132.336a.116.116 0 0 1 .064.134 6.24 6.24 0 0 1-.766.577c.157.094.29.222.39.374.058.116-.058.245-.202.245a1.3 1.3 0 0 1-.477-.331 8.167 8.167 0 0 1-.578.634c-.072.072-.173 0-.173-.1.168-.35.41-.66.708-.909.263-.297.603-.516.982-.634.018 0 .036.003.052.01Z" fill="rgba(224,133,92,0.10196078431372549 )" fill-rule="evenodd" data-name="Vector"/><path d="M115.925 131.144s-.563.202-.477-.793c.087-.995.477-.764.477-.764s.39 0 .332.778c-.057.779-.332.779-.332.779ZM121.602 131.144s-.549.202-.462-.793c.087-.995.462-.764.462-.764s.39 0 .333.778c-.058.779-.333.779-.333.779Z" fill="#3b2645" fill-rule="evenodd" data-name="Vector"/><path d="M118.468 133.782c-.275 0-.94.13-1.07-.188.051-.688.192-1.366.42-2.018a24.95 24.95 0 0 0 .65-2.667h-.101" fill="#e0855c" fill-rule="evenodd" data-name="Vector"/><path d="M116.402 128.448a1.52 1.52 0 0 0-.621-.1c-.202.014-.376.13-.578.13a.13.13 0 0 1-.115-.188 1.244 1.244 0 0 1 1.444-.159c.188.087.058.375-.13.317ZM122.455 128.621a.166.166 0 0 1-.168.257.166.166 0 0 1-.107-.07 2.272 2.272 0 0 0-.607-.187c-.26.022-.52.022-.78 0a.173.173 0 0 1 0-.274c.434-.346 1.43-.302 1.662.274Z" fill="#3b2645" fill-rule="evenodd" data-name="Vector"/><path d="M117.066 135.785a6.122 6.122 0 0 0 3.554-.605 2.998 2.998 0 0 1-1.777 1.657c-1.257.346-1.777-1.052-1.777-1.052Z" fill="#fff" fill-rule="evenodd" data-name="Vector"/><path d="M109.771 145.472c3.323 2.32 3.626 6.833 2.008 10.436-1.098 2.408-3.134 4.094-4.333 6.372a41.296 41.296 0 0 1-4.334 6.241 442.368 442.368 0 0 1-8.306 10.206c-4.522 5.39-14.027 12.512-17.45 14.991-.78.577-1.243.894-1.243.894s-3.279-1.715-2.412-4.887c0 0 13-13.78 14.922-16.591a120.109 120.109 0 0 0 5.778-11.272 321.303 321.303 0 0 1 6.92-12.657c1.098-1.917 2.499-4.324 4.911-4.756a4.558 4.558 0 0 1 2.803.59c.255.127.501.272.736.433Z" fill="#ffede5" fill-rule="evenodd" data-name="Vector"/><path d="M73.701 189.74a6.992 6.992 0 0 1 1.069 0s3.12 1.73 2.586 3.978c0 0-.332.303-.852.764a35.72 35.72 0 0 0-1.763 1.701c-.679.692-2.224 2.883-2.889 2.696a.867.867 0 0 1-.39-.288l-1.343-1.442c-.752-.836-2.008-2.249-1.055-3.359-.693.418-2.311 1.442-3.106.952l-.332-.534s2.384-1.773 3.366-2.652a7.825 7.825 0 0 1 4.71-1.816Z" fill="#ffede5" fill-rule="evenodd" data-name="Vector"/><path d="M113.816 167.786h-.101a1.782 1.782 0 0 1 0-.23l.101.23Z" fill="#d6bed3" fill-rule="evenodd" data-name="Vector"/><path d="M165.574 304.568a81.007 81.007 0 0 1-4.651.36L72.01 305H71.274l-1.56-.144a1.345 1.345 0 0 1-1.344-1.34 1.34 1.34 0 0 1 1.344-1.341l1.574-.144h.738l88.897.072c1.56 0 3.105.187 4.651.36a1.112 1.112 0 0 1 .759 1.052 1.108 1.108 0 0 1-.759 1.053Z" fill="#c6c6c6" fill-rule="evenodd" data-name="Vector"/><path d="M119.074 214.274c-1.329 10.623-2.889 19.863-2.889 19.863.217 2.566.318 5.348.318 8.202 0 5.593-.376 11.532-.852 16.765-.607 6.674-1.445 12.353-1.806 15.207v.36c.534 18.927-4.868 21.435-7.396 17.298-2.528-4.137 0-16.332 0-16.332.008-.11.008-.22 0-.331a138.56 138.56 0 0 1-2.124-17.14c-.866-13.924.621-23.452.448-25.182-3.019-30.271 1.2-46.963 1.2-46.963a16.997 16.997 0 0 1 3.48-6.588c3.077-3.315 6.775-2.48 9.101 1.571.245.416.467.844.665 1.283a21.756 21.756 0 0 1 1.589 7.309c.23 6.27-.65 15.942-1.734 24.678Z" fill="#f5a784" fill-rule="evenodd" data-name="Vector"/><path d="M133.996 257.431a140.474 140.474 0 0 1-2.109 17.5l-.13.706s2.528 12.238 0 16.332c-2.528 4.094-7.873 1.7-7.396-17.038v-.245a287.56 287.56 0 0 1-1.849-15.525c-.491-5.276-.867-11.186-.867-16.779 0-2.883.116-5.65.333-8.23 0 0-1.604-9.24-2.89-19.85-1.083-8.75-1.978-18.422-1.603-24.634.108-2.51.65-4.983 1.604-7.309.189-.453.41-.891.664-1.311 2.672-4.628 7.122-5.031 10.4.187a20.491 20.491 0 0 1 2.197 4.843s4.218 16.65 1.199 46.964c-.217 1.7 1.213 10.897.447 24.39Z" fill="#f5a784" fill-rule="evenodd" data-name="Vector"/><path d="M67.157 193.545c-.65-.519-1.444-.865-1.444-1.787a2.19 2.19 0 0 1 2.167-1.831 2.66 2.66 0 0 1 1.444.836c2.268 2.004 4.507 4.166 6.688 6.328.354.31.627.7.795 1.139a1.525 1.525 0 0 1-1.127 1.903 3.01 3.01 0 0 1-2.326-1.038c-2.094-1.83-4.145-3.734-6.197-5.55Z" fill="#3b2645" fill-rule="evenodd" data-name="Vector"/><path d="M73.036 196.544a1.745 1.745 0 0 0-.231.302c-.347.447-.275 1.096-.491 1.63a1.819 1.819 0 0 1-2.355.893 4.182 4.182 0 0 1-1.834-2.278 3.496 3.496 0 0 1 .404-3.229 2.05 2.05 0 0 1 1.82-.922c1.084.13 2.181 1.542 2.716 2.422a1.008 1.008 0 0 1 .188.864 1.124 1.124 0 0 1-.217.318ZM129.056 145.04a4.573 4.573 0 0 1 2.803-.592c2.426.433 3.813 2.84 4.911 4.757a288.233 288.233 0 0 1 6.934 12.656c1.72 3.86 3.65 7.622 5.778 11.273 1.921 2.81 14.922 16.591 14.922 16.591.867 3.171-2.398 4.887-2.398 4.887l-1.256-.894c-3.424-2.48-12.93-9.571-17.465-14.991a485.992 485.992 0 0 1-8.306-10.206 43.53 43.53 0 0 1-4.334-6.242c-1.213-2.277-3.25-3.964-4.333-6.37-1.633-3.605-1.33-8.116 2.007-10.437.235-.162.481-.307.737-.433Z" fill="#ffede5" fill-rule="evenodd" data-name="Vector"/><path d="M164.39 189.74a7.766 7.766 0 0 1 4.622 1.816c.997.88 3.38 2.652 3.38 2.652l-.274.534c-.809.49-2.427-.534-3.106-.952.94 1.11-.303 2.523-1.069 3.359l-1.329 1.441a.953.953 0 0 1-.39.289c-.65.187-2.224-2.004-2.889-2.696a35.72 35.72 0 0 0-1.762-1.7c-.506-.462-.852-.765-.852-.765-.535-2.249 2.585-3.978 2.585-3.978.361-.027.723-.027 1.084 0Z" fill="#ffede5" fill-rule="evenodd" data-name="Vector"/><path d="M164.722 199.095a3.004 3.004 0 0 1-2.326 1.038 1.533 1.533 0 0 1-1.197-1.286 1.525 1.525 0 0 1 .042-.617c.18-.42.457-.79.809-1.081a198.129 198.129 0 0 1 6.702-6.328 2.616 2.616 0 0 1 1.445-.836 2.184 2.184 0 0 1 2.152 1.83c0 .923-.78 1.269-1.444 1.788-2.037 1.758-4.088 3.661-6.183 5.492Z" fill="#3b2645" fill-rule="evenodd" data-name="Vector"/><path d="M165.054 196.544a.937.937 0 0 1-.23-.318 1.065 1.065 0 0 1 .201-.864c.52-.88 1.618-2.292 2.702-2.422a2.055 2.055 0 0 1 1.82.922 3.455 3.455 0 0 1 .36 3.23 4.067 4.067 0 0 1-1.834 2.277 1.824 1.824 0 0 1-2.354-.894c-.203-.533-.13-1.182-.491-1.629l-.174-.302Z" fill="#ffede5" fill-rule="evenodd" data-name="Vector"/><path d="M134.213 248.192v5.593c0 1.182-.087 2.407-.144 3.66a48.372 48.372 0 0 1-11.47 1.716c-.16-1.614-.477-5.91-.491-6.385 0-.98-.217-3.748-.231-4.123a153.11 153.11 0 0 1-.145-6.27c0-2.682.101-5.305.303-7.741v-.49c0-.159-1.603-9.226-2.889-19.85a673.271 673.271 0 0 1-.433 3.33c-1.213 9.14-2.5 16.52-2.5 16.52.218 2.566.319 5.348.319 8.202 0 2.176 0 4.324-.16 6.602 0 .374-.288 5.189-.331 5.65a191.258 191.258 0 0 1-.362 4.512 135.012 135.012 0 0 1-5.994-.39c-1.56-.129-3.525-.215-5.432-.49a120.456 120.456 0 0 1-.188-3.747v-5.651c0-8.735.853-14.487.723-15.856-3.02-30.27 1.198-46.963 1.198-46.963a16.997 16.997 0 0 1 3.482-6.588c1.238.192 2.453.51 3.626.952 1.786.465 3.63.674 5.475.62h1.328c1.604 0 3.207-.188 4.796-.231h1.07a20.773 20.773 0 0 1 4.535.432 20.488 20.488 0 0 1 2.052 4.872 94.945 94.945 0 0 1 2.05 16.534c.49 10.15.205 20.323-.852 30.43-.173 1.283.593 6.775.665 15.15Z" fill="#3b2645" fill-rule="evenodd" data-name="Vector"/><path d="M113.758 274.671c.202 7.453-.505 12.354-1.603 15.309-1.676 4.57-4.334 4.512-5.778 2.047a6.823 6.823 0 0 1-.795-2.206c-1.054-5.146.795-14.126.795-14.126.008-.11.008-.221 0-.332.718.523 1.533.9 2.398 1.11a4.632 4.632 0 0 0 5.099-2.162l-.116.36ZM132.624 289.418a7.398 7.398 0 0 1-.867 2.609c-1.56 2.537-4.247 2.522-5.908-2.393-1.011-2.883-1.661-7.683-1.444-14.717a6.103 6.103 0 0 0 3.929 1.556 6.566 6.566 0 0 0 3.539-1.441c.027.225.027.452 0 .677 0 0 1.647 8.505.751 13.709Z" fill="#ab8da8" fill-rule="evenodd" data-name="Vector"/><path d="M111.577 279.097a.303.303 0 0 1-.231.533c-.76-.24-1.546-.394-2.34-.461-.68-.015-1.401.288-2.124.288a.217.217 0 0 1-.144-.36 4.731 4.731 0 0 1 4.84 0ZM111.346 281.403a.332.332 0 0 1-.246.605c-.62-.13-1.184-.389-1.805-.504a7.412 7.412 0 0 0-2.037-.087c-.491.044-.477-.75 0-.75a6.078 6.078 0 0 1 4.088.736ZM130.472 279.097a.307.307 0 0 1 .22.458.306.306 0 0 1-.307.147c-.664.043-1.401-.144-2.109-.115-.708.029-1.3.303-1.979.389-.159.014-.274-.26-.159-.39.852-1.008 3.236-.864 4.334-.49ZM130.688 282.297a4.69 4.69 0 0 0-4.117.216c-.173.1-.447-.072-.36-.288.606-1.615 3.596-1.226 4.795-.692.448.187.116.937-.318.764Z" fill="#291b30" fill-rule="evenodd" data-name="Vector"/><path d="M76.605 158.878c0 5.319.173 10.681-.13 15.986a.26.26 0 0 1-.506 0c-.318-5.305-.144-10.667-.144-15.986 0-5.031-.42-10.206.303-15.121.014-.087.188-.087.188 0 .708 4.958.289 10.205.289 15.12ZM82.614 159.685a.302.302 0 0 1-.518.214.302.302 0 0 1-.089-.214c-.303-4.714 0-9.528 0-14.256a.317.317 0 0 1 .51-.18.317.317 0 0 1 .111.18c.03 4.728.318 9.542-.014 14.256ZM147.46 213.524c-.03 6.198-.03 12.382-.231 18.58a.216.216 0 0 1-.42 0c-.23-6.198-.23-12.382-.23-18.58a177.37 177.37 0 0 1 .245-18.595.202.202 0 0 1 .39 0c.4 6.19.482 12.397.246 18.595ZM158.872 171.909c-.015.346-.65.461-.65.086-.55-4.065-.506-8.274-.694-12.382a121.86 121.86 0 0 1-.39-13.276c.015-.173.405-.245.405 0 .493 4.095.763 8.214.809 12.339.26 4.353.722 8.836.52 13.233ZM161.24 160.968c.383 5.922.412 11.862.087 17.788a.245.245 0 0 1-.346.28.245.245 0 0 1-.13-.28 149.152 149.152 0 0 1 .086-17.788.159.159 0 0 1 .304 0Z" fill="#f7f8f8" fill-rule="evenodd" data-name="Vector"/><path d="M118.641 217.618a15.32 15.32 0 0 1 .433-3.33 673.411 673.411 0 0 1-.433 3.33ZM134.358 202.612c-1.95-11.69-18.057-12.238-18.057-12.238-.997-4.815 5.503-6.256 5.503-6.256l3.8-3.272a20.772 20.772 0 0 1 4.536.432 20.492 20.492 0 0 1 2.21 4.8 96.8 96.8 0 0 1 2.008 16.534Z" fill="#291b30" fill-rule="evenodd" data-name="Vector"/><path d="M132.581 187.332c-13.001 6.098-27.129.505-27.129.505 1.026-2.883.26-17.586.188-20.382v-.145a2.877 2.877 0 0 0 0-.317c2.73-6.313 3.034-18.48 3.048-22.66a37.419 37.419 0 0 1 3.626-.346c.433 4.67 1.979 16.65 6.284 16.13 4.304-.519 6.356-11.185 7.107-15.856.792.133 1.595.186 2.398.159h.737c-.376 6.385 3.178 19.806 3.279 20.18v.318c0 .345-.101.706-.145 1.095v.245c-.91 8.13.607 21.074.607 21.074Z" fill="#ab8da8" fill-rule="evenodd" data-name="Vector"/></g></g></g><g data-name="Group 10067"><path d="M216 209.4a54 53.5 0 1 1 0 .1z" fill="#fff" fill-rule="evenodd" data-name="Ellipse 69"/><g data-name="Layer 3"><g data-name="Layer 1"><path d="M268.425 283.348a32.12 32.12 0 0 1-6.837-.723 27.134 27.134 0 0 1-10.83-4.872 27.064 27.064 0 0 1-7.702-9.026 47.901 47.901 0 0 1-3.28-10.337l-.161-.677c-2.302-9.786-5.203-20.134-10.555-29.484-.863-1.504-1.807-3.009-2.716-4.456a58.535 58.535 0 0 1-5.56-10.417c-2.301-6.26-1.876-12.485 1.267-16.586a5.645 5.645 0 0 1 3.671-2.469 3.356 3.356 0 0 1 2.556.758 2.482 2.482 0 0 1 .932 1.803h-.748a1.754 1.754 0 0 0-.668-1.252 2.66 2.66 0 0 0-1.98-.597 5.18 5.18 0 0 0-3.165 2.182c-2.98 3.917-3.453 9.855-1.15 15.873a57.479 57.479 0 0 0 5.524 10.337c.91 1.459 1.853 2.964 2.728 4.48 5.364 9.418 8.299 19.824 10.6 29.667l.162.678c.684 3.499 1.765 6.91 3.223 10.164a26.27 26.27 0 0 0 7.486 8.769 26.339 26.339 0 0 0 10.527 4.727 35.46 35.46 0 0 0 22.755-3.078 23.56 23.56 0 0 0 7.482-5.272 27.813 27.813 0 0 0 4.915-8.798c1.922-5.03 3.453-10.337 4.834-15.448 2.13-7.627 4.328-15.517 8.057-22.661 1.15-2.09 2.302-4.146 3.522-6.133a64.52 64.52 0 0 0 5.755-11.29c1.324-3.745 1.381-6.892.184-9.19a5.965 5.965 0 0 0-4.086-2.985 3.968 3.968 0 0 0-3.453.815l-.495-.563a4.7 4.7 0 0 1 4.086-1.01 6.763 6.763 0 0 1 4.604 3.445c1.3 2.527 1.243 5.812-.15 9.763a63.58 63.58 0 0 1-5.847 11.417c-1.15 1.987-2.417 4.031-3.453 6.098-3.683 7.075-5.87 14.932-7.988 22.512-1.438 5.146-2.923 10.463-4.868 15.517a28.433 28.433 0 0 1-5.042 9.04 24.401 24.401 0 0 1-7.723 5.443 38.188 38.188 0 0 1-16.413 3.836Z" fill="#ab8da8" fill-rule="evenodd" data-name="Vector"/><path d="M276.873 149.61a1.542 1.542 0 0 1-.426.288c-1.3.712-3.073.574-4.512.712l-3.257.264c-.84.08-2.371.482-3.073 0-.507-.344-.599-1.114-.772-1.654-.333-.85.035-1.883-.333-2.676-.277-.586-.852-.609-1.243-1.229-.392-.62.034-1.229 0-1.93-.035-.7-.518-1.263-.645-1.964a1.765 1.765 0 0 1 0-.884 2.181 2.181 0 0 1 2.17-1.536c.318.012.63.093.915.238.552.31.978.862 1.6.954.438.015.875-.052 1.289-.196.474-.108.97-.048 1.404.173.46.23.737.643 1.151.85.668.367 1.508 0 2.302 0a2.537 2.537 0 0 1 2.014.987c.219.287.346.597.61.896.265.299.622.517.91.793a3.444 3.444 0 0 1 .886 2.78 6.457 6.457 0 0 1-.99 3.135Z" fill="#3b2645" fill-rule="evenodd" data-name="Vector"/><path d="M265.823 149.105c.076 1.194.076 2.39 0 3.584-1.3-.138-2.992-2.435-1.99-3.584a1.23 1.23 0 0 1 1.99 0ZM281.995 168.343a54.593 54.593 0 0 1-1.22 5.743c-.08.356-.15.7-.196 1.034-.046.333-.092.586-.15 1.01v.253c0 .276-.08.563-.114.873l-1.45 13.496c-9.013 2.47-18.417 0-18.417 0v-.506c-.15-1.527-.61-6.386-1.07-11.864v-.115a2.29 2.29 0 0 0 0-.253c-.196-2.297-.38-4.732-.53-7.052-.276-4.031-.449-7.753-.414-10.061 0-.85 1.991-.758 3.35-.942a35.35 35.35 0 0 1 2.911-.276 42.195 42.195 0 0 1 2.003-.069h.507s.115-1.32.115-1.332l.31-3.239c.152.04.306.066.46.08.286.054.574.085.864.093h1.07l.496-.058h.287c.323-.057.633-.126.921-.207.288-.08.38-.115.564-.172a9.331 9.331 0 0 0 2.371-1.149l.104-.068.195-.15.138-.103v.299a37.857 37.857 0 0 0-.241 2.676c0 .666-.07 1.32-.092 1.883-.023.563-.207 1.379.195 1.666.144.08.3.138.46.172.633.1 1.272.142 1.911.126h.587c.491-.028.983-.028 1.474 0a2.572 2.572 0 0 1 1.841.77c.299.43.488.927.553 1.447l.138.942c.219 1.676.242 3.372.069 5.053Z" fill="#ffede5" fill-rule="evenodd" data-name="Vector"/><path d="M275.055 153.229a5.656 5.656 0 0 1-2.85 3.914 5.684 5.684 0 0 1-4.84.29l.22-2.378a9.227 9.227 0 0 0 7.47-1.826Z" fill="rgba(224,133,92,0.10196078431372549 )" fill-rule="evenodd" data-name="Vector"/><path d="M274.985 145.499c.875 1.045.576 3.239.288 5.64-.564 4.777-3.338 5.8-5.974 5.512-2.636-.287-4.19-1.895-4.017-7.063.046-1.7.104-3.24.771-3.928 2.026-2.114 7.678-1.7 8.932-.161Z" fill="#ffede5" fill-rule="evenodd" data-name="Vector"/><path d="M274.882 150.438s.805-2.137 2.083-1-.483 4.365-2.44 4.124c.023 0-.242-2.39.357-3.124Z" fill="#ffede5" fill-rule="evenodd" data-name="Vector"/><path d="M276.443 150.423a.092.092 0 0 1 .05.106 4.97 4.97 0 0 1-.61.46.966.966 0 0 1 .311.299c.046.091-.046.195-.161.195a1.036 1.036 0 0 1-.38-.264 6.507 6.507 0 0 1-.46.505c-.058.057-.138 0-.138-.08a2.16 2.16 0 0 1 .564-.724c.21-.236.48-.411.782-.505.015 0 .029.002.042.008Z" fill="rgba(224,133,92,0.10196078431372549 )" fill-rule="evenodd" data-name="Vector"/><path d="M267.55 149.473s-.449.16-.38-.632c.07-.792.38-.609.38-.609s.31 0 .265.62c-.046.62-.265.62-.265.62ZM272.074 149.473s-.438.16-.369-.632c.07-.792.369-.609.369-.609s.31 0 .264.62c-.046.62-.264.62-.264.62Z" fill="#3b2645" fill-rule="evenodd" data-name="Vector"/><path d="M269.576 151.575c-.219 0-.748.103-.852-.15a6.26 6.26 0 0 1 .334-1.608c.211-.698.384-1.407.518-2.124h-.08" fill="#e0855c" fill-rule="evenodd" data-name="Vector"/><path d="M267.93 147.325a1.211 1.211 0 0 0-.495-.08c-.16.011-.299.103-.46.103a.104.104 0 0 1-.092-.15.99.99 0 0 1 1.15-.126c.15.07.047.299-.103.253ZM272.753 147.463a.132.132 0 0 1-.134.204.132.132 0 0 1-.085-.055 1.81 1.81 0 0 0-.484-.15 3.748 3.748 0 0 1-.621 0 .138.138 0 0 1 0-.217c.345-.276 1.14-.242 1.324.218Z" fill="#3b2645" fill-rule="evenodd" data-name="Vector"/><path d="M268.46 153.171a4.878 4.878 0 0 0 2.83-.482 2.389 2.389 0 0 1-1.415 1.32c-1.002.276-1.416-.838-1.416-.838Z" fill="#fff" fill-rule="evenodd" data-name="Vector"/><path d="M262.647 160.89c2.647 1.849 2.889 5.444 1.6 8.315-.875 1.918-2.498 3.262-3.453 5.077a32.903 32.903 0 0 1-3.453 4.973 352.494 352.494 0 0 1-6.619 8.132c-3.602 4.295-11.176 9.97-13.904 11.945-.621.459-.99.712-.99.712s-2.612-1.367-1.922-3.894c0 0 10.36-10.98 11.89-13.22a95.7 95.7 0 0 0 4.604-8.981 256.004 256.004 0 0 1 5.513-10.085c.875-1.527 1.992-3.445 3.914-3.79a3.632 3.632 0 0 1 2.233.47c.203.102.4.217.587.345Z" fill="#ffede5" fill-rule="evenodd" data-name="Vector"/><path d="M233.906 196.162c.284-.022.568-.022.852 0 0 0 2.486 1.378 2.06 3.17 0 0-.265.24-.679.608-.414.368-.863.804-1.404 1.356-.541.551-1.773 2.297-2.302 2.148a.69.69 0 0 1-.31-.23l-1.071-1.149c-.599-.666-1.6-1.791-.84-2.676-.553.333-1.842 1.149-2.475.758l-.265-.425s1.9-1.413 2.682-2.113a6.234 6.234 0 0 1 3.752-1.447Z" fill="#ffede5" fill-rule="evenodd" data-name="Vector"/><path d="M265.87 178.67h-.081a1.423 1.423 0 0 1 0-.185l.08.184Z" fill="#d6bed3" fill-rule="evenodd" data-name="Vector"/><path d="M307.11 287.655a64.55 64.55 0 0 1-3.706.288l-70.845.057h-.587l-1.243-.115a1.072 1.072 0 0 1-1.07-1.068 1.067 1.067 0 0 1 1.07-1.068l1.255-.115h.587l70.833.057c1.243 0 2.474.15 3.706.288a.886.886 0 0 1 .437 1.354.886.886 0 0 1-.437.322Z" fill="#c6c6c6" fill-rule="evenodd" data-name="Vector"/><path d="M270.059 215.71c-1.059 8.465-2.302 15.827-2.302 15.827.173 2.045.253 4.261.253 6.535 0 4.457-.299 9.189-.679 13.358-.483 5.318-1.15 9.843-1.439 12.117v.287c.426 15.081-3.879 17.08-5.893 13.783-2.014-3.296 0-13.013 0-13.013a1.8 1.8 0 0 0 0-.264 110.404 110.404 0 0 1-1.692-13.657c-.69-11.095.495-18.686.357-20.065-2.406-24.12.955-37.42.955-37.42a13.543 13.543 0 0 1 2.774-5.249c2.452-2.641 5.399-1.975 7.252 1.252.194.331.371.673.53 1.023a17.335 17.335 0 0 1 1.265 5.823c.184 4.996-.518 12.703-1.381 19.663Z" fill="#f5a784" fill-rule="evenodd" data-name="Vector"/><path d="M281.949 250.098a111.926 111.926 0 0 1-1.68 13.943l-.104.563s2.014 9.751 0 13.013c-2.014 3.262-6.273 1.355-5.893-13.576v-.195c-.323-2.16-.967-6.834-1.474-12.37-.39-4.204-.69-8.913-.69-13.37 0-2.296.092-4.502.265-6.558 0 0-1.278-7.362-2.302-15.815-.864-6.972-1.577-14.679-1.278-19.629.086-2 .518-3.97 1.278-5.823.15-.36.327-.71.529-1.045 2.13-3.687 5.674-4.009 8.287.149a16.327 16.327 0 0 1 1.75 3.86s3.36 13.265.955 37.419c-.173 1.355.967 8.683.357 19.434Z" fill="#f5a784" fill-rule="evenodd" data-name="Vector"/><path d="M228.692 199.194c-.518-.414-1.15-.69-1.15-1.425a1.745 1.745 0 0 1 1.726-1.458c.445.093.849.326 1.15.666 1.808 1.596 3.592 3.32 5.33 5.042.282.247.499.558.633.907a1.215 1.215 0 0 1-.898 1.517 2.398 2.398 0 0 1-1.853-.827c-1.67-1.459-3.303-2.975-4.938-4.422Z" fill="#3b2645" fill-rule="evenodd" data-name="Vector"/><path d="M233.376 201.583a1.39 1.39 0 0 0-.184.241c-.276.356-.219.873-.391 1.298a1.45 1.45 0 0 1-1.876.712 3.332 3.332 0 0 1-1.462-1.815 2.785 2.785 0 0 1 .322-2.572 1.633 1.633 0 0 1 1.45-.736c.864.104 1.738 1.23 2.164 1.93a.803.803 0 0 1 .15.69.896.896 0 0 1-.173.252ZM278.013 160.545a3.644 3.644 0 0 1 2.233-.471c1.933.344 3.038 2.262 3.913 3.79a229.65 229.65 0 0 1 5.525 10.084 92.959 92.959 0 0 0 4.604 8.982c1.53 2.24 11.89 13.22 11.89 13.22.69 2.527-1.911 3.894-1.911 3.894l-1.001-.713c-2.728-1.975-10.302-7.626-13.916-11.945a387.253 387.253 0 0 1-6.618-8.131 34.684 34.684 0 0 1-3.453-4.974c-.967-1.814-2.59-3.158-3.453-5.076-1.301-2.872-1.06-6.467 1.6-8.316.186-.129.383-.244.587-.344Z" fill="#ffede5" fill-rule="evenodd" data-name="Vector"/><path d="M306.166 196.162a6.188 6.188 0 0 1 3.683 1.447c.795.7 2.694 2.113 2.694 2.113l-.219.425c-.644.39-1.934-.425-2.474-.758.748.884-.242 2.01-.852 2.676l-1.06 1.149a.76.76 0 0 1-.31.23c-.518.149-1.772-1.597-2.302-2.148a28.463 28.463 0 0 0-1.404-1.356c-.403-.367-.68-.608-.68-.608-.425-1.792 2.061-3.17 2.061-3.17.287-.022.576-.022.863 0Z" fill="#ffede5" fill-rule="evenodd" data-name="Vector"/><path d="M306.431 203.616a2.394 2.394 0 0 1-1.853.827 1.221 1.221 0 0 1-.954-1.025 1.215 1.215 0 0 1 .033-.491c.144-.334.365-.63.645-.862a157.857 157.857 0 0 1 5.34-5.042c.3-.342.705-.576 1.151-.666a1.74 1.74 0 0 1 1.715 1.458c0 .736-.621 1.011-1.15 1.425-1.624 1.4-3.258 2.917-4.927 4.376Z" fill="#3b2645" fill-rule="evenodd" data-name="Vector"/><path d="M306.696 201.583a.747.747 0 0 1-.185-.253.848.848 0 0 1 .162-.689c.414-.7 1.289-1.826 2.152-1.93a1.637 1.637 0 0 1 1.45.736 2.753 2.753 0 0 1 .288 2.572 3.24 3.24 0 0 1-1.462 1.815 1.453 1.453 0 0 1-1.876-.712c-.161-.425-.104-.942-.391-1.298l-.138-.241Z" fill="#ffede5" fill-rule="evenodd" data-name="Vector"/><path d="M282.122 242.736V247.192c0 .942-.07 1.918-.116 2.917-2.98.82-6.048 1.28-9.139 1.367-.126-1.286-.38-4.709-.39-5.088 0-.781-.174-2.986-.185-3.285-.07-1.677-.115-3.354-.115-4.996 0-2.136.08-4.227.242-6.168v-.39c0-.127-1.278-7.351-2.302-15.816-.116.896-.23 1.792-.346 2.653-.967 7.282-1.991 13.163-1.991 13.163.173 2.044.253 4.26.253 6.535 0 1.734 0 3.446-.126 5.26 0 .299-.23 4.135-.265 4.503-.08 1.229-.184 2.435-.288 3.595-1.611-.07-3.2-.173-4.777-.31-1.243-.104-2.808-.173-4.327-.39a95.988 95.988 0 0 1-.15-2.987v-4.503c0-6.96.68-11.542.576-12.634-2.406-24.12.955-37.42.955-37.42a13.543 13.543 0 0 1 2.774-5.248 14.48 14.48 0 0 1 2.889.758c1.423.37 2.892.537 4.362.493h1.06c1.277 0 2.554-.149 3.82-.183h.852a16.55 16.55 0 0 1 3.614.344 16.325 16.325 0 0 1 1.635 3.882 75.65 75.65 0 0 1 1.634 13.174c.39 8.088.163 16.193-.679 24.246-.138 1.023.472 5.399.53 12.072Z" fill="#3b2645" fill-rule="evenodd" data-name="Vector"/><path d="M265.823 263.834c.162 5.938-.402 9.843-1.277 12.198-1.335 3.64-3.453 3.595-4.604 1.63a5.437 5.437 0 0 1-.633-1.756c-.84-4.1.633-11.256.633-11.256a1.8 1.8 0 0 0 0-.264 5.415 5.415 0 0 0 1.91.884 3.69 3.69 0 0 0 4.063-1.723l-.092.287ZM280.856 275.584a5.895 5.895 0 0 1-.69 2.08c-1.244 2.02-3.385 2.01-4.709-1.907-.805-2.298-1.323-6.122-1.15-11.727a4.863 4.863 0 0 0 3.13 1.24 5.232 5.232 0 0 0 2.82-1.148c.021.179.021.36 0 .54 0 0 1.312 6.776.599 10.922Z" fill="#ab8da8" fill-rule="evenodd" data-name="Vector"/><path d="M264.086 267.36a.241.241 0 0 1-.185.425 8.648 8.648 0 0 0-1.864-.367c-.541-.012-1.117.23-1.692.23a.173.173 0 0 1-.157-.202.172.172 0 0 1 .042-.086 3.77 3.77 0 0 1 3.856 0ZM263.901 269.198a.264.264 0 0 1-.195.483c-.495-.104-.944-.31-1.44-.402a5.906 5.906 0 0 0-1.622-.07c-.391.035-.38-.597 0-.597a4.843 4.843 0 0 1 3.257.586ZM279.14 267.36a.244.244 0 0 1 .113.437.244.244 0 0 1-.181.046c-.53.034-1.117-.115-1.68-.092-.565.023-1.037.241-1.578.31-.126.012-.218-.207-.126-.31.679-.804 2.578-.69 3.453-.39ZM279.313 269.91a3.736 3.736 0 0 0-3.28.173c-.138.08-.357-.058-.288-.23.484-1.286 2.866-.976 3.822-.551.356.149.092.746-.254.608Z" fill="#291b30" fill-rule="evenodd" data-name="Vector"/><path d="M236.22 171.571c0 4.238.138 8.51-.104 12.737a.207.207 0 0 1-.403 0c-.253-4.226-.115-8.499-.115-12.737 0-4.008-.334-8.132.242-12.048.011-.07.15-.07.15 0 .564 3.95.23 8.131.23 12.048ZM241.008 172.214a.24.24 0 0 1-.413.17.24.24 0 0 1-.07-.17c-.243-3.756 0-7.592 0-11.359a.253.253 0 0 1 .494 0c.023 3.767.253 7.603-.011 11.36ZM292.677 215.113c-.023 4.939-.023 9.866-.185 14.805a.172.172 0 0 1-.333 0c-.185-4.94-.185-9.866-.185-14.805-.193-4.94-.128-9.885.196-14.817a.16.16 0 0 1 .31 0c.32 4.933.385 9.878.197 14.817ZM301.77 181.954c-.012.276-.519.368-.519.069-.437-3.239-.402-6.593-.552-9.866a97.1 97.1 0 0 1-.31-10.578c.01-.138.321-.196.321 0 .394 3.263.61 6.545.645 9.831.207 3.469.575 7.04.414 10.544ZM303.657 173.237c.305 4.718.328 9.451.069 14.173a.195.195 0 0 1-.276.222.196.196 0 0 1-.104-.222c-.259-4.722-.236-9.455.07-14.173a.126.126 0 0 1 .241 0Z" fill="#f7f8f8" fill-rule="evenodd" data-name="Vector"/><path d="M269.714 218.375c.017-.895.133-1.784.345-2.654-.115.896-.23 1.792-.345 2.654ZM282.237 206.418c-1.554-9.315-14.388-9.751-14.388-9.751-.794-3.836 4.386-4.985 4.386-4.985l3.027-2.607a16.55 16.55 0 0 1 3.614.344 16.327 16.327 0 0 1 1.76 3.825 77.128 77.128 0 0 1 1.6 13.174Z" fill="#291b30" fill-rule="evenodd" data-name="Vector"/><path d="M280.821 194.244c-10.359 4.858-21.616.402-21.616.402.818-2.298.208-14.013.15-16.241v-.115a2.29 2.29 0 0 0 0-.253c2.175-5.03 2.417-14.724 2.429-18.055.978-.15 2.002-.23 2.889-.276.345 3.722 1.577 13.266 5.007 12.853 3.43-.414 5.064-8.913 5.662-12.634a9.608 9.608 0 0 0 1.911.126h.587c-.3 5.088 2.532 15.781 2.613 16.08v.252c0 .276-.08.563-.115.873v.196c-.725 6.478.483 16.792.483 16.792Z" fill="#ab8da8" fill-rule="evenodd" data-name="Vector"/></g></g></g></g></g></g></g><defs><linearGradient x1="1" y1="1" x2="0" y2="0" id="a"><stop stop-color="#f8600d" offset="0"/><stop stop-color="#ffd59d" offset="1"/></linearGradient><clipPath id="b"><path d="M22 0h271a22 22 0 0 1 22 22v106a22 22 0 0 1-22 22H22a22 22 0 0 1-22-22V22A22 22 0 0 1 22 0z" data-name="Rectangle 5743" transform="translate(30 102)"/></clipPath></defs></svg>