<svg xmlns="http://www.w3.org/2000/svg" width="205.877" height="294.229" viewBox="85 197 205.877 294.229"><g data-name="Vector"><g data-name="Layer 5"><g data-name="Layer 1"><path d="M184.569 491.23a64.822 64.822 0 0 1-13.865-1.476 54.893 54.893 0 0 1-21.962-9.931 55.09 55.09 0 0 1-15.619-18.396 97.998 97.998 0 0 1-6.652-21.07l-.327-1.382c-4.669-19.946-10.55-41.04-21.405-60.096-1.75-3.067-3.664-6.134-5.508-9.084a119.517 119.517 0 0 1-11.275-21.234c-4.668-12.759-3.804-25.448 2.568-33.806a11.479 11.479 0 0 1 3.211-3.278 11.442 11.442 0 0 1 4.235-1.755 6.773 6.773 0 0 1 5.182 1.545 5.054 5.054 0 0 1 1.89 3.676h-1.516a3.59 3.59 0 0 0-1.354-2.552 5.387 5.387 0 0 0-4.015-1.218 10.504 10.504 0 0 0-6.42 4.448c-6.045 7.984-7.002 20.087-2.333 32.355a117.36 117.36 0 0 0 11.204 21.07c1.844 2.973 3.758 6.04 5.532 9.13 10.877 19.197 16.83 40.408 21.498 60.471l.327 1.382a95.864 95.864 0 0 0 6.535 20.719 53.476 53.476 0 0 0 15.182 17.873 53.284 53.284 0 0 0 21.348 9.635 71.587 71.587 0 0 0 46.147-6.274 47.782 47.782 0 0 0 15.173-10.746 56.773 56.773 0 0 0 9.967-17.933c3.898-10.254 7.002-21.07 9.803-31.488 4.319-15.545 8.777-31.629 16.34-46.19 2.334-4.261 4.668-8.452 7.142-12.502a131.769 131.769 0 0 0 11.671-23.013c2.685-7.632 2.801-14.047.374-18.73a12.14 12.14 0 0 0-3.468-3.967 12.097 12.097 0 0 0-4.819-2.12 8.006 8.006 0 0 0-7.002 1.663l-1.004-1.147a9.514 9.514 0 0 1 8.286-2.06 13.682 13.682 0 0 1 5.452 2.464 13.732 13.732 0 0 1 3.885 4.559c2.638 5.15 2.521 11.846-.303 19.9a129.843 129.843 0 0 1-11.858 23.27c-2.334 4.05-4.902 8.218-7.003 12.432-7.469 14.42-11.904 30.434-16.199 45.886-2.918 10.488-5.929 21.327-9.873 31.628a58.038 58.038 0 0 1-10.224 18.425 49.486 49.486 0 0 1-15.663 11.097 77.12 77.12 0 0 1-33.285 7.82Z" fill="#ab8da8" fill-rule="evenodd" data-name="Vector"/><path d="M201.701 218.628c-.253.242-.545.44-.864.585-2.637 1.452-6.232 1.17-9.15 1.452l-6.605.538c-1.704.164-4.809.983-6.233 0-1.027-.702-1.214-2.27-1.564-3.371-.677-1.732.07-3.84-.677-5.455-.56-1.194-1.727-1.24-2.52-2.505-.794-1.264.07-2.505 0-3.933s-1.05-2.575-1.308-4.003a3.616 3.616 0 0 1 0-1.803 4.451 4.451 0 0 1 2.514-2.784 4.423 4.423 0 0 1 3.742.139c1.12.632 1.984 1.755 3.245 1.943a7.17 7.17 0 0 0 2.614-.398 4.19 4.19 0 0 1 2.848.35c.933.47 1.493 1.312 2.334 1.733 1.354.75 3.058 0 4.668 0a5.123 5.123 0 0 1 4.085 2.014c.443.585.7 1.217 1.237 1.826.537.609 1.26 1.053 1.844 1.615a7.028 7.028 0 0 1 1.797 5.666c-.109 2.268-.8 4.47-2.007 6.391Z" fill="#3b2645" fill-rule="evenodd" data-name="Vector"/><path d="M179.293 217.597a57.972 57.972 0 0 1 0 7.305c-2.637-.281-6.068-4.963-4.038-7.305a2.5 2.5 0 0 1 2.02-1.03 2.492 2.492 0 0 1 2.018 1.03Z" fill="#e0855c" fill-rule="evenodd" data-name="Vector"/><path d="M212.089 256.812a111.774 111.774 0 0 1-2.474 11.706 25.477 25.477 0 0 0-.397 2.107c-.094.679-.187 1.194-.304 2.06v.515c0 .562-.163 1.147-.233 1.78l-2.941 27.508c-18.277 5.033-37.347 0-37.347 0v-1.03a1996.9 1996.9 0 0 1-2.171-24.184v-.234c.01-.172.01-.344 0-.515-.397-4.683-.77-9.646-1.074-14.375-.56-8.217-.91-15.803-.84-20.508 0-1.733 4.038-1.545 6.792-1.92 2.031-.28 4.109-.468 5.906-.562 1.797-.093 3.151-.14 4.061-.14h1.027s.234-2.693.234-2.716l.63-6.602c.306.08.619.134.934.164.577.109 1.163.171 1.75.187h2.171l1.004-.117h.583a19.998 19.998 0 0 0 1.868-.421c.583-.164.77-.234 1.144-.351a18.884 18.884 0 0 0 4.808-2.342l.21-.14.397-.304.28-.211v.609c-.187 1.545-.397 3.511-.49 5.454 0 1.358-.14 2.693-.187 3.84-.047 1.147-.42 2.81.397 3.395.291.164.606.282.934.35 1.28.204 2.578.29 3.874.258h1.19a25.598 25.598 0 0 1 2.988 0 5.192 5.192 0 0 1 3.735 1.569c.605.878.99 1.89 1.12 2.95l.28 1.92c.445 3.416.492 6.873.14 10.3Z" fill="#ffede5" fill-rule="evenodd" data-name="Vector"/><path d="M198.014 226.002a11.56 11.56 0 0 1-1.997 4.64c-1 1.38-2.29 2.52-3.781 3.339a11.482 11.482 0 0 1-9.815.59l.444-4.846a18.62 18.62 0 0 0 15.148-3.723Z" fill="#e0855c" fill-rule="evenodd" data-name="Vector"/><path d="M197.874 210.247c1.774 2.13 1.167 6.602.584 11.495-1.144 9.74-6.77 11.823-12.115 11.238-5.345-.586-8.496-3.863-8.146-14.398.093-3.465.21-6.602 1.564-8.007 4.108-4.308 15.569-3.465 18.113-.328Z" fill="#ffede5" fill-rule="evenodd" data-name="Vector"/><path d="M197.664 220.314s1.634-4.354 4.225-2.036c2.591 2.317-.98 8.896-4.948 8.404.046 0-.49-4.87.723-6.368Z" fill="#ffede5" fill-rule="evenodd" data-name="Vector"/><path d="M200.83 220.284a.187.187 0 0 1 .102.217c-.388.344-.802.657-1.237.936.253.153.468.361.63.61.093.186-.094.397-.327.397a2.1 2.1 0 0 1-.77-.538c-.293.36-.605.703-.934 1.03-.117.117-.28 0-.28-.164a4.4 4.4 0 0 1 1.144-1.475 3.524 3.524 0 0 1 1.587-1.03c.029-.001.058.005.084.017Z" fill="#e0855c" fill-rule="evenodd" data-name="Vector"/><path d="M182.795 218.347s-.91.328-.77-1.288c.14-1.615.77-1.24.77-1.24s.63 0 .536 1.264c-.093 1.264-.536 1.264-.536 1.264ZM191.968 218.347s-.887.328-.747-1.288c.14-1.615.747-1.24.747-1.24s.63 0 .537 1.264c-.093 1.264-.537 1.264-.537 1.264Z" fill="#3b2645" fill-rule="evenodd" data-name="Vector"/><path d="M186.903 222.631c-.444 0-1.517.211-1.728-.304.082-1.118.31-2.22.677-3.278.43-1.423.78-2.869 1.05-4.33h-.163" fill="#e0855c" fill-rule="evenodd" data-name="Vector"/><path d="M183.565 213.97a2.444 2.444 0 0 0-1.004-.165c-.326.024-.606.211-.933.211a.21.21 0 0 1-.209-.201.211.211 0 0 1 .022-.103 2.005 2.005 0 0 1 2.334-.258c.304.14.094.609-.21.515ZM193.345 214.25a.27.27 0 0 1-.271.418.269.269 0 0 1-.172-.113 3.657 3.657 0 0 0-.98-.304c-.42.035-.842.035-1.261 0a.28.28 0 0 1 0-.445c.7-.562 2.31-.492 2.684.445Z" fill="#3b2645" fill-rule="evenodd" data-name="Vector"/><path d="M184.639 225.885a9.848 9.848 0 0 0 5.742-.983 4.87 4.87 0 0 1-2.871 2.692c-2.031.562-2.871-1.709-2.871-1.709Z" fill="#fff" fill-rule="evenodd" data-name="Vector"/><path d="M172.85 241.618c5.37 3.77 5.86 11.097 3.245 16.95-1.774 3.91-5.065 6.649-7.003 10.347a67.079 67.079 0 0 1-7.002 10.138c-5.789 7.374-11.298 14.046-13.422 16.575-7.306 8.756-22.665 20.32-28.197 24.347-1.26.937-2.007 1.452-2.007 1.452s-5.299-2.786-3.898-7.937c0 0 21.007-22.38 24.112-26.946a195.446 195.446 0 0 0 9.337-18.307 522.695 522.695 0 0 1 11.18-20.556c1.774-3.113 4.039-7.023 7.937-7.725a7.335 7.335 0 0 1 4.528.96c.413.205.81.44 1.19.702Z" fill="#ffede5" fill-rule="evenodd" data-name="Vector"/><path d="M114.566 313.514a11.241 11.241 0 0 1 1.728 0s5.042 2.81 4.178 6.462c0 0-.537.492-1.377 1.24-.84.75-1.75 1.64-2.848 2.763-1.097 1.124-3.595 4.682-4.668 4.378a1.4 1.4 0 0 1-.63-.468l-2.171-2.341c-1.214-1.358-3.245-3.652-1.704-5.455-1.12.679-3.735 2.341-5.019 1.545l-.537-.866s3.852-2.88 5.439-4.308a12.607 12.607 0 0 1 7.61-2.95Z" fill="#ffede5" fill-rule="evenodd" data-name="Vector"/><path d="M179.387 277.86h-.163a2.916 2.916 0 0 1 0-.376l.163.375Z" fill="#d6bed3" fill-rule="evenodd" data-name="Vector"/><path d="M187.883 353.36c-2.147 17.254-4.668 32.26-4.668 32.26.35 4.168.513 8.686.513 13.322 0 9.083-.607 18.729-1.377 27.227-.98 10.84-2.334 20.064-2.918 24.699v.585c.864 30.74-7.866 34.813-11.95 28.094-4.086-6.72 0-26.525 0-26.525.012-.18.012-.36 0-.539a226.136 226.136 0 0 1-3.432-27.836c-1.4-22.615 1.004-38.09.724-40.9-4.879-49.163 1.937-76.273 1.937-76.273a27.653 27.653 0 0 1 5.625-10.699c4.972-5.384 10.948-4.027 14.706 2.552.395.675.753 1.37 1.073 2.084a35.487 35.487 0 0 1 2.568 11.87c.374 10.183-1.05 25.892-2.8 40.08Z" fill="#ffede5" fill-rule="evenodd" data-name="Vector"/><path d="M211.996 423.453a229.26 229.26 0 0 1-3.408 28.421l-.21 1.147s4.084 19.877 0 26.525c-4.085 6.65-12.722 2.763-11.951-27.672v-.398c-.654-4.4-1.961-13.93-2.988-25.214-.794-8.568-1.4-18.167-1.4-27.25 0-4.682.186-9.177.536-13.368 0 0-2.59-15.007-4.668-32.237-1.75-14.21-3.198-29.92-2.591-40.01a35.464 35.464 0 0 1 2.59-11.87c.307-.735.665-1.447 1.075-2.13 4.318-7.515 11.507-8.17 16.806.304a33.363 33.363 0 0 1 3.548 7.866s6.816 27.04 1.937 76.274c-.35 2.763 1.96 17.7.724 39.612Z" fill="#ffede5" fill-rule="evenodd" data-name="Vector"/><path d="M103.992 319.695c-1.05-.843-2.334-1.405-2.334-2.903a3.561 3.561 0 0 1 1.207-2.13 3.542 3.542 0 0 1 2.294-.843c.904.189 1.722.665 2.334 1.357 3.665 3.255 7.283 6.766 10.808 10.278a4.682 4.682 0 0 1 1.284 1.85 2.489 2.489 0 0 1-.918 2.674 2.47 2.47 0 0 1-.903.416 4.843 4.843 0 0 1-3.758-1.686c-3.385-2.973-6.7-6.063-10.014-9.013Z" fill="#3b2645" fill-rule="evenodd" data-name="Vector"/><path d="M113.492 324.563c-.142.15-.267.315-.373.492-.56.726-.444 1.78-.794 2.645a2.944 2.944 0 0 1-1.612 1.493 2.933 2.933 0 0 1-2.193-.041 6.786 6.786 0 0 1-2.964-3.699 5.705 5.705 0 0 1 .653-5.244 3.318 3.318 0 0 1 2.941-1.498c1.751.21 3.525 2.505 4.389 3.933a1.641 1.641 0 0 1 .303 1.404c-.086.19-.205.365-.35.515ZM204.013 240.916a7.358 7.358 0 0 1 4.528-.96c3.921.703 6.162 4.612 7.936 7.726 3.898 6.766 7.61 13.532 11.204 20.555a189.844 189.844 0 0 0 9.337 18.308c3.105 4.565 24.112 26.946 24.112 26.946 1.4 5.15-3.874 7.936-3.874 7.936l-2.031-1.451c-5.532-4.027-20.891-15.545-28.22-24.348-2.101-2.528-7.633-9.2-13.422-16.575a70.708 70.708 0 0 1-7.003-10.137c-1.96-3.699-5.252-6.438-7.002-10.348-2.638-5.853-2.148-13.18 3.244-16.95a9.331 9.331 0 0 1 1.19-.702Z" fill="#ffede5" fill-rule="evenodd" data-name="Vector"/><path d="M261.107 313.514a12.514 12.514 0 0 1 7.47 2.95c1.61 1.428 5.462 4.308 5.462 4.308l-.444.866c-1.307.796-3.921-.866-5.018-1.545 1.517 1.802-.49 4.097-1.728 5.454l-2.147 2.342c-.166.208-.383.369-.63.468-1.05.304-3.595-3.254-4.669-4.378a57.854 57.854 0 0 0-2.847-2.763c-.817-.749-1.378-1.24-1.378-1.24-.863-3.653 4.179-6.462 4.179-6.462a11.636 11.636 0 0 1 1.75 0Z" fill="#ffede5" fill-rule="evenodd" data-name="Vector"/><path d="M261.644 328.708a4.856 4.856 0 0 1-3.758 1.686 2.47 2.47 0 0 1-1.6-1.141 2.486 2.486 0 0 1-.267-1.95c.29-.68.739-1.282 1.307-1.756a320.824 320.824 0 0 1 10.83-10.277 4.222 4.222 0 0 1 2.335-1.358c.837 0 1.647.3 2.284.845.637.545 1.06 1.3 1.194 2.128 0 1.499-1.26 2.06-2.335 2.903-3.29 2.856-6.605 5.947-9.99 8.92Z" fill="#3b2645" fill-rule="evenodd" data-name="Vector"/><path d="M262.18 324.563a1.521 1.521 0 0 1-.373-.515 1.737 1.737 0 0 1 .327-1.404c.84-1.428 2.614-3.723 4.365-3.933a3.306 3.306 0 0 1 2.941 1.498 5.629 5.629 0 0 1 .584 5.244 6.598 6.598 0 0 1-2.965 3.699 2.933 2.933 0 0 1-2.193.041 2.945 2.945 0 0 1-1.611-1.493c-.327-.866-.21-1.92-.794-2.645l-.28-.492Z" fill="#ffede5" fill-rule="evenodd" data-name="Vector"/><path d="M212.346 408.446v9.084c0 1.92-.14 3.91-.234 5.946a77.793 77.793 0 0 1-18.533 2.786c-.257-2.622-.77-9.599-.794-10.371 0-1.592-.35-6.087-.373-6.696-.14-3.418-.234-6.836-.234-10.184 0-4.354.164-8.615.49-12.572v-.796c0-.257-2.59-14.983-4.668-32.237-.233 1.826-.467 3.652-.7 5.408-1.96 14.843-4.038 26.83-4.038 26.83.35 4.167.513 8.685.513 13.32 0 3.536 0 7.024-.256 10.723 0 .608-.467 8.428-.537 9.177a312.151 312.151 0 0 1-.584 7.328c-3.268-.14-6.489-.351-9.687-.632-2.52-.211-5.695-.352-8.776-.796a196.66 196.66 0 0 1-.304-6.087V409.499c0-14.187 1.377-23.528 1.167-25.752-4.878-49.163 1.938-76.274 1.938-76.274a27.653 27.653 0 0 1 5.625-10.699c2.001.311 3.964.829 5.859 1.546a31.237 31.237 0 0 0 8.847 1.006h2.147c2.591 0 5.182-.304 7.75-.374h1.727a33.4 33.4 0 0 1 7.33.702 33.368 33.368 0 0 1 3.314 7.913 154.95 154.95 0 0 1 3.314 26.853c.791 16.485.33 33.006-1.377 49.42-.28 2.084.957 11.004 1.074 24.606Z" fill="#3b2645" fill-rule="evenodd" data-name="Vector"/><path d="M179.293 451.453c.327 12.103-.817 20.063-2.59 24.862-2.708 7.422-7.003 7.328-9.337 3.325a11.118 11.118 0 0 1-1.284-3.582c-1.704-8.358 1.284-22.943 1.284-22.943.013-.18.013-.36 0-.538a10.956 10.956 0 0 0 3.874 1.802 7.449 7.449 0 0 0 4.703-.38 7.477 7.477 0 0 0 3.537-3.131l-.187.585ZM209.778 475.403a12.058 12.058 0 0 1-1.4 4.237c-2.522 4.12-6.863 4.097-9.547-3.886-1.634-4.682-2.685-12.478-2.335-23.903a9.834 9.834 0 0 0 6.35 2.528 10.58 10.58 0 0 0 5.718-2.34c.043.365.043.734 0 1.1 0 0 2.661 13.812 1.214 22.264Z" fill="#ab8da8" fill-rule="evenodd" data-name="Vector"/><path d="M175.768 458.64a.492.492 0 0 1-.373.866 17.46 17.46 0 0 0-3.781-.749c-1.097-.023-2.265.468-3.432.468a.35.35 0 0 1-.318-.411.352.352 0 0 1 .085-.174 7.616 7.616 0 0 1 7.82 0ZM175.395 462.386a.538.538 0 0 1-.397.983c-1.004-.21-1.914-.632-2.918-.82a11.916 11.916 0 0 0-3.29-.14c-.794.07-.771-1.217 0-1.217a9.78 9.78 0 0 1 6.605 1.194ZM206.3 458.64a.494.494 0 0 1 .42.562.498.498 0 0 1-.56.422c-1.074.07-2.264-.234-3.408-.188-1.144.047-2.101.492-3.198.633-.257.023-.444-.422-.257-.633 1.377-1.638 5.229-1.404 7.003-.796ZM206.65 463.837a7.543 7.543 0 0 0-6.652.351c-.28.164-.723-.117-.583-.468.98-2.622 5.812-1.99 7.75-1.124.723.305.186 1.522-.514 1.241Z" fill="#291b30" fill-rule="evenodd" data-name="Vector"/><path d="M119.258 263.39c0 8.639.28 17.348-.21 25.963a.422.422 0 0 1-.669.233.422.422 0 0 1-.148-.233c-.514-8.615-.233-17.324-.233-25.963 0-8.17-.677-16.575.49-24.558.023-.14.303-.14.303 0 1.144 8.053.467 16.575.467 24.558ZM128.968 264.701a.492.492 0 0 1-.49.492.49.49 0 0 1-.49-.492c-.49-7.655 0-15.474 0-23.153a.515.515 0 0 1 .824-.292.515.515 0 0 1 .18.292c.046 7.679.513 15.498-.024 23.153ZM233.75 352.142c-.047 10.067-.047 20.11-.374 30.177a.351.351 0 0 1-.552.189.351.351 0 0 1-.125-.189c-.373-10.067-.373-20.11-.373-30.177a289.545 289.545 0 0 1 .397-30.2.328.328 0 0 1 .513-.174.328.328 0 0 1 .117.174c.646 10.053.778 20.133.397 30.2ZM252.19 284.554c-.023.562-1.05.75-1.05.14-.887-6.601-.817-13.437-1.12-20.11-.6-7.17-.81-14.368-.63-21.561.023-.281.653-.398.653 0a185.138 185.138 0 0 1 1.307 20.04c.42 7.07 1.168 14.35.84 21.491ZM256.018 266.785c.619 9.618.666 19.265.14 28.89a.4.4 0 0 1-.385.493.396.396 0 0 1-.385-.494 243.465 243.465 0 0 1 .14-28.889.258.258 0 0 1 .397-.13.257.257 0 0 1 .093.13Z" fill="#f7f8f8" fill-rule="evenodd" data-name="Vector"/><path d="M187.183 358.791c.036-1.823.27-3.636.7-5.408-.233 1.826-.467 3.652-.7 5.408ZM212.58 334.42c-3.152-18.986-29.178-19.876-29.178-19.876-1.61-7.819 8.893-10.16 8.893-10.16l6.139-5.314a33.4 33.4 0 0 1 7.33.702 33.36 33.36 0 0 1 3.57 7.796 157.98 157.98 0 0 1 3.245 26.852Z" fill="#291b30" fill-rule="evenodd" data-name="Vector"/><path d="M209.708 309.604c-21.008 9.903-43.837.82-43.837.82 1.658-4.683.42-28.562.304-33.104v-.234c.01-.172.01-.344 0-.515 4.411-10.254 4.902-30.013 4.925-36.803 1.984-.304 4.061-.468 5.859-.561.7 7.585 3.198 27.04 10.154 26.197 6.955-.843 10.27-18.167 11.484-25.753 1.28.216 2.578.302 3.875.258h1.19c-.607 10.371 5.135 32.167 5.299 32.776v.515c0 .562-.164 1.147-.234 1.779v.398c-1.47 13.204.98 34.227.98 34.227Z" fill="#ab8da8" fill-rule="evenodd" data-name="Vector"/></g></g></g></svg>