<svg xmlns="http://www.w3.org/2000/svg" xmlns:xlink="http://www.w3.org/1999/xlink" width="170.58" height="248.504" viewBox="0 0 170.58 248.504">
  <defs>
    <linearGradient id="linear-gradient" x1="0.5" y1="0.126" x2="0.5" y2="0.955" gradientUnits="objectBoundingBox">
      <stop offset="0" stop-color="#f22934"/>
      <stop offset="1" stop-color="#b80007"/>
    </linearGradient>
    <linearGradient id="linear-gradient-2" x1="0.5" y1="-0.015" x2="0.5" y2="0.795" gradientUnits="objectBoundingBox">
      <stop offset="0" stop-color="#fff"/>
      <stop offset="1"/>
    </linearGradient>
    <linearGradient id="linear-gradient-3" x1="0.5" y1="-0.025" x2="0.5" y2="0.821" gradientUnits="objectBoundingBox">
      <stop offset="0" stop-color="#a12025"/>
      <stop offset="1" stop-color="#c1272d"/>
    </linearGradient>
    <linearGradient id="linear-gradient-4" x1="0.5" y1="0.126" x2="0.5" y2="0.955" gradientUnits="objectBoundingBox">
      <stop offset="0" stop-color="#e33940"/>
      <stop offset="1" stop-color="#b80007"/>
    </linearGradient>
    <linearGradient id="linear-gradient-5" x1="0.5" y1="1.177" x2="0.5" y2="0.148" xlink:href="#linear-gradient-2"/>
    <linearGradient id="linear-gradient-6" x1="0.288" y1="0.834" x2="0.578" y2="0.207" xlink:href="#linear-gradient-3"/>
    <linearGradient id="linear-gradient-7" x1="0.604" y1="0.581" x2="0.442" y2="0.45" xlink:href="#linear-gradient-3"/>
    <linearGradient id="linear-gradient-8" x1="0.288" y1="-5.311" x2="0.578" y2="-5.939" xlink:href="#linear-gradient-3"/>
    <linearGradient id="linear-gradient-9" x1="0.604" y1="-1.336" x2="0.442" y2="-1.467" xlink:href="#linear-gradient-3"/>
    <linearGradient id="linear-gradient-10" x1="0.5" y1="0.126" x2="0.5" y2="0.955" xlink:href="#linear-gradient-2"/>
    <linearGradient id="linear-gradient-11" x1="0.501" y1="-0.251" x2="0.501" y2="1.45" gradientUnits="objectBoundingBox">
      <stop offset="0" stop-color="#e8e8e8"/>
      <stop offset="0.443" stop-color="#b8b7b7"/>
      <stop offset="1" stop-color="#999696"/>
    </linearGradient>
    <linearGradient id="linear-gradient-12" x1="0.496" y1="-408.767" x2="0.496" y2="900.366" xlink:href="#linear-gradient-11"/>
    <linearGradient id="linear-gradient-13" x1="0.5" y1="-0.596" x2="0.5" y2="6.98" xlink:href="#linear-gradient-11"/>
    <linearGradient id="linear-gradient-14" x1="0.5" y1="-0.182" x2="0.5" y2="1.207" xlink:href="#linear-gradient-11"/>
    <linearGradient id="linear-gradient-15" x1="0.524" y1="-231.612" x2="0.524" y2="387.978" xlink:href="#linear-gradient-11"/>
    <linearGradient id="linear-gradient-16" x1="0.474" y1="-179.396" x2="0.474" y2="825.369" xlink:href="#linear-gradient-11"/>
    <linearGradient id="linear-gradient-17" x1="0.503" y1="-218.476" x2="0.503" y2="914.017" xlink:href="#linear-gradient-11"/>
    <linearGradient id="linear-gradient-18" x1="0.488" y1="-937.313" x2="0.488" y2="5969.206" xlink:href="#linear-gradient-11"/>
    <linearGradient id="linear-gradient-19" x1="0.482" y1="-1231.346" x2="0.482" y2="6696.983" xlink:href="#linear-gradient-11"/>
    <linearGradient id="linear-gradient-20" x1="0.506" y1="-428.216" x2="0.506" y2="2760.498" xlink:href="#linear-gradient-11"/>
    <linearGradient id="linear-gradient-21" x1="0.401" y1="-2997.61" x2="0.401" y2="3709.808" xlink:href="#linear-gradient-11"/>
    <linearGradient id="linear-gradient-22" x1="0.511" y1="-1374.981" x2="0.511" y2="1004.411" xlink:href="#linear-gradient-11"/>
    <linearGradient id="linear-gradient-23" x1="0.5" y1="-1098.185" x2="0.5" y2="300.426" xlink:href="#linear-gradient-11"/>
    <linearGradient id="linear-gradient-24" x1="0.5" y1="-1944.225" x2="0.5" y2="523.345" xlink:href="#linear-gradient-11"/>
    <linearGradient id="linear-gradient-25" x1="0.527" y1="-476.878" x2="0.527" y2="85.766" xlink:href="#linear-gradient-11"/>
    <linearGradient id="linear-gradient-26" x1="0.515" y1="-375.314" x2="0.515" y2="98.9" xlink:href="#linear-gradient-11"/>
    <linearGradient id="linear-gradient-27" x1="0.502" y1="-574.706" x2="0.502" y2="202.911" xlink:href="#linear-gradient-11"/>
    <linearGradient id="linear-gradient-28" x1="0.498" y1="-4.138" x2="0.498" y2="27.544" xlink:href="#linear-gradient-11"/>
    <linearGradient id="linear-gradient-29" x1="0.483" y1="-141.171" x2="0.483" y2="805.61" xlink:href="#linear-gradient-11"/>
    <linearGradient id="linear-gradient-30" x1="0.514" y1="-268.837" x2="0.514" y2="1499.233" xlink:href="#linear-gradient-11"/>
    <linearGradient id="linear-gradient-31" x1="0.502" y1="-11.418" x2="0.502" y2="17.296" xlink:href="#linear-gradient-11"/>
    <linearGradient id="linear-gradient-32" x1="0.5" y1="-8.215" x2="0.5" y2="5.265" xlink:href="#linear-gradient-11"/>
    <linearGradient id="linear-gradient-33" x1="0.5" y1="-11.317" x2="0.5" y2="36.735" xlink:href="#linear-gradient-11"/>
    <linearGradient id="linear-gradient-34" x1="0.5" y1="-11.818" x2="0.5" y2="89.664" xlink:href="#linear-gradient-11"/>
    <linearGradient id="linear-gradient-35" x1="0.499" y1="-33.183" x2="0.499" y2="43.74" xlink:href="#linear-gradient-11"/>
    <linearGradient id="linear-gradient-36" x1="0.505" y1="-4.755" x2="0.505" y2="33.277" xlink:href="#linear-gradient-11"/>
    <linearGradient id="linear-gradient-37" x1="0.501" y1="-12.992" x2="0.501" y2="110.472" xlink:href="#linear-gradient-11"/>
    <linearGradient id="linear-gradient-38" x1="0.499" y1="-12.833" x2="0.499" y2="109.425" xlink:href="#linear-gradient-11"/>
    <linearGradient id="linear-gradient-39" x1="0.501" y1="-14.533" x2="0.501" y2="142.887" xlink:href="#linear-gradient-11"/>
    <linearGradient id="linear-gradient-40" x1="0.497" y1="-10.265" x2="0.497" y2="103.464" xlink:href="#linear-gradient-11"/>
    <linearGradient id="linear-gradient-41" x1="0.499" y1="-139.029" x2="0.499" y2="29.201" xlink:href="#linear-gradient-11"/>
    <linearGradient id="linear-gradient-42" x1="0.499" y1="-53.391" x2="0.499" y2="83.336" xlink:href="#linear-gradient-11"/>
    <linearGradient id="linear-gradient-43" x1="0.5" y1="-8.327" x2="0.5" y2="55.246" xlink:href="#linear-gradient-11"/>
    <linearGradient id="linear-gradient-44" x1="0.501" y1="-31.695" x2="0.501" y2="170.922" xlink:href="#linear-gradient-11"/>
    <linearGradient id="linear-gradient-45" x1="0.5" y1="-43.056" x2="0.5" y2="180.156" xlink:href="#linear-gradient-11"/>
    <linearGradient id="linear-gradient-46" x1="0.501" y1="-96.705" x2="0.501" y2="123.497" xlink:href="#linear-gradient-11"/>
    <linearGradient id="linear-gradient-47" x1="0.501" y1="-50.316" x2="0.501" y2="139.497" xlink:href="#linear-gradient-11"/>
    <linearGradient id="linear-gradient-48" x1="0.501" y1="-183.221" x2="0.501" y2="34.463" xlink:href="#linear-gradient-11"/>
    <linearGradient id="linear-gradient-49" x1="0.501" y1="-4.457" x2="0.501" y2="41.912" xlink:href="#linear-gradient-11"/>
    <linearGradient id="linear-gradient-50" x1="0.503" y1="-29.204" x2="0.503" y2="233.578" xlink:href="#linear-gradient-11"/>
    <linearGradient id="linear-gradient-51" x1="0.5" y1="-24.832" x2="0.5" y2="200.184" xlink:href="#linear-gradient-11"/>
    <linearGradient id="linear-gradient-52" x1="0.5" y1="-126.126" x2="0.5" y2="161.017" xlink:href="#linear-gradient-11"/>
    <linearGradient id="linear-gradient-53" x1="0.492" y1="-25.97" x2="0.492" y2="93.366" xlink:href="#linear-gradient-11"/>
    <linearGradient id="linear-gradient-54" x1="0.5" y1="-4.18" x2="0.5" y2="15.396" xlink:href="#linear-gradient-11"/>
    <linearGradient id="linear-gradient-55" x1="0.5" y1="-8.075" x2="0.5" y2="61.865" xlink:href="#linear-gradient-11"/>
    <linearGradient id="linear-gradient-56" x1="0.497" y1="-34.294" x2="0.497" y2="317.002" xlink:href="#linear-gradient-11"/>
    <linearGradient id="linear-gradient-57" x1="0.498" y1="-43.894" x2="0.498" y2="179.951" xlink:href="#linear-gradient-11"/>
    <linearGradient id="linear-gradient-58" x1="0.504" y1="-57.223" x2="0.504" y2="93.343" xlink:href="#linear-gradient-11"/>
    <linearGradient id="linear-gradient-59" x1="0.495" y1="-53.04" x2="0.495" y2="375.663" xlink:href="#linear-gradient-11"/>
    <linearGradient id="linear-gradient-60" x1="0.494" y1="-130.084" x2="0.494" y2="178.99" xlink:href="#linear-gradient-11"/>
    <linearGradient id="linear-gradient-61" x1="0.501" y1="-51.089" x2="0.501" y2="417.118" xlink:href="#linear-gradient-11"/>
    <linearGradient id="linear-gradient-62" x1="0.502" y1="-55.998" x2="0.502" y2="225.845" xlink:href="#linear-gradient-11"/>
    <linearGradient id="linear-gradient-63" x1="0.5" y1="-199.23" x2="0.5" y2="223.107" xlink:href="#linear-gradient-11"/>
    <linearGradient id="linear-gradient-64" x1="0.5" y1="-119.738" x2="0.5" y2="168.494" xlink:href="#linear-gradient-11"/>
    <linearGradient id="linear-gradient-65" x1="0.501" y1="-68.663" x2="0.501" y2="765.101" xlink:href="#linear-gradient-11"/>
    <linearGradient id="linear-gradient-66" x1="0.501" y1="-42.635" x2="0.501" y2="347.04" xlink:href="#linear-gradient-11"/>
    <linearGradient id="linear-gradient-67" x1="0.497" y1="-83.852" x2="0.497" y2="323.088" xlink:href="#linear-gradient-11"/>
    <linearGradient id="linear-gradient-68" x1="0.5" y1="-10.056" x2="0.5" y2="47.914" xlink:href="#linear-gradient-11"/>
    <linearGradient id="linear-gradient-69" x1="0.497" y1="-110.625" x2="0.497" y2="752.913" xlink:href="#linear-gradient-11"/>
    <linearGradient id="linear-gradient-70" x1="0.499" y1="-10.771" x2="0.499" y2="94.878" xlink:href="#linear-gradient-11"/>
    <linearGradient id="linear-gradient-71" x1="0.5" y1="-386.895" x2="0.5" y2="1953.286" xlink:href="#linear-gradient-11"/>
    <linearGradient id="linear-gradient-72" x1="0.513" y1="-127.952" x2="0.513" y2="717.188" xlink:href="#linear-gradient-11"/>
    <linearGradient id="linear-gradient-73" x1="0.491" y1="-196.771" x2="0.491" y2="452.529" xlink:href="#linear-gradient-11"/>
    <linearGradient id="linear-gradient-74" x1="0.427" y1="-433.395" x2="0.427" y2="1000.268" xlink:href="#linear-gradient-11"/>
    <linearGradient id="linear-gradient-75" x1="0.51" y1="-107.067" x2="0.51" y2="258.777" xlink:href="#linear-gradient-11"/>
    <linearGradient id="linear-gradient-76" x1="0.505" y1="-14.137" x2="0.505" y2="32.254" xlink:href="#linear-gradient-11"/>
    <linearGradient id="linear-gradient-77" x1="0.5" y1="-79.208" x2="0.5" y2="150.732" xlink:href="#linear-gradient-11"/>
    <linearGradient id="linear-gradient-78" x1="0.498" y1="-63.334" x2="0.498" y2="120.337" xlink:href="#linear-gradient-11"/>
    <linearGradient id="linear-gradient-79" x1="0.499" y1="-109.562" x2="0.499" y2="231.706" xlink:href="#linear-gradient-11"/>
    <linearGradient id="linear-gradient-80" x1="0.514" y1="-933.558" x2="0.514" y2="1775.302" xlink:href="#linear-gradient-11"/>
    <linearGradient id="linear-gradient-81" x1="0.508" y1="-239.092" x2="0.508" y2="525.921" xlink:href="#linear-gradient-11"/>
    <radialGradient id="radial-gradient" cx="0.5" cy="0.5" r="2.134" gradientTransform="translate(0.383 1.5) scale(0.234 0.234)" gradientUnits="objectBoundingBox">
      <stop offset="0" stop-color="#4f0d11"/>
      <stop offset="0.029" stop-color="#61262a"/>
      <stop offset="0.087" stop-color="#825356"/>
      <stop offset="0.151" stop-color="#a07c7e"/>
      <stop offset="0.219" stop-color="#baa0a1"/>
      <stop offset="0.293" stop-color="#cfbdbe"/>
      <stop offset="0.375" stop-color="#e1d6d6"/>
      <stop offset="0.466" stop-color="#eee8e9"/>
      <stop offset="0.574" stop-color="#f8f5f5"/>
      <stop offset="0.714" stop-color="#fdfdfd"/>
      <stop offset="1" stop-color="#fff"/>
    </radialGradient>
    <radialGradient id="radial-gradient-2" cx="0.5" cy="0.5" r="2.134" gradientTransform="translate(0.383 2.263) scale(0.234 0.234)" xlink:href="#radial-gradient"/>
  </defs>
  <g id="Location" transform="translate(-451.71 -177.759)">
    <g id="Ñëîé_1" transform="translate(461.791 177.759)">
      <g id="Group_2585" data-name="Group 2585" transform="translate(0 0)">
        <path id="Path_1365" data-name="Path 1365" d="M631.4,249.882a75.2,75.2,0,1,0-144.415,32.39c16.5,44.691,62.361,98.117,68.578,104.128a1.033,1.033,0,0,0,1.419.017c6.808-6.259,59.932-64.487,72.017-114.262.124-.474.234-.952.35-1.426s.23-.955.33-1.432a74.752,74.752,0,0,0,1.56-10.6c.01-.137.021-.278.031-.416.124-1.759.206-3.524.206-5.314C631.475,251.871,631.444,250.855,631.4,249.882Zm-75.133,42.094a39,39,0,1,1,39-39A39,39,0,0,1,556.267,291.976Z" transform="translate(-481.058 -177.759)" fill="url(#linear-gradient)"/>
        <path id="Path_1366" data-name="Path 1366" d="M516.124,271.187a61.589,61.589,0,0,1,3.882-24.533,62.729,62.729,0,0,1,13.472-21.219A63.644,63.644,0,0,1,554.34,211.1a63.672,63.672,0,0,1,49.781,0,63.645,63.645,0,0,1,20.861,14.338,62.678,62.678,0,0,1,13.472,21.219,61.589,61.589,0,0,1,3.882,24.533.6.6,0,0,1-.629.574.609.609,0,0,1-.574-.574,63.729,63.729,0,0,0-19.261-42.647,61.445,61.445,0,0,0-85.294,0,63.707,63.707,0,0,0-19.261,42.647.6.6,0,0,1-1.2,0Z" transform="translate(-504.025 -196.319)" opacity="0.3" fill="url(#linear-gradient-2)"/>
        <path id="Path_1367" data-name="Path 1367" d="M604,250.52a50.231,50.231,0,1,0,50.231,50.231A50.232,50.232,0,0,0,604,250.52Zm0,89.223a39,39,0,1,1,39-39A39,39,0,0,1,604,339.743Z" transform="translate(-528.793 -225.526)" fill="url(#linear-gradient-3)"/>
        <path id="Path_1368" data-name="Path 1368" d="M581.607,551.287A84.594,84.594,0,0,1,520.06,524.84c19.924,38.665,55.669,82.089,61.107,87.344a1.033,1.033,0,0,0,1.419.017C588.3,606.946,626.7,562.63,646,521.68A84.642,84.642,0,0,1,581.607,551.287Z" transform="translate(-506.663 -403.54)" opacity="0.2" fill="url(#linear-gradient-4)"/>
        <path id="Path_1369" data-name="Path 1369" d="M659.4,573.115a.6.6,0,0,0-.783.3l-.014.027a93.159,93.159,0,0,1-9.405,15.228q-5.307,7.27-11.037,14.238c-7.269,8.869-14.829,17.522-22.565,25.973-7.736-8.45-15.3-17.1-22.565-25.973q-5.709-6.977-11.037-14.238a93.014,93.014,0,0,1-9.405-15.228l-.014-.027a.6.6,0,0,0-1.1.491,94.011,94.011,0,0,0,9.168,15.709q5.168,7.456,10.748,14.592,11.119,14.268,23.056,27.855a1.28,1.28,0,0,0,.117.161,1.475,1.475,0,0,0,.409.247c.007,0,.014.01.021.014a1.415,1.415,0,0,0,.392.093.679.679,0,0,0,.405,0,1.547,1.547,0,0,0,.392-.093.148.148,0,0,1,.024-.014,1.476,1.476,0,0,0,.409-.247,1.756,1.756,0,0,0,.117-.161q11.928-13.624,23.056-27.855,5.565-7.147,10.748-14.592a94.148,94.148,0,0,0,9.168-15.709A.6.6,0,0,0,659.4,573.115Z" transform="translate(-540.384 -437.273)" opacity="0.3" fill="url(#linear-gradient-5)"/>
        <path id="Path_1370" data-name="Path 1370" d="M742.271,262.41a28.075,28.075,0,0,1,8.055,3.7c-4.091,5.149-5.874,7.461-5.874,7.461L740.32,271.7Z" transform="translate(-651.261 -233.331)" opacity="0.2" fill="url(#linear-gradient-6)"/>
        <path id="Path_1371" data-name="Path 1371" d="M580.471,297.712c3.566-6.073,8.186-13.2,14.129-15.712-2.508-4.754-4.62-8.45-4.62-8.45s-11.222,5.678-18.089,20.068C575.981,295.469,580.471,297.712,580.471,297.712Z" transform="translate(-540.688 -240.645)" opacity="0.2" fill="url(#linear-gradient-7)"/>
        <path id="Path_1372" data-name="Path 1372" d="M742.271,512.057a28.075,28.075,0,0,0,8.055-3.7c-4.091-5.149-5.874-7.461-5.874-7.461l-4.132,1.872Z" transform="translate(-651.261 -389.898)" opacity="0.3" fill="url(#linear-gradient-8)"/>
        <path id="Path_1373" data-name="Path 1373" d="M580.471,449.59c3.566,6.073,8.186,13.2,14.129,15.712-2.508,4.754-4.62,8.45-4.62,8.45s-11.222-5.678-18.089-20.068C575.981,451.837,580.471,449.59,580.471,449.59Z" transform="translate(-540.688 -356.213)" opacity="0.2" fill="url(#linear-gradient-9)"/>
        <path id="Path_1374" data-name="Path 1374" d="M600.4,182.15a90.408,90.408,0,0,1,52.086,16.581,75.186,75.186,0,0,0-104.2.014A90.423,90.423,0,0,1,600.4,182.15Z" transform="translate(-525.195 -177.76)" opacity="0.1" fill="url(#linear-gradient-10)"/>
        <path id="Path_1375" data-name="Path 1375" d="M655.639,422.55a49.371,49.371,0,0,1-5.63,16.286,50.819,50.819,0,0,1-10.934,13.417,49.885,49.885,0,0,1-14.874,8.935,50.558,50.558,0,0,1-34.227.639,49.894,49.894,0,0,1-15.2-8.368,50.806,50.806,0,0,1-11.432-12.995A49.168,49.168,0,0,1,557.1,424.4a50.658,50.658,0,0,0,33.228,36.361,50.485,50.485,0,0,0,33.468-.618,50.844,50.844,0,0,0,31.843-37.594Z" transform="translate(-530.979 -338.462)" fill="#fff" opacity="0.4"/>
        <path id="Path_1376" data-name="Path 1376" d="M554.23,295.226a49.28,49.28,0,0,1,4.562-18.158,50.273,50.273,0,0,1,27.038-25.348,50.325,50.325,0,0,1,53.107,10.292A50.077,50.077,0,0,1,649.928,277.3a49.276,49.276,0,0,1,4.466,18.182l-.289-2.326-.4-2.308c-.151-.766-.326-1.525-.488-2.288-.182-.756-.4-1.508-.594-2.26a49.888,49.888,0,0,0-3.4-8.667A50.451,50.451,0,0,0,622.468,253.2a50.192,50.192,0,0,0-36.1-.093,50.263,50.263,0,0,0-15.671,9.625A50.938,50.938,0,0,0,554.23,295.226Z" transform="translate(-529.095 -224.016)" fill="#fff" opacity="0.3"/>
      </g>
      <g id="Group_2587" data-name="Group 2587" transform="translate(38.728 37.552)">
        <g id="Group_2586" data-name="Group 2586">
          <path id="Path_1377" data-name="Path 1377" d="M748.789,337.36a1.457,1.457,0,0,1-.1-.285.811.811,0,0,0-.093-.354.467.467,0,0,1-.206.2c-.058,0-.072.041-.058.11a0,0,0,0,1,0,0,.142.142,0,0,0-.127.151.586.586,0,0,0-.048.034h0a2.521,2.521,0,0,1-1.123-.282c-.048-.611-.409-.4-.673-.756-.577-.776-.831-.821-.656-1.106a.555.555,0,0,1,.422-.264c-.007-.01-.017-.031-.017-.031s.01.017.017.031a.074.074,0,0,0,.021.014.044.044,0,0,1,.021,0c.017.031.031.062.048.093a.226.226,0,0,0,.137.189c.045.076.089.151.134.23a.174.174,0,0,0,.089.127c.014.034.031.072.045.107a.2.2,0,0,0,.11.2.143.143,0,0,0,.127.117.772.772,0,0,1,.333.155.135.135,0,0,0,.11.113.124.124,0,0,1,.034.024.288.288,0,0,0,.2.134.109.109,0,0,0,.062.062,1.655,1.655,0,0,1,.275.079c.55.313.608-.131.776-.1-1.206-5.781-3.016-11.274-6.585-16.073-.124-.089-.285-.2-.6-.4s-.378-.251-.357-.182c-.148-.079-.275-.127-.44-.227a.4.4,0,0,0-.172-.062,2.3,2.3,0,0,1-.378-.093c-.038-.017-.048,0-.041.031a1.2,1.2,0,0,0-.2-.093c.017.151-.137.082-.323-.017a4.048,4.048,0,0,1-.491-.392.435.435,0,0,1,.285.052c.065.027.045-.021-.038-.11a2.772,2.772,0,0,0-.938-.615c.2.185.278.309.282.409,0,.161.313.285.309.467,0,.079-.045.065-.2-.055s-.344-.264-.433-.251c-.141.024-.364-.065-.5-.017-.062.024-.062.034.062.192s.141.206.017.158a2.272,2.272,0,0,1-.714-.4c-.137-.113-.323-.189-.3-.093.014.058.072.1.117.144.155.151.3.12.371.289.058.127-.079.106-.2.027a3.989,3.989,0,0,1-.4-.289,1.015,1.015,0,0,0-.209-.158.372.372,0,0,1-.247-.216c-.048-.1-.161-.2-.2-.319a.482.482,0,0,0-.261-.337c-.113-.079-.23-.131-.261-.227-.045-.134.426.179.6.285a10.576,10.576,0,0,0,1.219.642c.285.12.79.182.24-.371a1.039,1.039,0,0,0-.182-.144,19.632,19.632,0,0,0-2.216-1.484c-.457-.192-.632-.57-.9-.584a1.163,1.163,0,0,1-.319-.12.4.4,0,0,1-.2-.172c.045,0,.093,0,.137.007-.01-.027-.024-.058-.034-.086-.371-.3-.656-.388-.91-.591-.141-.11-.306-.2-.357-.089-.017.038-.062.017-.124-.045a.137.137,0,0,0-.137-.055c-.375-.46-.594-.161-1.182-.46a.277.277,0,0,0-.082-.024c-.165-.038.089.206-.216.1-.244-.086-.488-.175-.735-.258-.065-.021-.151-.076-.182-.038-.089.113-.275.069-.4.134-.045.024-.124.007-.141.055-.038.1-.113.072-.234-.027a.225.225,0,0,0-.271-.048,1.241,1.241,0,0,0-.409.161c-.017.014-.055-.007-.082,0-.058,0-.175.007-.134.093.069.148.4-.01.515.234.045.1,0,.134-.048.141a1.94,1.94,0,0,0-.495.24.276.276,0,0,0-.2.35c.045.285-.275.11-.285.22-.021.175-.172.179-.24.289a.268.268,0,0,1-.344.089c-.443-.137-.258.21-.666.234-.271.017-.227.172-.477.165-.141,0-.247.234-.234.416a3.276,3.276,0,0,0,.251.773,1.365,1.365,0,0,0,.309.536c.014.131.079.192.175.2a.914.914,0,0,0,1.113.223.565.565,0,0,1,.581-.185c.185.058.213.065.306.3a1.857,1.857,0,0,0,.326.543c.124.141.223.309.354.447.1.1.093.206-.007.216a2.193,2.193,0,0,0-.227.072c-.072.014-.161-.027-.223.024s.045.2-.01.268a.619.619,0,0,1-.141-.484h0a.335.335,0,0,0-.141-.21c-.192-.179.048-.268-.141-.45-.089-.086-.168-.079-.216-.007-.072.113-.192.117-.323.113-.419-.007-.223.577-.127.718.168.24.1.474.182.714.038.107-.055.137-.134.127-.326-.038-.615.072-.945.048-.182-.014-.347.065-.33.361a.22.22,0,0,1-.062.179,1.514,1.514,0,0,1-.811.464c-.4.034-.048.488-.481.529-.467.045-.141.313-.55.216a.476.476,0,0,1-.261-.12c-.069-.069-.151-.137-.223-.072-.124.113.2.429-.082.467-.086.01-.182.065-.261,0-.244-.192-.457-.069-.687-.1-.079-.014-.182-.01-.168.127a.386.386,0,0,0,.168.313,1.427,1.427,0,0,1,1.007.666.454.454,0,0,0,.13.148,1.446,1.446,0,0,1,.313,1.285c-.058.323-.113.4-.374.385-.323-.01-.656-.22-.972-.1-.007,0-.017,0-.027-.007a4.826,4.826,0,0,0-1.079-.21,1.036,1.036,0,0,0-.78.148c-.12.062-.12.148-.058.3a2.26,2.26,0,0,1-.038,1.941c-.024.117-.021.261.079.319.378.213.113.745.323.814.165.055.337.168.491.031l.175-.034a.148.148,0,0,0,.021.007h.021c.381.172.3.443.495.581.017.1.034.192.048.292-.082.2-.151.989-.931,1.209a.23.23,0,0,0-.052.021c-.22.185-.471.337-.457.756-.385.419-.158.642-.106,1.1-.12.2-.206.457-.4.57a2.139,2.139,0,0,0-.5.453c-.23.055-.694.048-.811.718a.3.3,0,0,1-.2.234.685.685,0,0,0-.3.405c-.093.206-.062.453-.158.649-.065,0-.1.048-.107.127a.057.057,0,0,1-.034.034.094.094,0,0,0-.086.1c-.072.213-.247.117-.21.357a.036.036,0,0,1-.014.038.236.236,0,0,0-.1.251c-.014.041-.027.082-.038.124a.053.053,0,0,0-.027.065.387.387,0,0,1-.052.179.145.145,0,0,0-.113.137c-.021.024-.045.048-.065.072-.007,0-.01,0-.014.007,0,.021.01.017.01.017l-.007,0-.031.124c0,.014.007.038.007.038s0-.024-.007-.038c-.065.017-.072.062-.031.124q-.005.16-.01.319c-.045.014-.082.069-.052.1.289.33-.034.57.182.876a2.145,2.145,0,0,0,.271.392c.01.048.021.1.034.141-.1.46.065.673-.082.962,0,.031.01.072.01.072s-.007-.041-.01-.072c-.12.12-.12.357-.182.866h0a.154.154,0,0,0-.076.148.057.057,0,0,1-.017.041c-.261.172-.265.22-.062.464a.284.284,0,0,0,.052.038c.014.045.024.086.038.131a8.381,8.381,0,0,1-.034,1.175.309.309,0,0,0,.041.251c.158.175.234.488.5.477a.1.1,0,0,1,.079.045c.148.268.4.344.6.512a2.334,2.334,0,0,1,.508,1.017c.062.151-.189.275.065.378.11.045.206.148.316.192.642.254.866.773,1.828,1.511a.514.514,0,0,0,.611.017,2.275,2.275,0,0,1,2.147-.223.257.257,0,0,0,.278-.027c.313-.227.663-.206.807-.488.045-.01.086-.024.13-.034a.042.042,0,0,0,.065-.017.265.265,0,0,0,.137-.041,1.452,1.452,0,0,1,.89-.309.671.671,0,0,0,.368-.021c.56-.158.646.587.818.886.227.392.258.309.656.161.261.072.663-.278.876.137.106.206.258-.034.313.44a1.608,1.608,0,0,1-.082.855c-.227.508-.079.9-.285,1.2s-.192.289-.062.587a.66.66,0,0,0,.113.213.7.7,0,0,0,.244.46c.206.223.323.546.522.766a1.031,1.031,0,0,1,.24.615,9.823,9.823,0,0,0,.319,1.3c.13.488-.24.416-.12.735.069.182.076.4.151.581a.9.9,0,0,1-.007.57,4.494,4.494,0,0,1-.2.477c-.422.237-.57,1.068-.711,1.4-.062.048-.065.137-.082.227-.021.034-.041.069-.062.1-.062.048-.021.062-.179.941a.533.533,0,0,0,.052.4,2.739,2.739,0,0,1,.289.745c.038.172.076.34.11.512.021.1.048.192.137.216a.393.393,0,0,0,.038.182.669.669,0,0,1,.034.55,1.417,1.417,0,0,0-.052.766.483.483,0,0,1,0,.2,2.879,2.879,0,0,0,.01,1.061.376.376,0,0,0,.113.326,1.258,1.258,0,0,1,.247.429c-.014.055-.007.089.034.089a.979.979,0,0,0,.007.3,1.246,1.246,0,0,0,.141.55.478.478,0,0,1,.031.258,1.939,1.939,0,0,0-.175.783c0,.017,0,.038,0,.055,0,.034.014.058.045.062a.685.685,0,0,1,.3.148.145.145,0,0,0,.189-.031,1.133,1.133,0,0,1,.543-.292.357.357,0,0,0,.165-.089,1.351,1.351,0,0,1,.759-.347,1.209,1.209,0,0,0,.443-.144c.22-.144.44-.247.66-.378a1.82,1.82,0,0,0,.216-.172c.34-.282.649-.635.972-.962.67-.677.831-1.127,1.2-1.436a3.312,3.312,0,0,0,.708-1.127.6.6,0,0,0,.089-.326c-.021-.086.055-.182.141-.258.158-.134.361-.23.756-.522a.9.9,0,0,0,.313-.405,5.633,5.633,0,0,0,.265-.876c.014-.079.017-.144-.041-.158a.325.325,0,0,0,.017-.21c.048-.151-.048-.223.007-.381a3.589,3.589,0,0,1,.663-.684.807.807,0,0,0,.151-.168,2.469,2.469,0,0,1,.91-.807.525.525,0,0,0,.227-.2.211.211,0,0,0,.041-.017.623.623,0,0,0,.23-.216.594.594,0,0,0,.144-.2,1.226,1.226,0,0,0,.385-.526c.007-.021.017-.041.024-.062a.163.163,0,0,1,.021-.052c.01-.041.021-.082.031-.127.014-.017.017-.034.007-.045a2.117,2.117,0,0,1,.082-.618h0c.014-.058.028-.12.045-.179h0c.021-.093.041-.185.058-.278a.8.8,0,0,1-.206.038,1.006,1.006,0,0,0,.206-.038c.038-.144.079-.292.11-.436.11-.508-.22-.22-.189-.567.021-.254-.093-.481.12-.783-.038-.213.069-.5-.082-.656-.2-.206.23-.7.508-1.456a.255.255,0,0,0,.113-.144,1.608,1.608,0,0,0,.076-.185c.594-.388.5-.684,1.738-2.01a2.79,2.79,0,0,0,.388-.392,1.551,1.551,0,0,0,.635-.557h0a9.331,9.331,0,0,0,1.477-2.473,4.989,4.989,0,0,0,.278-.539c.062-.141.028-.333.117-.447.137-.179-.01-.309.062-.56.017-.062.027-.12-.027-.151s-.127-.062-.175.017c-.093.161-.234.155-.357.21-.161.076-.34.014-.491.106-.124.079-.237.014-.347.048s-.21.151-.333.179-.158-.127-.512.1c-.306.2-.4.041-.649-.285,0-.144-.11-.179-.186-.247.206-.2.22-.313.069-.522-.007-.007-.01-.017-.017-.021a8.848,8.848,0,0,1-.7-.831.478.478,0,0,1-.1-.089c-.1-.151-.3-.117-.378-.319.031-.093.148-.041.165-.172-.021-.034-.048-.076-.076-.113s-.045-.127-.106-.11-.065.082-.065.148c0,.113-.038.175-.127.179-.058-.155-.045-.117-.079-.22-.089-.2-.079-.879-.409-1.13a1.253,1.253,0,0,1-.488-1.161c.021-.285-.172-.508-.206-.78-.007-.045-.072-.127-.141-.106-.076-.082-.124-.192-.23-.251a.46.46,0,0,1-.22-.4c-.014-.107.076-.21-.021-.319a5.2,5.2,0,0,1-.5-.914.146.146,0,0,0-.089-.141.3.3,0,0,1-.027-.058.245.245,0,0,0-.082-.206c-.014-.045-.024-.089-.038-.131h0c.055-.1-.082-.3.065-.357,0-.01,0-.017-.007-.027-.038-.017-.11-.062-.11-.062s.069.041.11.062c0,.01,0,.017.007.027a.476.476,0,0,1,.357-.062.9.9,0,0,1,.179.213.394.394,0,0,0,.165.271c.014.021.027.045.041.065a.032.032,0,0,0,.024.038.053.053,0,0,0,.021.027c.007.024.017.034.034.031l.024.034a.166.166,0,0,0,.076.151.241.241,0,0,0-.007-.045.311.311,0,0,1,.007.045l.072.124c.038.134.034.3.185.357.007.007.014.01.021.017.082.117.031.3.165.392.052.168.179.2.282.278a1.557,1.557,0,0,1,.471.838c-.065.2.041.381.082.567.048.206.151.436.306.495.515.2.46.921.955,1.381.007.261-.261.113-.251.337,0,.086.069.106.117.144.161.124.344.227.289.532-.007.038.028.069.062.086.082.268.052.423.161.56.137.23-.007.436.148.6,0,.038.01.058.041.058l.093.031a.146.146,0,0,0,.192.01c.158-.065.333-.082.45-.268a.655.655,0,0,1,.35-.1c.278.017.543-.323.859-.333.038,0,.072-.072.107-.113.185-.223-.117.027,1.044-.464.3-.127.052-.385.347-.508a1.515,1.515,0,0,1,.687-.179c.158.014.2-.034.206-.254.017-.048.024-.1.065-.131.23-.017.361,0,.392-.113A24.677,24.677,0,0,0,748.789,337.36ZM736.563,319.2c-.021-.113.106-.024.148.069.014.034.017.069.034.1.041.093.079.117.12.089.151-.1.079.027.426.405.24.261.007.271-.144.113a1.55,1.55,0,0,0-.33-.271A.691.691,0,0,1,736.563,319.2Zm-1.02.007a4.868,4.868,0,0,1,.622.481.272.272,0,0,1,.1.206c-.007.271-.227-.069-.371.038-.034.024-.1-.024-.151-.086-.127-.137-.254-.275-.374-.419C735.134,319.154,735.347,319.137,735.543,319.209Zm-6.066,1.1c0-.089.024-.137.124-.062a.669.669,0,0,0,.323.1c.4.1.027-.371.556-.206.179.055.289-.031.433-.038.107,0,.093-.155-.017-.3-.175-.22.034-.134-.058-.532-.038-.161.021-.216.134-.2a.736.736,0,0,0,.374-.086.257.257,0,0,0,.13-.144.134.134,0,0,0-.021-.155c-.117-.137-.213-.326-.378-.368-.519-.131-.838-1.164.278-1.233.131-.007.271,0,.33-.124a.187.187,0,0,0,.01-.216c-.058-.12-.024-.175.024-.2a.415.415,0,0,1,.419-.069,2.309,2.309,0,0,1,.725.326c.093.076.124.161.065.192a1.6,1.6,0,0,1-.625.313c-.13.017-.216.12-.333.175s-.093.141.021.33c.4.69,0,.594.326.859.711.587,1.134.467,2.116.625.354.058.635.371.478.4a1.179,1.179,0,0,1-.622-.079c-.2-.076-.381-.117-.574-.179a.681.681,0,0,0-.532-.007c-.031.017-.072.045-.11.024-.216-.11-.237.106-.368.144-.065.017.017.165.1.2.405.148.306-.172.649.131.3.261.254.718-.086.412a1.384,1.384,0,0,0-.529-.344c-.247-.065-.265.117-.268.333.076.031.107-.069.107-.069s-.028.1-.107.069a.244.244,0,0,0,0,.052v0c-.076.058-.048.137.062.237.021.079.041.158.062.24a.828.828,0,0,1,.069.131.828.828,0,0,0-.069-.131.231.231,0,0,1-.161.137c-.117.017-.151.189-.151.189s.007-.031.01-.052c-.069-.021-.1.017-.144.055-.22.206-.278-.186-.591-.216.065.076.076.089,0,0-.045-.007-.089-.017-.134-.024-.038.079-.185.093-.185.093s.148-.01.185-.093c-.134-.027-.316-.161-.33.076-.045,0-.086-.01-.131-.014a.4.4,0,0,1-.027.062.4.4,0,0,0,.027-.062c-.024-.017-.058-.052-.072-.045-.179.089-.419.024-.608.1-.1.038-.175.007-.275-.117a.988.988,0,0,1-.155-.216c-.045-.11-.107-.131-.172-.106s-.124.045-.151.117a.922.922,0,0,0-.1-.014c-.021.093-.155.12-.155.12s.131-.024.155-.12c-.107-.017-.2-.007-.234.106h-.089c-.041-.065-.124-.072-.144-.168C729.123,320.528,729.494,320.666,729.477,320.308Zm7.155,8.086a.329.329,0,0,1-.041.007.329.329,0,0,0,.041-.007C736.694,328.343,736.69,328.343,736.632,328.395Zm-.055.01h0Zm-.079,0-.124-.01Zm-4.112-7.183c-.021.062-.148.131-.148.131A.365.365,0,0,0,732.386,321.222Zm8.055,10.772c-.12.069-.12.23-.127.388a3.8,3.8,0,0,0-.168.952.055.055,0,0,0-.031-.01h0c-.034-.021-.048-.01-.048.031-.021.01-.041.024-.058.034a2.036,2.036,0,0,1-.9-.189.677.677,0,0,0-.9.161.231.231,0,0,1-.216.021c-.237-.124-.481-.155-.721-.278a1.1,1.1,0,0,0-.742-.179c-.2.052-.12-.3-.4-.278-.158.014-.313-.124-.471-.137-.045,0-.083-.052-.11-.1-.22-.409-.879-.309-1.164-.113-.436.3.161.519-.144.876-.144.168-.292.22-.522.014-.663-.6-1.274-.258-1.426-.917-.017-.076-.034-.168-.117-.182-.209-.041-.69-.378-.852-.319-.278.1-.526-.155-.787-.268-.124-.052-.076-.344-.385-.3-.12.017-.2-.12-.2-.285a.611.611,0,0,0,.344-.337c.117-.254-.031-.361-.151-.477h0a.1.1,0,0,0-.062-.072c-.014-.021-.024-.041-.038-.062.007-.131.1-.186.148-.271.028-.048.072-.093.034-.172s-.1-.058-.137-.027c-.082.062-.141.021-.209-.082-.134-.2-.292-.206-.419-.106-.357.285-1-.141-1.511.106a.248.248,0,0,1-.261-.014c-.536-.326-1.01.024-1.395-.017a.93.93,0,0,0-.735.23c-.113.1-.46.076-.629.316-.189.275-.44-.055-1.422.034-.055-.055-.11-.107-.161-.161-.508-.574.385-.766.8-.629a.46.46,0,0,0,.319-.021h0c.089.021.148-.017.172-.12h0a.6.6,0,0,1,.144-.21h0a.123.123,0,0,0,.12-.069.342.342,0,0,0-.058-.01.166.166,0,0,1,.058.01l.161-.038h0c.052-.014.1-.031.058-.124a.918.918,0,0,1,.316-.423c.021-.1-.055-.131-.089-.182a.327.327,0,0,1-.041-.374c.206-.319.347-.725.745-.756a.216.216,0,0,0,.2-.161.416.416,0,0,0,.234-.034c.141-.072.168-.148.127-.354-.082-.4.065-.591.4-.5a3.066,3.066,0,0,1,.594.192c.4.2.4-.179.78-.213.271-.024.258-.443.677-.2.062.034.12.082.182.113a.477.477,0,0,1,.261.313c.151.467.4.526.924,1.058a.907.907,0,0,0,.374.268,2.067,2.067,0,0,1,.814.584c.062.058.12.137.192.161.306.11.567.828.158.921a4.972,4.972,0,0,0-.6.089l-.1-.021a.5.5,0,0,0-.426-.072c-.076.017-.079.134-.01.2a1.374,1.374,0,0,0,.151.093,7.03,7.03,0,0,1,.663.409c.2.179.234.168.33-.034.052-.069,0-.161-.01-.247-.024-.192.017-.258.168-.223.3.065.3-.319.484-.419.086-.048.062-.186-.048-.3a.767.767,0,0,1-.21-.337h0c.055-.155.137-.2.306-.076a1.13,1.13,0,0,1,.289.22c.089.117.223.007.11-.165a.776.776,0,0,0-.254-.244,5.8,5.8,0,0,0-.615-.378c-.268-.1-.079-.3-.388-.354-.086-.014-.175-.052-.265-.076-.034-.086-.1-.106-.155-.155a.991.991,0,0,1-.337-.447c-.086-.264-.209-.306-.526-.546a.74.74,0,0,1-.227-.687c.045-.1.141-.079.289-.1h0l.048.041c.11.093.1.289.227.357s.182-.079.3-.031a2.115,2.115,0,0,0,1.1,1.113,4.407,4.407,0,0,1,.5.333.991.991,0,0,1,.639,1.02.314.314,0,0,0,.079.216c.151.168.261.378.423.546a1.244,1.244,0,0,1,.443.745.216.216,0,0,0,.079.141.488.488,0,0,1,.161.319c.01.065.045.155.1.144.168-.027.337.185.515.144-.014-.137-.069-.309.076-.364.048-.017-.038-.113-.041-.2.185.082.34.072.429-.1-.079-.168-.175-.326-.35-.368-.106-.027-.141-.124-.422-.581-.038-.058-.079-.124-.058-.179.034-.086.12.017.21.058.11.048.185.024.2-.1.01-.079.017-.2.089-.158.216.11.374-.031.577.062l.23.107h0a.862.862,0,0,1,.024.6c-.024.141.024.165.1.21.1.062.151.034.124-.1-.007-.038-.024-.086.027-.076.161.388.158.4-.13.388-.052,0-.086-.021-.089.055a.144.144,0,0,0,.048.113.306.306,0,0,0,.151.052c.175.048.141.079.285.278a.571.571,0,0,1,.124.436,1.114,1.114,0,0,1,.862.347.321.321,0,0,0,.508-.007c.038-.062.069-.11.141-.1a.885.885,0,0,1,.474.216c.3.264.642.319.838.12.148-.148.234-.052.453.007.175.048.24.12.22.309a.934.934,0,0,0,.1.491A.389.389,0,0,1,740.442,331.995Zm1.408-2.782c-.028,0-.052,0-.079.007-.206.065-.467-.058-.7-.076a1.364,1.364,0,0,1-.694-.247.536.536,0,0,0-.289-.086,1.714,1.714,0,0,0-.529-.316c-.014,0-.031-.024-.048-.038-.038-.082-.093-.131-.151-.12-.247.038-.807-.216-1.113.055-.155.137-.374.086-1.233-.165a1.236,1.236,0,0,1-.374-.831h0a.926.926,0,0,0-.014-.168h0c.161-.007.244.024.192-.089a.9.9,0,0,1,.031-.512c.151.041.244-.01.254-.175.017-.251.141-.168.282-.419.062-.106.21-.117.33.014.289.309.5.258.69.357,0,.148-.172.072-.192.189.107.179.34.144.4.433a.163.163,0,0,0,.22.137,1.1,1.1,0,0,1,.7-.086.089.089,0,0,0,.079-.014c.041-.024,0-.11-.038-.131-.158-.076-.478-.055-.584-.371-.052-.151.045-.165.721-.23.076-.007.137.045.216.158.258.378.258.484-.041.515-.027,0-.058,0-.065.034-.007.052.034.089.072.131a.568.568,0,0,0,.481.23s-.083,0-.124,0c.144.168.488.344.57.44a2.91,2.91,0,0,0,.649.539c.368.237.515.543.378.831a.84.84,0,0,0,.1.1A.84.84,0,0,1,741.85,329.212Zm.134.319a.2.2,0,0,0,.1-.134l.041.007-.041-.007A.2.2,0,0,1,741.984,329.532Zm2.02-.481-.082-.021c.072.278-.017-.055-.089-.333h0c.113-.055.01-.213-.048-.34-.175-.388-.165-.378.227-.457a.1.1,0,0,1,.106.055c.12.186.319.285.416.495.01.024.058.048.089.072.031.079.062.158.151.185.052.027.1.089.151.089.206.237.282.484.677.684.165.086.168.093.151.265h0c-.027,0-.034.014,0,.052,0,0,.062.151.065.155a.235.235,0,0,0,.062.124.507.507,0,0,1,.161.337c.021.082.031.127.055.21h0c.027.113.179.206.168.33a.5.5,0,0,0,.155.357.7.7,0,0,1,.12.264c.144.412.137.4-.168.457a.912.912,0,0,1-.711-.316,1.149,1.149,0,0,0-.385-.254.3.3,0,0,1-.192-.155c-.316-.6.148-.337-.113-.855.014-.072.027-.161.017-.089.069.007.141.014.21.017.089.007.038-.127-.034-.158s-.165-.062-.247-.093l-.086-.072a.566.566,0,0,1-.106-.165l-.082-.113a.187.187,0,0,0-.031-.024c-.048-.113-.144-.168-.216-.251A3.016,3.016,0,0,1,744,329.051Z" transform="translate(-675.277 -304.753)" fill="url(#linear-gradient-11)"/>
          <path id="Path_1378" data-name="Path 1378" d="M772.82,355.15s.055.052.082.079h0C772.875,355.2,772.82,355.15,772.82,355.15Z" transform="translate(-711.325 -331.766)" fill="url(#linear-gradient-12)"/>
          <path id="Path_1379" data-name="Path 1379" d="M657.88,293.3a.658.658,0,0,1,.048-.234c.041-.182.082-.21.227-.161.292.1.182.357.67.409.182.017.282-.007.526.01.065.041.079-.017.069-.065-.058-.275-.1-.567-.4-.646a.472.472,0,0,0,.124-.635c.148-.038.268-.127.409-.072s.22.007.254-.141c.086-.357.392-.007.663-.4.107-.158.172-.072.33-.048.062.01.082-.093.021-.141a.6.6,0,0,0-.5-.127c-.055.01-.069.062-.041.134.017.052.1.069.058.161a.634.634,0,0,1-.275-.017.109.109,0,0,1-.093-.093c-.007-.045.027-.058.048-.082.11-.117.11-.12,0-.285-.027-.021-.055-.038-.082-.058h0c.028.021.055.038.082.058a.474.474,0,0,0-.185-.313c-.082-.048-.038-.179.021-.151.1.048.192-.045.292.041a.3.3,0,0,0,.278.292c-.223-.271.11-.285,0-.56v-.017c-.021,0-.216-.038-.24-.041.017-.567.2-.491.419-.673a.11.11,0,0,0-.062-.172c-.144-.041-.161.089-.247.168s-.227.027-.189-.172c.014-.069.014-.151.107-.117.258.1.251-.313.464-.271.031-.007.062-.017.1-.024.2.048.086-.186.385-.141.216.034.388-.093.594-.1.017,0,.031-.027.048-.041.264-.034.33.024.436-.072a1.162,1.162,0,0,0-.618-.2.44.44,0,0,0-.24-.106c-.271-.041-.958-.172-1.079-.01a.033.033,0,0,0-.034.01c-.124-.007-.244.1-.378-.076-.017-.024-.079-.024-.107-.007-.1.062-.22.014-.323.058-.069.031-.131-.007-.175-.093.041-.069.137.021.175-.062-.155-.124-.23-.158-.316-.151-.131.007.041.155-.038.186,0,0-.007.007-.192.117-.062-.048-.11-.072-.107.052-.021.01-.041.024-.062.034-.021-.007-.045-.01-.065-.017a.1.1,0,0,0-.041-.089.317.317,0,0,0-.021-.23l-.048-.045c.024-.141.137-.11.21-.158.031-.021.072-.052,0-.086-.962-.275-1.216-.076-1.422-.33-.131-.034-.251-.155-.392-.113a.609.609,0,0,1-.234-.031.863.863,0,0,0-.68-.014c-.182-.014-.361-.034-.543-.034a17.537,17.537,0,0,0-3.377.313,2.539,2.539,0,0,1-.436.093,6.7,6.7,0,0,0-1.865.337c-.082,0-.155.014-.155.165l-.117.034c-.11-.144-.22-.182-.316-.058s-.21.148-.313.23c-.076.007-.155.017-.23.027.014-.045.034-.1,0-.1s-.065.062-.072.117c-.086.021-.172.045-.258.069-.038-.079-.113.113-.01.082.01,0,.014.01.014.024-.028.086-.086.11-.137.144h-.144c-.014-.034-.045-.038-.079-.021a.026.026,0,0,1-.014,0c-.1.062-.357-.1-.629.151-.007.007-.024,0-.034-.007-.117-.186-.443.052-1.518.385-.1-.007-.117.031-.319.134h0c-.357.1-.4.144-.416.062.058-.041.058-.086.034-.1-.12-.082-.553.216-.742.065-.014-.01-.052,0-.076.01-.357.082-.728.23-1.079.316a20.577,20.577,0,0,0-4.655,2.109c-.422.508-.769.275-1.367.859a.742.742,0,0,1-.22.158,4.661,4.661,0,0,0-.8.488c-.086.052-.185.127-.278.2a2.576,2.576,0,0,0-.292.216c.045.021.107-.017.192-.089.23-.2.11.065.192.024.124-.062.182-.017.316-.1-.027.127-.062.165-.22.264.062-.131,0-.1-.082-.045q-.036-.005-.113.072a.663.663,0,0,1-.34.089c-.079-.027-.223.055-.35.107-.192.079-.495.392-.7.519l-.021.021c-.179.206-.347.337-.57.57.175-.1.234-.052.3-.017h0c.155-.086.268-.113.333-.058.155.127.979-.385,1.116-.457a2.222,2.222,0,0,0,.666-.45c-.028.182-.028.182-.2.3a.25.25,0,0,0-.082.079c-.069.12.093,0,.014.134-.093.106-.155.072-.254.2a.123.123,0,0,0,.034.007h0a.122.122,0,0,0-.034-.007,3.566,3.566,0,0,1-.546.326c-.069.021-.175.161-.254.189-.385.137-.567.354-.708.333-.048-.007-.107,0-.22.1a.276.276,0,0,0-.134.052c0-.007-.014,0-.031.014a2.071,2.071,0,0,0-.646.4c.017.072.151-.021.192.01,0,.027.017.021.058-.021.014,0,.027-.01.045-.014-.014.079.151-.027.052.155a3.079,3.079,0,0,1-.344.21c-.038-.034-.124.021-.23.107-.038.031-.1.113-.082.106.106-.052,0,.134.079.11.058-.017.1-.014.113.027s.1-.01.185-.141a1.283,1.283,0,0,0,.3-.134c.024.01.076-.024.124-.055a.448.448,0,0,0,.182-.179c.11-.21-.01-.2-.124-.113,0-.01,0-.021-.007-.034h0a.467.467,0,0,1,.223-.271.762.762,0,0,1,.309-.151.119.119,0,0,0,.062.007c.082-.021.082.017-.045.161-.041.045-.079.1-.069.12.034.045.017.151.131.106a3.256,3.256,0,0,0,.842-.422c.041-.031.1-.079.117-.055.058.082.223-.031.793-.306.22-.106.429-.179.656-.3.082-.045.2-.148.258-.151a2.523,2.523,0,0,0,.742-.265.456.456,0,0,0,.309-.254c.024-.045.065-.069.082-.062.065.017.089-.065.124-.127.041-.079.01-.082-.028-.079a1.877,1.877,0,0,0-1.068.344,5.278,5.278,0,0,0-.862.457c-.3.161-.532.206-.811.344a.051.051,0,0,1-.031,0c0-.01-.01-.017-.031.021a.419.419,0,0,0-.1.1c-.014.007-.028.01-.041.017.007-.055.017-.11-.041-.093h0l-.041-.021c.447-.471.477-.3.68-.436.433-.292.687-.2,1.055-.522a.441.441,0,0,1,.141-.069c.2-.1.371-.131.584-.254.137-.079.323-.21.33-.024l.12-.069c.124-.024.285-.165.412-.189-.028.086-.127.124-.137.2.124-.069.124-.069.168-.213.014-.048.065-.082.1-.127.113-.069.2-.038.337-.175.034-.038.076-.058.089-.113.031-.141-.213.034-.3.072.01-.131.106-.158.175-.216a.385.385,0,0,0,.21-.151c.179-.289.275-.182.5-.333a.524.524,0,0,0,.268-.117,3.465,3.465,0,0,1,.594-.488.788.788,0,0,1,0-.124.228.228,0,0,1,.134-.2c.189-.065.405-.244.594-.3.333-.093.361-.155.752-.515l.1-.045c.014.017.034.007.062-.034a2.156,2.156,0,0,1,.285-.21c.405-.2.821-.484,1.223-.646.106,0,.2-.082.278-.24.034-.021.069-.038.1-.058a.219.219,0,0,0,.158-.069l.151-.062c.127.007.282-.148.416-.182.052-.052.113-.1.113-.034,0,.038-.055.065-.089.086-.007.017-.021.041-.024.055-.031.412-.024.134-.735.426-.275.113-.56.35-.831.467a.693.693,0,0,0-.323.192c-.031.034-.082.055-.082.11,0,.137.172.031.629-.1.065-.021.165-.086.172.01.007.124-.127.127-.168.22a11.068,11.068,0,0,0-1.36.577.491.491,0,0,1-.151.079,9.083,9.083,0,0,0-.876.467.3.3,0,0,0-.144.148c-.034.089.034.065.072.062s.072.027.127-.01c.062-.017.124-.038.186-.055.055.069.189-.017.264.024a.556.556,0,0,0-.251.278c-.014.027.01.031.038.007.5.134.546.185.677.124a1.585,1.585,0,0,0,.855-.251c.038-.024.082-.055.107-.038.12.1.3-.045.46-.127.045-.024.089-.058.127-.041.175.093.24-.192.447-.161a5.817,5.817,0,0,1,.776-.058c.182.11.467.024.6.247.01.017.038.01.058.017a.6.6,0,0,1,.474.385,1.477,1.477,0,0,1,.271.8c0,.086-.031.189.069.182a.6.6,0,0,0,.646-.131c.237-.213.144.309.4.134a.186.186,0,0,1,.148-.086.2.2,0,0,0-.148.086.379.379,0,0,1,.089.052c.086.076.045.137-.058.192-.3-.034-.2-.069-.457,0-.093.024-.254-.062-.251.227,0,.041-.052.048-.082.062-.113.041-.12.148-.137.251s.034.134.1.165a.986.986,0,0,0,.773-.076.3.3,0,0,0,.161-.106c.062-.089-.01-.12-.01-.179,0-.014.038-.041.062-.062l.227-.031a.891.891,0,0,0,.028.254.354.354,0,0,1-.261.426c-.24.048-.484-.034-.721.392-.3.543-.089.529-.12.684-.134.622.464.467.44.872-.014.271.234.333.237.6,0,.014.024.017.038.024a1.183,1.183,0,0,1,.371.357c.01.127.089.117.172.1.1.453.361.433.532.646s.24-.014.962.1c.076.01.151.014.2.093.155.254.412.22.653.223a.272.272,0,0,0,.261-.151c.045-.082.017-.165.024-.251a.04.04,0,0,0,.034-.027c.034.014.079.017.093-.027.148-.45.371-.5.337-.842s.333-.3.5-.632a.126.126,0,0,0,.1-.052c.058-.007.13-.058.117-.107-.048-.206.179-.326.134-.526-.01-.052.052-.082.089-.106.33-.213.5-.4.938-.381.364.017.776-.271,1.134-.364a.6.6,0,0,0,.419-.323.045.045,0,0,0,.034-.031c.027.01.045.007.052-.034.058-.031.124-.048.158-.127.069-.052.107-.158.185-.2a1.335,1.335,0,0,0,.333-.155.23.23,0,0,1,.21-.065,7.674,7.674,0,0,0,1.656-.22,2.066,2.066,0,0,0,.852-.223,4.663,4.663,0,0,1,1.092-.429C658.656,293.46,658.271,293.3,657.88,293.3Zm1.931-4.036a.585.585,0,0,0,0-.12.572.572,0,0,1,0,.12.721.721,0,0,1-.069.079A.721.721,0,0,0,659.81,289.259Zm.086.522Zm-.134,1.288c.021-.007.045,0,.048.041,0,.007-.021.024-.034.024s-.027-.017-.038-.027C659.745,291.094,659.752,291.073,659.762,291.07Zm-.258-1.69-.206.23Zm-.22,1.975h0a.355.355,0,0,0-.024-.082A.237.237,0,0,1,659.285,291.355Zm-.3-.931a.118.118,0,0,1,.01.021.04.04,0,0,0-.01-.021Zm-.079-.107.076.1Zm-.371,1.161a.132.132,0,0,1-.021.017h0A.25.25,0,0,1,658.539,291.478Zm-.148.179.01.01-.01-.01ZM634.95,294.7Zm.515-.182-.117.069a1.267,1.267,0,0,0,.117-.069c.01-.017.031-.058.031-.058A.334.334,0,0,1,635.466,294.515Zm.086-.216h0a.559.559,0,0,0,.1-.034A.559.559,0,0,1,635.552,294.3Zm-1.274,1.436h0a.614.614,0,0,1,.041-.062S634.287,295.717,634.277,295.734Zm2.034-1.219s.151-.1.227-.161h0C636.462,294.412,636.311,294.515,636.311,294.515Zm.354-.405-.137.041c-.024-.048.017-.106.089-.141s.127-.021.216-.082a1.086,1.086,0,0,1,.069-.12s-.048.079-.069.12a.506.506,0,0,1,.027.045h0c-.007.041-.014.079-.021.12C636.74,294.172,636.757,294.048,636.665,294.11Zm.357-.848a1.208,1.208,0,0,1,.144-.055c-.01.027-.024.079-.024.079s.017-.052.024-.079A1.208,1.208,0,0,0,637.022,293.261Zm-.014-.069c-.041.052-.052.082-.038.1-.076.12-.175.186-.182.155-.024-.11-.185.021-.282.048a.81.81,0,0,0-.089.041.582.582,0,0,1,.089-.041c.024-.041.048-.086.031-.1.058-.076.11-.089.168-.151h0l.062-.052a.191.191,0,0,1,.24,0Zm.234.752a.016.016,0,0,1-.014,0,.017.017,0,0,0,.014,0C637.29,293.91,637.3,293.907,637.242,293.945Zm.6-.845c.055-.069.172-.2.172-.2s-.117.127-.172.2C637.719,293.165,637.709,293.168,637.843,293.1Zm-.354.481h0a.353.353,0,0,0,.093-.031A.562.562,0,0,1,637.489,293.581Zm.21-.271a.47.47,0,0,1-.079.134.663.663,0,0,0,.079-.134.232.232,0,0,1,.086-.038A.232.232,0,0,0,637.7,293.309Zm.206-.192a.1.1,0,0,1-.048,0,.1.1,0,0,0,.048,0c.01.014.045.01.045.01S637.915,293.131,637.9,293.117Zm-.093.412Zm1.539-1.752a1.1,1.1,0,0,0-.131.065,1.1,1.1,0,0,1,.131-.065,1.8,1.8,0,0,1,.337-.24A1.923,1.923,0,0,0,639.351,291.777Zm2.154.587.893-.313Zm1.518-.715a.323.323,0,0,1,.034-.014Zm3.318.78a.647.647,0,0,0-.052-.168.7.7,0,0,1,.052.168Zm.24.316Zm.155.1Zm.728-4.012c-.045.024-.089.048-.131.072a.28.28,0,0,0-.024-.045.185.185,0,0,0,.041-.113c.1-.065.137-.041.113.086Zm-.289,5.235c.055,0,.137-.062.11.076C647.238,294.141,647.193,294.13,647.176,294.072Zm1.323-5.606.1-.017Zm-1.23,7.3Zm.773-1.147Zm.192.948Zm-.082-1.092Zm.048-.306Zm-.021.12c.021.007.058.024.058.024a.269.269,0,0,0-.058-.024Zm-.22,1.986.227.244Zm2.556,2.319c-.01-.048-.024-.134-.024-.134s.014.086.024.134Zm6.049-6.06s.041-.021.038-.058h0C656.609,292.509,656.564,292.53,656.564,292.53Zm.316.264a.367.367,0,0,0-.1-.062.367.367,0,0,1,.1.062Zm1.192-.471h0C657.735,292.578,657.715,292.595,658.072,292.323Zm-.9-.591a.131.131,0,0,0,.027.024s-.017-.014-.027-.024a.383.383,0,0,0-.028-.055A.383.383,0,0,1,657.169,291.733Zm-.038,1.34a.265.265,0,0,0,.1-.1h0A.265.265,0,0,1,657.131,293.072Zm-.093-.271h0c.076-.01.151-.024.227-.034h0c.1.017.3.048.3.048A1.511,1.511,0,0,0,657.038,292.8Zm.6-.611.076-.045h0Zm-.45-4.112a2.523,2.523,0,0,0,.436-.082.36.36,0,0,1,.072-.007.342.342,0,0,0-.072.007A2.523,2.523,0,0,1,657.193,288.078Zm.862,4.61a.283.283,0,0,1,.175-.127.3.3,0,0,0-.175.127c-.086.079-.247-.01-.247-.01S657.969,292.767,658.055,292.688Z" transform="translate(-619.496 -287.077)" fill="url(#linear-gradient-13)"/>
          <path id="Path_1380" data-name="Path 1380" d="M628.01,350.583c-.165-.694-.488-.258-.814-.491-.79-.56-.354-.457-1.343-1.171a.42.42,0,0,0-.344-.089,2.352,2.352,0,0,1-.622.01.694.694,0,0,0-.364-.093.349.349,0,0,0-.34-.179.18.18,0,0,0-.058-.014c-.625,0-.361-.522-.732-.615a1.381,1.381,0,0,1-.3-.151c-.694-.385-.938-.251-1.237-.56-.1-.309-.251-.591-.381-.883a.731.731,0,0,0-.5-.481.172.172,0,0,0-.089-.1c-.11-.024-.141-.155-.21-.237a.766.766,0,0,1-.12-.371.824.824,0,0,0-.392-.759c-.993-.824-1.36-1.027-1.824-.828-.659.282-1.206-.787-1.487-1.161-.1-.131-.186-.21-.319-.2a2.818,2.818,0,0,0-.821-.818c0-.041,0-.079,0-.12l.055-.01c.213-.045.186-.361.058-.357s-.12.144-.137.258c-.1.072-.182.182-.313.141-.024-.017-.048-.038-.069-.055-.007-.165-.045-.289-.175-.309-.134-.12-.3-.021-.436-.11-.158-.1-.165-.086-.189.179-.065.048-.131.1-.2.144-.495.34-.46-.385-1.185-.168a.383.383,0,0,1-.471-.141c-.052-.309-.11-.364-.409-.4a.228.228,0,0,0-.158,0h0a1.334,1.334,0,0,1-.1-.292c-.021-.12-.165-.137-.192.024-.017.1.021.216-.038.306l-.017.01-.185.041c-.058-.182,0-.416-.155-.553-.12-.192-.261-.127-.357-.007-.783.979-1.484.323-1.57,1.226-.01.093.014.227-.055.258-.2.089-.278.344-.429.495s-.206.01-.5-.278c-.766-.752-1.219.556-1.7-.027-.213-.258-.89-.711-.708-1.481a4.758,4.758,0,0,0,.034-1,2.488,2.488,0,0,1,.189-.237c.261-.265.062-.67-.388-.649-.031-.155-.021-.179-.158-.22a.133.133,0,0,0-.124-.11,1.265,1.265,0,0,0-.557.031c-.306.137-.611.017-.914.086-.131.031-.185-.12-.1-.261a.687.687,0,0,0,.12-.292c.041-.323.161-.622.22-.938a1.951,1.951,0,0,0,.11-.416c-.01-.739.46-.587.309-1.051-.045-.137-.158-.089-.251-.1a2.441,2.441,0,0,0-.938.2c-.852.258-.3,1.024-.962,1.244-.429.141-.862.471-1.072.344-.309-.186-.67-.3-.763-.79-.024-.127-.282-.275-.268-.69a.124.124,0,0,0-.069-.113c-.206-.35.028-.78-.021-1.013a1.544,1.544,0,0,1,.161-.642,1.092,1.092,0,0,0,.131-.927.778.778,0,0,1,.072-.347c.694-.745.66-.405,1.209-1.048l.12-.072a1.351,1.351,0,0,1,.539-.058c.038.052.076.038.2.038a0,0,0,0,0,0,0c.052.065.113.052.179-.017.021.007.045.01.065.017a.1.1,0,0,0,.089.1c.144.3.546-.155.78.021.072.055.148-.034.155-.158,0-.041-.01-.082-.01-.124,0-.2.041-.254.192-.3a2.1,2.1,0,0,1,.546-.117c.093.062.179-.024.268-.086a.562.562,0,0,1,.5.185c.247.34.426-.158.642-.086a.813.813,0,0,1,.354.886c-.079.333,0,.4.378,1.151-.058.271-.076.642-.433.7-.024,0-.045.038-.034.1a1.643,1.643,0,0,0,.67-.031.306.306,0,0,0,.23-.234c.024-.014.048-.024.072-.038s.021-.014.028-.031a.153.153,0,0,0,.027-.038c.062-.017.082-.069.086-.137a1.884,1.884,0,0,0,.052-1.147,8.443,8.443,0,0,0-.261-.976,1.631,1.631,0,0,1-.082-.361.921.921,0,0,1,.089-.611,1.436,1.436,0,0,1,.5-.625,3.1,3.1,0,0,0,.721-.769.387.387,0,0,0,.453-.234.37.37,0,0,1,.21-.179c.247-.027.416-.278.622-.416a.344.344,0,0,0,.144-.344c0-.175-.265-.354-.024-.7.306-.443.464-.993.8-1.422a.644.644,0,0,0,.086-.223.31.31,0,0,1,.175-.21c.234-.151.532-.048.708-.447.01-.024.069-.027.1-.041.519-.2.728.048.78-.216.021-.1-.045-.117-.107-.124-.364-.055-.093-.783.216-.958,1.02-.57,1.051-.491,1.326-.752a1.267,1.267,0,0,1,.749-.258,1.218,1.218,0,0,1-.278.271.468.468,0,0,0-.151.423c.028.144.131.12.23.117.388-.017.515-.553.845-.563a.928.928,0,0,0,.189-.062,7.449,7.449,0,0,0,1.247-.69c.275-.158.179-.161.076-.478-.093-.285-.107-.227-.622.392-.086.1-.251.045-.185-.089.106-.216-.01-.213-.113-.175a.517.517,0,0,1-.556-.11c-.2-.175-.182.179-.292.227a.568.568,0,0,1,.1-.7c-.213-.027-.436.124-.6-.014a.733.733,0,0,0,.563-.22c.079-.069.189-.11.189-.244a.2.2,0,0,0-.185-.223.844.844,0,0,0-.131,0,3.022,3.022,0,0,0-1.563.635c-.072.048-.144.144-.23.072.416-.684.79-.443.969-.766a.722.722,0,0,1,.45-.368c1.522-.429,2.212.041,2.947-.646a1.6,1.6,0,0,1,1.01-.467.342.342,0,0,1-.082.182,6.416,6.416,0,0,0-.563.8c-.539.794-.718.9-.642,1.1.038.1.127.082.21.048a1.888,1.888,0,0,1,.378-.076,5.725,5.725,0,0,0,.725-.021c.3-.089-.055.45.319.313.134-.048.364-.333.453-.168.076.134.223.106.313.2.151.158.271-.021.443-.337.041-.072.069-.179.024-.223-.107-.113-.069-.337-.141-.416a1.113,1.113,0,0,1-.206-.464c-.12-.405-.663.251-.927-.278-.007-.014-.031-.014-.045-.024-.12-.1-.127-.175,0-.3a1.356,1.356,0,0,0,.21-.344c.031-.055.045-.124,0-.137-.151-.045-.065-.151-.024-.275.161-.491.062-.756-.306-.824a.277.277,0,0,1-.227-.227c-.1-.405-.429-.141-.543-.234-.21-.172-.5-.165-.694-.368a.374.374,0,0,1-.155-.282c0-.11,0-.234-.1-.268a.669.669,0,0,0-.045-.058c-.014-.117-.021-.237-.148-.227-.01-.172-.185-.144-.216-.278-.076-.326-.474-.56-.508-.845-.014-.1-.1-.1-.175,0a2.231,2.231,0,0,0-.333.457.878.878,0,0,1-.309.371c-.68.546-.807.21-.972.144-.282-.113-.326-.337-.144-.773.055-.131.024-.141-.058-.127-.374.069-.584.1-.649-.031-.11-.21-.326-.234-.512-.306a.36.36,0,0,0-.3.038,1.842,1.842,0,0,1-.921.2c-.309,0-.735.168-.615.467.024.058.089.113.014.206-.289.344.113.405-.089.67-.478.625-.587.6-.323.721a.269.269,0,0,0,.117.031c.244-.01.313.388.247.69a2.428,2.428,0,0,1-1.2,1.02c-.347.141-.069.361-.072.529a2.46,2.46,0,0,0,.01.529.236.236,0,0,1-.155.271c-.107.034-.172.134-.251.23-.131.165-.271.21-.347.089-.055-.089-.1-.185-.22-.175-.041,0-.055-.045-.034-.1a.168.168,0,0,1,.179-.113.175.175,0,0,0,.131-.282c-.144-.148-.563.069-.4-.512.1-.326.069-.4-.179-.368a1.686,1.686,0,0,0-.55.155c-.357.182-.4-.148-.8-.031a.122.122,0,0,1-.093-.021.872.872,0,0,0-.848-.2c-.093.031-.158-.137-.584.079-.361.182-.316-.22-.33-.316-.027-.206-.175-.106-.385-.045-.292.086-.007-.532.213-.766a1.9,1.9,0,0,0,.354-.436h0c.158-.144.313-.306.471-.429a2.586,2.586,0,0,1,.608-.453c.22-.069.347-.553.752-.677a2.055,2.055,0,0,0,.79-.543.606.606,0,0,0,.216-.3.269.269,0,0,1,.117-.144,1.757,1.757,0,0,1,.258-.189c.01.082-.065.186-.11.278a1.2,1.2,0,0,1-.44.6.131.131,0,0,0-.024.021c-.13.144-.117.227-.024.189a2.219,2.219,0,0,0,.275-.113c.1-.055.137-.031.161.031h0c-.024.12.052.069.192.017.062,0,.117-.041.172-.131l0,0c.392-.175.464-.515.742-.429a1.234,1.234,0,0,0,.419-.007.35.35,0,0,0,.216-.058.219.219,0,0,0,.158-.185c-.007-.158-.168-.041-.344-.024.027-.134,0-.22-.1-.2-.213.034-.34-.086-.553-.045-.093.017-.161-.014-.134-.155.1-.058.1.014.144.024a.213.213,0,0,0,.21-.065c.1-.093.038-.144.065-.223,0-.007-.007-.01,0-.017s.021-.024.028-.01c.155-.1.3-.271.457-.374.955-.629-.038-.423.412-.763.247-.185.292-.3.192-.45a.813.813,0,0,1-.2.2.813.813,0,0,0,.2-.2s0,0,0-.007c0-.024-.014-.021-.034,0a.26.26,0,0,1-.189.052c.347-.567.567-.031,1.12-.5.031-.024.062-.024.065.01.007.076-.144.23-.254.3-.2.124-.278.144-.316.234-.021.045,0,.058.024.065.271.062.175.179.419.065.313-.148,0-.361.412-.68a.381.381,0,0,1,.093-.045c.089-.12.141-.041,0,0-.079.271.247.21-.079.481a.331.331,0,0,0-.144.3c0,.086.031.134.106.134a.513.513,0,0,0,.268-.038,1.217,1.217,0,0,0,.5-.2c.168-.106.708-.392.687-.2a.24.24,0,0,1-.076.137,2.165,2.165,0,0,1-.344.282c-.227.148-.447.423-.684.484a.561.561,0,0,1-.443.292,1.2,1.2,0,0,0-.488.381c-.1.107-.12.216-.048.23a.766.766,0,0,0,.556-.069,1.328,1.328,0,0,1,1.57,0c.1.072.234.1.316.21.031.041.1.021.155-.014a.345.345,0,0,1,.381-.038.261.261,0,0,0,.2-.007.145.145,0,0,0,.038.007c.01.041.034.069.072.069a6.353,6.353,0,0,1,1.013.038c-.014-.175,0-.319-.175-.234a.822.822,0,0,0-.512-.247c.052-.155.148-.168.237-.2.567.189.477-.027.694.189.062.058.13.12.316-.007-.185.041-.161-.048-.131-.179a.276.276,0,0,1,.168-.227.154.154,0,0,0,.1-.11c.021-.1-.072-.086-.148-.079a.613.613,0,0,0-.034-.065c.031-.161-.01-.234-.141-.2-.021-.014-.041-.031-.058-.045.01-.031,0-.045-.024-.034,0-.01-.007-.017-.01-.027s-.007-.01-.01-.017-.014.007-.024.014l-.234.082c0-.247-.371-.223-.223-.649.629-.275.574.368,1.2.289,0-.014-.01-.034-.01-.034a.139.139,0,0,1,.01.034c.1.021.158-.058.182-.186a.577.577,0,0,1,.24-.137c.247-.069.381-.371.574-.56.01-.01.007-.038.014-.058-.014-.079-.076-.076-.131-.089-.021-.062-.065-.027-.13-.01a1.657,1.657,0,0,0-.615-.11.437.437,0,0,0-.447-.124c-.268.079-.433-.069-.646-.1-.045-.007-.058-.052-.041-.117.041-.179.2-.106.268-.251-.021-.069-.117-.052-.1-.165.024-.182-.079-.206-.192-.216-.045,0-.113.045-.12-.034-.007-.148-.11-.079-.206-.024-.014-.014-.031-.027-.045-.041v-.014s-.007,0-.01.007c-.082-.014-.2.069-.282.058-.048-.007-.134.076-.165.027-.076-.11-.234-.079-.33-.148a.619.619,0,0,0-.34.024.583.583,0,0,1-.546.021c-.179.062-.237-.1-.4-.058-.027-.027-.069-.017-.124.034h-.045c.11-.158.113-.179.021-.192a.584.584,0,0,1-.21-.017c-.189-.093-.416.062-.818.168a.3.3,0,0,0-.306.089h0l-.065.065c-.2.141-.357.017-.7.258-.182.1-.361.192-.539.292-.089-.168-.309-.065-.57.113-.265.131-.33.089-.512.3a3.13,3.13,0,0,0-.763.739.648.648,0,0,0-.172.278c-.141.258-.007.268.038.357.055.11.24.034.405-.014.1.079.227.1.467-.12a.437.437,0,0,0,.216-.055c-.062.172-.12.344-.182.515-.113.137-.175.313-.323.419-.024,0-.045,0-.069.007-.007-.034-.014-.079-.065-.045a.242.242,0,0,0-.1.168c-.01.058.058.069-.021.168a.311.311,0,0,1-.179.113c-.1.031-.137-.024-.2-.041-.082-.024-.072-.055.045-.2.271-.337.086-.319-.161-.337a.253.253,0,0,0-.168.1c-.275.113.031-.12-.35-.034-.1.024-.22.069-.137-.134a.273.273,0,0,0-.055.017.026.026,0,0,0-.014-.007c.058-.137-.031-.1-.22-.058.168-.35-.172-.155-.172-.282.086-.124.186-.165.254-.278a.709.709,0,0,1,.216-.206.927.927,0,0,0,.45-.278.232.232,0,0,0,.1-.089c.055-.052.11-.106.165-.158a.248.248,0,0,0,.1-.086,1.467,1.467,0,0,0,.206-.21,6.764,6.764,0,0,0-.632.244,3.292,3.292,0,0,0-.766.4,1.125,1.125,0,0,0-.354.381c-.058.1-.223.261-.1.2.034,0,.027.041.038.062-.065.2-.065.2-.275.4a1.15,1.15,0,0,0-.213.23.366.366,0,0,0-.124.082l-.014.014a.629.629,0,0,0-.079.161c-.065.141-.185.319-.113.378-.127.082-.21.127-.251.086-.065-.065-.227.058-.374.2a2.343,2.343,0,0,1-.405.357.214.214,0,0,0-.079.093c-.034.072.027.034.292,0a.894.894,0,0,0-.285.326c-.058.141-.374.158-.8.423-.5.316-.388.127-.787.33a.261.261,0,0,1-.141.038c-.082-.017-.21.031-.289.021.041-.161-.488.3-.78.46a.371.371,0,0,0-.045.038c-.107.093-.144.148-.11.175s.079,0,.007.1a.508.508,0,0,1-.2.155.638.638,0,0,0-.069.034c.045-.124.038-.12-.1.021-.038.024-.076.041-.086.024.007-.076-.072-.031-.192.076-.028.021-.058.038-.086.058a.372.372,0,0,0-.089.072,8.26,8.26,0,0,1-1.219.711c.182-.189.285-.2.457-.4-.185-.041-.457.2-.756.392A48.111,48.111,0,0,0,593.8,331.03a.327.327,0,0,0,.027.131c.306.89.175.948.347,1.048a.676.676,0,0,1,.275.247c.041.076.117.127.062.268a.31.31,0,0,1-.265.2c-.01,0-.024.027-.034.041a.549.549,0,0,0,.381.357.852.852,0,0,1,.368.21c.347.254-.093.491.134.69.158.141.495.292.611.618.024.069.048.148.13.082s.189-.148.148-.254c-.048-.124-.079-.316-.2-.33-.182-.024-.234-.12-.2-.333,0-.014-.01-.034-.021-.045a1,1,0,0,1-.172-.522c-.038-.271-.4-.464-.4-.866,0-.038-.041-.058-.065-.086.062-.3.017-.371-.223-.34-.261-.2-.223-.278-.155-.838.12-.007.223.055.361-.01.2.168.1.082.2.289v.007c-.024.258.2.388.082.7-.01.027.007.052.034.041.148-.041.155.2.34.275.007.131.165.079.175.182.031.244.2.319.347.426.22.155-.137.354.134.495a2.313,2.313,0,0,0,.23.1.064.064,0,0,0,.024.027l.045.058a.175.175,0,1,0,.268.158.68.68,0,0,1-.058.12c.151.22.316.433.453.677.556.982-.11,1.113.268,1.556.275.323.361.179.556.471a.313.313,0,0,0,.158.127,5.479,5.479,0,0,1,.993.519c.409.223.842.4,1.274.591,1.006.44.687-1.02,2.027.656.409.512.515.2,1.164.584a.918.918,0,0,0,.659.107c.082.082.089.254.213.285a2.741,2.741,0,0,0,.436.591c.45.443.024.728.4.955.182.11.6.113.67.436.141.6.814.337.948.635.072.165.223.189.326.313.079.1.189.024.271-.048s.045-.158,0-.244c-.089-.179-.028-.216.292-.546a.1.1,0,0,1,.151,0c.1.086.223.148.258.309.124.546.436.732.519,1.151.045.223-.055.429.007.646.069.247-.1.5.069.745a.083.083,0,0,1-.01.062c-.089.165-.124.388-.323.429-.309.062-.12.831-.577.866a.162.162,0,0,0-.172.189,2.488,2.488,0,0,1-.206.811,3.066,3.066,0,0,0,0,.732.047.047,0,0,0,.017.027c.155.082.244.313.422.344-.024.048-.048.1-.076.141a.568.568,0,0,0-.371.481h0c-.137.048-.072.141.024.282.027.182.151.344.155.529-.216.155.467.378.649.931a.671.671,0,0,0,.113.206,5.108,5.108,0,0,1,.584,1.068c.769,1.656,1.1,1.711,1.072,2.192,0,.027.045.072.069.11a.108.108,0,0,0,.017.034.1.1,0,0,0,.062.082c.131.234.34.361.481.581a2.964,2.964,0,0,0,.749.532.385.385,0,0,0,.234.172,4.877,4.877,0,0,1,1.02.952c.031.086.1.12.151.175h0a.083.083,0,0,0,.014.062,1.441,1.441,0,0,0,.131.532c.165,1.14.244,1.422.1,1.742-.024.052.024.124.034.186a6.239,6.239,0,0,1,.161,2.085c-.017.165.034.368-.041.5a.157.157,0,0,0,.038.168.985.985,0,0,1,.12.24.665.665,0,0,0,.137.072.665.665,0,0,1-.137-.072c-.007.045,0,.1-.021.131-.124.192-.045.45.072.725a4.113,4.113,0,0,1,.093,1.494c0,.045,0,.1-.027.113-.076.045-.048.175-.069.264-.045.192.027.481-.155.553-.065.027-.024.148.024.254a2.076,2.076,0,0,1,.289,1.164.713.713,0,0,0,.017.134,4.767,4.767,0,0,1,.086,1.072c-.024.134.3.285.316.158a.6.6,0,0,0-.017-.429c-.027-.055-.045-.1,0-.1s.076.048.1.1a.694.694,0,0,1,.055.271c.021.1-.021.2.117.313l.024.052c-.031,0-.065.021-.069.082-.01.3-.55-.371-.35.289a.586.586,0,0,1-.079.611c-.041.048,0,.11.058.182.158.185.158-.127.34.234a.6.6,0,0,0,.062.076c.007.038.014.072.024.11-.024.014-.024.048,0,.1a.013.013,0,0,0,0,.01c-.313-.141-.333-.124-.227.192-.024.045,0,.113.038.192a2.3,2.3,0,0,1,.237.594c.031.182.285.244.22.426-.014.038-.01.076.041.158a4.245,4.245,0,0,0,.783,1.013c.034.038.079.069.107.107a.943.943,0,0,0,.512.426,1.231,1.231,0,0,0,.429.374,4.812,4.812,0,0,1,.536.34c.117.192.141.089.192.072.027.01.055.024.082.034.151.264.3-.024.879.144.041.01.079.007.072-.052-.01-.082-.072-.113-.12-.151-.481-.4-.759-.594-.831-.917-.062-.278-.216-.316-.484-.763-.313-.522.247-.182.2-.677-.038-.4.268-.244.426-.4a.5.5,0,0,0-.292-.653c-.124-.034-.251-.065-.374-.1-.11-.107-.244-.137-.265-.409.11,0,.106-.113.1-.23l-.021-.007.021.007c.23.007.319.062.374-.045.062-.01.113-.007.093-.1.089-.1.024-.3,0-.467.01,0,.017-.007.017-.024a.125.125,0,0,1,.082-.11c.144.031.244-.055.385-.041.165.017-.048-.584-.227-.474-.1.062-.22.017-.347-.027-.027-.117-.058-.237-.086-.354.034-.2.038-.2.21-.1.072.041.151.141.22.1.33.079.776.275.732-.371-.017-.24.055-.33.237-.313.086.007.165-.007.251-.007.058,0,.1-.014.106-.093.357.021.519.1.6-.124.031,0,.062,0,.093,0h0a.89.89,0,0,0,.371-.594.345.345,0,0,0-.021-.21.88.88,0,0,1-.021-.646c.131-.038.244-.144.412-.065.368.175.783-.46.982-.79a2.066,2.066,0,0,0,.2-.522c.1-.065.21-.11.264-.24.131.01.2-.062.2-.227h0c.165-.089.155-.3.168-.495a5.435,5.435,0,0,1,.385-.526c.477-.5-.158-1.264.258-1.755a3.377,3.377,0,0,1,.5-.46c.6-.477.488-.048.749-.374a.761.761,0,0,1,.443-.313,4.156,4.156,0,0,0,.715.041.162.162,0,0,0,.2-.127c.082-.323.46-.113.409-.508a.845.845,0,0,1,.086-.416c.137-.058.141-.21.155-.35a.41.41,0,0,0,.206-.333s0,0,.007,0c.227-.082-.052-.615.292-.8.1-.055.12-.161.069-.292-.2-.495.134-.787-.007-1.2a3.484,3.484,0,0,1-.041-1.051c-.014-.309.333-.158.337-.495h0a.7.7,0,0,0,.282-.563v0a.138.138,0,0,0,.1-.144.3.3,0,0,0,.124-.22.147.147,0,0,0,.113-.131c.21-.069.12.048.457-.574,0,0,0-.007.007-.01.1-.01.144-.1.192-.192A2.24,2.24,0,0,0,628.01,350.583Zm-9.058-32.475c.038-.034.093-.058.1.007.007.045-.041.065-.076.076a.932.932,0,0,1-.1.014A.7.7,0,0,1,618.951,318.107Zm-9.9,5.342a1.6,1.6,0,0,1,.512-.268,2.579,2.579,0,0,0,.646-.161c.113-.055.175.007.165.155-.048.069-.093.137-.141.21a.736.736,0,0,1-.488.117c-.429-.038-.787.247-.766.052A.149.149,0,0,1,609.048,323.449Zm.089.46c0,.017.014.055.014.055s-.01-.038-.014-.055c-.223.227-.488.275-.711.488a.43.43,0,0,1-.1.069.6.6,0,0,0,.1-.069.306.306,0,0,0-.192.093h-.017c-.2.052-.337.254-.625.21-.089-.014-.11-.124.01-.22a1.019,1.019,0,0,1,.2-.144c.306-.131.258-.268.447-.275C608.718,324.04,609.086,323.631,609.137,323.909Zm-1.144-1.515c.076-.01.137-.027.093.134-.041.144.131.168.247.038.062-.069.1-.189.2-.2s.161.065.23.131a.4.4,0,0,1,.072.532c-.113.027-.189-.038-.278-.069-.072.055-.144.11-.216.161a.856.856,0,0,0-.192.35c-.072.275-.2.378-.3.378-.165,0,.089-.45-.234-.381-.086.017-.1-.027-.076-.141.124-.536.058-.4-.271-.567A1.021,1.021,0,0,1,607.993,322.394Zm-1.12.673h0a.4.4,0,0,0-.337.244,1,1,0,0,0-.227.79.882.882,0,0,1-.361.721c-.175.117-.316.024-.306-.227a2.791,2.791,0,0,1,.306-1.072c.024-.065-.007-.086-.048-.086a.778.778,0,0,1,.35-.5,2.17,2.17,0,0,1,.6-.271c.168-.034.168-.031.158.2C606.966,322.937,606.918,323,606.873,323.068ZM604.7,322.7c.206-.381.484-.392.9-.725a1.961,1.961,0,0,1,1.1-.5c.185,0,.031.357.357.316.069-.01.168-.058.179.038.014.137.093.247.027.433-.024.069-.076.144-.117.1-.137-.137-.344-.017-.512.093-.323.213-.471.034-.663-.048-.065-.027.038-.131.024-.2a1.158,1.158,0,0,0-.361.22,4.6,4.6,0,0,1-.4.244c-.079.048-.158.072-.206.034-.089-.069-.213-.027-.33-.007-.027.031-.055.058-.082.055,0,0,0-.014-.007-.017A.7.7,0,0,0,604.7,322.7Zm10.92-9.289h0c-.1.014-.3.017-.3.017A2.4,2.4,0,0,0,615.623,313.408Zm-.526-.629a2.446,2.446,0,0,0,.344.017,3.184,3.184,0,0,1-.344-.017c-.031.034-.062.069-.089.1h0c.031-.034.062-.069.089-.1-.017-.1-.155-.137-.155-.137S615.08,312.68,615.1,312.78Zm-.718-1c.158-.3.189-.323.306-.175.079.1.234.007.357.052a.4.4,0,0,1-.33.186c-.106.014-.22.076-.326.093,0-.052,0-.1-.007-.155Zm.093.687c.01.041-.031.069-.062.093-.052.014-.079.017-.131.031h0c-.12.021-.192.062-.168-.041C614.163,312.326,614.427,312.292,614.472,312.467Zm-2.119-1.642c.065.01.179-.052.161.12a.812.812,0,0,0-.227.055C612.174,311.055,612.225,310.8,612.352,310.825Zm-3.074,2.518c.093-.031.2.017.168.086-.052.127-.3.2-.323.093a.391.391,0,0,1,0-.069A.316.316,0,0,1,609.278,313.343ZM619.4,367.167l.034-.141Z" transform="translate(-593.799 -301.704)" fill="url(#linear-gradient-14)"/>
          <path id="Path_1381" data-name="Path 1381" d="M621.47,371.594a.117.117,0,0,0,.038-.052.178.178,0,0,0-.028-.093.193.193,0,0,1,.028.093A.1.1,0,0,1,621.47,371.594Z" transform="translate(-611.965 -342.467)" fill="url(#linear-gradient-15)"/>
          <path id="Path_1382" data-name="Path 1382" d="M661.114,315.989l-.014-.079Z" transform="translate(-637.982 -306.006)" fill="url(#linear-gradient-16)"/>
          <path id="Path_1383" data-name="Path 1383" d="M656.343,320.422l-.1-.052h0Z" transform="translate(-634.791 -308.934)" fill="url(#linear-gradient-17)"/>
          <path id="Path_1384" data-name="Path 1384" d="M646.983,310.53l-.113.034C646.908,310.554,646.946,310.544,646.983,310.53Z" transform="translate(-628.64 -302.474)" fill="url(#linear-gradient-18)"/>
          <path id="Path_1385" data-name="Path 1385" d="M644.866,310.96a.709.709,0,0,0-.076.038h0A.482.482,0,0,1,644.866,310.96Z" transform="translate(-627.274 -302.756)" fill="url(#linear-gradient-19)"/>
          <path id="Path_1386" data-name="Path 1386" d="M642.18,312.2h0C642.307,312.123,642.321,312.116,642.18,312.2Z" transform="translate(-625.561 -303.531)" fill="url(#linear-gradient-20)"/>
          <path id="Path_1387" data-name="Path 1387" d="M613.73,391.044h0a.027.027,0,0,1,.014-.014A.049.049,0,0,0,613.73,391.044Z" transform="translate(-606.884 -355.321)" fill="url(#linear-gradient-21)"/>
          <path id="Path_1388" data-name="Path 1388" d="M635.26,427.414l.227-.014S635.26,427.41,635.26,427.414Z" transform="translate(-621.018 -379.198)" fill="url(#linear-gradient-22)"/>
          <path id="Path_1389" data-name="Path 1389" d="M653.96,481.618a.129.129,0,0,0,.014-.048.115.115,0,0,1-.014.048Z" transform="translate(-633.294 -414.76)" fill="url(#linear-gradient-23)"/>
          <path id="Path_1390" data-name="Path 1390" d="M654.15,482.234l.017-.024h0A.085.085,0,0,1,654.15,482.234Z" transform="translate(-633.419 -415.18)" fill="url(#linear-gradient-24)"/>
          <path id="Path_1391" data-name="Path 1391" d="M662.263,497.1a.165.165,0,0,1,.031.089.137.137,0,0,0-.031-.089C662.246,497.043,662.242,497.036,662.263,497.1Z" transform="translate(-638.736 -424.925)" fill="url(#linear-gradient-25)"/>
          <path id="Path_1392" data-name="Path 1392" d="M660.121,484.865h0a.291.291,0,0,1,.017-.155A.3.3,0,0,0,660.121,484.865Z" transform="translate(-637.336 -416.821)" fill="url(#linear-gradient-26)"/>
          <path id="Path_1393" data-name="Path 1393" d="M668.544,474.1a.31.31,0,0,1,0-.058c-.062-.076-.072-.086,0,0Z" transform="translate(-642.835 -409.779)" fill="url(#linear-gradient-27)"/>
          <path id="Path_1394" data-name="Path 1394" d="M616.73,321.664c-.165-.027-.35.182-.388.055.048-.069.113-.158.086-.165-.055-.021-.027-.127-.072-.151a3.077,3.077,0,0,1,.326-.385.334.334,0,0,0,.124-.12.074.074,0,0,0,.017-.014c.017-.021.014-.024,0-.01a1.873,1.873,0,0,0-.649.405c-.179.2-.3.3-.309.24-.007-.034-.027,0-.082.052a.469.469,0,0,0-.2.392c-.045.069-.107.172-.134.134s-.11.014,0-.137c.017-.024.021-.038,0-.031-.069.031-.447.141-.529.3-.062.12-.134.144-.2.206h0c.058-.1-.069-.007-.172.041a2.27,2.27,0,0,0-.563.426c.137-.2.117-.22-.072-.065-.055.045-.144.131-.124.082-.031-.021-.151.062-.216.089a.325.325,0,0,0-.082.045c-.3.374-.453.563-.745.945a.037.037,0,1,1,0,.007c-.079.1-.117.155-.192.258.076-.048.2-.137.412-.282a.861.861,0,0,0,.151-.131l.058-.041c.155-.076.385-.258.553-.344.055-.031.106-.062.161-.089a.975.975,0,0,1-.2.151c-.244.161-.962.625-1.23.859-.045.058-.065.089-.107.148.007,0,.014,0,.021,0,.134-.027.144-.052.831-.481-.082.144-.086.206.069.113.33-.206.66-.4,1.037-.663.021-.014.041-.024.062-.038.089-.034.237-.192.337-.244a1.936,1.936,0,0,0,.381-.278.857.857,0,0,1,.653-.3c.879-.45.886-.447.952-.557s-.027-.062-.058-.076c0,0,.01-.024.028-.062a.765.765,0,0,1,.3-.117c.045,0,.1-.048.158-.127C617.293,321.441,616.857,321.685,616.73,321.664Z" transform="translate(-605.977 -309.259)" fill="url(#linear-gradient-28)"/>
          <path id="Path_1395" data-name="Path 1395" d="M621.6,324.947h0a.048.048,0,0,1-.01.007A.048.048,0,0,0,621.6,324.947Z" transform="translate(-612.044 -311.889)" fill="url(#linear-gradient-29)"/>
          <path id="Path_1396" data-name="Path 1396" d="M621.069,325.516h0l-.079.069A.631.631,0,0,0,621.069,325.516Z" transform="translate(-611.65 -312.296)" fill="url(#linear-gradient-30)"/>
          <path id="Path_1397" data-name="Path 1397" d="M632.89,379.9c.093,0,.22.024.244-.089.014-.069-.045-.086-.069-.127-.127-.206-.309-.192-.495-.179-.017-.429-.574.034-.845-.783.292.01.556.017.824.027-.124-.33-.124-.33.107-.57h0c.048.034.12.069.141,0,.028-.093,0-.247-.093-.216-.182.062-.254-.11-.371-.182,0-.168-.134-.251-.151-.4.041-.086.086-.065.131-.062.254.017.027-.56-.254-.278-.069.069-.175.055-.213.165-.045.127.069.192.072.306a.966.966,0,0,0,.021.1c.017.117.076.161.168.158a.609.609,0,0,1,.158.027c-.01.069-.024.134-.034.2-.34.179-.333.2-.371-.1a.322.322,0,0,0-.131-.258h0c-.017-.172.027-.357-.137-.457,0-.038,0-.079-.007-.117.072-.034.185-.021.182-.165s-.11-.106-.189-.1c-.213.027-.409-.275-.45.034.124.072.251.144.378.216a.949.949,0,0,1-.1.168.949.949,0,0,0,.1-.168l-.378-.216a.166.166,0,0,0-.041.179l0,0,.065.076c-.055.1-.079.192,0,.278-.007.065-.01.127-.017.192a.771.771,0,0,0,.275.831c.055.034.137.031.151.137-.031.014-.052.034-.065.027-.292-.113-.629-.024-.886-.254a.3.3,0,0,0-.234-.038c-.151.007-.3.007-.457.021-.258.027-.938.186-1.048.488-.041.117.007.237.089.2.172-.086.265.038.374.137a.608.608,0,0,0,.8-.069.386.386,0,0,1,.333-.182c.086.11.172.22.316.189.017.007.034.01.052.017-.038.5.553.433.759.907.041.1.113.1.182.021.052-.01.107-.017.158-.027h0a1.049,1.049,0,0,0,.45-.014A.669.669,0,0,0,632.89,379.9Zm-1.168-2.2.034.271Z" transform="translate(-616.814 -345.915)" fill="url(#linear-gradient-31)"/>
          <path id="Path_1398" data-name="Path 1398" d="M789.575,430.973c-.021-.151.038-.344.034-.5a.659.659,0,0,0-.017-.56c-.055-.107-.151-.065-.247.1a1.344,1.344,0,0,0-.1.3,1.774,1.774,0,0,1-.206.168.526.526,0,0,0-.285.416,4.163,4.163,0,0,1-1.371,1.1.349.349,0,0,0-.155.127,1.874,1.874,0,0,0-.368,1.25.469.469,0,0,1-.093.313,5.836,5.836,0,0,1-.412.584.91.91,0,0,0-.3.6c.041.337-.344.976,0,.982.251.1.505-.161.6-.213l.065-.052c.017-.01.034-.017.052-.027.079.034.168-.072.247-.179a4.531,4.531,0,0,0,.419-.639c.23-.457.55-.91.794-1.371a15.473,15.473,0,0,0,.759-1.4.354.354,0,0,1,.058-.106.548.548,0,0,0,.172-.4c.01-.052-.014-.1.058-.172.072-.031.055.107.151.017a.48.48,0,0,0,.127-.258A.221.221,0,0,0,789.575,430.973Zm-.818.773c-.021-.017-.062-.055-.062-.055s.041.038.062.055Z" transform="translate(-719.921 -380.805)" fill="url(#linear-gradient-32)"/>
          <path id="Path_1399" data-name="Path 1399" d="M725.315,330.578a.7.7,0,0,0,.374.1c.491.062.587-.278.872-.2.234.065.326-.086.4-.3a.621.621,0,0,0-.045-.385c-.165-.529.464-.247.052-.718a.987.987,0,0,0-.763-.282c-.2-.027-.385.007-.392.326,0,.251-.488-.052-.536.185a.511.511,0,0,0,.065.412c.052.079.165.107.155.234s-.1.161-.151.237c-.021.031-.055.045-.079.072C725.167,330.379,725.184,330.482,725.315,330.578Z" transform="translate(-680.064 -314.46)" fill="url(#linear-gradient-33)"/>
          <path id="Path_1400" data-name="Path 1400" d="M628.748,314.571c-.058-.027-.22.113-.323.155a4.641,4.641,0,0,0-.488.368.573.573,0,0,0-.062.065c-.079.12-.124.141-.148.127-.062-.031-.2.048-.309.089a.5.5,0,0,0-.182.137c-.069.127-.021.134.052.1a2.622,2.622,0,0,0,.464-.206c.089-.058.172-.106.261-.161.065-.041.117-.065.082.017-.052.131.058.038.68-.333a.433.433,0,0,0,.137-.155.282.282,0,0,0,.131-.1,2.625,2.625,0,0,0,.12-.278c.031-.062,0-.082-.048-.058a.682.682,0,0,0-.285.165C628.8,314.541,628.755,314.575,628.748,314.571Zm-.567.385c.069-.069.082-.052.117-.076C628.253,314.918,628.205,314.967,628.181,314.956Zm.113-.052c-.021.014-.014.007.01-.017a.146.146,0,0,0,.021-.024h0A.253.253,0,0,1,628.295,314.9Z" transform="translate(-615.729 -304.969)" fill="url(#linear-gradient-34)"/>
          <path id="Path_1401" data-name="Path 1401" d="M641.254,387.077c.185-.12.364-.014.543-.079.447-.165.388.574.581.155.048-.1.089-.254.192-.234.275.055.55-.168.824-.014.2.117.381-.289.082-.368-.326-.086-.68-.666-1.185-.495-.488.165-.4-.093-.67-.045-.055.01-.117.027-.134.106s.038.093.072.131c.144.158.141.161,0,.4.082.027.182-.045.189.072s-.089.127-.165.12a4.5,4.5,0,0,0-.491-.076c-.069,0-.151.058-.1.148S641.168,387.135,641.254,387.077Z" transform="translate(-624.768 -352.014)" fill="url(#linear-gradient-35)"/>
          <path id="Path_1402" data-name="Path 1402" d="M783.572,327.454c-.323-.289-.615-.584-.543-.6l.058-.021c-.216-.275-.33-.412-.553-.68-.127-.072.072.117-.124.048-.031-.021-.062-.041-.1-.062-.014-.01-.017-.014-.014-.007a.064.064,0,0,0-.024-.007c-.124-.079-.124-.082-.007.1l-.052-.021c-.038-.024-.041-.017-.021.017a.037.037,0,0,0-.017,0c-.058-.041-.141-.106-.072-.007.192.278-.223-.117-.1.072a.977.977,0,0,0,.189.2,5.99,5.99,0,0,0,.477.388.416.416,0,0,1,.086.079,1.851,1.851,0,0,0,.216.185c.23.189.553.412.756.553A2.379,2.379,0,0,0,783.572,327.454Zm-1.11-1.092a.721.721,0,0,0-.093-.127.721.721,0,0,1,.093.127.3.3,0,0,0,.041.031Z" transform="translate(-717.343 -312.675)" fill="url(#linear-gradient-36)"/>
          <path id="Path_1403" data-name="Path 1403" d="M621.159,319.612c.168-.1.447-.337.7-.539a.623.623,0,0,0,.106-.106,1.184,1.184,0,0,1,.144-.148,2.926,2.926,0,0,0,.275-.285c.076-.1-.058.017-.086.024a.438.438,0,0,0-.062.048c-.055.034-.127.1-.206.158a4.477,4.477,0,0,0-.807.735C621.087,319.653,621.087,319.653,621.159,319.612Z" transform="translate(-611.729 -307.702)" fill="url(#linear-gradient-37)"/>
          <path id="Path_1404" data-name="Path 1404" d="M634.545,311.04a.552.552,0,0,0,.216-.144.315.315,0,0,0,.082-.1c.024-.048,0-.041-.034-.024-.371.2-.433.278-.381.172.069-.141.117-.082.206-.175a1.748,1.748,0,0,0-.66.268,1.25,1.25,0,0,0-.292.158.433.433,0,0,0-.179.216c-.007.007-.014.01-.021.017a.1.1,0,0,0-.014.021C634.009,311.421,634.253,311.126,634.545,311.04Z" transform="translate(-619.843 -302.626)" fill="url(#linear-gradient-38)"/>
          <path id="Path_1405" data-name="Path 1405" d="M771.181,314.743a5.977,5.977,0,0,0,.529.45c.062.045.1.069.082.027a2.628,2.628,0,0,1,.275.254c.024.027.065.058.041.024-.117-.168-.021-.041.2.113.01.01.028.024.031.027s.01,0-.024-.031c-.093-.089-.165-.148-.278-.271l-.052-.048c-.014.014-.161-.124-.206-.137a1.387,1.387,0,0,1-.347-.275c-.244-.2-.453-.34-.673-.488a.36.36,0,0,0,.021.034c.024.021.048.038.072.058A3.914,3.914,0,0,1,771.181,314.743Z" transform="translate(-709.971 -305.007)" fill="url(#linear-gradient-39)"/>
          <path id="Path_1406" data-name="Path 1406" d="M777.375,319.806c-.021-.017-.069-.065-.069-.065s.048.045.069.065c-.1-.106-.151-.161-.254-.268-.027-.024-.048-.045-.072-.062a2.083,2.083,0,0,0-.213-.185s-.038-.034-.058-.052c-.117-.1-.172-.141-.134-.079.01.017,0,.017-.034-.017-.079-.086-.144-.158-.144-.134,0,.007-.027-.014-.041-.021a.194.194,0,0,1-.028-.024c-.017-.014-.058-.052-.027-.01a1.725,1.725,0,0,0,.22.2c.2.165.278.21.5.412.021.017-.048-.048-.065-.069-.072-.076-.052-.058,0-.01.065.055.172.172.254.251-.024-.027,0-.01,0-.01s-.024-.021,0,.01c.131.131.21.2.282.258C777.482,319.919,777.444,319.882,777.375,319.806Zm-.258-.234.137.124Z" transform="translate(-713.647 -307.992)" fill="url(#linear-gradient-40)"/>
          <path id="Path_1407" data-name="Path 1407" d="M669.263,494.972c-.192-.113-.357-.055-.508-.155a.246.246,0,0,0-.34.093c-.031.038-.1.041-.031.151.165.271.175-.045.471.206.117.1.405-.007.491-.062.034-.021.1-.01.076-.1S669.321,495.006,669.263,494.972Z" transform="translate(-642.744 -423.435)" fill="url(#linear-gradient-41)"/>
          <path id="Path_1408" data-name="Path 1408" d="M636.386,375.291c.093.2.364-.161.227-.3-.251-.265-.876-.508-.828-.062S636.187,374.872,636.386,375.291Z" transform="translate(-621.361 -344.587)" fill="url(#linear-gradient-42)"/>
          <path id="Path_1409" data-name="Path 1409" d="M628.144,317.166c0-.017,0-.034,0-.052a.091.091,0,0,1-.024,0,.091.091,0,0,0,.024,0,.261.261,0,0,1,0,.052A.368.368,0,0,0,628.3,317c.048-.086.01-.082-.024-.082-.144-.014-.368.144-.625.354a1.47,1.47,0,0,0-.151.069,1.793,1.793,0,0,0-.512.378c-.034.034-.079.062-.1.107-.041.093.275-.131.172.024-.076.113-.247.148-.316.179-.041-.079-.368.206-.326.268.165.082.44-.254.653-.1.079.055.216-.014.4-.124.072-.055.144-.113.213-.168a1.321,1.321,0,0,0,.21-.148c.2-.117.2-.117.316-.357a.477.477,0,0,0,.069-.185c.041-.113.038-.11-.12.031-.021.007-.048.021-.065.024C628.045,317.262,628.1,317.21,628.144,317.166Zm-.254.2h0a.252.252,0,0,1,.045-.045A.492.492,0,0,0,627.89,317.368Z" transform="translate(-615.214 -306.667)" fill="url(#linear-gradient-43)"/>
          <path id="Path_1410" data-name="Path 1410" d="M781.132,327.622c-.024.041.055.168.189.254.038.024.076.045.113.065,0,0,0,0,0,.007a.57.57,0,0,0,.155.076c.052,0,.182.079.12-.017a1.081,1.081,0,0,0-.292-.258C781.324,327.667,781.163,327.571,781.132,327.622Z" transform="translate(-716.778 -313.685)" fill="url(#linear-gradient-44)"/>
          <path id="Path_1411" data-name="Path 1411" d="M639.178,324.661c-.052.069-.048.11,0,.12.175.034.477-.165.694-.471a.978.978,0,0,0-.536.186A.8.8,0,0,0,639.178,324.661Z" transform="translate(-623.565 -311.517)" fill="url(#linear-gradient-45)"/>
          <path id="Path_1412" data-name="Path 1412" d="M636.353,388.385c-.072.007-.161,0-.186.11-.031.127.055.179.127.227a.721.721,0,0,0,.659.041.121.121,0,0,0,.021-.21C636.724,388.458,636.741,388.348,636.353,388.385Z" transform="translate(-621.609 -353.58)" fill="url(#linear-gradient-46)"/>
          <path id="Path_1413" data-name="Path 1413" d="M657.4,338.38c-.027,0-.069.027-.107.113.131.027.234.137.354.172s.553.21.625.017a.1.1,0,0,0-.041-.124A1.489,1.489,0,0,0,657.4,338.38Z" transform="translate(-635.48 -320.756)" fill="url(#linear-gradient-47)"/>
          <path id="Path_1414" data-name="Path 1414" d="M692.2,502.05a.869.869,0,0,0,.347.2c.117.041.185.244.347.172A.585.585,0,0,0,692.2,502.05Z" transform="translate(-658.398 -428.195)" fill="url(#linear-gradient-48)"/>
          <path id="Path_1415" data-name="Path 1415" d="M742.395,300.195c.031.014.058.027.089.038a.058.058,0,0,0,.027.024.227.227,0,0,0,.137.131c.4.2.481.635.728.687a3.323,3.323,0,0,1,.622.416c.165.131.185.117.227,0,.017-.048.017-.12.055-.134.093-.027.227,0,.206-.168.12.024.158-.082.3-.031.313.137.22.124.467.374.089.089.024.127.086.22a1.129,1.129,0,0,0,.4.148c.127.12.282.33.337.206.093.007.247.11.261-.01-.076-.076-.01-.031-.237-.151a1.77,1.77,0,0,0-.285-.24.438.438,0,0,0-.21-.134h0c-.079-.1-.161-.216-.216-.213a.266.266,0,0,1,.017.048c-.175-.082-.192-.089,0,0a.422.422,0,0,0-.017-.048c-.045-.045-.093-.089-.137-.134-.017-.069-.082-.117-.124-.172.148.062.3.127.44.192a2.012,2.012,0,0,0,1.192.405,1.785,1.785,0,0,0-.223-.179,7.964,7.964,0,0,0-.89-.467.253.253,0,0,1-.155-.089c-.244-.275-.22-.038-.378-.134-.22-.134-.44-.261-.66-.385a.194.194,0,0,0-.117-.079c-.12-.038-.134.072-.216.089h0c-.027,0-.038.014-.014.065-.165-.131-.505-.419-.715-.388a.32.32,0,0,1-.034.034c-.086.192-.213-.117-.306-.1.007.024.024.076.024.076s-.014-.052-.024-.076c-.206-.186-.1.137-.361-.045-.553-.388-.632-.385-.859-.4-.058,0-.024.072.027.141h0c.027.055.089.1.1.155.014.1-.12-.048-.124.027A.666.666,0,0,0,742.395,300.195Zm3.329,1.494Zm-1.5-1.237c.148.124.134.113,0,0Zm-1.23.055v0h0Zm-.587-.35-.027-.01h0Zm-.2-.306-.017-.007Zm-.151.1-.01.01c-.007-.007-.01-.014-.017-.021C742.041,299.93,742.034,299.93,742.055,299.954Z" transform="translate(-690.961 -295.278)" fill="url(#linear-gradient-49)"/>
          <path id="Path_1416" data-name="Path 1416" d="M639.32,309.508c.079-.052.151-.2.086-.182a1.3,1.3,0,0,0-.337.172.451.451,0,0,0-.144.189C638.873,309.814,638.966,309.745,639.32,309.508Z" transform="translate(-623.415 -301.682)" fill="url(#linear-gradient-50)"/>
          <path id="Path_1417" data-name="Path 1417" d="M626.8,317.194c.052.048.265-.106.453-.234a.653.653,0,0,0-.319.069.327.327,0,0,0-.11.089C626.771,317.183,626.788,317.183,626.8,317.194Z" transform="translate(-615.456 -306.695)" fill="url(#linear-gradient-51)"/>
          <path id="Path_1418" data-name="Path 1418" d="M650.059,388.359c.01.144.12.12.309.131a.722.722,0,0,0,.344-.045.147.147,0,0,0,.041-.23C650.64,388.1,650.038,388.067,650.059,388.359Z" transform="translate(-630.733 -353.419)" fill="url(#linear-gradient-52)"/>
          <path id="Path_1419" data-name="Path 1419" d="M728.047,324.789c-.021-.392.333-.186.313-.5-.069-.357-.536.158-.495.433C727.893,324.94,728.054,324.933,728.047,324.789Z" transform="translate(-681.81 -311.425)" fill="url(#linear-gradient-53)"/>
          <path id="Path_1420" data-name="Path 1420" d="M729,324.468a.216.216,0,0,1,.1.268c-.038.12.045.172.137.189h.1c-.041.179-.278.11-.251.264.01.048.038.1.072.1.172,0,.34.216.488.12.1.11-.041.213.086.3.031.007.062.01.1.017.155.309.234-.082.625.392a2.124,2.124,0,0,1,.1.405,0,0,0,0,1,0,0c-.488-.062-.622-.12-.6.079.01.127.076.175.168.168.024.027.045.055.069.079,0,.155-.117.2-.155.313a.819.819,0,0,0-.131,0c-.148.014-.079.23.055.23.107,0,.22-.062.292.1.062.137-.024.165-.4.543-.024.024-.055.048-.034.1s.065.072.093.055a.757.757,0,0,1,.556-.069.121.121,0,0,0,.11-.055c.079-.131.2-.106.33-.089s.247.017.371.048c.3.065.567-.014.866.072.172.048.3-.076.433-.161a.079.079,0,0,0,.024-.076c-.1-.2-.014-.292.038-.423.1-.258-.11-.44-.381-.5-.306-.069-.357-.708-.842-.917-.319-.137-.127-.447-.66-.766-.309-.182-.031-.268.086-.615.093-.278-.151-.21-.522-.285-.089-.017-.216.031-.261-.113-.058-.189.11-.113.2-.206.113-.034.093-.179.106-.292.017-.134-.127-.223-.161-.117-.148.423-.646-.045-.711.258h0c-.027.062-.058.124-.086.186h0c-.062-.007-.089.031-.093.1v0a.869.869,0,0,1-.268.034C728.884,324.2,728.887,324.382,729,324.468Z" transform="translate(-682.503 -311.043)" fill="url(#linear-gradient-54)"/>
          <path id="Path_1421" data-name="Path 1421" d="M619.332,319.2c-.522.436-.072-.192-.532.24-.127.12-.247.227-.364.323-.034.069.1-.052.055.027-.268.275-.4.371-.484.368a6.874,6.874,0,0,0-.639.405c.161-.175.2-.168.326-.306a2.2,2.2,0,0,0-.385.34.612.612,0,0,1-.1.093l-.141.113c-.031.024-.062.048-.093.069a4.339,4.339,0,0,0-.484.467c-.065.076-.1.113-.158.189.052-.038.127-.1.216-.179.01,0,.017-.01.027-.014.007.031.155-.113.333-.251.014.007.093-.069.107-.062.024-.027.045-.058.069-.086-.024.014-.093.069-.093.069s.069-.055.093-.069.055-.045.082-.069a.332.332,0,0,1-.076.1c-.041.041-.065.058-.076.058-.107.148.007.069.093.007a9.58,9.58,0,0,0,.818-.625c.855-.718,1.065-.673,1.6-1.219C619.858,318.86,619.593,318.98,619.332,319.2Z" transform="translate(-608.59 -308.025)" fill="url(#linear-gradient-55)"/>
          <path id="Path_1422" data-name="Path 1422" d="M633,311.48c.1-.052.21-.107.316-.165.052-.027.151-.165.086-.134a2.076,2.076,0,0,0-.316.179.311.311,0,0,0-.079.076C632.981,311.473,632.981,311.491,633,311.48Z" transform="translate(-619.526 -302.898)" fill="url(#linear-gradient-56)"/>
          <path id="Path_1423" data-name="Path 1423" d="M642.731,324.475c-.024.079.048.168.12.148.117-.034.409-.447.137-.378A.432.432,0,0,0,642.731,324.475Z" transform="translate(-625.919 -311.473)" fill="url(#linear-gradient-57)"/>
          <path id="Path_1424" data-name="Path 1424" d="M722.026,369.8a1.237,1.237,0,0,0-.306.646c.344,0,.289-.4.44-.567a.154.154,0,0,0-.031-.089C722.1,369.749,722.053,369.763,722.026,369.8Z" transform="translate(-677.778 -341.36)" fill="url(#linear-gradient-58)"/>
          <path id="Path_1425" data-name="Path 1425" d="M626.13,318.975a1.4,1.4,0,0,0,.347-.223C626.422,318.687,626.34,318.745,626.13,318.975Z" transform="translate(-615.024 -307.855)" fill="url(#linear-gradient-59)"/>
          <path id="Path_1426" data-name="Path 1426" d="M644.189,383.09c0-.151-.1-.148-.172-.168a.1.1,0,0,0-.127.1.229.229,0,0,0,.158.213C644.123,383.252,644.161,383.173,644.189,383.09Z" transform="translate(-626.683 -349.995)" fill="url(#linear-gradient-60)"/>
          <path id="Path_1427" data-name="Path 1427" d="M620.357,321.846a.41.41,0,0,0,.055-.058c.024-.038-.014-.007-.058.034a1.325,1.325,0,0,0-.244.2A.924.924,0,0,0,620.357,321.846Z" transform="translate(-611.072 -309.853)" fill="url(#linear-gradient-61)"/>
          <path id="Path_1428" data-name="Path 1428" d="M658.952,321.455c.172-.041.151-.326,0-.3C658.753,321.191,658.749,321.5,658.952,321.455Z" transform="translate(-636.472 -309.449)" fill="url(#linear-gradient-62)"/>
          <path id="Path_1429" data-name="Path 1429" d="M805.464,397.409c-.076,0-.151-.01-.155.082a.086.086,0,0,0,.069.1.223.223,0,0,0,.069.014c.079-.01.2.034.2-.11C805.65,397.375,805.522,397.444,805.464,397.409Z" transform="translate(-732.653 -359.509)" fill="url(#linear-gradient-63)"/>
          <path id="Path_1430" data-name="Path 1430" d="M641.343,381.778a.184.184,0,0,0,.148-.182c-.007-.21-.247-.223-.251.027C641.24,381.71,641.257,381.8,641.343,381.778Z" transform="translate(-624.944 -349.024)" fill="url(#linear-gradient-64)"/>
          <path id="Path_1431" data-name="Path 1431" d="M705.29,288.155c.234.027.467.058.7.093C705.925,288.107,705.843,288.131,705.29,288.155Z" transform="translate(-666.992 -287.773)" fill="url(#linear-gradient-65)"/>
          <path id="Path_1432" data-name="Path 1432" d="M713,295.264a.075.075,0,0,0,.1.062c.058-.007.124-.021.113-.12a.1.1,0,0,0-.093-.086C713.077,295.161,712.984,295.144,713,295.264Z" transform="translate(-672.054 -292.357)" fill="url(#linear-gradient-66)"/>
          <path id="Path_1433" data-name="Path 1433" d="M655.056,323.845c-.01.052.024.079.069.065a.2.2,0,0,0,.165-.148c.024-.082-.031-.079-.082-.076C655.146,323.715,655.074,323.739,655.056,323.845Z" transform="translate(-634.013 -311.11)" fill="url(#linear-gradient-67)"/>
          <path id="Path_1434" data-name="Path 1434" d="M710.206,312.429c.13.024.172-.038.282-.1a.1.1,0,0,1,.017-.031.1.1,0,0,0-.017.031c.076.014.144.031.161-.058h.017a.064.064,0,0,0,.086-.031l-.014-.014a.135.135,0,0,0,.117.024c.034.041.076.076.117.055.155-.069.289-.186.436-.268.089-.048.11-.189-.034-.3l-.007-.007c-.172-.134-.34-.268-.512-.4a.118.118,0,0,0-.076-.017.448.448,0,0,1-.22-.1c-.285-.213-.347.182-.783.062a.752.752,0,0,0-.371,0l-.1-.021c-.13-.055-.234.089-.368.01-.106-.065-.179-.038-.254.079-.1.148-.206.12-.319-.048a.228.228,0,0,0-.206-.113c-.289-.131-.124-.278-.831.041a.341.341,0,0,0-.11.12c-.1.144.069.175.234.161.21-.017.405-.1.419.076s-.223.017-.522.206c.247.113.453-.017.639.186.093.1.1.179-.017.23a.055.055,0,0,0-.041.065c.038.065.093.048.141.052.848.021.728.323,1.123.237a.13.13,0,0,1,.045.021c.292.076.567.089.745-.216h0C710.175,312.409,710.13,312.391,710.206,312.429Zm.326-.419Zm-1.305-.1a.166.166,0,0,1,.014-.034h0A.167.167,0,0,0,709.227,311.914Zm.354.3a.592.592,0,0,1-.131-.069.668.668,0,0,0,.131.069.333.333,0,0,1,.117-.2A.333.333,0,0,0,709.58,312.209Zm.148.027h0a.378.378,0,0,1,0-.065A.378.378,0,0,0,709.728,312.237Z" transform="translate(-668.239 -302.81)" fill="url(#linear-gradient-68)"/>
          <path id="Path_1435" data-name="Path 1435" d="M631.9,316.254c.045-.058-.034-.021-.072.038S631.853,316.313,631.9,316.254Z" transform="translate(-618.755 -306.212)" fill="url(#linear-gradient-69)"/>
          <path id="Path_1436" data-name="Path 1436" d="M628.127,313.993c.045,0-.1.189-.027.144a6.473,6.473,0,0,0,.574-.378.743.743,0,0,1,.137-.089c.01,0,.007.007-.027.052s-.1.058-.168.168a2.421,2.421,0,0,0,.361-.24c.031-.062-.076.038-.024-.048.082-.082.127-.106.155-.1.076.031.282-.124.464-.244.038-.024.124-.113.1-.117-.062-.007-.017-.131-.113-.1s-.209.131-.264.127c-.1-.007-.313.213-.46.264-.069.041-.134.072-.21.124a6.565,6.565,0,0,0-.546.419C627.965,314.11,628.041,314.045,628.127,313.993Zm.821-.553h0a.077.077,0,0,1,0-.014A.034.034,0,0,1,628.948,313.44Z" transform="translate(-616.265 -304.123)" fill="url(#linear-gradient-70)"/>
          <path id="Path_1437" data-name="Path 1437" d="M747.941,315.088c0-.01-.01-.017-.014-.027s-.01,0-.017,0C747.927,315.1,747.92,315.094,747.941,315.088Z" transform="translate(-694.971 -305.448)" fill="url(#linear-gradient-71)"/>
          <path id="Path_1438" data-name="Path 1438" d="M764.7,318.28c.01.027.024.058.034.086C764.762,318.359,764.745,318.325,764.7,318.28Z" transform="translate(-705.994 -307.561)" fill="url(#linear-gradient-72)"/>
          <path id="Path_1439" data-name="Path 1439" d="M793.54,357.41c.01.038.021.079.034.117l.082.021A.214.214,0,0,0,793.54,357.41Z" transform="translate(-724.927 -333.25)" fill="url(#linear-gradient-73)"/>
          <path id="Path_1440" data-name="Path 1440" d="M772.42,352.65v.058C772.437,352.695,772.437,352.677,772.42,352.65Z" transform="translate(-711.062 -330.125)" fill="url(#linear-gradient-74)"/>
          <path id="Path_1441" data-name="Path 1441" d="M636.213,348.708c-.1.055-.086.158-.1.247.072-.055.144-.11.216-.161C636.309,348.732,636.282,348.67,636.213,348.708Z" transform="translate(-621.576 -327.53)" fill="url(#linear-gradient-75)"/>
          <path id="Path_1442" data-name="Path 1442" d="M750.152,350.83a1.459,1.459,0,0,1,0-.474.365.365,0,0,0-.161-.368c-.11-.038-.381.106-.2.46a1.821,1.821,0,0,1,.172.371.3.3,0,0,1-.216.127c-.055.01-.107.055-.069.127.251.474-.031.934.316.921.46-.017.309-.488.333-.618A.6.6,0,0,0,750.152,350.83Z" transform="translate(-696.128 -328.374)" fill="url(#linear-gradient-76)"/>
          <path id="Path_1443" data-name="Path 1443" d="M769.254,362.828h-.007c-.062,0-.127,0-.127.089,0,.2.265.093.392.223.234.244.433.093.646.137.034.007.058-.024.052-.072C770.192,363.072,769.5,362.9,769.254,362.828Z" transform="translate(-708.896 -336.806)" fill="url(#linear-gradient-77)"/>
          <path id="Path_1444" data-name="Path 1444" d="M779.453,364.657c-.069.014-.045.127.034.192a.268.268,0,0,0,.22.065c.206-.031.392-.086.388-.4a.539.539,0,0,1-.34.045C779.625,364.537,779.556,364.637,779.453,364.657Z" transform="translate(-715.653 -337.918)" fill="url(#linear-gradient-78)"/>
          <path id="Path_1445" data-name="Path 1445" d="M780.64,363.8Z" transform="translate(-716.458 -337.445)" fill="#fff"/>
          <path id="Path_1446" data-name="Path 1446" d="M742.818,353.819c-.021.131.35.285.347.045C743.141,353.672,742.846,353.648,742.818,353.819Z" transform="translate(-691.628 -330.817)" fill="url(#linear-gradient-79)"/>
          <path id="Path_1447" data-name="Path 1447" d="M781.39,364.495h0c.017,0,.017.007.017.014a.011.011,0,0,1,0-.007s0-.014,0-.017S781.393,364.474,781.39,364.495Z" transform="translate(-716.951 -337.889)" fill="url(#linear-gradient-80)"/>
          <path id="Path_1448" data-name="Path 1448" d="M795.69,359.91l.082.113A.164.164,0,0,0,795.69,359.91Z" transform="translate(-726.339 -334.891)" fill="url(#linear-gradient-81)"/>
        </g>
      </g>
    </g>
    <g id="Ñëîé_3" transform="translate(451.71 386.291)">
      <g id="Group_2588" data-name="Group 2588" opacity="0.8">
        <ellipse id="Ellipse_56" data-name="Ellipse 56" cx="85.29" cy="19.985" rx="85.29" ry="19.985" opacity="0.5" fill="url(#radial-gradient)"/>
        <ellipse id="Ellipse_57" data-name="Ellipse 57" cx="50.709" cy="11.882" rx="50.709" ry="11.882" transform="translate(34.581 8.103)" opacity="0.5" fill="url(#radial-gradient-2)"/>
      </g>
    </g>
  </g>
</svg>
