<svg xmlns="http://www.w3.org/2000/svg" xmlns:xlink="http://www.w3.org/1999/xlink" width="39.264" height="39.34" viewBox="0 0 39.264 39.34">
  <defs>
    <linearGradient id="linear-gradient" x1="0.5" x2="0.5" y2="1" gradientUnits="objectBoundingBox">
      <stop offset="0" stop-color="#fe9861"/>
      <stop offset="1" stop-color="#ff5a00"/>
    </linearGradient>
  </defs>
  <g id="Group_27" transform="translate(0 0)">
    <circle id="Ellipse_5" cx="19.052" cy="19.052" r="19.052" transform="translate(0.618 1.235)" fill="url(#linear-gradient)"/>
    <g id="Group_16" transform="translate(11.116 7.411)">
      <path id="Path_45" d="M107.7,32.323l-6.652-9.607a9.535,9.535,0,0,1,.772-11.746h0a8.315,8.315,0,0,1,11.759,0h0a9.535,9.535,0,0,1,.772,11.746Z" transform="translate(-98.924 -8.077)" fill="#bc1212"/>
      <path id="Path_46" d="M113.076,32.322l-6.262-9.607a9.535,9.535,0,0,1,.772-11.746h0c3.247-3.247,6.669-3.247,9.916,0h0a9.535,9.535,0,0,1,.772,11.746Z" transform="translate(-104.384 -8.076)" fill="#e93d3d"/>
      <circle id="Ellipse_6" cx="2.745" cy="2.745" r="2.745" transform="translate(6.109 5.947)" fill="#f28d8d"/>
      <ellipse id="Ellipse_7" cx="2.059" cy="2.745" rx="2.059" ry="2.745" transform="translate(5.949 5.947)" fill="#bc1212"/>
      <path id="Path_47" d="M101.818,11.117h0A8.284,8.284,0,0,1,108.041,8.7a7.273,7.273,0,0,0-4.689,2.419h0a9.535,9.535,0,0,0-.772,11.746l5.163,9.541-.045.066-6.652-9.607A9.535,9.535,0,0,1,101.818,11.117Z" transform="translate(-98.925 -8.224)" fill="#fff" opacity="0.41"/>
      <g id="Group_15">
        <path id="Path_41" d="M199.469,108.8a3.2,3.2,0,1,1,3.2-3.2,3.2,3.2,0,0,1-3.2,3.2Zm0-5.49a2.287,2.287,0,1,0,2.287,2.287,2.287,2.287,0,0,0-2.287-2.287Z" transform="translate(-190.616 -96.91)"/>
        <path id="Path_42" d="M99.621,24.7a.458.458,0,0,1-.376-.2L92.592,14.9a9.993,9.993,0,0,1,.825-12.33,8.772,8.772,0,0,1,12.406,0,10,10,0,0,1,.815,12.344L100,24.506A.458.458,0,0,1,99.621,24.7Zm0-23.788a7.807,7.807,0,0,0-5.556,2.3,9.029,9.029,0,0,0-.73,11.148l6.286,9.077,6.276-9.064a9.032,9.032,0,0,0-.72-11.162A7.807,7.807,0,0,0,99.621.915Z" transform="translate(-90.848 0)"/>
      </g>
    </g>
    <path id="Path_95" d="M83.484,56.82A19.054,19.054,0,0,1,56.82,83.484,19.053,19.053,0,1,0,83.484,56.82Z" transform="translate(-52.463 -51.879)" fill="rgba(248,96,13,0.42)"/>
    <path id="Path_100" d="M37.626,11.77a19.564,19.564,0,0,0-4.45-6.35.58.58,0,0,0-.8.839,18.455,18.455,0,0,1,1.9,24.617,6.473,6.473,0,0,1-.8.974,18.444,18.444,0,0,1-27.683,0c-.4-.454-.53-.618-.8-.975A18.469,18.469,0,0,1,30.5,4.694a.58.58,0,1,0,.683-.937A19.485,19.485,0,0,0,19.632,0a20.136,20.136,0,0,0-7.146,1.335A19.142,19.142,0,0,0,5.75,5.75,19.632,19.632,0,0,0,33.514,33.514,19.652,19.652,0,0,0,37.626,11.77Z" transform="translate(0 0)"/>
  </g>
</svg>
