<svg xmlns="http://www.w3.org/2000/svg" xmlns:xlink="http://www.w3.org/1999/xlink" width="39.264" height="39.268" viewBox="0 0 39.264 39.268">
  <defs>
    <linearGradient id="linear-gradient" x1="0.5" x2="0.5" y2="1" gradientUnits="objectBoundingBox">
      <stop offset="0" stop-color="#fe9861"/>
      <stop offset="1" stop-color="#ff5a00"/>
    </linearGradient>
  </defs>
  <g id="Group_30" transform="translate(0 0)">
    <circle id="Ellipse_17" cx="19.052" cy="19.052" r="19.052" transform="translate(0.618 0.618)" fill="url(#linear-gradient)"/>
    <g id="logout" transform="translate(10.079 8.844)">
      <path id="Path_85" d="M39.81,16.909a2.82,2.82,0,0,1-2.817,2.817H34.411a.937.937,0,0,1-.877-.6L26.727,1.281A.938.938,0,0,1,27.6.008h9.389A2.82,2.82,0,0,1,39.81,2.825Zm0,0" transform="translate(-25.491 -0.008)" fill="#9197a7"/>
      <path id="Path_86" d="M23.981,19.059v16.9a1.174,1.174,0,0,1-1.174,1.174,1.252,1.252,0,0,1-.376-.056L16.8,35.2a1.189,1.189,0,0,1-.8-1.117v-16.9a1.174,1.174,0,0,1,1.174-1.174,1.252,1.252,0,0,1,.375.056l5.634,1.878A1.189,1.189,0,0,1,23.981,19.059Zm0,0" transform="translate(-15.296 -15.304)" fill="#6d7486"/>
      <path id="Path_87" d="M6.913,22.515,1.272,20.634A1.887,1.887,0,0,1,0,18.852V1.951A1.891,1.891,0,0,1,2.476.167L8.117,2.047A1.887,1.887,0,0,1,9.389,3.829v16.9a1.88,1.88,0,0,1-1.878,1.878,1.97,1.97,0,0,1-.6-.093ZM1.408,1.951v16.9a.485.485,0,0,0,.316.45l5.618,1.873a.491.491,0,0,0,.638-.445V3.829a.485.485,0,0,0-.316-.45L2.046,1.507a.534.534,0,0,0-.168-.025.47.47,0,0,0-.47.47Zm0,0" transform="translate(0 -0.073)" fill="#64b5f6"/>
      <path id="Path_88" d="M286.956,209.416h-8.92a.7.7,0,0,1,0-1.408h8.92a.7.7,0,1,1,0,1.408Zm0,0" transform="translate(-265.126 -198.853)"/>
      <path id="Path_89" d="M400.708,136.422a.7.7,0,0,1-.5-1.2l3.023-3.023-3.023-3.023a.7.7,0,1,1,1-1l3.521,3.521a.7.7,0,0,1,0,1l-3.521,3.521A.7.7,0,0,1,400.708,136.422Zm0,0" transform="translate(-382.399 -122.338)"/>
      <path id="Path_90" d="M7.511,22.543a1.935,1.935,0,0,1-.582-.087L1.278,20.573A1.9,1.9,0,0,1,0,18.787V1.886A1.88,1.88,0,0,1,1.878.008,1.937,1.937,0,0,1,2.46.1L8.11,1.978A1.9,1.9,0,0,1,9.389,3.764v16.9a1.88,1.88,0,0,1-1.878,1.878ZM1.878,1.416a.471.471,0,0,0-.47.47v16.9a.488.488,0,0,0,.326.453l5.624,1.874a.51.51,0,0,0,.153.021.471.471,0,0,0,.469-.47V3.764a.488.488,0,0,0-.326-.453L2.031,1.437a.51.51,0,0,0-.153-.021Zm0,0" transform="translate(0 -0.008)"/>
      <path id="Path_91" d="M39.813,7.52a.7.7,0,0,1-.7-.7V2.59a1.175,1.175,0,0,0-1.174-1.174H27.372a.7.7,0,0,1,0-1.408H37.935A2.584,2.584,0,0,1,40.517,2.59V6.815A.7.7,0,0,1,39.813,7.52Zm0,0" transform="translate(-25.494 -0.008)"/>
      <path id="Path_92" d="M185.792,284.852h-3.756a.7.7,0,1,1,0-1.408h3.756a1.175,1.175,0,0,0,1.174-1.174v-4.225a.7.7,0,1,1,1.408,0v4.225A2.584,2.584,0,0,1,185.792,284.852Zm0,0" transform="translate(-173.351 -265.134)"/>
    </g>
    <path id="Path_98" d="M83.484,56.82A19.054,19.054,0,0,1,56.82,83.484,19.053,19.053,0,1,0,83.484,56.82Z" transform="translate(-52.463 -51.879)" fill="rgba(255,90,0,0.41)"/>
    <path id="Path_101" d="M37.626,11.77a19.564,19.564,0,0,0-4.45-6.35.58.58,0,0,0-.8.839,18.455,18.455,0,0,1,1.9,24.617,6.473,6.473,0,0,1-.8.974,18.444,18.444,0,0,1-27.683,0c-.4-.454-.53-.618-.8-.975A18.469,18.469,0,0,1,30.5,4.694a.58.58,0,1,0,.683-.937A19.485,19.485,0,0,0,19.632,0a20.136,20.136,0,0,0-7.146,1.335A19.142,19.142,0,0,0,5.75,5.75,19.632,19.632,0,0,0,33.514,33.514,19.652,19.652,0,0,0,37.626,11.77Z" transform="translate(0 0)"/>
  </g>
</svg>
