 <svg xmlns="http://www.w3.org/2000/svg" width="229.18" height="264.245" viewBox="72.82 206 229.18 264.245"><g data-name="Vector"><path d="M301.217 416.273c-.19 3.54-.838 10.808-5.728 10.808h-.244a5.107 5.107 0 0 1-1.756-.487 4.917 4.917 0 0 1-.73-.405 8.727 8.727 0 0 1-3.134-7.836 10.403 10.403 0 0 0-.27-2.702 9.322 9.322 0 0 0-.324-1.243.864.864 0 0 1 0-.243 17.33 17.33 0 0 0-.595-1.216 4.756 4.756 0 0 0-.378-.621.243.243 0 0 0 0-.162 1.73 1.73 0 0 0-.27-.351 7.485 7.485 0 0 0-.973-1.081l-.162-.162c-.405-.352-.783-.703-1.162-1-1.432-1.216-2.702-2.053-2.54-3.594.217-3.62 2.702-8.295 6.134-7.268 0 0 .865-4.323-1.513-5.404-1.513-.756 0-1.162.918-1.243 1.568-.135 3.135.487 4.81.352.103-.096.212-.186.324-.27a7.079 7.079 0 0 1 2 0h.162a4.54 4.54 0 0 1 3.242 2.701c.467 1.375.705 2.817.703 4.27.27 5.863 1.81 11.24 1.486 17.157Z" fill="#3b2645" fill-rule="evenodd" data-name="Vector"/><path d="M291.138 408.356c-.216.567-.675.81-1.162 1.135-.56.394-1.094.827-1.594 1.297a8.565 8.565 0 0 0-.783.946 7.485 7.485 0 0 0-.973-1.081l-.162-.162c.183-.255.382-.499.594-.73.81-.892 2.405-2.54 3.702-2.134a.594.594 0 0 1 .378.73ZM292.381 411.49a23.94 23.94 0 0 1-3.431 2.702 17.33 17.33 0 0 0-.595-1.216 6.242 6.242 0 0 1 3.648-2.134.46.46 0 0 1 .378.648ZM301.216 416.273c-.189 3.54-.837 10.808-5.728 10.808h-.243a5.106 5.106 0 0 1-1.756-.487c7.214-2.702 5.62-12.213 4.944-18.913a53.31 53.31 0 0 0-2.513-15.537 4.485 4.485 0 0 1 3.108 2.702c.467 1.375.704 2.817.702 4.27.27 5.863 1.81 11.24 1.486 17.157Z" fill="#e8cee5" fill-rule="evenodd" data-name="Vector"/><path d="M155.825 272.69s-.73 3.216-1.946 8.107a208.051 208.051 0 0 1-9.889 30.559 36.099 36.099 0 0 1-4.242 7.43c-7.592 9.62-38.125-12.402-42.015-15.266a1.567 1.567 0 0 0-.892-.324c-2.162 0-10.808-.46-10.619-6.43.162-6.512 4.648-14.7 14.456-5.405 6.052 5.702 27.425 12.78 27.425 12.78l6.944-45.014a3.08 3.08 0 0 1 5.16-1.756c3.81 3.54 9.7 9.24 15.618 15.32Z" fill="#ffede5" fill-rule="evenodd" data-name="Vector"/><path d="M153.852 280.689a208.05 208.05 0 0 1-9.862 30.667c-.136-12.97-.433-30.83-.433-30.83a11.051 11.051 0 0 1 10.295.163Z" fill="#e0855c" fill-rule="evenodd" data-name="Vector"/><path d="M178.196 351.75c-5.647 4-11.942 7.863-18.21 11.673-3 1.81-5.864 3.62-8.566 5.404a262.411 262.411 0 0 0-22.966 17.13c3.16 3.783 6.457 12.483 9.43 22.372 5.97 19.886 10.807 44.663 10.807 44.663-5.404 4.945-9.97 2.702-9.97 2.702-4.242-8.106-13.375-25.641-21.075-41.772-7.215-14.996-13.159-28.965-12.564-33.396.594-4.431 12.266-17.238 24.317-29.56 13.51-13.51 27.344-26.533 27.344-26.533a88.813 88.813 0 0 1 17.482-14.482c6.457-3.81 13.51-5.998 18.913-2.432a15.996 15.996 0 0 1 5.918 7.89c.199.467.37.945.513 1.432 4.134 13.158-6.566 24.507-21.372 34.91Z" fill="#ffede5" fill-rule="evenodd" data-name="Vector"/><path d="M287.599 405.33c-14.86.702-30.289 2.405-42.799 3.377-10.808.865-19.346 1.243-23.453 0-8.106-2.323-21.048-21.291-29.721-35.125-5.107-8.268-8.782-14.726-8.782-14.726s-2.134-2.702-4.728-7.106c-6.836-11.43-16.806-33.288 2.702-39.205 8.376-2.54 14.05-.649 18.562 4.296 6.053 6.62 10.024 18.697 15.671 33.153l15.537 38.61a60.875 60.875 0 0 1 13.915-1.27 230.315 230.315 0 0 1 44.042 6c4.647 5.781-.946 11.996-.946 11.996Z" fill="#ffede5" fill-rule="evenodd" data-name="Vector"/><path d="M149.853 230.973c-.649.189-1.918-2.405-2.108-2.702a15.077 15.077 0 0 1-2.485-7.025 14.753 14.753 0 0 1 1.459-8.35 15.131 15.131 0 0 1 10.564-6.43 21.427 21.427 0 0 1 8.89 0 13.105 13.105 0 0 1 7.457 4.647 10.808 10.808 0 0 1 1.648 9.322c-1.189 3.81-4.81 3.864-8.106 4.945-5.62 1.837-11.294 3.512-16.995 5.08-.027.026-.135.405-.324.513Z" fill="#3b2645" fill-rule="evenodd" data-name="Vector"/><path d="M148.664 225.947a66.82 66.82 0 0 1 1.756 8.241c-2.999.405-8.024-4.026-6.322-7.268a2.891 2.891 0 0 1 4.566-.973Z" fill="#e0855c" fill-rule="evenodd" data-name="Vector"/><path d="M198.11 248.698a170.223 170.223 0 0 0-2.837 27.262v2.46c.351 5.646 3.242 32.26 3.783 36.449v.54c-18.184 9.457-39.206 9.051-41.88 9.024h-.298a10.942 10.942 0 0 0-.351-1.134c-1.621-4.89-7.89-25.02-12.942-42.772 0-.27-.163-.514-.244-.81-2.702-9.133-6.511-16.213-7.538-21.427-.378-1.973 5.836-4.242 8.862-5.404.433-.19.892-.325 1.378-.487 2.378-.837 4.837-1.54 6.81-2.053l4.08-.946-1.27-10.808h1.08a16.05 16.05 0 0 0 2.027-.216 19.402 19.402 0 0 0 2.458-.567l1.135-.351 1.486-.622c.792-.333 1.56-.72 2.297-1.162.166-.072.329-.153.486-.243a.162.162 0 0 0 .162 0l.514-.324a17.724 17.724 0 0 0 2.54-2.027c.432-.405.81-.756 1.107-1.08l.19-.217a2.54 2.54 0 0 0 .378-.432c.104-.095.195-.204.27-.324v.756c0 1.784.378 4.026.756 6.269.217 1.54.46 3.053.703 4.377.432 2.27.784 3.918.784 3.918.49-.119.986-.209 1.486-.27H176.494a49.366 49.366 0 0 1 5.755-.514h2.351c4.277.067 8.52.768 12.591 2.08a1.162 1.162 0 0 1 .919 1.055Z" fill="#ffede5" fill-rule="evenodd" data-name="Vector"/><path d="M172.036 230.919a13.347 13.347 0 0 1-15.617 13.51l-.649-5.594a21.616 21.616 0 0 0 16.266-7.916Z" fill="#e0855c" fill-rule="evenodd" data-name="Vector"/><path d="M167.956 213.14c2.513 2.026 2.891 7.187 3.405 12.834 1.054 11.294-4.783 14.969-10.997 15.618-6.215.648-10.538-2.297-12.7-14.267-.702-4.026-1.35-7.511-.161-9.43 3.62-5.836 16.698-7.673 20.453-4.755Z" fill="#ffede5" fill-rule="evenodd" data-name="Vector"/><path d="M170.199 224.623s.784-5.404 4.269-3.35c3.486 2.053 1.027 10.294-3.567 10.808 0-.162-1.783-5.54-.702-7.458Z" fill="#ffede5" fill-rule="evenodd" data-name="Vector"/><path d="M152.825 225.92s-.946.622-1.189-1.243c-.243-1.864.568-1.594.568-1.594s.702-.162.918 1.297c.216 1.46-.297 1.54-.297 1.54ZM163.228 223.705s-.946.594-1.19-1.243c-.242-1.838.568-1.594.568-1.594s.703-.163.919 1.296c.216 1.46-.297 1.54-.297 1.54Z" fill="#3b2645" fill-rule="evenodd" data-name="Vector"/><path d="M158.445 230.243c-.756.162-1.54.162-2.296.324a.243.243 0 0 1-.325-.27 58.065 58.065 0 0 1 .622-9.538h.189a44.905 44.905 0 0 1-.135 5.161 15.375 15.375 0 0 0 0 3.864c.378.594 1.513 0 2.026 0 .27-.027.27.405-.08.46Z" fill="#e0855c" fill-rule="evenodd" data-name="Vector"/><path d="M152.984 220.354a.372.372 0 0 1-.456.513 2.945 2.945 0 0 0-1.19 0c-.35.109-.648.46-.999.46a.216.216 0 0 1-.27-.297c.486-.865 1.864-1.081 2.702-.865.093.032.17.1.213.189ZM163.47 219.084a4.323 4.323 0 0 0-1.188 0c-.46.138-.93.237-1.405.297a.324.324 0 0 1-.243-.486 2.189 2.189 0 0 1 3.134-.135c.162.19-.081.46-.297.324Z" fill="#3b2645" fill-rule="evenodd" data-name="Vector"/><path d="M162.093 232.08a4.377 4.377 0 0 1-3.377 2.27c-.892.135-2.73.325-3.054-.837a.19.19 0 0 1 .162-.244c.379-.027.379.163.757.163.673.176 1.38.176 2.053 0 1.378-.244 2-1.135 3.162-1.73.189-.08.378.162.297.379Z" fill="#e0855c" fill-rule="evenodd" data-name="Vector"/><path d="M219.32 360.315c-.81.595-1.567 1.162-2.35 1.676-.784.513-1.244.864-1.865 1.27a67.549 67.549 0 0 1-23.453 10.32c-5.134-8.267-8.808-14.725-8.808-14.725s-2.135-2.702-4.729-7.106c-5.647 3.999-11.942 7.863-18.21 11.673-3 1.81-5.864 3.62-8.566 5.403-2.567-1.54-4.89-3.08-6.998-4.566a77.438 77.438 0 0 1-14.915-13.293c13.51-13.51 27.344-26.534 27.344-26.534a88.813 88.813 0 0 1 17.482-14.482 48.23 48.23 0 0 1 18.913-2.432 15.996 15.996 0 0 1 5.89 7.89c.2.467.371.945.514 1.432 6.052 6.62 10.024 18.697 15.671 33.153 1.432 3.62 2.73 7.025 4.08 10.321Z" fill="#ab8da8" fill-rule="evenodd" data-name="Vector"/><path d="M148.637 452.992c-5.404 4.945-9.97 2.702-9.97 2.702-4.242-8.106-13.375-25.641-21.075-41.772a96.081 96.081 0 0 0 20.292-5.566c5.97 19.86 10.753 44.636 10.753 44.636Z" fill="#e8cee5" fill-rule="evenodd" data-name="Vector"/><path d="M151.474 456.613c.041.25.041.506 0 .756a4.864 4.864 0 0 1-1.756 3.027 14.564 14.564 0 0 1-3.864 2c-5.404 2.188-10.024 5.403-15.752 6.835-3.405.892-10.457 2.513-12.024-2.134a1.784 1.784 0 0 1 0-.244 5.404 5.404 0 0 1 0-1.432c.028-.4.091-.799.19-1.189.513-1.783 2.107-3.998 6.484-5.403.87-.267 1.706-.639 2.486-1.108.365-.203.717-.429 1.054-.676l.216-.189c.4-.317.771-.67 1.108-1.054l.35-.405.136-.162.378-.595a7.62 7.62 0 0 0 .568-1.026c.297-.622.513-1.135.702-1.594.676-1.73 1.135-3.135 2.702-3.513 3.513-.919 8.7 0 8.835 3.567 0 0 4.378-.514 4.729-3.135.243-1.675 1.135-.378 1.486.487.594 1.459.513 3.134 1.162 4.647 0 .216.189.378.27.594.324.591.552 1.23.675 1.892a.46.46 0 0 1-.135.054Z" fill="#3b2645" fill-rule="evenodd" data-name="Vector"/><path d="M287.599 405.33c-14.86.702-30.289 2.405-42.799 3.377a53.445 53.445 0 0 0 1-13.51 31.504 31.504 0 0 0-1.135-7.943 230.315 230.315 0 0 1 44.042 5.998c4.485 5.863-1.108 12.078-1.108 12.078ZM132.263 461.017c-1.188-1.243-2.27-2.567-3.512-3.783l-.405-.378c.4-.317.77-.67 1.107-1.054.162.162.298.325.46.46a23.696 23.696 0 0 1 3.323 3.836c.405.622-.432 1.487-.973.92ZM135.425 457.424a.567.567 0 0 1-.757.729 23.291 23.291 0 0 1-3.35-2.702 9.67 9.67 0 0 0-1-.756 7.62 7.62 0 0 0 .567-1.027c.401.157.775.375 1.108.648a8.538 8.538 0 0 1 3.432 3.108ZM151.447 457.37a4.864 4.864 0 0 1-1.756 3.026 14.564 14.564 0 0 1-3.864 2c-5.404 2.188-10.024 5.403-15.752 6.835-3.405.892-10.457 2.513-12.024-2.134a1.784 1.784 0 0 1 0-.244 5.404 5.404 0 0 1 0-1.432c6.782 4.567 13.294.406 20.184-1.81 5.025-1.648 10.105-2.62 13.212-6.241ZM216.97 361.99a37.98 37.98 0 0 1-1.865 1.27c-6.592-15.86-12.564-32.18-21.318-46.77-.46-.757.594-1.568 1.135-.811 5.404 7.43 8.727 16.617 12.537 24.966 3.242 6.971 6.539 14.131 9.51 21.346Z" fill="#e8cee5" fill-rule="evenodd" data-name="Vector"/><path d="M178.197 351.75c-5.648 3.999-11.943 7.863-18.212 11.673-2.999 1.81-5.863 3.62-8.565 5.403-2.567-1.54-4.89-3.08-6.998-4.566 19.346-11.024 33.396-12.483 33.775-12.51Z" fill="#826b80" fill-rule="evenodd" data-name="Vector"/><path d="M199.055 315.409c-18.184 9.457-39.205 9.105-41.88 9.024h-.297l-.351-1.053c-1.621-4.89-7.89-25.02-12.943-42.772 2.702-9.079 2.702-23.156 2.46-28.047 2.377-.837 4.836-1.54 6.808-2.053.135 4.755 1.405 16.617 10.538 16.941 10.807.378 12.888-14.915 13.266-21.615a49.366 49.366 0 0 1 5.755-.514h2.351c-.564 4.5-.41 9.06.46 13.51a40.205 40.205 0 0 0 10.105 19.832c.162 2.864.945 10.97 1.756 18.914.81 7.944 1.972 17.833 1.972 17.833Z" fill="#3b2645" fill-rule="evenodd" data-name="Vector"/><path d="M195.354 278.662c0 2.702.918 10.808 1.729 18.914a64.388 64.388 0 0 1-11.889-38.638 40.205 40.205 0 0 0 10.133 19.724Z" fill="#291b30" fill-rule="evenodd" data-name="Vector"/><path d="M108.297 295.28a28.343 28.343 0 0 1-5.404 11.699c-1.108 1.189-3.864.432-3.27-1.513 1.136-3.729 3.027-7.16 4.08-10.97.784-2.81 5.27-2.054 4.594.783ZM150.853 243.942a20.751 20.751 0 0 1-3.054-6.863c-.432-2.026-.405-4.107-.73-6.16-.134-.946.244-2.513 1.244-1.162.648.865.162 2.918.162 3.945.006 1.034.16 2.063.46 3.053a17.428 17.428 0 0 0 2.458 6.052c1.648 2.648 3.81 5.026 5.404 7.728a29.424 29.424 0 0 1 2.702 6.512 20.184 20.184 0 0 1 5.944-11.51 16.725 16.725 0 0 0 5.053-10.079c.189-1.675.27-3.35.432-4.999.238-1.564.329-3.147.27-4.728a1.135 1.135 0 0 1 0-.432.567.567 0 0 1 .568-.297c.22.032.425.126.594.27a1.702 1.702 0 0 1 .703 1.432 2.432 2.432 0 0 1-.216.621 21.913 21.913 0 0 0-1.433 7.323 17.725 17.725 0 0 1-2.08 7.349 41.853 41.853 0 0 1-4.945 5.89 23.453 23.453 0 0 0-4.512 10.403c.676 2.431 1.189 4.917 1.783 7.403l-.73 1.135c-2.053-6.35-2.755-12.943-6.862-18.67a7.51 7.51 0 0 0-.703-.92c-.675-.837-1.35-1.648-1.999-2.54l-.513-.756Z" fill="#ab8da8" fill-rule="evenodd" data-name="Vector"/><path d="M180.33 300.9c.082.35-.35.594-.62.486-.27-.108-.46-.622-.46-.865a11.375 11.375 0 0 0-1.81-2.945 1.918 1.918 0 0 0-1.135-.54 2 2 0 0 0-.973.162 2.702 2.702 0 0 0-1.567.837c-.202.265-.35.569-.432.892a16.671 16.671 0 0 0-.216 4.918c.108 1.945.513 3.863.513 5.809a6.998 6.998 0 0 1-2.297 5.998c-4.35 3.107-8.295-2.162-8.592-5.863-.297-3.702-.297-6.242-3-8.944a12.537 12.537 0 0 1-2.188-2.702 11.132 11.132 0 0 1 0-8.538 63.199 63.199 0 0 0 3.054-14.996 106.727 106.727 0 0 0-1.162-14.077c3.296 7.16 2.513 16.806.594 24.318-1.486 5.809-4.08 10.24.865 15.428a8.7 8.7 0 0 1 2.89 6.377c.136 2.837-.242 4.944 1.649 7.322a4.053 4.053 0 0 0 1.783 1.459 3.702 3.702 0 0 0 1.54 0 4.485 4.485 0 0 0 1.676-.405 5.863 5.863 0 0 0 2.188-4.486 40.043 40.043 0 0 0-.351-5.971c-.054-2.27-.378-5.728 1.297-7.674 3.161-3.62 6.08 1.297 6.755 4Z" fill="#ab8da8" fill-rule="evenodd" data-name="Vector"/><path d="m177.982 301.175 6.094-2.976a2.918 2.918 0 0 1 3.903 1.342l7.434 15.222a2.918 2.918 0 0 1-1.341 3.903l-6.094 2.976a2.918 2.918 0 0 1-3.903-1.341l-7.434-15.223a2.918 2.918 0 0 1 1.341-3.903Z" fill="#e8cee5" fill-rule="evenodd" data-name="Vector"/><path d="M196.11 247.428a2.702 2.702 0 0 1 2.405.675c5.404 5.107 31.262 30.667 33.559 41.8 2.404 11.645-32.883 20.588-37.422 21.615-.309.07-.585.24-.784.486-1.351 1.568-7.025 7.647-11.375 3.864-4.35-3.783-8.106-12.59 4.944-14.131 7.971-.946 26.507-12.402 26.507-12.402l-22.265-17.05s-7.24-22.29 4.432-24.857Z" fill="#ffede5" fill-rule="evenodd" data-name="Vector"/><path d="M224.86 388.659a.567.567 0 1 1 0 1.135c-10.62.594-21.373.027-31.992 0s-21.4.432-31.991-.325a.243.243 0 0 1 0-.459c10.592-.756 21.372-.351 31.991-.351s21.372-.622 31.991 0ZM301.433 345.833a.567.567 0 0 1 0 1.135c-11.754.594-23.67.189-35.369.162-11.7-.027-23.696.73-35.368-.297a.432.432 0 0 1 0-.865c11.672-1.054 23.615-.324 35.368-.324 11.754 0 23.615-.433 35.369.189ZM121.24 330.567a.621.621 0 0 1 0 1.243c-7.863.351-15.97 0-24.075 0-8.035.32-16.08.194-24.102-.379a.243.243 0 0 1 0-.486c8.02-.586 16.067-.712 24.102-.378 7.998-.135 16.104-.487 24.074 0ZM129.345 336.484a.46.46 0 0 1 0 .892c-8.553.78-17.163.68-25.696-.298v-.27c8.531-1 17.143-1.108 25.696-.324ZM270.67 230.235a.594.594 0 0 1-.337.954c-11.132.621-22.426.19-33.558.162-11.133-.027-22.427.351-33.559-.432a.324.324 0 1 1 0-.649c11.132-.783 22.4-.378 33.559-.405 11.159-.027 22.426-.46 33.558.162a.594.594 0 0 1 .337.208Z" fill="#f7f8f8" fill-rule="evenodd" data-name="Vector"/></g></svg>