<svg xmlns="http://www.w3.org/2000/svg" width="51" height="51" viewBox="0.261 0.309 51 51"><g data-name="Bg"><path d="M12 0h27a12 12 0 0 1 12 12v27a12 12 0 0 1-12 12H12A12 12 0 0 1 0 39V12A12 12 0 0 1 12 0z" fill-rule="evenodd" fill="url(&quot;#a&quot;)" transform="translate(.26 .31)" data-name="Rectangle 5894"/><g data-name="glass-of-milk 1"><g data-name="Group"><g data-name="Layer 2"><g data-name="OBJECTS"><path d="M20.311 12.49c.456-.043.91-.073 1.366-.087.256-.013.514-.016.773-.018 1.788-.05 3.58.032 5.358.246 1.747.223 3.456.692 5.076 1.393.784.341 1.787 1.259 1.146 2.184-.32.376-.728.667-1.188.85a37.057 37.057 0 0 1-5.746 2.42 20.475 20.475 0 0 1-13.552-.749 9.857 9.857 0 0 1-2.436-1.447c-.814-.68-.978-1.05-.028-1.719a19.88 19.88 0 0 1 9.231-3.073Z" fill="#d88121" fill-rule="evenodd" data-name="Vector"/><path d="M31.692 15.745a8.923 8.923 0 0 1-3.17 4.303 9.02 9.02 0 0 1-5.083 1.702c-2.017-.021-4-.55-5.765-1.536a22.658 22.658 0 0 1-2.302-1.391c-.77-.44-1.492-.96-2.151-1.553-.655-.739.432-1.002.991-1.258.75-.34 1.52-.636 2.307-.886a22.395 22.395 0 0 1 9.89-.828c.428.061 5.389 1.146 5.283 1.447Z" fill="#fff" fill-rule="evenodd" data-name="Vector"/><path d="M32.123 14.637a1.51 1.51 0 0 1 1.462.18 1.523 1.523 0 0 1 .625 1.331c-.345 5.1-.75 10.192-1.032 15.29-.028.407-.055.82-.096 1.225-.22 2.045-.716 4.132-2.06 5.704a8.809 8.809 0 0 1-4.766 2.715c-1.83.368-3.697.532-5.567.487a9.536 9.536 0 0 1-3.957-.934c-1.55-.759-2.296-2.001-2.936-3.607-1.295-3.138-1.873-6.443-2.298-9.783-.426-3.34-.9-6.549-1.148-9.821-.202-2.653 2.354-1.216 4.09-.948a33.7 33.7 0 0 0 13.11-.4 40.28 40.28 0 0 0 4.573-1.439Z" fill="#f4bc2f" fill-rule="evenodd" data-name="Vector"/><path d="M34.47 35.12a3.301 3.301 0 0 1-1.078-.116 3.826 3.826 0 0 1-1.728-1.113 3.8 3.8 0 0 1-.9-1.842 4.52 4.52 0 0 1 .996-3.634c.93-1.138 2.212-1.728 3.463-2.304l.595-.292a8.926 8.926 0 0 0 2.44-1.591 3.892 3.892 0 0 0 1.225-2.232 2.28 2.28 0 0 0-.101-1.095 2.307 2.307 0 0 0-.603-.925 2.406 2.406 0 0 0-2.278-.308c-.871.349-1.614.952-2.132 1.731a15.694 15.694 0 0 0-1.471 2.805.975.975 0 0 1-.93.68.997.997 0 0 1-1-1.074.977.977 0 0 1 .117-.39c.442-1.12 1-2.19 1.665-3.193a6.428 6.428 0 0 1 3.12-2.441 4.35 4.35 0 0 1 2.172-.205 4.389 4.389 0 0 1 2.007.875c.535.472.945 1.07 1.191 1.739.247.668.321 1.386.218 2.088a5.86 5.86 0 0 1-1.8 3.373 10.602 10.602 0 0 1-2.972 1.955l-.63.295c-1.09.5-2.112.977-2.755 1.785a2.557 2.557 0 0 0-.596 2.006 1.823 1.823 0 0 0 1.213 1.437c.272.073.56.057.822-.046.262-.103.483-.287.63-.525a.984.984 0 0 0 .012-.76.792.792 0 0 0-.402-.479.998.998 0 0 1-.483-.545.982.982 0 0 1 .527-1.236c.23-.1.49-.108.726-.025a2.78 2.78 0 0 1 1.484 1.61 2.91 2.91 0 0 1-.097 2.314c-.258.488-.64.899-1.108 1.193a3.185 3.185 0 0 1-1.559.485Z" fill="#f4bc2f" fill-rule="evenodd" data-name="Vector"/><path d="M29.589 38.33c.278.2.476.493.557.824a8.741 8.741 0 0 1-2.551 1.48c-.701-.858-.405-2.493 1.035-2.574.34-.027.68.069.959.27ZM28.488 27.14c-1.995.113-2.199-2.976-.205-3.093 2-.114 2.2 2.98.205 3.093ZM33.086 32.54c-1.96.053-2.143-2.969-.17-3.088.117-.004.233.001.349.016-.03.643-.075 1.289-.108 1.938-.023.378-.045.767-.071 1.134ZM25.482 18.655c2-.114 2.203 2.975.21 3.092-2 .114-2.21-2.978-.21-3.092ZM33.623 16.563c.193-.02.39-.005.578.044-.069 1.001-.14 2.003-.212 3.005l-.163.038c-1.997.119-2.202-2.973-.203-3.087ZM26.837 34.568c-1.999.119-2.202-2.97-.21-3.087 2-.12 2.209 2.968.21 3.087ZM12.19 31.888a70.042 70.042 0 0 1-.513-3.041l.038-.009c1.894-.107 2.177 2.69.476 3.05ZM20.643 41.555a8.318 8.318 0 0 1-1.84-.216 1.504 1.504 0 0 1 .161-1.334 1.492 1.492 0 0 1 1.168-.666 1.562 1.562 0 0 1 1.627 1.43c.022.265-.025.531-.137.772l-.98.014ZM20.249 27.645c-1.999.119-2.197-2.97-.204-3.089 1.999-.119 2.203 2.97.204 3.089ZM11.408 25.224l-.194.005c-.128-1.007-.262-2.018-.39-3.025.12-.042.243-.07.37-.086 1.995-.119 2.2 2.972.214 3.106ZM18.488 35.647c-1.994.118-2.197-2.97-.204-3.088 1.998-.12 2.197 2.97.204 3.088ZM16.323 18.803c1.998-.119 2.202 2.97.203 3.089-1.993.117-2.202-2.97-.203-3.089Z" fill="#fff" fill-rule="evenodd" data-name="Vector"/><path d="M31.02 38.364a8.811 8.811 0 0 1-4.757 2.713c-1.83.369-3.699.533-5.569.488a9.538 9.538 0 0 1-3.958-.934c-1.392-.676-2.126-1.744-2.735-3.105 2.3.571 4.7.576 6.993.014a12.707 12.707 0 0 0 6.908-4.467c2.277-2.97 3.06-6.877 3.183-10.632.062-1.46.056-2.914.05-4.374-.006-1.025-.008-2.057.01-3.081.306-.111.618-.223.938-.35a1.511 1.511 0 0 1 1.462.18 1.523 1.523 0 0 1 .625 1.332c-.345 5.102-.75 10.195-1.032 15.294-.029.407-.055.82-.096 1.226-.192 2.04-.705 4.13-2.022 5.696Z" fill="#e8e8e8" fill-rule="evenodd" data-name="Vector"/></g></g></g></g></g><defs><linearGradient x1="1" y1="1" x2="0" y2="0" id="a"><stop stop-color="#f8600d" offset="0"/><stop stop-color="#eec4a4" offset="1"/></linearGradient></defs></svg>