<svg xmlns="http://www.w3.org/2000/svg" width="51" height="52" viewBox="0.261 -0.328 51 52"><g data-name="Bg"><path d="M12 0h27a12 12 0 0 1 12 12v28a12 12 0 0 1-12 12H12A12 12 0 0 1 0 40V12A12 12 0 0 1 12 0z" fill-rule="evenodd" fill="url(&quot;#a&quot;)" transform="translate(.26 -.328)" data-name="Rectangle 5893"/><g data-name="chicken steak"><g data-name="Group"><path d="M7.285 24.811c.416-.744 1.248-1.629 1.941-2.187 1.202-.978 2.45-1.024 3.93-1.257.37-.047.693-.14 1.063-.233.648-.186 1.295-.419 1.988-.512 1.341-.186 2.82-.186 4.207-.186 2.96-.046 6.01.698 8.784 1.862 1.11.465 2.266.838 3.514 1.117 2.034.465 4.16.652 6.241.652.463 0 .925 0 1.387-.047.74-.046 1.48-.326 2.266-.233.97.093 1.756.28 2.311.699.509.419.832 1.024.832 2.048 0 .837-.138 1.908-.462 2.792-.185.466-.37.885-.647 1.257-1.202 1.676-3.19 2.234-5.04 2.84-.277.046-.508.14-.74.232-2.218.838-4.576.512-6.841.047-.324-.047-.601-.14-.925-.186-1.295-.28-2.312-.559-3.699-.559-1.387.047-2.635.186-3.976.512-1.479.326-2.773.884-4.3.977-1.294.047-2.218-.698-3.42-.93-.185-.047-.416-.094-.647-.187-1.295-.419-2.497-1.256-3.838-1.49-1.294-.232-3.328.42-4.392-.511-.23-.186-.416-.466-.555-.791-.647-1.676.185-4.422 1.018-5.726Z" fill="#b0502e" fill-rule="evenodd" data-name="Vector"/><path d="M31.741 25.929c0-.885.093-1.862.786-2.374 0-.047.046-.093.093-.093.462-.28 1.017-.326 1.572-.326 1.618 0 3.236.372 4.715.977.601.233 1.156.512 1.71.838.694.42 1.388.931 1.526 1.722.093.466-.046.978-.138 1.443-.278 1.397-.416 2.84-1.156 4.003-.324.512-.786.978-1.248 1.35-.278.047-.509.14-.74.233-2.22.838-4.577.512-6.842.046-.14-.419-.185-.884-.185-1.303-.139-2.188-.185-4.375-.093-6.516Z" fill="#c75a34" fill-rule="evenodd" data-name="Vector"/><path d="M8.487 27.092c-1.11-.744-1.11-2.28-.37-3.351.74-1.024 1.988-1.722 3.236-2.374 2.543-1.303 5.132-2.7 8.09-3.118 2.405-.326 4.855-.047 7.166.465 5.317 1.117 10.264 3.212 15.534 4.282.694.14 1.434.233 2.035.559.647.326 1.11.884 1.11 1.49-.047.837-.972 1.396-1.804 1.861-2.82 1.536-5.918 3.119-9.246 2.84-2.173-.187-4.207-1.164-6.427-1.164-2.034 0-3.976.93-6.01 1.024-3.282.186-6.287-1.676-9.57-1.862-1.294-.047-2.774.093-3.744-.652Z" fill="#d8774a" fill-rule="evenodd" data-name="Vector"/><g data-name="Group"><path d="M26.656 19.086c-2.358-.465-4.808-.698-7.213-.372-2.958.372-5.547 1.583-8.09 2.793-.462.232-.925.419-1.34.651.461-.279.924-.512 1.34-.744 2.543-1.35 5.132-2.747 8.09-3.165 2.405-.326 4.855-.047 7.166.418 3.93.838 7.629 2.188 11.466 3.305-3.837-.977-7.536-2.187-11.42-2.886ZM8.44 26.58c1.017.605 2.497.466 3.791.512 3.283.14 6.288 1.816 9.57 1.63 2.035-.094 3.976-.885 6.01-.932 2.22 0 4.254.885 6.427 1.024 3.328.233 6.426-1.163 9.292-2.513.786-.372 1.665-.884 1.757-1.583 0 .094.046.14 0 .233-.046.838-.97 1.443-1.803 1.862-2.82 1.536-5.918 3.119-9.246 2.84-2.173-.187-4.207-1.21-6.427-1.164-2.034 0-3.975.93-6.01 1.024-3.282.186-6.287-1.676-9.57-1.862-1.294-.047-2.774.093-3.79-.605-.648-.466-.925-1.164-.88-1.909.047.605.325 1.117.88 1.443Z" fill="#bf8e7d" fill-rule="evenodd" data-name="Vector"/></g><path d="M7.978 31.142c1.202.232 2.45.232 3.652.465 2.127.42 4.022 1.536 6.15 1.862 2.45.372 4.9-.28 7.35-.698 2.45-.419 4.993.093 7.397.558 4.53.885 9.431-.651 12.714-3.91-.185.466-.37.885-.647 1.257-1.341 1.862-3.699 2.328-5.733 3.026-2.497.93-5.224.372-7.767-.14-1.295-.28-2.312-.558-3.699-.558-1.387.046-2.635.186-3.976.512-1.479.325-2.773.884-4.3.977-1.294.047-2.218-.698-3.42-.93-1.526-.327-2.913-1.444-4.485-1.723-1.294-.233-3.328.419-4.392-.512-.23-.186-.416-.466-.555-.791.555.279 1.156.465 1.711.605Z" fill="#6b301c" fill-rule="evenodd" data-name="Vector"/><path d="M35.162 22.391c1.526.186 3.098.419 4.624.652.878.14 1.895.372 2.311 1.163.416.792 0 1.862-.74 2.42-.74.56-1.664.699-2.542.792-.925.093-1.85.14-2.774.14-.324 0-.601 0-.925-.047a5.56 5.56 0 0 1-.832-.233c-1.11-.325-2.22-.698-3.329-1.024-.37-.14-.832-.372-.786-.744.047-.373.463-.512.786-.605 1.064-.326 2.034-.978 2.774-1.816.231-.279.462-.558.786-.651.185-.093.416-.047.647-.047ZM21.385 26.627c.093-.838.185-1.63.278-2.467.046-.373.092-.745 0-1.117-.14-.652-.694-1.164-1.064-1.723-.37-.558-.6-1.396-.092-1.908.555-.558 1.48-.233 2.219.047 2.543 1.024 5.363.93 8.09 1.163.555.047 1.156.14 1.572.512.416.373.509 1.164 0 1.49-.37.232-.786.093-1.202.14-.554.092-.924.558-1.248 1.023-.555.838-1.248 1.77-1.248 2.793-.971.14-1.942-.419-2.959-.465-1.433-.047-2.913.93-4.346.512ZM20.183 26.766c-.138.14-.37.187-.555.187-2.126.232-4.114-1.723-6.24-1.304-.74.14-1.48.559-2.174.28-.323-.14-.555-.466-.786-.792a9.168 9.168 0 0 1-.6-1.163c1.063-.047 2.08-.512 3.143-.652 1.295-.14 2.543.233 3.791.605.462-.698-.139-1.63-.139-2.513 0-1.071 1.156-1.955 2.173-1.676-.37.838.324 1.722.832 2.513.694 1.117.971 2.514.786 3.817 0 .28-.046.512-.23.698Z" fill="#c96f45" fill-rule="evenodd" data-name="Vector"/><g data-name="Group"><path d="M21.293 20.017c.832 0 1.433.326 1.294.559.648.233.648.512 1.017.791.37.28 1.156.42 1.526.698.37.28.185.605.555.885.416.326.924.465 1.248.791.74.605 1.433 1.257 2.173 1.862.277.233 1.202.558 1.34.838.14.232-.323.326-.323.512s.462.372.509.512c-.694.046-1.202-.42-1.526-.605-.555-.326-.37-.466-.647-.838-.185-.28-.971-.559-1.341-.791-.324-.233-.462-.513-.693-.745-.509-.559-1.526-.978-2.035-1.49-.23-.232-.37-.558-.693-.791-.509-.28-1.156-.326-1.295-.745-.786-.046-1.017-.558-1.155-.838-.648-.093-.786-.372-.463-.605.139-.046.37 0 .509 0ZM16.392 20.11c.37-.232 1.572.14 1.757.373.324.372-.324.698.462 1.117.648.326 1.757.465 2.266.838.416.326.277.698.693 1.07.463.326 1.064.605 1.387.978.324.419.37.744 1.063 1.117 1.064.558 1.665 1.303 1.757 2.001a1.907 1.907 0 0 1-.924-.884c-1.202-.093-1.988-1.117-2.45-1.536-.602-.605-1.388-1.117-2.266-1.63-.555-.325-.277-.65-.693-.977-.463-.325-1.249-.465-1.665-.837-.416-.373-.555-.559-.647-.931-.139-.42-.601-.606-.925-.978l.185.28Z" fill="#642917" fill-rule="evenodd" data-name="Vector"/><path d="M13.156 20.948c.601 0 1.71 1.024 2.173 1.304.786.512.786 1.163 1.202 1.722.416.558 1.664 1.07 2.358 1.582.74.559 1.248.931 1.248 1.583.092-.326-1.433-1.164-1.942-1.443-.74-.419-2.219-.838-2.358-1.396-.693-.094-.554-.652-.647-.885-.185-.465-.555-.605-1.156-.93-.554-.233-2.542-1.583-.878-1.537Z" fill="#803018" fill-rule="evenodd" data-name="Vector"/><path d="M27.35 20.39c1.525.232 2.357.79 3.143 1.35.416.279.97.558 1.202.884.092.14-.046.372.139.512s.647.186.786.28c.74.558.878 1.21 1.433 1.768.508.512 1.849.93 2.265 1.443-.231.046-.74.093-.97.093-.047-.233-.51-.373-.787-.605-.37-.28-.37-.605-.647-.838-.37-.326-1.11-.512-1.433-.838-.37-.326-.462-.465-1.017-.745-1.942-.93-2.22-2.234-4.161-3.165-.277-.093-.231-.046.046-.14Z" fill="#7a2e17" fill-rule="evenodd" data-name="Vector"/><path d="M34.654 22.53c-.278-.325-.555-.511-.416-.977 1.156-.232 2.173 1.77 2.774 2.281.554.419 1.063.791 1.48 1.257.415.465 1.016.698 1.432 1.164 0-.047-.092.093-.092.093-.185-.233-.463-.093-.647-.187-.232-.093-.324-.186-.555-.372-.416-.419-.647-.884-1.202-1.164-.648-.325-1.156-.465-1.665-.93-.462-.466-.832-1.025-1.248-1.537-.185 0-.046.094-.092.14l.23.233Z" fill="#803018" fill-rule="evenodd" data-name="Vector"/><path d="M42.19 25.51c-.14-.326-.925-.745-1.203-1.164-.184-.326-.277-.465-.554-.745-.278-.325-.555-.418-.694-.837 1.202.698 2.312 1.536 2.45 2.746Z" fill="#732f1b" fill-rule="evenodd" data-name="Vector"/><path d="M10.243 22.53c.601.42 1.295 1.118 1.665 1.676.37.606.647 1.304 1.017 1.862-.185-.326-.694-.419-1.017-.651-.324-.28-.509-.652-.694-.978-.416-.745-1.11-1.21-1.11-2.001.14-.047.093.046.14.093Z" fill="#803018" fill-rule="evenodd" data-name="Vector"/></g></g></g></g><defs><linearGradient x1="1" y1="1" x2="0" y2="0" id="a"><stop stop-color="#f8600d" offset="0"/><stop stop-color="#ffc89d" offset="1"/></linearGradient></defs></svg>