<svg xmlns="http://www.w3.org/2000/svg" width="263.455" height="181.72" viewBox="0 0 263.455 181.72">
  <g id="Vector" transform="translate(0 0)">
    <g id="pancakes" transform="translate(0 0)">
      <rect id="pancakes-2" data-name="pancakes" width="263.455" height="181.693" transform="translate(0 0.027)" fill="none"/>
      <g id="Layer_2" data-name="Layer 2" transform="translate(0 0)">
        <g id="OBJECTS">
          <path id="Vector-2" data-name="Vector" d="M263.455,46.529c0,25.7-58.945,46.529-131.721,46.529S0,72.224,0,46.529,58.945,0,131.734,0,263.455,20.833,263.455,46.529Z" transform="translate(0 88.663)" fill="#e2cab3" fill-rule="evenodd"/>
          <path id="Vector-3" data-name="Vector" d="M263.455,46.529c0,25.7-58.945,46.529-131.721,46.529S0,72.224,0,46.529,58.945,0,131.734,0,263.455,20.833,263.455,46.529Z" transform="translate(0 83.531)" fill="#fff" fill-rule="evenodd"/>
          <path id="Vector-4" data-name="Vector" d="M263.455,45.055c0,24.892-58.945,45.068-131.721,45.068S0,69.947,0,45.055,58.945,0,131.734,0,263.455,20.176,263.455,45.055Z" transform="translate(0 84.269)" fill="#e7d8c8" fill-rule="evenodd"/>
          <path id="Vector-5" data-name="Vector" d="M225.346,32.153c0,17.765-50.446,32.153-112.666,32.153S0,49.918,0,32.153,50.446,0,112.68,0,225.346,14.4,225.346,32.153Z" transform="translate(32.267 97.171)" fill="#e2cab3" fill-rule="evenodd"/>
          <path id="Vector-6" data-name="Vector" d="M195.629,28.781a87.161,87.161,0,0,1-15.367,5.359,109.85,109.85,0,0,1-19.191,2.88c-6.566.522-12.913.777-18.492,4.93-4.784,3.564-9.637,7.114-15.23,9.056a33.348,33.348,0,0,1-17.272,1.018c-6.69-1.112-13.5-2.278-20.123-.348A90.948,90.948,0,0,1,70.694,55.2c-11.844.8-25.73.348-36.134-6.6-4.126-2.76-8.047-5.024-12.927-5.533C18.123,42.7,14.6,42.473,11.1,41.83,7.431,41.147-2.48,38.628.577,32.211c1.467-3.068,5.264-5.185,8.1-6.377a13.422,13.422,0,0,1,6.059-1.42c2.81-8,10.528-8.9,17.491-8.132,3.975.456,7.9,1.313,11.871,1.8a90.641,90.641,0,0,0,17.053.094,196.485,196.485,0,0,0,41.124-7.6c6.786-1.956,13.406-4.26,20.027-6.792,5.634-2.144,11.624-4.193,17.67-3.711,3.482.281,6.786,1.5,10.24,1.969a49.5,49.5,0,0,0,9.445.375c5.675-.308,11.364-1.487,17.053-1.045,9.226.737,20.9,5.386,23.3,16.371.987,4.863-.192,8.882-4.387,11.039Z" transform="translate(48.1 112.734)" fill="#eebe30"/>
          <path id="Vector-7" data-name="Vector" d="M166.059,29.327c0,17.309-37.6,33.4-82.879,33.4S0,45.443,0,28.134,37.9,0,83.18,0s82.879,12.017,82.879,29.327Z" transform="translate(44.661 91.597)" fill="#e3ac8a"/>
          <path id="Vector-8" data-name="Vector" d="M163.962,31.349c0,17.309-36.7,31.336-81.974,31.336S0,48.659,0,31.349,36.71,0,81.988,0,163.962,14.04,163.962,31.349Z" transform="translate(45.854 86.237)" fill="#da840d"/>
          <path id="Vector-9" data-name="Vector" d="M121.673,23.244c0,12.848-27.224,23.244-60.823,23.244S0,36.092,0,23.244,27.265,0,60.85,0,121.673,10.477,121.673,23.244Z" transform="translate(65.799 91.369)" fill="#f0a508"/>
          <path id="Vector-10" data-name="Vector" d="M6.923,2.505c0,1.34-1.549,2.505-3.468,2.505S0,3.885,0,2.505,1.549,0,3.454,0,6.923,1.125,6.923,2.505Z" transform="translate(78.794 120.682)" fill="#da840d"/>
          <path id="Vector-11" data-name="Vector" d="M3.863,1.983a1.862,1.862,0,0,1-.371,1.023,1.929,1.929,0,0,1-.886.654A1.975,1.975,0,0,1,1.5,3.73a1.944,1.944,0,0,1-.965-.538,1.874,1.874,0,0,1-.5-.968A1.849,1.849,0,0,1,.156,1.146,1.9,1.9,0,0,1,.867.313,1.965,1.965,0,0,1,1.93,0a2.013,2.013,0,0,1,.756.163A1.974,1.974,0,0,1,3.319.6a1.923,1.923,0,0,1,.414.639,1.89,1.89,0,0,1,.13.745Z" transform="translate(74.931 110.662)" fill="#da840d"/>
          <path id="Vector-12" data-name="Vector" d="M6.655,3.043A3.2,3.2,0,0,1,6.2,4.906,3.3,3.3,0,0,1,4.758,6.2a3.4,3.4,0,0,1-1.939.275,3.362,3.362,0,0,1-1.762-.838A3.239,3.239,0,0,1,.082,3.975,3.186,3.186,0,0,1,.231,2.066,3.27,3.27,0,0,1,1.452.569,3.386,3.386,0,0,1,3.324,0,3.289,3.289,0,0,1,4.565.2,3.234,3.234,0,0,1,5.634.848a3.151,3.151,0,0,1,.734,1,3.09,3.09,0,0,1,.287,1.2Z" transform="translate(96.155 123.185)" fill="#da840d"/>
          <path id="Vector-13" data-name="Vector" d="M4.208,1.514c0,.831-.946,1.514-2.1,1.514S0,2.345,0,1.514.946,0,2.111,0,4.208.67,4.208,1.514Z" transform="translate(91.364 112.645)" fill="#da840d"/>
          <path id="Vector-14" data-name="Vector" d="M4.263,1.851a2.049,2.049,0,0,1-.235,1.221,2.116,2.116,0,0,1-.9.875A2.177,2.177,0,0,1,.716,3.653,2.082,2.082,0,0,1,.061,2.589,2.046,2.046,0,0,1,.14,1.349,2.1,2.1,0,0,1,.924.372,2.173,2.173,0,0,1,2.138,0,2.058,2.058,0,0,1,3.587.5a1.966,1.966,0,0,1,.675,1.349Z" transform="translate(112.503 119.489)" fill="#da840d"/>
          <path id="Vector-15" data-name="Vector" d="M4.551,1.554c0,.857-1.014,1.554-2.276,1.554S0,2.411,0,1.554,1.028,0,2.276,0,4.551.7,4.551,1.554Z" transform="translate(113.023 130.946)" fill="#da840d"/>
          <path id="Vector-16" data-name="Vector" d="M3.258,1.716a1.573,1.573,0,0,1-.337.856,1.631,1.631,0,0,1-.764.532,1.668,1.668,0,0,1-.938.033,1.638,1.638,0,0,1-.8-.477,1.579,1.579,0,0,1-.4-.829A1.562,1.562,0,0,1,.152.923,1.607,1.607,0,0,1,.775.237,1.661,1.661,0,0,1,1.681,0,1.715,1.715,0,0,1,2.824.547a1.639,1.639,0,0,1,.434,1.168Z" transform="translate(105.242 114.158)" fill="#da840d"/>
          <path id="Vector-17" data-name="Vector" d="M4.414,1.541c0,.857-.987,1.554-2.207,1.554S0,2.4,0,1.541.987,0,2.207,0,4.414.683,4.414,1.541Z" transform="translate(127.689 117.589)" fill="#da840d"/>
          <path id="Vector-18" data-name="Vector" d="M4.414.924c0,.509-.987.924-2.207.924S0,1.433,0,.924.987,0,2.207,0,4.414.415,4.414.924Z" transform="translate(127.689 126.227)" fill="#da840d"/>
          <path id="Vector-19" data-name="Vector" d="M3.989,1.259c0,.683-.891,1.246-2,1.246S0,1.943,0,1.259.891,0,1.988,0,3.989.563,3.989,1.259Z" transform="translate(143.043 120.682)" fill="#da840d"/>
          <path id="Vector-20" data-name="Vector" d="M4.173,1.629a2.02,2.02,0,0,1-.118,1.246,2.077,2.077,0,0,1-.833.95A2.151,2.151,0,0,1,.786,3.677,2.061,2.061,0,0,1,.08,2.633,2.018,2.018,0,0,1,.121,1.382,2.069,2.069,0,0,1,.9.385,2.145,2.145,0,0,1,2.117.008a1.922,1.922,0,0,1,1.366.4,1.839,1.839,0,0,1,.691,1.219Z" transform="translate(140.473 129.265)" fill="#da840d"/>
          <path id="Vector-21" data-name="Vector" d="M4.367,2.6a2.142,2.142,0,0,1-.576,1.06,2.22,2.22,0,0,1-1.066.595A2.256,2.256,0,0,1,1.5,4.2,2.208,2.208,0,0,1,.491,3.514,2.118,2.118,0,0,1,.217,1.225a2.175,2.175,0,0,1,.818-.9A2.244,2.244,0,0,1,2.215,0a2.456,2.456,0,0,1,1.62.869A2.348,2.348,0,0,1,4.367,2.6Z" transform="translate(156.894 125.693)" fill="#da840d"/>
          <path id="Vector-22" data-name="Vector" d="M3.112.951c0,.536-.7.965-1.563.965S0,1.487,0,.951.7,0,1.549,0,3.112.469,3.112.951Z" transform="translate(156.957 115.633)" fill="#da840d"/>
          <path id="Vector-23" data-name="Vector" d="M4.208,3.765c0,2.077-.946,3.751-2.1,3.751S0,5.841,0,3.765.946,0,2.111,0,4.208,1.688,4.208,3.765Z" transform="translate(169.02 115.671)" fill="#da840d"/>
          <path id="Vector-24" data-name="Vector" d="M2.056,1a.993.993,0,0,1-.3.71,1.045,1.045,0,0,1-1.454,0A.989.989,0,0,1,.3.294,1.04,1.04,0,0,1,1.028,0a1.054,1.054,0,0,1,.723.3A1.007,1.007,0,0,1,2.056,1Z" transform="translate(176.451 114.613)" fill="#da840d"/>
          <path id="Vector-25" data-name="Vector" d="M5.73,1.755C5.73,2.706,4.441,3.5,2.865,3.5S0,2.706,0,1.755,1.275,0,2.865,0,5.73.79,5.73,1.755Z" transform="translate(138.205 110.662)" fill="#da840d"/>
          <path id="Vector-26" data-name="Vector" d="M4.469,1.072c0,.589-1,1.072-2.234,1.072S0,1.661,0,1.072,1,0,2.234,0,4.469.482,4.469,1.072Z" transform="translate(85.715 102.314)" fill="#da840d"/>
          <path id="Vector-27" data-name="Vector" d="M5.086,1.072c0,.6-1.138,1.085-2.536,1.085S0,1.675,0,1.072,1.138,0,2.55,0,5.086.482,5.086,1.072Z" transform="translate(98.258 100.159)" fill="#da840d"/>
          <path id="Vector-28" data-name="Vector" d="M6.881,1.554c0,.844-1.535,1.541-3.441,1.541S0,2.4,0,1.554,1.549,0,3.441,0,6.881.7,6.881,1.554Z" transform="translate(113.023 102.314)" fill="#da840d"/>
          <path id="Vector-29" data-name="Vector" d="M2.221,1.072a1.067,1.067,0,0,1-.181.608,1.1,1.1,0,0,1-.5.405A1.135,1.135,0,0,1,.9,2.15a1.118,1.118,0,0,1-.572-.3,1.077,1.077,0,0,1-.3-.559A1.062,1.062,0,0,1,.087.664,1.091,1.091,0,0,1,.5.177,1.129,1.129,0,0,1,1.124,0,1.11,1.11,0,0,1,1.9.314a1.06,1.06,0,0,1,.321.758Z" transform="translate(129.886 100.158)" fill="#da840d"/>
          <path id="Vector-30" data-name="Vector" d="M4.674.951c0,.522-1.042.951-2.344.951S0,1.474,0,.951,1.042,0,2.33,0,4.674.429,4.674.951Z" transform="translate(125.223 108.759)" fill="#da840d"/>
          <path id="Vector-31" data-name="Vector" d="M3.207,1.6a1.543,1.543,0,0,1-.288.869,1.6,1.6,0,0,1-.734.565,1.639,1.639,0,0,1-.932.069,1.614,1.614,0,0,1-.813-.45A1.555,1.555,0,0,1,.023,1.83,1.536,1.536,0,0,1,.141.925,1.579,1.579,0,0,1,.756.237a1.659,1.659,0,0,1,1.508-.1,1.591,1.591,0,0,1,.507.35A1.551,1.551,0,0,1,3.1,1a1.522,1.522,0,0,1,.105.6Z" transform="translate(145.018 99.164)" fill="#da840d"/>
          <path id="Vector-32" data-name="Vector" d="M3.633.482c0,.268-.809.482-1.823.482S0,.75,0,.482.809,0,1.81,0,3.633.214,3.633.482Z" transform="translate(153.326 106.603)" fill="#da840d"/>
          <path id="Vector-33" data-name="Vector" d="M1.406.539a.682.682,0,0,1-.033.424.7.7,0,0,1-.279.326.726.726,0,0,1-.827-.045A.7.7,0,0,1,.027.89.682.682,0,0,1,.042.465.7.7,0,0,1,.306.128.724.724,0,0,1,.721,0a.641.641,0,0,1,.454.132.613.613,0,0,1,.232.4Z" transform="translate(161.238 103.384)" fill="#da840d"/>
          <path id="Vector-34" data-name="Vector" d="M3.089,1.675a1.5,1.5,0,0,1-.337.793,1.55,1.55,0,0,1-.724.486,1.584,1.584,0,0,1-.878.023A1.556,1.556,0,0,1,.4,2.529a1.5,1.5,0,0,1-.38-.774A1.483,1.483,0,0,1,.132.9,1.524,1.524,0,0,1,.7.248,1.575,1.575,0,0,1,1.54,0a1.662,1.662,0,0,1,.618.152A1.629,1.629,0,0,1,2.67.523,1.588,1.588,0,0,1,3,1.058a1.561,1.561,0,0,1,.092.617Z" transform="translate(153.868 105.409)" fill="#da840d"/>
          <path id="Vector-35" data-name="Vector" d="M3.8,1.018c0,.549-.85,1-1.905,1S0,1.568,0,1.018.85,0,1.892,0,3.8.456,3.8,1.018Z" transform="translate(161.96 103.385)" fill="#da840d"/>
          <path id="Vector-36" data-name="Vector" d="M166.059,29.327c0,17.3-37.6,33.4-82.879,33.4S0,45.43,0,28.134,37.9,0,83.18,0,166.059,12.017,166.059,29.327Z" transform="translate(44.661 78.737)" fill="#e3ac8a"/>
          <path id="Vector-37" data-name="Vector" d="M163.962,31.336c0,17.309-36.7,31.336-81.974,31.336S0,48.645,0,31.336,36.71,0,81.988,0,163.962,14.027,163.962,31.336Z" transform="translate(45.854 73.379)" fill="#da840d"/>
          <path id="Vector-38" data-name="Vector" d="M121.645,23.244c0,12.837-27.231,23.244-60.823,23.244S0,36.082,0,23.244,27.231,0,60.823,0,121.645,10.407,121.645,23.244Z" transform="translate(65.825 78.508)" fill="#f0a508"/>
          <path id="Vector-39" data-name="Vector" d="M6.923,2.505c0,1.34-1.549,2.505-3.468,2.505S0,3.885,0,2.505,1.549,0,3.454,0,6.923,1.112,6.923,2.505Z" transform="translate(78.794 107.823)" fill="#da840d"/>
          <path id="Vector-40" data-name="Vector" d="M3.865,1.943a1.861,1.861,0,0,1-.352,1.034,1.927,1.927,0,0,1-.878.672,1.975,1.975,0,0,1-1.112.086,1.946,1.946,0,0,1-.975-.529,1.875,1.875,0,0,1-.514-.968A1.849,1.849,0,0,1,.152,1.154,1.9,1.9,0,0,1,.864.315,1.965,1.965,0,0,1,1.932,0,2,2,0,0,1,3.306.584a1.906,1.906,0,0,1,.559,1.359Z" transform="translate(74.929 97.828)" fill="#da840d"/>
          <path id="Vector-41" data-name="Vector" d="M6.655,3.043A3.2,3.2,0,0,1,6.2,4.906,3.3,3.3,0,0,1,4.758,6.2a3.4,3.4,0,0,1-1.939.275,3.362,3.362,0,0,1-1.762-.838A3.239,3.239,0,0,1,.082,3.975,3.186,3.186,0,0,1,.231,2.066,3.27,3.27,0,0,1,1.452.569,3.386,3.386,0,0,1,3.324,0,3.278,3.278,0,0,1,5.63.851,3.131,3.131,0,0,1,6.655,3.043Z" transform="translate(96.155 110.323)" fill="#da840d"/>
          <path id="Vector-42" data-name="Vector" d="M4.208,1.527c0,.831-.946,1.514-2.1,1.514S0,2.358,0,1.527.946,0,2.111,0s2.1.737,2.1,1.527Z" transform="translate(91.364 99.769)" fill="#da840d"/>
          <path id="Vector-43" data-name="Vector" d="M4.263,1.851a2.049,2.049,0,0,1-.235,1.221,2.115,2.115,0,0,1-.9.875A2.177,2.177,0,0,1,.716,3.653,2.082,2.082,0,0,1,.061,2.589,2.046,2.046,0,0,1,.14,1.349,2.1,2.1,0,0,1,.924.372,2.173,2.173,0,0,1,2.138,0,2.058,2.058,0,0,1,3.587.5a1.966,1.966,0,0,1,.675,1.349Z" transform="translate(112.503 106.695)" fill="#da840d"/>
          <path id="Vector-44" data-name="Vector" d="M4.551,1.541c0,.857-1.014,1.554-2.276,1.554S0,2.4,0,1.541,1.028,0,2.276,0,4.551.683,4.551,1.541Z" transform="translate(113.023 118.083)" fill="#da840d"/>
          <path id="Vector-45" data-name="Vector" d="M3.259,1.7a1.573,1.573,0,0,1-.331.86,1.63,1.63,0,0,1-.762.538,1.667,1.667,0,0,1-.939.038,1.639,1.639,0,0,1-.8-.474,1.579,1.579,0,0,1-.4-.83A1.562,1.562,0,0,1,.151.925,1.607,1.607,0,0,1,.774.238,1.66,1.66,0,0,1,1.682,0,1.7,1.7,0,0,1,2.823.539,1.626,1.626,0,0,1,3.259,1.7Z" transform="translate(105.241 101.294)" fill="#da840d"/>
          <path id="Vector-46" data-name="Vector" d="M4.414,1.554c0,.857-.987,1.554-2.207,1.554S0,2.411,0,1.554.987,0,2.207,0,4.414.7,4.414,1.554Z" transform="translate(127.689 104.712)" fill="#da840d"/>
          <path id="Vector-47" data-name="Vector" d="M4.414.924c0,.509-.987.924-2.207.924S0,1.434,0,.924.987,0,2.207,0,4.414.415,4.414.924Z" transform="translate(127.689 113.368)" fill="#da840d"/>
          <path id="Vector-48" data-name="Vector" d="M3.989,1.246c0,.7-.891,1.259-2,1.259S0,1.943,0,1.246.891,0,1.988,0,3.989.563,3.989,1.246Z" transform="translate(143.043 107.823)" fill="#da840d"/>
          <path id="Vector-49" data-name="Vector" d="M4.17,1.617a2.02,2.02,0,0,1-.11,1.248,2.076,2.076,0,0,1-.829.956A2.151,2.151,0,0,1,.792,3.684,2.061,2.061,0,0,1,.082,2.641,2.019,2.019,0,0,1,.119,1.389a2.069,2.069,0,0,1,.772-1A2.144,2.144,0,0,1,2.114.01,1.908,1.908,0,0,1,3.478.4,1.825,1.825,0,0,1,4.17,1.617Z" transform="translate(140.477 116.398)" fill="#da840d"/>
          <path id="Vector-50" data-name="Vector" d="M4.34,2.586a2.129,2.129,0,0,1-.572,1.051,2.206,2.206,0,0,1-1.058.59,2.242,2.242,0,0,1-1.217-.052,2.195,2.195,0,0,1-1-.679A2.1,2.1,0,0,1,.211,1.226,2.16,2.16,0,0,1,1.018.334,2.231,2.231,0,0,1,2.187,0,2.456,2.456,0,0,1,3.8.864,2.348,2.348,0,0,1,4.34,2.586Z" transform="translate(156.922 112.83)" fill="#da840d"/>
          <path id="Vector-51" data-name="Vector" d="M3.112.951c0,.522-.7.951-1.563.951S0,1.474,0,.951.7,0,1.549,0,3.112.375,3.112.951Z" transform="translate(156.957 102.811)" fill="#da840d"/>
          <path id="Vector-52" data-name="Vector" d="M4.208,3.751c0,2.077-.946,3.765-2.1,3.765S0,5.828,0,3.751.946,0,2.111,0,4.208,1.715,4.208,3.751Z" transform="translate(169.02 102.811)" fill="#da840d"/>
          <path id="Vector-53" data-name="Vector" d="M2.056,1a1.007,1.007,0,0,1-.305.707,1.054,1.054,0,0,1-.723.3A1.045,1.045,0,0,1,.457,1.84a1.01,1.01,0,0,1-.379-.451A.983.983,0,0,1,.02.809,1,1,0,0,1,.3.294,1.036,1.036,0,0,1,.828.019a1.05,1.05,0,0,1,.594.057,1.023,1.023,0,0,1,.461.37A.989.989,0,0,1,2.056,1Z" transform="translate(176.451 101.749)" fill="#da840d"/>
          <path id="Vector-54" data-name="Vector" d="M5.73,1.742C5.73,2.706,4.441,3.5,2.865,3.5S0,2.706,0,1.742,1.275,0,2.865,0,5.73.777,5.73,1.742Z" transform="translate(138.205 97.802)" fill="#da840d"/>
          <path id="Vector-55" data-name="Vector" d="M4.469,1.072c0,.6-1,1.085-2.234,1.085S0,1.675,0,1.072,1,0,2.234,0,4.469.482,4.469,1.072Z" transform="translate(85.715 89.44)" fill="#da840d"/>
          <path id="Vector-56" data-name="Vector" d="M5.086,1.072c0,.589-1.138,1.072-2.536,1.072S0,1.661,0,1.072,1.138,0,2.55,0,5.086.482,5.086,1.072Z" transform="translate(98.258 87.296)" fill="#da840d"/>
          <path id="Vector-57" data-name="Vector" d="M6.881,1.554c0,.857-1.535,1.554-3.441,1.554S0,2.412,0,1.554,1.549,0,3.441,0,6.881.7,6.881,1.554Z" transform="translate(113.023 89.44)" fill="#da840d"/>
          <path id="Vector-58" data-name="Vector" d="M2.221,1.072a1.067,1.067,0,0,1-.181.608,1.1,1.1,0,0,1-.5.405A1.135,1.135,0,0,1,.9,2.15a1.118,1.118,0,0,1-.572-.3,1.077,1.077,0,0,1-.3-.559A1.062,1.062,0,0,1,.087.664,1.091,1.091,0,0,1,.5.177,1.129,1.129,0,0,1,1.124,0,1.11,1.11,0,0,1,1.9.314a1.06,1.06,0,0,1,.321.758Z" transform="translate(129.886 87.295)" fill="#da840d"/>
          <path id="Vector-59" data-name="Vector" d="M4.674.965c0,.522-1.042.951-2.344.951S0,1.487,0,.965,1.042,0,2.33,0,4.674.429,4.674.965Z" transform="translate(125.223 95.884)" fill="#da840d"/>
          <path id="Vector-60" data-name="Vector" d="M3.208,1.555a1.542,1.542,0,0,1-.268.88,1.6,1.6,0,0,1-.726.582,1.639,1.639,0,0,1-.935.085,1.615,1.615,0,0,1-.824-.441,1.556,1.556,0,0,1-.43-.816A1.535,1.535,0,0,1,.137.934,1.578,1.578,0,0,1,.752.24,1.632,1.632,0,0,1,1.659,0a1.594,1.594,0,0,1,1.1.465,1.522,1.522,0,0,1,.447,1.089Z" transform="translate(145.018 86.344)" fill="#da840d"/>
          <path id="Vector-61" data-name="Vector" d="M3.633.482c0,.255-.809.469-1.823.469S0,.737,0,.482.809,0,1.81,0,3.633.214,3.633.482Z" transform="translate(153.326 93.74)" fill="#da840d"/>
          <path id="Vector-62" data-name="Vector" d="M1.409.552a.682.682,0,0,1-.041.422.7.7,0,0,1-.284.32.726.726,0,0,1-.824-.056A.7.7,0,0,1,.025.883.681.681,0,0,1,.044.459.7.7,0,0,1,.309.125.725.725,0,0,1,.724,0,.64.64,0,0,1,1.182.14a.613.613,0,0,1,.227.412Z" transform="translate(161.237 90.576)" fill="#da840d"/>
          <path id="Vector-63" data-name="Vector" d="M3.089,1.675a1.5,1.5,0,0,1-.337.793,1.551,1.551,0,0,1-.724.486,1.584,1.584,0,0,1-.878.023A1.556,1.556,0,0,1,.4,2.529a1.5,1.5,0,0,1-.38-.774A1.482,1.482,0,0,1,.132.9,1.523,1.523,0,0,1,.7.248,1.575,1.575,0,0,1,1.54,0a1.662,1.662,0,0,1,.618.152A1.629,1.629,0,0,1,2.67.523,1.588,1.588,0,0,1,3,1.058,1.561,1.561,0,0,1,3.089,1.675Z" transform="translate(153.868 92.549)" fill="#da840d"/>
          <path id="Vector-64" data-name="Vector" d="M3.8,1.018c0,.563-.85,1.018-1.905,1.018S0,1.581,0,1.018.85,0,1.892,0,3.8.456,3.8,1.018Z" transform="translate(161.96 90.51)" fill="#da840d"/>
          <path id="Vector-65" data-name="Vector" d="M166.059,29.273c0,17.3-37.615,33.4-82.893,33.4S0,45.376,0,28.067,37.889,0,83.167,0,166.059,11.964,166.059,29.273Z" transform="translate(45.963 55.799)" fill="#e3ac8a"/>
          <path id="Vector-66" data-name="Vector" d="M163.948,31.363c0,17.309-36.71,31.336-81.988,31.336S0,48.645,0,31.363,36.7,0,81.974,0,163.948,14.027,163.948,31.363Z" transform="translate(47.155 50.387)" fill="#da840d"/>
          <path id="Vector-67" data-name="Vector" d="M121.6,23.258C121.6,36.092,94.366,46.5,60.781,46.5S0,36.092,0,23.258,27.2,0,60.781,0,121.6,10.41,121.6,23.258Z" transform="translate(67.17 55.505)" fill="#f0a508"/>
          <path id="Vector-68" data-name="Vector" d="M6.909,2.505c0,1.34-1.535,2.505-3.454,2.505S0,3.885,0,2.505,1.549,0,3.523,0,6.909,1.112,6.909,2.505Z" transform="translate(80.096 84.832)" fill="#da840d"/>
          <path id="Vector-69" data-name="Vector" d="M3.864,1.969A1.862,1.862,0,0,1,3.5,2.993a1.928,1.928,0,0,1-.879.66,1.975,1.975,0,0,1-1.106.08,1.945,1.945,0,0,1-.969-.527,1.875,1.875,0,0,1-.513-.961A1.85,1.85,0,0,1,.147,1.167a1.9,1.9,0,0,1,.7-.841A1.964,1.964,0,0,1,1.9,0a2.012,2.012,0,0,1,.761.154,1.976,1.976,0,0,1,.641.429,1.925,1.925,0,0,1,.422.638,1.891,1.891,0,0,1,.137.747Z" transform="translate(76.233 74.81)" fill="#da840d"/>
          <path id="Vector-70" data-name="Vector" d="M6.628,3.043A3.184,3.184,0,0,1,6.172,4.9,3.291,3.291,0,0,1,4.729,6.177a3.387,3.387,0,0,1-1.93.269,3.348,3.348,0,0,1-1.751-.838A3.226,3.226,0,0,1,.081,3.954a3.174,3.174,0,0,1,.151-1.9A3.257,3.257,0,0,1,1.448.565,3.371,3.371,0,0,1,3.311,0a3.264,3.264,0,0,1,2.3.851,3.117,3.117,0,0,1,1.016,2.19Z" transform="translate(97.552 87.336)" fill="#da840d"/>
          <path id="Vector-71" data-name="Vector" d="M4.208,1.514c0,.844-.946,1.527-2.111,1.527S0,2.358,0,1.514.946,0,2.1,0,4.208.683,4.208,1.514Z" transform="translate(92.666 76.778)" fill="#da840d"/>
          <path id="Vector-72" data-name="Vector" d="M4.263,1.851a2.049,2.049,0,0,1-.235,1.221,2.115,2.115,0,0,1-.9.875A2.177,2.177,0,0,1,.716,3.653,2.082,2.082,0,0,1,.061,2.589,2.046,2.046,0,0,1,.14,1.349,2.1,2.1,0,0,1,.924.372,2.173,2.173,0,0,1,2.138,0,2.058,2.058,0,0,1,3.587.5a1.966,1.966,0,0,1,.675,1.349Z" transform="translate(113.805 83.637)" fill="#da840d"/>
          <path id="Vector-73" data-name="Vector" d="M4.551,1.487c0,.857-1.014,1.554-2.276,1.554S0,2.345,0,1.487,1.014,0,2.276,0,4.551.643,4.551,1.487Z" transform="translate(114.325 95.148)" fill="#da840d"/>
          <path id="Vector-74" data-name="Vector" d="M3.262,1.594a1.576,1.576,0,0,1-.478,1.127,1.658,1.658,0,0,1-2.307,0,1.569,1.569,0,0,1,0-2.255,1.658,1.658,0,0,1,2.307,0,1.576,1.576,0,0,1,.478,1.127Z" transform="translate(106.54 78.414)" fill="#da840d"/>
          <path id="Vector-75" data-name="Vector" d="M4.414,1.527c0,.857-.987,1.554-2.207,1.554S0,2.385,0,1.527.987,0,2.207,0,4.414.67,4.414,1.527Z" transform="translate(128.992 81.751)" fill="#da840d"/>
          <path id="Vector-76" data-name="Vector" d="M4.414.924c0,.509-.987.924-2.207.924S0,1.433,0,.924.987,0,2.207,0,4.414.415,4.414.924Z" transform="translate(128.992 90.377)" fill="#da840d"/>
          <path id="Vector-77" data-name="Vector" d="M4,1.246c0,.7-.891,1.259-2,1.259S0,1.943,0,1.246.9,0,2,0,4,.563,4,1.246Z" transform="translate(144.331 84.832)" fill="#da840d"/>
          <path id="Vector-78" data-name="Vector" d="M4.194,1.619a2.032,2.032,0,0,1-.1,1.258,2.089,2.089,0,0,1-.83.966A2.164,2.164,0,0,1,.8,3.713,2.075,2.075,0,0,1,.084,2.665,2.032,2.032,0,0,1,.119,1.4,2.082,2.082,0,0,1,.894.395,2.159,2.159,0,0,1,2.125.011,1.909,1.909,0,0,1,3.5.4a1.826,1.826,0,0,1,.7,1.22Z" transform="translate(141.755 93.406)" fill="#da840d"/>
          <path id="Vector-79" data-name="Vector" d="M4.348,2.679a2.146,2.146,0,0,1-.605,1.026,2.224,2.224,0,0,1-1.068.559,2.255,2.255,0,0,1-1.209-.077A2.206,2.206,0,0,1,.479,3.5,2.117,2.117,0,0,1,.211,1.236a2.173,2.173,0,0,1,.8-.891A2.244,2.244,0,0,1,2.169,0,2.482,2.482,0,0,1,3.1.279a2.427,2.427,0,0,1,.743.61,2.365,2.365,0,0,1,.441.845,2.332,2.332,0,0,1,.069.946Z" transform="translate(158.216 89.788)" fill="#da840d"/>
          <path id="Vector-80" data-name="Vector" d="M3.112.951c0,.522-.7.951-1.563.951S0,1.474,0,.951.685,0,1.549,0,3.112.429,3.112.951Z" transform="translate(158.26 79.821)" fill="#da840d"/>
          <path id="Vector-81" data-name="Vector" d="M4.208,3.751c0,2.077-.946,3.765-2.111,3.765S0,5.828,0,3.751.946,0,2.1,0,4.208,1.675,4.208,3.751Z" transform="translate(170.323 79.821)" fill="#da840d"/>
          <path id="Vector-82" data-name="Vector" d="M2.029,1a.976.976,0,0,1-.178.547,1.01,1.01,0,0,1-.458.359,1.037,1.037,0,0,1-.585.051,1.022,1.022,0,0,1-.516-.274A.984.984,0,0,1,.019,1.18.97.97,0,0,1,.079.609,1,1,0,0,1,.452.166,1.031,1.031,0,0,1,1.014,0a1.04,1.04,0,0,1,.718.3.993.993,0,0,1,.3.706Z" transform="translate(177.767 78.763)" fill="#da840d"/>
          <path id="Vector-83" data-name="Vector" d="M5.716,1.742c0,.965-1.275,1.742-2.851,1.742S0,2.706,0,1.742,1.275,0,2.865,0,5.716.777,5.716,1.742Z" transform="translate(139.506 74.81)" fill="#da840d"/>
          <path id="Vector-84" data-name="Vector" d="M4.482,1.085c0,.589-1,1.072-2.234,1.072S0,1.675,0,1.085,1,0,2.248,0,4.482.482,4.482,1.085Z" transform="translate(87.005 66.45)" fill="#da840d"/>
          <path id="Vector-85" data-name="Vector" d="M5.086,1.072c0,.6-1.138,1.072-2.55,1.072S0,1.675,0,1.072,1.138,0,2.536,0,5.086.482,5.086,1.072Z" transform="translate(99.561 64.307)" fill="#da840d"/>
          <path id="Vector-86" data-name="Vector" d="M6.881,1.554c0,.857-1.535,1.554-3.441,1.554S0,2.411,0,1.554,1.549,0,3.441,0,6.881.7,6.881,1.554Z" transform="translate(114.325 66.45)" fill="#da840d"/>
          <path id="Vector-87" data-name="Vector" d="M2.207.965a1.077,1.077,0,0,1-.363.688,1.13,1.13,0,0,1-1.481,0A1.078,1.078,0,0,1,0,.965,1.077,1.077,0,0,1,.363.276a1.13,1.13,0,0,1,1.481,0A1.077,1.077,0,0,1,2.207.965Z" transform="translate(131.2 64.412)" fill="#da840d"/>
          <path id="Vector-88" data-name="Vector" d="M4.688.951c0,.536-1.042.965-2.344.965S0,1.487,0,.951,1.056,0,2.344,0,4.688.429,4.688.951Z" transform="translate(126.511 72.894)" fill="#da840d"/>
          <path id="Vector-89" data-name="Vector" d="M3.208,1.554a1.542,1.542,0,0,1-.264.874,1.6,1.6,0,0,1-.717.583,1.638,1.638,0,0,1-.928.095,1.616,1.616,0,0,1-.825-.426,1.557,1.557,0,0,1-.443-.8A1.535,1.535,0,0,1,.121.971,1.575,1.575,0,0,1,.711.265,1.631,1.631,0,0,1,1.6,0a1.609,1.609,0,0,1,.615.111,1.58,1.58,0,0,1,.522.336,1.54,1.54,0,0,1,.348.508,1.511,1.511,0,0,1,.119.6Z" transform="translate(146.32 63.353)" fill="#da840d"/>
          <path id="Vector-90" data-name="Vector" d="M3.633.482c0,.255-.822.469-1.823.469S0,.737,0,.482.809,0,1.809,0,3.633.281,3.633.482Z" transform="translate(154.626 70.751)" fill="#da840d"/>
          <path id="Vector-91" data-name="Vector" d="M1.371.505A.7.7,0,0,1,1.115.87a.726.726,0,0,1-.859,0A.7.7,0,0,1,0,.505.7.7,0,0,1,.256.141a.726.726,0,0,1,.859,0,.7.7,0,0,1,.256.365Z" transform="translate(162.577 67.568)" fill="#da840d"/>
          <path id="Vector-92" data-name="Vector" d="M3.089,1.675a1.5,1.5,0,0,1-.337.793,1.55,1.55,0,0,1-.724.486,1.584,1.584,0,0,1-.878.023A1.556,1.556,0,0,1,.4,2.529a1.5,1.5,0,0,1-.38-.774A1.483,1.483,0,0,1,.132.9,1.523,1.523,0,0,1,.7.248,1.575,1.575,0,0,1,1.54,0a1.662,1.662,0,0,1,.618.152A1.629,1.629,0,0,1,2.67.523,1.588,1.588,0,0,1,3,1.058a1.561,1.561,0,0,1,.092.616Z" transform="translate(155.17 69.557)" fill="#da840d"/>
          <path id="Vector-93" data-name="Vector" d="M3.811,1c0,.563-.85,1.018-1.905,1.018S0,1.567,0,1,.85,0,1.905,0,3.811.442,3.811,1Z" transform="translate(163.25 67.535)" fill="#da840d"/>
          <path id="Vector-94" data-name="Vector" d="M166.059,29.327c0,17.309-37.615,33.4-82.893,33.4S0,45.443,0,28.134,37.889,0,83.167,0s82.893,12.017,82.893,29.327Z" transform="translate(45.963 40.969)" fill="#e3ac8a"/>
          <path id="Vector-95" data-name="Vector" d="M163.948,31.349c0,17.3-36.71,31.336-81.988,31.336S0,48.592,0,31.349,36.7,0,81.974,0,163.948,13.933,163.948,31.349Z" transform="translate(47.155 35.663)" fill="#da840d"/>
          <path id="Vector-96" data-name="Vector" d="M121.6,23.258C121.6,36.092,94.366,46.5,60.781,46.5S0,36.092,0,23.258,27.2,0,60.781,0,121.6,10.41,121.6,23.258Z" transform="translate(67.17 40.726)" fill="#f0a508"/>
          <path id="Vector-97" data-name="Vector" d="M6.909,2.505c0,1.34-1.535,2.505-3.454,2.505S0,3.885,0,2.505,1.549,0,3.454,0,6.909,1.125,6.909,2.505Z" transform="translate(80.096 70.056)" fill="#da840d"/>
          <path id="Vector-98" data-name="Vector" d="M3.864,1.969A1.861,1.861,0,0,1,3.5,2.993a1.928,1.928,0,0,1-.879.66,1.975,1.975,0,0,1-1.106.08,1.945,1.945,0,0,1-.969-.527,1.875,1.875,0,0,1-.513-.961A1.85,1.85,0,0,1,.147,1.167a1.9,1.9,0,0,1,.7-.841A1.964,1.964,0,0,1,1.9,0a2.012,2.012,0,0,1,.761.154,1.976,1.976,0,0,1,.641.429,1.925,1.925,0,0,1,.422.638,1.891,1.891,0,0,1,.137.748Z" transform="translate(76.233 60.034)" fill="#da840d"/>
          <path id="Vector-99" data-name="Vector" d="M6.635,3.041A3.188,3.188,0,0,1,3.317,6.082,3.188,3.188,0,0,1,0,3.041,3.188,3.188,0,0,1,3.317,0,3.188,3.188,0,0,1,6.635,3.041Z" transform="translate(97.506 72.558)" fill="#da840d"/>
          <path id="Vector-100" data-name="Vector" d="M4.208,1.527c0,.831-.946,1.514-2.111,1.514S0,2.331,0,1.527.946,0,2.1,0,4.208.683,4.208,1.527Z" transform="translate(92.666 62.004)" fill="#da840d"/>
          <path id="Vector-101" data-name="Vector" d="M4.263,1.851a2.049,2.049,0,0,1-.235,1.221,2.115,2.115,0,0,1-.9.875A2.177,2.177,0,0,1,.716,3.653,2.082,2.082,0,0,1,.061,2.589,2.046,2.046,0,0,1,.14,1.349,2.1,2.1,0,0,1,.924.372,2.173,2.173,0,0,1,2.138,0,2.058,2.058,0,0,1,3.587.5a1.966,1.966,0,0,1,.675,1.349Z" transform="translate(113.805 68.861)" fill="#da840d"/>
          <path id="Vector-102" data-name="Vector" d="M4.551,1.541c0,.857-1.014,1.554-2.276,1.554S0,2.4,0,1.541,1.014,0,2.276,0,4.551.7,4.551,1.541Z" transform="translate(114.325 80.315)" fill="#da840d"/>
          <path id="Vector-103" data-name="Vector" d="M3.258,1.715a1.573,1.573,0,0,1-.333.851A1.63,1.63,0,0,1,2.17,3.1a1.667,1.667,0,0,1-.931.043,1.639,1.639,0,0,1-.8-.462,1.581,1.581,0,0,1-.413-.816A1.561,1.561,0,0,1,.135.96a1.6,1.6,0,0,1,.6-.7A1.659,1.659,0,0,1,1.627,0,1.717,1.717,0,0,1,2.8.529a1.64,1.64,0,0,1,.454,1.186Z" transform="translate(106.545 63.528)" fill="#da840d"/>
          <path id="Vector-104" data-name="Vector" d="M4.414,1.487c0,.857-.987,1.554-2.207,1.554S0,2.345,0,1.487.987,0,2.207,0,4.414.63,4.414,1.487Z" transform="translate(128.992 67.013)" fill="#da840d"/>
          <path id="Vector-105" data-name="Vector" d="M4.414.924c0,.509-.987.924-2.207.924S0,1.433,0,.924.987,0,2.207,0,4.414.415,4.414.924Z" transform="translate(128.992 75.601)" fill="#da840d"/>
          <path id="Vector-106" data-name="Vector" d="M4,1.246c0,.7-.891,1.259-2,1.259S0,1.943,0,1.246.9,0,2,0,4,.563,4,1.246Z" transform="translate(144.331 70.056)" fill="#da840d"/>
          <path id="Vector-107" data-name="Vector" d="M4.194,1.619a2.033,2.033,0,0,1-.1,1.258,2.089,2.089,0,0,1-.83.966A2.164,2.164,0,0,1,.8,3.713,2.075,2.075,0,0,1,.084,2.665,2.032,2.032,0,0,1,.119,1.4,2.082,2.082,0,0,1,.894.395,2.159,2.159,0,0,1,2.125.011,1.909,1.909,0,0,1,3.5.4,1.826,1.826,0,0,1,4.194,1.619Z" transform="translate(141.755 78.633)" fill="#da840d"/>
          <path id="Vector-108" data-name="Vector" d="M4.348,2.68a2.146,2.146,0,0,1-.605,1.026,2.223,2.223,0,0,1-1.068.559,2.255,2.255,0,0,1-1.209-.077A2.206,2.206,0,0,1,.479,3.5,2.117,2.117,0,0,1,.211,1.236a2.173,2.173,0,0,1,.8-.891A2.244,2.244,0,0,1,2.169,0,2.467,2.467,0,0,1,3.1.275a2.413,2.413,0,0,1,.745.61,2.352,2.352,0,0,1,.44.847,2.32,2.32,0,0,1,.065.947Z" transform="translate(158.216 75.052)" fill="#da840d"/>
          <path id="Vector-109" data-name="Vector" d="M3.112.951c0,.536-.7.965-1.563.965S0,1.487,0,.951.685,0,1.549,0,3.112.429,3.112.951Z" transform="translate(158.26 65.045)" fill="#da840d"/>
          <path id="Vector-110" data-name="Vector" d="M4.208,3.751c0,2.077-.946,3.765-2.111,3.765S0,5.828,0,3.751.946,0,2.1,0,4.208,1.688,4.208,3.751Z" transform="translate(170.323 65.045)" fill="#da840d"/>
          <path id="Vector-111" data-name="Vector" d="M2.029,1a.976.976,0,0,1-.178.547,1.011,1.011,0,0,1-.458.359,1.036,1.036,0,0,1-.585.051,1.022,1.022,0,0,1-.516-.274A.984.984,0,0,1,.019,1.18.97.97,0,0,1,.079.609,1,1,0,0,1,.452.166,1.035,1.035,0,0,1,1.406.077,1.015,1.015,0,0,1,1.737.3a.99.99,0,0,1,.219.326A.972.972,0,0,1,2.029,1Z" transform="translate(177.767 63.986)" fill="#da840d"/>
          <path id="Vector-112" data-name="Vector" d="M5.716,1.742c0,.965-1.275,1.755-2.851,1.755S0,2.706,0,1.742,1.275,0,2.865,0,5.716.777,5.716,1.742Z" transform="translate(139.506 60.034)" fill="#da840d"/>
          <path id="Vector-113" data-name="Vector" d="M4.482,1.072c0,.589-1,1.072-2.234,1.072S0,1.661,0,1.072,1,0,2.248,0,4.482.482,4.482,1.072Z" transform="translate(87.005 51.688)" fill="#da840d"/>
          <path id="Vector-114" data-name="Vector" d="M5.086,1.072c0,.6-1.138,1.085-2.55,1.085S0,1.675,0,1.072,1.138,0,2.536,0,5.086.482,5.086,1.072Z" transform="translate(99.561 49.53)" fill="#da840d"/>
          <path id="Vector-115" data-name="Vector" d="M6.881,1.541c0,.857-1.535,1.554-3.441,1.554S0,2.4,0,1.541,1.549,0,3.441,0,6.881.683,6.881,1.541Z" transform="translate(114.325 51.688)" fill="#da840d"/>
          <path id="Vector-116" data-name="Vector" d="M2.221,1.072a1.067,1.067,0,0,1-.181.608,1.1,1.1,0,0,1-.5.405A1.135,1.135,0,0,1,.9,2.15a1.118,1.118,0,0,1-.572-.3,1.078,1.078,0,0,1-.3-.559A1.062,1.062,0,0,1,.087.664,1.091,1.091,0,0,1,.5.177,1.129,1.129,0,0,1,1.124,0,1.109,1.109,0,0,1,1.9.314a1.06,1.06,0,0,1,.321.758Z" transform="translate(131.186 49.53)" fill="#da840d"/>
          <path id="Vector-117" data-name="Vector" d="M4.688.965c0,.522-1.042.951-2.344.951S0,1.487,0,.965,1.056,0,2.344,0,4.688.429,4.688.965Z" transform="translate(126.511 58.116)" fill="#da840d"/>
          <path id="Vector-118" data-name="Vector" d="M3.208,1.554a1.542,1.542,0,0,1-.264.874,1.6,1.6,0,0,1-.717.583,1.638,1.638,0,0,1-.928.095,1.616,1.616,0,0,1-.825-.426,1.557,1.557,0,0,1-.443-.8A1.535,1.535,0,0,1,.121.971,1.575,1.575,0,0,1,.711.265,1.659,1.659,0,0,1,2.216.114,1.593,1.593,0,0,1,2.737.45a1.553,1.553,0,0,1,.348.506,1.523,1.523,0,0,1,.122.6Z" transform="translate(146.32 48.578)" fill="#da840d"/>
          <path id="Vector-119" data-name="Vector" d="M3.633.482c0,.255-.822.469-1.823.469S0,.737,0,.482.809,0,1.809,0,3.633.214,3.633.482Z" transform="translate(154.626 55.975)" fill="#da840d"/>
          <path id="Vector-120" data-name="Vector" d="M1.406.539a.682.682,0,0,1-.033.422.7.7,0,0,1-.277.326.726.726,0,0,1-.824-.039A.7.7,0,0,1,.029.9.682.682,0,0,1,.038.475.7.7,0,0,1,.3.135.724.724,0,0,1,.707,0a.655.655,0,0,1,.459.131.627.627,0,0,1,.24.4Z" transform="translate(162.543 52.754)" fill="#da840d"/>
          <path id="Vector-121" data-name="Vector" d="M3.089,1.675a1.5,1.5,0,0,1-.337.793,1.55,1.55,0,0,1-.724.486,1.584,1.584,0,0,1-.878.023A1.556,1.556,0,0,1,.4,2.529a1.5,1.5,0,0,1-.38-.774A1.483,1.483,0,0,1,.132.9,1.524,1.524,0,0,1,.7.248,1.575,1.575,0,0,1,1.54,0a1.662,1.662,0,0,1,.618.152A1.629,1.629,0,0,1,2.67.523,1.588,1.588,0,0,1,3,1.058,1.561,1.561,0,0,1,3.089,1.675Z" transform="translate(155.17 54.781)" fill="#da840d"/>
          <path id="Vector-122" data-name="Vector" d="M3.811,1c0,.563-.85,1.018-1.905,1.018S0,1.568,0,1,.85,0,1.905,0,3.811.456,3.811,1Z" transform="translate(163.25 52.758)" fill="#da840d"/>
          <path id="Vector-123" data-name="Vector" d="M159.1,34.672c0,17.336-36.025,33.413-79.4,33.413S0,50.789,0,33.48a12.938,12.938,0,0,1,2.029-6.792C7.649,11.589,40.274,0,79.7,0c42.139,0,76.518,13.236,78.437,29.876a12.6,12.6,0,0,1,.96,4.8Z" transform="translate(50.719 25.202)" fill="#c66720"/>
          <path id="Vector-124" data-name="Vector" d="M166.059,29.273c0,17.309-37.615,33.413-82.893,33.413S0,45.39,0,28.134,37.889,0,83.167,0s82.893,11.964,82.893,29.273Z" transform="translate(47.636 22.803)" fill="#e3ac8a"/>
          <path id="Vector-125" data-name="Vector" d="M162.852,32.287c0,17.309-35.641,30.385-80.877,30.385S0,48.645,0,31.336,36.7,0,81.974,0,162.852,14.978,162.852,32.287Z" transform="translate(50.117 16.453)" fill="#da840d"/>
          <path id="Vector-126" data-name="Vector" d="M121.645,23.244c0,12.837-27.231,23.244-60.823,23.244S0,36.082,0,23.244,27.231,0,60.823,0,121.645,10.407,121.645,23.244Z" transform="translate(68.802 22.52)" fill="#f0a508"/>
          <path id="Vector-127" data-name="Vector" d="M6.909,2.505c0,1.34-1.549,2.519-3.454,2.519S0,3.9,0,2.505,1.549,0,3.454,0,6.909,1.125,6.909,2.505Z" transform="translate(81.768 51.833)" fill="#da840d"/>
          <path id="Vector-128" data-name="Vector" d="M3.863,1.983a1.862,1.862,0,0,1-.371,1.023,1.929,1.929,0,0,1-.886.654A1.975,1.975,0,0,1,1.5,3.73a1.944,1.944,0,0,1-.965-.538,1.874,1.874,0,0,1-.5-.968A1.849,1.849,0,0,1,.156,1.146,1.9,1.9,0,0,1,.867.313,1.965,1.965,0,0,1,1.93,0a2.013,2.013,0,0,1,.756.163A1.974,1.974,0,0,1,3.319.6a1.923,1.923,0,0,1,.414.639,1.89,1.89,0,0,1,.13.745Z" transform="translate(77.904 41.811)" fill="#da840d"/>
          <path id="Vector-129" data-name="Vector" d="M6.629,3.056a3.184,3.184,0,0,1-.463,1.849A3.292,3.292,0,0,1,4.72,6.182a3.386,3.386,0,0,1-1.93.263A3.347,3.347,0,0,1,1.043,5.6,3.225,3.225,0,0,1,.079,3.948a3.173,3.173,0,0,1,.154-1.9A3.257,3.257,0,0,1,1.45.564,3.371,3.371,0,0,1,3.312,0a3.29,3.29,0,0,1,1.24.2A3.232,3.232,0,0,1,5.618.857a3.151,3.151,0,0,1,.729,1,3.089,3.089,0,0,1,.282,1.2Z" transform="translate(99.184 54.337)" fill="#da840d"/>
          <path id="Vector-130" data-name="Vector" d="M4.208,1.514c0,.844-.946,1.514-2.111,1.514S0,2.358,0,1.514.946,0,2.1,0,4.208.683,4.208,1.514Z" transform="translate(94.339 43.795)" fill="#da840d"/>
          <path id="Vector-131" data-name="Vector" d="M4.263,1.852a2.049,2.049,0,0,1-.235,1.221,2.115,2.115,0,0,1-.9.875A2.177,2.177,0,0,1,.716,3.654,2.082,2.082,0,0,1,.061,2.59,2.046,2.046,0,0,1,.14,1.35,2.1,2.1,0,0,1,.924.373,2.173,2.173,0,0,1,2.138,0,2.044,2.044,0,0,1,3.591.5a1.953,1.953,0,0,1,.672,1.353Z" transform="translate(115.477 50.637)" fill="#da840d"/>
          <path id="Vector-132" data-name="Vector" d="M4.551,1.554c0,.857-1.014,1.554-2.276,1.554S0,2.411,0,1.554,1.014,0,2.276,0,4.551.7,4.551,1.554Z" transform="translate(115.998 62.097)" fill="#da840d"/>
          <path id="Vector-133" data-name="Vector" d="M3.258,1.715a1.573,1.573,0,0,1-.333.851A1.63,1.63,0,0,1,2.17,3.1a1.667,1.667,0,0,1-.931.043,1.64,1.64,0,0,1-.8-.462,1.581,1.581,0,0,1-.413-.816A1.561,1.561,0,0,1,.135.96a1.6,1.6,0,0,1,.6-.7A1.658,1.658,0,0,1,1.627,0a1.719,1.719,0,0,1,.644.147,1.686,1.686,0,0,1,.537.378,1.643,1.643,0,0,1,.347.551,1.614,1.614,0,0,1,.1.639Z" transform="translate(108.217 45.31)" fill="#da840d"/>
          <path id="Vector-134" data-name="Vector" d="M4.414,1.554c0,.857-.987,1.541-2.207,1.541S0,2.412,0,1.554.987,0,2.207,0,4.414.7,4.414,1.554Z" transform="translate(130.665 48.738)" fill="#da840d"/>
          <path id="Vector-135" data-name="Vector" d="M4.414.924c0,.509-.987.924-2.207.924S0,1.433,0,.924.987,0,2.207,0,4.414.415,4.414.924Z" transform="translate(130.665 57.394)" fill="#da840d"/>
          <path id="Vector-136" data-name="Vector" d="M4,1.259c0,.7-.9,1.246-2,1.246S0,1.956,0,1.259.9,0,2,0,4,.563,4,1.259Z" transform="translate(146.005 51.833)" fill="#da840d"/>
          <path id="Vector-137" data-name="Vector" d="M4.195,1.617a2.032,2.032,0,0,1-.1,1.258,2.089,2.089,0,0,1-.83.966A2.165,2.165,0,0,1,.8,3.712,2.075,2.075,0,0,1,.084,2.664,2.032,2.032,0,0,1,.119,1.4,2.082,2.082,0,0,1,.894.393,2.159,2.159,0,0,1,2.125.01,1.923,1.923,0,0,1,3.495.4,1.839,1.839,0,0,1,4.195,1.617Z" transform="translate(143.427 60.425)" fill="#da840d"/>
          <path id="Vector-138" data-name="Vector" d="M4.339,2.586a2.129,2.129,0,0,1-.572,1.051,2.206,2.206,0,0,1-1.058.59,2.242,2.242,0,0,1-1.217-.052,2.194,2.194,0,0,1-1-.679A2.1,2.1,0,0,1,.211,1.226,2.161,2.161,0,0,1,1.018.334,2.231,2.231,0,0,1,2.187,0,2.456,2.456,0,0,1,3.8.864a2.348,2.348,0,0,1,.537,1.721Z" transform="translate(159.896 56.858)" fill="#da840d"/>
          <path id="Vector-139" data-name="Vector" d="M3.1.965c0,.522-.685.951-1.549.951S0,1.487,0,.965.685,0,1.549,0,3.1.429,3.1.965Z" transform="translate(159.931 46.824)" fill="#da840d"/>
          <path id="Vector-140" data-name="Vector" d="M4.208,3.765c0,2.077-.946,3.751-2.111,3.751S0,5.841,0,3.765.946,0,2.1,0,4.208,1.688,4.208,3.765Z" transform="translate(171.996 46.824)" fill="#da840d"/>
          <path id="Vector-141" data-name="Vector" d="M2.028,1.018a.977.977,0,0,1-.184.543,1.012,1.012,0,0,1-.461.353A1.037,1.037,0,0,1,.8,1.96a1.021,1.021,0,0,1-.512-.277.984.984,0,0,1-.27-.508A.971.971,0,0,1,.08.606,1,1,0,0,1,.453.165,1.031,1.031,0,0,1,1.014,0a1.05,1.05,0,0,1,.392.082A1.03,1.03,0,0,1,1.737.3a1,1,0,0,1,.218.329.984.984,0,0,1,.073.386Z" transform="translate(179.44 45.766)" fill="#da840d"/>
          <path id="Vector-142" data-name="Vector" d="M5.7,1.755C5.7,2.72,4.428,3.5,2.851,3.5S0,2.72,0,1.755,1.275,0,2.865,0,5.7.79,5.7,1.755Z" transform="translate(141.193 41.811)" fill="#da840d"/>
          <path id="Vector-143" data-name="Vector" d="M4.483,1.072c0,.589-1,1.072-2.234,1.072S0,1.661,0,1.072,1,0,2.248,0,4.483.482,4.483,1.072Z" transform="translate(88.732 33.468)" fill="#da840d"/>
          <path id="Vector-144" data-name="Vector" d="M5.086,1.072c0,.589-1.138,1.072-2.55,1.072S0,1.661,0,1.072,1.138,0,2.536,0,5.086.482,5.086,1.072Z" transform="translate(101.235 31.324)" fill="#da840d"/>
          <path id="Vector-145" data-name="Vector" d="M6.881,1.5c0,.857-1.535,1.554-3.441,1.554S0,2.358,0,1.5,1.535,0,3.441,0,6.881.643,6.881,1.5Z" transform="translate(115.998 33.52)" fill="#da840d"/>
          <path id="Vector-146" data-name="Vector" d="M2.221,1.072a1.067,1.067,0,0,1-.18.606,1.105,1.105,0,0,1-.5.406A1.134,1.134,0,0,1,.9,2.151,1.119,1.119,0,0,1,.33,1.857,1.078,1.078,0,0,1,.022,1.3,1.062,1.062,0,0,1,.083.673,1.091,1.091,0,0,1,.492.184,1.129,1.129,0,0,1,1.11,0a1.12,1.12,0,0,1,.424.078,1.1,1.1,0,0,1,.36.231,1.072,1.072,0,0,1,.241.349,1.051,1.051,0,0,1,.085.413Z" transform="translate(132.858 31.321)" fill="#da840d"/>
          <path id="Vector-147" data-name="Vector" d="M4.688.951c0,.536-1.042.951-2.344.951S0,1.487,0,.951,1.056,0,2.344,0,4.688.429,4.688.951Z" transform="translate(128.183 39.91)" fill="#da840d"/>
          <path id="Vector-148" data-name="Vector" d="M3.207,1.541a1.542,1.542,0,0,1-.257.878,1.6,1.6,0,0,1-.714.589,1.638,1.638,0,0,1-.929.1A1.617,1.617,0,0,1,.48,2.685a1.557,1.557,0,0,1-.447-.8A1.534,1.534,0,0,1,.119.974,1.575,1.575,0,0,1,.71.266a1.659,1.659,0,0,1,1.5-.153,1.593,1.593,0,0,1,.519.333,1.553,1.553,0,0,1,.349.5,1.524,1.524,0,0,1,.126.594Z" transform="translate(147.992 30.37)" fill="#da840d"/>
          <path id="Vector-149" data-name="Vector" d="M3.633.469c0,.268-.823.482-1.823.482S0,.737,0,.469.809,0,1.809,0,3.633.214,3.633.469Z" transform="translate(156.299 37.764)" fill="#da840d"/>
          <path id="Vector-150" data-name="Vector" d="M1.406.539a.682.682,0,0,1-.033.422.7.7,0,0,1-.277.326.726.726,0,0,1-.824-.039A.7.7,0,0,1,.029.9.682.682,0,0,1,.038.475.7.7,0,0,1,.3.135.724.724,0,0,1,.707,0a.655.655,0,0,1,.459.131.627.627,0,0,1,.24.4Z" transform="translate(164.214 34.536)" fill="#da840d"/>
          <path id="Vector-151" data-name="Vector" d="M3.091,1.656a1.482,1.482,0,0,1-.073.622,1.506,1.506,0,0,1-.324.54,1.549,1.549,0,0,1-.519.366,1.582,1.582,0,0,1-1.253,0A1.549,1.549,0,0,1,.4,2.817a1.507,1.507,0,0,1-.324-.54,1.482,1.482,0,0,1-.073-.622A1.482,1.482,0,0,1,.08,1.035,1.506,1.506,0,0,1,.4.495,1.549,1.549,0,0,1,.923.129a1.582,1.582,0,0,1,1.253,0,1.549,1.549,0,0,1,.519.366,1.506,1.506,0,0,1,.324.54,1.482,1.482,0,0,1,.073.622Z" transform="translate(156.84 36.581)" fill="#da840d"/>
          <path id="Vector-152" data-name="Vector" d="M3.8,1.018c0,.563-.836,1.018-1.892,1.018S0,1.581,0,1.018.85,0,1.905,0,3.8.456,3.8,1.018Z" transform="translate(164.922 34.538)" fill="#da840d"/>
          <path id="Vector-153" data-name="Vector" d="M166.059,29.326c0,10.557-13.982,20.658-35.161,26.928a170.863,170.863,0,0,1-47.731,6.471c-16.82,0-30.638-4.327-44.592-5.359C15.3,55.6,0,39.013,0,28.134,0,10.825,37.9,0,83.167,0s82.893,12.017,82.893,29.327Z" transform="translate(47.278 6.058)" fill="#e3ac8a"/>
          <path id="Vector-154" data-name="Vector" d="M163.962,31.336c0,17.309-36.71,31.336-81.988,31.336S0,48.645,0,31.336,36.655,0,81.974,0,163.962,14.027,163.962,31.336Z" transform="translate(48.335 1.755)" fill="#da840d"/>
          <path id="Vector-155" data-name="Vector" d="M121.645,23.258c0,12.835-27.238,23.244-60.823,23.244S0,36.092,0,23.258,27.224,0,60.823,0,121.645,10.41,121.645,23.258Z" transform="translate(68.308 6.873)" fill="#f0a508"/>
          <path id="Vector-156" data-name="Vector" d="M6.909,2.505c0,1.34-1.549,2.505-3.454,2.505S0,3.885,0,2.505,1.549,0,3.454,0,6.909,1.112,6.909,2.505Z" transform="translate(81.275 36.2)" fill="#da840d"/>
          <path id="Vector-157" data-name="Vector" d="M3.864,1.969A1.862,1.862,0,0,1,3.5,3a1.929,1.929,0,0,1-.883.66,1.976,1.976,0,0,1-1.109.075A1.944,1.944,0,0,1,.538,3.2a1.874,1.874,0,0,1-.506-.968,1.85,1.85,0,0,1,.123-1.08A1.9,1.9,0,0,1,.866.314,1.965,1.965,0,0,1,1.931,0a2.012,2.012,0,0,1,.752.162,1.975,1.975,0,0,1,.632.431,1.924,1.924,0,0,1,.415.635,1.89,1.89,0,0,1,.134.741Z" transform="translate(77.411 26.192)" fill="#da840d"/>
          <path id="Vector-158" data-name="Vector" d="M6.628,3.043A3.184,3.184,0,0,1,6.172,4.9,3.291,3.291,0,0,1,4.729,6.177a3.387,3.387,0,0,1-1.93.269,3.348,3.348,0,0,1-1.751-.838A3.225,3.225,0,0,1,.081,3.954a3.173,3.173,0,0,1,.151-1.9A3.257,3.257,0,0,1,1.448.565,3.371,3.371,0,0,1,3.311,0a3.264,3.264,0,0,1,2.3.851A3.118,3.118,0,0,1,6.628,3.043Z" transform="translate(98.691 38.704)" fill="#da840d"/>
          <path id="Vector-159" data-name="Vector" d="M4.208,1.514c0,.831-.946,1.514-2.111,1.514S0,2.345,0,1.514.946,0,2.111,0,4.208.67,4.208,1.514Z" transform="translate(93.847 28.162)" fill="#da840d"/>
          <path id="Vector-160" data-name="Vector" d="M4.237,1.851A2.037,2.037,0,0,1,4,3.062a2.1,2.1,0,0,1-.9.864,2.163,2.163,0,0,1-2.39-.3A2.068,2.068,0,0,1,.06,2.567,2.032,2.032,0,0,1,.14,1.337,2.085,2.085,0,0,1,.921.368,2.159,2.159,0,0,1,2.126,0,2.044,2.044,0,0,1,3.57.5a1.953,1.953,0,0,1,.667,1.349Z" transform="translate(115.024 35.003)" fill="#da840d"/>
          <path id="Vector-161" data-name="Vector" d="M4.551,1.541c0,.857-1.014,1.554-2.276,1.554S0,2.4,0,1.541,1.014,0,2.276,0,4.551.7,4.551,1.541Z" transform="translate(115.505 46.459)" fill="#da840d"/>
          <path id="Vector-162" data-name="Vector" d="M3.259,1.7a1.573,1.573,0,0,1-.327.855,1.63,1.63,0,0,1-.753.54,1.667,1.667,0,0,1-.932.048,1.64,1.64,0,0,1-.806-.459,1.581,1.581,0,0,1-.417-.816A1.561,1.561,0,0,1,.134.962a1.6,1.6,0,0,1,.6-.7A1.659,1.659,0,0,1,1.628,0a1.718,1.718,0,0,1,.641.146A1.686,1.686,0,0,1,2.8.52a1.643,1.643,0,0,1,.348.546,1.615,1.615,0,0,1,.107.635Z" transform="translate(107.776 29.674)" fill="#da840d"/>
          <path id="Vector-163" data-name="Vector" d="M4.359,1.554c0,.857-.987,1.554-2.207,1.554S0,2.411,0,1.554.987,0,2.207,0,4.359.7,4.359,1.554Z" transform="translate(130.226 33.09)" fill="#da840d"/>
          <path id="Vector-164" data-name="Vector" d="M4.359.924c0,.509-.987.924-2.207.924S0,1.433,0,.924.987,0,2.207,0,4.359.415,4.359.924Z" transform="translate(130.226 41.745)" fill="#da840d"/>
          <path id="Vector-165" data-name="Vector" d="M4,1.246c0,.7-.9,1.259-2,1.259S0,1.943,0,1.246.9,0,2,0,4,.563,4,1.246Z" transform="translate(145.511 36.2)" fill="#da840d"/>
          <path id="Vector-166" data-name="Vector" d="M4.112,1.553a2.074,2.074,0,0,1-.757,1.12,2.164,2.164,0,0,1-2.6,0A2.074,2.074,0,0,1,0,1.553,2.074,2.074,0,0,1,.757.434a2.164,2.164,0,0,1,2.6,0A2.074,2.074,0,0,1,4.112,1.553Z" transform="translate(143.017 44.841)" fill="#da840d"/>
          <path id="Vector-167" data-name="Vector" d="M4.359,2.635a2.1,2.1,0,0,1-.026.938A2.126,2.126,0,0,1,3.9,4.41a2.187,2.187,0,0,1-.757.576,2.239,2.239,0,0,1-1.873,0A2.187,2.187,0,0,1,.513,4.41,2.126,2.126,0,0,1,.08,3.573a2.1,2.1,0,0,1-.026-.938,2.109,2.109,0,0,1,0-.959A2.137,2.137,0,0,1,.482.811a2.2,2.2,0,0,1,.768-.6,2.253,2.253,0,0,1,1.914,0,2.2,2.2,0,0,1,.768.6,2.137,2.137,0,0,1,.426.864,2.109,2.109,0,0,1,0,.959Z" transform="translate(159.383 41.174)" fill="#da840d"/>
          <path id="Vector-168" data-name="Vector" d="M3.1.951c0,.522-.685.951-1.549.951S0,1.474,0,.951.685,0,1.549,0,3.1.389,3.1.951Z" transform="translate(159.438 31.229)" fill="#da840d"/>
          <path id="Vector-169" data-name="Vector" d="M4.208,3.751c0,2.077-.946,3.765-2.111,3.765S0,5.828,0,3.751.932,0,2.1,0,4.208,1.675,4.208,3.751Z" transform="translate(171.501 31.191)" fill="#da840d"/>
          <path id="Vector-170" data-name="Vector" d="M2.029,1a.976.976,0,0,1-.178.547,1.01,1.01,0,0,1-.458.359,1.037,1.037,0,0,1-.585.051,1.022,1.022,0,0,1-.516-.274A.984.984,0,0,1,.019,1.18.97.97,0,0,1,.079.609,1,1,0,0,1,.452.166,1.031,1.031,0,0,1,1.014,0a1.04,1.04,0,0,1,.718.3.993.993,0,0,1,.3.706Z" transform="translate(178.916 30.133)" fill="#da840d"/>
          <path id="Vector-171" data-name="Vector" d="M5.716,1.742c0,.965-1.275,1.755-2.865,1.755S0,2.706,0,1.742,1.275,0,2.851,0,5.716.777,5.716,1.742Z" transform="translate(140.686 26.178)" fill="#da840d"/>
          <path id="Vector-172" data-name="Vector" d="M4.483,1.085c0,.589-1,1.072-2.248,1.072S0,1.675,0,1.085,1,0,2.234,0,4.483.482,4.483,1.085Z" transform="translate(88.184 17.82)" fill="#da840d"/>
          <path id="Vector-173" data-name="Vector" d="M5.1,1.072c0,.6-1.138,1.072-2.55,1.072S0,1.675,0,1.072,1.151,0,2.55,0,5.1.429,5.1,1.072Z" transform="translate(100.727 15.674)" fill="#da840d"/>
          <path id="Vector-174" data-name="Vector" d="M6.881,1.554c0,.857-1.535,1.554-3.441,1.554S0,2.411,0,1.554,1.535,0,3.441,0,6.881.7,6.881,1.554Z" transform="translate(115.505 17.82)" fill="#da840d"/>
          <path id="Vector-175" data-name="Vector" d="M2.221,1.072a1.067,1.067,0,0,1-.18.606,1.105,1.105,0,0,1-.5.406A1.134,1.134,0,0,1,.9,2.151,1.119,1.119,0,0,1,.33,1.857,1.078,1.078,0,0,1,.022,1.3,1.062,1.062,0,0,1,.083.673,1.091,1.091,0,0,1,.492.184,1.129,1.129,0,0,1,1.11,0a1.12,1.12,0,0,1,.424.078,1.1,1.1,0,0,1,.36.231,1.071,1.071,0,0,1,.241.349,1.051,1.051,0,0,1,.085.413Z" transform="translate(132.364 15.674)" fill="#da840d"/>
          <path id="Vector-176" data-name="Vector" d="M4.688.965c0,.522-1.056.951-2.344.951S0,1.487,0,.965,1.056,0,2.344,0,4.688.429,4.688.965Z" transform="translate(127.689 24.26)" fill="#da840d"/>
          <path id="Vector-177" data-name="Vector" d="M3.18,1.514a1.528,1.528,0,0,1-.248.874,1.581,1.581,0,0,1-.7.59,1.624,1.624,0,0,1-.922.105,1.6,1.6,0,0,1-.825-.416,1.545,1.545,0,0,1-.447-.795,1.522,1.522,0,0,1,.083-.9A1.562,1.562,0,0,1,.7.265,1.616,1.616,0,0,1,1.59,0,1.6,1.6,0,0,1,2.7.437,1.524,1.524,0,0,1,3.18,1.514Z" transform="translate(147.513 14.765)" fill="#da840d"/>
          <path id="Vector-178" data-name="Vector" d="M3.646.482c0,.255-.822.469-1.823.469S0,.737,0,.482.822,0,1.823,0,3.646.214,3.646.482Z" transform="translate(155.791 22.119)" fill="#da840d"/>
          <path id="Vector-179" data-name="Vector" d="M1.406.539a.682.682,0,0,1-.033.422.7.7,0,0,1-.277.326.726.726,0,0,1-.824-.039A.7.7,0,0,1,.029.9.682.682,0,0,1,.038.475.7.7,0,0,1,.3.135.724.724,0,0,1,.707,0a.655.655,0,0,1,.459.131.627.627,0,0,1,.24.4Z" transform="translate(163.72 18.901)" fill="#da840d"/>
          <path id="Vector-180" data-name="Vector" d="M3.089,1.675a1.5,1.5,0,0,1-.337.793,1.55,1.55,0,0,1-.724.486,1.583,1.583,0,0,1-.878.023A1.555,1.555,0,0,1,.4,2.529a1.5,1.5,0,0,1-.38-.774A1.483,1.483,0,0,1,.132.9,1.523,1.523,0,0,1,.7.248,1.574,1.574,0,0,1,1.54,0a1.662,1.662,0,0,1,.618.152A1.628,1.628,0,0,1,2.67.523,1.588,1.588,0,0,1,3,1.058a1.561,1.561,0,0,1,.092.616Z" transform="translate(156.349 20.927)" fill="#da840d"/>
          <path id="Vector-181" data-name="Vector" d="M3.8,1c0,.563-.85,1.018-1.892,1.018S0,1.567,0,1,.85,0,1.905,0,3.8.442,3.8,1Z" transform="translate(164.427 18.903)" fill="#da840d"/>
          <path id="Vector-182" data-name="Vector" d="M11.78,8.666c-.932,3.671-1.768,7.837-4.4,10.718a4.333,4.333,0,0,1-5.826.563C-1.339,14.065-.653.6,7.572.025A5.231,5.231,0,0,1,11.016.9a5.026,5.026,0,0,1,2.039,2.851q-.589,2.478-1.275,4.917Z" transform="translate(129.7 99.88)" fill="#eebe30"/>
          <path id="Vector-183" data-name="Vector" d="M156.81,41.6c-1.59,4.274-7.389,4.89-11.391,4.394C135.3,44.747,127.954,37.2,118.852,33.547a24.257,24.257,0,0,0-15.271-1.018c-3.55.844-7.5,2.787-6.977,7.074.37,3.081,1.892,5.948,2.056,9.07.288,5.667-2.385,10.423-4.345,15.568-2.084,5.533-2.6,11.548-3.249,17.416-.356.268-.713.536-1.1.777-5.675,3.631-9.034-3.778-9.034-8.306-.151-8.4,5.4-16.827.987-24.785a5.332,5.332,0,0,0-.274-.469c-.123-.214-.247-.415-.384-.616a9.535,9.535,0,0,0-3.4-2.894c-4.044-1.956-8.472-2.907-12.337-5.064A13.125,13.125,0,0,1,60.7,36.28a27.156,27.156,0,0,0-3.413-5.118c-2.426-2.3-7.2-2.411-10.281-1.715-3.715.884-6.758,2.867-9.883,4.9a35.078,35.078,0,0,1-8.732,4.7c-2.6.79-5.442.79-8.088,1.514a21.087,21.087,0,0,0-8.526,4.367c-1.823,1.648-2.07,3.885-2.742,6.082-.727,2.425-3.3,7.221-6.69,4.676-2.742-2.13-2.92-7.06-1.371-9.941,2.577-4.81,8.458-8.213,13.256-10.611C20.14,32.18,26.6,29.9,31.82,25.656A17.9,17.9,0,0,0,37.3,18.783a41.813,41.813,0,0,0,1.8-7.288c.672-3,1.713-6.565,4.674-7.9C46.446-.12,53.424-.067,57.413.027A82.482,82.482,0,0,1,69.037,1.192c5.8.911,11.624.911,16.217,4.93,2.344,2.157,4.5,4.649,7.238,6.176a20.586,20.586,0,0,0,8.965,2.318c5.84.295,11.83-.965,17.629-.281,5.209.6,10.171,2.211,13.585,6.31a71.093,71.093,0,0,0,7.539,8.373A25.65,25.65,0,0,0,148,33.667c2.851,1.192,10.4,3.657,8.814,7.931Z" transform="translate(55.817 0)" fill="#eebe30"/>
          <path id="Vector-184" data-name="Vector" d="M11.3,6.386a28.665,28.665,0,0,1,.164,12.808c-.452,2.6-.685,6.725-2.892,8.547-1.933,1.608-2.659-2.4-2.742-3.336-.206-2.1.493-4.207.26-6.337a9.5,9.5,0,0,0-1.837-4.555C2.888,11.424-1.087,6.507.283,3.653a.364.364,0,0,1-.1-.113A.356.356,0,0,1,.146,3.4C-.114.934,3.176-.42,5.259.116A9.539,9.539,0,0,1,9.07,2.526,9.246,9.246,0,0,1,11.3,6.386Z" transform="translate(136.81 32.869)" fill="#fff" opacity="0.5"/>
          <path id="Vector-185" data-name="Vector" d="M27.171,14.654c-1.933,2.13-5.689-.683-7.06-2.023C17.63,10.3,15.642,8.8,12.078,8.465a39.339,39.339,0,0,1-7.649-.884,6.9,6.9,0,0,1-2.742-1.5.518.518,0,0,1-.343,0h0a.6.6,0,0,1-.26-.255,3.405,3.405,0,0,0-.713-.683A.586.586,0,0,1,.09,4.913.566.566,0,0,1,0,4.566C1.071-1.476,11.2-.19,15.423,1a17.038,17.038,0,0,1,9.993,7.449c.809,1.233,3.235,4.7,1.755,6.2Z" transform="translate(162.562 16.935)" fill="#fff" opacity="0.5"/>
          <path id="Vector-186" data-name="Vector" d="M7.365.251a.337.337,0,0,1,.108.127A.328.328,0,0,1,7.454.7,46.51,46.51,0,0,1,4.192,4.356C3.4,5.12,2.286,6.58.874,6.46S.107,3.995.436,3.325A6.451,6.451,0,0,1,2.414,1.116,6.637,6.637,0,0,1,5.192,0a.182.182,0,0,1,.08.005.18.18,0,0,1,.07.039.175.175,0,0,1,.045.065A.171.171,0,0,1,5.4.19a7.462,7.462,0,0,1,1.809,0,.347.347,0,0,1,.157.061Z" transform="translate(58.948 42.026)" fill="#fff" opacity="0.5"/>
          <path id="Vector-187" data-name="Vector" d="M38.125,7.728C36.179,14.962,26.1,14.614,20.7,15.766A31.987,31.987,0,0,0,7.35,21.835C5.418,23.389,2.58,25.868.113,24.206a.308.308,0,0,1-.1-.153.3.3,0,0,1,.005-.182c1.275-5.4,7.745-8.025,11.857-10.061,1.234-.589,2.467-1.166,3.66-1.809,1.6-.884,4.14-1.849,4.62-3.939a1.866,1.866,0,0,0,0-.268.308.308,0,0,1-.13-.026.3.3,0,0,1-.106-.078.292.292,0,0,1-.061-.115.289.289,0,0,1-.005-.129A8.953,8.953,0,0,1,21.22,4.1a9.174,9.174,0,0,1,2.595-2.562A9.457,9.457,0,0,1,30.915.2c3.167.549,8.389,3.041,7.21,7.529Z" transform="translate(200.587 119.264)" fill="#fff" opacity="0.5"/>
          <path id="Vector-188" data-name="Vector" d="M13.909,13.18a5.817,5.817,0,0,1-2.372,1.862,8.058,8.058,0,0,1-3.153.268c-2.687-.08-5.73-.415-7.224-2.907A6.844,6.844,0,0,1,.791,5.4c.617-1.139,2.262-3.59,3.893-3.818A2.094,2.094,0,0,1,4.9,1.109C5.177.573,6.288.024,6.754.386s.617-.2,1-.348a1.062,1.062,0,0,1,.877.147,5.906,5.906,0,0,1,.644.509c.6.469,1.275.134,1.713,0s.617.777,1.083.777c.822.094,2.043,1.5,2.522,2.157,2.55,3.443,2.029,6.283-.685,9.552Z" transform="translate(128.558 11.927)" fill="#48264c"/>
          <path id="Vector-189" data-name="Vector" d="M13.324,11.321a5.817,5.817,0,0,1-2.372,1.862,8.058,8.058,0,0,1-3.153.268c-2.687-.08-5.73-.415-7.224-2.907A8.737,8.737,0,0,1,0,9.418a9.811,9.811,0,0,0,4.716.147A9.8,9.8,0,0,0,10.3,6.123,9.41,9.41,0,0,0,12.365,0,9.033,9.033,0,0,1,14.01,1.728c2.55,3.443,2.029,6.283-.685,9.592Z" transform="translate(129.143 13.828)" fill="#300d33"/>
          <path id="Vector-190" data-name="Vector" d="M14.416,17.346a6.763,6.763,0,0,1-3.1,1.514,9.173,9.173,0,0,1-3.55-.456C4.82,17.694,1.531,16.6.489,13.5a8.39,8.39,0,0,1-.1-5.359.184.184,0,0,1,0-.08c.082-.241.178-.5.288-.737a8.137,8.137,0,0,1,.425-.75h0A7.81,7.81,0,0,1,2.476,5.021a13.1,13.1,0,0,1,2.44-1.943A24.176,24.176,0,0,0,6.986.4c1.069-1.246,2.522.911,3.893,0a.881.881,0,0,1,.9,0c.85.656,1.124,1.38,2.358.817a.574.574,0,0,1,.486.027.558.558,0,0,1,.186.163.543.543,0,0,1,.1.225c.178.831.37,1.648.521,2.478A7.292,7.292,0,0,1,17.5,6.977c1.96,4.408.7,7.422-3.084,10.369Z" transform="translate(128.064 141.932)" fill="#48264c"/>
          <path id="Vector-191" data-name="Vector" d="M14.284,12.66a6.763,6.763,0,0,1-3.1,1.514,9.173,9.173,0,0,1-3.55-.456C4.688,13.009,1.4,11.91.356,8.815A9.731,9.731,0,0,1,0,7.476,11.029,11.029,0,0,0,5.2,8.762a11.206,11.206,0,0,0,7.024-2.48A10.754,10.754,0,0,0,16.025,0,9.919,9.919,0,0,1,17.4,2.291c1.96,4.408.7,7.422-3.112,10.369Z" transform="translate(128.17 146.619)" fill="#300d33"/>
          <path id="Vector-192" data-name="Vector" d="M14.666,17.037a6.814,6.814,0,0,1-3,1.661A9.515,9.515,0,0,1,8.21,18.4C5.235,17.881,1.89,16.9.684,13.862A7.717,7.717,0,0,1,1.589,6,14.083,14.083,0,0,1,4.33,3.318V3.1A2.392,2.392,0,0,1,4.608,1.8,2.463,2.463,0,0,1,5.55.826c.836-.348,1.659.737,2.3,0C8.237.384,8.827-.192,9.5.063a1.471,1.471,0,0,1,.768.656c.343.509,1.22-.389,1.549-.389,1.439-.255,2,1,2.138,2.211.452.08.452.924.918,1.045.9.255,2,2.036,2.426,2.854,2.18,4.3,1.083,7.368-2.632,10.6Z" transform="translate(103.483 6.783)" fill="#48264c"/>
          <path id="Vector-193" data-name="Vector" d="M14.476,12.821a6.814,6.814,0,0,1-3,1.661,9.517,9.517,0,0,1-3.523-.241C4.976,13.719,1.631,12.741.425,9.7A9.674,9.674,0,0,1,0,8.36,11.087,11.087,0,0,0,5.236,9.378a11.219,11.219,0,0,0,6.9-2.872A10.759,10.759,0,0,0,15.586,0a10.867,10.867,0,0,1,1.522,2.224c2.18,4.3,1.083,7.368-2.632,10.6Z" transform="translate(103.674 10.998)" fill="#300d33"/>
          <path id="Vector-194" data-name="Vector" d="M16.874,19.879a7.728,7.728,0,0,1-3.66,1.822A10.612,10.612,0,0,1,9.1,21.125C5.648,20.2,1.768,18.821.589,15a9.78,9.78,0,0,1-.448-5A9.887,9.887,0,0,1,2.234,5.424C3.372,4.084,6.264,1.23,8.458,1.4A3.4,3.4,0,0,1,8.883.842C9.4.2,10.87-.444,11.515.413c.452.643.822-.08,1.371-.174a1.4,1.4,0,0,1,.605.117,1.368,1.368,0,0,1,.491.365,8.256,8.256,0,0,1,.672.871c.644.764,1.426.549,2.248.469.6-.08.576,1.139,1.165,1.34,1.042.375,2.207,2.639,2.632,3.671,2.317,5.453.781,9.11-3.825,12.808Z" transform="translate(153.392 16.976)" fill="#48264c"/>
          <path id="Vector-195" data-name="Vector" d="M16.683,15.581a7.728,7.728,0,0,1-3.66,1.822,10.612,10.612,0,0,1-4.112-.576C5.456,15.9,1.576,14.523.4,10.7A11.893,11.893,0,0,1,0,9.03a12.558,12.558,0,0,0,6.073,1.608,13.355,13.355,0,0,0,8.4-3.047A12.812,12.812,0,0,0,18.931,0a12.728,12.728,0,0,1,1.618,2.827c2.317,5.453.781,9.11-3.866,12.754Z" transform="translate(153.544 21.222)" fill="#300d33"/>
          <path id="Vector-196" data-name="Vector" d="M20.455,22.833a9.448,9.448,0,0,1-4.373,2.13,12.954,12.954,0,0,1-5.045-.63C6.885,23.315,2.21,21.774.743,17.38A10.936,10.936,0,0,1,.152,11.6,11.058,11.058,0,0,1,2.608,6.314c1.357-1.5,4.8-4.85,7.43-4.662a4.82,4.82,0,0,1,.507-.67c.631-.737,2.372-1.5,3.167-.509C14.3,1.2,14.739.365,15.4.258a1.736,1.736,0,0,1,.748.115,1.7,1.7,0,0,1,.623.421,8.285,8.285,0,0,1,.822,1c.836.871,1.768.616,2.742.509.658-.08.658,1.34,1.371,1.567,1.247.415,2.659,3.014,3.194,4.207,2.769,6.23.987,10.49-4.441,14.75Z" transform="translate(147.18 129.373)" fill="#48264c"/>
          <path id="Vector-197" data-name="Vector" d="M20.206,18.006a9.447,9.447,0,0,1-4.373,2.13,12.954,12.954,0,0,1-5.045-.63C6.635,18.488,1.96,16.947.493,12.553A11.833,11.833,0,0,1,0,10.611a15.6,15.6,0,0,0,7.32,1.809,15.9,15.9,0,0,0,9.938-3.528A15.263,15.263,0,0,0,22.646,0,14.256,14.256,0,0,1,24.62,3.256c2.769,6.23.987,10.49-4.414,14.75Z" transform="translate(147.458 134.2)" fill="#300d33"/>
          <path id="Vector-198" data-name="Vector" d="M3.729.228s3.66-1.34,5.785,3.389S12.406,13,14.531,15.206a4.976,4.976,0,0,1,1.346,1.813,4.871,4.871,0,0,1,.395,2.206s-5.99-3.2-7.526-4.9a35.905,35.905,0,0,1-5.8-7.73C1.22,3.189,0,0,0,0Z" transform="translate(106.362 127.582)" fill="#5f825c"/>
          <path id="Vector-199" data-name="Vector" d="M21.4,13.624a65.432,65.432,0,0,1-7.032-2.117A37.246,37.246,0,0,1,5.84,6.778C3.934,5.532,0,.079,0,.079A5.2,5.2,0,0,1,2.312.194a5.119,5.119,0,0,1,2.02,1.1C6.8,3.107,11.638,3.335,16.669,4.849s4.112,5.225,4.112,5.225Z" transform="translate(87.869 116.905)" fill="#5f825c"/>
          <path id="Vector-200" data-name="Vector" d="M34.271,3.958s6.758,4.716,6.566,11.133-.192,9.619-4.112,13.2-11.378,3.778-15.243,5.466-8.485,3.215-9.6,4.153-3.468,1.889-6.936,0S-.534,36.219.124,30.927A100.839,100.839,0,0,1,5.141,10.938C7.06,6.035,8.76,2.257,14.188.756A25.11,25.11,0,0,1,29.843,1.882c3.413,1.7,4.428,2.077,4.428,2.077Z" transform="translate(73.668 124.832)" fill="#ed6366"/>
          <path id="Vector-201" data-name="Vector" d="M.987,21.7a27.814,27.814,0,0,0,9.6,1.7C24.017,23.4,34.9,14.174,34.9,2.8A17.168,17.168,0,0,0,34.682,0C36.135,1.139,41,5.359,40.837,10.825c-.192,6.4-.192,9.619-4.112,13.2S25.347,27.8,21.481,29.487,13,32.7,11.885,33.64s-3.468,1.889-6.936,0-5.483-1.7-4.825-6.98c.206-1.393.493-3.095.864-4.957Z" transform="translate(73.611 128.95)" fill="#c73a54"/>
          <path id="Vector-202" data-name="Vector" d="M1.313.185A.189.189,0,0,1,1.377.119.2.2,0,0,1,1.464.091c.014-.134.164-.107.164,0V.184a1.783,1.783,0,0,1,0,.857C1.56,2.167,1.341,3.708.422,3.588c-1.275-.161.727-3.041.891-3.4Z" transform="translate(110.516 139.267)" fill="#e7d8c8"/>
          <path id="Vector-203" data-name="Vector" d="M.113,1.135A2.241,2.241,0,0,1,.948.015H1.1a.168.168,0,0,1,.164.014.162.162,0,0,1,.055.064.157.157,0,0,1,.014.082,1.734,1.734,0,0,1-.123.576,2.288,2.288,0,0,1-.239.979,2.34,2.34,0,0,1-.639.789.136.136,0,0,1-.048.039.14.14,0,0,1-.123,0A.137.137,0,0,1,.112,2.52a2.189,2.189,0,0,1,0-1.386Z" transform="translate(108.907 134.52)" fill="#e7d8c8"/>
          <path id="Vector-204" data-name="Vector" d="M1.53.055A.165.165,0,0,1,1.618,0a.168.168,0,0,1,.1.009A.164.164,0,0,1,1.8.079a.158.158,0,0,1,.022.1,3.736,3.736,0,0,1-.247.871C1.366,1.971,1,3.378.2,2.761-.581,2.2,1.146.5,1.53.055Z" transform="translate(104.858 131.236)" fill="#e7d8c8"/>
          <path id="Vector-205" data-name="Vector" d="M1.462.173,1.709.012c.123-.054.233.08.233.188a3.313,3.313,0,0,1-.85,1.876,4.455,4.455,0,0,1-.685.831.123.123,0,0,1-.043.033.126.126,0,0,1-.106,0,.123.123,0,0,1-.043-.033C-.457,2.022.585.8,1.462.173Z" transform="translate(104.337 137.068)" fill="#e7d8c8"/>
          <path id="Vector-206" data-name="Vector" d="M.286,1.368A3.837,3.837,0,0,1,1.123.109V.015h.164a.168.168,0,0,1,.164.014.162.162,0,0,1,.055.064A.157.157,0,0,1,1.52.176a2.754,2.754,0,0,1-.384,1.233C.972,2.145.67,2.855.163,2.547-.207,2.346.149,1.676.286,1.368Z" transform="translate(105.758 143.417)" fill="#e7d8c8"/>
          <path id="Vector-207" data-name="Vector" d="M1.87.036a.185.185,0,0,1,.288.121V.25a.184.184,0,0,1,0,.254h0a2.031,2.031,0,0,1-.288.884,5.135,5.135,0,0,1-.3,1.018c-.247.482-.822.978-1.371.63-.836-.549,1.22-2.679,1.672-3Z" transform="translate(108.315 146.248)" fill="#e7d8c8"/>
          <path id="Vector-208" data-name="Vector" d="M1.756.01A.155.155,0,0,1,1.827,0a.152.152,0,0,1,.067.024.149.149,0,0,1,.049.052.145.145,0,0,1,.019.068A1.721,1.721,0,0,1,1.81.878a1.758,1.758,0,0,1-.451.606C1.044,2.1.591,2.73.125,2.1-.451,1.323,1.112.251,1.756.01Z" transform="translate(103.07 149.032)" fill="#e7d8c8"/>
          <path id="Vector-209" data-name="Vector" d="M.5,1.271A6.8,6.8,0,0,1,1.869.038a.181.181,0,0,1,.2-.015A.176.176,0,0,1,2.141.1a.171.171,0,0,1,.016.1,1.631,1.631,0,0,1-.151.576v.2A2.81,2.81,0,0,1,1.321,2.49c-.288.322-.96.482-1.234,0S.252,1.5.5,1.271Z" transform="translate(100.117 142.106)" fill="#e7d8c8"/>
          <path id="Vector-210" data-name="Vector" d="M.567.7a2.632,2.632,0,0,1,1.014-.7.2.2,0,0,1,.09,0,.194.194,0,0,1,.082.036A.189.189,0,0,1,1.81.109.184.184,0,0,1,1.828.2a1.905,1.905,0,0,1-.439,1.072,1.852,1.852,0,0,1-.439.576C.676,2.058.128,2.1.018,1.682-.091,1.307.32.932.566.7Z" transform="translate(99.831 136.968)" fill="#e7d8c8"/>
          <path id="Vector-211" data-name="Vector" d="M1.01.008a.2.2,0,0,1,.138.01.19.19,0,0,1,.1.1,2.084,2.084,0,0,1-.051,1.21,2.132,2.132,0,0,1-.717.987.208.208,0,0,1-.087.036.211.211,0,0,1-.095-.006A.206.206,0,0,1,.212,2.3.2.2,0,0,1,.16,2.219a1.039,1.039,0,0,1-.082-.295A1.509,1.509,0,0,1,.153.784,1.563,1.563,0,0,1,1.01.008Z" transform="translate(101.198 128.634)" fill="#e7d8c8"/>
          <path id="Vector-212" data-name="Vector" d="M.4,1.34C.628.925,1.149.081,1.766,0a.223.223,0,0,1,.121.03.217.217,0,0,1,.084.09A2.543,2.543,0,0,1,1.916,1.4a2.588,2.588,0,0,1-.671,1.1c-.247.536-.589.871-1,.536C-.277,2.626.162,1.755.4,1.34Z" transform="translate(97.233 132.981)" fill="#e7d8c8"/>
          <path id="Vector-213" data-name="Vector" d="M1.132.306a2.434,2.434,0,0,1,.26-.268.224.224,0,0,1,.214-.02.219.219,0,0,1,.087.067.211.211,0,0,1,.042.1,2.006,2.006,0,0,1-.1.919,2.044,2.044,0,0,1-.5.783.772.772,0,0,1,0,.107.54.54,0,0,1-.182.2.559.559,0,0,1-.534.046A.546.546,0,0,1,.2,2.075C-.39,1.485.447.628,1.132.306Z" transform="translate(96.195 128.01)" fill="#e7d8c8"/>
          <path id="Vector-214" data-name="Vector" d="M.113,1.376A3.2,3.2,0,0,1,1.36.036.2.2,0,0,1,1.576.029.189.189,0,0,1,1.65.114a.184.184,0,0,1,.012.11,2.157,2.157,0,0,1-.178.723v.228a3.809,3.809,0,0,1-.192.871,1.131,1.131,0,0,1-.535.643.217.217,0,0,1-.08.081.224.224,0,0,1-.223,0,.217.217,0,0,1-.08-.081h0C-.161,2.407,0,1.711.113,1.376Z" transform="translate(92.553 131.847)" fill="#e7d8c8"/>
          <path id="Vector-215" data-name="Vector" d="M1.373,0a.5.5,0,0,1,.235.036A.493.493,0,0,1,1.8.176c.137-.04.137.027.137.121V.39a.906.906,0,0,1-.11.549,3.774,3.774,0,0,1-.864,1,4.994,4.994,0,0,1-.507.549.14.14,0,0,1-.151,0C-.5,1.837.455.015,1.373,0Z" transform="translate(91.387 127.486)" fill="#e7d8c8"/>
          <path id="Vector-216" data-name="Vector" d="M.426,1.072A1.927,1.927,0,0,1,1.036.353,1.986,1.986,0,0,1,1.92,0a.21.21,0,0,1,.09.013.206.206,0,0,1,.075.05A.2.2,0,0,1,2.132.14.2.2,0,0,1,2.14.228a1.315,1.315,0,0,1-.151.589,3.308,3.308,0,0,1-.754,1.474C1,2.573.358,3.082.083,2.573c-.247-.456.11-1.112.343-1.5Z" transform="translate(86.072 129.083)" fill="#e7d8c8"/>
          <path id="Vector-217" data-name="Vector" d="M.434,1.267A3.348,3.348,0,0,1,1.311.035.18.18,0,0,1,1.387,0a.182.182,0,0,1,.082,0,.18.18,0,0,1,.071.04.174.174,0,0,1,.045.067A2.293,2.293,0,0,1,1.6,1.275,2.329,2.329,0,0,1,1.037,2.3a1.511,1.511,0,0,1-.219.415c-.164.214-.6.415-.768,0-.192-.482.219-1.1.384-1.447Z" transform="translate(87.462 134.327)" fill="#e7d8c8"/>
          <path id="Vector-218" data-name="Vector" d="M.125,1.761A2.939,2.939,0,0,1,1.208.06.192.192,0,0,1,1.3.007a.2.2,0,0,1,.1,0,.193.193,0,0,1,.089.054.186.186,0,0,1,.046.092,1.693,1.693,0,0,1-.1.737A1.614,1.614,0,0,1,1.1,1.7a1.67,1.67,0,0,1-.719.526H.249a.224.224,0,0,1-.1-.009.22.22,0,0,1-.085-.052.214.214,0,0,1-.053-.083.21.21,0,0,1-.01-.1Z" transform="translate(92.965 137.598)" fill="#e7d8c8"/>
          <path id="Vector-219" data-name="Vector" d="M1.247.033A.21.21,0,0,1,1.442.017a.2.2,0,0,1,.08.06.2.2,0,0,1,.041.09h0V.261c0,.75-.535,1.956-1.371,2.023a.168.168,0,0,1-.068,0,.166.166,0,0,1-.061-.029A.161.161,0,0,1,.019,2.2.158.158,0,0,1,0,2.136,2.635,2.635,0,0,1,.366.938,2.707,2.707,0,0,1,1.247.033Z" transform="translate(95.847 140.906)" fill="#e7d8c8"/>
          <path id="Vector-220" data-name="Vector" d="M.623.429A2.734,2.734,0,0,1,1.2,0c.11,0,.3,0,.3.121A2.212,2.212,0,0,1,.87,1.554a1.484,1.484,0,0,1-.658.563.154.154,0,0,1-.112,0A.149.149,0,0,1,.02,2.036V1.889a.248.248,0,0,1,0-.107,1.311,1.311,0,0,1,.094-.765A1.348,1.348,0,0,1,.624.429Z" transform="translate(91.769 142.947)" fill="#e7d8c8"/>
          <path id="Vector-221" data-name="Vector" d="M1.242,0A.223.223,0,0,1,1.4.049a.213.213,0,0,1,.078.139,1,1,0,0,1,0,.348,1.311,1.311,0,0,1-.054.581,1.334,1.334,0,0,1-.3.5,1.806,1.806,0,0,1-.809.75c-.082,0-.178,0-.219-.094C-.211,1.581.255-.013,1.242,0Z" transform="translate(87.545 139.612)" fill="#e7d8c8"/>
          <path id="Vector-222" data-name="Vector" d="M.049,2.256a1.586,1.586,0,0,1-.008-.748A1.607,1.607,0,0,1,.378.836a2.706,2.706,0,0,1,.768-.8.223.223,0,0,1,.26.021.215.215,0,0,1,.055.073A1.955,1.955,0,0,1,1.31,1.453a2.021,2.021,0,0,1-.973.937.224.224,0,0,1-.173-.006.219.219,0,0,1-.071-.052.212.212,0,0,1-.044-.075Z" transform="translate(82.556 136.514)" fill="#e7d8c8"/>
          <path id="Vector-223" data-name="Vector" d="M0,1.357A1.475,1.475,0,0,1,.219.574a1.522,1.522,0,0,1,.6-.557A.21.21,0,0,1,1.013.03.2.2,0,0,1,1.082.1.2.2,0,0,1,1.11.191,1.665,1.665,0,0,1,1.03.982a1.7,1.7,0,0,1-.44.669.774.774,0,0,1-.219.2.223.223,0,0,1-.248-.026.215.215,0,0,1-.054-.068h0a.118.118,0,0,1,0-.094A1.13,1.13,0,0,1,0,1.357Z" transform="translate(83.208 142.584)" fill="#e7d8c8"/>
          <path id="Vector-224" data-name="Vector" d="M1.426,0A.181.181,0,0,1,1.5.01a.179.179,0,0,1,.063.037A.174.174,0,0,1,1.6.1a.17.17,0,0,1,.015.07,1.858,1.858,0,0,1-.3,1.008,1.92,1.92,0,0,1-.807.694.238.238,0,0,1-.137,0H.178a.153.153,0,0,1-.125-.032.147.147,0,0,1-.04-.052A.145.145,0,0,1,0,1.729,2.348,2.348,0,0,1,.493.692,2.421,2.421,0,0,1,1.426,0Z" transform="translate(94.339 145.884)" fill="#e7d8c8"/>
          <path id="Vector-225" data-name="Vector" d="M0,1.635A1.857,1.857,0,0,1,.33.952,2.311,2.311,0,0,1,1.372.014a.182.182,0,0,1,.18.022A.175.175,0,0,1,1.609.11.171.171,0,0,1,1.619.2a2.325,2.325,0,0,1-.337.884,2.382,2.382,0,0,1-.664.684l-.1.094a.126.126,0,0,1-.137,0h-.1a.224.224,0,0,1-.109.008.222.222,0,0,1-.1-.044.214.214,0,0,1-.065-.086A.21.21,0,0,1,0,1.636Z" transform="translate(97.216 147.983)" fill="#e7d8c8"/>
          <path id="Vector-226" data-name="Vector" d="M.01,1.351A2.69,2.69,0,0,1,.75.427,3.078,3.078,0,0,1,1.189.038a.224.224,0,0,1,.137,0,.182.182,0,0,1,.2-.015A.176.176,0,0,1,1.6.1a.171.171,0,0,1,.016.1,1.646,1.646,0,0,1-.42.851,1.707,1.707,0,0,1-.827.489H.256a.168.168,0,0,1-.193-.006A.161.161,0,0,1,.007,1.45a.157.157,0,0,1,0-.1Z" transform="translate(96.398 152.987)" fill="#e7d8c8"/>
          <path id="Vector-227" data-name="Vector" d="M.053,1.447A1.317,1.317,0,0,1,.215.892,1.349,1.349,0,0,1,.6.456,1.789,1.789,0,0,1,1.369,0c.123,0,.288,0,.288.161A1.785,1.785,0,0,1,1.245,1.2a1.855,1.855,0,0,1-.959.607A.225.225,0,0,1,.2,1.8a.222.222,0,0,1-.077-.038A.216.216,0,0,1,.066,1.7a.211.211,0,0,1-.027-.08.108.108,0,0,1-.031-.041.105.105,0,0,1,.008-.1.109.109,0,0,1,.037-.036Z" transform="translate(91.913 150.585)" fill="#e7d8c8"/>
          <path id="Vector-228" data-name="Vector" d="M1.1.02h.11a.308.308,0,0,1,.272.025.3.3,0,0,1,.1.1.291.291,0,0,1,.042.131C1.536.958.947,1.842.248,1.883c-.11,0-.26-.08-.247-.2A1.752,1.752,0,0,1,.292.689,1.813,1.813,0,0,1,1.1.02Z" transform="translate(87.703 146.519)" fill="#e7d8c8"/>
          <path id="Vector-229" data-name="Vector" d="M.455.887A2.378,2.378,0,0,1,1.593.017a.224.224,0,0,1,.219.028.215.215,0,0,1,.069.089.21.21,0,0,1,.014.111A3.232,3.232,0,0,1,.359,2.08a.224.224,0,0,1-.223.031.219.219,0,0,1-.092-.071A.211.211,0,0,1,0,1.932a1.234,1.234,0,0,1,.1-.575A1.261,1.261,0,0,1,.455.887Z" transform="translate(86.125 151.868)" fill="#e7d8c8"/>
          <path id="Vector-230" data-name="Vector" d="M.113,1.34A1.62,1.62,0,0,1,.339.573,1.666,1.666,0,0,1,.908,0c.11,0,.315,0,.356.094a1.838,1.838,0,0,1-.157,1.041A1.889,1.889,0,0,1,.4,1.929a.251.251,0,0,1-.279.02.243.243,0,0,1-.1-.106A.236.236,0,0,1,0,1.7a3.015,3.015,0,0,1,.11-.362Z" transform="translate(82.848 147.128)" fill="#e7d8c8"/>
          <path id="Vector-231" data-name="Vector" d="M.322.565A.763.763,0,0,1,.6.163L.678.069c.1-.121.356-.08.356.094A1.5,1.5,0,0,1,.76.98a1.224,1.224,0,0,1-.14.506,1.253,1.253,0,0,1-.34.405A.182.182,0,0,1,.1,1.9a.177.177,0,0,1-.068-.059.172.172,0,0,1-.03-.084A1.843,1.843,0,0,1,.322.565Z" transform="translate(79.185 143.738)" fill="#e7d8c8"/>
          <path id="Vector-232" data-name="Vector" d="M.382.267.561.039c.1-.094.315,0,.315.094A1.718,1.718,0,0,1,.767.92a1.754,1.754,0,0,1-.453.66h0v.08a.166.166,0,0,1-.075.04.168.168,0,0,1-.086,0A.165.165,0,0,1,.08,1.654a.16.16,0,0,1-.04-.074.8.8,0,0,1,0-.255A.983.983,0,0,1,.048.745,1,1,0,0,1,.382.267Z" transform="translate(82.537 132.462)" fill="#e7d8c8"/>
          <path id="Vector-233" data-name="Vector" d="M1.084.032a.21.21,0,0,1,.217,0,.2.2,0,0,1,.077.081A.2.2,0,0,1,1.4.219a2.37,2.37,0,0,1-.277.984,2.426,2.426,0,0,1-.669.784l-.11.121a.163.163,0,0,1-.06.061.168.168,0,0,1-.167,0,.163.163,0,0,1-.06-.061C-.2,1.4.495.447,1.084.032Z" transform="translate(81.219 152.698)" fill="#e7d8c8"/>
          <path id="Vector-234" data-name="Vector" d="M.073.786A.812.812,0,0,1,.334.331,1.156,1.156,0,0,1,.526.089.217.217,0,0,1,.6.024a.224.224,0,0,1,.2,0A.219.219,0,0,1,.882.089,1.311,1.311,0,0,1,.882,1a1.573,1.573,0,0,1-.466.79.181.181,0,0,1-.229-.013.174.174,0,0,1-.045-.067A1.076,1.076,0,0,1,.073.786Z" transform="translate(77.926 151.206)" fill="#e7d8c8"/>
          <path id="Vector-235" data-name="Vector" d="M.679.04A.21.21,0,0,1,.889.018.2.2,0,0,1,.972.087a.2.2,0,0,1,.036.1A2.2,2.2,0,0,1,.9,1.145a2.242,2.242,0,0,1-.508.825h0v.107a.175.175,0,0,1-.066.078.182.182,0,0,1-.2,0,.176.176,0,0,1-.066-.078A2.057,2.057,0,0,1,.089.977,2.1,2.1,0,0,1,.679.04Z" transform="translate(77.882 156.52)" fill="#e7d8c8"/>
          <path id="Vector-236" data-name="Vector" d="M.948.008a.224.224,0,0,1,.139.006A.218.218,0,0,1,1.195.1a.132.132,0,0,1,0,.147.329.329,0,0,1,0,.094,1.644,1.644,0,0,1-.187.751A1.686,1.686,0,0,1,.5,1.683a.208.208,0,0,1-.085.038.211.211,0,0,1-.093,0,.207.207,0,0,1-.082-.042A.2.2,0,0,1,.181,1.6a.17.17,0,0,1,0-.08h0a.168.168,0,0,1-.074-.01.164.164,0,0,1-.062-.041.16.16,0,0,1-.037-.064.158.158,0,0,1,0-.073,1.7,1.7,0,0,1,.3-.778A1.757,1.757,0,0,1,.948.008Z" transform="translate(82.671 158.521)" fill="#e7d8c8"/>
          <path id="Vector-237" data-name="Vector" d="M1.494.033A.21.21,0,0,1,1.689.017a.2.2,0,0,1,.08.06.2.2,0,0,1,.041.09A2.054,2.054,0,0,1,1.5,1.323a2.122,2.122,0,0,1-.909.8.294.294,0,0,1-.206,0L.219,2.23a.168.168,0,0,1-.148-.019A.162.162,0,0,1,.02,2.155.158.158,0,0,1,0,2.083,2.644,2.644,0,0,1,.486.876,2.726,2.726,0,0,1,1.494.033Z" transform="translate(88.649 155.267)" fill="#e7d8c8"/>
          <path id="Vector-238" data-name="Vector" d="M0,1.125A.76.76,0,0,1,.114.951a.669.669,0,0,1,0-.295A1.467,1.467,0,0,1,.827,0c.11,0,.26,0,.3.08a1.035,1.035,0,0,1,0,.576h0A.882.882,0,0,1,.776,1.2a.92.92,0,0,1-.635.167.218.218,0,0,1-.113-.1A.21.21,0,0,1,0,1.125Z" transform="translate(101.27 153.249)" fill="#e7d8c8"/>
        </g>
      </g>
    </g>
  </g>
</svg>
