<svg xmlns="http://www.w3.org/2000/svg" xmlns:xlink="http://www.w3.org/1999/xlink" width="289" height="288" viewBox="0 0 289 288">
  <defs>
    <linearGradient id="linear-gradient" x1="1.005" y1="0.392" x2="0.037" y2="0.597" gradientUnits="objectBoundingBox">
      <stop offset="0" stop-color="#d72f5d"/>
      <stop offset="0.33" stop-color="#d83360"/>
      <stop offset="0.64" stop-color="#da3e68"/>
      <stop offset="0.93" stop-color="#dd5077"/>
      <stop offset="1" stop-color="#de567b"/>
    </linearGradient>
    <linearGradient id="linear-gradient-2" x1="15.7" y1="306.02" x2="420.03" y2="306.02" xlink:href="#linear-gradient"/>
    <linearGradient id="linear-gradient-3" y1="0.5" x2="1" y2="0.5" gradientUnits="objectBoundingBox">
      <stop offset="0" stop-color="#f0a82c"/>
      <stop offset="0.31" stop-color="#efa42c"/>
      <stop offset="0.59" stop-color="#eb992c"/>
      <stop offset="0.86" stop-color="#e6872c"/>
      <stop offset="1" stop-color="#e27a2c"/>
    </linearGradient>
    <linearGradient id="linear-gradient-4" x1="66.66" y1="216.4" x2="326.34" y2="263.23" xlink:href="#linear-gradient-3"/>
    <radialGradient id="radial-gradient" cx="232.15" cy="176.02" r="111.45" gradientTransform="translate(-0.541 -0.29) scale(0.004)" xlink:href="#linear-gradient-3"/>
    <radialGradient id="radial-gradient-2" cx="0.5" cy="0.5" r="0.365" gradientTransform="translate(-0.185 0.325) scale(1.371 0.349)" gradientUnits="objectBoundingBox">
      <stop offset="0" stop-color="#e27a2c"/>
      <stop offset="0.28" stop-color="#e4802c"/>
      <stop offset="0.66" stop-color="#e9932c"/>
      <stop offset="1" stop-color="#f0a82c"/>
    </radialGradient>
    <radialGradient id="radial-gradient-3" cx="346.24" cy="10.16" r="208.71" gradientTransform="translate(-0.329 0.476) scale(0.002)" xlink:href="#linear-gradient-3"/>
    <linearGradient id="linear-gradient-5" x1="65.8" y1="58.21" x2="380.78" y2="58.21" xlink:href="#linear-gradient-3"/>
  </defs>
  <g id="Vector" transform="translate(-43 -122)">
    <g id="Ellipse">
      <circle id="Ellipse_67" data-name="Ellipse 67" cx="144" cy="144" r="144" transform="translate(44 122)" fill="#fff" opacity="0.3"/>
    </g>
    <g id="pancake_1" data-name="pancake 1" transform="translate(43 141)">
      <rect id="pancake_1-2" data-name="pancake 1" width="288" height="263" fill="none"/>
      <g id="Layer_2" data-name="Layer 2">
        <g id="OBJECTS">
          <path id="Vector-2" data-name="Vector" d="M143.257,0c79.029,0,142.908,18.809,142.908,48.233s-52.853,55.255-142.685,57.009C64.438,106.784,0,79.848,0,50.424S64.228,0,143.257,0Z" transform="translate(1.867 157.698)" opacity="0.27"/>
          <path id="Vector-3" data-name="Vector" d="M143.224,0c79.022,0,142.941,18.809,142.941,48.233s-52.853,55.255-142.685,57.009C64.438,106.784,0,79.848,0,50.424S64.2,0,143.224,0Z" transform="translate(0 154.568)" fill="#b22f5d"/>
          <path id="Vector-4" data-name="Vector" d="M143.1,0c79.029,0,143.1,23.845,143.1,53.276s-67.141,52.4-146.157,52.4S0,82.674,0,53.243,64.07,0,143.1,0Z" transform="translate(0.125 148.459)" fill="url(#linear-gradient)"/>
          <path id="Vector-5" data-name="Vector" d="M137.911,0C214.06,0,275.79,22.072,275.79,49.3S211.062,97.79,134.933,97.79,0,76.526,0,49.3,61.762,0,137.911,0Z" transform="translate(4.978 152.377)" fill="#b22f5d"/>
          <path id="Vector-6" data-name="Vector" d="M132.907,0c73.42,0,132.934,20.841,132.934,46.552S203.5,92.343,130.087,92.343,0,72.264,0,46.552,59.487,0,132.907,0Z" transform="translate(10.323 156.361)" fill="url(#linear-gradient-2)"/>
          <path id="Vector-7" data-name="Vector" d="M.414,0,153.639,29.213l-22.6,8.769L112.175,43.2l-29.03,1.88L42.713,41.112,6.01,29.841,0,15.235Z" transform="translate(43.128 192.463)" fill="#914004"/>
          <path id="Vector-8" data-name="Vector" d="M.028,23.867s-.835-.417,6.635-2.091-.835-5.42,1.243-12.939S25.737-1.169,36.514.492s1.664,20.45,1.664,20.45l-13.69,9.6Z" transform="translate(25.064 183.831)" fill="#914004"/>
          <path id="Vector-9" data-name="Vector" d="M185.476,2.376s20-4.064,22.494-1.562,1.657,12.952-1.243,15.44-16.175,10-23.224,11.251-38.564,9.6-50.176,12.1S100.148,44.2,84.394,44.2s-45.613-5-56.811-6.678S3.122,27.5,1.045,17.485.63,2.462.63,2.462Z" transform="translate(44.365 187.705)" fill="#ffedc4"/>
          <path id="Vector-10" data-name="Vector" d="M206.94,6.334c7.266,9.6-15.551,20.682-23.638,22.958S142.245,40.352,123.17,43.482,49.184,44.945,26.342,39.1-4.8,16.367,2.67,8.842,25.48.9,25.48.9,199.674-3.269,206.94,6.334Z" transform="translate(44.291 177.473)" fill="url(#linear-gradient-3)"/>
          <path id="Vector-11" data-name="Vector" d="M193.51,0a24.893,24.893,0,0,1,.625,10.013c-.907,4.712-11.494,10.662-18.661,11.913S143.1,37.3,112.633,35.732s-48.2-3.759-63.123-5.01S26.207,21.337,20.9,20.708,9.7,19.146,4.417,14.448.064,7.247.064,7.247Z" transform="translate(61.83 170.12)" fill="#ffedc4"/>
          <path id="Vector-12" data-name="Vector" d="M0,29.194S118.389-3.983,135.807.4s13.078,17.942-15.34,27.962-51.419,8.352-66.556,6.89S22.6,32.742,22.6,32.742C6.845,32.742,0,29.194,0,29.194Z" transform="translate(109.374 161.701)" fill="#e2952c"/>
          <path id="Vector-13" data-name="Vector" d="M183.5,7.194c8.706,5.295,14.3,2.515,14.3,5.956s6.575,9.06-11.178,20.973c-7.562,5.07-13.065,9.755-25.506,13.825-8.614,2.826-17.832,7.876-27.163,9.444s-23.638-1.251-47.79.106c-15.2.854-31.864-3.389-42.74-7.359C32.01,45.97,20.832,44.871,12.941,37.148c-5.221-5.1-3.564-8.557-5.753-17.009S-3.09,11.271,1.27,7.518A101.1,101.1,0,0,0,9.042,0S174.793,1.9,183.5,7.194Z" transform="translate(49.117 139.869)" opacity="0.18"/>
          <path id="Vector-14" data-name="Vector" d="M188.551,7.214c8.706,5.334,14.3,2.508,14.3,5.956s6.575,9.06-11.178,20.973c-7.595,5.076-11.231,8.14-23.671,12.211-8.614,2.819-22.4,8.134-31.726,9.7S103.624,59.822,88.383,59.5s-25.506-1.853-37.013-3.13S21.511,43.223,15.916,38.5,2.851,30.986.674,22.535s1.243-11.264,5.6-15.023A101.79,101.79,0,0,0,14.048,0s165.8,1.88,174.5,7.214Z" transform="translate(44.111 138.83)" fill="#ffedc4"/>
          <path id="Vector-15" data-name="Vector" d="M188.46,4.586S201.932,4.8,202.971,16.9s-13.479,15.03-26.334,21.7-35.665,13.574-56.4,14.613S76.495,55.5,59.905,52.383,33.571,39.855,23.412,37.353-1.857,24.626.188,14.818,15.5,0,15.5,0Z" transform="translate(44.525 137.473)" fill="url(#linear-gradient-4)"/>
          <path id="Vector-16" data-name="Vector" d="M.013.007,11.191,6.89l31.726,6.473,64.688.622,51.011-7.512s26.972-5.427,28.82-4.381-2.282,5.639-9.33,6.473S150.523,14.2,145.341,14.2s-31.614,7.611-44.679,7.823S74.019,20.986,65.517,21.4,38.361,20.867,19.9,15.44,0,0,0,0" transform="translate(52.668 141.543)" opacity="0.18"/>
          <path id="Vector-17" data-name="Vector" d="M200.31,3.9c2.071,11.271-10.784,18.769-23.224,21.284s-31.93,5.44-55.568,9.61-43.535.834-70.909,1.251S7.935,24.726,5.41,22.688C-.606,17.837.018,9.379.018,9.379S198.239-7.372,200.31,3.9Z" transform="translate(50.368 122.403)" fill="#ffedc4"/>
          <path id="Vector-18" data-name="Vector" d="M192.835,5.01c14.933.834,5.806,11.688-12.855,18.365s-42.293,8.352-67.174,10.854-45.626,2.091-68.844.417S-.427,23.369.007,12.522,11.619,0,11.619,0,177.9,4.176,192.835,5.01Z" transform="translate(50.065 116.599)" fill="#e2802c"/>
          <path id="Vector-19" data-name="Vector" d="M201.474,1.034c.947,4.381,1.565,14.4-14.6,25.983s-38.88,12.806-47.586,13.772-26.439,4.7-36.388,6.261-21.462,3.441-33.278-.629-32.962-7.512-39.807-9.7S6.792,29.83,2.439,20.439.887,7.606.887,7.606,200.528-3.347,201.474,1.034Z" transform="translate(51.676 99.813)" fill="#ffedc4"/>
          <path id="Vector-20" data-name="Vector" d="M193.7,2.548c9.534,0,13.7,15.42-12.026,30.444s-43.147,10.88-61.808,14.189-51,6.248-70.494-.847S8.708,40.5,2.093,25.877,6.656,0,6.656,0,184.164,2.548,193.7,2.548Z" transform="translate(52.127 91.139)" fill="url(#radial-gradient)"/>
          <path id="Vector-21" data-name="Vector" d="M.534,5.7,178.726.477s29.859-2.191,29.55,2.819a30.315,30.315,0,0,1-3.645,12.016,30.116,30.116,0,0,1-8.191,9.48c-9.021,6.883-22.067,8.762-31.1,9.7s-26.144,2.819-57.863,7.2-60.98-3.137-70.29-8.14S7.655,20.728,2.993,16.347.507,5.705.507,5.705" transform="translate(49.255 83.561)" fill="#ffedc4"/>
          <path id="Vector-22" data-name="Vector" d="M202,11.674c9.12,6.678,6.22,12.1-.414,16.281S187.5,44.223,166.335,45.07s-41.9,6.274-61.808,7.942S47.315,48.836,33.2,42.575-.8,34.64.025,18.365,21.592,0,21.592,0,192.88,5,202,11.674Z" transform="translate(49.632 66.513)" fill="url(#radial-gradient-2)"/>
          <path id="Vector-23" data-name="Vector" d="M29.14,8.055S26.234.96,34.946.113,49.458,3.422,56.507,4.289s23.224,5,33.173,6.049,36.907,3.547,36.907,3.547,4.978,3.759-6.635,5.01-47.27,2.919-49.762,8.762,2.078,10.437,4.978,11.688,20.318,3.13,26.959,3.547,33.593-.622,47.277-3.971,32.758-8.762,38.979-9.6c0,0-19.489,6.261-28.609,10.013s-32.765,12.1-52.668,10.854-32.765-3.753-43.943-4.606S28.226,39.452,15.47,34.336C3.03,29.333-2.355,23.489.959,18.452s14.933,0,15.347-3.759,6.332-2.826,7.463,4.388c.618,3.971,7.463,13.978,39.807,18.988,0,0,2.906-1.668,2.078-6.261S61.5,28.889,49.478,24.713,31.6,16.791,29.14,8.055Z" transform="translate(21.661 190.49)" fill="#914004"/>
          <path id="Vector-24" data-name="Vector" d="M29.444,2.5c0,1.382-6.591,2.5-14.722,2.5S0,3.883,0,2.5,6.591,0,14.722,0,29.444,1.12,29.444,2.5Z" transform="translate(116.114 30.728)" fill="#6c3200"/>
          <path id="Vector-25" data-name="Vector" d="M153.021.563c5.287,5.321-4.044,11.277-10.889,12.839s-32.653,10.324-38.873,10.953S82.106,33.117,53.181,35.937A127.945,127.945,0,0,1,0,29.418S147.735-4.758,153.021.563Z" transform="translate(95.172 76.281)" opacity="0.18"/>
          <path id="Vector-26" data-name="Vector" d="M90.036,11.511,172.925,6.66S194.387-.858,196.1.081s1.4,5.175.309,7.048-2.328,4.54-11.349,6.731S159.7,21.524,147.419,24.813s-21.462,7.823-44.942,12.052-42.141,1.588-58.468-2.5S8.239,21.054,5.287,19.023s-1.085-3.13-2.952-4.54S0,8.017,0,8.017Z" transform="translate(51.163 71.335)" fill="#ffedc4"/>
          <path id="Vector-27" data-name="Vector" d="M177.345,5.632s16.484,0,18.661,3.13-4.037,7.829-13.992,9.709S150.294,30.06,121.679,36s-46.968,8.121-67.8,4.692S17.486,28.154,9.089,25.354-.873,19.093.383,10.642,6.3,0,6.3,0Z" transform="translate(50.904 61.715)" fill="url(#radial-gradient-3)"/>
          <path id="Vector-28" data-name="Vector" d="M13.4,0A208.312,208.312,0,0,0,41.572,4.613C56.038,5.87,68.084,14.772,55.643,19.358S32.413,16.85,28.685,23.528s.96,9.107.96,9.107,9,3.025,14.387,4.514,18.542,4.216,16.484,7.28c-2.643,3.944-9.85-2.972-14.827-2.972s-1.664,7.518,1.243,10.854,15.406,2.852,22.448,6.208,4.925,9.226-6.273,8.392-12.447,3.336-9.127,6.678S70.155,76.506,70.57,81.1s-7.877.834-13.269,4.593,2.9,5.85,8.706,8.769,19.91,9.179,16.175,15.023-14.518,5-22.4,1.668-12.447,2.091-24.467-1.668S22.879,98.214,27.856,96.129s21.554-.86,23.224-5.844-1.657-6.612-18.661-9.53-9.067-10.993,2.9-8.346c7.47,1.681,17.832-.417,5.392-6.261S18.263,62.39,16.191,55.295s16.228-5,21.205-4.586.421-6.671-5.7-10.126-20.837-6.175-20.423-9.927,9.127.417,12.026.417,2.065-6.261-1.249-7.512S1.318,16.5.075,10.205,13.4,0,13.4,0Z" transform="translate(51.14 68.551)" fill="#914004"/>
          <path id="Vector-29" data-name="Vector" d="M171.064,6.228c-9.041,3.13-37.631,5-43.233,5s-31.41-2.469-39.5.662S72.145,13.15,41.99,13.461,0,4.381,0,4.381L2.183,0S180.105,3.1,171.064,6.228Z" transform="translate(52.248 63.7)" opacity="0.18"/>
          <path id="Vector-30" data-name="Vector" d="M195,9.424s12.25,2.217,12.907,3.753-.309,6.38-1.085,7.637-1.4,6.1-34.369,9.861-24.71-.933-55.825.159-25.506,3.594-48.21,2.813-40.741-2.025-52.872-8.134S0,14.4,0,10.8,1.9,5,1.243,3.6A10.957,10.957,0,0,1,.625,0Z" transform="translate(42.608 40.43)" fill="#ffedc4"/>
          <path id="Vector-31" data-name="Vector" d="M2.456,32.8S3.5,31.545,1,29.487.589,21.975,8.059,16.343,46.2-2.023,98.871.274s89.78,20.192,96.414,24.99,11.612,8.557,11.408,13.772c0,0,2.485,3.759-4.563,4.593s-19.489,2.919-31.1,4.586S126.862,51.525,108,49.891s-33.8,3.13-59.717.834S7.592,45.311,2.456,39.037c-2.9-3.547,0-6.241,0-6.241Z" transform="translate(43.262 12.87)" fill="url(#linear-gradient-5)"/>
          <path id="Vector-32" data-name="Vector" d="M102.458,1.7c18.661-1.231,47.277-3.4,59.717.615s18.97,12.667,8.4,7.723-32.66-5.248-23.014-2.78,16.793,11.43,0,13.587-30.779-2.171-32.028,3.7,10.567,3.064,7.147,7.081S103.4,34.408,92.2,33.793s-48.506-.927-60.651-2.78S5.873,31.642,8.227,37.8c2.019,5.3.309,6.373.309,6.373s-3.261-.443-2.9-.834c3.63-3.9-1.683-2.482-5.109-11.251-2.564-6.572,4.524-13.408,14.808-13.1s38.578,3.091,34.849-4.322S36.81,11.589,34.324,5.718,62.007.159,62.007.159C78.517.47,83.8,2.932,102.458,1.7Z" transform="translate(64.24 26.598)" fill="#914004"/>
          <path id="Vector-33" data-name="Vector" d="M193.151,8.12a30.2,30.2,0,0,0,7.4-8.12,2.337,2.337,0,0,1,.085.6c0,17.763-29.536,21.688-36.072,21.072s-30.792,3.766-44.167,5.956S84.316,31.072,68.765,29.4,32.416,21.052,23.671,17.3,0,11.668,0,7.181.618,1.026.618,1.026L1.348.96C7.976,5.467,25.427,12.336,33.9,16.883c9.33,5.01,38.551,12.522,70.29,8.14s48.842-6.261,57.863-7.2,22.08-2.819,31.1-9.7Z" transform="translate(52.55 100.239)" opacity="0.18"/>
          <path id="Vector-34" data-name="Vector" d="M46.994,19.947a.947.947,0,0,1-.658.49c-7.154,2.2-15.86-1.277-26.124-3.759S0,5.427,0,5.427C1.243,1.357,3.728,0,3.728,0,8.088,9.391,24.256,14.09,31.1,16.281c3.1.993,9.133,2.244,15.893,3.666Z" transform="translate(50.387 120.252)" opacity="0.18"/>
          <path id="Vector-35" data-name="Vector" d="M4.05,2.039A2.038,2.038,0,0,1,2.788,3.927,2.016,2.016,0,0,1,.574,3.461,2.045,2.045,0,0,1,.939.318a2.021,2.021,0,0,1,2.539.3A2.039,2.039,0,0,1,4.05,2.039Z" transform="translate(82.087 43.348)" fill="#d72f5d"/>
          <path id="Vector-36" data-name="Vector" d="M4.037,2.032A2.019,2.019,0,1,1,2.019,0,2.025,2.025,0,0,1,4.037,2.032Z" transform="translate(99.064 48.518)" fill="#f6605d"/>
          <path id="Vector-37" data-name="Vector" d="M4.05,2.032A2.039,2.039,0,0,1,2.8,3.92,2.016,2.016,0,0,1,.6,3.482,2.046,2.046,0,0,1,.9.344,2.015,2.015,0,0,1,3.455.595a2.045,2.045,0,0,1,.6,1.437Z" transform="translate(103.719 44.759)" fill="#d72f5d"/>
          <path id="Vector-38" data-name="Vector" d="M4.037,2.032A2.019,2.019,0,1,1,2.019,0,2.025,2.025,0,0,1,4.037,2.032Z" transform="translate(211.805 40.225)" fill="#d72f5d"/>
          <path id="Vector-39" data-name="Vector" d="M4.037,2.032A2.019,2.019,0,1,1,2.019,0,2.025,2.025,0,0,1,4.037,2.032Z" transform="translate(225.488 27.598)" fill="#d72f5d"/>
          <path id="Vector-40" data-name="Vector" d="M4.037,2.032A2.019,2.019,0,1,1,2.019,0,2.025,2.025,0,0,1,4.037,2.032Z" transform="translate(96.881 82.324)" fill="#d72f5d"/>
          <path id="Vector-41" data-name="Vector" d="M4.05,2.032A2.039,2.039,0,0,1,2.8,3.92,2.016,2.016,0,0,1,.6,3.482,2.046,2.046,0,0,1,.9.344,2.015,2.015,0,0,1,3.455.595a2.045,2.045,0,0,1,.6,1.437Z" transform="translate(73.861 202.377)" fill="#d72f5d"/>
          <path id="Vector-42" data-name="Vector" d="M4.037,2.032A2.019,2.019,0,1,1,2.019,0,2.025,2.025,0,0,1,4.037,2.032Z" transform="translate(128.607 49.147)" fill="#f6605d"/>
          <path id="Vector-43" data-name="Vector" d="M4.05,2.038A2.039,2.039,0,0,1,2.8,3.922,2.016,2.016,0,0,1,.593,3.48,2.046,2.046,0,0,1,.9.344,2.015,2.015,0,0,1,3.457.6,2.045,2.045,0,0,1,4.05,2.038Z" transform="translate(103.128 203.939)" fill="#f6605d"/>
          <path id="Vector-44" data-name="Vector" d="M4.037,2.032A2.019,2.019,0,1,1,2.019,0,2.025,2.025,0,0,1,4.037,2.032Z" transform="translate(108.079 169.353)" fill="#f6605d"/>
          <path id="Vector-45" data-name="Vector" d="M4.037,2.032A2.019,2.019,0,1,1,2.019,0,2.025,2.025,0,0,1,4.037,2.032Z" transform="translate(86.308 125.686)" fill="#f6605d"/>
          <path id="Vector-46" data-name="Vector" d="M4.037,2.032A2.019,2.019,0,1,1,2.019,0,2.025,2.025,0,0,1,4.037,2.032Z" transform="translate(181.946 53.058)" fill="#f6605d"/>
          <path id="Vector-47" data-name="Vector" d="M4.037,2.032A2.019,2.019,0,1,1,2.019,0,2.025,2.025,0,0,1,4.037,2.032Z" transform="translate(57.074 76.691)" fill="#f6605d"/>
          <path id="Vector-48" data-name="Vector" d="M4.05,2.032A2.039,2.039,0,0,1,2.8,3.92,2.016,2.016,0,0,1,.6,3.482,2.046,2.046,0,0,1,.9.344,2.015,2.015,0,0,1,3.455.595a2.045,2.045,0,0,1,.6,1.437Z" transform="translate(106.205 25.665)" fill="#f6605d"/>
          <path id="Vector-49" data-name="Vector" d="M2.686.464a1.587,1.587,0,0,1-.242,2.431A1.568,1.568,0,0,1,.12,2.186,1.589,1.589,0,0,1,.457.464a1.571,1.571,0,0,1,2.229,0Z" transform="translate(205.41 37.71)" fill="#f6605d"/>
          <path id="Vector-50" data-name="Vector" d="M3.143,1.582A1.572,1.572,0,1,1,1.572,0,1.577,1.577,0,0,1,3.143,1.582Z" transform="translate(215.152 25.606)" fill="#f6605d"/>
          <path id="Vector-51" data-name="Vector" d="M2.328,1.171a1.171,1.171,0,0,1-.718,1.082A1.158,1.158,0,0,1,.341,2,1.176,1.176,0,0,1,.517.2a1.158,1.158,0,0,1,1.47.146,1.175,1.175,0,0,1,.341.828Z" transform="translate(113.523 45.857)" fill="#f6605d"/>
          <path id="Vector-52" data-name="Vector" d="M2.341,1.171a1.178,1.178,0,0,1-.718,1.093A1.165,1.165,0,0,1,.345,2.013,1.182,1.182,0,0,1,.519.2,1.165,1.165,0,0,1,2,.343a1.182,1.182,0,0,1,.345.829Z" transform="translate(121.368 56.03)" fill="#f6605d"/>
          <path id="Vector-53" data-name="Vector" d="M2.341,1.171a1.178,1.178,0,0,1-.718,1.093A1.165,1.165,0,0,1,.345,2.013,1.182,1.182,0,0,1,.519.2,1.165,1.165,0,0,1,2,.343,1.182,1.182,0,0,1,2.341,1.171Z" transform="translate(67.95 83.184)" fill="#f6605d"/>
          <path id="Vector-54" data-name="Vector" d="M2.341,1.178a1.178,1.178,0,0,1-.724,1.089A1.165,1.165,0,0,1,.34,2.009,1.182,1.182,0,0,1,.525.2,1.167,1.167,0,0,1,2.254.728a1.178,1.178,0,0,1,.087.45Z" transform="translate(78.444 123.33)" fill="#f6605d"/>
          <path id="Vector-55" data-name="Vector" d="M2.341,1.171a1.178,1.178,0,0,1-.718,1.093A1.165,1.165,0,0,1,.345,2.013,1.182,1.182,0,0,1,.519.2,1.165,1.165,0,0,1,2,.343a1.182,1.182,0,0,1,.345.829Z" transform="translate(104.883 81.622)" fill="#f6605d"/>
          <path id="Vector-56" data-name="Vector" d="M2.328,1.178A1.171,1.171,0,0,1,1.6,2.256,1.158,1.158,0,0,1,.339,2,1.176,1.176,0,0,1,.518.2,1.159,1.159,0,0,1,1.989.345a1.175,1.175,0,0,1,.339.833Z" transform="translate(175.338 53.131)" fill="#f6605d"/>
          <path id="Vector-57" data-name="Vector" d="M2.341,1.171a1.178,1.178,0,0,1-.719,1.094A1.165,1.165,0,0,1,.343,2.011,1.182,1.182,0,0,1,.524.2,1.165,1.165,0,0,1,2,.345a1.182,1.182,0,0,1,.343.826Z" transform="translate(74.091 48.829)" fill="#f6605d"/>
          <path id="Vector-58" data-name="Vector" d="M2.341,1.171a1.178,1.178,0,0,1-.718,1.093A1.165,1.165,0,0,1,.345,2.013,1.182,1.182,0,0,1,.519.2,1.165,1.165,0,0,1,2,.343a1.182,1.182,0,0,1,.345.829Z" transform="translate(103.641 30.046)" fill="#f6605d"/>
          <path id="Vector-59" data-name="Vector" d="M2.341,1.171a1.178,1.178,0,0,1-.718,1.093A1.165,1.165,0,0,1,.345,2.013,1.182,1.182,0,0,1,.519.2,1.165,1.165,0,0,1,2,.343a1.182,1.182,0,0,1,.345.829Z" transform="translate(122.222 39.987)" fill="#f6605d"/>
          <path id="Vector-60" data-name="Vector" d="M2.341,1.171a1.178,1.178,0,0,1-.719,1.094A1.165,1.165,0,0,1,.343,2.011,1.182,1.182,0,0,1,.524.2a1.168,1.168,0,0,1,1.817.976Z" transform="translate(89.642 209.108)" fill="#f6605d"/>
          <path id="Vector-61" data-name="Vector" d="M2.341,1.171a1.178,1.178,0,0,1-.718,1.093A1.165,1.165,0,0,1,.345,2.013,1.182,1.182,0,0,1,.519.2,1.165,1.165,0,0,1,2,.343a1.182,1.182,0,0,1,.345.829Z" transform="translate(220.997 26.625)" fill="#f6605d"/>
          <path id="Vector-62" data-name="Vector" d="M2.328,1.171a1.171,1.171,0,0,1-.718,1.082A1.158,1.158,0,0,1,.341,2,1.176,1.176,0,0,1,.517.2a1.158,1.158,0,0,1,1.47.146,1.175,1.175,0,0,1,.341.828Z" transform="translate(203.717 44.057)" fill="#f6605d"/>
          <path id="Vector-63" data-name="Vector" d="M29.438,2.713c0,1.5-6.575,2.713-14.722,2.713S0,4.209,0,2.713,6.575,0,14.716,0,29.438,1.218,29.438,2.713Z" transform="translate(217.092 224.078)" opacity="0.19"/>
          <path id="Vector-64" data-name="Vector" d="M29.431,2.713c0,1.5-6.575,2.713-14.716,2.713S0,4.209,0,2.713,6.575,0,14.722,0,29.431,1.218,29.431,2.713Z" transform="translate(149.918 239.73)" opacity="0.19"/>
          <path id="Vector-65" data-name="Vector" d="M29.444,2.713c0,1.5-6.575,2.713-14.722,2.713S0,4.209,0,2.713,6.575,0,14.722,0,29.444,1.2,29.444,2.713Z" transform="translate(118.185 240.359)" opacity="0.19"/>
          <path id="Vector-66" data-name="Vector" d="M45.566,4.851c-3.11,0-6.372,1.727-7.463,3.759S36.86,12.991,38.569,18s13.374,7.512,13.374,7.512L30.324,30.7S-3.6,19.9.314,17.24s19.443-.913,23.638-.781,7.621-.179,8.4-3.309,1.23-8.3-1.4-9.7A18.877,18.877,0,0,1,26.438,0S48.676,4.851,45.566,4.851Z" transform="translate(52.716 174.356)" fill="#914004"/>
          <path id="Vector-67" data-name="Vector" d="M0,1.876A15.58,15.58,0,0,1,3.215.314C4.044.208,5.392,2.5,5.392,2.5A10.131,10.131,0,0,1,6.325.42c.618-1.046,2.9,1.668,2.9,1.668S9.436.1,9.745,0s2.906,2.5,2.906,2.5L10.159,5.741s-7.982.622-8.4.311S0,1.876,0,1.876Z" transform="translate(226.626 202.375)" fill="#343057"/>
          <path id="Vector-68" data-name="Vector" d="M10.859,2.753A4.389,4.389,0,0,1,13.213.768C15.7,1.966,15.3,3.415,15.3,3.415a7.269,7.269,0,0,1,2.091-2.5A7.362,7.362,0,0,1,20.025,2.9,3.267,3.267,0,0,1,21.465.4C35.845,5.268,33.1,14.878,28.4,20.4S4.468,27.77.674,14.878,10.346,0,10.346,0Z" transform="translate(216.99 203.218)" fill="#605a8f"/>
          <path id="Vector-69" data-name="Vector" d="M17.859,0l.611.43.046-.192C32.14,5.182,29.392,14.567,24.789,20.007,20.844,24.639,6.707,26.678,0,19.63c5.734,2.813,17.155,3.666,20.956-5.295C24.9,5.05,17.859,0,17.859,0Z" transform="translate(220.596 203.589)" fill="#343057" opacity="0.45"/>
          <path id="Vector-70" data-name="Vector" d="M.454,4.111S1.229,1.291,3.406.352A3.456,3.456,0,0,1,7.892,1.691a3.5,3.5,0,0,1,.492,1.633,8.516,8.516,0,0,1-2.492,7.518C3.715,12.88-1.572,10.51.454,4.111Z" transform="translate(219.748 207.671)" fill="#e0e6ff" opacity="0.16"/>
          <path id="Vector-71" data-name="Vector" d="M20.528,2.032c0,1.122-4.6,2.032-10.264,2.032S0,3.154,0,2.032,4.6,0,10.264,0,20.528.91,20.528,2.032Z" transform="translate(120.362 33.025)" opacity="0.19"/>
          <path id="Vector-72" data-name="Vector" d="M20.528,2.038c0,1.125-4.6,2.032-10.264,2.032S0,3.163,0,2.038,4.6,0,10.264,0,20.528.913,20.528,2.038Z" transform="translate(187.253 28.948)" opacity="0.19"/>
          <path id="Vector-73" data-name="Vector" d="M25.2,2.5c0,1.382-5.64,2.5-12.6,2.5S0,3.883,0,2.5,5.64,0,12.6,0,25.2,1.12,25.2,2.5Z" transform="translate(146.176 53.68)" opacity="0.19"/>
          <path id="Vector-74" data-name="Vector" d="M25.2,2.5c0,1.382-5.64,2.5-12.6,2.5S0,3.883,0,2.5,5.64,0,12.6,0,25.2,1.12,25.2,2.5Z" transform="translate(69.041 25.195)" opacity="0.19"/>
          <path id="Vector-75" data-name="Vector" d="M19.279.94c0,.519-4.316.94-9.639.94S0,1.459,0,.94,4.316,0,9.639,0,19.279.421,19.279.94Z" transform="translate(159.551 28.008)" opacity="0.19"/>
          <path id="Vector-76" data-name="Vector" d="M11.193,3.554c0,.132-6.319,5.222-6.575,5.427S.416,8.822.212,7.829A32.131,32.131,0,0,1,0,3.858,5.322,5.322,0,0,0,2.8,5.632s.158-3.025.572-3.13a18.773,18.773,0,0,1,2.952.364S6.018,0,6.537,0,9.279.258,9.279.258s1.913,3.163,1.913,3.3Z" transform="translate(117.625 9.49)" fill="#343057"/>
          <path id="Vector-77" data-name="Vector" d="M4.651,7.412c.671-1.251.151-2.144.776-2.038s2.8,1.463,2.854.523A18.332,18.332,0,0,1,9,2.872c1.3,0,2.952.834,2.952-.159A11.7,11.7,0,0,1,12.528,0C14.7,1.41,20.6-.94,25.594,2.191s7.463,12.217,1.71,18.63-16.951,8.14-22.4,4.381A11.043,11.043,0,0,1,1.331,10.8C3.665,6.89,3.507,4.54,3.507,4.54S3.98,8.663,4.651,7.412Z" transform="translate(114.106 8.809)" fill="#605a8f"/>
          <path id="Vector-78" data-name="Vector" d="M26.341,20.374c-5.753,6.413-16.951,8.14-22.4,4.381A11.233,11.233,0,0,1,0,20.01c1.664,2.191,5.392,5.573,13.591,3.647C26.459,20.632,28,1.743,14.624.181l.191-.132c2.768-.046,6.5-.39,9.817,1.694,4.958,3.13,7.463,12.217,1.71,18.63Z" transform="translate(115.068 9.256)" fill="#343057" opacity="0.45"/>
          <path id="Vector-79" data-name="Vector" d="M0,1.882A15.441,15.441,0,0,1,3.209.314C4.037.208,5.392,2.5,5.392,2.5A10.49,10.49,0,0,1,6.319.42C6.976-.626,9.225,2.088,9.225,2.088S9.429.1,9.745,0s2.9,2.5,2.9,2.5L10.159,5.741s-7.982.662-8.4.311A27.742,27.742,0,0,1,0,1.882Z" transform="translate(159.242 3.591)" fill="#343057"/>
          <path id="Vector-80" data-name="Vector" d="M10.872,2.747A4.411,4.411,0,0,1,13.226.761c2.485,1.2,2.1,2.647,2.1,2.647a7.268,7.268,0,0,1,2.091-2.5,7.527,7.527,0,0,1,2.63,1.985A3.261,3.261,0,0,1,21.465.4C35.825,5.261,33.1,14.864,28.4,20.4S4.467,27.757.674,14.871,10.352,0,10.352,0Z" transform="translate(149.599 4.441)" fill="#605a8f"/>
          <path id="Vector-81" data-name="Vector" d="M17.859,0l.618.424.046-.192c13.624,4.937,10.9,14.322,6.266,19.762C20.844,24.626,6.713,26.665,0,19.616c5.734,2.76,17.162,3.614,20.962-5.347C24.9,4.983,17.859,0,17.859,0Z" transform="translate(153.205 4.871)" fill="#343057" opacity="0.45"/>
          <path id="Vector-82" data-name="Vector" d="M4.037,2.032A2.019,2.019,0,1,1,2.019,0,2.025,2.025,0,0,1,4.037,2.032Z" transform="translate(81.797 140.868)" fill="#d72f5d"/>
          <path id="Vector-83" data-name="Vector" d="M4.037,2.032A2.019,2.019,0,1,1,2.019,0,2.025,2.025,0,0,1,4.037,2.032Z" transform="translate(97.348 143.37)" fill="#f6605d"/>
          <path id="Vector-84" data-name="Vector" d="M4.037,2.032A2.019,2.019,0,1,1,2.019,0,2.025,2.025,0,0,1,4.037,2.032Z" transform="translate(59.408 195.647)" fill="#f6605d"/>
          <path id="Vector-85" data-name="Vector" d="M2.341,1.171a1.178,1.178,0,0,1-.719,1.094A1.165,1.165,0,0,1,.343,2.011,1.182,1.182,0,0,1,.524.2,1.167,1.167,0,0,1,2.252.723a1.178,1.178,0,0,1,.089.448Z" transform="translate(102.47 143.29)" fill="#f6605d"/>
          <path id="Vector-86" data-name="Vector" d="M2.341,1.171a1.178,1.178,0,0,1-.719,1.094A1.165,1.165,0,0,1,.343,2.011,1.182,1.182,0,0,1,.524.2,1.165,1.165,0,0,1,2,.345a1.182,1.182,0,0,1,.343.826Z" transform="translate(83.421 202.218)" fill="#f6605d"/>
          <path id="Vector-87" data-name="Vector" d="M2.341,1.178a1.178,1.178,0,0,1-.724,1.089A1.165,1.165,0,0,1,.34,2.009,1.182,1.182,0,0,1,.525.2,1.167,1.167,0,0,1,2.254.728a1.178,1.178,0,0,1,.087.45Z" transform="translate(120.743 169.035)" fill="#f6605d"/>
          <path id="Vector-88" data-name="Vector" d="M2.341,1.178a1.178,1.178,0,0,1-.723,1.088A1.165,1.165,0,0,1,.343,2.011,1.182,1.182,0,0,1,.52.2,1.165,1.165,0,0,1,2,.345a1.182,1.182,0,0,1,.343.833Z" transform="translate(89.714 165.825)" fill="#f6605d"/>
          <path id="Vector-89" data-name="Vector" d="M6.575,3.759A3.54,3.54,0,0,1,3.288,7.512,3.54,3.54,0,0,1,0,3.759,3.546,3.546,0,0,1,3.288,0,3.542,3.542,0,0,1,6.575,3.759Z" transform="translate(116.278 22.376)" fill="#e0e6ff" opacity="0.16"/>
          <path id="Vector-90" data-name="Vector" d="M2.288,1.145a1.152,1.152,0,0,1-.7,1.069,1.139,1.139,0,0,1-1.25-.248A1.156,1.156,0,0,1,.513.191,1.141,1.141,0,0,1,2.2.707a1.151,1.151,0,0,1,.087.438Z" transform="translate(118.126 18.571)" fill="#e0e6ff" opacity="0.16"/>
          <path id="Vector-91" data-name="Vector" d="M.153,6.154s.658-3.6,2.63-5.109S7.859-.728,7.813,2.918s-1.144,5.639-.421,8.769-3,4.017-4.662,2.5S-.5,10.331.153,6.154Z" transform="translate(151.08 7.611)" fill="#e0e6ff" opacity="0.16"/>
          <path id="Vector-92" data-name="Vector" d="M0,1.979S2.176.417,2.8.516A4.606,4.606,0,0,1,5.287,2.4S7.049,0,7.673,0,9.745,2.191,9.745,2.191L10.06.516a3.967,3.967,0,0,1,1.762,2.3c.414,1.569-2.183,3.653-2.183,3.653s-5.7,2.3-6.115,2.091S0,1.979,0,1.979Z" transform="translate(188.37 5.996)" fill="#343057"/>
          <path id="Vector-93" data-name="Vector" d="M10.859,2.72A4.389,4.389,0,0,1,13.213.735C15.7,1.932,15.3,3.382,15.3,3.382A7.368,7.368,0,0,1,17.395.88a7.362,7.362,0,0,1,2.63,1.985A3.267,3.267,0,0,1,21.445.39C35.845,5.261,33.1,14.871,28.4,20.4S4.468,27.757.674,14.871,10.346,0,10.346,0Z" transform="translate(178.445 7.061)" fill="#605a8f"/>
          <path id="Vector-94" data-name="Vector" d="M25.269,15.983C21.225,20.728,6.49,22.753,0,15.063c2.459,1.059,9.731,3.647,16.7,1C25.223,12.793,27.1,4.706,25.736,0c5.6,5.07,3.156,11.734-.467,15.983Z" transform="translate(181.572 11.476)" fill="#343057" opacity="0.45"/>
          <path id="Vector-95" data-name="Vector" d="M2.947.706A4.023,4.023,0,0,1,5.82.045C7.3.369,8.648,2.07,7.195,4.36S3.447,10.66,1.52,9.2-.255,6.173.619,3.81A8.413,8.413,0,0,1,2.947.706Z" transform="translate(179.565 10.836)" fill="#e0e6ff" opacity="0.16"/>
          <path id="Vector-96" data-name="Vector" d="M25.684,20.387c-4.971,6.248-13.216,5.778-19.437,2.647S-1.69,12.075,1.736,5.662,13.092.03,13.092.03C32.371,1.44,30.654,14.14,25.684,20.387Z" transform="translate(168.388 23.286)" fill="#605a8f"/>
          <path id="Vector-97" data-name="Vector" d="M2.67.086A4.494,4.494,0,0,1,4.327,1.806S6.194-.053,7.075.609A3.625,3.625,0,0,1,8.239,2.621a4.294,4.294,0,0,1,2.078-.933c1.2-.159,1.861,2.555,1.861,2.555C11.4,4.03,11.047,5.857,11.2,5.91S10.678,4.8,9.745,4.136,6.786,5.46,6.786,5.46,6.174,3.587,4.978,3.375a5.052,5.052,0,0,0-2.8.781C1.913,2.925,0,1.6,0,1.6S1.657-.437,2.67.086Z" transform="translate(179.665 21.767)" fill="#343057"/>
          <path id="Vector-98" data-name="Vector" d="M25.506,14.2C20.535,20.45,12.289,19.98,6.069,16.85A12.1,12.1,0,0,1,0,8.551a1.209,1.209,0,0,1,.752.075,1.219,1.219,0,0,1,.563.507c1.059,1.827,10.054,9.027,18.812,4.222A13.1,13.1,0,0,0,27.215,0c3.018,4.54,1.216,10.49-1.71,14.2Z" transform="translate(168.585 29.471)" fill="#343057" opacity="0.45"/>
          <path id="Vector-99" data-name="Vector" d="M32.695,11.875c.25,5.659-2.229,14.745-16.741,14.613S-2.22,16.343,1.179,7.924s13.6-7.9,13.6-7.9C27.336-.494,32.445,6.217,32.695,11.875Z" transform="translate(139.987 30.693)" fill="#605a8f"/>
          <path id="Vector-100" data-name="Vector" d="M1.952,2.14S1.854-.68,3.2.154A8.075,8.075,0,0,1,5.062,1.61S5.582.359,6.378.154s1.092,2.5,1.092,2.5,2.071-1.145,2.8-.523-.934,1.985-.934,1.985,1.138.523.2,1.251-.2,2.5-2.282,2.5a1.73,1.73,0,0,1-1.4-.542A1.754,1.754,0,0,1,5.4,5.886S3.839,7.659,2.8,6.925a2.261,2.261,0,0,1-.723-2.191A2.371,2.371,0,0,1,.1,3.589C-.533,2.444,1.952,2.14,1.952,2.14Z" transform="translate(150.339 33.598)" fill="#343057"/>
          <path id="Vector-101" data-name="Vector" d="M14.683,17.095C6.746,17.022,2.065,14,0,9.894c1.059,1.039,7.522,6.81,18.293,4.428C29.352,11.913,31.154,4.143,31,0a10.4,10.4,0,0,1,.427,2.482c.25,5.659-2.222,14.739-16.741,14.613Z" transform="translate(141.258 40.086)" fill="#343057" opacity="0.45"/>
          <path id="Vector-102" data-name="Vector" d="M.347,3.153A5.14,5.14,0,0,1,2.78.288C4.542-.5,7.186.235,7.383,3.676s.828,9.265-2.229,9.232S1.084,11.141.229,8.057a10.7,10.7,0,0,1,.118-4.9Z" transform="translate(142.101 37.952)" fill="#e0e6ff" opacity="0.16"/>
          <path id="Vector-103" data-name="Vector" d="M22.751,2.263c0,1.25-5.093,2.263-11.375,2.263S0,3.513,0,2.263,5.093,0,11.375,0,22.751,1.013,22.751,2.263Z" transform="translate(183.321 172.179)" opacity="0.19"/>
          <path id="Vector-104" data-name="Vector" d="M29.533,10.728c.23,5.109-2.019,13.309-15.123,13.19S-2.009,14.772,1.068,7.161,13.351.026,13.351.026C24.686-.45,29.3,5.619,29.533,10.728Z" transform="translate(181.661 151.14)" fill="#605a8f"/>
          <path id="Vector-105" data-name="Vector" d="M1.774,1.933S1.682-.615,2.9.14A7.279,7.279,0,0,1,4.582,1.463S5.056.332,5.8.14s.94,2.263.94,2.263,1.874-1.039,2.525-.47S8.422,3.72,8.422,3.72s1.032.47.191,1.132S8.422,7.115,6.548,7.115a1.573,1.573,0,0,1-1.266-.493,1.595,1.595,0,0,1-.417-1.3s-1.4,1.6-2.341.946a2.059,2.059,0,0,1-.658-1.985A2.135,2.135,0,0,1,.091,3.244c-.565-1.032,1.683-1.31,1.683-1.31Z" transform="translate(191.001 153.76)" fill="#343057"/>
          <path id="Vector-106" data-name="Vector" d="M13.262,15.44C6.1,15.374,1.867,12.647,0,8.941c.96.94,6.8,6.148,16.524,4C26.512,10.735,28.136,3.746,28,0a9.38,9.38,0,0,1,.381,2.25c.237,5.109-2.005,13.309-15.117,13.19Z" transform="translate(182.808 159.617)" fill="#343057" opacity="0.45"/>
          <path id="Vector-107" data-name="Vector" d="M.308,2.85A4.625,4.625,0,0,1,2.5.256C4.095-.446,6.482.209,6.672,3.32s.75,8.392-2.012,8.339S.985,10.064.209,7.277a9.71,9.71,0,0,1,.1-4.428Z" transform="translate(183.579 157.694)" fill="#e0e6ff" opacity="0.16"/>
          <path id="Vector-108" data-name="Vector" d="M6.343,4.987A3.515,3.515,0,0,1,1.872,7.144,3.557,3.557,0,0,1,.34,2.4,3.519,3.519,0,0,1,4.811.235,3.563,3.563,0,0,1,6.343,4.987Z" transform="translate(170.238 28.237)" fill="#e0e6ff" opacity="0.16"/>
          <path id="Vector-109" data-name="Vector" d="M2.2,1.6a1.14,1.14,0,0,1-1.7.5A1.156,1.156,0,0,1,.347.326a1.141,1.141,0,0,1,1.86.4A1.159,1.159,0,0,1,2.2,1.6Z" transform="translate(175.588 25.379)" fill="#e0e6ff" opacity="0.16"/>
          <path id="Vector-110" data-name="Vector" d="M0,5.612s2.492-4.07,3.735-4.07a5.312,5.312,0,0,1,2.334.622S7,0,8.245,0s3.577,1.41,3.577,1.41l-.467,5.956Z" transform="translate(151.93 217.738)" fill="#343057"/>
          <path id="Vector-111" data-name="Vector" d="M8.9,5.017a4.411,4.411,0,0,1,1.782-2.508c2.689.483,2.689,1.985,2.689,1.985a7.3,7.3,0,0,1,1.394-2.952,7.377,7.377,0,0,1,3.025,1.244A3.284,3.284,0,0,1,18.556,0C33.7,1.046,33.449,11.046,30.286,17.591S8.989,30.814,2.078,19.3,7.707,2.449,7.707,2.449Z" transform="translate(145.071 218.069)" fill="#605a8f"/>
          <path id="Vector-112" data-name="Vector" d="M.358,3.259A4.992,4.992,0,0,1,2.706.274,2.748,2.748,0,0,1,6.26,1.343a2.786,2.786,0,0,1,.391,1.293,6.792,6.792,0,0,1-.256,3.223A6.757,6.757,0,0,1,4.678,8.593C2.956,10.227-1.246,8.361.358,3.259Z" transform="translate(149.303 226.935)" fill="#e0e6ff" opacity="0.16"/>
          <path id="Vector-113" data-name="Vector" d="M11.286,6.8c-.1.1-8.173.1-8.508.1S-.4,4.136.049,3.23A31.433,31.433,0,0,1,2.344,0,5.317,5.317,0,0,0,3.429,3.144s2-2.263,2.387-2.085A19.24,19.24,0,0,1,7.9,3.2S9.445.768,9.84,1.092s1.973,1.926,1.973,1.926S11.385,6.7,11.286,6.8Z" transform="translate(125.613 216.58)" fill="#343057"/>
          <path id="Vector-114" data-name="Vector" d="M11.348,2.952c1.3-.556,1.447-1.569,1.867-1.1s1.249,2.9,1.907,2.2a17.663,17.663,0,0,1,2.439-1.906c1.013.814,1.788,2.508,2.407,1.734a11.707,11.707,0,0,1,2.13-1.76c.822,2.475,6.9,4.355,8.844,9.927S29.2,26.274,20.725,27.671,2.432,23.382.512,17.022a11.008,11.008,0,0,1,6.141-13.5C10.921,1.933,12.236,0,12.236,0s-2.19,3.508-.888,2.952Z" transform="translate(115.72 216.58)" fill="#605a8f"/>
          <path id="Vector-115" data-name="Vector" d="M1.8,2.332S3.515.068,5.83.009A3.371,3.371,0,0,1,8.751,1.332a3.42,3.42,0,0,1,.511,3.183,8.264,8.264,0,0,1-4.958,5.9c-2.7,1.046-6.648-3-2.505-8.081Z" transform="translate(117.984 221.972)" fill="#e0e6ff" opacity="0.16"/>
          <path id="Vector-116" data-name="Vector" d="M18.924,0c.822,2.475,6.9,4.355,8.844,9.927S26.019,24.156,17.55,25.553C11.125,26.6,3.945,23.6,0,19.318c2.361,1.1,11.934,5.109,17.484,1.138,6.365-4.533,4.964-11.582,2.63-15.334S18.911.007,18.924,0Z" transform="translate(118.908 218.698)" fill="#343057" opacity="0.45"/>
          <path id="Vector-117" data-name="Vector" d="M23.52,10.47C24.151,2.945,19.463.662,16.359,0c12.5,1.972,12.105,11.152,9.127,17.3C22.678,23.111,8.075,29.014,0,22.211c8.739,3.3,22.6-.807,23.52-11.741Z" transform="translate(149.872 218.36)" fill="#343057" opacity="0.45"/>
          <path id="Vector-118" data-name="Vector" d="M23.831,21.421C9.99,28.225-1.97,21.8.272,10.885S15.231.349,15.231.349c17.944-3.011,22.442,14.269,8.6,21.072Z" transform="translate(63.844 4.866)" fill="#605a8f"/>
          <path id="Vector-119" data-name="Vector" d="M.391,6.267s.75-3.309-.118-4.633S.832-.053,1.456.006s.934,3.64.309,4.957-.75,2.244-1.374,1.3Z" transform="translate(77.744 0.014)" fill="#343057"/>
          <path id="Vector-120" data-name="Vector" d="M21.416,19.4C12.27,23.892,3.945,22.614,0,18.081c.967.543,10.409,5.533,18.8-.172C27.5,11.992,26.8,3.1,24.763,0c7.062,4.375,6.542,14.567-3.347,19.4Z" transform="translate(66.26 6.876)" fill="#343057" opacity="0.45"/>
          <path id="Vector-121" data-name="Vector" d="M.612,3.039A5.185,5.185,0,0,1,3.354.18a2.858,2.858,0,0,1,2.7.382A2.9,2.9,0,0,1,7.22,3.039a7.185,7.185,0,0,1-2.63,6c-1.927,1.5-6.168-.867-3.978-6Z" transform="translate(66.18 10.608)" fill="#e0e6ff" opacity="0.16"/>
          <path id="Vector-122" data-name="Vector" d="M5.576,1.88c0,1.032-1.256,1.88-2.8,1.88S0,2.912,0,1.88,1.256,0,2.8,0,5.576.841,5.576,1.88Z" transform="translate(161.753 171.384)" fill="#cc562a" opacity="0.18"/>
          <path id="Vector-123" data-name="Vector" d="M5.6,1.88c0,1.038-1.254,1.88-2.8,1.88S0,2.918,0,1.88,1.254,0,2.8,0,5.6.842,5.6,1.88Z" transform="translate(54.424 155.415)" fill="#cc562a" opacity="0.18"/>
          <path id="Vector-124" data-name="Vector" d="M5.6,1.88c0,1.039-1.256,1.88-2.8,1.88S0,2.919,0,1.88,1.249,0,2.795,0,5.6.841,5.6,1.88Z" transform="translate(134.361 212.391)" fill="#cc562a" opacity="0.34"/>
          <path id="Vector-125" data-name="Vector" d="M5.6,1.88c0,1.038-1.254,1.88-2.8,1.88S0,2.918,0,1.88,1.254,0,2.8,0,5.6.842,5.6,1.88Z" transform="translate(215.218 164.184)" fill="#cc562a" opacity="0.28"/>
          <path id="Vector-126" data-name="Vector" d="M5.6,1.88c0,1.032-1.249,1.88-2.795,1.88S0,2.912,0,1.88,1.249,0,2.8,0,5.6.867,5.6,1.88Z" transform="translate(151.154 133.793)" fill="#cc562a" opacity="0.38"/>
          <path id="Vector-127" data-name="Vector" d="M5.6,1.873c0,1.039-1.256,1.88-2.8,1.88S0,2.912,0,1.873,1.249,0,2.795,0,5.6.841,5.6,1.873Z" transform="translate(135.294 83.422)" fill="#cc562a" opacity="0.38"/>
          <path id="Vector-128" data-name="Vector" d="M5.6,1.88c0,1.039-1.256,1.88-2.8,1.88S0,2.919,0,1.88,1.256,0,2.8,0,5.6.841,5.6,1.88Z" transform="translate(208.379 77.783)" fill="#cc562a" opacity="0.38"/>
          <path id="Vector-129" data-name="Vector" d="M5.6,1.88c0,1.038-1.254,1.88-2.8,1.88S0,2.918,0,1.88,1.254,0,2.8,0,5.6.842,5.6,1.88Z" transform="translate(57.225 39.59)" fill="#cc562a" opacity="0.21"/>
          <path id="Vector-130" data-name="Vector" d="M5.6,1.88c0,1.032-1.256,1.873-2.8,1.873S0,2.912,0,1.88,1.256,0,2.8,0,5.6.841,5.6,1.88Z" transform="translate(205.269 53.369)" fill="#cc562a" opacity="0.21"/>
          <path id="Vector-131" data-name="Vector" d="M5.6,1.886c0,1.039-1.256,1.88-2.8,1.88S0,2.925,0,1.886,1.256,0,2.795,0,5.6.854,5.6,1.886Z" transform="translate(233.26 48.975)" fill="#cc562a" opacity="0.41"/>
          <path id="Vector-132" data-name="Vector" d="M3.288,1.092c0,.609-.73,1.1-1.637,1.1S0,1.7,0,1.092.73,0,1.631,0,3.288.49,3.288,1.092Z" transform="translate(86.137 35.526)" fill="#cc562a" opacity="0.21"/>
          <path id="Vector-133" data-name="Vector" d="M3.261,1.092c0,.609-.73,1.1-1.631,1.1S0,1.7,0,1.092.73,0,1.631,0,3.261.49,3.261,1.092Z" transform="translate(105.048 20.185)" fill="#cc562a" opacity="0.21"/>
          <path id="Vector-134" data-name="Vector" d="M3.268,1.092c0,.609-.73,1.1-1.631,1.1S0,1.7,0,1.092.736,0,1.637,0,3.268.49,3.268,1.092Z" transform="translate(60.256 30.046)" fill="#cc562a" opacity="0.21"/>
          <path id="Vector-135" data-name="Vector" d="M3.268,1.092c0,.609-.73,1.1-1.637,1.1S0,1.7,0,1.092.73,0,1.631,0,3.268.49,3.268,1.092Z" transform="translate(72.388 32.866)" fill="#cc562a" opacity="0.21"/>
          <path id="Vector-136" data-name="Vector" d="M3.268,1.1c0,.6-.73,1.092-1.637,1.092S0,1.7,0,1.1.73,0,1.631,0,3.268.49,3.268,1.1Z" transform="translate(110.643 16.585)" fill="#cc562a" opacity="0.21"/>
          <path id="Vector-137" data-name="Vector" d="M5.6,1.88c0,1.038-1.254,1.88-2.8,1.88S0,2.918,0,1.88,1.254,0,2.8,0,5.6.842,5.6,1.88Z" transform="translate(124.715 95.626)" fill="#cc562a" opacity="0.38"/>
          <path id="Vector-138" data-name="Vector" d="M5.6,1.88c0,1.032-1.256,1.873-2.8,1.873S0,2.912,0,1.88,1.256,0,2.8,0,5.6.841,5.6,1.88Z" transform="translate(221.129 102.516)" fill="#cc562a" opacity="0.38"/>
          <path id="Vector-139" data-name="Vector" d="M5.6,1.88C5.6,2.912,4.346,3.753,2.8,3.753S0,2.912,0,1.88,1.256,0,2.8,0,5.6.841,5.6,1.88Z" transform="translate(147.11 213.959)" fill="#cc562a" opacity="0.38"/>
          <path id="Vector-140" data-name="Vector" d="M5.6,1.88c0,1.032-1.256,1.88-2.8,1.88S0,2.912,0,1.88,1.256,0,2.8,0,5.6.841,5.6,1.88Z" transform="translate(162.97 183.906)" fill="#cc562a" opacity="0.16"/>
          <path id="Vector-141" data-name="Vector" d="M5.6,1.88c0,1.038-1.254,1.88-2.8,1.88S0,2.918,0,1.88,1.254,0,2.8,0,5.6.842,5.6,1.88Z" transform="translate(210.865 123.171)" fill="#cc562a" opacity="0.38"/>
          <path id="Vector-142" data-name="Vector" d="M2.8.94c0,.523-.625.94-1.4.94S0,1.463,0,.94.625,0,1.4,0,2.8.424,2.8.94Z" transform="translate(208.379 104.077)" fill="#cc562a" opacity="0.38"/>
          <path id="Vector-143" data-name="Vector" d="M2.8.94c0,.519-.627.94-1.4.94S0,1.459,0,.94.627,0,1.4,0,2.8.421,2.8.94Z" transform="translate(157.216 212.08)" fill="#cc562a" opacity="0.38"/>
          <path id="Vector-144" data-name="Vector" d="M2.8.94c0,.523-.658.94-1.4.94S0,1.463,0,.94.625,0,1.4,0,2.8.424,2.8.94Z" transform="translate(135.136 93.746)" fill="#cc562a" opacity="0.38"/>
          <path id="Vector-145" data-name="Vector" d="M2.8.94c0,.519-.627.94-1.4.94S0,1.459,0,.94.627,0,1.4,0,2.8.421,2.8.94Z" transform="translate(203.559 128.499)" fill="#cc562a" opacity="0.38"/>
          <path id="Vector-146" data-name="Vector" d="M2.8.94c0,.519-.627.94-1.4.94S0,1.459,0,.94.627,0,1.4,0,2.8.421,2.8.94Z" transform="translate(197.339 127.559)" fill="#cc562a" opacity="0.38"/>
          <path id="Vector-147" data-name="Vector" d="M2.8.94c0,.519-.627.94-1.4.94S0,1.459,0,.94.627,0,1.4,0,2.8.421,2.8.94Z" transform="translate(157.216 178.267)" fill="#cc562a" opacity="0.18"/>
          <path id="Vector-148" data-name="Vector" d="M2.8.94c0,.519-.627.94-1.4.94S0,1.459,0,.94.627,0,1.4,0,2.8.421,2.8.94Z" transform="translate(102.168 184.217)" fill="#cc562a" opacity="0.18"/>
          <path id="Vector-149" data-name="Vector" d="M2.8.94c0,.519-.627.94-1.4.94S0,1.459,0,.94.627,0,1.4,0,2.8.421,2.8.94Z" transform="translate(67.332 169.505)" fill="#cc562a" opacity="0.18"/>
          <path id="Vector-150" data-name="Vector" d="M2.8.94c0,.519-.627.94-1.4.94S0,1.459,0,.94.627,0,1.4,0,2.8.421,2.8.94Z" transform="translate(118.027 214.581)" fill="#cc562a" opacity="0.18"/>
          <path id="Vector-151" data-name="Vector" d="M2.8.94c0,.516-.658.94-1.4.94S0,1.456,0,.94.658,0,1.4,0,2.8.417,2.8.94Z" transform="translate(134.203 166.063)" fill="#cc562a" opacity="0.18"/>
          <path id="Vector-152" data-name="Vector" d="M2.8.94c0,.519-.627.94-1.4.94S0,1.459,0,.94.627,0,1.4,0,2.8.421,2.8.94Z" transform="translate(69.199 159.803)" fill="#cc562a" opacity="0.18"/>
          <path id="Vector-153" data-name="Vector" d="M2.8.94c0,.519-.627.94-1.4.94S0,1.459,0,.94.627,0,1.4,0,2.8.421,2.8.94Z" transform="translate(168.105 130.689)" fill="#cc562a" opacity="0.38"/>
          <path id="Vector-154" data-name="Vector" d="M2.795.933c0,.523-.625.94-1.4.94S0,1.456,0,.933.658,0,1.394,0s1.4.4,1.4.933Z" transform="translate(163.752 212.708)" fill="#cc562a" opacity="0.38"/>
          <path id="Vector-155" data-name="Vector" d="M2.8.94c0,.516-.658.94-1.4.94S0,1.456,0,.94.658,0,1.4,0,2.8.43,2.8.94Z" transform="translate(61.736 161.053)" fill="#cc562a" opacity="0.22"/>
          <path id="Vector-156" data-name="Vector" d="M2.8.94c0,.519-.627.94-1.4.94S0,1.459,0,.94.627,0,1.4,0,2.8.421,2.8.94Z" transform="translate(56.14 184.528)" fill="#cc562a" opacity="0.22"/>
          <path id="Vector-157" data-name="Vector" d="M2.8.94c0,.519-.627.94-1.4.94S0,1.459,0,.94.627,0,1.4,0,2.8.421,2.8.94Z" transform="translate(151.621 171.073)" fill="#cc562a" opacity="0.18"/>
          <path id="Vector-158" data-name="Vector" d="M2.8.94c0,.519-.627.94-1.4.94S0,1.459,0,.94.627,0,1.4,0,2.8.421,2.8.94Z" transform="translate(180.079 181.715)" fill="#cc562a" opacity="0.18"/>
          <path id="Vector-159" data-name="Vector" d="M2.8.94c0,.519-.627.94-1.4.94S0,1.459,0,.94.627,0,1.4,0,2.8.421,2.8.94Z" transform="translate(162.194 84.355)" fill="#cc562a" opacity="0.38"/>
          <path id="Vector-160" data-name="Vector" d="M2.795.94c0,.516-.625.94-1.394.94S0,1.456,0,.94.658,0,1.4,0,2.795.417,2.795.94Z" transform="translate(221.425 75.282)" fill="#cc562a" opacity="0.38"/>
          <path id="Vector-161" data-name="Vector" d="M2.8.94c0,.519-.627.94-1.4.94S0,1.459,0,.94.627,0,1.4,0,2.8.421,2.8.94Z" transform="translate(202.784 77.783)" fill="#cc562a" opacity="0.38"/>
          <path id="Vector-162" data-name="Vector" d="M2.8.94c0,.519-.627.94-1.4.94S0,1.459,0,.94.627,0,1.4,0,2.8.421,2.8.94Z" transform="translate(66.089 37.088)" fill="#cc562a" opacity="0.21"/>
          <path id="Vector-163" data-name="Vector" d="M2.8.94c0,.523-.658.94-1.4.94S0,1.463,0,.94.658,0,1.4,0,2.8.424,2.8.94Z" transform="translate(101.859 16.426)" fill="#cc562a" opacity="0.21"/>
          <path id="Vector-164" data-name="Vector" d="M2.8.94c0,.519-.627.94-1.4.94S0,1.459,0,.94.627,0,1.4,0,2.8.421,2.8.94Z" transform="translate(214.757 50.55)" fill="#cc562a" opacity="0.21"/>
          <path id="Vector-165" data-name="Vector" d="M2.8.94c0,.519-.627.94-1.4.94S0,1.459,0,.94.627,0,1.4,0,2.8.421,2.8.94Z" transform="translate(232.636 93.746)" fill="#cc562a" opacity="0.38"/>
          <path id="Vector-166" data-name="Vector" d="M2.8.94c0,.516-.658.933-1.4.933S0,1.456,0,.94.625,0,1.4,0,2.8.417,2.8.94Z" transform="translate(170.282 88.743)" fill="#cc562a" opacity="0.38"/>
          <path id="Vector-167" data-name="Vector" d="M2.8.94c0,.519-.627.94-1.4.94S0,1.459,0,.94.627,0,1.4,0,2.8.421,2.8.94Z" transform="translate(122.538 89.676)" fill="#cc562a" opacity="0.38"/>
          <path id="Vector-168" data-name="Vector" d="M2.8.933c0,.523-.658.94-1.4.94S0,1.456,0,.933.658,0,1.4,0,2.8.417,2.8.933Z" transform="translate(76.978 39.597)" fill="#cc562a" opacity="0.21"/>
        </g>
      </g>
    </g>
  </g>
</svg>
