<svg xmlns="http://www.w3.org/2000/svg" xmlns:xlink="http://www.w3.org/1999/xlink" width="39.264" height="39.34" viewBox="0 0 39.264 39.34">
  <defs>
    <linearGradient id="linear-gradient" x1="0.5" x2="0.5" y2="1" gradientUnits="objectBoundingBox">
      <stop offset="0" stop-color="#fe9861"/>
      <stop offset="1" stop-color="#ff5a00"/>
    </linearGradient>
  </defs>
  <g id="Group_26" transform="translate(0 0)">
    <circle id="Ellipse_2" cx="19.052" cy="19.052" r="19.052" transform="translate(0.618 1.235)" fill="url(#linear-gradient)"/>
    <g id="bell" transform="translate(8.767 8.992)">
      <path id="Path_22" d="M62.492,59.894H44.582a1.534,1.534,0,0,0,1.548-1.141C47.4,55.316,44.01,45.3,53.537,45.3s6.133,10.016,7.407,13.452a1.535,1.535,0,0,0,1.548,1.141Zm0,0" transform="translate(-42.491 -43.176)" fill="#f7d360"/>
      <path id="Path_23" d="M28.984,358.218a1.734,1.734,0,0,1-1.734,1.734H9.34a1.734,1.734,0,1,1,0-3.468H27.25a1.734,1.734,0,0,1,1.734,1.734Zm0,0" transform="translate(-7.249 -339.766)" fill="#e58e13"/>
      <path id="Path_24" d="M60.947,58.761H51.638a1.777,1.777,0,0,1-1.775-1.834c.131-4.244-.546-11.538,3.607-11.618-11.4.059-4.113,14.593-8.886,14.593H62.5a1.535,1.535,0,0,1-1.548-1.141Zm0,0" transform="translate(-42.494 -43.184)" fill="#e58e13"/>
      <path id="Path_25" d="M130.824,358.218a1.734,1.734,0,0,1-1.734,1.734h-12.9a1.734,1.734,0,0,1,0-3.468h12.9a1.734,1.734,0,0,1,1.734,1.734Zm0,0" transform="translate(-109.089 -339.766)" fill="#f7d360"/>
      <path id="Path_26" d="M168.518,430.434a3.468,3.468,0,1,1-6.937,0Zm0,0" transform="translate(-154.004 -410.248)" fill="#e58e13"/>
      <path id="Path_27" d="M218.649,453.246a2.2,2.2,0,0,1-4.142,1.113.686.686,0,0,1,.539-1.113Zm0,0" transform="translate(-204.302 -431.99)" fill="#f7d360"/>
      <path id="Path_28" d="M201.378,9.506c0-.044.005-.088.005-.133a1.768,1.768,0,0,0-3.536,0c0,.045,0,.089.005.133" transform="translate(-188.569 -7.249)" fill="#e58e13"/>
      <path id="Path_29" d="M20,16.361h0c-.69,0-1.08-.359-1.3-1.2a15.431,15.431,0,0,1-.244-3.419,22.123,22.123,0,0,0-.417-5.021.357.357,0,0,0-.693.17,21.587,21.587,0,0,1,.4,4.856,15.805,15.805,0,0,0,.268,3.6,2.865,2.865,0,0,0,.469,1.014H3.616a2.865,2.865,0,0,0,.469-1.014,15.8,15.8,0,0,0,.268-3.6c.013-2.082.027-4.442.879-6.248.959-2.033,2.861-3.021,5.814-3.021a7.6,7.6,0,0,1,3.945.906,4.786,4.786,0,0,1,1.938,2.265.357.357,0,0,0,.653-.287A5.551,5.551,0,0,0,15.36,2.777a6.768,6.768,0,0,0-2.2-.816,2.124,2.124,0,0,0-4.235,0,6.832,6.832,0,0,0-2.109.764A5.5,5.5,0,0,0,4.586,5.2c-.919,1.948-.934,4.392-.947,6.547A15.42,15.42,0,0,1,3.4,15.164c-.223.839-.613,1.2-1.3,1.2h0a2.091,2.091,0,0,0,0,4.182H4.348a.357.357,0,1,0,0-.713H2.091a1.378,1.378,0,0,1,0-2.755H20a1.378,1.378,0,0,1,0,2.755H5.774a.357.357,0,0,0,0,.713H7.238a3.824,3.824,0,0,0,7.615,0H20a2.091,2.091,0,0,0,0-4.182ZM11.046.713A1.414,1.414,0,0,1,12.43,1.847a12.232,12.232,0,0,0-2.767,0A1.413,1.413,0,0,1,11.046.713Zm0,22.585a3.116,3.116,0,0,1-3.091-2.755h6.181A3.116,3.116,0,0,1,11.046,23.3Zm0,0" transform="translate(0 0)"/>
      <path id="Path_30" d="M353.926,34.144a4.625,4.625,0,0,1,1.266,1.208,6.858,6.858,0,0,1,1.261,4.186.357.357,0,0,0,.713,0,7.566,7.566,0,0,0-1.427-4.645,5.211,5.211,0,0,0-1.468-1.373.357.357,0,0,0-.346.624Zm0,0" transform="translate(-337.154 -31.906)"/>
      <path id="Path_31" d="M411.7,37.173a3.777,3.777,0,0,1,1.406,3.219.357.357,0,0,0,.713,0,4.466,4.466,0,0,0-1.734-3.819.357.357,0,0,0-.385.6Zm0,0" transform="translate(-392.239 -34.804)"/>
      <path id="Path_32" d="M44.7,39.893a.357.357,0,0,0,.357-.357,6.859,6.859,0,0,1,1.261-4.186,4.641,4.641,0,0,1,1.266-1.208.357.357,0,0,0-.346-.624,5.212,5.212,0,0,0-1.468,1.373,7.568,7.568,0,0,0-1.427,4.645.357.357,0,0,0,.356.357Zm0,0" transform="translate(-42.268 -31.905)"/>
      <path id="Path_33" d="M11.247,40.749a.356.356,0,0,0,.356-.356,3.776,3.776,0,0,1,1.405-3.218.357.357,0,0,0-.385-.6,4.466,4.466,0,0,0-1.734,3.819A.357.357,0,0,0,11.247,40.749Zm0,0" transform="translate(-10.38 -34.805)"/>
    </g>
    <path id="Path_94" d="M83.484,56.82A19.054,19.054,0,0,1,56.82,83.484,19.053,19.053,0,1,0,83.484,56.82Z" transform="translate(-52.463 -51.879)" fill="rgba(248,96,13,0.4)"/>
    <path id="Path_99" d="M37.626,11.77a19.564,19.564,0,0,0-4.45-6.35.58.58,0,0,0-.8.839,18.455,18.455,0,0,1,1.9,24.617,6.473,6.473,0,0,1-.8.974,18.444,18.444,0,0,1-27.683,0c-.4-.454-.53-.618-.8-.975A18.469,18.469,0,0,1,30.5,4.694a.58.58,0,1,0,.683-.937A19.485,19.485,0,0,0,19.632,0a20.136,20.136,0,0,0-7.146,1.335A19.142,19.142,0,0,0,5.75,5.75,19.632,19.632,0,0,0,33.514,33.514,19.652,19.652,0,0,0,37.626,11.77Z" transform="translate(0 0)"/>
  </g>
</svg>
