<svg xmlns="http://www.w3.org/2000/svg" width="14.558" height="14.396" viewBox="14.675 12.704 14.558 14.396"><path d="M27.939 26.453c0-2.054-2.087-3.72-4.658-3.72h-2.653c-2.572 0-4.659 1.666-4.659 3.72a.649.649 0 0 1-.647.647.649.649 0 0 1-.647-.647c0-2.766 2.67-5.015 5.953-5.015h2.653c3.283 0 5.952 2.249 5.952 5.015a.649.649 0 0 1-.647.647.65.65 0 0 1-.647-.647Zm-9.867-9.867a3.873 3.873 0 0 1 3.882-3.882 3.873 3.873 0 0 1 3.882 3.882 3.873 3.873 0 0 1-3.882 3.882 3.873 3.873 0 0 1-3.882-3.882Zm1.294 0a2.595 2.595 0 0 0 2.588 2.588 2.596 2.596 0 0 0 2.588-2.588 2.596 2.596 0 0 0-2.588-2.588 2.596 2.596 0 0 0-2.588 2.588Z" fill="#5e4d44" fill-rule="evenodd" data-name="Union 1"/></svg>