<svg xmlns="http://www.w3.org/2000/svg" width="13.995" height="14" viewBox="0 0 17.995 18">
  <g id="OBJECTS" transform="translate(-66.027 -127.893)">
    <g id="Group_2581" data-name="Group 2581" transform="translate(66.027 127.893)">
      <g id="Group_2580" data-name="Group 2580">
        <path id="Path_1351" data-name="Path 1351" d="M83.559,141.162l-2.237-2.237a1.582,1.582,0,0,0-2.237,0l-1.016,1.016a1.2,1.2,0,0,1-1.694,0l-4.408-4.413a1.2,1.2,0,0,1,0-1.694l1.016-1.016a1.582,1.582,0,0,0,0-2.237l-2.237-2.227a1.582,1.582,0,0,0-2.237,0c-.459.455-.608.6-.817.807a5.716,5.716,0,0,0,0,8.069l6.984,6.988a5.7,5.7,0,0,0,8.069,0l.812-.812A1.594,1.594,0,0,0,83.559,141.162Zm-2.984-1.494,2.237,2.237a.532.532,0,0,1,0,.747l-.371.371-2.984-2.984.371-.371A.532.532,0,0,1,80.576,139.668ZM70,129.1l2.237,2.232a.532.532,0,0,1,0,.747l-.371.371-2.979-2.979.371-.367A.514.514,0,0,1,70,129.1Zm5.424,14.366-6.984-6.984a4.636,4.636,0,0,1-.292-6.255l2.974,2.974a2.254,2.254,0,0,0,.1,3.081l4.408,4.413h0a2.25,2.25,0,0,0,3.081.1l2.974,2.974A4.638,4.638,0,0,1,75.425,143.464Z" transform="translate(-66.027 -127.893)" fill="#7b6f72"/>
      </g>
    </g>
  </g>
</svg>
