<svg id="Plans" xmlns="http://www.w3.org/2000/svg" width="100.382" height="85.838" viewBox="0 0 100.382 85.838">
  <g id="Background_Complete" data-name="Background Complete">
    <rect id="Rectangle_17291" data-name="Rectangle 17291" width="100.382" height="0.05" transform="translate(0 76.772)" fill="#ebebeb"/>
    <rect id="Rectangle_17292" data-name="Rectangle 17292" width="6.649" height="0.05" transform="translate(83.674 80.002)" fill="#ebebeb"/>
    <rect id="Rectangle_17293" data-name="Rectangle 17293" width="1.745" height="0.05" transform="translate(64.752 80.548)" fill="#ebebeb"/>
    <rect id="Rectangle_17294" data-name="Rectangle 17294" width="3.853" height="0.05" transform="translate(79.621 78.139)" fill="#ebebeb"/>
    <rect id="Rectangle_17295" data-name="Rectangle 17295" width="8.671" height="0.05" transform="translate(10.532 78.476)" fill="#ebebeb"/>
    <rect id="Rectangle_17296" data-name="Rectangle 17296" width="1.271" height="0.05" transform="translate(20.992 78.476)" fill="#ebebeb"/>
    <rect id="Rectangle_17297" data-name="Rectangle 17297" width="18.807" height="0.05" transform="translate(26.394 79.324)" fill="#ebebeb"/>
    <path id="Path_8631" data-name="Path 8631" d="M78.12,111.776H39.354a1.146,1.146,0,0,1-1.144-1.146V56.136A1.146,1.146,0,0,1,39.354,55H78.12a1.146,1.146,0,0,1,1.146,1.146v54.483A1.146,1.146,0,0,1,78.12,111.776ZM39.354,55.04a1.1,1.1,0,0,0-1.094,1.1v54.493a1.1,1.1,0,0,0,1.094,1.1H78.12a1.1,1.1,0,0,0,1.1-1.1V56.136a1.1,1.1,0,0,0-1.1-1.1Z" transform="translate(-30.539 -43.958)" fill="#ebebeb"/>
    <path id="Path_8632" data-name="Path 8632" d="M294.414,111.776H255.646a1.148,1.148,0,0,1-1.146-1.146V56.136A1.148,1.148,0,0,1,255.646,55h38.767a1.146,1.146,0,0,1,1.142,1.136v54.493A1.146,1.146,0,0,1,294.414,111.776ZM255.646,55.04a1.1,1.1,0,0,0-1.1,1.1v54.493a1.1,1.1,0,0,0,1.1,1.1h38.767a1.1,1.1,0,0,0,1.1-1.1V56.136a1.1,1.1,0,0,0-1.1-1.1Z" transform="translate(-203.406 -43.958)" fill="#ebebeb"/>
    <rect id="Rectangle_17298" data-name="Rectangle 17298" width="23.19" height="41.602" transform="translate(54.505 19.139)" fill="#fafafa"/>
    <path id="Path_8633" data-name="Path 8633" d="M325.324,139.927h-5.3l4.957-39.6h5.3Z" transform="translate(-255.772 -80.187)" fill="#fff"/>
    <path id="Path_8634" data-name="Path 8634" d="M288,139.927H286.16l4.957-39.6h1.841Z" transform="translate(-228.71 -80.187)" fill="#fff"/>
    <rect id="Rectangle_17299" data-name="Rectangle 17299" width="0.402" height="41.602" transform="translate(78.097 60.743) rotate(180)" fill="#ebebeb"/>
    <rect id="Rectangle_17300" data-name="Rectangle 17300" width="0.926" height="23.951" transform="translate(82.502)" fill="#f0f0f0"/>
    <path id="Path_8635" data-name="Path 8635" d="M397.823,117a3.873,3.873,0,1,0,2.741,1.133A3.875,3.875,0,0,0,397.823,117Zm0,6.826a2.938,2.938,0,1,0,0-.014Z" transform="translate(-314.859 -93.511)" fill="#e0e0e0"/>
    <rect id="Rectangle_17301" data-name="Rectangle 17301" width="0.926" height="23.951" transform="translate(69.185)" fill="#f0f0f0"/>
    <path id="Path_8636" data-name="Path 8636" d="M331.495,117a3.875,3.875,0,1,0,3.875,3.873A3.875,3.875,0,0,0,331.495,117Zm0,6.826a2.932,2.932,0,1,0,0-.014Z" transform="translate(-261.846 -93.511)" fill="#e0e0e0"/>
    <path id="Path_8637" data-name="Path 8637" d="M60.6,81.33h0v60.444H58.72V83.205A1.873,1.873,0,0,1,60.6,81.33Z" transform="translate(-46.931 -65.002)" fill="#f5f5f5"/>
    <rect id="Rectangle_17302" data-name="Rectangle 17302" width="1.004" height="60.444" transform="translate(14.666 76.772) rotate(180)" fill="#e6e6e6"/>
    <path id="Path_8638" data-name="Path 8638" d="M98.073,96.334H69.832a.5.5,0,0,1-.5-.5h0a.5.5,0,0,1,.5-.5H98.073Z" transform="translate(-55.411 -76.191)" fill="#f0f0f0"/>
    <path id="Path_8639" data-name="Path 8639" d="M98.073,124.684H69.832a.5.5,0,0,1-.5-.5h0a.5.5,0,0,1,.5-.5H98.073Z" transform="translate(-55.411 -98.85)" fill="#f0f0f0"/>
    <path id="Path_8640" data-name="Path 8640" d="M98.073,153H69.832a.5.5,0,0,1-.5-.5h0a.5.5,0,0,1,.5-.5H98.073Z" transform="translate(-55.411 -121.484)" fill="#f0f0f0"/>
    <path id="Path_8641" data-name="Path 8641" d="M98.073,181.374H69.832a.5.5,0,0,1-.5-.5h0a.5.5,0,0,1,.5-.5H98.073Z" transform="translate(-55.411 -144.158)" fill="#f0f0f0"/>
    <path id="Path_8642" data-name="Path 8642" d="M98.073,209.724H69.832a.5.5,0,0,1-.5-.5h0a.5.5,0,0,1,.5-.5H98.073Z" transform="translate(-55.411 -166.817)" fill="#f0f0f0"/>
    <path id="Path_8643" data-name="Path 8643" d="M98.073,238.074H69.832a.5.5,0,0,1-.5-.5h0a.5.5,0,0,1,.5-.5H98.073Z" transform="translate(-55.411 -189.475)" fill="#f0f0f0"/>
    <path id="Path_8644" data-name="Path 8644" d="M98.073,266.414H69.832a.5.5,0,0,1-.5-.5h0a.5.5,0,0,1,.5-.5H98.073Z" transform="translate(-55.411 -212.125)" fill="#f0f0f0"/>
    <path id="Path_8645" data-name="Path 8645" d="M98.073,294.764H69.832a.5.5,0,0,1-.5-.5h0a.5.5,0,0,1,.5-.5H98.073Z" transform="translate(-55.411 -234.784)" fill="#f0f0f0"/>
    <path id="Path_8646" data-name="Path 8646" d="M98.073,323.1H69.832a.5.5,0,0,1-.5-.5h0a.5.5,0,0,1,.5-.5H98.073Z" transform="translate(-55.411 -257.434)" fill="#f0f0f0"/>
    <path id="Path_8647" data-name="Path 8647" d="M98.073,351.454H69.832a.5.5,0,0,1-.5-.5h0a.5.5,0,0,1,.5-.5H98.073Z" transform="translate(-55.411 -280.093)" fill="#f0f0f0"/>
    <path id="Path_8648" data-name="Path 8648" d="M209.705,81.33h0a1.875,1.875,0,0,0-1.875,1.875v58.569h1.875Z" transform="translate(-166.105 -65.002)" fill="#f5f5f5"/>
    <rect id="Rectangle_17303" data-name="Rectangle 17303" width="1.004" height="60.444" transform="translate(44.602 76.772) rotate(180)" fill="#e6e6e6"/>
    <path id="Path_8649" data-name="Path 8649" d="M268.851,324.06c-1.668,0-3.011,2.208-3.011,4.947s1.353,4.947,3.011,4.947H270V324.06Z" transform="translate(-212.469 -259.001)" fill="#e0e0e0"/>
    <ellipse id="Ellipse_357" data-name="Ellipse 357" cx="3.021" cy="4.947" rx="3.021" ry="4.947" transform="translate(54.505 65.059)" fill="#e0e0e0"/>
    <path id="Path_8650" data-name="Path 8650" d="M273.634,315c-2.283,0-4.134,3.03-4.134,6.766s1.851,6.766,4.134,6.766H275.2V315Z" transform="translate(-215.394 -251.76)" fill="#e6e6e6"/>
    <ellipse id="Ellipse_358" data-name="Ellipse 358" cx="4.132" cy="6.766" rx="4.132" ry="6.766" transform="translate(55.672 63.24)" fill="#f0f0f0"/>
    <path id="Path_8651" data-name="Path 8651" d="M323.487,347.052H298.43a.548.548,0,0,1-.55-.55h0a.55.55,0,0,1,.55-.552h25.057Z" transform="translate(-238.077 -276.496)" fill="#e6e6e6"/>
    <path id="Path_8652" data-name="Path 8652" d="M402.4,315c-2.281,0-4.132,3.03-4.132,6.766s1.851,6.766,4.132,6.766h1.564V315Z" transform="translate(-318.312 -251.76)" fill="#e0e0e0"/>
    <ellipse id="Ellipse_359" data-name="Ellipse 359" cx="4.132" cy="6.766" rx="4.132" ry="6.766" transform="translate(81.522 63.24)" fill="#f0f0f0"/>
    <path id="Path_8653" data-name="Path 8653" d="M414.971,324.06c-1.668,0-3.021,2.208-3.021,4.947s1.353,4.947,3.021,4.947h1.142V324.06Z" transform="translate(-329.246 -259.001)" fill="#e0e0e0"/>
    <ellipse id="Ellipse_360" data-name="Ellipse 360" cx="3.021" cy="4.947" rx="3.021" ry="4.947" transform="translate(83.845 65.059)" fill="#f0f0f0"/>
  </g>
  <g id="Shadow" transform="translate(11.265 81.293)">
    <ellipse id="_Path_" data-name="&lt;Path&gt;" cx="38.926" cy="2.273" rx="38.926" ry="2.273" fill="#f5f5f5"/>
  </g>
  <g id="Character_1" data-name="Character 1" transform="translate(24.63 31.23)">
    <path id="Path_8654" data-name="Path 8654" d="M159.321,206.2a4.921,4.921,0,0,1,1.739.478l1.648.695c.548.227,1.094.452,1.638.661a14.4,14.4,0,0,0,1.606.524c.126.03.251.058.369.08l.383.056.416.038.43.02c.582.022,1.182.018,1.783,0s1.2-.042,1.807-.078,1.217-.068,1.817-.116h0a.616.616,0,0,1,.2,1.2c-1.2.305-2.409.564-3.652.781-.618.108-1.241.2-1.883.279l-.486.048-.5.03H166.1a5.421,5.421,0,0,1-.544-.04,17.542,17.542,0,0,1-1.965-.349c-.628-.143-1.243-.315-1.847-.5s-1.2-.4-1.783-.616a4.638,4.638,0,0,1-1.652-.944,1.311,1.311,0,0,1,.95-2.267Z" transform="translate(-150.825 -196.02)" fill="#ffede5"/>
    <path id="Path_8655" data-name="Path 8655" d="M228.948,217.024l1.187-.4a1.777,1.777,0,0,1,.767-.084l.638.068a.57.57,0,0,1,.506.638l-.088.7a.572.572,0,0,1-.546.5l-.823.028s-1.472.3-1.759-.452Z" transform="translate(-207.52 -204.287)" fill="#ffede5"/>
    <path id="Path_8656" data-name="Path 8656" d="M128.031,201.233a8.61,8.61,0,0,1,3.212-.259l3.17.867a1.606,1.606,0,0,1,1.148,1.534c.068,3.931-.715,5.874-1.225,13.13-.277-.028-8.472-.727-8.472-.727.767-4.037-.036-7.037-.016-11.275C125.861,202.21,126.935,201.59,128.031,201.233Z" transform="translate(-125.213 -191.816)" fill="#263238"/>
    <ellipse id="Ellipse_361" data-name="Ellipse 361" cx="1.708" cy="2.415" rx="1.708" ry="2.415" transform="translate(0.371 10.965) rotate(-23.5)" fill="#ffc3bd" opacity="0.7"/>
    <path id="Path_8657" data-name="Path 8657" d="M130.288,206.045a4.929,4.929,0,0,1,1.606.855l1.48,1.046c.494.347.986.687,1.478,1a13.92,13.92,0,0,0,1.468.853,9.9,9.9,0,0,0,1.58.55c.576.159,1.172.3,1.769.436s1.2.261,1.807.379,1.2.245,1.817.355h0a.616.616,0,0,1-.122,1.223c-1.261-.022-2.51-.08-3.77-.179-.632-.05-1.263-.1-1.905-.185-.321-.042-.644-.086-.978-.147-.163-.024-.341-.07-.512-.1a4.951,4.951,0,0,1-.53-.149,16.47,16.47,0,0,1-1.885-.767c-.592-.277-1.164-.578-1.723-.9s-1.1-.652-1.634-1a4.72,4.72,0,0,1-1.431-1.291,1.311,1.311,0,0,1,1.415-2.008Z" transform="translate(-127.39 -195.853)" fill="#ffede5"/>
    <path id="Path_8658" data-name="Path 8658" d="M198.012,231.12l1.166-.452a1.807,1.807,0,0,1,.763-.12l.64.038a.57.57,0,0,1,.534.616l-.056.7a.572.572,0,0,1-.522.522l-.821.068s-1.456.369-1.777-.371Z" transform="translate(-182.831 -215.49)" fill="#ffede5"/>
    <path id="Path_8659" data-name="Path 8659" d="M141.3,178.987c-1.15.078-.719,2.309.418,2.61S142.874,178.87,141.3,178.987Z" transform="translate(-137.023 -174.28)" fill="#263238"/>
    <path id="Path_8660" data-name="Path 8660" d="M160.606,166.159c-1-.9-2.508,1.271-1.827,2.455S161.977,167.383,160.606,166.159Z" transform="translate(-151.396 -163.861)" fill="#263238"/>
    <path id="Path_8661" data-name="Path 8661" d="M142.652,181.76a14.2,14.2,0,0,1-.622,4.045c.108.791,1.542,1.2,3.1,1.755.891-.506,1.114-.913.775-1.435-1.307-.357-.857-1.622-.564-2.536Z" transform="translate(-138.146 -176.499)" fill="#ffede5"/>
    <path id="Path_8662" data-name="Path 8662" d="M149.48,188.953l.118.078a6.2,6.2,0,0,0-.3,1.164,2.089,2.089,0,0,1-1.5-.709,2.778,2.778,0,0,1-.458-.917Z" transform="translate(-142.39 -181.942)" opacity="0.2"/>
    <path id="Path_8663" data-name="Path 8663" d="M143.761,165.13c.086,1.606.056,2.558.865,3.383a2.163,2.163,0,0,0,3.614-1.108c.355-1.448.153-3.837-1.421-4.475a2.22,2.22,0,0,0-3.058,2.2Z" transform="translate(-139.526 -161.317)" fill="#ffede5"/>
    <path id="Path_8664" data-name="Path 8664" d="M135.184,160.731s1.7.689,1.335-.221c0,0,.8-1.1.1-1.819,1.028.255,2.108-.223,2.132-.524.524.671,1.769.6,1.706-.257a1,1,0,0,0-.239-1.713,1.688,1.688,0,0,0-1.48.217,2.318,2.318,0,0,0-2.142-.8c-1.217.311-1.237,1.227-1.237,1.227s-1.405-.122-1.785.793a1.429,1.429,0,0,0,.4,1.576S133.468,160.809,135.184,160.731Z" transform="translate(-131.306 -155.557)" fill="#263238"/>
    <path id="Path_8665" data-name="Path 8665" d="M139.5,178.211a1.516,1.516,0,0,0,.9.741c.516.153.785-.307.652-.8-.12-.442-.534-1.052-1.056-.988a.691.691,0,0,0-.5,1.05Z" transform="translate(-136.044 -172.82)" fill="#ffede5"/>
    <path id="Path_8666" data-name="Path 8666" d="M156.94,175.347c0,.13.068.237.155.237s.157-.106.157-.237-.068-.237-.153-.237S156.952,175.216,156.94,175.347Z" transform="translate(-150.063 -171.184)" fill="#263238"/>
    <path id="Path_8667" data-name="Path 8667" d="M158.54,184.507c0,.13.068.237.155.237s.157-.106.157-.237-.068-.237-.153-.237S158.542,184.376,158.54,184.507Z" transform="translate(-151.341 -178.505)" fill="#263238"/>
    <path id="Path_8668" data-name="Path 8668" d="M164.52,175.889c0,.13.068.237.153.237s.157-.106.157-.239-.066-.237-.153-.237S164.52,175.756,164.52,175.889Z" transform="translate(-156.121 -171.616)" fill="#263238"/>
    <path id="Path_8669" data-name="Path 8669" d="M162.17,177.09a4.676,4.676,0,0,0,.618,1.12.761.761,0,0,1-.628.118Z" transform="translate(-154.235 -172.767)" fill="#ed847e"/>
    <path id="Path_8670" data-name="Path 8670" d="M154.592,172.3a.068.068,0,0,1-.032-.02.076.076,0,0,1,0-.108.773.773,0,0,1,.673-.217.074.074,0,0,1,.058.09.076.076,0,0,1-.09.06h0a.618.618,0,0,0-.528.185A.074.074,0,0,1,154.592,172.3Z" transform="translate(-148.142 -168.658)" fill="#263238"/>
    <path id="Path_8671" data-name="Path 8671" d="M164.619,172.667a.072.072,0,0,1-.066-.03.614.614,0,0,0-.494-.255.074.074,0,0,1-.08-.07.076.076,0,0,1,.072-.082.751.751,0,0,1,.624.315.076.076,0,0,1-.016.108A.074.074,0,0,1,164.619,172.667Z" transform="translate(-155.688 -168.882)" fill="#263238"/>
    <path id="Path_8672" data-name="Path 8672" d="M150.21,403.48Z" transform="translate(-144.684 -353.706)" fill="#407bff"/>
    <path id="Path_8673" data-name="Path 8673" d="M133.909,272.4l-8.559-.7a.1.1,0,0,0-.1.086l-.058.56a.1.1,0,0,0,.086.106l8.508.839a.1.1,0,0,0,.1-.08l.116-.695a.1.1,0,0,0-.094-.114Z" transform="translate(-124.685 -248.382)" fill="#5764a1"/>
    <path id="Path_8674" data-name="Path 8674" d="M161.731,289.036a53.922,53.922,0,0,1-8.811-2.672l2.789-5.754s11.717,3.849,10.508,7.531a167.735,167.735,0,0,0-4.28,18.014h-1.875C160.806,297.954,159.318,292.533,161.731,289.036Z" transform="translate(-146.85 -255.504)" fill="#ffede5"/>
    <path id="Path_8675" data-name="Path 8675" d="M188.736,406.87l-2.008.028a.126.126,0,0,0-.126.114l-.155,1.45a.265.265,0,0,0,.267.285c.638-.02,1.807-.072,2.61-.084.94-.016.849.024,1.951,0,.667-.01.773-.689.488-.745a6.166,6.166,0,0,1-2.61-.934A.833.833,0,0,0,188.736,406.87Z" transform="translate(-173.645 -356.415)" fill="#263238"/>
    <path id="Path_8676" data-name="Path 8676" d="M199.215,406.142a.036.036,0,0,1-.026-.03.04.04,0,0,1,.02-.04c.072-.038.721-.379.919-.273a.118.118,0,0,1,.066.1h0a.215.215,0,0,1-.07.189c-.175.161-.642.1-.905.056Zm.863-.281a1.579,1.579,0,0,0-.731.227,1.044,1.044,0,0,0,.727-.056.144.144,0,0,0,.044-.124.044.044,0,0,0-.026-.04A.018.018,0,0,0,200.078,405.861Z" transform="translate(-183.829 -355.543)" fill="#407bff"/>
    <path id="Path_8677" data-name="Path 8677" d="M199.255,404.66h0a.034.034,0,0,1-.016-.034,1.089,1.089,0,0,1,.241-.63.281.281,0,0,1,.213-.07h0c.106,0,.139.062.145.106.034.183-.349.54-.544.632a.034.034,0,0,1-.038,0Zm.462-.654h-.04a.2.2,0,0,0-.157.052.915.915,0,0,0-.2.5c.2-.122.458-.4.44-.514C199.751,404.034,199.749,404.016,199.716,404.006Zm-.038-.046Z" transform="translate(-183.869 -354.061)" fill="#407bff"/>
    <path id="Path_8678" data-name="Path 8678" d="M141.939,275.9s3.439,1.5,5.362,2.528a.285.285,0,0,1,.126.379,16.6,16.6,0,0,0-1.558,5.77.305.305,0,0,1-.359.271c-1.913-.323-11.106-2.259-10.155-9.46C137.4,275.486,141.939,275.9,141.939,275.9Z" transform="translate(-132.757 -251.332)" fill="#5764a1"/>
    <path id="Path_8679" data-name="Path 8679" d="M128.245,274.41s-2.811-.4-4.852-.5c-2.945,9.207,4.148,9.566,5.8,9.737a.534.534,0,0,0,.468-.185,7.355,7.355,0,0,0,1.717-5.85.5.5,0,0,0-.245-.351A10.091,10.091,0,0,1,128.245,274.41Z" transform="translate(-122.684 -250.149)" fill="#5764a1"/>
    <path id="Path_8680" data-name="Path 8680" d="M148.416,291.2c-1.682.249-2.779,4.953-1.769,5.611a8.075,8.075,0,0,0,2.61.689c-2.409,3.5-.926,8.92-1.672,17.119h1.875a167.735,167.735,0,0,1,4.28-18.014C154.377,294.649,151.376,292.647,148.416,291.2Z" transform="translate(-141.527 -263.968)" fill="#ffede5"/>
    <path id="Path_8681" data-name="Path 8681" d="M153.076,406.87l-2.008.028a.128.128,0,0,0-.126.114l-.155,1.449a.265.265,0,0,0,.267.285c.638-.02,1.807-.072,2.61-.084.94-.016.849.024,1.951,0,.667-.01.773-.689.488-.745a6.167,6.167,0,0,1-2.61-.934A.828.828,0,0,0,153.076,406.87Z" transform="translate(-145.144 -356.416)" fill="#263238"/>
    <path id="Path_8682" data-name="Path 8682" d="M163.555,406.142a.036.036,0,0,1-.026-.03.04.04,0,0,1,.02-.04c.072-.038.721-.379.922-.273a.121.121,0,0,1,.064.1h0a.213.213,0,0,1-.068.189c-.177.161-.644.1-.905.056Zm.863-.281a1.586,1.586,0,0,0-.731.227,1.042,1.042,0,0,0,.727-.056.144.144,0,0,0,.044-.124.044.044,0,0,0-.026-.04l-.006-.006Z" transform="translate(-155.328 -355.543)" fill="#407bff"/>
    <path id="Path_8683" data-name="Path 8683" d="M163.595,404.66h0a.034.034,0,0,1-.016-.034,1.089,1.089,0,0,1,.241-.63.281.281,0,0,1,.213-.07h0a.13.13,0,0,1,.147.106c.032.183-.351.54-.546.632A.034.034,0,0,1,163.595,404.66Zm.462-.654h-.04a.2.2,0,0,0-.157.052.929.929,0,0,0-.2.5c.2-.122.46-.4.44-.514-.008-.014-.01-.032-.034-.042ZM164.02,403.959Z" transform="translate(-155.368 -354.061)" fill="#407bff"/>
  </g>
  <g id="Character_2" data-name="Character 2" transform="translate(53.678 17.288)">
    <path id="Path_8684" data-name="Path 8684" d="M323.822,98.341c-.106-.928-.233-2.73.54-3.1,2.086-.279,4.328,1.839,4.6,2.361s.157,2.829-.815,3.26S323.822,98.341,323.822,98.341Z" transform="translate(-312.425 -93.387)" fill="#263238"/>
    <path id="Path_8685" data-name="Path 8685" d="M285.91,140.924a3.663,3.663,0,0,1,.135,1.058,6.194,6.194,0,0,1-.11,1.02c-.116.673-.255,1.343-.426,2.008a19.636,19.636,0,0,1-.622,2.008,12.681,12.681,0,0,1-.95,2.058l-.169.269-.2.273c-.124.153-.247.3-.371.44l-.369.4-.365.393c-.494.486-.994.94-1.5,1.385-1.016.885-2.044,1.719-3.108,2.532a.752.752,0,0,1-1.02-1.106h0c.859-.974,1.717-1.967,2.53-2.969.4-.5.8-1,1.172-1.508l.267-.377.245-.373.2-.357.068-.143.068-.163a9.7,9.7,0,0,0,.442-1.618c.114-.586.2-1.2.3-1.807s.171-1.239.247-1.865a4.56,4.56,0,0,1,.514-1.829l.046-.082a1.622,1.622,0,0,1,2.961.361Z" transform="translate(-274.741 -128.991)" fill="#ffede5"/>
    <path id="Path_8686" data-name="Path 8686" d="M269.961,207.9l-1.245.474a1.942,1.942,0,0,0-.689.45l-.48.488a.6.6,0,0,0,.016.867l.536.512a.6.6,0,0,0,.8.04l.7-.532s1.415-.745,1.142-1.56Z" transform="translate(-267.371 -183.449)" fill="#ffede5"/>
    <path id="Path_8687" data-name="Path 8687" d="M318.11,135.739l-4.766-.819-4.053.665a1.851,1.851,0,0,0-1.532,1.717c-.309,4.489.488,6.655.614,13.75.3,0,9.062.149,9.062.149-.215-3.851,1.769-8.677,2.188-13.493A1.833,1.833,0,0,0,318.11,135.739Z" transform="translate(-299.594 -125.121)" fill="#5764a1"/>
    <path id="Path_8688" data-name="Path 8688" d="M329.408,115.22a15.334,15.334,0,0,0,.2,4.353c-.2.827-1.678,1.7-3.393,2.108-1.341-.671-1.168-1.688-.751-2.208,1.425-.231,1.09-1.62.881-2.61Z" transform="translate(-313.56 -109.376)" fill="#ffede5"/>
    <path id="Path_8689" data-name="Path 8689" d="M324.207,140.887h-.02a.076.076,0,0,1-.052-.038c-1.735-2.993-.454-4.618-.4-4.686a.081.081,0,1,1,.124.1c-.05.064-1.245,1.578.369,4.417,2.487-1.781,3.7-3.742,3.8-4.4a.08.08,0,0,1,.09-.068.082.082,0,0,1,.068.092c-.1.693-1.367,2.742-3.943,4.565A.1.1,0,0,1,324.207,140.887Z" transform="translate(-312.014 -126.091)" fill="#263238"/>
    <path id="Path_8690" data-name="Path 8690" d="M325.717,157.27h.42V158.9h-.827v-1.221a.4.4,0,0,1,.408-.408Z" transform="translate(-313.678 -142.983)" fill="#263238"/>
    <path id="Path_8691" data-name="Path 8691" d="M328.4,158.123h0a.4.4,0,0,1-.4-.4v-.4h.4a.4.4,0,0,1,.4.4h0A.4.4,0,0,1,328.4,158.123Z" transform="translate(-315.828 -143.024)" fill="#263238"/>
    <path id="Path_8692" data-name="Path 8692" d="M331.214,122.337l-.134.07a6.561,6.561,0,0,1,.191,1.267,2.252,2.252,0,0,0,1.666-.584,3.011,3.011,0,0,0,.586-.919Z" transform="translate(-318.29 -114.93)" opacity="0.2"/>
    <path id="Path_8693" data-name="Path 8693" d="M358.792,147.15a2.614,2.614,0,0,0-.917,2.2,5.421,5.421,0,0,0,1.038,2.991c.289-1.3.556-2.626.723-3.959Z" transform="translate(-339.702 -134.895)" opacity="0.2"/>
    <path id="Path_8694" data-name="Path 8694" d="M328.486,96.738c-.271,1.7-.345,2.7-1.293,3.485a2.3,2.3,0,0,1-3.7-1.576c-.217-1.572.265-4.079,2.008-4.579a2.365,2.365,0,0,1,2.981,2.67Z" transform="translate(-312.19 -92.397)" fill="#ffede5"/>
    <path id="Path_8695" data-name="Path 8695" d="M327.487,91.792a2.675,2.675,0,0,1-.8-2.949c-1.287.259-3.427.389-4.043-.825-.43-.845-.163-1.769.815-1.907.508.8,1.58.62,2.489.476s3.254-.476,3.026,1.291C330.067,88,330.637,90.426,327.487,91.792Z" transform="translate(-311.386 -86.11)" fill="#263238"/>
    <path id="Path_8696" data-name="Path 8696" d="M344.942,111.794a1.606,1.606,0,0,1-1.038.685c-.562.1-.8-.416-.6-.92.177-.454.683-1.054,1.229-.928A.734.734,0,0,1,344.942,111.794Z" transform="translate(-328.002 -105.695)" fill="#ffede5"/>
    <path id="Path_8697" data-name="Path 8697" d="M317.005,232.461a89.058,89.058,0,0,1,1.733-17.065L312,215.27s.341,12.62,1.046,17.848c.944,7.027.859,20.707.859,20.707h2S318.208,240.5,317.005,232.461Z" transform="translate(-303.04 -189.339)" fill="#ffede5"/>
    <path id="Path_8698" data-name="Path 8698" d="M308.048,406.27l2.148.028a.137.137,0,0,1,.135.12l.165,1.546a.283.283,0,0,1-.285.3c-.681-.022-1.919-.076-2.775-.09-1-.016-.9.026-2.078,0-.711-.01-.825-.733-.52-.793a6.551,6.551,0,0,0,2.779-.992A.837.837,0,0,1,308.048,406.27Z" transform="translate(-297.189 -341.994)" fill="#263238"/>
    <path id="Path_8699" data-name="Path 8699" d="M315.736,405.462a.038.038,0,0,0,.028-.032.042.042,0,0,0-.022-.042c-.076-.042-.767-.4-.98-.291a.134.134,0,0,0-.07.108h0a.231.231,0,0,0,.074.2c.187.173.685.112.964.06Zm-.919-.3a1.73,1.73,0,0,1,.779.243,1.1,1.1,0,0,1-.773-.06.143.143,0,0,1-.048-.132.048.048,0,0,1,.026-.042Z" transform="translate(-305.191 -341.039)" fill="#407bff"/>
    <path id="Path_8700" data-name="Path 8700" d="M317.461,403.879h.01a.04.04,0,0,0,.018-.038,1.162,1.162,0,0,0-.257-.671.305.305,0,0,0-.227-.074h0c-.112.01-.147.066-.155.112-.036.2.373.576.58.675A.038.038,0,0,0,317.461,403.879Zm-.492-.7h.042a.217.217,0,0,1,.167.054.972.972,0,0,1,.221.538c-.213-.133-.488-.43-.468-.548,0-.008,0-.028.038-.038Zm.04-.048Z" transform="translate(-306.916 -339.456)" fill="#407bff"/>
    <path id="Path_8701" data-name="Path 8701" d="M334.859,252.26c-.5.628-.516,2.265.337,4.015.056-.785.122-1.552.2-2.289Z" transform="translate(-321.033 -218.903)" opacity="0.2"/>
    <path id="Path_8702" data-name="Path 8702" d="M334.3,107.656c-.014.141-.1.245-.2.235s-.153-.131-.139-.269.1-.245.189-.235S334.312,107.51,334.3,107.656Z" transform="translate(-320.59 -103.115)" fill="#263238"/>
    <path id="Path_8703" data-name="Path 8703" d="M324.771,106.766c-.014.139-.1.243-.191.233s-.153-.131-.139-.269.1-.243.189-.233S324.783,106.628,324.771,106.766Z" transform="translate(-312.983 -102.404)" fill="#263238"/>
    <path id="Path_8704" data-name="Path 8704" d="M326.891,108.5a4.891,4.891,0,0,1-.781,1.116.8.8,0,0,0,.652.2Z" transform="translate(-314.317 -104.005)" fill="#ff5652"/>
    <path id="Path_8705" data-name="Path 8705" d="M331.292,115.451a1.136,1.136,0,0,0,.829-.371.04.04,0,0,0,0-.056.042.042,0,0,0-.058,0,1.1,1.1,0,0,1-.94.335.04.04,0,1,0-.008.08A1.142,1.142,0,0,0,331.292,115.451Z" transform="translate(-318.289 -109.209)" fill="#263238"/>
    <path id="Path_8706" data-name="Path 8706" d="M334.865,102.2a.072.072,0,0,0,.04-.012.082.082,0,0,0,.026-.112.817.817,0,0,0-.63-.4.082.082,0,1,0,0,.163h0a.66.66,0,0,1,.5.329A.084.084,0,0,0,334.865,102.2Z" transform="translate(-320.788 -98.55)" fill="#263238"/>
    <path id="Path_8707" data-name="Path 8707" d="M323.767,103.434a.08.08,0,0,0,.07-.032.648.648,0,0,1,.53-.261.078.078,0,0,0,.088-.074.08.08,0,0,0-.074-.088.8.8,0,0,0-.673.321.082.082,0,0,0,.014.116A.1.1,0,0,0,323.767,103.434Z" transform="translate(-312.384 -99.591)" fill="#263238"/>
    <path id="Path_8708" data-name="Path 8708" d="M334.938,232.442c-1.2-7.786-1.46-15.085-2.61-16.824l-5.718-.1s3.379,12.307,4.682,17.493c1.355,5.393,4.682,20.992,4.682,20.992l1.823.04S337.566,238.54,334.938,232.442Z" transform="translate(-314.717 -189.539)" fill="#ffede5"/>
    <path id="Path_8709" data-name="Path 8709" d="M363.323,406.256l2.092.028a.136.136,0,0,1,.134.12l.165,1.546a.283.283,0,0,1-.285.3c-.681-.022-1.1-.076-1.955-.09-1-.016-.538.026-1.713,0-.709-.01-.869-.652-.57-.737a3.407,3.407,0,0,0,1.7-1.048A.6.6,0,0,1,363.323,406.256Z" transform="translate(-342.241 -341.98)" fill="#263238"/>
    <path id="Path_8710" data-name="Path 8710" d="M369.374,404.242a.042.042,0,0,0,.038-.022.04.04,0,0,0,0-.046c-.058-.066-.582-.644-.821-.6a.128.128,0,0,0-.1.076h0a.239.239,0,0,0,0,.215c.116.225.6.339.885.387Zm-.761-.6c.139,0,.44.273.648.494a1.151,1.151,0,0,1-.707-.321.151.151,0,0,1,0-.141.05.05,0,0,1,.04-.032Z" transform="translate(-348.167 -339.835)" fill="#407bff"/>
    <path id="Path_8711" data-name="Path 8711" d="M371.55,403.322h.012a.04.04,0,0,0,.028-.028,1.211,1.211,0,0,0-.01-.719.293.293,0,0,0-.189-.147h0c-.108-.03-.161.01-.183.052-.1.171.153.669.313.831A.04.04,0,0,0,371.55,403.322Zm-.221-.825h.042a.217.217,0,0,1,.137.108.964.964,0,0,1,.022.58c-.153-.2-.311-.572-.251-.675.012,0,.022-.014.058-.014Zm.052-.032Z" transform="translate(-350.344 -338.915)" fill="#407bff"/>
    <path id="Path_8712" data-name="Path 8712" d="M325,214.7s1.466,7.1,1.622,9.5a33.728,33.728,0,0,0,6.171-.863s.65-4.969-1.528-8.472C329.092,214.742,325,214.7,325,214.7Z" transform="translate(-313.43 -188.884)" fill="#263238"/>
    <path id="Path_8713" data-name="Path 8713" d="M352.906,224.69h0a.108.108,0,0,1-.106-.11,30.888,30.888,0,0,0-1.441-8.432.108.108,0,0,1,.2-.066,31.113,31.113,0,0,1,1.45,8.5.106.106,0,0,1-.1.11Z" transform="translate(-334.496 -189.946)" fill="#fff"/>
    <path id="Path_8714" data-name="Path 8714" d="M349.332,224.737h0a.108.108,0,0,1-.1-.11,31.6,31.6,0,0,0-1.48-8.548.108.108,0,0,1,.068-.137.11.11,0,0,1,.136.07,31.685,31.685,0,0,1,1.49,8.619.106.106,0,0,1-.11.106Z" transform="translate(-331.607 -189.872)" fill="#fff"/>
    <path id="Path_8715" data-name="Path 8715" d="M310.584,211.56l9.137.2a.1.1,0,0,1,.1.1v.6a.1.1,0,0,1-.1.1l-9.091-.06a.1.1,0,0,1-.1-.1l-.046-.749a.1.1,0,0,1,.1-.1Z" transform="translate(-301.825 -186.374)" fill="#263238"/>
    <path id="Path_8716" data-name="Path 8716" d="M310.89,214.7s.221,6.587.221,8.8a27.1,27.1,0,0,0,6.593.219s2.269-5.35.219-8.854C315.744,214.742,310.89,214.7,310.89,214.7Z" transform="translate(-302.153 -188.884)" fill="#263238"/>
    <rect id="Rectangle_17304" data-name="Rectangle 17304" width="5.78" height="7.464" rx="1.04" transform="matrix(0.55, -0.835, 0.835, 0.55, 13.62, 24.546)" fill="#407bff"/>
    <rect id="Rectangle_17305" data-name="Rectangle 17305" width="5.78" height="7.464" rx="1.04" transform="matrix(0.55, -0.835, 0.835, 0.55, 13.689, 24.443)" fill="#407bff"/>
    <rect id="Rectangle_17306" data-name="Rectangle 17306" width="5.78" height="7.464" rx="1.04" transform="matrix(0.55, -0.835, 0.835, 0.55, 13.689, 24.443)" fill="#fff" opacity="0.7"/>
    <path id="Path_8717" data-name="Path 8717" d="M346.16,189.568l-2.819,4.4-5.7-3.752,2.871-4.365Z" transform="translate(-323.533 -165.826)" opacity="0.2"/>
    <path id="Path_8718" data-name="Path 8718" d="M346.117,188.718l-2.905,4.417a60.73,60.73,0,0,1-5.661-3.718Q339,187.208,340.457,185a60.7,60.7,0,0,0,5.66,3.718Z" transform="translate(-323.461 -165.147)" fill="#fff"/>
    <path id="Path_8719" data-name="Path 8719" d="M341.414,198.718l-.052.084a.185.185,0,0,1-.269.048l-.147-.106a.022.022,0,0,1,0-.03l.153-.231a.02.02,0,0,1,.03,0l.287.2a.022.022,0,0,1,0,.034Z" transform="translate(-326.17 -175.917)" opacity="0.4"/>
    <path id="Path_8720" data-name="Path 8720" d="M340.784,190.883l-.9,1.389a.171.171,0,0,0,.06.247l.325.183a.2.2,0,0,0,.267-.066l.915-1.389a.175.175,0,0,0-.062-.249l-.323-.181a.2.2,0,0,0-.279.066Z" transform="translate(-325.3 -169.771)" fill="#263238"/>
    <path id="Path_8721" data-name="Path 8721" d="M352.931,208.31l-1.142.685a1.905,1.905,0,0,0-.6.562l-.387.564a.6.6,0,0,0,.169.851l.624.4a.6.6,0,0,0,.781-.1l.6-.646s1.263-.982.849-1.737Z" transform="translate(-333.963 -183.777)" fill="#ffede5"/>
    <path id="Path_8722" data-name="Path 8722" d="M354.77,140.647a3.379,3.379,0,0,1,.8.663,5.464,5.464,0,0,1,.586.8c.353.558.691,1.13,1,1.729a16.959,16.959,0,0,1,.835,1.879,10.64,10.64,0,0,1,.578,2.162c.014.1.026.2.034.315l.012.161v.2a3.043,3.043,0,0,1-.02.369,1.926,1.926,0,0,1-.048.335,6.149,6.149,0,0,1-.337,1.134,12.73,12.73,0,0,1-.936,1.857,26.122,26.122,0,0,1-2.3,3.19.751.751,0,0,1-1.235-.841v-.018c.287-.524.568-1.088.829-1.638s.506-1.11.719-1.666a10.858,10.858,0,0,0,.5-1.632,3.394,3.394,0,0,0,.08-.7.9.9,0,0,0,0-.135.367.367,0,0,0-.02-.1l-.032-.116c-.012-.046-.028-.1-.046-.151a7.485,7.485,0,0,0-.656-1.405c-.285-.486-.6-.976-.926-1.464s-.669-.978-1.014-1.466a6.063,6.063,0,0,1-.488-.755,2.916,2.916,0,0,1-.315-.861l-.03-.2a1.624,1.624,0,0,1,2.423-1.652Z" transform="translate(-335.277 -129.515)" fill="#ffede5"/>
  </g>
</svg>
