<svg xmlns="http://www.w3.org/2000/svg" width="52.439" height="52.778" viewBox="36.867 37.222 52.439 52.778"><g data-name="Group 6879"><g data-name="Mask Group 5" transform="translate(36.397 36.686)" clip-path="url(&quot;#a&quot;)"><g data-name="profile pic"><path d="M26.467 34.455c-5.505-.092-10.244-4.43-10.655-9.96-.44-5.93 4.25-11.091 9.96-11.544 6.366-.505 12.082 4.997 11.736 11.35-.305 5.606-5.24 10.25-11.041 10.154Z" fill="#f06400" fill-rule="evenodd" data-name="Path 1362"/><path d="M7.28 45.02c1.275 1.325 8.005 8.05 18.84 8.287 11.43.25 18.675-6.913 19.869-8.133-3.874-4.988-8.615-8.392-14.207-10.244-3.402 1.552-6.75 1.606-10.038 0-6.77 2.209-11.458 6.216-14.464 10.09Z" fill="#f06400" fill-rule="evenodd" data-name="Path 1363"/><path d="M15.855 23.625a10.834 10.834 0 1 1 0 .1z" fill="#f06400" fill-rule="evenodd" data-name="Ellipse 55"/><path d="M46.839 43.533a26.113 26.113 0 0 0 6.07-16.777c0-14.481-11.74-26.22-26.22-26.22C12.21.536.47 12.275.47 26.756c0 6.223 2.49 12.26 6.112 16.757" stroke-linejoin="round" stroke-linecap="round" stroke-width="2.168" stroke="#f06400" fill="transparent" data-name="Path 1364"/></g></g></g><defs><clipPath id="a"><path d="M26.69 0c14.74 0 26.689 11.95 26.689 26.69 0 14.74-11.95 26.689-26.69 26.689C11.95 53.379 0 41.429 0 26.689 0 11.95 11.95 0 26.69 0Z" data-name="Path 1359"/></clipPath></defs></svg>