<svg id="protein_1" data-name="protein 1" xmlns="http://www.w3.org/2000/svg" width="18" height="18" viewBox="0 0 18 18">
  <rect id="protein_1-2" data-name="protein 1" width="18" height="18" fill="none"/>
  <path id="Vector" d="M7.875,2.25v8.438A1.125,1.125,0,0,1,6.75,11.813H3.938a2.25,2.25,0,0,1-2.25-2.25v-.1a1.125,1.125,0,0,0-.33-.8L.33,7.642a1.125,1.125,0,0,1-.33-.8V3.375A3.375,3.375,0,0,1,3.375,0h2.25a2.25,2.25,0,0,1,2.25,2.25Z" transform="translate(5.625 2.531)" fill="#fc9495"/>
  <path id="Vector-2" data-name="Vector" d="M2.25,0H4.5A1.125,1.125,0,0,1,5.625,1.125V9a.562.562,0,0,1-.562.563H2.813A1.125,1.125,0,0,1,1.688,8.438V7.779a1.125,1.125,0,0,0-.33-.8L.33,5.955a1.125,1.125,0,0,1-.33-.8V2.25A2.25,2.25,0,0,1,2.25,0Z" transform="translate(6.75 3.656)" fill="#e74444"/>
  <path id="Vector-3" data-name="Vector" d="M1.688.844A.844.844,0,1,1,.844,0,.844.844,0,0,1,1.688.844Z" transform="translate(9.563 4.781)" fill="#fae8d8"/>
  <path id="Vector-4" data-name="Vector" d="M3.375,2.813,1.688,2.25,0,2.813.844.844V0H2.531V.844Z" transform="translate(2.531 12.094)" fill="#606669"/>
  <path id="Vector-5" data-name="Vector" d="M3.375,0S6.75,1.125,6.75,3.938A7.608,7.608,0,0,1,4.568,9.814a1.123,1.123,0,0,0-.349.815v.621H2.531v-.621a1.123,1.123,0,0,0-.349-.815A7.608,7.608,0,0,1,0,3.938C0,1.125,3.375,0,3.375,0Z" transform="translate(0.844 1.688)" fill="#99a2a7"/>
  <path id="Vector-6" data-name="Vector" d="M0,0H1.688V.844A.844.844,0,0,1,0,.844Z" transform="translate(4.5 5.625)" fill="#606669"/>
  <path id="Vector-7" data-name="Vector" d="M1.969,3.938A1.928,1.928,0,0,1,0,1.969,1.928,1.928,0,0,1,1.969,0C3.938,0,4.781,1.125,4.781,1.969S3.938,3.938,1.969,3.938Z" transform="translate(12.375 11.813)" fill="#deb89a"/>
  <path id="Vector-8" data-name="Vector" d="M3.938,2.813A1.928,1.928,0,0,1,1.969,4.781,1.928,1.928,0,0,1,0,2.813C0,.844,1.125,0,1.969,0S3.938.844,3.938,2.813Z" transform="translate(9.844 11.531)" fill="#f5cbaa"/>
  <path id="Vector-9" data-name="Vector" d="M1.969,0V6.509A7.719,7.719,0,0,1,0,.844,3.31,3.31,0,0,1,.107,0Z" transform="translate(0.844 4.781)" fill="#606669"/>
  <path id="Vector-10" data-name="Vector" d="M6.75,3.938H0C0,1.125,3.375,0,3.375,0S6.75,1.125,6.75,3.938Z" transform="translate(0.844 1.688)" fill="#757c80"/>
  <path id="Vector-11" data-name="Vector" d="M1.125.563A.563.563,0,1,1,.563,0,.563.563,0,0,1,1.125.563Z" transform="translate(3.375 3.094)" fill="#606669"/>
  <path id="Vector-12" data-name="Vector" d="M1.125,2.25a1.125,1.125,0,1,1,.625-.19A1.126,1.126,0,0,1,1.125,2.25Zm0-1.687a.563.563,0,1,0,.312.095A.563.563,0,0,0,1.125.563Z" transform="translate(9.281 4.5)"/>
  <path id="Vector-13" data-name="Vector" d="M16.875,12.375a2.024,2.024,0,0,1-.768,1.515,3.487,3.487,0,0,1-2.326.735,2.561,2.561,0,0,1-.844-.134,2.094,2.094,0,0,1-.577.42,2.737,2.737,0,0,1-1.11.276,2.737,2.737,0,0,1-1.11-.276,2,2,0,0,1-1.127-1.693H9a2.534,2.534,0,0,1-2.531-2.531v-.1a.849.849,0,0,0-.247-.6L5.747,9.52a6.864,6.864,0,0,1-.7.779.846.846,0,0,0-.262.611v.564L5.6,13.389a.281.281,0,0,1-.347.378l-1.6-.533-1.6.533a.281.281,0,0,1-.347-.378l.821-1.916V10.91a.846.846,0,0,0-.262-.611A7.918,7.918,0,0,1,0,4.219,4.035,4.035,0,0,1,1.8.97,6.9,6.9,0,0,1,3.567.014a.281.281,0,0,1,.178,0A6.9,6.9,0,0,1,5.513.97a5.481,5.481,0,0,1,.7.626A3.648,3.648,0,0,1,8.438.844h2.25a2.534,2.534,0,0,1,2.531,2.531V10.18a2.761,2.761,0,0,1,.563-.055,3.487,3.487,0,0,1,2.326.735,2.024,2.024,0,0,1,.768,1.515ZM8.438,1.406a3.086,3.086,0,0,0-1.86.622,4.052,4.052,0,0,1,.3.478,2.54,2.54,0,0,1,1.559-.537h2.25a1.408,1.408,0,0,1,1.406,1.406v6.688a2.223,2.223,0,0,1,.49.356l.072-.04v-7a1.971,1.971,0,0,0-1.969-1.969H8.438ZM8.05,9.49a1.4,1.4,0,0,1,.106.538v.659A.845.845,0,0,0,9,11.531h.22a2.893,2.893,0,0,1,.515-.92,2.024,2.024,0,0,1,1.515-.768,1.669,1.669,0,0,1,.281.025V3.375a.845.845,0,0,0-.844-.844H8.438a1.976,1.976,0,0,0-1.323.511,3.566,3.566,0,0,1,.2,1.176A9.69,9.69,0,0,1,6.658,7.94a.84.84,0,0,0,.058.065L7.744,9.034a1.4,1.4,0,0,1,.305.456ZM.575,3.938H6.737A3.533,3.533,0,0,0,5.175,1.42,6.537,6.537,0,0,0,3.656.581a6.572,6.572,0,0,0-1.531.849A3.527,3.527,0,0,0,.575,3.938ZM4.219,5.063a.563.563,0,1,0,1.125,0V4.5H4.219ZM1.09,7.519a6.262,6.262,0,0,0,.879,1.605V4.5H.566A9.05,9.05,0,0,0,1.09,7.519Zm3.748,5.516-.524-1.223H3l-.524,1.223,1.093-.364a.281.281,0,0,1,.178,0ZM4.656,9.892A6.2,6.2,0,0,0,6.222,7.519,9.05,9.05,0,0,0,6.747,4.5H5.906v.563a1.125,1.125,0,0,1-2.25,0V4.5H2.531V9.769q.062.062.125.122a1.41,1.41,0,0,1,.437,1.018v.34H4.219v-.34a1.411,1.411,0,0,1,.437-1.018Zm2.375.8A1.971,1.971,0,0,0,9,12.656h.008a4.494,4.494,0,0,1,.065-.562H9a1.408,1.408,0,0,1-1.406-1.406v-.659a.849.849,0,0,0-.247-.6L6.4,8.489q-.151.292-.327.565l.543.543a1.4,1.4,0,0,1,.412.994v.1Zm5.906,2.25c0-1.844-1.035-2.531-1.687-2.531s-1.687.687-1.687,2.531a1.636,1.636,0,0,0,1.688,1.688,2.19,2.19,0,0,0,.874-.224A1.509,1.509,0,0,0,12.938,12.938Zm3.375-.562c0-.652-.687-1.687-2.531-1.687a1.86,1.86,0,0,0-.83.173,3.692,3.692,0,0,1,.548,2.077,2.408,2.408,0,0,1-.224,1.068,2.143,2.143,0,0,0,.506.057C15.625,14.063,16.313,13.027,16.313,12.375Z" transform="translate(0.563 1.406)"/>
  <path id="Vector-14" data-name="Vector" d="M.844,1.688a.844.844,0,1,1,.469-.142.845.845,0,0,1-.469.142ZM.645.645a.281.281,0,1,0,.2-.082.282.282,0,0,0-.2.082Z" transform="translate(3.094 2.812)"/>
</svg>
