<svg id="rice" xmlns="http://www.w3.org/2000/svg" width="18" height="18" viewBox="0 0 18 18">
  <rect id="rice-2" data-name="rice" width="18" height="18" fill="none"/>
  <g id="Group" transform="translate(5.15)">
    <path id="Vector" d="M9.046,7.933a.292.292,0,0,1-.26.269l-.031,0a.292.292,0,0,1-.28-.209c-.013-.045-1.359-4.515-3.8-6.065a2.482,2.482,0,0,0-1.313-.36,1.774,1.774,0,0,0-1.424.73A12.423,12.423,0,0,0,.268,5.68a.29.29,0,0,1-.147.176Q.071,5.268,0,4.682C.58,3.194,2.027.229,4.42.018A3.455,3.455,0,0,1,7.278.98C9.389,3.065,9.061,7.735,9.046,7.933Z" transform="translate(0.333 3.952)" fill="#ffc850"/>
    <path id="Vector-2" data-name="Vector" d="M.3,11.571a.292.292,0,0,1-.292-.282A23.2,23.2,0,0,1,.452,6.334C1.16,2.915,2.641.8,4.736.221a4.682,4.682,0,0,1,4.43.8c1.364,1.169,1.958,3.161,1.673,5.611a.292.292,0,0,1-.57.05c-.945-3.173-4.414-5.316-6.727-5a.856.856,0,0,0-.512.257C.4,4.768.587,11.191.59,11.269a.292.292,0,0,1-.282.3H.3Z" transform="translate(0 0)" fill="#ffc850"/>
  </g>
  <path id="Vector-3" data-name="Vector" d="M.894.113A42.825,42.825,0,0,0,2.615,11.424L1.446,14.346.277,8.794A20.372,20.372,0,0,1,.665.085.117.117,0,0,1,.894.113Z" transform="translate(3.125 0.439)" fill="#d4f582"/>
  <path id="Vector-4" data-name="Vector" d="M9.076,5.445a.117.117,0,0,1-.165.163C7.319,4.337,3.7,1.538,2.848,1.689S1.169,8.557,1.169,8.557L0,5.05S.3.441,2.324.027C4.271-.371,7.7,3.7,9.076,5.445Z" transform="translate(4.863 9.151)" fill="#afd755"/>
  <path id="Vector-5" data-name="Vector" d="M.231.089A99.171,99.171,0,0,0,4.531,13.7a.291.291,0,0,1-.269.4H2.935a.588.588,0,0,1-.549-.378A39.786,39.786,0,0,1,0,.117.117.117,0,0,1,.231.089Z" transform="translate(1.941 3.901)" fill="#bee86e"/>
  <g id="Group-2" data-name="Group" transform="translate(7.624 0.564)">
    <path id="Vector-6" data-name="Vector" d="M7.427,6.33a.289.289,0,0,1-.306-.208C6.177,2.95,2.708.806.4,1.124A.883.883,0,0,0,0,1.28,4.592,4.592,0,0,1,4.2.122C6.454.67,7.513,3.2,7.614,6.237a.289.289,0,0,1-.187.093Z" transform="translate(0.673 0)" fill="#ffdc64"/>
    <path id="Vector-7" data-name="Vector" d="M6.869,7.461a.29.29,0,0,1-.224.154l-.031,0a.292.292,0,0,1-.28-.209c-.013-.045-1.359-4.515-3.8-6.065A2.482,2.482,0,0,0,1.224.982,1.746,1.746,0,0,0,0,1.489,3.4,3.4,0,0,1,2.883,0C3.8.019,6.736.731,6.869,7.461Z" transform="translate(0 3.975)" fill="#ffdc64"/>
  </g>
</svg>
