<svg xmlns="http://www.w3.org/2000/svg" width="14.895" height="14.904" viewBox="13.117 12.958 14.895 14.904"><g data-name="Mask Group 2" clip-path="url(&quot;#a&quot;)"><path d="m27.765 26.453-2.673-2.655c2.087-2.673 1.867-6.482-.531-8.88a6.66 6.66 0 0 0-4.742-1.96 6.66 6.66 0 0 0-4.743 1.96 6.66 6.66 0 0 0-1.959 4.742 6.66 6.66 0 0 0 1.96 4.742 6.66 6.66 0 0 0 4.742 1.96 6.623 6.623 0 0 0 4.12-1.429l2.654 2.692a.801.801 0 0 0 .586.238c.22 0 .421-.092.586-.238a.818.818 0 0 0 0-1.172Zm-2.893-6.793a5.013 5.013 0 0 1-1.483 3.57 5.045 5.045 0 0 1-3.57 1.483 5.045 5.045 0 0 1-3.57-1.483 5.045 5.045 0 0 1-1.484-3.57c0-1.355.531-2.618 1.483-3.57a5.045 5.045 0 0 1 3.57-1.484c1.356 0 2.619.531 3.571 1.483a5.013 5.013 0 0 1 1.483 3.57Z" fill="#5e4d44" fill-rule="evenodd" data-name="Path 6"/></g><defs><clipPath id="a"><path d="M20.5 0A20.5 20.5 0 0 1 41 20.5 20.5 20.5 0 0 1 20.5 41 20.5 20.5 0 0 1 0 20.5 20.5 20.5 0 0 1 20.5 0z" data-name="Rectangle 10" transform="translate(.325 .35)"/></clipPath></defs></svg>