<svg xmlns="http://www.w3.org/2000/svg" width="17.26" height="17.26" viewBox="-12.998 6 17.26 17.26"><g data-name="Group 2594"><g data-name="Group 2593"><path d="M-5.978 14.53a1.611 1.611 0 1 1 0 .1z" fill="#5e4d44" fill-rule="evenodd" data-name="Ellipse 303"/><path d="m3.913 13.156-2.08-.39a6.395 6.395 0 0 0-.497-1.203l1.203-1.76a.446.446 0 0 0-.051-.546L1.004 7.773a.446.446 0 0 0-.546-.05l-1.76 1.203c-.39-.21-.806-.38-1.24-.507l-.388-2.068A.446.446 0 0 0-3.353 6H-5.45a.447.447 0 0 0-.423.35l-.392 2.09a6.413 6.413 0 0 0-1.19.496l-1.738-1.188a.446.446 0 0 0-.547.051l-1.484 1.484a.447.447 0 0 0-.05.547l1.195 1.747a6.445 6.445 0 0 0-.49 1.19l-2.078.389a.447.447 0 0 0-.351.423v2.098c0 .197.157.386.35.423l2.078.39c.127.423.294.83.5 1.213l-1.182 1.728a.446.446 0 0 0 .051.547l1.484 1.483c.14.14.384.162.547.052l1.727-1.183c.372.201.767.365 1.178.49l.392 2.09c.037.194.226.35.423.35h2.098a.447.447 0 0 0 .423-.35l.388-2.068c.429-.127.84-.293 1.228-.5l1.75 1.197a.445.445 0 0 0 .546-.052l1.483-1.482a.446.446 0 0 0 .052-.547l-1.19-1.74c.21-.387.378-.798.507-1.228l2.078-.39a.448.448 0 0 0 .35-.423V13.58a.445.445 0 0 0-.35-.424Zm-8.28 5.074a3.6 3.6 0 1 1 0-7.2 3.6 3.6 0 0 1 0 7.2Z" fill="#5e4d44" fill-rule="evenodd" data-name="Path 46"/></g></g></svg>