<svg xmlns="http://www.w3.org/2000/svg" width="183.355" height="290.19" viewBox="95.645 196 183.355 290.19"><g data-name="Vector"><path d="M190.826 316.128c-.18 3.567-.642 7.699-1.309 12.267-1.206 8.058-3.054 17.245-5.132 26.175-4.568 20.478-10.008 39.365-10.008 39.365a238.4 238.4 0 0 1-4.132 35.927 170.752 170.752 0 0 1-.719 3.85c-.77 4.131-1.59 8.109-2.36 11.778-2.849 13.037-5.44 22.454-5.44 22.454l-12.498-2.155a232.245 232.245 0 0 1-.796-20.196c0-3.952 0-7.699.257-11.343 0-1.899.205-3.746.334-5.517 1.462-21.607 5.132-35.927 5.132-38.775 0-14.448.95-27.048 2.104-37.8 3.234-29.64 8.956-45.088 8.956-45.088 8.084-18.58 20.196-17.296 24.2-3.619a39.314 39.314 0 0 1 1.41 12.677Z" fill="#ffede5" fill-rule="evenodd" data-name="Vector"/><path d="M230.576 449.545c0 5.132-.308 10.547-.77 16.141l-12.497 2.387s-2.207-8.084-4.8-19.683c-.949-4.26-1.95-8.982-2.9-13.96-.256-1.411-.538-2.874-.795-4.311a240.53 240.53 0 0 1-4.157-36.184s-5.491-19.066-10.11-39.647c-2.002-8.828-3.85-17.964-5.133-25.945-.693-4.542-1.13-8.725-1.309-12.266a39.237 39.237 0 0 1 1.309-12.83c4.055-13.679 16.141-14.936 24.225 3.617 0 0 5.697 15.398 8.905 44.858a374.898 374.898 0 0 1 2.13 38.03c0 2.849 3.695 16.886 5.132 38.186 0 1.796.23 3.618.334 5.491.41 5.107.513 10.445.436 16.116Z" fill="#ffede5" fill-rule="evenodd" data-name="Vector"/><path d="M229.986 428.04a202.734 202.734 0 0 1-21.197 2.079 240.53 240.53 0 0 1-4.132-36.184s-5.491-19.066-10.11-39.647c-2.002-8.828-3.85-17.964-5.133-25.945-1.206 8.058-3.054 17.245-5.132 26.176-4.465 20.53-9.906 39.416-9.906 39.416a238.4 238.4 0 0 1-4.131 35.927 596.234 596.234 0 0 1-21.223-1.36c1.463-21.607 5.133-35.927 5.133-38.775 0-14.448.95-27.048 2.104-37.8 3.233-29.64 8.956-45.088 8.956-45.088 8.084-18.58 20.196-17.296 24.2-3.619 3.079-10.444 10.854-13.652 17.963-6.312a33.643 33.643 0 0 1 6.261 9.93 128.002 128.002 0 0 1 3.952 14.397 273.172 273.172 0 0 1 5.055 30.59 374.898 374.898 0 0 1 2.13 38.03c.026 2.849 3.696 16.911 5.21 38.185Z" fill="#ab8da8" fill-rule="evenodd" data-name="Vector"/><path d="M217.694 321.363c-7.032-7.673-37.852-9.546-37.852-9.546l27.638-14.653a33.643 33.643 0 0 1 6.262 9.931 128.002 128.002 0 0 1 3.952 14.268Z" fill="#826b80" fill-rule="evenodd" data-name="Vector"/><path d="M163.367 480.673c.014.128.014.257 0 .385-.41 5.774-5.132 4.901-12.112 5.132-5.569 0-8.546-3.105-8.212-6.467.11-1.018.48-1.99 1.078-2.823a26.432 26.432 0 0 0 3.438-8.083 5.902 5.902 0 0 1 2.08-3.285c4.387-3.541 8.596-.821 10.7 1.13a6.056 6.056 0 0 1 1.873 3.181 48.424 48.424 0 0 1 1.155 10.83ZM227.856 486.062c-7.16 0-12.036.821-12.164-5.39v-.538a44.241 44.241 0 0 1 1.129-10.11 6.75 6.75 0 0 1 2.104-3.645 7.699 7.699 0 0 1 9.906-1.463 6.877 6.877 0 0 1 2.771 4.03 25.457 25.457 0 0 0 3.388 7.698 6.44 6.44 0 0 1 .795 1.565c1.232 3.9-1.668 7.955-7.93 7.853ZM202.399 216.868a3.387 3.387 0 0 1-2.31.718c-1.385.231-2.771.514-4.157.719-3.464.488-6.929.898-10.419 1.283l-7.698.796s-.744 2.848-3.31-7.417a26.148 26.148 0 0 1-.411-3.746 10.265 10.265 0 0 1 0-3.85 3.875 3.875 0 0 1 2.36-2.745 4.542 4.542 0 0 0 1.335-.437c.333-.277.597-.629.77-1.026a5.133 5.133 0 0 1 3.182-2.926c.95-.18 1.95 0 2.9 0a6.698 6.698 0 0 0 1.822-.641 22.403 22.403 0 0 1 4.953-1.463 4.183 4.183 0 0 1 2.694.205c.448.287.869.613 1.258.976a7.262 7.262 0 0 0 3.156 1.18c1.149.187 2.264.541 3.31 1.052a3.336 3.336 0 0 1 1.925 2.566 4.106 4.106 0 0 0 0 1.13c.205.59.821.898 1.257 1.334a2.566 2.566 0 0 1 .668 2.36 10.727 10.727 0 0 1-1.13 2.233 17.963 17.963 0 0 0-.898 4.876 5.415 5.415 0 0 1-1.257 2.823Z" fill="#3b2645" fill-rule="evenodd" data-name="Vector"/><path d="M177.097 215.918c.243 2.61.329 5.233.256 7.853-2.9-.154-6.826-5.107-4.696-7.853a2.746 2.746 0 0 1 4.44 0Z" fill="#e0855c" fill-rule="evenodd" data-name="Vector"/><path d="M219.413 245.558a156.538 156.538 0 0 0-6.749 22.274c-.205.976-.36 1.925-.539 2.849-.18.924-.257 1.617-.36 2.36-.102.745 0 1.053-.205 1.772-.795 7.698-2.283 29.075-2.566 32.719v.538c-19.939 6.134-41.059 1.258-41.059 1.258l-.154-1.13c-.462-3.54-4.773-41.418-4.927-42.932-.898-9.007-1.54-17.296-1.591-22.454 0-.77.667-1.206 1.668-1.488 1.617-.462 3.9-.54 5.697-.847 3.345-.56 6.722-.91 10.11-1.052h.822c.171-.01.342-.01.513 0h.616l.642-10.265h1c.654.101 1.315.153 1.976.154.79.011 1.578-.032 2.361-.128l1.104-.129c.539 0 1.026-.18 1.514-.308a16.14 16.14 0 0 0 2.31-.718c.23-.05.454-.127.667-.231h.205l.513-.231a20.17 20.17 0 0 0 2.72-1.437l1.206-.821.206-.18c.163-.107.318-.227.462-.36l.282-.23v.693a57.715 57.715 0 0 0-.36 6.005v7.98h1.438a.154.154 0 0 1 .18 0c2.08.029 4.155.209 6.21.54a55.148 55.148 0 0 1 11.445 2.77c.564.232.975.437 1.334.617.36.18 1.489 1.95 1.309 2.412Z" fill="#ffede5" fill-rule="evenodd" data-name="Vector"/><path d="M197.96 224.566a12.651 12.651 0 0 1-16.86 9.906l.334-5.312a20.71 20.71 0 0 0 16.526-4.594Z" fill="#e0855c" fill-rule="evenodd" data-name="Vector"/><path d="M197.19 207.04c2.001 2.309 1.488 7.21 1 12.574-.82 10.83-6.928 13.216-12.83 12.83-5.903-.384-9.444-3.874-9.444-15.396 0-3.721.025-7.263 1.463-8.854 4.362-4.85 16.91-4.311 19.81-1.155Z" fill="#ffede5" fill-rule="evenodd" data-name="Vector"/><path d="M197.446 218.28s1.642-4.825 4.568-2.387c2.925 2.438-.796 9.777-5.133 9.366-.025 0-.77-5.312.565-6.98Z" fill="#ffede5" fill-rule="evenodd" data-name="Vector"/><path d="M200.757 218.1a.205.205 0 0 1 .205.333c-.416.393-.862.754-1.334 1.078.277.158.514.377.693.642a.282.282 0 0 1-.334.436 2.181 2.181 0 0 1-.847-.616c-.333.36-.847 1.052-.975 1.155-.128.102-.334 0-.334-.18a4.953 4.953 0 0 1 1.232-1.668 3.9 3.9 0 0 1 1.694-1.18Z" fill="#e0855c" fill-rule="evenodd" data-name="Vector"/><path d="M180.972 216.611s-.975.385-.898-1.36c.077-1.745.82-1.411.82-1.411s.694 0 .617 1.36c-.077 1.36-.54 1.411-.54 1.411ZM191.057 216.303s-.975.385-.873-1.385c.103-1.771.796-1.386.796-1.386s.693 0 .641 1.36c-.05 1.36-.564 1.411-.564 1.411Z" fill="#3b2645" fill-rule="evenodd" data-name="Vector"/><path d="M185.564 221.538h-2.206a.23.23 0 0 1-.231-.308 55.892 55.892 0 0 1 2.104-8.75h.18a47.452 47.452 0 0 1-1.001 4.798 15.397 15.397 0 0 0-.642 3.619c.257.539 1.412.282 1.925.282.205.026.154.436-.129.36Z" fill="#e0855c" fill-rule="evenodd" data-name="Vector"/><path d="M182.948 211.3a.488.488 0 0 1 .102.949 4.542 4.542 0 0 1-4.157-.565.385.385 0 0 1 .282-.641 9.906 9.906 0 0 1 1.925.256 11.035 11.035 0 0 1 1.848 0ZM194.187 210.221c-.847 1.027-4.131 2.746-5.132 1.284a.308.308 0 0 1 0-.334c.513-.436 1.283-.308 1.924-.308a7.699 7.699 0 0 0 2.798-.924c.18-.077.436.103.41.282Z" fill="#3b2645" fill-rule="evenodd" data-name="Vector"/><path d="M189.465 224.182a.385.385 0 1 1 0 .77 17.246 17.246 0 0 1-3.26 0c-.743.025-1.744.256-2.334-.283.539-.616 1.59-.487 2.335-.487a11.548 11.548 0 0 1 3.259 0Z" fill="#e0855c" fill-rule="evenodd" data-name="Vector"/><path d="M277.332 357.803H97.313a1.668 1.668 0 1 1 0-3.336h180.019a1.668 1.668 0 1 1 0 3.336Z" fill="#3b2645" fill-rule="evenodd" data-name="Vector"/><path d="M103.01 364.732a2.848 2.848 0 0 1-2.848-2.848V350.31a2.848 2.848 0 0 1 5.697 0v11.522a2.823 2.823 0 0 1-2.849 2.9Z" fill="#3b2645" fill-rule="evenodd" data-name="Vector"/><path d="M108.707 374.817a2.848 2.848 0 0 1-2.848-2.848v-31.667a2.874 2.874 0 0 1 5.722 0v31.667a2.874 2.874 0 0 1-2.874 2.848Z" fill="#291b30" fill-rule="evenodd" data-name="Vector"/><path d="M114.43 379.59a2.823 2.823 0 0 1-2.849-2.848v-40.264a2.848 2.848 0 0 1 5.697 0v40.264a2.848 2.848 0 0 1-2.848 2.848ZM269.145 364.732a2.848 2.848 0 0 1-2.848-2.9V350.31a2.848 2.848 0 0 1 5.697 0v11.574a2.848 2.848 0 0 1-2.849 2.848Z" fill="#3b2645" fill-rule="evenodd" data-name="Vector"/><path d="M263.45 374.817a2.874 2.874 0 0 1-2.875-2.848v-31.667a2.874 2.874 0 0 1 5.723 0v31.667a2.848 2.848 0 0 1-2.849 2.848Z" fill="#291b30" fill-rule="evenodd" data-name="Vector"/><path d="M257.726 379.59a2.848 2.848 0 0 1-2.848-2.848v-40.264a2.848 2.848 0 0 1 5.697 0v40.264a2.823 2.823 0 0 1-2.849 2.848Z" fill="#3b2645" fill-rule="evenodd" data-name="Vector"/><path d="M172.4 262.187a51.58 51.58 0 0 1-4.337 10.547c-.744 1.54-3.746 8.058-3.875 8.314-4.67 10.24-11.265 25.354-11.856 27.15-1.462 5.8-4.593 39.546-4.619 39.546-3.207 4.824-9.315 2.566-9.315 2.566s0-1.026-.282-2.771c-.693-7.468-2.336-28.46-.437-40.88.54-3.439 2.567-11.779 5.133-21.197 2.053-7.698 2.951-15.012 5.389-22.505a62.025 62.025 0 0 1 9.161-17.964 11.727 11.727 0 0 1 5.671-3.567c.95 0 1.36 1.232 2.156 1.591a10.624 10.624 0 0 1 5.132 5.133 21.838 21.838 0 0 1 2.08 14.037Z" fill="#ffede5" fill-rule="evenodd" data-name="Vector"/><path d="M137.782 353.774c0-1.129.231-2.283.257-3.413v-2.925a7.416 7.416 0 0 1 8.443-1.334c.618.45 1.186.967 1.693 1.54 1.027.974 2.207 1.744 3.182 2.77a4.62 4.62 0 0 1 1.386 3.824 5.132 5.132 0 0 0-3.182 1.591c-.95 1.18-.539 2.259-1 3.567-.463 1.31-1.592 1.438-2.567 1.591-3.285.488-7.98.642-8.263-3.592a24.61 24.61 0 0 1 .051-3.619ZM240.507 347.359c-.154 1.745-.283 2.771-.283 2.771s-6.107 2.336-9.34-2.566c0 0-3.131-33.643-4.697-39.442-.256-.975-2.258-5.723-4.773-11.471-2.515-5.748-10.598-23.327-10.855-23.917a50.169 50.169 0 0 1-4.337-10.547 21.838 21.838 0 0 1 1.976-14.268 10.83 10.83 0 0 1 5.133-5.133 5.132 5.132 0 0 1 2.566-.538c.28-.001.56.051.821.154.475.131.926.339 1.334.615.629.44 1.213.938 1.745 1.489a43.42 43.42 0 0 1 9.932 17.245c2.566 7.698 4.08 15.987 6.03 23.403 2.566 9.418 4.568 17.758 5.133 21.197 1.95 12.549.282 33.54-.385 41.008Z" fill="#ffede5" fill-rule="evenodd" data-name="Vector"/><path d="M240.353 359.83c-.047.22-.134.429-.256.617a1.9 1.9 0 0 1-.54.461 7.288 7.288 0 0 1-4.567.385l-2.874-.513c-1.489-.256-2.566-.795-2.566-2.36 0-1.13.718-2.002-.231-2.978a22.916 22.916 0 0 0-3.44-1.206 4.542 4.542 0 0 1 1.387-3.823c.95-1.027 2.155-1.797 3.156-2.772a12.112 12.112 0 0 1 1.72-1.54 7.365 7.365 0 0 1 8.417 1.335v2.925c.025.873.18 2.156.18 3.44.236 2.016.105 4.06-.386 6.03Z" fill="#ffede5" fill-rule="evenodd" data-name="Vector"/><path d="m212.664 267.833 1.437 40.16c-23.712 9.265-49.348.616-49.348.616l-.565-38.493-.77-.23c-1.155-.36-2.386-.745-3.644-1.258-.718-.282-1.462-.564-2.207-.924a94.951 94.951 0 0 1-9.366-4.927 62.025 62.025 0 0 1 9.161-17.963 11.907 11.907 0 0 1 5.671-3.567c1.617-.436 3.901-.54 5.697-.847 3.346-.56 6.722-.91 10.111-1.052l9.315 23.096a200.83 200.83 0 0 0 10.496-23.276h.257a.154.154 0 0 1 .18 0c2.08.028 4.155.208 6.21.54a55.61 55.61 0 0 1 11.47 2.822c.476.131.926.34 1.335.616.628.439 1.213.937 1.745 1.488a43.42 43.42 0 0 1 9.931 17.245 95.846 95.846 0 0 1-9.47 3.747c-4.259 1.334-7.646 2.207-7.646 2.207Z" fill="#3b2645" fill-rule="evenodd" data-name="Vector"/><path d="M164.188 256.85v13.267l-.77-.231c-1.154-.36-2.386-.745-3.643-1.258a122.074 122.074 0 0 0 4.413-11.779ZM157.888 471.899a.335.335 0 0 1-.192.588 16.398 16.398 0 0 1-3.695-.642 7.262 7.262 0 0 0-1.976-.18 2.977 2.977 0 0 0-1.463.462c-.18 0-.025-.077-.18 0-.153.077-.436.026-.436-.18v-.153a.41.41 0 0 1 0-.41c1.874-1.566 5.672-.694 7.699.435a.335.335 0 0 1 .243.08ZM158.953 475.438a.462.462 0 0 1-.23.795 21.556 21.556 0 0 1-4.517-.744 12.575 12.575 0 0 1-3.67-.385c-.282-.128-.18-.513 0-.667a6.672 6.672 0 0 1 4.363-.436c1.476 0 2.908.507 4.054 1.437ZM227.547 471.588c-1.334.154-2.745-.333-4.029-.205-1.283.128-2.54.898-3.849.898-.385.052-.641-.59-.385-.923a7.699 7.699 0 0 1 8.751-.924c.488.487.026 1.103-.488 1.154ZM229.113 473.795a.719.719 0 0 1 .129 1.36c-2.54.924-5.44-.41-8.007.488-.641.231-1-.641-.641-1.103a4.311 4.311 0 0 1 3.387-1.027 14.448 14.448 0 0 1 5.132.282Z" fill="#27192e" fill-rule="evenodd" data-name="Vector"/><path d="M141.298 224.413c-3.362 1.822-7.699 1.026-11.394 1.257-5.107.308-10.11 1.334-15.243 1.617-.693.051-.719-.898-.154-1.13 8.417-3.233 17.399-1.898 26.047-3.49 1-.18 1.719 1.181.744 1.746ZM142.58 212.505a117.763 117.763 0 0 1-12.471-6.235c-.667-.411-.23-1.566.539-1.31a108.756 108.756 0 0 1 13.036 5.672c1.283.616.154 2.412-1.103 1.873Z" fill="#f7f8f8" fill-rule="evenodd" data-name="Vector"/></g></svg>