<svg xmlns="http://www.w3.org/2000/svg" xmlns:xlink="http://www.w3.org/1999/xlink" width="39.264" height="39.268" viewBox="0 0 39.264 39.268">
  <defs>
    <linearGradient id="linear-gradient" x1="0.5" x2="0.5" y2="1" gradientUnits="objectBoundingBox">
      <stop offset="0" stop-color="#fe9861"/>
      <stop offset="1" stop-color="#ff5a00"/>
    </linearGradient>
  </defs>
  <g id="Group_29" transform="translate(0 0)">
    <circle id="Ellipse_18" cx="19.052" cy="19.052" r="19.052" transform="translate(0.618 0.618)" fill="url(#linear-gradient)"/>
    <g id="share" transform="translate(7.411 8.646)">
      <g id="Group_21" transform="translate(0.39 0.39)">
        <circle id="Ellipse_10" cx="3.509" cy="3.509" r="3.509" transform="translate(0 7.585)" fill="#e58e13"/>
        <circle id="Ellipse_11" cx="3.509" cy="3.509" r="3.509" transform="translate(13.645 15.205)" fill="#e58e13"/>
        <circle id="Ellipse_12" cx="3.509" cy="3.509" r="3.509" transform="translate(13.645)" fill="#e58e13"/>
      </g>
      <g id="Group_23" transform="translate(0.39 0.39)">
        <path id="Path_75" d="M333.25,15.695c.108,0,.214-.007.319-.016a3.324,3.324,0,0,1-2.658-3.493,3.324,3.324,0,0,1,2.658-3.493c-.105-.01-.211-.016-.319-.016a3.509,3.509,0,0,0,0,7.018Z" transform="translate(-316.095 -8.677)" fill="#ffedb2"/>
        <path id="Path_76" d="M333.25,354.136c.108,0,.214-.007.319-.016a3.624,3.624,0,0,1,0-6.986c-.105-.009-.211-.016-.319-.016a3.509,3.509,0,0,0,0,7.018Z" transform="translate(-316.095 -331.913)" fill="#ffedb2"/>
        <path id="Path_77" d="M29.521,189.255c.108,0,.214-.007.319-.016a3.624,3.624,0,0,1,0-6.986c-.105-.01-.211-.016-.319-.016a3.509,3.509,0,0,0,0,7.018Z" transform="translate(-26.012 -174.44)" fill="#ffedb2"/>
      </g>
      <g id="Group_24">
        <path id="Path_78" d="M21.233,176.635a3.9,3.9,0,1,1,3.9-3.9A3.9,3.9,0,0,1,21.233,176.635Zm0-7.018a3.119,3.119,0,1,0,3.119,3.119,3.119,3.119,0,0,0-3.119-3.119Z" transform="translate(-17.334 -161.253)" stroke="#000" stroke-width="0.2"/>
        <path id="Path_79" d="M325.091,346.324a3.9,3.9,0,1,1,2.757-1.14h0a3.887,3.887,0,0,1-2.757,1.14Zm0-7.014a3.118,3.118,0,1,0,2.205,5.323h0a3.117,3.117,0,0,0-2.205-5.323Z" transform="translate(-307.547 -323.324)" stroke="#000" stroke-width="0.2"/>
        <path id="Path_80" d="M324.962,7.8a3.9,3.9,0,1,1,3.9-3.9A3.9,3.9,0,0,1,324.962,7.8Zm0-7.018A3.119,3.119,0,1,0,328.081,3.9,3.119,3.119,0,0,0,324.962.78Z" transform="translate(-307.417)" stroke="#000" stroke-width="0.2"/>
        <path id="Path_81" d="M165.388,117.8a.39.39,0,0,1-.2-.724l7.372-4.44a.39.39,0,1,1,.4.668l-7.372,4.44a.387.387,0,0,1-.2.056Z" transform="translate(-158.364 -107.519)" stroke="#000" stroke-width="0.2"/>
        <path id="Path_82" d="M172.757,287.714a.387.387,0,0,1-.2-.057l-7.372-4.474a.39.39,0,1,1,.4-.666l7.372,4.474a.39.39,0,0,1-.2.723Z" transform="translate(-158.362 -269.77)" stroke="#000" stroke-width="0.2"/>
      </g>
    </g>
    <path id="Path_97" d="M83.484,56.82A19.054,19.054,0,0,1,56.82,83.484,19.053,19.053,0,1,0,83.484,56.82Z" transform="translate(-52.463 -51.879)" fill="rgba(248,96,13,0.46)"/>
    <path id="Path_103" d="M37.626,11.77a19.564,19.564,0,0,0-4.45-6.35.58.58,0,0,0-.8.839,18.455,18.455,0,0,1,1.9,24.617,6.473,6.473,0,0,1-.8.974,18.444,18.444,0,0,1-27.683,0c-.4-.454-.53-.618-.8-.975A18.469,18.469,0,0,1,30.5,4.694a.58.58,0,1,0,.683-.937A19.485,19.485,0,0,0,19.632,0a20.136,20.136,0,0,0-7.146,1.335A19.142,19.142,0,0,0,5.75,5.75,19.632,19.632,0,0,0,33.514,33.514,19.652,19.652,0,0,0,37.626,11.77Z" transform="translate(0 0)"/>
  </g>
</svg>
