<svg xmlns="http://www.w3.org/2000/svg" width="14.762" height="22.143" viewBox="0 0 14.762 22.143">
  <g id="smartwatch" transform="translate(0)">
    <path id="Path_357" data-name="Path 357" d="M1.845,18.453h.2L2.8,21.444a.923.923,0,0,0,.9.7h7.381a.922.922,0,0,0,.895-.7l.748-2.992h.2a1.847,1.847,0,0,0,1.845-1.845V5.536a1.847,1.847,0,0,0-1.845-1.845h-.2L11.966.7a.922.922,0,0,0-.895-.7H3.691A.922.922,0,0,0,2.8.7L2.047,3.691h-.2A1.847,1.847,0,0,0,0,5.536V16.607a1.847,1.847,0,0,0,1.845,1.845ZM10.351,20.3H4.411L3.95,18.453h6.863ZM4.411,1.845h5.94l.461,1.845H3.95ZM1.845,5.536H12.917V16.607H1.845V5.536Zm0,0" transform="translate(0)" fill="#f8600d"/>
    <path id="Path_358" data-name="Path 358" d="M56.356,125.568a.922.922,0,1,0,1.3,1.3l.652.652a.923.923,0,1,0,1.305-1.3l-.652-.652,2.61-2.61.652.652a.922.922,0,0,0,1.3-1.3l-.653-.653a.922.922,0,1,0-1.3-1.3l-.653-.653a.922.922,0,1,0-1.3,1.3l.653.653-2.61,2.61-.652-.652a.922.922,0,1,0-1.3,1.3Zm0,0" transform="translate(-52.237 -112.539)" fill="#f8600d"/>
  </g>
</svg>
