<svg xmlns="http://www.w3.org/2000/svg" width="51" height="51" viewBox="0.261 0.33 51 51"><g data-name="Bg"><path d="M12 0h27a12 12 0 0 1 12 12v27a12 12 0 0 1-12 12H12A12 12 0 0 1 0 39V12A12 12 0 0 1 12 0z" fill-rule="evenodd" fill="url(&quot;#a&quot;)" transform="translate(.26 .33)" data-name="Rectangle 5896"/><g data-name="apple pie"><g data-name="Group"><path d="M24.48 27.538c-.092-.046-.424-4.016-.56-4.155-.136-.139.393-2.27.393-2.27h2.645l16.431 1.668s.484.494.53.988c.045.495-1.286 2.317-1.92 2.78-.635.464-.741 1.082-1.452 1.807-.71.726-.574 1.035-1.043 1.282-.468.248-8.858-1.343-9.25-1.482-.394-.124-2.495-.278-2.585-.37" fill="#c9653a" fill-rule="evenodd" data-name="Vector"/><g data-name="Group"><path d="M23.98 23.615a.631.631 0 0 0-.06-.232c-.136-.139.393-2.27.393-2.27h2.645l16.446 1.714s.484.495.53.989c.03.34-.56 1.282-1.15 1.992-1.254.016-2.78-.448-4.171-.803-1.739-.448-4.036-.355-5.321-.649-1.285-.293-3.054.155-4.49-.556-.907-.463-3.25-.34-4.822-.185Z" fill="#c9653a" fill-rule="evenodd" data-name="Vector"/><path d="M40.623 28.28a.27.27 0 0 1-.06.076c-.711.726-.575 1.035-1.044 1.282-.468.248-8.857-1.343-9.25-1.482-.393-.124-2.495-.278-2.585-.371l-3.205-.726c-.03-.015-.09-.417-.151-.927 2.66.278 11.2 1.159 12.773 1.7 1.3.447 2.479.51 3.522.447Z" fill="#ba5e36" fill-rule="evenodd" data-name="Vector"/><path d="M31.417 25.468c1.663.48 7.226 1.267 10.34 1.313-.408.417-.59.942-1.134 1.53-1.043.03-2.207-.032-3.522-.48-1.572-.556-10.113-1.436-12.773-1.698-.045-.34-.106-.757-.151-1.143 1.995-.016 5.714.015 7.24.478Z" fill="#c9653a" fill-rule="evenodd" data-name="Vector"/><path d="M41.741 26.735c-3.113-.046-8.676-.819-10.339-1.313-1.526-.448-5.26-.479-7.24-.463-.076-.556-.136-1.081-.197-1.375 1.572-.139 3.915-.262 4.822.186 1.436.71 3.22.262 4.49.556 1.27.293 3.582.2 5.32.648 1.391.355 2.918.834 4.172.803-.287.34-.559.634-.77.788a.823.823 0 0 1-.258.17Z" fill="#b35a34" fill-rule="evenodd" data-name="Vector"/></g><path d="M41.998 26.58c-.635.464-.74 1.081-1.45 1.807-.711.726-.575 1.035-1.044 1.282-.468.247-8.858-1.344-9.25-1.483-.394-.123-2.495-.278-2.586-.37l-.62-.047v-.787c.091.092 2.193.231 2.586.37.393.14 8.782 1.73 9.25 1.483.484-.247.333-.556 1.043-1.282s.817-1.343 1.452-1.807c.634-.463 1.965-2.286 1.92-2.78 0-.062-.016-.108-.03-.17l.12.016s.544.988.59 1.482c.045.495-1.346 1.823-1.98 2.286ZM29.845 31.121c.06.247.363 2.965.348 3.336-.03.37 0 1.483-.242 1.622-.952.463-8.677-.37-10.34-.68-1.662-.293-5.955-1.668-6.847-2.564-.892-.91-4.096-5.02-4.278-6.78" fill="#e39652" fill-rule="evenodd" data-name="Vector"/><g data-name="Group"><path d="M15.848 34.056c.166.17.453.355.831.556-1.662-.541-3.386-1.236-3.915-1.777-.892-.91-4.111-5.02-4.278-6.78l3.507.834c.605 3.599 3.054 6.363 3.855 7.167Z" fill="#d18743" fill-rule="evenodd" data-name="Vector"/></g><path d="M43.903 24.51c-.106.109-.846 0-1.27 0-.423 0-.62.263-1.194.263-.59 0-1.436-1.065-2.192-1.065-.755 0-2.479.664-3.4.664-.908 0-1.422-1.05-2.056-1.159-.65-.123-2.01.464-2.842.325-.832-.124-1.346-.695-2.237-.695-.892 0-1.24.216-1.92.216-.544 0-1.36-.247-1.754-.263-.166-.37-.332-.648-.211-.772.166-.17 1.285.216 1.965.216.68 0 1.028-.216 1.92-.216.891 0 1.405.556 2.237.695.831.14 2.207-.432 2.842-.324.634.123 1.133 1.158 2.055 1.158.922 0 2.646-.664 3.401-.664.771 0 1.618 1.066 2.192 1.066.575 0 .771-.263 1.194-.263.424 0 1.164.108 1.27 0 .045-.046.015-.278-.06-.525 0-.015 0 0 0 0 .166.417.136 1.251.06 1.344Z" fill="#e39652" fill-rule="evenodd" data-name="Vector"/><path d="M25.235 23.198c.212.571.544 1.544.877 2.116.332.571.665.88 1.012 1.235.348.356.62.865.832 1.53.211.664 1.043.972 1.3 1.513.257.54.892 2.023.574 2.348-.302.324-4.52-.124-5.245 0-.74.123-2.963-.109-3.537-.263-.575-.17-2.404-.896-3.628-.896-1.224 0-3.37-.664-3.885-.942-.514-.278-.907-.664-1.466-.927-.544-.262-1.572-.262-2.07-.633-.5-.37-.847-1.39-1.21-1.513-.363-.124-1.18-1.885-.998-2.842.182-.927.726-.85.847-1.344.12-.494-.076-1.19.181-1.668.257-.479 1.512-.649 1.663-1.02.15-.354-.015-.57.378-.972.378-.386 1.587-.155 1.859-.448.257-.278.076-.572.892-.788.816-.216.892.062 1.224 0 .318-.062.272-.417.786-.618.514-.2.907.108 1.376-.046.468-.139.408-.494.997-.587.59-.108.938.077 1.346.077.408 0 .529-.617 1.194-.68.665-.076.77.217 1.27.155.498-.062.725-.479 1.42-.479.696 0 .545.433.998.433.454 0 .847-.433 1.587-.433.741 0 .756.541 1.27.541s.877-.448 1.481-.37c.605.077.877.54 1.27.54.408 0 1.21-.216 1.693-.216.484 0 .983.478 1.527.68.544.2 1.028-.232 1.708-.093.665.123.725.51 1.103.586.378.093.847-.061 1.27.047.423.108.484.664.892.772.408.108.725-.185 1.42.093.862.34.847.942 1.27 1.204.424.263 1.754.71 2.011 1.406.272.695.56 1.328.71 1.498.152.17.56 1.375.454 1.483-.106.108-.847 0-1.27 0-.423 0-.62.262-1.194.262-.59 0-1.436-1.065-2.192-1.065-.756 0-2.479.664-3.4.664-.908 0-1.422-1.05-2.057-1.159-.65-.123-2.01.464-2.841.325-.832-.124-1.346-.695-2.238-.695-.891 0-1.24.216-1.92.216-.68 0-1.798-.386-1.964-.216-.167.17.211.633.423 1.189Z" fill="#ffb573" fill-rule="evenodd" data-name="Vector"/><path d="M42.316 23.646c-.227-.093-.333-1.174-.469-1.313-.15-.139-.393-.71-.635-1.328-.226-.618-1.405-1.02-1.783-1.251-.378-.232-.363-.757-1.134-1.066-.62-.247-.907.016-1.27-.077s-.423-.587-.8-.68c-.379-.092-.787.047-1.135-.03-.332-.062-.377-.402-.982-.526-.59-.123-1.028.263-1.512.078-.483-.17-.922-.603-1.36-.603-.438 0-1.149.185-1.497.185-.362 0-.59-.401-1.133-.478-.544-.062-.862.34-1.315.34-.469 0-.469-.48-1.134-.48-.65 0-1.013.387-1.406.387s-.272-.386-.892-.386-.816.37-1.27.432c-.453.062-.544-.2-1.133-.139-.59.062-.695.603-1.058.603-.363 0-.665-.155-1.194-.078-.53.078-.469.386-.892.525-.423.124-.771-.139-1.225.047-.468.185-.423.494-.71.556-.302.062-.363-.186-1.088 0-.726.185-.56.448-.802.695-.241.247-1.3.03-1.647.386-.348.355-.197.54-.333.865-.136.324-1.24.479-1.481.911-.242.432-.06 1.035-.166 1.483-.106.448-.59.37-.756 1.204-.166.834.574 2.394.892 2.502.332.109.635 1.02 1.088 1.344.438.324 1.345.324 1.844.572.484.247.847.586 1.3.834.469.247 2.373.834 3.462.834 1.088 0 2.72.648 3.22.787.513.155 2.494.355 3.143.247.65-.108 4.4.278 4.671 0a.25.25 0 0 0 .06-.108c.137.448.197.865.046 1.02-.302.324-4.504-.124-5.245 0-.74.123-2.963-.109-3.537-.263-.575-.17-2.404-.896-3.628-.896-1.224 0-3.37-.664-3.885-.942-.514-.278-.907-.664-1.466-.927-.544-.262-1.572-.262-2.07-.633-.5-.37-.847-1.39-1.21-1.513-.363-.124-1.18-1.885-.998-2.842.182-.927.726-.85.847-1.344.12-.494-.076-1.19.181-1.668.257-.479 1.512-.649 1.663-1.02.151-.354-.015-.57.378-.972.378-.386 1.587-.155 1.874-.448.257-.278.076-.572.892-.788.816-.216.892.062 1.224 0 .318-.062.272-.417.786-.618.514-.2.907.093 1.376-.046.468-.139.408-.494.998-.587.589-.108.937.077 1.345.077.408 0 .529-.617 1.194-.68.665-.076.77.217 1.27.155.499-.062.725-.479 1.42-.479.696 0 .545.433.998.433.454 0 .847-.433 1.587-.433.741 0 .756.541 1.27.541s.877-.448 1.482-.37c.604.077.876.54 1.27.54.407 0 1.209-.216 1.692-.216.484 0 .983.478 1.527.68.544.2 1.028-.232 1.708-.093.665.123.726.51 1.103.587.378.092.847-.062 1.27.046.423.108.484.664.892.772.408.108.726-.185 1.42.093.863.34.847.942 1.27 1.204.424.263 1.739.71 2.011 1.406.272.695.56 1.344.71 1.498.152.17.56 1.375.454 1.483-.106.108-.846 0-1.27 0l-.317-.031Z" fill="#cf6446" fill-rule="evenodd" data-name="Vector"/><path d="M9 27.507a5.968 5.968 0 0 1-.377-.88.551.551 0 0 0 .181.139c.363.123.71 1.142 1.21 1.513.498.37 1.51.37 2.07.633.56.263.952.65 1.466.927.514.278 2.66.942 3.885.942 1.24 0 3.054.742 3.628.896.574.154 2.811.386 3.537.263.726-.124 4.928.324 5.245 0 .03-.031.046-.078.06-.124.091.355.107.649-.014.772-.303.325-4.52-.123-5.246 0-.74.124-2.962-.108-3.537-.262-.574-.17-2.403-.896-3.628-.896-1.224 0-3.37-.664-3.884-.942-.514-.278-.907-.664-1.467-.927-.544-.262-1.572-.262-2.07-.633-.439-.325-.756-1.143-1.059-1.421Z" fill="#d18a4c" fill-rule="evenodd" data-name="Vector"/><g data-name="Group"><path d="M12.825 25.067s.15-.772 2.055-.324c1.905.447 2.736.2 2.736.648s-2.69 1.143-3.627.834c-.907-.309-1.164-.834-1.164-1.158ZM18.04 28.248s1.24-.942 2.479-.432c1.24.51 1.632.185 2.267.587.635.401.665 1.19-.363.911-1.028-.262-2.191-.293-3.25-.247-1.043.077-1.526-.417-1.133-.819ZM34.365 19.862c.756 0 2.857.85 3.643 1.112.801.278 1.829.433 1.27.865-.545.432-1.98-.077-2.691-.293-.71-.217-1.194-.433-2.328-.433s-.967-.386-.952-.649c.015-.262.317-.586 1.058-.602ZM15.228 22.395c-.211-.201.076-.37.333-.417.272-.047 1.179.154 1.798.046.62-.123 1.074-.185 2.102-.185 1.012 0 3.416.726 3.416.957 0 .217-2.736.371-3.749.371s-1.512-.386-2.116-.51c-.605-.123-1.572-.061-1.784-.262ZM18.886 18.935c.302-.123.74-.664 1.315-.525.575.14.998-.108 1.557-.015.56.092 1.073.741.182.772-.892.046-1.134.077-1.739.463-.59.37-2.116-.092-2.116-.262.015-.186.484-.31.801-.433ZM26.52 18.38s.982-.371 1.693 0c.71.37 1.36-.078 1.617.231.257.309.242.556-.408.556-.65 0-1.542-.263-1.738 0-.182.263-2.117.247-2.358 0-.242-.247-.227-.494 0-.633.226-.155 1.194-.155 1.194-.155ZM21.078 25.453s.726-.664 1.814-.448c1.088.216 1.784.2 1.784.2s.907-.2.498.248c-.408.448-.952.896-1.829.602-.876-.293-2.237.417-2.494.247-.272-.154.227-.85.227-.85ZM28.122 20.742s.453-.34 1.33-.2c.877.138 1.527-.248 1.663.2.136.448-.136.726-.816.54-.68-.185-1.693.433-2.494.279-.817-.14-1.739-.71-1.15-.772.59-.047 1.013.139 1.467-.047Z" fill="#fff" fill-rule="evenodd" data-name="Vector"/></g><g data-name="Group"><path d="M28.349 24.449c0 .247-.771.958-.771.958s-.454-.232-.801-.65c-.348-.432.15-.957.15-.957.348-.355 1.407.402 1.422.649ZM30.495 25.731c-.015.139-.499.85-.77.958-.273.108-.454-.232-.802-.65-.348-.432.151-.957.151-.957.348-.355 1.421.402 1.421.649ZM36.89 27.136c-.077.108-.863.448-1.15.386-.272-.061-.257-.448-.332-.988-.076-.54.846-.494.846-.494.469-.108.756.895.635 1.096ZM39.504 26.148c-.075.108-.861.448-1.149.386-.272-.062-.257-.448-.332-.988-.076-.541.846-.495.846-.495.469-.108.771.88.635 1.097ZM35.105 25.175c-.075.108-.861.448-1.148.386-.272-.062-.257-.448-.333-.988-.075-.541.847-.495.847-.495.468-.108.755.896.634 1.097ZM32.173 24.233c.106.092.09 1.035-.03 1.158-.121.14-.862.016-1.24-.062-.378-.077-.15-1.112-.15-1.112s1.314-.077 1.42.016ZM33.685 25.932c.12.046.529.88.468 1.05-.06.17-.77.417-1.149.51-.378.108-.695-.773-.62-.927.076-.155 1.18-.68 1.3-.633ZM38.22 27.183c.105.03.408.664.362.803-.045.123-.59.309-.877.386-.287.077-.513-.603-.468-.71.06-.124.892-.526.982-.48ZM37.403 24.665c.06.077.046.788-.06.88-.106.093-.665 0-.953-.077-.272-.062-.181-.772-.075-.85.106-.076 1.028-.03 1.088.047ZM31.735 26.472c.075.062.045.695-.046.788-.09.077-.59-.015-.846-.077-.257-.062-.166-.71-.076-.772.091-.062.922-.031.968.061ZM28.47 25.947c.075.062.045.695-.046.788-.09.077-.59-.016-.846-.077-.257-.062-.167-.71-.076-.773.09-.061.907-.015.968.062Z" fill="#ffb573" fill-rule="evenodd" data-name="Vector"/></g><path d="M8.82 21.298c-.107.2-.137.417-.152.649 0-.355-.015-.742.151-1.035.257-.479 1.512-.649 1.663-1.02.151-.355-.015-.57.378-.972.378-.386 1.587-.155 1.859-.433.257-.278.076-.571.892-.787.816-.217.892.061 1.224 0 .318-.062.272-.417.786-.618s.907.092 1.376-.047c.468-.139.408-.494.997-.586.59-.109.938.077 1.346.077.408 0 .529-.618 1.194-.68.665-.077.77.216 1.27.155.498-.062.725-.48 1.42-.48.696 0 .545.433.998.433.454 0 .847-.432 1.587-.432.741 0 .756.54 1.27.54s.877-.447 1.481-.37c.605.077.877.54 1.27.54.408 0 1.21-.216 1.693-.216.484 0 .983.479 1.527.68.544.2 1.028-.232 1.708-.093.665.124.725.51 1.103.587.378.093.847-.062 1.27.046.423.108.484.664.892.772.408.109.726-.185 1.42.093.862.34.847.942 1.27 1.205.424.262 1.739.71 2.011 1.405.272.695.56 1.344.71 1.498.152.17.56 1.375.454 1.483-.015 0-.015.015-.03.015-.091-.417-.318-1.003-.424-1.112-.166-.17-.453-.803-.71-1.498-.272-.695-1.587-1.143-2.01-1.405-.424-.263-.409-.865-1.27-1.205-.695-.278-1.013.016-1.421-.092-.408-.109-.469-.665-.892-.773-.423-.108-.892.031-1.27-.046s-.423-.448-1.103-.587c-.68-.139-1.164.294-1.708.093-.544-.201-1.043-.68-1.527-.68-.499 0-1.3.216-1.693.216s-.665-.463-1.27-.54c-.604-.093-.967.37-1.48.37-.515 0-.53-.54-1.27-.54-.741 0-1.134.432-1.588.432-.438 0-.302-.432-.997-.432-.696 0-.923.417-1.421.479-.5.077-.605-.216-1.27-.155-.665.062-.786.68-1.194.68-.408 0-.756-.17-1.376-.062-.59.093-.529.433-.997.587-.484.139-.862-.154-1.376.046-.514.201-.453.556-.786.618-.333.062-.408-.216-1.224 0-.817.216-.635.525-.892.788-.257.278-1.451.03-1.844.432-.378.402-.212.603-.363.973-.136.37-1.406.54-1.663 1.004Z" fill="#cf6446" fill-rule="evenodd" data-name="Vector"/><g data-name="Group"><path d="M16.68 19.877s.196-.386 1.42.17c1.225.572 2.132 0 2.66 0 .53 0 1.527.046 1.497.247-.015.201-.998.108-1.496.201-.5.093-1.18.448-1.739.448-.559 0-2.811-.587-2.343-1.066ZM12.371 23.445s.756-.463 1.572-.093c.817.355 1.86.016 2.343.355.469.34.62.634.106.48-.514-.155-1.224-.325-1.844-.217-.635.124-2.766-.309-2.177-.525ZM21.894 27.29s.454-.756 1.36-.447c.923.309 2.782-.124 2.586.185-.197.309-.938.525-1.663.386-.726-.139-1.678.417-2.101.263-.408-.17-.182-.386-.182-.386ZM14.85 27.29s.424.232 1.21 0c.786-.231 1.511-.432 2.04-.262.53.154-.302.37-.302.37s-.71.093-1.24.279c-.529.185-2.977.262-2.69-.14.302-.4.982-.246.982-.246ZM25.734 19.985s.68.201 1.315 0c.635-.2 2.025-.51 2.358-.247.332.263-.318.34-.318.34s-.967.046-1.587.263c-.635.216-2.887.139-2.72-.186.166-.324.952-.17.952-.17ZM31.448 18.595c-.545-.247.755-.417 1.511-.525.756-.108 1.451.664 1.95.71.499.047.952.031 1.134.294.181.263-.56.417-1.089.17-.529-.247-.967-.247-1.662-.17-.696.077-1.043-.293-1.043-.293-.363-.217-.257.061-.802-.186ZM20.126 24.078c.635-.263 1.814.093 2.207.154.393.062.891.031.922.325.03.293-1.028.17-1.587.03-.56-.154-1.028.34-1.845.541-.8.186-.8-.386-.8-.386 0-.262.468-.401 1.103-.664ZM23.98 17.267c.59-.154 2.056.247 2.48.324.423.078-.091.278-.711.155-.62-.124-.68-.031-1.572.123-.892.17-.922-.092-.922-.278 0-.185.136-.154.725-.324ZM34.97 21.375c.725.093.876.448 1.511.634.635.17 1.436.046 1.542.478.106.433-1.3.078-2.04 0-.741-.061-.696.108-1.165-.478-.483-.587-.8-.047-.907-.417-.105-.371.348-.294 1.058-.217Z" fill="#d18743" fill-rule="evenodd" data-name="Vector"/></g><path d="M21.532 20.402c.574.51.83 1.004.786 1.112-.121.17-.862-.308-1.195-.602-.529-.494-.922-.927-.816-1.112.076-.077.922.34 1.225.602Z" fill="#a3644b" fill-rule="evenodd" data-name="Vector"/><path d="M21.562 20.31c.59.51.8 1.127.756 1.189-.046.062-.771-.386-1.104-.68-.529-.478-.967-.942-.907-1.019.076-.077.968.247 1.255.51Z" fill="#bf7352" fill-rule="evenodd" data-name="Vector"/><path d="M20.655 23.013c.74-.201 1.285-.14 1.345-.047.09.201-.725.572-1.149.68-.68.17-1.254.247-1.345.062-.03-.093.786-.587 1.149-.695Z" fill="#a3644b" fill-rule="evenodd" data-name="Vector"/><path d="M20.61 22.935c.74-.216 1.375-.046 1.39.031.03.077-.74.448-1.164.556-.68.17-1.3.278-1.33.185-.03-.092.74-.664 1.103-.772Z" fill="#bf7352" fill-rule="evenodd" data-name="Vector"/><g data-name="Group"><path d="M22.786 24.588c.56-.51 1.088-.71 1.179-.649.151.14-.408.834-.74 1.128-.53.479-1.013.803-1.18.68-.06-.078.454-.881.741-1.159Z" fill="#a3644b" fill-rule="evenodd" data-name="Vector"/><path d="M22.695 24.557c.56-.525 1.21-.664 1.255-.602.06.046-.469.726-.801 1.02-.53.463-1.043.849-1.104.771-.06-.077.378-.942.65-1.189Z" fill="#bf7352" fill-rule="evenodd" data-name="Vector"/></g><g data-name="Group"><path d="M27.73 20.325c.74-.17 1.284-.093 1.344 0 .091.2-.74.54-1.163.633-.68.155-1.255.217-1.346.031-.03-.092.801-.571 1.164-.664Z" fill="#a3644b" fill-rule="evenodd" data-name="Vector"/><path d="M27.699 20.248c.725-.185 1.36 0 1.375.077.03.077-.755.417-1.179.51-.68.154-1.315.247-1.33.154-.03-.092.756-.648 1.134-.741Z" fill="#bf7352" fill-rule="evenodd" data-name="Vector"/></g><g data-name="Group"><path d="M24.646 19.584c.438-.633.892-.942.998-.91.196.092-.197.91-.454 1.266-.423.586-.801 1.019-.997.942-.076-.062.226-.973.453-1.298Z" fill="#a3644b" fill-rule="evenodd" data-name="Vector"/><path d="M24.555 19.553c.423-.633 1.013-.927 1.073-.88.076.046-.287.834-.544 1.189-.408.587-.816 1.081-.892 1.02-.076-.063.151-1.005.363-1.329Z" fill="#bf7352" fill-rule="evenodd" data-name="Vector"/></g></g></g></g><defs><linearGradient x1="1" y1="1" x2="0" y2="0" id="a"><stop stop-color="#f8600d" offset="0"/><stop stop-color="#eebca4" offset="1"/></linearGradient></defs></svg>