<svg xmlns="http://www.w3.org/2000/svg" width="51" height="52" viewBox="0.261 -0.307 51 52"><g data-name="Bg"><path d="M12 0h27a12 12 0 0 1 12 12v28a12 12 0 0 1-12 12H12A12 12 0 0 1 0 40V12A12 12 0 0 1 12 0z" fill-rule="evenodd" fill="url(&quot;#a&quot;)" transform="translate(.26 -.307)" data-name="Rectangle 5895"/><g data-name="Vector"><g data-name="orange-snacks"><g data-name="Layer 2"><g data-name="Objects"><path d="M22.653 17.147s3.498-4.082 9.643-1.797c0 0-3.5 5.935-9.643 1.797Z" fill="#5c7732" fill-rule="evenodd" data-name="Vector"/><path d="M22.653 17.147s3.498-4.082 9.643-1.797c0 0-5.872 1.36-9.643 1.797Z" fill="#69893e" fill-rule="evenodd" data-name="Vector"/><path d="m21.429 20.896 1.123-7.375 1.313.776-1.802 6.804a4.433 4.433 0 0 1-.634-.205Z" fill="#69893e" fill-rule="evenodd" data-name="Vector"/><path d="M32.185 29.531c0 5.277-7.688 9.474-13.72 9.474-6.033 0-8.98-4.604-8.98-9.88 0-5.277 4.893-9.556 10.928-9.556 6.034 0 11.772 4.686 11.772 9.962Z" fill="#e87f18" fill-rule="evenodd" data-name="Vector"/><path d="M19.773 21.884c1.415-1.771 5.123-1.261 7.147.242 2.025 1.504 1.78 3.787.364 5.554-1.415 1.768-4.207 1.984-6.231.482-2.025-1.501-2.7-4.504-1.28-6.278Z" fill="#e89b34" fill-rule="evenodd" data-name="Vector"/><path d="M32.679 38.702c-1.986 0-3.927-.568-5.578-1.632a9.766 9.766 0 0 1-3.698-4.344 9.358 9.358 0 0 1-.571-5.593 9.578 9.578 0 0 1 2.747-4.957 10.161 10.161 0 0 1 5.141-2.649 10.388 10.388 0 0 1 5.801.551 9.97 9.97 0 0 1 4.506 3.565 9.435 9.435 0 0 1 1.692 5.378c-.003 2.567-1.061 5.028-2.944 6.842-1.882 1.815-4.434 2.836-7.096 2.839Z" fill="#ffb506" fill-rule="evenodd" data-name="Vector"/><path d="M32.679 19.837c2.545.003 4.985.979 6.785 2.714 1.8 1.735 2.812 4.088 2.815 6.542 0 1.83-.563 3.62-1.618 5.142a9.533 9.533 0 0 1-4.308 3.41 9.932 9.932 0 0 1-5.547.526 9.715 9.715 0 0 1-4.915-2.533 9.158 9.158 0 0 1-2.628-4.74 8.948 8.948 0 0 1 .547-5.347 9.337 9.337 0 0 1 3.536-4.154 9.856 9.856 0 0 1 5.333-1.56Zm-7.575 6.38a.619.619 0 0 0 .162.214c.07.06.152.103.24.129l5.556 1.785c.13.054.27.087.411.097a.212.212 0 0 0 .119-.019.203.203 0 0 0 .087-.08c.082-.155-.107-.412-.144-.46l-3.393-4.604a.991.991 0 0 0-.99-.28c-1.164.334-1.898 2.153-1.925 2.226-.206.413-.247.752-.123.992Zm-.544 4.562a.93.93 0 0 0 .33.268c.13.063.274.097.42.097.075 0 .15-.007.224-.022l5.542-1.803c.076-.022.412-.133.412-.32-.002-.13-.163-.237-.504-.328L25.4 26.973a.691.691 0 0 0-.222-.038c-.245 0-.663.125-.823.948-.017.081-.533 1.968.205 2.896Zm2.862 4.412a1.006 1.006 0 0 0 .727-.322l3.394-4.594c.037-.05.227-.307.144-.462a.203.203 0 0 0-.087-.08.212.212 0 0 0-.118-.02c-.142.01-.281.043-.412.096l-5.555 1.795a.655.655 0 0 0-.411.322c-.124.24-.085.579.12.992.03.077.764 1.896 1.929 2.227a.94.94 0 0 0 .27.038Zm5.037-4.404c.01-.276-.02-.44-.101-.52a.177.177 0 0 0-.126-.053c-.176 0-.347.236-.382.281l-3.448 4.563a.902.902 0 0 0 .04.992c.696.958 2.719 1.053 2.799 1.053.098.012.197.019.296.02a1.016 1.016 0 0 0 .76-.254.601.601 0 0 0 .162-.436v-5.646Zm-.101-2.908c.08-.075.111-.244.109-.518v-5.637a.59.59 0 0 0-.162-.443 1.015 1.015 0 0 0-.76-.254 2.494 2.494 0 0 0-.29.02c-.086.002-2.109.096-2.804 1.054a.908.908 0 0 0-.037.992l3.436 4.548c.035.048.214.282.382.282a.18.18 0 0 0 .126-.052Zm5.65-4.92a.995.995 0 0 0-.725.322l-3.394 4.57c-.04.05-.227.308-.146.462.02.035.05.063.087.08a.212.212 0 0 0 .118.02c.142-.01.281-.042.412-.096l5.555-1.785a.65.65 0 0 0 .411-.323c.124-.24.087-.58-.119-.992-.03-.077-.765-1.896-1.93-2.23a1.003 1.003 0 0 0-.27-.035Zm-5.183 4.507c-.015.15.022.301.105.429a.169.169 0 0 0 .125.053c.12 0 .26-.113.435-.355l3.549-4.49a.608.608 0 0 0 .144-.485c-.044-.273-.27-.531-.681-.761-.054-.036-1.307-.871-2.397-.871a1.72 1.72 0 0 0-.498.07.97.97 0 0 0-.446.295.917.917 0 0 0-.213.48l-.123 5.635Zm4.358 8.074a.59.59 0 0 0-.14-.48l-3.551-4.493c-.177-.244-.317-.357-.437-.357a.174.174 0 0 0-.125.053.667.667 0 0 0-.105.427l.126 5.647a.912.912 0 0 0 .213.475c.116.135.27.236.443.291.161.047.33.07.498.07 1.09 0 2.343-.836 2.39-.867.414-.234.644-.492.688-.766Zm3.022-2.61c.206-.417.245-.762.113-1.008a.617.617 0 0 0-.395-.32l-5.555-1.785a1.319 1.319 0 0 0-.411-.097.212.212 0 0 0-.119.02.203.203 0 0 0-.087.079c-.08.155.107.413.144.46l3.395 4.604a.993.993 0 0 0 .99.278c1.162-.331 1.896-2.15 1.925-2.224Zm-.088-1.643a.974.974 0 0 0 .42-.09.939.939 0 0 0 .335-.26c.742-.93.226-2.816.205-2.891-.168-.83-.588-.954-.823-.954-.07 0-.14.012-.205.035L34.46 28.83c-.342.09-.506.195-.506.328-.01.186.335.299.4.319l5.556 1.797c.068.014.136.02.206.022Z" fill="#ffffcf" fill-rule="evenodd" data-name="Vector"/><path d="M43.118 29.162c0 5.334-5.462 9.919-11 9.919-5.54 0-9.58-5.122-9.58-10.458S27.136 19.3 32.67 19.3c5.536 0 10.447 4.528 10.447 9.862ZM32.68 38.35c2.545-.003 4.985-.979 6.785-2.714 1.8-1.735 2.812-4.088 2.815-6.542a9.021 9.021 0 0 0-1.614-5.143 9.533 9.533 0 0 0-4.306-3.412 9.932 9.932 0 0 0-5.546-.53 9.716 9.716 0 0 0-4.917 2.53 9.159 9.159 0 0 0-2.631 4.736 8.948 8.948 0 0 0 .542 5.348 9.337 9.337 0 0 0 3.532 4.156 9.855 9.855 0 0 0 5.332 1.565Z" fill="#f38e1c" fill-rule="evenodd" data-name="Vector"/><path d="M32.296 21.273a.607.607 0 0 1 .163.443v5.643c.01.274-.02.439-.1.518a.175.175 0 0 1-.126.052c-.177 0-.348-.235-.383-.282l-3.444-4.563a.904.904 0 0 1 .037-.991c.695-.958 2.718-1.054 2.804-1.054.096-.012.193-.019.29-.02a1.016 1.016 0 0 1 .76.254ZM37.183 22.618a.594.594 0 0 1-.144.484l-3.55 4.491c-.174.242-.314.355-.434.355a.174.174 0 0 1-.125-.053.669.669 0 0 1-.105-.429l.123-5.635a.917.917 0 0 1 .213-.48.97.97 0 0 1 .446-.296c.161-.047.33-.07.498-.07 1.09 0 2.343.836 2.397.872.407.23.637.488.68.761ZM40.335 26.234a.649.649 0 0 1-.411.323l-5.556 1.786c-.13.054-.27.086-.411.095a.212.212 0 0 1-.119-.019.203.203 0 0 1-.087-.08c-.08-.155.107-.413.146-.462l3.387-4.596a.97.97 0 0 1 .453-.283 1 1 0 0 1 .54-.003c1.165.333 1.9 2.152 1.93 2.23.204.412.243.752.128 1.01ZM31.67 28.333a.203.203 0 0 1-.086.08.212.212 0 0 1-.12.02 1.319 1.319 0 0 1-.41-.098l-5.556-1.785a.648.648 0 0 1-.395-.321c-.123-.248-.082-.588.124-1.004.027-.078.761-1.897 1.926-2.23a1.014 1.014 0 0 1 .664.047.96.96 0 0 1 .325.233l3.393 4.604c.037.047.226.305.136.454ZM32.459 36.44a.592.592 0 0 1-.163.433 1.015 1.015 0 0 1-.76.254 2.691 2.691 0 0 1-.295-.02c-.08-.002-2.103-.095-2.798-1.053a.906.906 0 0 1-.042-.992l3.449-4.563c.035-.045.214-.281.382-.281a.182.182 0 0 1 .126.053c.08.08.1.244.1.52v5.65ZM37.043 35.052a.604.604 0 0 1 .14.48c-.044.274-.276.531-.688.766-.047.031-1.3.866-2.39.866a1.72 1.72 0 0 1-.498-.069.965.965 0 0 1-.444-.291.912.912 0 0 1-.213-.475l-.125-5.647a.667.667 0 0 1 .105-.427.169.169 0 0 1 .125-.053c.12 0 .26.113.436.357l3.552 4.493ZM40.217 32.94c-.028.073-.763 1.892-1.925 2.223a.993.993 0 0 1-.99-.278l-3.395-4.604c-.037-.048-.224-.305-.144-.46a.203.203 0 0 1 .087-.08.212.212 0 0 1 .119-.02c.142.01.28.044.411.098l5.555 1.785a.643.643 0 0 1 .391.32c.124.243.085.589-.109 1.015ZM40.867 30.93a.938.938 0 0 1-.334.264.974.974 0 0 1-.626.07l-5.555-1.796c-.066-.02-.402-.133-.402-.32.004-.129.165-.238.506-.327l5.588-1.702a.638.638 0 0 1 .206-.036c.243 0 .663.125.823.955.02.075.537 1.961-.206 2.892ZM31.527 30.263 28.14 34.86c-.09.1-.202.18-.327.236a1.006 1.006 0 0 1-.4.086.94.94 0 0 1-.269-.038c-1.164-.331-1.899-2.15-1.927-2.228-.204-.396-.245-.742-.122-.991a.628.628 0 0 1 .412-.322l5.555-1.795c.13-.054.27-.086.411-.095a.212.212 0 0 1 .119.019.203.203 0 0 1 .087.08c.082.155-.107.413-.152.452ZM31.488 29.018c0 .186-.346.297-.412.319l-5.542 1.785a1.16 1.16 0 0 1-.223.022.967.967 0 0 1-.421-.092.932.932 0 0 1-.334-.265c-.744-.928-.228-2.815-.205-2.896.17-.823.588-.948.823-.948a.69.69 0 0 1 .222.037l5.584 1.698c.341.092.502.197.508.34Z" fill="#ffb506" fill-rule="evenodd" data-name="Vector"/></g></g></g></g></g><defs><linearGradient x1="1" y1="1" x2="0" y2="0" id="a"><stop stop-color="#f8600d" offset="0"/><stop stop-color="#ffd89d" offset="1"/></linearGradient></defs></svg>