<svg xmlns="http://www.w3.org/2000/svg" xmlns:xlink="http://www.w3.org/1999/xlink" width="217.204" height="242.965" viewBox="0 0 217.204 242.965">
  <defs>
    <linearGradient id="linear-gradient" x1="-1.465" y1="1.45" x2="-2.168" y2="2.153" gradientUnits="objectBoundingBox">
      <stop offset="0" stop-color="#e63033"/>
      <stop offset="1" stop-color="#9d1915"/>
    </linearGradient>
    <linearGradient id="linear-gradient-2" x1="-10.012" y1="11.262" x2="-9.304" y2="11.969" gradientUnits="objectBoundingBox">
      <stop offset="0" stop-color="#241c47"/>
      <stop offset="0.537" stop-color="#171527"/>
      <stop offset="1" stop-color="#020203"/>
    </linearGradient>
    <linearGradient id="linear-gradient-3" x1="-20.106" y1="14" x2="-18.722" y2="14.897" xlink:href="#linear-gradient-2"/>
    <linearGradient id="linear-gradient-4" x1="0.937" y1="0.516" x2="1.644" y2="1.223" gradientUnits="objectBoundingBox">
      <stop offset="0" stop-color="#386db4"/>
      <stop offset="0.17" stop-color="#3767b0"/>
      <stop offset="0.448" stop-color="#3458a4"/>
      <stop offset="0.795" stop-color="#313f92"/>
      <stop offset="1" stop-color="#2d3189"/>
    </linearGradient>
    <linearGradient id="linear-gradient-5" x1="0.143" y1="0.144" x2="0.851" y2="0.852" xlink:href="#linear-gradient-2"/>
    <linearGradient id="linear-gradient-6" x1="0.851" y1="0.146" x2="0.146" y2="0.852" gradientUnits="objectBoundingBox">
      <stop offset="0.001" stop-color="#ffe088"/>
      <stop offset="0.209" stop-color="#fab744"/>
      <stop offset="0.377" stop-color="#ea5578"/>
      <stop offset="0.524" stop-color="#e93e8f"/>
      <stop offset="0.739" stop-color="#7c4997"/>
      <stop offset="1" stop-color="#4f53a0"/>
    </linearGradient>
  </defs>
  <g id="social" transform="translate(-10.2 -5.1)">
    <path id="Path_8590" d="M51.971,65.037c1.356,2.983,2.712,6.237,3.8,9.22,1.356,3.254,2.441,3.8,5.966,2.712,19.8-5.966,39.319-11.66,59.114-17.626.542-.271,1.356-.271,1.9-.542v68.063c-23.591,7.05-47.183,14.1-71.046,21.151V65.037C51.7,65.308,51.7,65.308,51.971,65.037Z" transform="translate(71.034 91.916)" fill="#fff"/>
    <path id="Path_8591" d="M22.7,127.063V59c4.881,1.356,9.491,2.712,14.1,4.067,15.728,4.61,31.455,9.22,47.183,14.1,3.254,1.085,4.339.271,5.694-2.712a95.976,95.976,0,0,1,4.339-9.22v83.248C70.154,140.892,46.563,133.842,22.7,127.063Z" transform="translate(21.396 92.259)" fill="#fff"/>
    <path id="Path_8592" d="M157.687,58.35l-26.845,8.135c-12.2,3.525-24.4,7.321-36.607,10.847a6.058,6.058,0,0,1-3.8,0C69.829,71.366,49.22,65.13,28.612,59.164c-.813-.271-1.356-.542-2.712-1.085,8.677-2.44,16.812-4.881,24.676-7.321,13.016-3.8,26.032-7.864,39.319-11.66,1.356-.271,2.983-.542,4.067,0,20.609,5.966,41.217,12.2,61.826,18.168.542.271,1.085.271,1.627.542C157.687,57.808,157.687,58.079,157.687,58.35Z" transform="translate(26.873 57.657)" fill="#fff"/>
    <path id="Path_8593" d="M13.9,51.009c6.237-1.9,11.66-3.525,17.355-5.152C48.338,40.7,65.422,35.823,82.505,30.671a3.264,3.264,0,0,1,3.8.813c6.237,5.423,12.745,10.847,19.253,16.27-4.61,1.356-8.948,2.712-13.016,3.8C74.1,56.974,55.388,62.4,36.949,68.092A3.463,3.463,0,0,1,33.7,67.55C27.729,62.4,21.764,57.517,15.8,52.364A5.7,5.7,0,0,0,13.9,51.009Z" transform="translate(6.333 43.305)" fill="#fff"/>
    <path id="Path_8594" d="M52.9,47.722c4.068-3.525,7.864-6.779,11.66-10.033,2.712-2.169,5.423-4.61,8.135-6.779a2.252,2.252,0,0,1,2.169-.542C97.642,37.146,120.42,43.925,143.47,50.7l.814.813a5.673,5.673,0,0,0-1.627,1.085c-5.966,4.881-11.931,10.033-17.626,14.914-1.085,1.085-2.169,1.085-3.8.813C99,61.822,76.763,55.043,54.527,48.535Z" transform="translate(73.088 43.067)" fill="#fff"/>
    <path id="Path_8595" d="M60.848,89.973c-2.983-7.321-5.966-14.1-8.948-21.422L123.488,47.4c2.983,7.05,5.694,14.1,8.948,21.422Q97.049,79.4,60.848,89.973Z" transform="translate(71.376 72.403)" fill="#fff"/>
    <path id="Path_8596" d="M18.9,68.722c2.983-7.321,5.966-14.1,8.948-21.422L99.436,68.451c-2.983,7.321-5.966,14.1-8.948,21.422Q55.1,79.7,18.9,68.722Z" transform="translate(14.891 72.232)" fill="#fff"/>
    <path id="Path_8597" d="M201.1,76.668c1.085,8.135,16.812,26.032,6.779,30.371-2.169,1.356-7.864.542-7.593,4.339-2.44,13.287,5.423,71.588-4.067,74.3-26.3,6.779-52.606,17.355-79.181,22.507-18.982-8.948-70.5-13.829-79.723-28.2-3.525-15.728,8.948-72.4-8.406-72.944-9.762-5.966,10.3-23.32,6.237-31.184C27.555,67.99,14.81,62.3,10.2,52.534,35.147,42.229,68.23,30.569,94.8,28.4c27.388,24.134,20.88,23.591,48,0,26.574,2.712,59.928,13.829,84.6,24.4C222.252,62.3,209.236,68.261,201.1,76.668Zm-78.367,40.675v82.977c74.842-22.507,77.825-7.864,68.876-88.4-19.524,5.694-39.319,11.66-58.843,17.355C125.446,132.257,125.988,120.6,122.734,117.343ZM44.367,179.168c90.027,31.726,69.147,21.151,70.774-61.826-3.254,3.8-2.983,14.372-10.033,12.2-15.728-4.61-31.455-9.22-47.183-14.1C31.08,100.53,49.248,161.543,44.367,179.168ZM184.56,76.125C121.921,52.8,115.955,54.7,53.044,75.854,117.853,97.819,119.48,97.819,184.56,76.125ZM33.791,101.073c24.134,7.05,47.725,14.1,71.859,21.151,2.983-7.05,5.966-14.1,8.948-21.422-24.4-6.779-48-13.829-71.859-20.88Zm98.433,21.422c23.863-7.05,47.725-14.1,71.859-21.422-2.983-7.321-5.966-14.372-8.948-21.422-23.863,7.322-47.725,14.372-71.588,21.422C126.53,108.394,129.242,115.173,132.225,122.495ZM20.233,54.432c8.135,4.61,14.372,15.185,23.049,17.083,23.049-6.779,45.556-13.558,68.605-20.337-8.135-5.152-14.372-15.728-23.049-17.083C65.789,40.874,43.553,47.382,20.233,54.432Zm105.755-3.525c23.863,5.694,48.539,17.626,72.13,19.8,5.152-5.423,16.27-11.66,18.439-16.812C193.78,47.11,171,40.331,147.952,33.552,139.817,37.077,133.581,45.755,125.988,50.907Z" transform="translate(0 39.882)" fill="#ec6508"/>
    <circle id="Ellipse_78" cx="24.947" cy="24.947" r="24.947" transform="translate(30.809 58.791)" fill="url(#linear-gradient)"/>
    <path id="Path_8598" d="M46.809,33.115a5.957,5.957,0,0,0-7.864-2.983L25.115,36.1a5.957,5.957,0,0,0-2.983,7.864l2.983,6.508a5.957,5.957,0,0,0,7.864,2.983l13.829-6.237a5.957,5.957,0,0,0,2.983-7.864ZM40.3,40.437,35.42,46.4c-.271.271-1.085.542-1.356.271l-2.712-6.237a1.222,1.222,0,0,1,.813-.813l7.321.542C40.029,39.895,40.572,40.166,40.3,40.437Z" transform="translate(19.523 41.946)" fill="#fff"/>
    <g id="Group_6882" transform="translate(157.71 42.45)">
      <g id="Group_6880">
        <path id="Path_8599" d="M120.734,52.84A28.345,28.345,0,1,0,65.145,41.723a28.476,28.476,0,0,0,17.9,32.269L87.11,54.467l-7.05-1.356,1.627-8.135,7.05,1.356L90.092,40.1c1.356-7.05,6.237-10.033,12.745-8.677a35.738,35.738,0,0,1,6.237,1.9L107.718,40.1l-4.067-.542c-3.525-.813-4.881,1.356-5.423,3.525l-1.085,5.152,7.593,1.627-2.983,7.864-6.237-1.627L91.448,75.618A28.861,28.861,0,0,0,120.734,52.84Z" transform="translate(-64.598 -18.874)" fill="url(#linear-gradient-2)"/>
        <path id="Path_8600" d="M92.436,49.733l2.983-7.864-7.593-1.627L88.91,35.09c.542-2.169,1.9-4.067,5.423-3.525l3.525.813L99.215,25.6s-2.983-1.085-6.237-1.9c-6.237-1.356-11.389,1.627-12.745,8.677l-1.356,6.237-7.05-1.356L70.2,45.395l7.05,1.356L73.183,66.274c1.356.542,2.712.813,4.339,1.356a23.735,23.735,0,0,0,4.339.542l4.067-19.524Z" transform="translate(-55.01 -11.157)" fill="url(#linear-gradient-3)"/>
      </g>
      <g id="Group_6881">
        <path id="Path_8601" d="M120.734,52.84A28.345,28.345,0,1,0,65.145,41.723a28.476,28.476,0,0,0,17.9,32.269L87.11,54.467l-7.05-1.356,1.627-8.135,7.05,1.356L90.092,40.1c1.356-7.05,6.237-10.033,12.745-8.677a35.738,35.738,0,0,1,6.237,1.9L107.718,40.1l-4.067-.542c-3.525-.813-4.881,1.356-5.423,3.525l-1.085,5.152,7.593,1.627-2.983,7.864-6.237-1.627L91.448,75.618A28.861,28.861,0,0,0,120.734,52.84Z" transform="translate(-64.598 -18.874)" fill="url(#linear-gradient-4)"/>
        <path id="Path_8602" d="M92.436,49.733l2.983-7.864-7.593-1.627L88.91,35.09c.542-2.169,1.9-4.067,5.423-3.525l3.525.813L99.215,25.6s-2.983-1.085-6.237-1.9c-6.237-1.356-11.389,1.627-12.745,8.677l-1.356,6.237-7.05-1.356L70.2,45.395l7.05,1.356L73.183,66.274c1.356.542,2.712.813,4.339,1.356a23.735,23.735,0,0,0,4.339.542l4.067-19.524Z" transform="translate(-55.01 -11.157)" fill="#fff"/>
      </g>
    </g>
    <circle id="Ellipse_79" cx="24.134" cy="24.134" r="24.134" transform="translate(86.669 5.1)" fill="url(#linear-gradient-5)"/>
    <g id="Group_6885" transform="translate(97.244 13.777)">
      <g id="Group_6883">
        <path id="Path_8603" d="M59.628,18.462a12.086,12.086,0,0,0,7.05,2.169V15.479a2.032,2.032,0,0,1-1.356-.271v4.067a12.086,12.086,0,0,1-7.05-2.169v10.3a9.144,9.144,0,0,1-9.22,9.22A8.344,8.344,0,0,1,43.9,35a9.631,9.631,0,0,0,6.779,2.712A9.144,9.144,0,0,0,59.9,28.5l-.271-10.033Zm1.627-4.881a7.633,7.633,0,0,1-1.627-4.067V8.7H58.272a6.65,6.65,0,0,0,2.983,4.881Zm-14.372,17.9a4.374,4.374,0,0,1-.813-2.44A4.283,4.283,0,0,1,50.408,24.7a2.445,2.445,0,0,1,1.356.271V19.818H50.408v4.067c-.542,0-.813-.271-1.356-.271a4.283,4.283,0,0,0-4.339,4.339C44.442,29.309,45.527,30.664,46.883,31.478Z" transform="translate(-39.561 -7.615)" fill="#fff"/>
        <path id="Path_8604" d="M60.055,17.548a12.086,12.086,0,0,0,7.05,2.169V15.65a7.731,7.731,0,0,1-3.8-2.169A6.954,6.954,0,0,1,60.055,8.6h-3.8V28.666A4.283,4.283,0,0,1,51.92,33a3.55,3.55,0,0,1-3.254-1.627,4.592,4.592,0,0,1-2.44-3.8,4.283,4.283,0,0,1,4.339-4.339,2.445,2.445,0,0,1,1.356.271V19.447a9.317,9.317,0,0,0-9.22,9.22,9.469,9.469,0,0,0,2.712,6.508A8.344,8.344,0,0,0,50.564,36.8a9.144,9.144,0,0,0,9.22-9.22V17.548Z" transform="translate(-41.615 -7.787)" fill="#fff"/>
        <path id="Path_8605" d="M67.79,16.435V15.35a6.226,6.226,0,0,1-3.8-1.085A10.639,10.639,0,0,0,67.79,16.435Zm-7.05-7.05V8.3H55.587V28.366A4.283,4.283,0,0,1,51.248,32.7a3.919,3.919,0,0,1-1.9-.542A3.865,3.865,0,0,0,52.6,33.79a4.283,4.283,0,0,0,4.339-4.339V9.385ZM52.875,20.231V19.147H51.52a9.144,9.144,0,0,0-9.22,9.22,9.014,9.014,0,0,0,4.067,7.593,9.469,9.469,0,0,1-2.712-6.508,9.317,9.317,0,0,1,9.22-9.22Z" transform="translate(-42.3 -8.3)" fill="#fff"/>
      </g>
      <g id="Group_6884">
        <path id="Path_8606" d="M59.628,18.462a12.086,12.086,0,0,0,7.05,2.169V15.479a2.032,2.032,0,0,1-1.356-.271v4.067a12.086,12.086,0,0,1-7.05-2.169v10.3a9.144,9.144,0,0,1-9.22,9.22A8.344,8.344,0,0,1,43.9,35a9.631,9.631,0,0,0,6.779,2.712A9.144,9.144,0,0,0,59.9,28.5l-.271-10.033Zm1.627-4.881a7.633,7.633,0,0,1-1.627-4.067V8.7H58.272a6.65,6.65,0,0,0,2.983,4.881Zm-14.372,17.9a4.374,4.374,0,0,1-.813-2.44A4.283,4.283,0,0,1,50.408,24.7a2.445,2.445,0,0,1,1.356.271V19.818H50.408v4.067c-.542,0-.813-.271-1.356-.271a4.283,4.283,0,0,0-4.339,4.339C44.442,29.309,45.527,30.664,46.883,31.478Z" transform="translate(-39.561 -7.615)" fill="#e72f59" fill-rule="evenodd"/>
        <path id="Path_8607" d="M60.055,17.548a12.086,12.086,0,0,0,7.05,2.169V15.65a7.731,7.731,0,0,1-3.8-2.169A6.954,6.954,0,0,1,60.055,8.6h-3.8V28.666A4.283,4.283,0,0,1,51.92,33a3.55,3.55,0,0,1-3.254-1.627,4.592,4.592,0,0,1-2.44-3.8,4.283,4.283,0,0,1,4.339-4.339,2.445,2.445,0,0,1,1.356.271V19.447a9.317,9.317,0,0,0-9.22,9.22,9.469,9.469,0,0,0,2.712,6.508A8.344,8.344,0,0,0,50.564,36.8a9.144,9.144,0,0,0,9.22-9.22V17.548Z" transform="translate(-41.615 -7.787)" fill="#fff" fill-rule="evenodd"/>
        <path id="Path_8608" d="M67.79,16.435V15.35a6.226,6.226,0,0,1-3.8-1.085A10.639,10.639,0,0,0,67.79,16.435Zm-7.05-7.05V8.3H55.587V28.366A4.283,4.283,0,0,1,51.248,32.7a3.919,3.919,0,0,1-1.9-.542A3.865,3.865,0,0,0,52.6,33.79a4.283,4.283,0,0,0,4.339-4.339V9.385ZM52.875,20.231V19.147H51.52a9.144,9.144,0,0,0-9.22,9.22,9.014,9.014,0,0,0,4.067,7.593,9.469,9.469,0,0,1-2.712-6.508,9.317,9.317,0,0,1,9.22-9.22Z" transform="translate(-42.3 -8.3)" fill="#2ab7c5" fill-rule="evenodd"/>
      </g>
    </g>
    <circle id="Ellipse_80" cx="30.099" cy="30.099" r="30.099" transform="translate(89.109 70.993)" fill="url(#linear-gradient-6)"/>
    <g id="Group_6887" transform="translate(101.583 83.467)">
      <g id="Group_6886">
        <path id="Path_8609" d="M55.169,36.3a2.169,2.169,0,1,0,2.169,2.169A2.139,2.139,0,0,0,55.169,36.3Z" transform="translate(-28.324 -30.063)" fill="#fff"/>
        <path id="Path_8610" d="M55.877,37.3a8.677,8.677,0,1,0,8.677,8.677A8.566,8.566,0,0,0,55.877,37.3Zm0,14.1A5.423,5.423,0,1,1,61.3,45.977C61.572,48.96,59.131,51.4,55.877,51.4Z" transform="translate(-38.252 -28.352)" fill="#fff"/>
        <path id="Path_8611" d="M68.576,69.252h-14.1A10.42,10.42,0,0,1,43.9,58.676v-14.1A10.42,10.42,0,0,1,54.475,34h14.1A10.42,10.42,0,0,1,79.152,44.575v14.1A10.768,10.768,0,0,1,68.576,69.252Zm-14.1-32a7.291,7.291,0,0,0-7.321,7.321v14.1A7.291,7.291,0,0,0,54.475,66h14.1A7.291,7.291,0,0,0,75.9,58.676v-14.1a7.291,7.291,0,0,0-7.321-7.321Z" transform="translate(-43.9 -34)" fill="#fff"/>
      </g>
    </g>
  </g>
</svg>
