<svg xmlns="http://www.w3.org/2000/svg" xmlns:xlink="http://www.w3.org/1999/xlink" width="39.264" height="39.34" viewBox="0 0 39.264 39.34">
  <defs>
    <linearGradient id="linear-gradient" x1="0.5" x2="0.5" y2="1" gradientUnits="objectBoundingBox">
      <stop offset="0" stop-color="#fe9861"/>
      <stop offset="1" stop-color="#ff5a00"/>
    </linearGradient>
    <clipPath id="clip-path">
      <circle id="Ellipse_9" data-name="Ellipse 9" cx="18.5" cy="18.5" r="18.5" transform="translate(-0.458 -0.134)" fill="#fff" stroke="#707070" stroke-width="1"/>
    </clipPath>
  </defs>
  <g id="Group_28" transform="translate(0 0)">
    <circle id="Ellipse_8" cx="19.052" cy="19.052" r="19.052" transform="translate(0.618 1.235)" fill="url(#linear-gradient)"/>
    <g id="Mask_Group_1" transform="translate(1.719 1.68)" clip-path="url(#clip-path)">
      <g id="girl" transform="translate(5.692 2.039)">
        <path id="Path_58" d="M326.149,45.35a.729.729,0,1,1-.729.729A.729.729,0,0,1,326.149,45.35Z" transform="translate(-307.522 -42.414)" fill="#d8ff33"/>
        <path id="Path_59" d="M217.079,14.225a3.662,3.662,0,0,1-.05,1.153l-.038.072a7.538,7.538,0,0,0-7.085.009l-.007-.013a3.655,3.655,0,0,1-.089-.8,3.646,3.646,0,0,1,7.269-.418Z" transform="translate(-200.324 -10.561)" fill="#4a5160"/>
        <path id="Path_60" d="M332.376,223.58l-.009.018v.209a19.818,19.818,0,0,1-.134,2.289l-.012.1h1.042a1.148,1.148,0,0,0,1.148-1.148v-.645Q333.32,224.018,332.376,223.58Z" transform="translate(-313.828 -207.676)" fill="#4a5160"/>
        <path id="Path_61" d="M162.283,66.233h0a7,7,0,0,0-2.862,1.121,3.881,3.881,0,0,0-1.273,1.416,3.974,3.974,0,0,0-.457,1.852H157.4a1.088,1.088,0,0,0-.53.137,5.177,5.177,0,0,1-.447-2.1V67.641a7.531,7.531,0,0,1,15.063,0V72.86l-.082-.029q-1.091-.39-2.035-.827A16.217,16.217,0,0,1,162.283,66.233Z" transform="translate(-150.818 -56.1)" fill="#6d7486"/>
        <path id="Path_62" d="M215.44,311.3a5.8,5.8,0,0,1-2.95-.843V314a2.228,2.228,0,0,0,.686,1.608l2.48,2.378,2.48-2.378a2.228,2.228,0,0,0,.686-1.608v-2.867Z" transform="translate(-202.809 -288.235)" fill="#ffd39f"/>
        <path id="Path_63" d="M160.809,144.26h0a7,7,0,0,0-2.862,1.121,3.881,3.881,0,0,0-1.273,1.416,3.974,3.974,0,0,0-.457,1.852h-.292a1.094,1.094,0,1,0,0,2.187h.292v.525a5.831,5.831,0,0,0,5.76,5.834l3.552-1.149a5.822,5.822,0,0,0,2.355-4.64c0-.015,0-.03,0-.045v-1.312l.009-.018A16.216,16.216,0,0,1,160.809,144.26Z" transform="translate(-149.344 -134.128)" fill="#ffd8b7"/>
        <path id="Path_64" d="M264.153,358.22h-4.987v.06a2.228,2.228,0,0,1-.686,1.608L256,362.266v6.343h12.411v-6.131A4.258,4.258,0,0,0,264.153,358.22Z" transform="translate(-243.153 -332.52)" fill="#ecf4ff"/>
        <path id="Path_65" d="M95.361,359.888a2.229,2.229,0,0,1-.686-1.608v-.06H89.688a4.258,4.258,0,0,0-4.258,4.258v6.131H97.841v-6.342Z" transform="translate(-84.994 -332.52)" fill="#ecf4ff"/>
        <path id="Path_66" d="M247.161,300.8a.708.708,0,0,1-.461-.664v-.3a.708.708,0,0,1,.708-.708h2.623a.707.707,0,0,1,.682.519.679.679,0,0,1,.026.189v.3a.709.709,0,0,1-.708.708h-2.623A.718.718,0,0,1,247.161,300.8Z" transform="translate(-234.53 -277.729)" fill="#6d7486"/>
        <path id="Path_67" d="M163.951,60.11a7.532,7.532,0,0,0-7.531,7.531v1.015a5.176,5.176,0,0,0,.447,2.1,1.088,1.088,0,0,1,.53-.137h.292l.913-2.53v-.452a7.529,7.529,0,0,1,6.44-7.452A7.583,7.583,0,0,0,163.951,60.11Z" transform="translate(-150.818 -56.1)" fill="#4a5160"/>
        <path id="Path_68" d="M161.208,156.35a5.83,5.83,0,0,1-2.81-4.991v-2.712a3.975,3.975,0,0,1,.457-1.852,3.883,3.883,0,0,1,1.273-1.416,7.316,7.316,0,0,1,1.05-.584q-.2-.275-.369-.538h0a7,7,0,0,0-2.862,1.121,3.881,3.881,0,0,0-1.273,1.416,3.974,3.974,0,0,0-.457,1.852h-.292a1.094,1.094,0,0,0,0,2.187h.292v.525a5.831,5.831,0,0,0,5.76,5.834l.673-.217A5.79,5.79,0,0,1,161.208,156.35Z" transform="translate(-149.344 -134.125)" fill="#efc597"/>
        <path id="Path_69" d="M91.871,358.22H89.688a4.258,4.258,0,0,0-4.258,4.258v6.131h2.183v-6.131A4.258,4.258,0,0,1,91.871,358.22Z" transform="translate(-84.994 -332.52)" fill="#ddeafb"/>
        <g id="Group_20" transform="translate(0 0)">
          <path id="Path_70" d="M259.905,98.026a.437.437,0,0,0,.381-.786,12.439,12.439,0,0,1-5.9-6.242.437.437,0,1,0-.821.3A13.1,13.1,0,0,0,259.905,98.026Z" transform="translate(-240.874 -84.474)"/>
          <path id="Path_71" d="M100.433,30.264H95.882V28.046a1.138,1.138,0,0,0,.159-.352h1.311a1.823,1.823,0,0,0,1.821-1.821V23.931a1.587,1.587,0,0,0,1.279-1.555v-.363a.436.436,0,0,0,.081-.253V16.542A7.971,7.971,0,0,0,96.6,9.676a4.122,4.122,0,0,0,.043-.574h.332a1.166,1.166,0,1,0,0-.873h-.422a4.082,4.082,0,0,0-7.984,0h-.2a.437.437,0,0,0,0,.873h.112a4.124,4.124,0,0,0,.044.573A7.971,7.971,0,0,0,84.6,16.542v1.014a5.565,5.565,0,0,0,.355,1.96,1.528,1.528,0,0,0,.915,2.625v.1a6.233,6.233,0,0,0,1.811,4.408,6.328,6.328,0,0,0,1,.823v2.8H84.127a4.7,4.7,0,0,0-4.694,4.694v6.131a.437.437,0,0,0,.437.437H104.69a.437.437,0,0,0,.437-.437V34.958A4.7,4.7,0,0,0,100.433,30.264ZM98.06,8.373a.293.293,0,1,1-.293.293A.293.293,0,0,1,98.06,8.373Zm.24,17.5a.949.949,0,0,1-.948.948h-.939a6.318,6.318,0,0,0,1.75-2.859H98.3Zm1.279-3.5a.712.712,0,0,1-.712.712h-.46v-.8c0-.019,0-.038,0-.057V21.57q.562.241,1.171.467Zm-7.013-16.5a3.213,3.213,0,0,1,3.21,3.21q0,.082,0,.165a7.959,7.959,0,0,0-6.411,0c0-.055,0-.109,0-.164A3.213,3.213,0,0,1,92.566,5.874ZM85.471,16.542a7.095,7.095,0,1,1,14.189,0v4.594A17.117,17.117,0,0,1,91.6,15.391a9.127,9.127,0,0,1-1.643-3.475.437.437,0,0,0-.863.133,8.774,8.774,0,0,0,1.1,2.779,7.48,7.48,0,0,0-2.407,1.066,4.344,4.344,0,0,0-1.9,3.2,1.524,1.524,0,0,0-.153.02,4.7,4.7,0,0,1-.265-1.556ZM88.3,26.029a5.365,5.365,0,0,1-1.558-3.794v-.525a.437.437,0,0,0-.437-.437h-.292a.657.657,0,1,1,0-1.315H86.3a.437.437,0,0,0,.437-.437,3.481,3.481,0,0,1,1.537-2.9,6.569,6.569,0,0,1,2.415-1.005c.054.079.109.158.166.239a16.977,16.977,0,0,0,6.676,5.323v1.12a5.345,5.345,0,0,1-1.818,3.982,1.139,1.139,0,0,0-.783-.312H92.311a1.146,1.146,0,0,0-1.144,1.145v.3a1.122,1.122,0,0,0,.01.141,5.337,5.337,0,0,1-1.82-.684l-.036-.021a5.435,5.435,0,0,1-1.021-.811Zm6.748.834a.434.434,0,0,0-.038.178v.624a.268.268,0,0,1-.075.012H92.328a.434.434,0,0,0-.162-.043.271.271,0,0,1-.127-.229v-.3a.272.272,0,0,1,.272-.272h2.623a.268.268,0,0,1,.113.025Zm-3.2,13.789H80.306V34.958a3.825,3.825,0,0,1,3.821-3.821h4.579a2.679,2.679,0,0,0,.793,1.547l2.345,2.249Zm-1.741-8.6a1.8,1.8,0,0,1-.552-1.293V27.949a6.247,6.247,0,0,0,2.437.554,1.141,1.141,0,0,0,.323.047h2.623c.025,0,.05,0,.075,0v2.215a1.8,1.8,0,0,1-.552,1.293L92.28,34.142Zm14.151,8.6H92.716V34.933l2.345-2.249a2.678,2.678,0,0,0,.793-1.547h4.579a3.825,3.825,0,0,1,3.821,3.821Z" transform="translate(-79.433 -5.001)"/>
        </g>
        <path id="Path_72" d="M205.034,205.026a.555.555,0,1,0-.555-.555A.555.555,0,0,0,205.034,205.026Z" transform="translate(-194.566 -189.2)"/>
        <path id="Path_73" d="M293.194,205.026a.555.555,0,1,0-.555-.555A.555.555,0,0,0,293.194,205.026Z" transform="translate(-277.984 -189.2)"/>
        <path id="Path_74" d="M235.5,270.047h-1.936a.407.407,0,0,0,0,.813H235.5a.407.407,0,0,0,0-.813Z" transform="translate(-221.703 -251.775)"/>
      </g>
    </g>
    <path id="Path_96" d="M83.484,56.82A19.054,19.054,0,0,1,56.82,83.484,19.053,19.053,0,1,0,83.484,56.82Z" transform="translate(-52.463 -51.879)" fill="rgba(248,96,13,0.45)"/>
    <path id="Path_102" d="M37.626,11.77a19.564,19.564,0,0,0-4.45-6.35.58.58,0,0,0-.8.839,18.455,18.455,0,0,1,1.9,24.617,6.473,6.473,0,0,1-.8.974,18.444,18.444,0,0,1-27.683,0c-.4-.454-.53-.618-.8-.975A18.469,18.469,0,0,1,30.5,4.694a.58.58,0,1,0,.683-.937A19.485,19.485,0,0,0,19.632,0a20.136,20.136,0,0,0-7.146,1.335A19.142,19.142,0,0,0,5.75,5.75,19.632,19.632,0,0,0,33.514,33.514,19.652,19.652,0,0,0,37.626,11.77Z" transform="translate(0 0)"/>
  </g>
</svg>
