<?xml version="1.0" encoding="utf-8"?>
<!-- Svg Vector Icons : http://www.onlinewebfonts.com/icon -->
<!DOCTYPE svg PUBLIC "-//W3C//DTD SVG 1.1//EN" "http://www.w3.org/Graphics/SVG/1.1/DTD/svg11.dtd">
<svg version="1.1" xmlns="http://www.w3.org/2000/svg" xmlns:xlink="http://www.w3.org/1999/xlink" x="0px" y="0px" viewBox="0 0 1000 1000" enable-background="new 0 0 1000 1000" xml:space="preserve">
<metadata> Svg Vector Icons : http://www.onlinewebfonts.com/icon </metadata>
<g><g><path d="M646.7,221.3l-36.4-50.7l-34.5,24.2l-95.3-35.6L337.9,541.6L195.2,159.3l-7.8,2.9v-0.6H10v661.1h177.4V644.4l72.8,196.3l77.7-29l77.7,29l155.6-417l273.7,390L990,711.8L646.4,222.1L646.7,221.3z M594.1,201.7l12.3-8.6l12.5,17.8l-8.8-3.3L594.1,201.7z M171.3,806.6H26.1v-32.3h72.6v-16.1H26.1V726h72.6v-16.1H26.1v-32.3h72.6v-16.1H26.1v-32.2h72.6v-16.1H26.1v-32.2h72.6v-16.1H26.1v-32.2h72.6v-16.1H26.1v-32.3h72.6V468H26.1v-32.2h72.6v-16.1H26.1v-32.3h72.6v-16.1H26.1V339h72.6v-16.1H26.1v-32.2h72.6v-16.1H26.1v-32.3h72.6v-16.1H26.1v-48.4h145.1V601V806.6z M255,780.7l71.8-29.6l-6.1-14.9l-71.3,29.4l-11.3-30.3l70.3-29l-6.1-14.9l-69.8,28.8L221.1,690l68.7-28.4l-6.1-14.9l-68.2,28.1l-11.3-30.2l67.2-27.7l-6.1-14.9l-66.7,27.5l-11.2-30v-0.3l65.6-27.1l-6.1-14.9l-59.5,24.5v-30.6l46.8-19.3l-6.2-14.9l-40.6,16.8v-29.1l28.3-11.7l-6.2-14.9l-22.2,9.2V184.5l141.9,380.1l0,0l76.4,204.6l-136,50.7L255,780.7z M406.1,820l-45.1-16.9l55.9-20.9l3.8-1.4L406.1,820z M423.9,772.2l-63.3-169.5l40.1,15.7l5.9-15l-53.5-21l-6.6-17.7l6.3-17l65.5,25.7l5.9-15l-65.8-25.8l11.3-30.2l66.3,25.9l5.9-15l-66.5-26l11.3-30.2l67,26.2l5.9-15l-67.2-26.3l11.3-30.2l67.7,26.5l5.9-15l-67.9-26.6l11.3-30.2l68.4,26.8l5.9-15l-68.7-26.9l11.3-30.2l69.1,27.1l5.9-15L443,305.9l11.3-30.2l69.9,27.4l5.9-15l-70.1-27.4l11.3-30.2l70.6,27.6l5.9-15l-70.8-27.7L490,180l69.8,26l0,0l66.2,24.7l-66,176.9l0,0L423.9,772.2z M967.5,707.9l-118.8,83.3l-22.5-32l63.8-47.2l-9.6-13L817,746.1l-18.5-26.4l62.8-46.4l-9.6-13l-62.5,46.2L770.7,680l61.8-45.7l-9.6-13l-61.6,45.5l-18.5-26.4l60.9-45l-9.6-13l-60.6,44.8l-18.5-26.4l59.9-44.3l-9.6-13l-59.6,44.1l-18.5-26.4l59-43.6l-9.6-13l-58.6,43.4l-18.5-26.4l58-42.9l-9.6-13l-57.7,42.6l-18.5-26.4l57-42.1l-9.6-13l-56.7,41.9L604,442.3l56.1-41.5l-9.6-13l-55.7,41.2L578,405.3l2.1-5.6l51.1-37.8l-9.6-13l-31.2,23.1l49.1-131.7L967.5,707.9z"/></g><g></g><g></g><g></g><g></g><g></g><g></g><g></g><g></g><g></g><g></g><g></g><g></g><g></g><g></g><g></g></g>
</svg>