<svg xmlns="http://www.w3.org/2000/svg" width="15.567" height="18.195"
    viewBox="14.565 13.903 15.567 18.195">
    <g>
        <path
            d="M30.132 21.265c-.146.015-.297.02-.448.026a4.858 4.858 0 0 1-4.065-2.2v7.48a5.526 5.526 0 0 1-5.527 5.526 5.526 5.526 0 0 1-5.527-5.527 5.526 5.526 0 0 1 5.527-5.527c.116 0 .227.01.343.016v2.723c-.111-.015-.227-.036-.343-.036a2.826 2.826 0 0 0-2.824 2.824 2.826 2.826 0 0 0 2.824 2.825c1.558 0 2.935-1.231 2.935-2.79l.025-12.702h2.607a4.854 4.854 0 0 0 4.473 4.337v3.025"
            fill="#7b6f72" fill-rule="evenodd" />
    </g>
</svg>