<svg xmlns="http://www.w3.org/2000/svg" xmlns:xlink="http://www.w3.org/1999/xlink" width="25" height="25" viewBox="0 0 25 25">
  <defs>
    <linearGradient id="linear-gradient" x1="0.143" y1="0.144" x2="0.851" y2="0.852" gradientUnits="objectBoundingBox">
      <stop offset="0" stop-color="#241c47"/>
      <stop offset="0.537" stop-color="#171527"/>
      <stop offset="1" stop-color="#020203"/>
    </linearGradient>
  </defs>
  <g id="Group_6892" transform="translate(-86.669 -5.1)">
    <circle id="Ellipse_79" cx="12.5" cy="12.5" r="12.5" transform="translate(86.669 5.1)" fill="url(#linear-gradient)"/>
    <g id="Group_6885" transform="translate(92.147 9.594)">
      <g id="Group_6883">
        <path id="Path_8603" d="M52.046,13.756A6.26,6.26,0,0,0,55.7,14.88V12.211a1.052,1.052,0,0,1-.7-.14v2.107a6.26,6.26,0,0,1-3.652-1.124v5.337a4.736,4.736,0,0,1-4.775,4.775,4.322,4.322,0,0,1-2.669-.843,4.988,4.988,0,0,0,3.511,1.4,4.736,4.736,0,0,0,4.775-4.775l-.14-5.2Zm.843-2.528a3.954,3.954,0,0,1-.843-2.107V8.7h-.7a3.445,3.445,0,0,0,1.545,2.528ZM45.445,20.5a2.265,2.265,0,0,1-.421-1.264,2.218,2.218,0,0,1,2.247-2.247,1.266,1.266,0,0,1,.7.14V14.458h-.7v2.107c-.281,0-.421-.14-.7-.14a2.218,2.218,0,0,0-2.247,2.247A1.926,1.926,0,0,0,45.445,20.5Z" transform="translate(-41.653 -8.138)" fill="#fff"/>
        <path id="Path_8604" d="M51.689,13.235a6.26,6.26,0,0,0,3.652,1.124V12.252a4,4,0,0,1-1.966-1.124A3.6,3.6,0,0,1,51.689,8.6H49.722V18.993a2.218,2.218,0,0,1-2.247,2.247A1.839,1.839,0,0,1,45.79,20.4a2.378,2.378,0,0,1-1.264-1.966,2.218,2.218,0,0,1,2.247-2.247,1.266,1.266,0,0,1,.7.14V14.218A4.826,4.826,0,0,0,42.7,18.993a4.9,4.9,0,0,0,1.4,3.371,4.322,4.322,0,0,0,2.669.843,4.736,4.736,0,0,0,4.775-4.775v-5.2Z" transform="translate(-42.138 -8.179)" fill="#fff"/>
        <path id="Path_8605" d="M55.5,12.513v-.562a3.225,3.225,0,0,1-1.966-.562A5.511,5.511,0,0,0,55.5,12.513ZM51.851,8.862V8.3H49.182V18.693a2.218,2.218,0,0,1-2.247,2.247,2.03,2.03,0,0,1-.983-.281,2,2,0,0,0,1.685.843,2.218,2.218,0,0,0,2.247-2.247V8.862ZM47.778,14.48v-.562h-.7A4.736,4.736,0,0,0,42.3,18.693a4.669,4.669,0,0,0,2.107,3.933A4.9,4.9,0,0,1,43,19.255a4.826,4.826,0,0,1,4.775-4.775Z" transform="translate(-42.3 -8.3)" fill="#fff"/>
      </g>
      <g id="Group_6884">
        <path id="Path_8606" d="M52.046,13.756A6.26,6.26,0,0,0,55.7,14.88V12.211a1.052,1.052,0,0,1-.7-.14v2.107a6.26,6.26,0,0,1-3.652-1.124v5.337a4.736,4.736,0,0,1-4.775,4.775,4.322,4.322,0,0,1-2.669-.843,4.988,4.988,0,0,0,3.511,1.4,4.736,4.736,0,0,0,4.775-4.775l-.14-5.2Zm.843-2.528a3.954,3.954,0,0,1-.843-2.107V8.7h-.7a3.445,3.445,0,0,0,1.545,2.528ZM45.445,20.5a2.265,2.265,0,0,1-.421-1.264,2.218,2.218,0,0,1,2.247-2.247,1.266,1.266,0,0,1,.7.14V14.458h-.7v2.107c-.281,0-.421-.14-.7-.14a2.218,2.218,0,0,0-2.247,2.247A1.926,1.926,0,0,0,45.445,20.5Z" transform="translate(-41.653 -8.138)" fill="#e72f59" fill-rule="evenodd"/>
        <path id="Path_8607" d="M51.689,13.235a6.26,6.26,0,0,0,3.652,1.124V12.252a4,4,0,0,1-1.966-1.124A3.6,3.6,0,0,1,51.689,8.6H49.722V18.993a2.218,2.218,0,0,1-2.247,2.247A1.839,1.839,0,0,1,45.79,20.4a2.378,2.378,0,0,1-1.264-1.966,2.218,2.218,0,0,1,2.247-2.247,1.266,1.266,0,0,1,.7.14V14.218A4.826,4.826,0,0,0,42.7,18.993a4.9,4.9,0,0,0,1.4,3.371,4.322,4.322,0,0,0,2.669.843,4.736,4.736,0,0,0,4.775-4.775v-5.2Z" transform="translate(-42.138 -8.179)" fill="#fff" fill-rule="evenodd"/>
        <path id="Path_8608" d="M55.5,12.513v-.562a3.225,3.225,0,0,1-1.966-.562A5.511,5.511,0,0,0,55.5,12.513ZM51.851,8.862V8.3H49.182V18.693a2.218,2.218,0,0,1-2.247,2.247,2.03,2.03,0,0,1-.983-.281,2,2,0,0,0,1.685.843,2.218,2.218,0,0,0,2.247-2.247V8.862ZM47.778,14.48v-.562h-.7A4.736,4.736,0,0,0,42.3,18.693a4.669,4.669,0,0,0,2.107,3.933A4.9,4.9,0,0,1,43,19.255a4.826,4.826,0,0,1,4.775-4.775Z" transform="translate(-42.3 -8.3)" fill="#2ab7c5" fill-rule="evenodd"/>
      </g>
    </g>
  </g>
</svg>
