<svg xmlns="http://www.w3.org/2000/svg" width="61.118" height="49.529" viewBox="399.975 200 61.118 49.529"><g data-name="Upload"><path d="M443 238.238c-2.659 0-5.341-.028-8 0-.498 0-1-.43-1-1 .028-1.649.336-1 2-1 4.735 0 9.265.015 14 0 5.204-.014 9.114-4.81 9-10-.085-3.74-2.374-6.791-6-8-.483-.156-.943-.502-1-1-.668-5.346-5.682-8.753-11-8-1.749.256-3.592-.066-5 1-.427.313-.83.427-1 0-2.19-5.346-7.213-8.07-13-8-6.683.1-12.26 5.36-13 12-.128 1.209-.199 1.806 0 3 .085.47.398.872 0 1-3.924 1.209-6.986 4.962-7 9-.014 4.949 4.023 8.972 9 9 5.076.029 9.924.029 15 0 .683 0 1.014.375 1 1-.043 1.465.479 1-1 1h-14c-6.768 0-12.455-5.26-12-12 .284-4.237 2.232-7.009 6-9 .412-.213 1-.516 1-1-.014-8.147 5.01-14.55 13-16 6.057-1.094 12.56 1.64 16 7 .384.598.332.27 1 0 6.981-2.786 15.024 1.72 17 9 .114.441.573-.213 1 0 4.38 2.09 6.583 7.408 6 12-.654 5.162-4.038 9.048-9 10-1.123.214-1.862 0-3 0-1.99-.014-4.01 0-6 0Z" fill="#f8600d" fill-rule="evenodd" data-name="Path 5"/><path d="M430 224.238c-2.374 2.39-4.81 4.754-7 7-.44.441-.545.498-1 0-1.123-1.208-1.152-.848 0-2 2.858-2.858 5.142-6.113 8-9 .355-.355.573-.426 1 0 3.1 3.143 6.872 6.9 10 10 .341.342.398-.327 0 0-.455.37-1.488 2-2 2s-.588-1.587-1-2c-1.834-1.82-3.18-3.18-5-5l-1-1c-.199.27 0 .759 0 1 0 7.764-.028 16.237 0 24 0 .64-.346.029-1 0-1.479-.042-1 .465-1-1v-23c-.028-.199 0-.516 0-1Z" fill="#f8600d" fill-rule="evenodd" data-name="Path 6"/></g></svg>